<?xml version="1.0" standalone="no"?><!DOCTYPE svg PUBLIC "-//W3C//DTD SVG 1.1//EN" "http://www.w3.org/Graphics/SVG/1.1/DTD/svg11.dtd"><svg t="1607162660638" class="icon" viewBox="0 0 1024 1024" version="1.1" xmlns="http://www.w3.org/2000/svg" p-id="6859" xmlns:xlink="http://www.w3.org/1999/xlink" width="200" height="200"><defs><style type="text/css"></style></defs><path d="M694.14912 207.768137H146.424686c-67.218286 0-121.718491 54.419749-121.718492 121.547337v546.962286c0 67.1232 54.501669 121.547337 121.718492 121.547337h547.725897c67.218286 0 121.718491-54.424137 121.718491-121.547337v-546.962286c0-67.127589-54.501669-121.547337-121.719954-121.547337z m60.859246 668.511086c0 33.536-27.276434 60.7744-60.859246 60.7744H146.424686c-33.550629 0-60.859246-27.2384-60.859246-60.7744v-546.962286c0-33.536 27.308617-60.7744 60.859246-60.7744h547.725897c33.582811 0 60.859246 27.2384 60.859246 60.7744v546.962286z m0 0" p-id="6860"></path><path d="M207.282469 390.091337h426.007405v60.7744H207.282469zM207.282469 511.632823h426.007405v60.7744H207.282469zM207.282469 633.181623h426.007405v60.7744H207.282469zM207.282469 754.730423h243.436982v60.7744H207.282469z" p-id="6861"></path><path d="M876.72832 25.444937H329.00096c-67.222674 0-121.718491 54.4256-121.718491 121.5488H268.141714c0-33.536 27.308617-60.7744 60.859246-60.7744h547.72736c33.581349 0 60.857783 27.2384 60.857783 60.7744v546.962286c0 33.534537-27.276434 60.772937-60.857783 60.772937v60.7744c67.216823 0 121.717029-54.4256 121.717029-121.547337v-546.962286c0-67.1232-54.501669-121.5488-121.717029-121.5488z m0 0" p-id="6862"></path></svg>