<?xml version="1.0" standalone="no"?><!DOCTYPE svg PUBLIC "-//W3C//DTD SVG 1.1//EN" "http://www.w3.org/Graphics/SVG/1.1/DTD/svg11.dtd"><svg t="1607246180597" class="icon" viewBox="0 0 1024 1024" version="1.1" xmlns="http://www.w3.org/2000/svg" p-id="3917" xmlns:xlink="http://www.w3.org/1999/xlink" width="200" height="200"><defs><style type="text/css"></style></defs><path d="M982.71468828 577.89269975c0 10.2028623-3.72361008 19.02884854-11.17744154 26.48268001-7.45477554 7.45477554-16.2788727 11.18310785-26.47701369 11.18310785L813.26161184 615.5584876c0 67.08259318-13.13698856 123.95760183-39.42324145 170.63446949l122.38429865 122.98207852c7.45383146 7.44344292 11.18310785 16.27415139 11.18310785 26.47701369 0 10.198141-3.72361008 19.0241263-11.18310785 26.47795776-7.06286632 7.44344292-15.88224217 11.17272023-26.4770137 11.17272024-10.59005021 0-19.41698052-3.72927639-26.47701369-11.17272024L726.76392721 846.21362803c-1.96049109 1.95482479-4.89933866 4.50742852-8.821264 7.64459226-3.9304248 3.13621875-12.1633534 8.73343898-24.71861601 16.76993955-12.54959631 8.04311187-25.30034104 15.20230267-38.24279156 21.48040647-12.94717184 6.27338157-29.03528373 11.96598221-48.25583715 17.0664693-19.22055341 5.09198761-38.24940195 7.64648042-57.07143576 7.64648041L549.65398273 389.61759043l-75.31552085 0 0 527.2039256c-19.99681739 0-39.9133633-2.65270636-59.71564265-7.95056463-19.81644421-5.29219195-36.87724718-11.76577787-51.19657379-19.41603552-14.32121475-7.65025857-27.2627212-15.29390584-38.8311279-22.94888572-11.574073-7.65120265-20.10069633-14.0209087-25.599703-19.11667355l-8.821264-8.24331621L182.49636641 960.9486131c-7.84479661 8.23292767-17.25722917 12.3541142-28.24485491 12.3541142-9.41432163 0-17.84367734-3.14188506-25.29467566-9.41526664-7.45571961-7.06192225-11.47774852-15.78969492-12.07175022-26.18331802-0.58455909-10.39456718 2.4543911-19.51236093 9.13006951-27.35998976l118.85144845-133.5617402c-22.74868138-44.72582102-34.12727134-98.46744407-34.12727134-161.23148046L78.94165603 615.55093222c-10.20475138 0-19.02601538-3.72927639-26.47701369-11.17744154-7.45571961-7.45855277-11.18499693-16.2798177-11.18499693-26.48268 0-10.198141 3.72927639-19.02884854 11.18499693-26.47606961 7.45099831-7.45005423 16.27226231-11.17366431 26.47701369-11.17366432l131.79673213 0L210.73838816 367.25704104l-101.79253455-101.79253455c-7.45194239-7.45477554-11.17933062-16.2798177-11.17933061-26.47795776 0-10.197196 3.73210955-19.02884854 11.17933061-26.47701371 7.44910923-7.45383146 16.27792862-11.18783009 26.47795777-11.18783007 10.20380638 0 19.02223815 3.73966493 26.47890185 11.18783008l101.79253454 101.79253455 496.61233669 0 101.79347862-101.79253456c7.44816516-7.45383146 16.27226231-11.18783009 26.47701369-11.18783007 10.198141 0 19.02695946 3.73966493 26.47606962 11.18783007 7.45477554 7.44816516 11.18405193 16.2798177 11.18405192 26.4770137 0 10.198141-3.72927639 19.0241263-11.18405192 26.47795777l-101.79253455 101.79253455 0 172.98686979 131.79767621 0c10.2028623 0 19.02790446 3.72361008 26.47701369 11.17933062 7.45383146 7.44722108 11.18310785 16.27792862 11.18310785 26.4704033l0 0L982.71468828 577.89269975 982.71468828 577.89269975zM700.28124814 238.98182649L323.70930833 238.98182649c0-52.16548671 18.33852142-96.59288984 55.01745334-133.27276583 36.66854338-36.679876 81.10255781-55.01273111 133.26993267-55.01273112 52.16831987 0 96.60233338 18.33285511 133.27182177 55.01273112C681.9493371 142.38799166 700.28124814 186.81633977 700.28124814 238.98182649L700.28124814 238.98182649 700.28124814 238.98182649 700.28124814 238.98182649z" p-id="3918" fill="#1296db"></path></svg>