<?xml version="1.0" standalone="no"?><!DOCTYPE svg PUBLIC "-//W3C//DTD SVG 1.1//EN" "http://www.w3.org/Graphics/SVG/1.1/DTD/svg11.dtd"><svg t="1607162765077" class="icon" viewBox="0 0 1024 1024" version="1.1" xmlns="http://www.w3.org/2000/svg" p-id="9008" xmlns:xlink="http://www.w3.org/1999/xlink" width="200" height="200"><defs><style type="text/css"></style></defs><path d="M742.4 409.6h-614.4A72.5504 72.5504 0 0 1 51.2 342.4256V118.4256a72.5504 72.5504 0 0 1 76.8-67.1744h614.4A72.5504 72.5504 0 0 1 819.2 118.4768v224A72.5504 72.5504 0 0 1 742.4 409.6z" fill="#EDF3FC" p-id="9009"></path><path d="M742.4 409.6h-614.4A72.5504 72.5504 0 0 1 51.2 342.4256V118.4256a72.5504 72.5504 0 0 1 76.8-67.1744h614.4A72.5504 72.5504 0 0 1 819.2 118.4768v224A72.5504 72.5504 0 0 1 742.4 409.6z m-614.4-313.6a24.1664 24.1664 0 0 0-25.6 22.4256v224a24.1664 24.1664 0 0 0 25.6 22.4256h614.4a24.1664 24.1664 0 0 0 25.6-22.3744V118.4768a24.1664 24.1664 0 0 0-25.6-22.3744z" fill="#4087EC" p-id="9010"></path><path d="M486.4 1024h-102.4A76.8 76.8 0 0 1 307.2 947.2v-256A76.8 76.8 0 0 1 384 614.4h102.4a76.8 76.8 0 0 1 76.8 76.8v256A76.8 76.8 0 0 1 486.4 1024z m-102.4-358.4a25.6 25.6 0 0 0-25.6 25.6v256a25.6 25.6 0 0 0 25.6 25.6h102.4a25.6 25.6 0 0 0 25.6-25.6v-256a25.6 25.6 0 0 0-25.6-25.6z" fill="#4C5A6C" p-id="9011"></path><path d="M870.4 256h51.2v256h-51.2z" fill="#4C5A6C" p-id="9012"></path><path d="M409.6 460.8h51.2v153.6H409.6z" fill="#4C5A6C" p-id="9013"></path><path d="M921.6 460.8v51.2H409.6V460.8z" fill="#4C5A6C" p-id="9014"></path></svg>