<?xml version="1.0" standalone="no"?><!DOCTYPE svg PUBLIC "-//W3C//DTD SVG 1.1//EN" "http://www.w3.org/Graphics/SVG/1.1/DTD/svg11.dtd"><svg t="1607162589483" class="icon" viewBox="0 0 1024 1024" version="1.1" xmlns="http://www.w3.org/2000/svg" p-id="4694" xmlns:xlink="http://www.w3.org/1999/xlink" width="200" height="200"><defs><style type="text/css"></style></defs><path d="M512 1024C229.236364 1024 0 794.763636 0 512S229.236364 0 512 0s512 229.236364 512 512-229.236364 512-512 512z m0-68.235636c245.015273 0 443.764364-198.609455 443.764364-443.764364S757.015273 68.235636 512 68.235636c-245.015273 0-443.764364 198.749091-443.764364 443.764364 0 245.015273 198.749091 443.764364 443.764364 443.764364z" fill="#333333" p-id="4695"></path><path d="M525.265455 261.725091c46.638545 0 84.433455 12.334545 113.570909 38.632727 29.184 25.460364 43.659636 60.462545 43.659636 104.122182 0 35.653818-9.448727 65.442909-27.648 88.762182-6.516364 8.005818-26.996364 26.996364-61.114182 56.785454-13.870545 11.682909-24.017455 24.808727-30.626909 37.841455-8.005818 14.522182-11.636364 30.626909-11.636364 48.128v12.334545h-77.963636v-12.334545c0-26.996364 4.328727-50.269091 14.475636-69.12 9.495273-20.340364 37.143273-50.269091 82.292364-90.298182l12.334546-13.824c13.172364-16.802909 20.340364-34.164364 20.340363-53.154909 0-25.506909-7.307636-45.149091-21.131636-59.671273-14.522182-14.522182-35.653818-21.829818-61.905455-21.829818-32.814545 0-56.785455 10.193455-71.354182 31.325091-13.125818 17.501091-19.642182 42.309818-19.642181 74.286545H352.442182c0-53.154909 15.36-94.626909 45.847273-125.253818 30.859636-31.418182 73.122909-46.731636 126.976-46.731636zM512.232727 687.662545c15.313455 0 28.346182 4.328727 38.632728 14.522182 10.146909 9.495273 15.313455 21.829818 15.313454 37.143273 0 15.313455-5.818182 27.648-16.011636 37.794909a54.458182 54.458182 0 0 1-37.841455 14.522182c-14.475636 0-27.648-5.12-37.794909-15.313455a50.734545 50.734545 0 0 1-15.36-37.143272c0-15.313455 5.166545-27.648 15.36-37.143273 9.914182-10.053818 23.086545-14.429091 37.701818-14.429091z" fill="#1aaba8" p-id="4696"></path></svg>