<?xml version="1.0" standalone="no"?><!DOCTYPE svg PUBLIC "-//W3C//DTD SVG 1.1//EN" "http://www.w3.org/Graphics/SVG/1.1/DTD/svg11.dtd"><svg t="1605190985447" class="icon" viewBox="0 0 1024 1024" version="1.1" xmlns="http://www.w3.org/2000/svg" p-id="1141" xmlns:xlink="http://www.w3.org/1999/xlink" width="200" height="200"><defs><style type="text/css"></style></defs><path d="M147.936 754.048c-14.88 0-28.272-11.904-39.68-23.312-11.904-11.904-37.2-37.2-11.904-63.488l377.952-377.952c8.928-8.928 22.816-19.84 37.696-19.84s28.768 10.912 37.696 19.84l377.952 377.952c10.416 10.416 13.392 21.824 8.928 34.224-3.472 9.424-11.408 18.352-21.824 28.768-14.384 14.384-28.768 21.824-41.168 21.824-7.936 0-15.872-2.976-21.824-9.424L512 402.88l-340.256 340.256c-7.44 6.944-15.376 10.912-23.808 10.912z" fill="#1296db" p-id="1142"></path></svg>