<?xml version="1.0" encoding="utf-8"?>
<!-- Generator: Adobe Illustrator 17.0.0, SVG Export Plug-In . SVG Version: 6.00 Build 0)  -->
<!DOCTYPE svg PUBLIC "-//W3C//DTD SVG 1.1//EN" "http://www.w3.org/Graphics/SVG/1.1/DTD/svg11.dtd">
<svg version="1.1" id="图层_1" xmlns="http://www.w3.org/2000/svg" xmlns:xlink="http://www.w3.org/1999/xlink" x="0px" y="0px"
	 width="34px" height="26px" viewBox="0 0 34 26" enable-background="new 0 0 34 26" xml:space="preserve">
<g>
	<path fill-rule="evenodd" clip-rule="evenodd" fill="#FFFFFF" d="M-98,25.5c-1.93,0-3.5-1.57-3.5-3.5V4c0-1.93,1.57-3.5,3.5-3.5H30
		c1.93,0,3.5,1.57,3.5,3.5v18c0,1.93-1.57,3.5-3.5,3.5H-98z"/>
	<path fill="#D1D2D3" d="M30,1c1.654,0,3,1.346,3,3v18c0,1.654-1.346,3-3,3H-98c-1.654,0-3-1.346-3-3V4c0-1.654,1.346-3,3-3H30
		 M30,0H-98c-2.209,0-4,1.791-4,4v18c0,2.209,1.791,4,4,4H30c2.209,0,4-1.791,4-4V4C34,1.791,32.209,0,30,0L30,0z"/>
</g>
<path fill-rule="evenodd" clip-rule="evenodd" fill="#C2C2C2" d="M0,6h1v14H0V6z"/>
<g>
	<g>
		<path fill-rule="evenodd" clip-rule="evenodd" fill="#4196FF" d="M19,8V7c0-0.552-0.448-1-1-1h-2c-0.552,0-1,0.448-1,1v1h-4v1h2
			v8.571C13,18.41,13.547,19,14.412,19h5.176C20.485,19,21,18.463,21,17.571V9h2V8H19z M16,7h2v1h-2V7z M20,17.471
			C20,17.824,19.821,18,19.481,18h-5.048C14.155,18,14,17.799,14,17.529C14,15.323,14,9,14,9h6C20,9,20,15.23,20,17.471z M19,11h-1
			v5h1V11z M16,11h-1v5h1V11z"/>
	</g>
</g>
</svg>
