<?xml version="1.0" encoding="utf-8"?>
<!-- Generator: Adobe Illustrator 15.0.0, SVG Export Plug-In . SVG Version: 6.00 Build 0)  -->
<!DOCTYPE svg PUBLIC "-//W3C//DTD SVG 1.1//EN" "http://www.w3.org/Graphics/SVG/1.1/DTD/svg11.dtd">
<svg version="1.1" id="图层_1" xmlns="http://www.w3.org/2000/svg" xmlns:xlink="http://www.w3.org/1999/xlink" x="0px" y="0px"
	 width="22px" height="22px" viewBox="0 0 22 22" enable-background="new 0 0 22 22" xml:space="preserve">
<path fill-rule="evenodd" clip-rule="evenodd" fill="#73C554" d="M16.877,5.746c-0.76,1.062-2.396,2.958-4.125,4.895
	c1.678,2.302,3.395,4.66,4.154,5.757c0.279,0.442-0.117,0.572-0.336,0.572c-0.354,0.003-0.646,0-0.961,0.003
	c-0.273,0-0.469-0.059-0.678-0.415c-0.578-0.829-1.914-2.653-3.351-4.616C10.12,13.556,8.724,15.063,7.852,16h2.727
	c0.215,0,0.39,0.174,0.39,0.39v0.221c0,0.215-0.175,0.39-0.39,0.39c0,0-4.58-0.025-5.273-0.03c-0.225,0-0.538-0.155-0.144-0.586
	c0.842-1.152,3.141-3.587,5.341-5.916c-1.376-1.882-2.696-3.7-3.395-4.714C6.696,5.039,7.389,4.999,7.506,4.999
	c0.346-0.002,0.596-0.002,0.868-0.004c0.183-0.003,0.379,0.106,0.599,0.427c0.531,0.757,1.564,2.18,2.728,3.776
	c1.543-1.641,2.881-3.089,3.399-3.796C15.363,5.004,15.553,5.006,15.738,5c0.234-0.002,0.424-0.006,0.732-0.006
	C16.861,4.964,17.256,5.071,16.877,5.746z"/>
</svg>
