<?xml version="1.0" encoding="utf-8"?>
<!-- Generator: Adobe Illustrator 17.0.0, SVG Export Plug-In . SVG Version: 6.00 Build 0)  -->
<!DOCTYPE svg PUBLIC "-//W3C//DTD SVG 1.1//EN" "http://www.w3.org/Graphics/SVG/1.1/DTD/svg11.dtd">
<svg version="1.1" id="图层_1" xmlns="http://www.w3.org/2000/svg" xmlns:xlink="http://www.w3.org/1999/xlink" x="0px" y="0px"
	 width="32px" height="32px" viewBox="0 0 32 32" enable-background="new 0 0 32 32" xml:space="preserve">
<circle opacity="0.4" cx="16" cy="16" r="16"/>
<path fill-rule="evenodd" clip-rule="evenodd" fill="#FFFFFF" d="M22.708,22H9.296c-0.715,0-1.292-0.614-1.292-1.372v-8.384
	c0-0.757,0.577-1.286,1.292-1.286h2.653l1.519-1.538V9.417c0.235-0.273,0.57-0.444,0.946-0.444h3.229
	c0.355,0,0.666,0.155,0.896,0.399l0.007,0.008c0.005,0,0.012,0.009,0.012,0.009l1.554,1.57h2.596c0.711,0,1.292,0.594,1.292,1.352
	v8.319C24,21.386,23.42,22,22.708,22z M16.004,11.982c-2.209,0-4,1.791-4,4s1.791,4,4,4s4-1.791,4-4S18.213,11.982,16.004,11.982z
	 M21.505,12.989c-0.28,0-0.51,0.223-0.51,0.499c0,0.276,0.23,0.499,0.51,0.499c0.282,0,0.51-0.223,0.51-0.499
	C22.016,13.212,21.787,12.989,21.505,12.989z M16.004,18.982c-1.657,0-3-1.343-3-3s1.343-3,3-3s3,1.343,3,3
	S17.661,18.982,16.004,18.982z"/>
</svg>
