<?xml version="1.0" encoding="utf-8"?>
<!-- Generator: Adobe Illustrator 17.0.0, SVG Export Plug-In . SVG Version: 6.00 Build 0)  -->
<!DOCTYPE svg PUBLIC "-//W3C//DTD SVG 1.1//EN" "http://www.w3.org/Graphics/SVG/1.1/DTD/svg11.dtd">
<svg version="1.1" id="图层_1" xmlns="http://www.w3.org/2000/svg" xmlns:xlink="http://www.w3.org/1999/xlink" x="0px" y="0px"
	 width="24px" height="24px" viewBox="0 0 24 24" enable-background="new 0 0 24 24" xml:space="preserve">
<path fill-rule="evenodd" clip-rule="evenodd" fill="#444B56" d="M15,12.061c0,1.105-1.08,2-2.027,2c-0.947,0-1.964-0.895-1.964-2
	v-3.5c0-0.276,0.223-0.5,0.46-0.5c0.237,0,0.46,0.224,0.46,0.5v3.5c0,0.552,0.571,1,1.045,1s1.045-0.448,1.045-1c0,0,0-4.525,0-3.5
	c0-1.381-0.834-2.5-2.018-2.5c-1.184,0-2.049,1.119-2.049,2.5c0,3.493,0,7.837,0,6c0,1.381,0.866,2.5,2.049,2.5
	c1.037,0,1.901-0.859,2.1-2h0.857c-0.21,1.694-1.447,3-2.957,3c-1.657,0-3-1.567-3-3.5c0,1.865,0-2.554,0-6c0-1.933,1.343-3.5,3-3.5
	c1.657,0,3,1.567,3,3.5C15,7.537,15,12.061,15,12.061z"/>
</svg>
