<?xml version="1.0" encoding="utf-8"?>
<!-- Generator: Adobe Illustrator 17.0.0, SVG Export Plug-In . SVG Version: 6.00 Build 0)  -->
<!DOCTYPE svg PUBLIC "-//W3C//DTD SVG 1.1//EN" "http://www.w3.org/Graphics/SVG/1.1/DTD/svg11.dtd">
<svg version="1.1" id="图层_1" xmlns="http://www.w3.org/2000/svg" xmlns:xlink="http://www.w3.org/1999/xlink" x="0px" y="0px"
	 width="28px" height="28px" viewBox="0 0 28 28" enable-background="new 0 0 28 28" xml:space="preserve">
<path fill-rule="evenodd" clip-rule="evenodd" fill="#638AD0" d="M2.034,0h24c0.552,0,1,0.448,1,1v26c0,0.552-0.448,1-1,1h-24
	c-0.552,0-1-0.448-1-1V1C1.034,0.448,1.481,0,2.034,0z"/>
<g>
	<g>
		<path fill-rule="evenodd" clip-rule="evenodd" fill="#FFFFFF" d="M12.784,4.983h0.5c0.414,0,0.75-0.336,0.75-0.75V3.732
			c0-0.414-0.336-0.749-0.75-0.749h-0.5c-0.414,0-0.75,0.335-0.75,0.749v0.501C12.034,4.647,12.37,4.983,12.784,4.983z
			 M15.284,4.983h-0.5c-0.414,0-0.75,0.336-0.75,0.75v0.5c0,0.414,0.336,0.75,0.75,0.75h0.5c0.414,0,0.75-0.336,0.75-0.75v-0.5
			C16.034,5.318,15.698,4.983,15.284,4.983z M12.784,8.983h0.5c0.414,0,0.75-0.337,0.75-0.75V7.733c0-0.414-0.336-0.75-0.75-0.75
			h-0.5c-0.414,0-0.75,0.336-0.75,0.75v0.499C12.034,8.646,12.37,8.983,12.784,8.983z M15.284,8.983h-0.5
			c-0.414,0-0.75,0.336-0.75,0.75v0.5c0,0.414,0.336,0.75,0.75,0.75h0.5c0.414,0,0.75-0.336,0.75-0.75v-0.5
			C16.034,9.318,15.698,8.983,15.284,8.983z M14.034,11.733c0-0.414-0.336-0.75-0.75-0.75h-0.5c-0.414,0-0.75,0.336-0.75,0.75v0.5
			c0,0.415,0.336,0.75,0.75,0.75h0.5c0.414,0,0.75-0.335,0.75-0.75V11.733z M15.284,12.983h-0.5c-0.414,0-0.75,0.336-0.75,0.75v0.5
			c0,0.414,0.336,0.75,0.75,0.75h0.5c0.414,0,0.75-0.335,0.75-0.75v-0.5C16.034,13.319,15.698,12.983,15.284,12.983z"/>
	</g>
</g>
<g>
	<g>
		<path fill-rule="evenodd" clip-rule="evenodd" fill="#FFFFFF" d="M15,17h-2c-0.552,0-1,0.373-1,0.833v3.333
			c0,0.46,0.448,0.833,1,0.833h2c0.553,0,1-0.373,1-0.833v-3.333C16,17.373,15.552,17,15,17z M15,20.399c0,0.332-0.336,0.6-0.75,0.6
			h-0.5c-0.414,0-0.75-0.268-0.75-0.6v-0.8c0-0.332,0.336-0.6,0.75-0.6h0.5c0.414,0,0.75,0.269,0.75,0.6V20.399z"/>
	</g>
</g>
</svg>
