<?xml version="1.0" encoding="utf-8"?>
<!-- Generator: Adobe Illustrator 17.0.0, SVG Export Plug-In . SVG Version: 6.00 Build 0)  -->
<!DOCTYPE svg PUBLIC "-//W3C//DTD SVG 1.1//EN" "http://www.w3.org/Graphics/SVG/1.1/DTD/svg11.dtd">
<svg version="1.1" id="图层_1" xmlns="http://www.w3.org/2000/svg" xmlns:xlink="http://www.w3.org/1999/xlink" x="0px" y="0px"
	 width="16px" height="16px" viewBox="0 0 16 16" enable-background="new 0 0 16 16" xml:space="preserve">
<g>
	<g>
		<path fill-rule="evenodd" clip-rule="evenodd" fill="#919597" d="M7.5,0C3.358,0,0,3.358,0,7.5C0,11.642,3.358,15,7.5,15
			c4.142,0,7.5-3.358,7.5-7.5C15,3.358,11.642,0,7.5,0z M7.5,14C3.91,14,1,11.09,1,7.5C1,3.91,3.91,1,7.5,1C11.09,1,14,3.91,14,7.5
			C14,11.09,11.09,14,7.5,14z"/>
	</g>
</g>
<path fill="#919597" d="M7.615,9.196c0-0.352,0.068-0.625,0.205-0.82C7.956,8.18,8.224,7.917,8.623,7.585
	c0.496-0.41,0.85-0.801,1.061-1.172C9.894,6.042,9.999,5.63,9.999,5.176c0-0.648-0.226-1.173-0.677-1.573
	c-0.451-0.4-1.058-0.601-1.819-0.601c-0.766,0-1.477,0.205-2.133,0.615v1.195c0.566-0.566,1.223-0.85,1.969-0.85
	c0.472,0,0.847,0.125,1.122,0.375c0.275,0.25,0.413,0.568,0.413,0.955c0,0.363-0.089,0.685-0.267,0.964
	C8.43,6.537,8.134,6.837,7.72,7.157c-0.422,0.328-0.715,0.64-0.879,0.935C6.677,8.386,6.595,8.739,6.595,9.149v0.504h1.02V9.196z
	 M6.575,10.904c-0.147,0.143-0.22,0.319-0.22,0.53c0,0.215,0.074,0.392,0.223,0.533c0.148,0.141,0.322,0.211,0.521,0.211
	c0.207,0,0.385-0.071,0.533-0.214c0.148-0.142,0.223-0.319,0.223-0.53c0-0.207-0.074-0.383-0.223-0.527
	c-0.148-0.144-0.326-0.217-0.533-0.217C6.896,10.69,6.721,10.761,6.575,10.904z"/>
</svg>
