<?xml version="1.0" encoding="utf-8"?>
<!-- Generator: Adobe Illustrator 17.0.0, SVG Export Plug-In . SVG Version: 6.00 Build 0)  -->
<!DOCTYPE svg PUBLIC "-//W3C//DTD SVG 1.1//EN" "http://www.w3.org/Graphics/SVG/1.1/DTD/svg11.dtd">
<svg version="1.1" id="图层_1" xmlns="http://www.w3.org/2000/svg" xmlns:xlink="http://www.w3.org/1999/xlink" x="0px" y="0px"
	 width="28px" height="28px" viewBox="0 0 28 28" enable-background="new 0 0 28 28" xml:space="preserve">
<g>
	<path fill-rule="evenodd" clip-rule="evenodd" fill="#F8B258" d="M2,0h24c0.552,0,1,0.448,1,1v26c0,0.552-0.448,1-1,1H2
		c-0.552,0-1-0.448-1-1V1C1,0.448,1.447,0,2,0z"/>
</g>
<g>
	<g>
		<path fill-rule="evenodd" clip-rule="evenodd" fill="#FFFFFF" d="M20,7h-2V6h-1v1h-6V6h-1v1H8C6.896,7,6,7.895,6,9v10
			c0,1.105,0.896,2,2,2h12c1.105,0,2-0.896,2-2V9C22,7.895,21.105,7,20,7z M11,17H9v-1h2V17z M11,14H9v-1h2V14z M15,17h-2v-1h2V17z
			 M15,14h-2v-1h2V14z M19,17h-2v-1h2V17z M19,14h-2v-1h2V14z M21,11H7v-1h14V11z"/>
	</g>
</g>
</svg>
