<?xml version="1.0" encoding="utf-8"?>
<!-- Generator: Adobe Illustrator 15.0.0, SVG Export Plug-In . SVG Version: 6.00 Build 0)  -->
<!DOCTYPE svg PUBLIC "-//W3C//DTD SVG 1.1//EN" "http://www.w3.org/Graphics/SVG/1.1/DTD/svg11.dtd">
<svg version="1.1" id="图层_1" xmlns="http://www.w3.org/2000/svg" xmlns:xlink="http://www.w3.org/1999/xlink" x="0px" y="0px"
	 width="76px" height="76px" viewBox="0 0 76 76" enable-background="new 0 0 76 76" xml:space="preserve">
<path fill-rule="evenodd" clip-rule="evenodd" fill="#D8EFFE" d="M38,0c20.986,0,38,17.013,38,38c0,20.986-17.014,38-38,38
	C17.013,76,0,58.986,0,38C0,17.013,17.013,0,38,0z"/>
<path fill-rule="evenodd" clip-rule="evenodd" fill="#FFFFFF" d="M49,31.06v-4.5c0-5.799-4.701-10.5-10.5-10.5h-1
	c-5.799,0-10.5,4.701-10.5,10.5v4.5h-4v-4.5c0-8.008,6.492-14.5,14.5-14.5h1c8.008,0,14.5,6.492,14.5,14.5v4.5H49z"/>
<path fill-rule="evenodd" clip-rule="evenodd" fill="#FDE46E" d="M22.067,30.964h32c1.656,0,3,1.343,3,3v21c0,1.656-1.344,3-3,3h-32
	c-1.656,0-3-1.344-3-3v-21C19.067,32.307,20.411,30.964,22.067,30.964z"/>
<path fill-rule="evenodd" clip-rule="evenodd" fill="#6F5008" d="M39.976,45.629v3.35c0,0.553-0.447,1-1,1h-1c-0.552,0-1-0.447-1-1
	v-3.35c-1.179-0.563-2-1.757-2-3.15c0-1.934,1.567-3.5,3.5-3.5c1.934,0,3.5,1.566,3.5,3.5
	C41.976,43.872,41.155,45.066,39.976,45.629z"/>
<g>
	<g>
		<path fill-rule="evenodd" clip-rule="evenodd" fill="#FFFBED" d="M23.969,33.969h2v-1h-2V33.969z M27.969,32.969v1h12v-1H27.969z"
			/>
	</g>
</g>
</svg>
