<?xml version="1.0" encoding="utf-8"?>
<!-- Generator: Adobe Illustrator 15.0.0, SVG Export Plug-In . SVG Version: 6.00 Build 0)  -->
<!DOCTYPE svg PUBLIC "-//W3C//DTD SVG 1.1//EN" "http://www.w3.org/Graphics/SVG/1.1/DTD/svg11.dtd">
<svg version="1.1" id="图层_1" xmlns="http://www.w3.org/2000/svg" xmlns:xlink="http://www.w3.org/1999/xlink" x="0px" y="0px"
	 width="22px" height="22px" viewBox="0 0 22 22" enable-background="new 0 0 22 22" xml:space="preserve">
<g>
	<g>
		<path fill-rule="evenodd" clip-rule="evenodd" fill="#A4AABA" d="M9.904,10.77c-0.005-0.006-0.01-0.012-0.015-0.019l-0.005,0.007
			C9.891,10.762,9.897,10.766,9.904,10.77z M16.933,4.346l-0.07-0.07c-1.609-1.609-4.219-1.609-5.828,0L8.997,6.313
			c-0.111,0.11-0.214,0.227-0.31,0.348c0.605-0.04,1.218,0.052,1.79,0.278l1.539-1.54c1.027-1.027,2.694-1.027,3.722,0l0.07,0.071
			c1.028,1.028,1.028,2.694,0,3.722l-1.896,1.896c-1.028,1.028-2.694,1.028-3.722,0l-0.07-0.069
			c-0.063-0.063-0.121-0.13-0.176-0.198l-0.07-0.048c0,0-0.069-0.04-0.183-0.099c-0.516-0.199-1.103-0.155-1.588,0.13
			c0.201,0.486,0.497,0.942,0.893,1.337l0.07,0.07c1.609,1.609,4.219,1.609,5.828,0l2.037-2.037
			C18.542,8.565,18.542,5.956,16.933,4.346z M9.067,15.934c-1.027,1.027-2.694,1.027-3.722,0l-0.07-0.07
			c-1.028-1.027-1.028-2.695,0-3.723l1.896-1.896c1.027-1.028,2.694-1.028,3.722,0l0.07,0.07c0.063,0.063,0.121,0.13,0.176,0.198
			l0.07,0.048c0,0,0.068,0.04,0.182,0.099c0.516,0.198,1.104,0.155,1.588-0.13c-0.201-0.487-0.497-0.942-0.893-1.338l-0.07-0.07
			c-1.609-1.609-4.219-1.609-5.829,0l-2.036,2.037c-1.61,1.609-1.61,4.218,0,5.828l0.07,0.07c1.609,1.609,4.219,1.609,5.828,0
			l2.037-2.035c0.111-0.111,0.215-0.229,0.311-0.35c-0.605,0.041-1.219-0.053-1.791-0.277L9.067,15.934z M11.2,10.574
			c-0.007-0.003-0.014-0.007-0.02-0.011c0.004,0.007,0.01,0.012,0.015,0.019L11.2,10.574z"/>
	</g>
</g>
</svg>
