<?xml version="1.0" encoding="utf-8"?>
<!-- Generator: Adobe Illustrator 17.0.0, SVG Export Plug-In . SVG Version: 6.00 Build 0)  -->
<!DOCTYPE svg PUBLIC "-//W3C//DTD SVG 1.1//EN" "http://www.w3.org/Graphics/SVG/1.1/DTD/svg11.dtd">
<svg version="1.1" id="图层_1" xmlns="http://www.w3.org/2000/svg" xmlns:xlink="http://www.w3.org/1999/xlink" x="0px" y="0px"
	 width="18px" height="18px" viewBox="0 0 18 18" enable-background="new 0 0 18 18" xml:space="preserve">
<circle fill="#E81C1F" cx="9" cy="9" r="9"/>
<g>
	<g>
		<path fill-rule="evenodd" clip-rule="evenodd" fill="#FFFFFF" d="M15.005,7.578v-3.05c0,0.264-0.664,0.533-1.467,0.533h-1.221
			c-0.804,0-1.333,0.533-1.333,1.333v7.642c0-0.26,0.206-0.533,1.004-0.533c0-0.117,0-1.509,0-1.509s1.604,0,1.683,0
			c0.79,0,1.333-0.54,1.333-1.333V8.644h-0.933C14.658,8.644,15.005,8.241,15.005,7.578z M13.938,7.978
			c-0.497,0.038-1.754,0.748-1.754,1.199c0-0.19,1.225-0.079,1.533-0.079h0.221v1.227c0,0.402-1.272,0.667-1.666,0.667
			c-0.087,0-0.283,0-0.283,0s0-4.003,0-4.325C11.988,6.269,13.263,6,13.655,6c0.05,0,0.283,0,0.283,0S13.938,6.96,13.938,7.978z
			 M8.657,5.001H6.972V3.158c0,0.267-0.187,0.533-0.99,0.533v1.309H4.328c-0.809,0-1.333,0.537-1.333,1.333v6.196
			c0-0.273,0.534-0.533,1.333-0.533h4.329c0.802,0,1.333-0.537,1.333-1.333c0-0.85,0-6.383,0-6.196
			C9.991,4.737,9.459,5.001,8.657,5.001z M8.97,10.359c0,0.402-0.273,0.667-0.667,0.667c-0.538,0-4.318,0-4.318,0s0-2.934,0-4.325
			c0-0.399,0.266-0.667,0.667-0.667h1.331v2.011H4.918c-0.464,0-0.8,0.761-0.8,1.237c0-0.177,0.199-0.267,0.533-0.267h1.331v1.611
			c0,0.091,0.134,0.133,0.134,0.133h0.723c0,0,0.133-0.039,0.133-0.133V9.015h1.064c0.465,0,0.8-0.773,0.8-1.237
			c0,0.19-0.225,0.267-0.533,0.267H6.972V6.034c1.033,0,1.998,0,1.998,0S8.97,6.869,8.97,10.359z"/>
	</g>
</g>
</svg>
