<?xml version="1.0" encoding="utf-8"?>
<!-- Generator: Adobe Illustrator 15.0.0, SVG Export Plug-In . SVG Version: 6.00 Build 0)  -->
<!DOCTYPE svg PUBLIC "-//W3C//DTD SVG 1.1//EN" "http://www.w3.org/Graphics/SVG/1.1/DTD/svg11.dtd">
<svg version="1.1" id="图层_1" xmlns="http://www.w3.org/2000/svg" xmlns:xlink="http://www.w3.org/1999/xlink" x="0px" y="0px"
	 width="22px" height="22px" viewBox="0 0 22 22" enable-background="new 0 0 22 22" xml:space="preserve">
<path fill-rule="evenodd" clip-rule="evenodd" fill="#FFFFFF" d="M16.011,15.289c0,0.711-0.277,1.715-1.777,1.715h-0.889
	c-0.736,0-1.335-0.576-1.335-1.287v-0.428c0-0.709,0.599-1.285,1.335-1.285h1.334c0.117,0,0.223,0.037,0.332,0.064V7.383l-7,1.503
	v6.922c0,0.053-0.028,0.102-0.072,0.137c0.033,0.111,0.072,0.221,0.072,0.344c0,0.711-0.292,1.715-1.778,1.715H5.344
	c-0.736,0-1.333-0.576-1.333-1.285v-0.43c0-0.709,0.597-1.285,1.333-1.285h1.333c0.118,0,0.224,0.037,0.333,0.064V8.569V7.2V6.83
	c0-0.647,0.314-0.734,0.9-0.869l7.199-1.738c0.727-0.219,0.9,0.561,0.9,0.868v0.122V6.83v7.965c0,0.059-0.027,0.109-0.072,0.146
	C15.972,15.055,16.011,15.166,16.011,15.289z"/>
</svg>
