<?xml version="1.0" encoding="utf-8"?>
<!-- Generator: Adobe Illustrator 15.0.0, SVG Export Plug-In . SVG Version: 6.00 Build 0)  -->
<!DOCTYPE svg PUBLIC "-//W3C//DTD SVG 1.1//EN" "http://www.w3.org/Graphics/SVG/1.1/DTD/svg11.dtd">
<svg version="1.1" id="图层_1" xmlns="http://www.w3.org/2000/svg" xmlns:xlink="http://www.w3.org/1999/xlink" x="0px" y="0px"
	 width="12px" height="13px" viewBox="0 0 12 13" enable-background="new 0 0 12 13" xml:space="preserve">
<path fill-rule="evenodd" clip-rule="evenodd" fill="#FBAEC5" d="M12.001,10.105c0,0.711-0.278,1.715-1.778,1.715H9.334
	C8.598,11.82,8,11.244,8,10.533v-0.428C8,9.396,8.598,8.82,9.334,8.82h1.334c0.117,0,0.224,0.037,0.333,0.064V2.199l-7,1.503v6.922
	c0-0.076,0,0.269,0,0.481c0,0.71-0.292,1.715-1.778,1.715H1.334C0.598,12.82,0,12.244,0,11.534v-0.429
	c0-0.71,0.597-1.286,1.333-1.286h1.333c0.118,0,0.224,0.037,0.333,0.065V2.646c0-0.647,0.314-0.734,0.9-0.869l7.2-1.738
	c0.727-0.219,0.9,0.561,0.9,0.868v8.705C12.001,9.537,12.001,9.894,12.001,10.105z"/>
</svg>
