<?xml version="1.0" encoding="utf-8"?>
<!-- Generator: Adobe Illustrator 15.0.0, SVG Export Plug-In . SVG Version: 6.00 Build 0)  -->
<!DOCTYPE svg PUBLIC "-//W3C//DTD SVG 1.1//EN" "http://www.w3.org/Graphics/SVG/1.1/DTD/svg11.dtd">
<svg version="1.1" id="图层_1" xmlns="http://www.w3.org/2000/svg" xmlns:xlink="http://www.w3.org/1999/xlink" x="0px" y="0px"
	 width="22px" height="22px" viewBox="0 0 22 22" enable-background="new 0 0 22 22" xml:space="preserve">
<path fill-rule="evenodd" clip-rule="evenodd" fill="#A1A7B8" d="M19.546,7.958H18v7.556c0,0.246-0.298,0.443-0.666,0.443h-0.667
	c-0.368,0-0.667-0.197-0.667-0.443V7.958h-1.545c-0.047,0-0.089-0.02-0.131-0.039l-2.361,3.039l2.893,3.723
	c0.145,0.154,0.145,0.406,0,0.561l-0.526,0.561c-0.146,0.156-0.381,0.156-0.526,0L11,12.197l-2.802,3.605
	c-0.146,0.156-0.381,0.156-0.526,0l-0.526-0.561C7,15.088,7,14.836,7.146,14.682l2.893-3.723L7.677,7.919
	C7.635,7.938,7.592,7.958,7.546,7.958H6v7.556c0,0.246-0.298,0.443-0.667,0.443H4.667C4.299,15.957,4,15.76,4,15.514V7.958H2.455
	C2.204,7.958,2,7.659,2,7.291V6.625c0-0.368,0.204-0.666,0.455-0.666h5.091c0.087,0,0.164,0.045,0.233,0.107
	C7.918,5.993,8.083,5.99,8.198,6.113L11,9.72l2.803-3.607c0.115-0.123,0.28-0.12,0.42-0.047c0.068-0.063,0.145-0.107,0.232-0.107
	h5.091C19.797,5.958,20,6.256,20,6.625v0.667C20,7.659,19.797,7.958,19.546,7.958z"/>
</svg>
