<?xml version="1.0" encoding="utf-8"?>
<!-- Generator: Adobe Illustrator 15.0.0, SVG Export Plug-In . SVG Version: 6.00 Build 0)  -->
<!DOCTYPE svg PUBLIC "-//W3C//DTD SVG 1.1//EN" "http://www.w3.org/Graphics/SVG/1.1/DTD/svg11.dtd">
<svg version="1.1" id="图层_1" xmlns="http://www.w3.org/2000/svg" xmlns:xlink="http://www.w3.org/1999/xlink" x="0px" y="0px"
	 width="22px" height="22px" viewBox="0 0 22 22" enable-background="new 0 0 22 22" xml:space="preserve">
<g>
	<path fill="#FFFFFF" d="M13.143,5.998l1.841,1.878v8.121h-8v-10H13.143 M13.983,3.998H5.411c-0.235,0-0.428,0.196-0.428,0.438
		V17.56c0,0.242,0.192,0.438,0.428,0.438h11.144c0.236,0,0.429-0.195,0.429-0.438V7.06L13.983,3.998L13.983,3.998z"/>
</g>
<g>
	<path fill="#5899EF" d="M8,6.739l6.818,4.374L8,15.329V6.739 M6.928,4.039c-0.597,0-0.914,0.425-0.928,1.01v11.959
		c0.034,0.601,0.314,1.037,0.893,1.037c0.318,0,0.726-0.132,1.231-0.44l8.266-5.113c0.717-0.508,0.93-1.896,0-2.747L8.225,4.508
		C7.706,4.179,7.272,4.039,6.928,4.039L6.928,4.039z"/>
</g>
</svg>
