<?xml version="1.0" encoding="UTF-8"?>
<svg width="24px" height="24px" viewBox="0 0 24 24" version="1.1" xmlns="http://www.w3.org/2000/svg" xmlns:xlink="http://www.w3.org/1999/xlink">
    <!-- Generator: Sketch 45.1 (43504) - http://www.bohemiancoding.com/sketch -->
    <title>weibo</title>
    <desc>Created with Sketch.</desc>
    <defs></defs>
    <g id="Page-1" stroke="none" stroke-width="1" fill="none" fill-rule="evenodd">
        <g id="weibo" fill-rule="nonzero">
            <path d="M12,0 C5.4,0 0,5.4 0,12 C0,18.6 5.4,24 12,24 C18.6,24 24,18.6 24,12 C24,5.4 18.6,0 12,0 Z" id="Shape" fill="#F34545"></path>
            <path d="M18.9,9.6 L18.9,9.6 C18.9,9.6 18.9,9.6 18.9,9.6 C18.9,9.9 18.7,10.1 18.5,10.1 C18.2,10 18,9.8 18,9.6 C18,9.5 18,9.5 18,9.4 C18,9.2 18.1,9 18.1,8.8 C18.1,7.3 17,6.1 15.6,6.1 C15.6,6.1 15.5,6.1 15.5,6.1 L15.5,6.1 C15.5,6.1 15.4,6.1 15.4,6.1 C15.1,6.1 14.9,5.9 14.9,5.6 C14.9,5.3 15.1,5.1 15.4,5.1 C15.4,5.1 15.5,5.1 15.5,5.1 L15.5,5.1 C15.5,5.1 15.5,5.1 15.6,5.1 C17.5,5.1 19,6.7 19,8.7 C19,9 19,9.3 18.9,9.6 Z M17.4,8.7 C17.4,8.9 17.4,9 17.3,9.1 C17.3,9.3 17.1,9.5 16.9,9.5 C16.7,9.5 16.5,9.3 16.5,9.1 C16.5,9 16.5,9 16.5,8.9 L16.5,8.9 C16.5,8.8 16.5,8.8 16.5,8.7 C16.5,8.2 16.1,7.8 15.7,7.8 L15.7,7.7 C15.6,7.7 15.6,7.7 15.5,7.7 C15.3,7.7 15.1,7.5 15.1,7.3 C15.1,7.1 15.3,6.9 15.5,6.9 C15.6,6.9 15.6,6.9 15.7,6.9 L15.7,6.9 C16.7,6.9 17.4,7.7 17.4,8.7 Z M15.7,9.9 C15.7,9.9 15.7,9.9 15.7,9.9 C15.7,10 15.7,10 15.7,9.9 C15.7,10.3 15.6,10.5 15.4,10.8 C15.4,10.8 15.4,10.8 15.4,10.8 C15.4,10.9 15.4,10.9 15.4,11 C15.4,11.3 15.6,11.5 15.9,11.5 C15.9,11.5 16,11.5 16,11.5 C16.1,11.5 16.1,11.5 16.2,11.5 C16.2,11.5 16.2,11.5 16.2,11.5 C16.9,11.6 17.5,12.2 17.5,13 C17.5,13.1 17.5,13.1 17.5,13.2 C17.5,16.2 12.9,18.1 10.5,18.1 C8,18.1 5,16.9 5,13.9 C5,11.1 8.2,7.2 10.5,6.8 C10.6,6.8 10.7,6.8 10.8,6.8 C11.5,6.8 12,7.4 12,8.1 C12,8.3 11.9,8.6 11.8,8.8 L11.8,8.8 L11.8,8.8 C11.8,8.8 11.8,8.9 11.8,8.9 C11.8,9.1 11.9,9.2 12.1,9.2 C12.2,9.2 12.2,9.2 12.3,9.2 L12.3,9.2 C12.7,8.8 13.3,8.5 13.9,8.5 C14,8.5 14.1,8.5 14.1,8.5 C14.2,8.5 14.2,8.5 14.3,8.5 C15.1,8.5 15.7,9.1 15.7,9.9 Z M10.7,11 C8.2,11.2 6.3,12.7 6.4,14.4 C6.5,16.1 8.6,17.4 11.1,17.2 C13.6,17 15.5,15.5 15.4,13.8 C15.3,12.1 13.2,10.8 10.7,11 Z M10.7,16.6 C9.4,16.8 8.2,16 8,14.8 C7.8,13.6 8.8,12.5 10.1,12.3 C11.4,12.1 12.6,12.9 12.8,14.1 C13,15.3 12,16.4 10.7,16.6 Z M10.4,14.7 C10.3,14.3 9.9,14 9.5,14.1 C9.1,14.2 8.8,14.6 8.8,15 C8.9,15.4 9.3,15.7 9.7,15.6 C10.2,15.5 10.5,15.1 10.4,14.7 Z M11,13.7 C10.8,13.7 10.6,13.8 10.6,14 C10.6,14.2 10.8,14.3 11,14.3 C11.2,14.3 11.4,14.2 11.4,14 C11.4,13.8 11.2,13.7 11,13.7 Z" id="Shape" fill="#FFFFFF"></path>
        </g>
    </g>
</svg>