<?xml version="1.0" standalone="no"?><!DOCTYPE svg PUBLIC "-//W3C//DTD SVG 1.1//EN" "http://www.w3.org/Graphics/SVG/1.1/DTD/svg11.dtd"><svg t="1603718180952" class="icon" viewBox="0 0 1260 1024" version="1.1" xmlns="http://www.w3.org/2000/svg" p-id="4756" xmlns:xlink="http://www.w3.org/1999/xlink" width="246.09375" height="200"><defs><style type="text/css"></style></defs><path d="M1071.261538 992.492308H189.046154V622.276923c0-244.184615 196.923077-441.107692 441.107692-441.107692s441.107692 196.923077 441.107692 441.107692v370.215385z m-803.446153-78.769231h724.676923V622.276923c0-196.923077-165.415385-362.338462-362.338462-362.338461S267.815385 425.353846 267.815385 622.276923v291.446154z" p-id="4757" fill="#1296db"></path><path d="M193.929846 132.726154l65.614769-43.716923L408.024615 311.926154l-65.614769 43.638154z" p-id="4758" fill="#1296db"></path><path d="M220.553846 110.276923m-78.769231 0a78.769231 78.769231 0 1 0 157.538462 0 78.769231 78.769231 0 1 0-157.538462 0Z" p-id="4759" fill="#1296db"></path><path d="M855.118769 305.467077l148.558769-222.838154 65.536 43.716923-148.558769 222.916923z" p-id="4760" fill="#1296db"></path><path d="M1039.753846 110.276923m-78.769231 0a78.769231 78.769231 0 1 0 157.538462 0 78.769231 78.769231 0 1 0-157.538462 0Z" p-id="4761" fill="#1296db"></path><path d="M228.430769 882.215385H157.538462c-63.015385 0-118.153846-55.138462-118.153847-118.153847V630.153846c0-63.015385 55.138462-118.153846 118.153847-118.153846h70.892307v78.769231H157.538462c-23.630769 0-39.384615 15.753846-39.384616 39.384615v133.907692c0 23.630769 15.753846 39.384615 39.384616 39.384616h70.892307v78.769231zM1102.769231 882.215385h-70.892308v-78.769231h70.892308c23.630769 0 39.384615-15.753846 39.384615-39.384616V630.153846c0-23.630769-15.753846-39.384615-39.384615-39.384615h-70.892308v-78.769231h70.892308c63.015385 0 118.153846 55.138462 118.153846 118.153846v133.907692c0 63.015385-55.138462 118.153846-118.153846 118.153847z" p-id="4762" fill="#1296db"></path><path d="M448.984615 622.276923m-78.76923 0a78.769231 78.769231 0 1 0 157.538461 0 78.769231 78.769231 0 1 0-157.538461 0Z" p-id="4763" fill="#1296db"></path><path d="M811.323077 622.276923m-78.769231 0a78.769231 78.769231 0 1 0 157.538462 0 78.769231 78.769231 0 1 0-157.538462 0Z" p-id="4764" fill="#1296db"></path></svg>