<?xml version="1.0" encoding="utf-8"?>
<!-- Generator: Adobe Illustrator 17.0.0, SVG Export Plug-In . SVG Version: 6.00 Build 0)  -->
<!DOCTYPE svg PUBLIC "-//W3C//DTD SVG 1.1//EN" "http://www.w3.org/Graphics/SVG/1.1/DTD/svg11.dtd">
<svg version="1.1" id="图层_1" xmlns="http://www.w3.org/2000/svg" xmlns:xlink="http://www.w3.org/1999/xlink" x="0px" y="0px"
	 width="10px" height="10px" viewBox="0 0 10 10" enable-background="new 0 0 10 10" xml:space="preserve">
<g>
	<g>
		<path fill="#4196FF" d="M1.082,3.76L1.004,3.838l3.16,3.159L4.5,6.662l0.336,0.336l3.16-3.159L7.918,3.76
			C7.965,3.684,8,3.599,8,3.502c0-0.276-0.224-0.5-0.5-0.5c-0.097,0-0.182,0.035-0.258,0.082L7.164,3.006L4.5,5.67L1.836,3.006
			L1.758,3.084C1.682,3.037,1.597,3.002,1.5,3.002c-0.276,0-0.5,0.224-0.5,0.5C1,3.599,1.035,3.684,1.082,3.76z"/>
	</g>
</g>
</svg>
