<?xml version="1.0" encoding="UTF-8"?>
<svg width="15px" height="16px" viewBox="0 0 15 16" version="1.1" xmlns="http://www.w3.org/2000/svg" xmlns:xlink="http://www.w3.org/1999/xlink">
    <!-- Generator: Sketch 45.1 (43504) - http://www.bohemiancoding.com/sketch -->
    <title>attach_anchor_anchor</title>
    <desc>Created with Sketch.</desc>
    <defs></defs>
    <g id="Page-1" stroke="none" stroke-width="1" fill="none" fill-rule="evenodd">
        <g id="attach_anchor_anchor" fill="#4196FF">
            <path d="M13.745,7.813 C13.32,8.369 11.441,10.156 8.266,13.507 C6.475,15.4 3.566,15.403 1.778,13.507 C-1.198,10.077 1.804,6.605 1.804,6.605 C1.804,6.605 1.888,6.512 2.034,6.349 C3.026,5.247 6.874,0.973 6.874,0.973 L8.176,2.233 C8.176,2.233 3.076,7.735 2.954,7.886 C2.188,9.079 1.675,10.928 2.954,12.279 C4.234,13.631 5.841,13.631 7.12,12.279 C10.224,9.176 12.644,6.606 12.67,6.513 C13.279,5.781 13.594,5.075 12.826,4.264 C12.058,3.453 11.144,3.997 10.732,4.452 C10.576,4.701 5.76,10.392 5.76,10.392 L4.506,9.228 C4.506,9.228 9.065,3.8 9.485,3.295 C10.726,1.667 12.85,1.559 14.131,2.91 C15.411,4.261 15.271,6.341 13.745,7.813 Z" id="Shape"></path>
        </g>
    </g>
</svg>