<?xml version="1.0" encoding="utf-8"?>
<!-- Generator: Adobe Illustrator 17.0.0, SVG Export Plug-In . SVG Version: 6.00 Build 0)  -->
<!DOCTYPE svg PUBLIC "-//W3C//DTD SVG 1.1//EN" "http://www.w3.org/Graphics/SVG/1.1/DTD/svg11.dtd">
<svg version="1.1" id="图层_1" xmlns="http://www.w3.org/2000/svg" xmlns:xlink="http://www.w3.org/1999/xlink" x="0px" y="0px"
	 width="13px" height="11px" viewBox="0 0 13 11" enable-background="new 0 0 13 11" xml:space="preserve">
<path fill-rule="evenodd" clip-rule="evenodd" fill="#FF9125" d="M12.142,5.196C12,5.344,11.847,5.472,11.686,5.583
	c0,0-2.689,2.809-4,4.17c-1.601,1.663-4.198,1.663-5.799,0c-1.445-1.632-1.382-4.391,0-6.023c0.477-0.495,1.222,0.411,1.222,0.411
	C2.948,4.251,2.858,4.443,2.716,4.59c-1.144,1.188-1.144,3.114,0,4.302c1.144,1.188,2.998,1.188,4.142,0
	c0.141-0.147,0.327-0.244,0.434-0.41l-0.02-0.02l3.627-3.696l0.787,0.817l-0.745-0.81c0.178-0.087,0.288-0.347,0.435-0.5
	c0.686-0.713,0.686-1.868,0-2.581c-0.686-0.713-1.799-0.713-2.485,0C8.744,1.845,8.519,2.024,8.435,2.209L8.413,2.186l-4.33,4.43
	l0.828,0.86L6.36,5.967c0.002,0.004,0.002,0.009,0.004,0.014l2.879-2.936l0.828,0.86L7.128,6.907l0.026,0.009L5.935,8.135
	l0.01-0.045c-0.69,0.637-1.74,0.629-2.401-0.058C2.909,7.372,2.889,6.346,3.429,5.63L3.404,5.635l0.569-0.599L3.959,5.02
	l3.627-3.696c0,0,0.114-0.118,0.414-0.43c1.144-1.188,2.998-1.188,4.142,0C13.286,2.082,13.286,4.008,12.142,5.196z M2.302,3.299
	l3.252-3.54l0.828,0.86L3.13,4.16L2.302,3.299z"/>
</svg>
