<?xml version="1.0" encoding="utf-8"?>
<!-- Generator: Adobe Illustrator 15.0.0, SVG Export Plug-In . SVG Version: 6.00 Build 0)  -->
<!DOCTYPE svg PUBLIC "-//W3C//DTD SVG 1.1//EN" "http://www.w3.org/Graphics/SVG/1.1/DTD/svg11.dtd">
<svg version="1.1" id="图层_1" xmlns="http://www.w3.org/2000/svg" xmlns:xlink="http://www.w3.org/1999/xlink" x="0px" y="0px"
	 width="22px" height="22px" viewBox="0 0 22 22" enable-background="new 0 0 22 22" xml:space="preserve">
<g>
	<g>
		<path fill="#5999ED" d="M10.993,3.104c-4.411,0-7.986,3.61-7.986,8.063c0,4.453,3.575,8.064,7.986,8.064
			c4.41,0,7.986-3.611,7.986-8.064C18.979,6.713,15.402,3.104,10.993,3.104z M10.992,17.166c-3.314,0-6-2.686-6-6s2.686-6,6-6
			c3.315,0,6,2.686,6,6S14.307,17.166,10.992,17.166z"/>
	</g>
</g>
<path fill="#5999ED" d="M14.959,15.17l-5.507-2.467L7,7.201l5.49,2.475L14.959,15.17z M10.222,11.942l2.731,1.226l-1.221-2.73
	L10.222,11.942z"/>
</svg>
