<?xml version="1.0" encoding="utf-8"?>
<!-- Generator: Adobe Illustrator 15.0.0, SVG Export Plug-In . SVG Version: 6.00 Build 0)  -->
<!DOCTYPE svg PUBLIC "-//W3C//DTD SVG 1.1//EN" "http://www.w3.org/Graphics/SVG/1.1/DTD/svg11.dtd">
<svg version="1.1" id="图层_1" xmlns="http://www.w3.org/2000/svg" xmlns:xlink="http://www.w3.org/1999/xlink" x="0px" y="0px"
	 width="16px" height="16px" viewBox="0 0 16 16" enable-background="new 0 0 16 16" xml:space="preserve">
<circle fill="#FFFFFF" cx="8.605" cy="7.458" r="7.208"/>
<g>
	<path fill="#DCDFE0" d="M8.512,1c3.578,0,6.489,2.911,6.489,6.489c0,3.577-2.911,6.489-6.489,6.489
		c-3.577,0-6.489-2.912-6.489-6.489C2.022,3.911,4.935,1,8.512,1 M8.512,0C4.376,0,1.022,3.353,1.022,7.489
		c0,4.136,3.354,7.489,7.488,7.489c4.137,0,7.489-3.354,7.489-7.489C16.001,3.353,12.647,0,8.512,0L8.512,0z"/>
</g>
</svg>
