<?xml version="1.0" encoding="utf-8"?>
<!-- Generator: Adobe Illustrator 17.0.0, SVG Export Plug-In . SVG Version: 6.00 Build 0)  -->
<!DOCTYPE svg PUBLIC "-//W3C//DTD SVG 1.1//EN" "http://www.w3.org/Graphics/SVG/1.1/DTD/svg11.dtd">
<svg version="1.1" id="图层_1" xmlns="http://www.w3.org/2000/svg" xmlns:xlink="http://www.w3.org/1999/xlink" x="0px" y="0px"
	 width="28px" height="28px" viewBox="0 0 28 28" enable-background="new 0 0 28 28" xml:space="preserve">
<path fill-rule="evenodd" clip-rule="evenodd" fill="#FF6362" d="M2.034,0h24c0.552,0,1,0.448,1,1v26c0,0.552-0.448,1-1,1h-24
	c-0.552,0-1-0.448-1-1V1C1.034,0.448,1.481,0,2.034,0z"/>
<path fill-rule="evenodd" clip-rule="evenodd" fill="none" stroke="#FFFFFF" stroke-width="2" stroke-miterlimit="10" d="
	M7.331,20.716c0,0,1.103,0.697,2.087-0.072c1.151-0.853,2.754-4.671,3.053-5.909c0.376-1.44,0.666-4.452,0.483-5.747
	c-0.137-0.963-0.795-1.747-1.394-1.947c0,0-1.615-0.501-1.537,1.767c0,1.866,2.464,3.249,4.195,4.866
	c1.535,1.433,4.434,4.269,6.094,4.269c1.278,0,1.81-0.981,1.681-1.605c-0.136-0.665-0.816-1.272-1.656-1.272
	c-0.609-0.127-4.016,0.122-6.481,0.73c-1.89,0.501-4.767,1.187-6.352,2.811C7.504,18.608,6.497,19.854,7.331,20.716z"/>
</svg>
