<?xml version="1.0" encoding="utf-8"?>
<!-- Generator: Adobe Illustrator 17.0.0, SVG Export Plug-In . SVG Version: 6.00 Build 0)  -->
<!DOCTYPE svg PUBLIC "-//W3C//DTD SVG 1.1//EN" "http://www.w3.org/Graphics/SVG/1.1/DTD/svg11.dtd">
<svg version="1.1" id="图层_1" xmlns="http://www.w3.org/2000/svg" xmlns:xlink="http://www.w3.org/1999/xlink" x="0px" y="0px"
	 width="28px" height="28px" viewBox="0 0 28 28" enable-background="new 0 0 28 28" xml:space="preserve">
<path fill-rule="evenodd" clip-rule="evenodd" fill="#F9B259" d="M2.034,0h24c0.552,0,1,0.448,1,1v26c0,0.552-0.448,1-1,1h-24
	c-0.552,0-1-0.448-1-1V1C1.034,0.448,1.481,0,2.034,0z"/>
<path fill-rule="evenodd" clip-rule="evenodd" fill="#FFFDFC" d="M15.397,16.041h-4.364v4.571c0,0.237-0.224,0.429-0.5,0.429h-1
	c-0.276,0-0.5-0.192-0.5-0.429V8.041h1.5h4.864c2.008,0,3.637,1.592,3.637,3.555v0.889C19.034,14.449,17.406,16.041,15.397,16.041z
	 M17.033,11.819c0-0.982-0.977-1.778-2.182-1.778h-3.818v4h3.818c1.205,0,2.182-0.796,2.182-1.778V11.819z"/>
</svg>
