<?xml version="1.0" encoding="utf-8"?>
<!-- Generator: Adobe Illustrator 17.0.0, SVG Export Plug-In . SVG Version: 6.00 Build 0)  -->
<!DOCTYPE svg PUBLIC "-//W3C//DTD SVG 1.1//EN" "http://www.w3.org/Graphics/SVG/1.1/DTD/svg11.dtd">
<svg version="1.1" id="图层_1" xmlns="http://www.w3.org/2000/svg" xmlns:xlink="http://www.w3.org/1999/xlink" x="0px" y="0px"
	 width="24px" height="24px" viewBox="0 0 24 24" enable-background="new 0 0 24 24" xml:space="preserve">
<path fill-rule="evenodd" clip-rule="evenodd" fill="#808080" d="M5.003,18.997v-12c0-0.552,0.448-1,1-1h2v2h1v-2h5v2h1v-2h2
	c0.552,0,1,0.448,1,1v12H5.003z M6.003,8.997v9h11v-9H6.003z M7.003,16.997v-7h9v7H7.003z M9.003,10.997h-1v1h1V10.997z
	 M9.003,12.997h-1v1h1V12.997z M9.003,14.997h-1v1h1V14.997z M11.003,10.997h-1v1h1V10.997z M11.003,12.997h-1v1h1V12.997z
	 M11.003,14.997h-1v1h1V14.997z M13.003,10.997h-1v1h1V10.997z M13.003,12.997h-1v1h1V12.997z M13.003,14.997h-1v1h1V14.997z
	 M15.003,10.997h-1v1h1V10.997z M15.003,12.997h-1v1h1V12.997z M15.003,14.997h-1v1h1V14.997z"/>
</svg>
