<?xml version="1.0" encoding="utf-8"?>
<!-- Generator: Adobe Illustrator 17.0.0, SVG Export Plug-In . SVG Version: 6.00 Build 0)  -->
<!DOCTYPE svg PUBLIC "-//W3C//DTD SVG 1.1//EN" "http://www.w3.org/Graphics/SVG/1.1/DTD/svg11.dtd">
<svg version="1.1" id="图层_1" xmlns="http://www.w3.org/2000/svg" xmlns:xlink="http://www.w3.org/1999/xlink" x="0px" y="0px"
	 width="28px" height="28px" viewBox="0 0 28 28" enable-background="new 0 0 28 28" xml:space="preserve">
<path fill-rule="evenodd" clip-rule="evenodd" fill="#72C54F" d="M2.034,0h24c0.552,0,1,0.448,1,1v26c0,0.552-0.448,1-1,1h-24
	c-0.552,0-1-0.448-1-1V1C1.034,0.448,1.481,0,2.034,0z"/>
<path fill-rule="evenodd" clip-rule="evenodd" fill="none" stroke="#FFFFFF" stroke-width="2" stroke-linecap="round" stroke-linejoin="round" stroke-miterlimit="10" d="
	M6.064,20.017l4.89-6.673c0.383-0.46,1.003-0.46,1.385,0l3.58,4.348l1.743-2.316c0.382-0.46,1.003-0.46,1.385,0l3.043,4.609"/>
<path fill-rule="evenodd" clip-rule="evenodd" fill="#FFFFFF" d="M18,6.041c1.105,0,2,0.896,2,2c0,1.105-0.896,2-2,2
	c-1.104,0-2-0.895-2-2C16,6.937,16.895,6.041,18,6.041z"/>
</svg>
