<?xml version="1.0" encoding="utf-8"?>
<!-- Generator: Adobe Illustrator 17.0.0, SVG Export Plug-In . SVG Version: 6.00 Build 0)  -->
<!DOCTYPE svg PUBLIC "-//W3C//DTD SVG 1.1//EN" "http://www.w3.org/Graphics/SVG/1.1/DTD/svg11.dtd">
<svg version="1.1" id="图层_1" xmlns="http://www.w3.org/2000/svg" xmlns:xlink="http://www.w3.org/1999/xlink" x="0px" y="0px"
	 width="24px" height="24px" viewBox="0 0 24 24" enable-background="new 0 0 24 24" xml:space="preserve">
<path fill="#808080" d="M15.01,11.533c0.612,0.456,1.014,1.179,1.014,2.001c0,1.381-1.119,2.469-2.5,2.469
	c0.116,0-1.5,0.031-1.5,0.031h-3v-9h3c0,0,2.05,0,1.5,0c1.381,0,2.5,1.119,2.5,2.5C16.025,10.355,15.623,11.077,15.01,11.533z
	 M12.025,15.034h1.426c0.524-0.106,0.745-0.986,0.745-1.5c0-0.496-0.261-1.351-0.724-1.5h-1.448v3H12.025z M13.543,8.033h-1.519v3
	h1.551c0.438-0.215,0.62-1.026,0.62-1.5C14.197,9.08,13.95,8.293,13.543,8.033z"/>
</svg>
