<?xml version="1.0" encoding="utf-8"?>
<!-- Generator: Adobe Illustrator 17.0.0, SVG Export Plug-In . SVG Version: 6.00 Build 0)  -->
<!DOCTYPE svg PUBLIC "-//W3C//DTD SVG 1.1//EN" "http://www.w3.org/Graphics/SVG/1.1/DTD/svg11.dtd">
<svg version="1.1" id="图层_1" xmlns="http://www.w3.org/2000/svg" xmlns:xlink="http://www.w3.org/1999/xlink" x="0px" y="0px"
	 width="16px" height="16px" viewBox="0 0 16 16" enable-background="new 0 0 16 16" xml:space="preserve">
<g>
	<path fill="#757575" d="M14,3c0.551,0,1,0.449,1,1v7c0,0.551-0.449,1-1,1H2c-0.551,0-1-0.449-1-1V4c0-0.551,0.449-1,1-1H14 M14,2H2
		C0.895,2,0,2.895,0,4v7c0,1.104,0.895,2,2,2h12c1.105,0,2-0.896,2-2V4C16,2.895,15.105,2,14,2L14,2z"/>
</g>
<g>
	<g>
		<path fill-rule="evenodd" clip-rule="evenodd" fill="#757575" d="M15.436,2.765c-0.135-0.253-0.435-0.34-0.67-0.194L8,6.85
			L1.234,2.571c-0.235-0.146-0.535-0.059-0.67,0.194c-0.135,0.253-0.055,0.577,0.18,0.723l6.932,4.384
			c0.072,0.066,0.158,0.102,0.25,0.115C7.95,7.992,7.975,7.992,8,7.992c0.025-0.001,0.05-0.001,0.075-0.006
			c0.092-0.013,0.178-0.049,0.25-0.115l6.932-4.384C15.491,3.342,15.572,3.018,15.436,2.765z"/>
	</g>
</g>
</svg>
