<?xml version="1.0" encoding="utf-8"?>
<!-- Generator: Adobe Illustrator 17.0.0, SVG Export Plug-In . SVG Version: 6.00 Build 0)  -->
<!DOCTYPE svg PUBLIC "-//W3C//DTD SVG 1.1//EN" "http://www.w3.org/Graphics/SVG/1.1/DTD/svg11.dtd">
<svg version="1.1" id="图层_1" xmlns="http://www.w3.org/2000/svg" xmlns:xlink="http://www.w3.org/1999/xlink" x="0px" y="0px"
	 width="24px" height="24px" viewBox="0 0 24 24" enable-background="new 0 0 24 24" xml:space="preserve">
<g>
	<g>
		<path fill-rule="evenodd" clip-rule="evenodd" fill="#808080" d="M6.995,6c-0.552,0-1,0.448-1,1c0,0.552,0.448,1,1,1
			c0.552,0,1-0.448,1-1C7.995,6.448,7.548,6,6.995,6z M6.995,11c-0.552,0-1,0.448-1,1c0,0.552,0.448,1,1,1c0.552,0,1-0.448,1-1
			C7.995,11.448,7.548,11,6.995,11z M6.995,16c-0.552,0-1,0.448-1,1c0,0.552,0.448,1,1,1c0.552,0,1-0.448,1-1
			C7.995,16.448,7.548,16,6.995,16z M9.995,7v1h9V7H9.995z M9.995,13h9v-1h-9V13z M9.995,18h9v-1h-9V18z"/>
	</g>
</g>
</svg>
