<?xml version="1.0" encoding="utf-8"?>
<!-- Generator: Adobe Illustrator 17.0.0, SVG Export Plug-In . SVG Version: 6.00 Build 0)  -->
<!DOCTYPE svg PUBLIC "-//W3C//DTD SVG 1.1//EN" "http://www.w3.org/Graphics/SVG/1.1/DTD/svg11.dtd">
<svg version="1.1" id="图层_1" xmlns="http://www.w3.org/2000/svg" xmlns:xlink="http://www.w3.org/1999/xlink" x="0px" y="0px"
	 width="28px" height="28px" viewBox="0 0 28 28" enable-background="new 0 0 28 28" xml:space="preserve">
<g>
	<path fill="#F8B258" d="M26,1v26H2V1H26 M26,0H2C1.448,0,1,0.448,1,1v26c0,0.552,0.448,1,1,1h24c0.552,0,1-0.448,1-1V1
		C27,0.448,26.552,0,26,0L26,0z"/>
</g>
<g>
	<g>
		<path fill-rule="evenodd" clip-rule="evenodd" fill="#F8B258" d="M19,17h-2v1h2V17z M19,14h-2v1h2V14z M15,14h-2v1h2V14z M11,17H9
			v1h2V17z M20,8h-2V7h-1v1h-6V7h-1v1H8c-1.105,0-2,0.896-2,2v10c0,1.105,0.895,2,2,2h12c1.104,0,2-0.895,2-2V10
			C22,8.896,21.104,8,20,8z M21,21H7v-9h14V21z M21,11H7V9h14V11z M15,17h-2v1h2V17z M11,14H9v1h2V14z"/>
	</g>
</g>
</svg>
