<?xml version="1.0" encoding="utf-8"?>
<!-- Generator: Adobe Illustrator 17.0.0, SVG Export Plug-In . SVG Version: 6.00 Build 0)  -->
<!DOCTYPE svg PUBLIC "-//W3C//DTD SVG 1.1//EN" "http://www.w3.org/Graphics/SVG/1.1/DTD/svg11.dtd">
<svg version="1.1" id="图层_1" xmlns="http://www.w3.org/2000/svg" xmlns:xlink="http://www.w3.org/1999/xlink" x="0px" y="0px"
	 width="16px" height="16px" viewBox="0 0 16 16" enable-background="new 0 0 16 16" xml:space="preserve">
<path fill-rule="evenodd" clip-rule="evenodd" fill="#F63F3F" d="M8.5,1C12.642,1,16,4.358,16,8.5c0,4.142-3.358,7.5-7.5,7.5
	C4.358,16,1,12.642,1,8.5C1,4.358,4.358,1,8.5,1z"/>
<path fill="#FFFFFF" d="M7.729,3.815C7.882,3.612,8.144,3.51,8.517,3.51c0.35,0,0.602,0.096,0.754,0.288
	C9.424,3.989,9.5,4.289,9.5,4.696c0,0.116-0.006,0.238-0.017,0.366L8.822,10.01H8.144L7.517,5.131
	c-0.011-0.14-0.017-0.267-0.017-0.384C7.501,4.329,7.577,4.018,7.729,3.815z M9.207,12.714C9.01,12.905,8.774,13,8.5,13
	c-0.274,0-0.51-0.095-0.707-0.286c-0.197-0.19-0.296-0.427-0.296-0.71c0-0.272,0.099-0.506,0.296-0.702
	c0.197-0.196,0.433-0.294,0.707-0.294c0.274,0,0.51,0.095,0.707,0.285c0.197,0.191,0.296,0.427,0.296,0.71
	C9.503,12.287,9.405,12.524,9.207,12.714z"/>
</svg>
