<?xml version="1.0" encoding="UTF-8"?>
<svg width="24px" height="24px" viewBox="0 0 24 24" version="1.1" xmlns="http://www.w3.org/2000/svg" xmlns:xlink="http://www.w3.org/1999/xlink">
    <!-- Generator: Sketch 45.1 (43504) - http://www.bohemiancoding.com/sketch -->
    <title>qq_disable</title>
    <desc>Created with Sketch.</desc>
    <defs></defs>
    <g id="Page-1" stroke="none" stroke-width="1" fill="none" fill-rule="evenodd">
        <g id="qq_disable" fill-rule="nonzero">
            <path d="M12,0 C5.4,0 0,5.4 0,12 C0,18.6 5.4,24 12,24 C18.6,24 24,18.6 24,12 C24,5.4 18.6,0 12,0 Z" id="Shape" fill="#D2D5D6"></path>
            <path d="M17.7960846,15.3825263 C17.5891149,15.3825263 16.9682059,14.9658649 16.7612363,14.4450382 C16.7612363,14.4450382 16.5542666,15.6950224 15.9333576,16.1116838 C15.9333576,16.1116838 17.3821453,17.0491719 16.8647211,18.299156 C16.6577514,18.7158174 14.5880548,19.4449748 12.621843,18.1949907 L12.1044188,18.1949907 L12.1044188,18.1949907 L11.5869946,18.1949907 C9.62078279,19.5491402 7.55108613,18.8199828 7.34411647,18.299156 C6.8266923,17.0491719 8.27547997,16.1116838 8.27547997,16.1116838 C7.65457097,15.590857 7.4476013,14.4450382 7.4476013,14.4450382 C7.24063164,14.8616996 6.72320747,15.3825263 6.41275297,15.3825263 C6.20578331,15.3825263 5.89532881,14.6533689 6.10229847,13.2992194 C6.30926814,11.9450699 7.24063164,11.5284085 7.24063164,11.5284085 C7.1371468,11.0075818 7.65457097,10.7992511 7.65457097,10.7992511 C7.55108613,9.86176297 7.86154063,9.54926694 7.96502547,9.54926694 C7.96502547,9.44510159 7.96502547,9.34093624 7.96502547,9.13260555 C7.96502547,6.84096793 9.72426763,4.96599169 12.1044188,4.96599169 L12.1044188,4.96599169 C12.1044188,4.96599169 12.1044188,4.96599169 12.1044188,4.96599169 C12.1044188,4.96599169 12.1044188,4.96599169 12.1044188,4.96599169 L12.1044188,4.96599169 C14.3810851,4.96599169 16.2438121,6.84096793 16.2438121,9.13260555 C16.2438121,9.2367709 16.2438121,9.34093624 16.2438121,9.54926694 C16.1403273,9.44510159 16.7612363,9.65343228 16.8647211,11.5284085 C16.8647211,11.5284085 17.7960846,11.9450699 18.0030543,13.2992194 C18.3135088,14.7575343 18.0030543,15.3825263 17.7960846,15.3825263 Z" id="Shape" fill="#FFFFFF"></path>
        </g>
    </g>
</svg>