<?xml version="1.0" encoding="utf-8"?>
<!-- Generator: Adobe Illustrator 15.0.0, SVG Export Plug-In . SVG Version: 6.00 Build 0)  -->
<!DOCTYPE svg PUBLIC "-//W3C//DTD SVG 1.1//EN" "http://www.w3.org/Graphics/SVG/1.1/DTD/svg11.dtd">
<svg version="1.1" id="图层_1" xmlns="http://www.w3.org/2000/svg" xmlns:xlink="http://www.w3.org/1999/xlink" x="0px" y="0px"
	 width="15px" height="15px" viewBox="0 0 15 15" enable-background="new 0 0 15 15" xml:space="preserve">
<g>
	<path fill="#FFFFFF" d="M7.5,14.5c-3.86,0-7-3.141-7-7c0-3.86,3.14-7,7-7c3.859,0,7,3.14,7,7C14.5,11.359,11.359,14.5,7.5,14.5z"/>
	<path fill="#DCDFE0" d="M7.5,1C11.084,1,14,3.916,14,7.5S11.084,14,7.5,14S1,11.084,1,7.5S3.916,1,7.5,1 M7.5,0
		C3.357,0,0,3.358,0,7.5C0,11.643,3.357,15,7.5,15S15,11.643,15,7.5C15,3.358,11.643,0,7.5,0L7.5,0z"/>
</g>
<circle fill="#FFFFFF" cx="7.505" cy="7.505" r="2.505"/>
</svg>
