<?xml version="1.0" encoding="utf-8"?>
<!-- Generator: Adobe Illustrator 15.0.0, SVG Export Plug-In . SVG Version: 6.00 Build 0)  -->
<!DOCTYPE svg PUBLIC "-//W3C//DTD SVG 1.1//EN" "http://www.w3.org/Graphics/SVG/1.1/DTD/svg11.dtd">
<svg version="1.1" id="图层_1" xmlns="http://www.w3.org/2000/svg" xmlns:xlink="http://www.w3.org/1999/xlink" x="0px" y="0px"
	 width="13px" height="13px" viewBox="0 0 13 13" enable-background="new 0 0 13 13" xml:space="preserve">
<path fill-rule="evenodd" clip-rule="evenodd" fill="#ED9806" d="M6.5,13C2.91,13,0,10.09,0,6.5C0,2.911,2.91,0,6.5,0
	S13,2.911,13,6.5C13,10.09,10.09,13,6.5,13z M10,3.7L9.984,3.684c-0.2-0.247-0.423-0.469-0.669-0.668L9.3,3L9.298,3.001
	C8.528,2.384,7.563,2,6.5,2C4.015,2,2,4.015,2,6.5c0,1.063,0.385,2.028,1.002,2.799L3,9.3l0.016,0.016
	c0.199,0.247,0.422,0.47,0.669,0.669L3.7,10l0.001-0.002C4.472,10.615,5.437,11,6.5,11C8.985,11,11,8.985,11,6.5
	c0-1.063-0.385-2.028-1.002-2.799L10,3.7z M6.5,10c-0.788,0-1.507-0.27-2.092-0.709l4.883-4.883C9.73,4.993,10,5.712,10,6.5
	C10,8.433,8.433,10,6.5,10z M3,6.5C3,4.567,4.566,3,6.5,3c0.787,0,1.506,0.27,2.091,0.708L3.709,8.591C3.27,8.006,3,7.287,3,6.5z"/>
</svg>
