<?xml version="1.0" encoding="utf-8"?>
<!-- Generator: Adobe Illustrator 17.0.0, SVG Export Plug-In . SVG Version: 6.00 Build 0)  -->
<!DOCTYPE svg PUBLIC "-//W3C//DTD SVG 1.1//EN" "http://www.w3.org/Graphics/SVG/1.1/DTD/svg11.dtd">
<svg version="1.1" id="图层_1" xmlns="http://www.w3.org/2000/svg" xmlns:xlink="http://www.w3.org/1999/xlink" x="0px" y="0px"
	 width="18px" height="18px" viewBox="0 0 18 18" enable-background="new 0 0 18 18" xml:space="preserve">
<g>
	<path fill="#4196FF" d="M7.979,3.684c0.003,0.942,0.008,2.232,0.008,2.232l0.004,0.996h0.996c2.383,0,4.219,0.855,5.457,2.54
		c0.757,1.031,1.267,2.362,1.464,3.78c-1.679-1.476-4.535-2.242-6.925-2.242H7.986l-0.002,0.998c0,0-0.003,1.295-0.005,2.231
		L3.333,8.933L7.979,3.684 M8.399,2C8.048,2,7.597,2.607,7.597,2.607L2,8.931l5.657,6.438c0,0,0.433,0.489,0.742,0.489
		c0.389,0,0.577-0.32,0.577-0.716c0-0.046,0.007-3.151,0.007-3.151c2.66,0,5.966,1.066,7.019,2.887
		c0.21,0.373,0.463,0.656,0.662,0.656c0.193,0,0.335-0.268,0.335-0.982c0-3.657-1.995-8.639-8.013-8.639
		c0,0-0.011-3.164-0.011-3.197C8.976,2.32,8.788,2,8.399,2L8.399,2z"/>
</g>
</svg>
