<?xml version="1.0" encoding="utf-8"?>
<!-- Generator: Adobe Illustrator 17.0.0, SVG Export Plug-In . SVG Version: 6.00 Build 0)  -->
<!DOCTYPE svg PUBLIC "-//W3C//DTD SVG 1.1//EN" "http://www.w3.org/Graphics/SVG/1.1/DTD/svg11.dtd">
<svg version="1.1" id="图层_1" xmlns="http://www.w3.org/2000/svg" xmlns:xlink="http://www.w3.org/1999/xlink" x="0px" y="0px"
	 width="28px" height="28px" viewBox="0 0 28 28" enable-background="new 0 0 28 28" xml:space="preserve">
<g>
	<path fill="#5899EF" d="M26,1v26H2V1H26 M26,0H2C1.448,0,1,0.448,1,1v26c0,0.552,0.448,1,1,1h24c0.552,0,1-0.448,1-1V1
		C27,0.448,26.552,0,26,0L26,0z"/>
</g>
<g>
	<path fill="#5899EF" d="M14.005,6.003c2.496,0.037,2.869,2.479,2.869,3.933c0,1.197-0.801,2.658-1.28,3.531
		c-0.219,0.399-0.363,0.662-0.435,0.895c-0.38,1.231-0.065,1.865,0.267,2.18c0.338,0.322,1.252,0.821,1.767,1.09l3.448,1.798
		l0.036,0.019l0.037,0.016l0.078,0.033c0.373,0.157,1.068,0.45,1.15,0.639v0.09l0.016,0.089c0.036,0.196,0.052,0.48,0.039,0.685
		H6.015c-0.013-0.196,0-0.469,0.038-0.685l0.016-0.1v-0.09c0.082-0.177,0.776-0.47,1.149-0.627l0.078-0.033l0.037-0.016L7.37,19.43
		l3.449-1.799c0.514-0.269,1.428-0.768,1.766-1.089c0.332-0.315,0.647-0.949,0.267-2.18c-0.072-0.233-0.217-0.497-0.436-0.896
		c-0.479-0.873-1.28-2.333-1.28-3.53C11.135,8.482,11.509,6.04,14.005,6.003 M14.005,5.003c-2.494,0.029-3.869,1.939-3.869,4.933
		c0,1.954,1.597,4.191,1.76,4.721c0.164,0.529,0.185,0.985,0,1.16c-0.287,0.273-1.54,0.928-1.54,0.928l-3.448,1.798
		c-0.932,0.394-1.838,0.752-1.838,1.593c0,0-0.34,1.865,0.607,1.865h16.659c0.947,0,0.607-1.865,0.607-1.865
		c0-0.841-0.906-1.199-1.838-1.593l-3.448-1.798c0,0-1.253-0.655-1.54-0.928c-0.185-0.175-0.163-0.631,0-1.16
		c0.163-0.529,1.76-2.767,1.76-4.721C17.874,6.942,16.499,5.032,14.005,5.003L14.005,5.003z"/>
</g>
</svg>
