<?xml version="1.0" encoding="utf-8"?>
<!-- Generator: Adobe Illustrator 15.0.0, SVG Export Plug-In . SVG Version: 6.00 Build 0)  -->
<!DOCTYPE svg PUBLIC "-//W3C//DTD SVG 1.1//EN" "http://www.w3.org/Graphics/SVG/1.1/DTD/svg11.dtd">
<svg version="1.1" id="图层_1" xmlns="http://www.w3.org/2000/svg" xmlns:xlink="http://www.w3.org/1999/xlink" x="0px" y="0px"
	 width="22px" height="22px" viewBox="0 0 22 22" enable-background="new 0 0 22 22" xml:space="preserve">
<g>
	<g>
		<path fill-rule="evenodd" clip-rule="evenodd" fill="#638ACE" d="M9.688,6h0.5c0.414,0,0.75-0.337,0.75-0.751V4.75
			c0-0.415-0.336-0.751-0.75-0.751h-0.5c-0.414,0-0.75,0.336-0.75,0.751v0.499C8.938,5.663,9.274,6,9.688,6z M9.688,2h0.5
			c0.414,0,0.75-0.335,0.75-0.75v-0.5c0-0.414-0.336-0.75-0.75-0.75h-0.5c-0.414,0-0.75,0.335-0.75,0.75v0.5
			C8.938,1.664,9.274,2,9.688,2z M9.688,9.999h0.5c0.414,0,0.75-0.335,0.75-0.75v-0.5c0-0.414-0.336-0.75-0.75-0.75h-0.5
			c-0.414,0-0.75,0.335-0.75,0.75v0.5C8.938,9.664,9.274,9.999,9.688,9.999z M12.188,2h-0.5c-0.414,0-0.75,0.336-0.75,0.75v0.5
			c0,0.414,0.336,0.75,0.75,0.75h0.5c0.415,0,0.75-0.336,0.75-0.75v-0.5C12.938,2.335,12.604,2,12.188,2z M12.188,6h-0.5
			c-0.414,0-0.75,0.335-0.75,0.75v0.5c0,0.414,0.336,0.75,0.75,0.75h0.5c0.415,0,0.75-0.336,0.75-0.75v-0.5
			C12.938,6.335,12.604,6,12.188,6z M12.188,9.999h-0.5c-0.414,0-0.75,0.336-0.75,0.75v0.5c0,0.414,0.336,0.75,0.75,0.75h0.5
			c0.415,0,0.75-0.336,0.75-0.75v-0.5C12.938,10.335,12.604,9.999,12.188,9.999z M11.938,14h-2c-0.552,0-1,0.373-1,0.832v3.334
			c0,0.46,0.448,0.834,1,0.834h2c0.553,0,1-0.374,1-0.834v-3.334C12.938,14.373,12.491,14,11.938,14z M11.938,17.399
			c0,0.332-0.336,0.601-0.75,0.601h-0.5c-0.414,0-0.75-0.269-0.75-0.601v-0.8c0-0.332,0.336-0.601,0.75-0.601h0.5
			c0.414,0,0.75,0.269,0.75,0.601V17.399z"/>
	</g>
</g>
</svg>
