<?xml version="1.0" encoding="UTF-8"?>
<svg width="13px" height="13px" viewBox="0 0 13 13" version="1.1" xmlns="http://www.w3.org/2000/svg" xmlns:xlink="http://www.w3.org/1999/xlink">
    <!-- Generator: Sketch 45.1 (43504) - http://www.bohemiancoding.com/sketch -->
    <title>accept_icon</title>
    <desc>Created with Sketch.</desc>
    <defs></defs>
    <g id="Page-1" stroke="none" stroke-width="1" fill="none" fill-rule="evenodd">
        <g id="accept_icon" fill-rule="nonzero" fill="#13B541">
            <path d="M6.5,0 C2.9,0 0,2.9 0,6.5 C0,10.1 2.9,13 6.5,13 C10.1,13 13,10.1 13,6.5 C13,2.9 10.1,0 6.5,0 Z M10,4.7 C10,4.7 6.9,7.8 6,8.7 C5.9,8.8 5.5,9.2 5,8.7 C4.3,8 3,6.7 3,6.7 L3,6 L3.7,6 L5.5,7.8 L9.3,4 L10,4 L10,4.7 Z" id="Shape"></path>
        </g>
    </g>
</svg>