<?xml version="1.0" encoding="utf-8"?>
<!-- Generator: Adobe Illustrator 15.0.0, SVG Export Plug-In . SVG Version: 6.00 Build 0)  -->
<!DOCTYPE svg PUBLIC "-//W3C//DTD SVG 1.1//EN" "http://www.w3.org/Graphics/SVG/1.1/DTD/svg11.dtd">
<svg version="1.1" id="图层_1" xmlns="http://www.w3.org/2000/svg" xmlns:xlink="http://www.w3.org/1999/xlink" x="0px" y="0px"
	 width="15px" height="16px" viewBox="0 0 15 16" enable-background="new 0 0 15 16" xml:space="preserve">
<path fill-rule="evenodd" clip-rule="evenodd" fill="#FE9028" d="M11.388,7.094c-0.674,0.679-2.727,2.777-4.528,4.648
	c-1.602,1.664-4.198,1.664-5.799,0c-1.445-1.631-1.383-4.391,0-6.022c0.168-0.268,3.667-3.97,3.667-3.97l0.828,0.86
	c0,0-4.261,4.587-3.667,3.97c-1.144,1.188-1.144,3.113,0,4.303c1.144,1.188,2.999,1.188,4.142,0c0.142-0.148,0.328-0.244,0.433-0.41
	l-0.02-0.021c0,0,3.215-3.295,4.125-4.22c-0.008,0.009-0.011,0.022-0.02,0.032c0.371-0.386,0.313-0.331,0.02-0.032
	c0.66-0.715,0.657-1.846-0.02-2.549c-0.688-0.712-1.8-0.712-2.486,0C7.917,3.835,7.692,4.015,7.608,4.199L7.586,4.176l-4.33,4.43
	l0.829,0.86l1.448-1.509c0.002,0.004,0.002,0.009,0.004,0.014l2.878-2.937l0.829,0.861L6.301,8.897l0.026,0.009l-1.219,1.219
	l0.01-0.045c-0.69,0.637-1.74,0.629-2.401-0.059C2.082,9.361,2.062,8.336,2.603,7.62L2.577,7.625l0.569-0.599L3.131,7.011
	l3.627-3.696c0,0,0.113-0.118,0.414-0.43c1.145-1.188,2.998-1.188,4.143,0C12.431,4.043,12.45,5.901,11.388,7.094z M11.315,7.187
	c0.027-0.029,0.046-0.063,0.072-0.093C11.69,6.789,11.716,6.769,11.315,7.187z"/>
</svg>
