<?xml version="1.0" encoding="UTF-8"?>
<svg width="60px" height="60px" viewBox="0 0 60 60" version="1.1" xmlns="http://www.w3.org/2000/svg" xmlns:xlink="http://www.w3.org/1999/xlink">
    <!-- Generator: Sketch 45.1 (43504) - http://www.bohemiancoding.com/sketch -->
    <title>设置未登录默认头像</title>
    <desc>Created with Sketch.</desc>
    <defs></defs>
    <g id="Page-1" stroke="none" stroke-width="1" fill="none" fill-rule="evenodd">
        <g id="设置未登录默认头像" transform="translate(5.000000, 1.000000)" fill-rule="nonzero">
            <path d="M48.7,39.3 C48.7,39.4 47.6,41.5 47.1,42.3 C40.9,52.3 29.2,58.5 20.3,58.5 C20.1,57.5 19.5,56.3 18.6,55.3 C17,53.6 14.9,52 12,50.1 C11.8,50 10.7,49.2 10.2,48.8 C-0.1,41.4 -1.5,29.4 1.8,17.9 C5.7,5.9 15.4,0.5 25.5,0.5 C35.5,0.5 45.3,5.9 49.2,17.9 C51.3,25.7 51.5,33.1 48.7,39.3 Z" id="Shape" fill="#C9CCD1"></path>
            <path d="M22.4,35.4 C23.3,35.8 24.4,36 25.5,36 C26.6,36 27.6,35.8 28.6,35.4 C30.2,34.7 32.3,32.4 31.7,31.1 C31.3,30.2 27.5,29.9 25.5,29.9 C23.6,29.9 19.8,30.2 19.3,31.1 C18.7,32.4 20.9,34.7 22.4,35.4 Z M36,9.2 C33.8,7.8 32.3,9.2 25.5,9.2 C18.7,9.2 17.3,7.9 15,9.2 C12.2,10.9 13.4,18.4 14.4,21.5 C15.5,25 16.7,28.9 19.9,28.9 C22.1,28.9 24.8,29.4 24.8,25.8 C24.8,23.9 19.9,23.3 19.9,21.5 C19.9,20.3 23.6,20.3 25.4,20.3 C27.2,20.3 30.9,20.2 30.9,21.5 C30.9,23.3 26,23.9 26,25.8 C26,29.4 28.7,28.9 30.9,28.9 C34.2,28.9 35.3,25 36.4,21.5 C37.6,18.5 38.8,10.9 36,9.2 Z" id="Shape" fill="#FFFFFF"></path>
        </g>
    </g>
</svg>