<?xml version="1.0" encoding="utf-8"?>
<!-- Generator: Adobe Illustrator 17.0.0, SVG Export Plug-In . SVG Version: 6.00 Build 0)  -->
<!DOCTYPE svg PUBLIC "-//W3C//DTD SVG 1.1//EN" "http://www.w3.org/Graphics/SVG/1.1/DTD/svg11.dtd">
<svg version="1.1" id="图层_1" xmlns="http://www.w3.org/2000/svg" xmlns:xlink="http://www.w3.org/1999/xlink" x="0px" y="0px"
	 width="16px" height="16px" viewBox="0 0 16 16" enable-background="new 0 0 16 16" xml:space="preserve">
<g>
	<path fill-rule="evenodd" clip-rule="evenodd" fill="#FFFFFF" d="M13.866,13.015H2.13c-0.626,0-1.13-0.52-1.13-1.16V4.893
		c0-0.641,0.505-0.956,1.13-0.956h2.321l1.329-1.566V2.368c0.206-0.231,0.498-0.376,0.828-0.376h2.826
		c0.31,0,0.583,0.131,0.784,0.337l0.006,0.007c0.004,0,0.011,0.007,0.011,0.007l1.359,1.593h2.271c0.622,0,1.13,0.503,1.13,1.144
		v6.775C14.997,12.495,14.489,13.015,13.866,13.015z M8,5C6.343,5,5,6.343,5,8s1.343,3,3,3c1.657,0,3-1.343,3-3S9.657,5,8,5z
		 M13.497,4.995c-0.276,0-0.502,0.224-0.502,0.501c0,0.278,0.226,0.501,0.502,0.501C13.775,5.998,14,5.774,14,5.497
		C14,5.219,13.775,4.995,13.497,4.995z M8,10c-1.105,0-2-0.895-2-2c0-1.105,0.896-2,2-2s2,0.895,2,2C10,9.105,9.104,10,8,10z"/>
</g>
</svg>
