<?xml version="1.0" encoding="utf-8"?>
<!-- Generator: Adobe Illustrator 15.0.0, SVG Export Plug-In . SVG Version: 6.00 Build 0)  -->
<!DOCTYPE svg PUBLIC "-//W3C//DTD SVG 1.1//EN" "http://www.w3.org/Graphics/SVG/1.1/DTD/svg11.dtd">
<svg version="1.1" id="图层_1" xmlns="http://www.w3.org/2000/svg" xmlns:xlink="http://www.w3.org/1999/xlink" x="0px" y="0px"
	 width="89px" height="22px" viewBox="0 0 89 22" enable-background="new 0 0 89 22" xml:space="preserve">
<rect fill-rule="evenodd" clip-rule="evenodd" fill="#E5EFF9" width="89" height="22"/>
<path fill-rule="evenodd" clip-rule="evenodd" fill="#939393" d="M75.176,17.377v-1h1v-3h-2v3h-1v-10h4v11H75.176z M76.176,7.377h-2
	v2h2V7.377z M76.176,10.377h-2v2h2V10.377z M71.176,17.377v-1h2v1H71.176z M70.176,15.377h1v1h-1V15.377z M66.176,14.377v-1h1v-5h-1
	v-1h1v-2h1v2h2v-2h1v2h1v1h-1v5h1v1H66.176z M70.176,8.377h-2v1h2V8.377z M70.176,10.377h-2v1h2V10.377z M70.176,12.377h-2v1h2
	V12.377z M63.176,16.377h-7v1h-1v-11h1h7h1v11h-1V16.377z M63.176,7.377h-7v3h7V7.377z M63.176,11.377h-7v4h7V11.377z M42.176,7.377
	h3v-1h1v1h3v-1h1v1h3v1h-11V7.377z M44.176,5.377h1v1h-1V5.377z M51.176,5.377v1h-1v-1H51.176z M39.176,16.377h-8v-1h8v-2h-7v-1h7
	v-2h-8v-1h4v-4h1v4h3h1v8h-1V16.377z M38.176,8.377v-1h1v1H38.176z M39.176,6.377h1v1h-1V6.377z M32.176,7.377h1v1h-1V7.377z
	 M31.176,6.377h1v1h-1V6.377z M48.176,9.377v1v6v1h-2v-1h1v-2h-3v3h-1v-8H48.176z M44.176,13.377h3v-1h-3V13.377z M44.176,11.377h3
	v-1h-3V11.377z M50.176,15.377h-1v-5h1V15.377z M51.176,9.377h1v7v1h-2v-1h1V9.377z M68.176,15.377v1h-1v-1H68.176z M67.176,17.377
	h-1v-1h1V17.377z"/>
<path fill-rule="evenodd" clip-rule="evenodd" fill="#939393" d="M82.088,14.948h0.8l3.2-3.2v-0.6l-3.2-3.2h-0.8v0.8l2.7,2.7
	l-2.7,2.7V14.948z"/>
<path fill-rule="evenodd" clip-rule="evenodd" fill="#A1A1A1" d="M26.004,15h-0.8l-3.2-3.2v-0.6l3.2-3.2h0.8v0.8l-2.7,2.7l2.7,2.7
	V15z"/>
<path fill-rule="evenodd" clip-rule="evenodd" fill="#789AC9" d="M6.015,18.052v-11c0-1.105,0.896-2,2-2h1v2h1v-2h5v2h1v-2h1
	c1.104,0,2,0.895,2,2v11H6.015z"/>
<path fill-rule="evenodd" clip-rule="evenodd" fill="#FFFFFF" d="M6.999,7.953h11v9h-11V7.953z"/>
<path fill-rule="evenodd" clip-rule="evenodd" fill="#D0D0D0" d="M14.999,15.953h-1h-1h-1h-1h-1h-2v-7h2h1h1h1h1h1h2v7H14.999z
	 M13.999,14.953v-1h-1v1H13.999z M12.999,12.953h1v-1h-1V12.953z M11.999,14.953v-1h-1v1H11.999z M10.999,12.953h1v-1h-1V12.953z
	 M8.999,14.953h1v-1h-1V14.953z M8.999,12.953h1v-1h-1V12.953z M8.999,9.953v1h1v-1H8.999z M10.999,9.953v1h1v-1H10.999z
	 M12.999,9.953v1h1v-1H12.999z M15.999,9.953h-1v1h1V9.953z M15.999,11.953h-1v1h1V11.953z M15.999,13.953h-1v1h1V13.953z"/>
<g>
	<g>
		<path fill-rule="evenodd" clip-rule="evenodd" fill="#D38670" d="M11.989,10.964v3h3v-3H11.989z M13.989,12.965h-1v-1h1V12.965z"
			/>
	</g>
</g>
</svg>
