<?xml version="1.0" encoding="utf-8"?>
<!-- Generator: Adobe Illustrator 15.0.0, SVG Export Plug-In . SVG Version: 6.00 Build 0)  -->
<!DOCTYPE svg PUBLIC "-//W3C//DTD SVG 1.1//EN" "http://www.w3.org/Graphics/SVG/1.1/DTD/svg11.dtd">
<svg version="1.1" id="图层_1" xmlns="http://www.w3.org/2000/svg" xmlns:xlink="http://www.w3.org/1999/xlink" x="0px" y="0px"
	 width="22px" height="22px" viewBox="0 0 22 22" enable-background="new 0 0 22 22" xml:space="preserve">
<path fill-rule="evenodd" clip-rule="evenodd" fill="#FF6262" d="M17.557,17.042h-2.056h-1h-0.056c-0.105,0-0.198-0.048-0.274-0.117
	c-0.01-0.008-0.021-0.014-0.03-0.022c-0.01-0.01-0.016-0.021-0.025-0.032c-0.067-0.076-0.114-0.169-0.114-0.273v-0.055v-1V5.485
	c0-0.245,0.224-0.444,0.5-0.444h1c0.276,0,0.5,0.199,0.5,0.444v9.556h1.556c0.246,0,0.444,0.224,0.444,0.501v1
	C18.001,16.817,17.803,17.042,17.557,17.042z M11.572,12.042H7.001v4.555c0,0.245-0.224,0.445-0.5,0.445h-1
	c-0.276,0-0.5-0.2-0.5-0.445V6.542v-1V5.485c0-0.151,0.091-0.279,0.223-0.359C5.25,5.108,5.276,5.089,5.307,5.077c0,0,0,0,0,0
	c0.051-0.02,0.104-0.035,0.161-0.035h0.033h1h5.034c0.257,0,0.466,0.224,0.466,0.5v1c0,0.276-0.209,0.5-0.466,0.5H7.001v3h4.571
	c0.237,0,0.429,0.224,0.429,0.5v1C12.001,11.817,11.809,12.042,11.572,12.042z"/>
</svg>
