<?xml version="1.0" encoding="UTF-8"?>
<svg width="20px" height="20px" viewBox="0 0 20 20" version="1.1" xmlns="http://www.w3.org/2000/svg" xmlns:xlink="http://www.w3.org/1999/xlink">
    <!-- Generator: Sketch 45.1 (43504) - http://www.bohemiancoding.com/sketch -->
    <title>icon_complete</title>
    <desc>Created with Sketch.</desc>
    <defs></defs>
    <g id="Page-1" stroke="none" stroke-width="1" fill="none" fill-rule="evenodd">
        <g id="icon_complete" transform="translate(3.000000, 5.000000)" fill-rule="nonzero" fill="#13B541">
            <path d="M15.06,1.456 L6.988,9.49 L5.56,10.912 L4.131,9.49 L0.06,5.437 L0.132,5.365 C0.089,5.254 0.06,5.136 0.06,5.01 C0.06,4.46 0.508,4.015 1.06,4.015 C1.187,4.015 1.305,4.044 1.417,4.087 L1.489,4.015 L5.56,8.068 L13.631,0.034 L13.703,0.106 C13.814,0.063 13.933,0.034 14.06,0.034 C14.612,0.034 15.06,0.48 15.06,1.03 C15.06,1.156 15.031,1.274 14.988,1.385 L15.06,1.456 Z" id="Shape"></path>
        </g>
    </g>
</svg>