<?xml version="1.0" encoding="utf-8"?>
<!-- Generator: Adobe Illustrator 17.0.0, SVG Export Plug-In . SVG Version: 6.00 Build 0)  -->
<!DOCTYPE svg PUBLIC "-//W3C//DTD SVG 1.1//EN" "http://www.w3.org/Graphics/SVG/1.1/DTD/svg11.dtd">
<svg version="1.1" id="图层_1" xmlns="http://www.w3.org/2000/svg" xmlns:xlink="http://www.w3.org/1999/xlink" x="0px" y="0px"
	 width="28px" height="28px" viewBox="0 0 28 28" enable-background="new 0 0 28 28" xml:space="preserve">
<path fill-rule="evenodd" clip-rule="evenodd" fill="#5899EF" d="M2.034,0h24c0.552,0,1,0.448,1,1v26c0,0.552-0.448,1-1,1h-24
	c-0.552,0-1-0.448-1-1V1C1.034,0.448,1.481,0,2.034,0z"/>
<g>
	<g>
		<path fill-rule="evenodd" clip-rule="evenodd" fill="#FFFFFF" d="M14.034,5.937c-4.411,0-7.986,3.61-7.986,8.063
			c0,4.453,3.575,8.064,7.986,8.064c4.41,0,7.986-3.611,7.986-8.064C22.02,9.547,18.444,5.937,14.034,5.937z M14.033,20
			c-3.314,0-6-2.686-6-6c0-3.314,2.686-6,6-6s6,2.686,6,6C20.033,17.314,17.347,20,14.033,20z"/>
	</g>
</g>
<path fill-rule="evenodd" clip-rule="evenodd" fill="#FFFFFF" d="M18,18.004l-5.507-2.468l-2.451-5.502l5.49,2.475L18,18.004z
	 M13.263,14.775l2.731,1.227l-1.221-2.731L13.263,14.775z"/>
</svg>
