<?xml version="1.0" encoding="utf-8"?>
<!-- Generator: Adobe Illustrator 17.0.0, SVG Export Plug-In . SVG Version: 6.00 Build 0)  -->
<!DOCTYPE svg PUBLIC "-//W3C//DTD SVG 1.1//EN" "http://www.w3.org/Graphics/SVG/1.1/DTD/svg11.dtd">
<svg version="1.1" id="图层_1" xmlns="http://www.w3.org/2000/svg" xmlns:xlink="http://www.w3.org/1999/xlink" x="0px" y="0px"
	 width="28px" height="28px" viewBox="0 0 28 28" enable-background="new 0 0 28 28" xml:space="preserve">
<path fill-rule="evenodd" clip-rule="evenodd" fill="#1DAFF2" d="M2.034,0h24c0.552,0,1,0.448,1,1v26c0,0.552-0.448,1-1,1h-24
	c-0.552,0-1-0.448-1-1V1C1.034,0.448,1.481,0,2.034,0z"/>
<g>
	<g>
		<path fill="#FFFFFF" d="M11.472,8H7.001v11.538c0,0.255,0.224,0.461,0.5,0.461h1c0.276,0,0.5-0.207,0.5-0.461v-4.539h2.471
			c1.949,0,3.529-1.469,3.529-3.281V11.28C15.001,9.469,13.421,8,11.472,8z M13,11.594C13,12.37,12.21,13,11.235,13H9v-3h2.235
			C12.21,10,13,10.63,13,11.406V11.594z M20.344,16.006c-0.353-0.331-0.802-0.378-1.885-0.704c-0.693-0.209-0.937-0.723-0.937-0.974
			c0-0.556,0.296-0.926,0.96-0.926c0.418,0,0.893,0.305,1.091,0.553c0.03,0.038,0.106,0.163,0.081,0.12
			c0.361,0.634,1.594,0.155,1.202-0.707c-0.071-0.156-0.18-0.311-0.29-0.441C20.128,12.426,19.361,12,18.482,12
			c-0.975,0-1.703,0.344-2.142,1.031c-0.214,0.331-0.332,0.767-0.332,1.23c0,0.767,0.332,1.402,0.943,1.759
			c0.364,0.211,0.716,0.408,1.23,0.568c0.849,0.264,0.838,0.251,1.042,0.423c0.172,0.146,0.279,0.397,0.279,0.661
			c0.063,0.497-0.243,0.917-0.615,0.917c-1.408,0-1.622-0.713-1.956-1.264c-0.47-0.778-1.585-0.058-1.188,0.867
			c0.046,0.108,0.138,0.206,0.202,0.311c0.46,0.766,1.261,1.497,2.967,1.497c1.832,0,2.091-1.811,2.091-2.354
			C21.001,16.918,20.762,16.376,20.344,16.006z"/>
	</g>
</g>
</svg>
