<?xml version="1.0" encoding="utf-8"?>
<!-- Generator: Adobe Illustrator 17.0.0, SVG Export Plug-In . SVG Version: 6.00 Build 0)  -->
<!DOCTYPE svg PUBLIC "-//W3C//DTD SVG 1.1//EN" "http://www.w3.org/Graphics/SVG/1.1/DTD/svg11.dtd">
<svg version="1.1" id="图层_1" xmlns="http://www.w3.org/2000/svg" xmlns:xlink="http://www.w3.org/1999/xlink" x="0px" y="0px"
	 width="28px" height="28px" viewBox="0 0 28 28" enable-background="new 0 0 28 28" xml:space="preserve">
<path fill-rule="evenodd" clip-rule="evenodd" fill="#72C54F" d="M2,0h24c0.552,0,1,0.448,1,1v26c0,0.552-0.448,1-1,1H2
	c-0.552,0-1-0.448-1-1V1C1,0.448,1.448,0,2,0z"/>
<path fill-rule="evenodd" clip-rule="evenodd" fill="#FFFFFF" d="M19.875,8.751c-0.759,1.062-2.396,2.958-4.125,4.894
	c1.678,2.302,3.396,4.661,4.154,5.757c0.279,0.442-0.117,0.572-0.335,0.572c-0.353,0.003-0.646,0-0.961,0.002
	c-0.275,0-0.468-0.058-0.678-0.415c-0.578-0.829-1.915-2.654-3.351-4.616c-1.461,1.614-2.857,3.122-3.729,4.059h2.648c0,0,0,0,0,0
	c0.276,0,0.5,0.224,0.5,0.5s-0.224,0.5-0.5,0.5c2.247,0-4.5,0-4.5,0l0.031-0.029c-0.241,0-0.496,0-0.726-0.002
	c-0.225,0-0.537-0.155-0.144-0.586c0.842-1.152,3.141-3.586,5.341-5.915c-1.376-1.883-2.697-3.7-3.395-4.714
	c-0.412-0.716,0.281-0.755,0.398-0.755c0.345-0.002,0.596-0.002,0.868-0.004c0.182-0.003,0.379,0.106,0.599,0.426
	c0.531,0.757,1.565,2.18,2.728,3.777c1.544-1.641,2.941-3.279,3.399-3.797c0.265-0.398,0.454-0.395,0.639-0.402
	c0.235-0.003,0.425-0.007,0.734-0.007C19.86,7.97,20.254,8.077,19.875,8.751z"/>
</svg>
