<?xml version="1.0" encoding="utf-8"?>
<!-- Generator: Adobe Illustrator 15.0.0, SVG Export Plug-In . SVG Version: 6.00 Build 0)  -->
<!DOCTYPE svg PUBLIC "-//W3C//DTD SVG 1.1//EN" "http://www.w3.org/Graphics/SVG/1.1/DTD/svg11.dtd">
<svg version="1.1" id="图层_1" xmlns="http://www.w3.org/2000/svg" xmlns:xlink="http://www.w3.org/1999/xlink" x="0px" y="0px"
	 width="16px" height="12px" viewBox="0 0 16 12" enable-background="new 0 0 16 12" xml:space="preserve">
<path fill-rule="evenodd" clip-rule="evenodd" fill="#747474" d="M15,2c0-0.105-0.03-0.201-0.06-0.296L8,6L1.06,1.704
	C1.029,1.799,1,1.895,1,2v7c0,0.553,0.447,1,1,1h6v1H2c-1.104,0-2-0.896-2-2V2c0-1.104,0.896-2,2-2h12c1.104,0,2,0.896,2,2v5h-1V2z
	 M14,1H2C1.927,1,1.863,1.027,1.794,1.042L8,4.883l6.206-3.842C14.137,1.027,14.073,1,14,1z M13,8c0,0,3-0.031,3,4c0,0-0.5-2-3-2v2
	L9,9l4-3V8z"/>
</svg>
