<?xml version="1.0" encoding="utf-8"?>
<!-- Generator: Adobe Illustrator 17.0.0, SVG Export Plug-In . SVG Version: 6.00 Build 0)  -->
<!DOCTYPE svg PUBLIC "-//W3C//DTD SVG 1.1//EN" "http://www.w3.org/Graphics/SVG/1.1/DTD/svg11.dtd">
<svg version="1.1" id="图层_1" xmlns="http://www.w3.org/2000/svg" xmlns:xlink="http://www.w3.org/1999/xlink" x="0px" y="0px"
	 width="28px" height="28px" viewBox="0 0 28 28" enable-background="new 0 0 28 28" xml:space="preserve">
<path fill-rule="evenodd" clip-rule="evenodd" fill="#FF6362" d="M2,0h24c0.552,0,1,0.448,1,1v26c0,0.552-0.448,1-1,1H2
	c-0.552,0-1-0.448-1-1V1C1,0.448,1.448,0,2,0z"/>
<path fill-rule="evenodd" clip-rule="evenodd" fill="#FFFFFF" d="M20.599,20.006h-2.056h-1.055c-0.286,0-0.444-0.31-0.444-0.445
	v-1.056V8.451c0-0.245,0.224-0.444,0.5-0.444h1c0.276,0,0.5,0.199,0.5,0.444v9.556h1.556c0.245,0,0.444,0.223,0.444,0.499v1.001
	C21.043,19.783,20.844,20.006,20.599,20.006z M14.614,15.006h-4.572v4.555c0,0.245-0.223,0.445-0.5,0.445h-1
	c-0.276,0-0.5-0.199-0.5-0.445V9.506V8.451c0-0.576,0.5-0.444,0.5-0.444h1h5.033c0.257,0,0.466,0.224,0.466,0.5v1
	c0,0.276-0.209,0.5-0.466,0.5h-4.534v3h4.572c0.237,0,0.428,0.224,0.428,0.5v1C15.043,14.782,14.851,15.006,14.614,15.006z"/>
</svg>
