<?xml version="1.0" encoding="UTF-8"?>
<svg width="16px" height="16px" viewBox="0 0 16 16" version="1.1" xmlns="http://www.w3.org/2000/svg" xmlns:xlink="http://www.w3.org/1999/xlink">
    <!-- Generator: Sketch 45.1 (43504) - http://www.bohemiancoding.com/sketch -->
    <title>icon_overflow</title>
    <desc>Created with Sketch.</desc>
    <defs></defs>
    <g id="Page-1" stroke="none" stroke-width="1" fill="none" fill-rule="evenodd">
        <g id="icon_overflow" fill-rule="nonzero" fill="#F63F3F">
            <path d="M8,1 C11.859,1 15,4.14 15,8 C15,11.859 11.859,15 8,15 C4.14,15 1,11.859 1,8 C1,4.14 4.14,1 8,1 L8,1 Z M8,0 C3.582,0 0,3.582 0,8 C0,12.419 3.582,16 8,16 C12.418,16 16,12.419 16,8 C16,3.582 12.418,0 8,0 L8,0 Z" id="Shape"></path>
            <rect id="Rectangle-path" x="7" y="4" width="2" height="5"></rect>
            <rect id="Rectangle-path" x="7" y="10" width="2" height="2"></rect>
        </g>
    </g>
</svg>