<?xml version="1.0" encoding="utf-8"?>
<!-- Generator: Adobe Illustrator 17.0.0, SVG Export Plug-In . SVG Version: 6.00 Build 0)  -->
<!DOCTYPE svg PUBLIC "-//W3C//DTD SVG 1.1//EN" "http://www.w3.org/Graphics/SVG/1.1/DTD/svg11.dtd">
<svg version="1.1" id="图层_1" xmlns="http://www.w3.org/2000/svg" xmlns:xlink="http://www.w3.org/1999/xlink" x="0px" y="0px"
	 width="16px" height="16px" viewBox="0 0 16 16" enable-background="new 0 0 16 16" xml:space="preserve">
<path fill-rule="evenodd" clip-rule="evenodd" fill="#F63F3F" d="M7.5,0C11.642,0,15,3.358,15,7.5c0,4.142-3.358,7.5-7.5,7.5
	C3.358,15,0,11.642,0,7.5C0,3.358,3.358,0,7.5,0z"/>
<path fill="#FFFFFF" d="M6.729,3.31c0.153-0.203,0.415-0.305,0.788-0.305c0.35,0,0.601,0.096,0.754,0.288
	C8.423,3.484,8.5,3.784,8.5,4.19c0,0.116-0.006,0.238-0.017,0.366L7.822,9.505H7.144L6.517,4.626C6.506,4.487,6.5,4.359,6.5,4.243
	C6.5,3.824,6.577,3.514,6.729,3.31z M8.207,12.209c-0.198,0.19-0.433,0.286-0.707,0.286c-0.274,0-0.51-0.095-0.707-0.286
	c-0.197-0.19-0.296-0.427-0.296-0.71c0-0.272,0.099-0.506,0.296-0.702c0.197-0.196,0.433-0.294,0.707-0.294
	c0.274,0,0.51,0.095,0.707,0.286c0.197,0.191,0.296,0.427,0.296,0.71C8.503,11.782,8.404,12.019,8.207,12.209z"/>
</svg>
