<?xml version="1.0" encoding="utf-8"?>
<!-- Generator: Adobe Illustrator 15.0.0, SVG Export Plug-In . SVG Version: 6.00 Build 0)  -->
<!DOCTYPE svg PUBLIC "-//W3C//DTD SVG 1.1//EN" "http://www.w3.org/Graphics/SVG/1.1/DTD/svg11.dtd">
<svg version="1.1" id="图层_1" xmlns="http://www.w3.org/2000/svg" xmlns:xlink="http://www.w3.org/1999/xlink" x="0px" y="0px"
	 width="28px" height="28px" viewBox="0 0 28 28" enable-background="new 0 0 28 28" xml:space="preserve">
<path fill-rule="evenodd" clip-rule="evenodd" fill="#EB1A1C" d="M14,0c7.732,0,14,6.269,14,14s-6.268,14-14,14S0,21.732,0,14
	S6.268,0,14,0z"/>
<g>
	<g>
		<path fill-rule="evenodd" clip-rule="evenodd" fill="#FFFFFF" d="M14.244,8.024c-0.492,0-1.317,0-2.223,0c0-1.622,0-2.834,0-2.918
			c0,0.416-0.752,0.829-1.999,0.829c0,0.131,0,0.953,0,2.089c-0.782,0-1.494,0-1.95,0c-1.256,0-2.071,0.834-2.071,2.071
			c0,0.476,0,9.389,0,9.738c0-0.423,0.7-0.828,1.942-0.828c0.909,0,5.06,0,5.988,0c1.246,0,2.072-0.834,2.072-2.071
			c0-1.32,0-10.029,0-9.738C16.004,7.614,15.49,8.024,14.244,8.024z M8.003,10.068c0-0.62,0.414-1.036,1.036-1.036
			c0.243,0,0.589,0,0.983,0c0,1.23,0,2.66,0,3.986c-0.49,0-0.913,0-1.17,0c-0.386,0-0.667,0.199-0.849,0.495
			C8.003,12.187,8.003,10.875,8.003,10.068z M14.004,16.965c0,0.624-0.424,1.036-1.036,1.036c-0.835,0-4.965,0-4.965,0
			s0-1.868,0-3.877c0.142-0.064,0.339-0.099,0.589-0.099c0.191,0,0.758,0,1.43,0c0,1.201,0,2.238,0,2.813
			c0,0.141,0.207,0.207,0.207,0.207h1.584c0,0,0.207-0.061,0.207-0.207c0-0.567,0-1.601,0-2.813c0.563,0,1.011,0,1.156,0
			c0.329,0,0.612-0.149,0.827-0.376C14.004,14.603,14.004,15.701,14.004,16.965z M14.004,12.973
			c-0.121,0.027-0.256,0.046-0.413,0.046c-0.189,0-0.82,0-1.57,0c0-1.299,0-2.712,0-3.986c1.07,0,1.983,0,1.983,0
			S14.004,10.303,14.004,12.973z M22.036,12.385c0-0.344,0-4.796,0-5.2c0,0.41-0.583,0.828-1.829,0.828c-0.206,0-0.759,0-0.934,0
			c-1.249,0-2.252,0.828-2.252,2.072c0,5.971,0,10.702,0,11.279c0-0.403,0.745-0.829,1.986-0.829c0-0.182,0-1.518,0-1.518
			s0.834,0,0.957,0c1.227,0,2.071-0.871,2.071-2.103c0-0.37,0-1.913,0-2.884c-0.365,0-1.239,0-1.615,0
			C21.332,14.031,22.036,13.416,22.036,12.385z M20.037,13.007c-0.52,0.188-0.826,0.794-0.826,1.396
			c0-0.295,0.266-0.414,0.744-0.414c0.029,0,0.047,0,0.069,0l0.013-0.012c0,1.479,0,2.776,0,3.016c0,0.625,0.009,1.036-0.604,1.036
			c-0.135,0-0.426,0-0.426,0s0-8.01,0-8.509c0-0.618,0.41-0.495,1.02-0.495c0.012,0,0.004,0,0.01,0
			C20.037,9.024,20.037,11.012,20.037,13.007z"/>
	</g>
</g>
</svg>
