<?xml version="1.0" encoding="utf-8"?>
<!-- Generator: Adobe Illustrator 17.0.0, SVG Export Plug-In . SVG Version: 6.00 Build 0)  -->
<!DOCTYPE svg PUBLIC "-//W3C//DTD SVG 1.1//EN" "http://www.w3.org/Graphics/SVG/1.1/DTD/svg11.dtd">
<svg version="1.1" id="图层_1" xmlns="http://www.w3.org/2000/svg" xmlns:xlink="http://www.w3.org/1999/xlink" x="0px" y="0px"
	 width="28px" height="28px" viewBox="0 0 28 28" enable-background="new 0 0 28 28" xml:space="preserve">
<path fill-rule="evenodd" clip-rule="evenodd" fill="#F85F8E" d="M2.034,0h24c0.552,0,1,0.448,1,1v26c0,0.552-0.448,1-1,1h-24
	c-0.552,0-1-0.448-1-1V1C1.034,0.448,1.481,0,2.034,0z"/>
<path fill-rule="evenodd" clip-rule="evenodd" fill="#FFFFFF" d="M19.001,18.31c0,0.711-0.278,1.714-1.778,1.714h-0.889
	c-0.736,0-1.333-0.575-1.333-1.286V18.31c0-0.71,0.597-1.285,1.333-1.285l1.666,0l0.001-6.622l-7,1.503c0,0,0,10.491,0,7.403
	c0,0.711-0.291,1.715-1.778,1.715H8.334c-0.736,0-1.333-0.576-1.333-1.286V19.31c0-0.71,0.597-1.285,1.333-1.285L10,18.025
	l0.001-6.435V9.851c0-0.648,0.314-0.734,0.9-0.869l7.2-1.739c0.727-0.218,0.9,0.56,0.9,0.869v1.74
	C19.001,9.851,19.001,21.913,19.001,18.31z"/>
</svg>
