<?xml version="1.0" encoding="utf-8"?>
<!-- Generator: Adobe Illustrator 17.0.0, SVG Export Plug-In . SVG Version: 6.00 Build 0)  -->
<!DOCTYPE svg PUBLIC "-//W3C//DTD SVG 1.1//EN" "http://www.w3.org/Graphics/SVG/1.1/DTD/svg11.dtd">
<svg version="1.1" id="图层_1" xmlns="http://www.w3.org/2000/svg" xmlns:xlink="http://www.w3.org/1999/xlink" x="0px" y="0px"
	 width="18px" height="18px" viewBox="0 0 18 18" enable-background="new 0 0 18 18" xml:space="preserve">
<g>
	<g>
		<path fill="#4196FF" d="M4.5,8C3.672,8,3,8.671,3,9.5C3,10.328,3.672,11,4.5,11S6,10.328,6,9.5C6,8.671,5.328,8,4.5,8z M9.5,8
			C8.672,8,8,8.671,8,9.5C8,10.328,8.672,11,9.5,11S11,10.329,11,9.5S10.329,8,9.5,8z M14.5,8C13.672,8,13,8.671,13,9.5
			s0.671,1.5,1.5,1.5c0.828,0,1.5-0.671,1.5-1.5S15.328,8,14.5,8z"/>
	</g>
</g>
</svg>
