<?xml version="1.0" encoding="utf-8"?>
<!-- Generator: Adobe Illustrator 15.0.0, SVG Export Plug-In . SVG Version: 6.00 Build 0)  -->
<!DOCTYPE svg PUBLIC "-//W3C//DTD SVG 1.1//EN" "http://www.w3.org/Graphics/SVG/1.1/DTD/svg11.dtd">
<svg version="1.1" id="图层_1" xmlns="http://www.w3.org/2000/svg" xmlns:xlink="http://www.w3.org/1999/xlink" x="0px" y="0px"
	 width="22px" height="22px" viewBox="0 0 22 22" enable-background="new 0 0 22 22" xml:space="preserve">
<path fill="none" stroke="#FFFFFF" stroke-width="2" stroke-miterlimit="10" d="M4.299,17.648c0,0,1.103,0.697,2.087-0.07
	c1.151-0.854,2.754-4.672,3.053-5.911c0.377-1.439,0.666-4.451,0.483-5.746C9.784,4.958,9.127,4.174,8.528,3.974
	c0,0-1.615-0.501-1.537,1.768c0,1.865,2.463,3.248,4.195,4.865c1.535,1.434,4.435,4.27,6.095,4.27c1.277,0,1.81-0.982,1.681-1.605
	C18.825,12.605,18.145,12,17.305,12c-0.608-0.127-4.017,0.121-6.481,0.729c-1.89,0.502-4.767,1.188-6.352,2.813
	C4.472,15.541,3.465,16.787,4.299,17.648z"/>
</svg>
