<?xml version="1.0" encoding="UTF-8"?>
<svg width="24px" height="24px" viewBox="0 0 24 24" version="1.1" xmlns="http://www.w3.org/2000/svg" xmlns:xlink="http://www.w3.org/1999/xlink">
    <!-- Generator: Sketch 45.1 (43504) - http://www.bohemiancoding.com/sketch -->
    <title>phone</title>
    <desc>Created with Sketch.</desc>
    <defs></defs>
    <g id="Page-1" stroke="none" stroke-width="1" fill="none" fill-rule="evenodd">
        <g id="phone" fill-rule="nonzero">
            <path d="M12,0 C5.4,0 0,5.4 0,12 C0,18.6 5.4,24 12,24 C18.6,24 24,18.6 24,12 C24,5.4 18.6,0 12,0 Z" id="Shape" fill="#D2D5D6"></path>
            <path d="M15.5,5 L8.5,5 C7.7,5 7,5.7 7,6.5 L7,17.5 C7,18.3 7.7,19 8.5,19 L15.5,19 C16.3,19 17,18.3 17,17.5 L17,6.5 C17,5.7 16.3,5 15.5,5 Z M11.9719802,18.3 C11.5663123,18.3 11.1606445,17.9990219 11.1606445,17.5977178 C11.1606445,17.1964138 11.4648954,16.7951097 11.9719802,16.7951097 C12.377648,16.7951097 12.7833158,17.0960877 12.7833158,17.5977178 C12.7833158,17.8986959 12.377648,18.3 11.9719802,18.3 Z M16,16 L8,16 L8,7 L16,7" id="Shape" fill="#FFFFFF"></path>
        </g>
    </g>
</svg>