<?xml version="1.0" encoding="utf-8"?>
<!-- Generator: Adobe Illustrator 15.0.0, SVG Export Plug-In . SVG Version: 6.00 Build 0)  -->
<!DOCTYPE svg PUBLIC "-//W3C//DTD SVG 1.1//EN" "http://www.w3.org/Graphics/SVG/1.1/DTD/svg11.dtd">
<svg version="1.1" id="图层_1" xmlns="http://www.w3.org/2000/svg" xmlns:xlink="http://www.w3.org/1999/xlink" x="0px" y="0px"
	 width="22px" height="22px" viewBox="0 0 22 22" enable-background="new 0 0 22 22" xml:space="preserve">
<g>
	<g>
		<path fill="#FFFFFF" d="M8.488,5.021H4.017v11.538c0,0.255,0.224,0.461,0.5,0.461h1c0.276,0,0.5-0.207,0.5-0.461V12.02h2.471
			c1.949,0,3.529-1.469,3.529-3.281V8.3C12.017,6.489,10.437,5.021,8.488,5.021z M10.016,8.614c0,0.776-0.79,1.406-1.765,1.406
			H6.016v-3H8.25c0.975,0,1.765,0.63,1.765,1.406V8.614z M17.359,13.026c-0.353-0.331-0.802-0.378-1.885-0.704
			c-0.693-0.209-0.938-0.723-0.938-0.974c0-0.556,0.297-0.926,0.961-0.926c0.418,0,0.893,0.305,1.091,0.553
			c0.03,0.038,0.106,0.163,0.081,0.12c0.361,0.634,1.594,0.155,1.201-0.707c-0.07-0.156-0.18-0.311-0.289-0.441
			c-0.438-0.501-1.205-0.927-2.084-0.927c-0.976,0-1.703,0.344-2.143,1.031c-0.214,0.331-0.332,0.767-0.332,1.229
			c0,0.767,0.332,1.402,0.943,1.759c0.363,0.211,0.716,0.408,1.23,0.568c0.848,0.264,0.838,0.251,1.041,0.423
			c0.172,0.146,0.279,0.397,0.279,0.661c0.063,0.497-0.243,0.917-0.615,0.917c-1.408,0-1.621-0.713-1.955-1.264
			c-0.471-0.778-1.586-0.058-1.188,0.866c0.046,0.108,0.138,0.207,0.202,0.312c0.459,0.767,1.261,1.497,2.967,1.497
			c1.832,0,2.091-1.811,2.091-2.354C18.017,13.938,17.777,13.396,17.359,13.026z"/>
	</g>
</g>
</svg>
