<?xml version="1.0" standalone="no"?><!DOCTYPE svg PUBLIC "-//W3C//DTD SVG 1.1//EN" "http://www.w3.org/Graphics/SVG/1.1/DTD/svg11.dtd"><svg t="1534229908260" class="icon" style="" viewBox="0 0 1024 1024" version="1.1" xmlns="http://www.w3.org/2000/svg" p-id="7000" xmlns:xlink="http://www.w3.org/1999/xlink" width="64" height="64"><defs><style type="text/css"></style></defs><path d="M358.4 0h-256C45.8 0 0 45.8 0 102.4v256C0 415 45.8 460.8 102.4 460.8h256c56.6 0 102.4-45.8 102.4-102.4v-256C460.8 45.8 415 0 358.4 0zM358.4 563.2h-256C45.8 563.2 0 609 0 665.6v256C0 978.2 45.8 1024 102.4 1024h256c56.6 0 102.4-45.8 102.4-102.4v-256c0-56.6-45.8-102.4-102.4-102.4zM921.6 0h-256C609 0 563.2 45.8 563.2 102.4v256c0 56.6 45.8 102.4 102.4 102.4h256c56.6 0 102.4-45.8 102.4-102.4v-256C1024 45.8 978.2 0 921.6 0zM972.8 742.4h-128v-128c0-28.2-23-51.2-51.2-51.2-28.2 0-51.2 23-51.2 51.2v128h-128c-28.2 0-51.2 23-51.2 51.2 0 28.2 23 51.2 51.2 51.2h128v128c0 28.2 23 51.2 51.2 51.2 28.2 0 51.2-23 51.2-51.2v-128h128c28.2 0 51.2-23 51.2-51.2 0-28.2-23-51.2-51.2-51.2z" fill="#515151" p-id="7001"></path></svg>