<svg id="图层_1" data-name="图层 1" xmlns="http://www.w3.org/2000/svg" viewBox="0 0 64 64"><title>画板 1</title><path d="M53.65,39.28,30.09,25.45c-.86-.5-1.41-.12-1.23.86l5,26.76c.18,1,.8,1.11,1.38.3a81,81,0,0,1,5.82-7.29l5,7.4a1.56,1.56,0,0,0,2.16.41L50,52.72a1.56,1.56,0,0,0,.41-2.16l-5-7.4a69.93,69.93,0,0,1,8.12-2.54C54.42,40.39,54.51,39.79,53.65,39.28Z" style="fill:#1296db"/><path d="M30.54,50.78H17a4.33,4.33,0,0,1-4.43-4.22V17.32A4.34,4.34,0,0,1,17,13.09H46.08a4.33,4.33,0,0,1,4.43,4.23v17h3.28v-17a7.6,7.6,0,0,0-7.71-7.46H17A7.6,7.6,0,0,0,9.3,17.32V46.56A7.6,7.6,0,0,0,17,54H30.54V50.78Z" style="fill:#1296db"/></svg>