<svg id="图层_1" data-name="图层 1" xmlns="http://www.w3.org/2000/svg" viewBox="0 0 16 16"><title>画板 36</title><line x1="12.5" y1="1.5" x2="7.5" y2="8.5" style="fill:#fff;stroke:gray;stroke-miterlimit:10"/><line x1="14.5" y1="9.5" x2="8" y2="8.5" style="fill:#fff;stroke:gray;stroke-miterlimit:10"/><line x1="11.5" y1="14.5" x2="8.67" y2="10" style="fill:#fff;stroke:gray;stroke-miterlimit:10"/><line x1="2" y1="2" x2="7.33" y2="8.67" style="fill:#fff;stroke:gray;stroke-miterlimit:10"/><line x1="1.5" y1="13.5" x2="7.33" y2="8.67" style="fill:#fff;stroke:gray;stroke-miterlimit:10"/><circle cx="7.33" cy="8.67" r="3.33" style="fill:#4d84ba"/><circle cx="2" cy="13" r="1.5" style="fill:#fff"/><path d="M2,12a1,1,0,1,1-1,1,1,1,0,0,1,1-1m0-1a2,2,0,1,0,2,2,2,2,0,0,0-2-2Z" style="fill:gray"/><circle cx="12" cy="2" r="1.5" style="fill:#fff"/><path d="M12,1a1,1,0,1,1-1,1,1,1,0,0,1,1-1m0-1a2,2,0,1,0,2,2,2,2,0,0,0-2-2Z" style="fill:gray"/><circle cx="14" cy="9" r="1.5" style="fill:#fff"/><path d="M14,8a1,1,0,1,1-1,1,1,1,0,0,1,1-1m0-1a2,2,0,1,0,2,2,2,2,0,0,0-2-2Z" style="fill:gray"/><circle cx="11" cy="14" r="1.5" style="fill:#fff"/><path d="M11,13a1,1,0,1,1-1,1,1,1,0,0,1,1-1m0-1a2,2,0,1,0,2,2,2,2,0,0,0-2-2Z" style="fill:gray"/><circle cx="2" cy="2" r="1.5" style="fill:#fff"/><path d="M2,1A1,1,0,1,1,1,2,1,1,0,0,1,2,1M2,0A2,2,0,1,0,4,2,2,2,0,0,0,2,0Z" style="fill:gray"/></svg>