<?xml version="1.0" standalone="no"?><!DOCTYPE svg PUBLIC "-//W3C//DTD SVG 1.1//EN" "http://www.w3.org/Graphics/SVG/1.1/DTD/svg11.dtd"><svg t="1534472608004" class="icon" style="" viewBox="0 0 1024 1024" version="1.1" xmlns="http://www.w3.org/2000/svg" p-id="5970" xmlns:xlink="http://www.w3.org/1999/xlink" width="64" height="64"><defs><style type="text/css"></style></defs><path d="M811.8 240.4c-28.1-27.8-67.1-43.8-107-43.8h-1c-39.9 0-78.9 15.9-107 43.7l-115 113.2c-6.1 6-9.6 14.2-9.6 22.7s3.4 16.6 9.5 22.6 14.4 9.4 23 9.4 16.9-3.4 23-9.4l115.1-113.2c16.4-16.1 38.2-25 61.4-25 23.2 0 45 8.9 61.4 25S791 323.2 791 346c0 22.8-9 44.3-25.4 60.4L629.3 540.7c-16.4 16.1-38.2 25-61.4 25-23.2 0-45-8.9-61.4-25-6.1-6.1-14.3-9.4-23.1-9.4-17.8 0-32.4 14.3-32.5 32 0 8.5 3.4 16.6 9.5 22.6 28.1 27.8 67.1 43.8 107 43.8h0.9c39.9 0 78.9-15.9 107-43.7l136.4-134.2c28.4-27.8 44.6-66.3 44.5-105.7 0.1-39.4-16.1-77.9-44.4-105.7z" fill="#bfbfbf" p-id="5971" data-spm-anchor-id="a313x.7781069.0.i4" class="selected"></path><path d="M542.2 650.4c-8.6 0-16.9 3.4-23 9.4L404.2 773c-16.4 16.1-38.2 25-61.4 25-23.2 0-45-8.9-61.4-24.9-33.8-33.3-33.8-87.5 0-120.8L417.8 518c16.4-16.1 38.2-25 61.4-25 23.2 0 45 8.9 61.4 24.9 6.1 6.1 14.3 9.4 23.1 9.4 8.6 0 16.8-3.4 22.9-9.4 6.1-6 9.6-14.2 9.6-22.7s-3.4-16.6-9.5-22.6c-28.1-27.8-67.1-43.8-107-43.8h-0.9c-39.9 0-78.9 15.9-107 43.7L235.3 606.9c-28.7 28.2-44.5 65.7-44.5 105.7s15.8 77.5 44.4 105.6c28.1 27.8 67.1 43.8 107 43.8h0.9c39.9 0 78.9-15.9 107-43.7L565.4 705c12.7-12.5 12.6-32.9-0.1-45.3-6.2-6-14.5-9.3-23.1-9.3z" fill="#bfbfbf" p-id="5972" data-spm-anchor-id="a313x.7781069.0.i3" class="selected"></path><path d="M788.7 205.8c-28.1-27.8-67.1-43.8-107-43.8h-1c-39.9 0-78.9 15.9-107 43.7l-115 113.2c-6.1 6-9.6 14.2-9.6 22.7s3.4 16.6 9.5 22.6 14.4 9.4 23 9.4 16.9-3.4 23-9.4L619.8 251c16.4-16.1 38.2-25 61.4-25 23.2 0 45 8.9 61.4 25s25.4 37.6 25.4 60.4c0 22.8-9 44.3-25.4 60.4L606.2 506c-16.4 16.1-38.2 25-61.4 25-23.2 0-45-8.9-61.4-25-6.1-6.1-14.3-9.4-23.1-9.4-17.8 0-32.4 14.3-32.5 32 0 8.5 3.4 16.6 9.5 22.6 28.1 27.8 67.1 43.8 107 43.8h0.9c39.9 0 78.9-15.9 107-43.7l136.4-134.2c28.4-27.8 44.6-66.3 44.5-105.7 0.1-39.3-16.1-77.9-44.4-105.6z" fill="#515151" p-id="5973" data-spm-anchor-id="a313x.7781069.0.i2" class=""></path><path d="M519.1 615.7c-8.6 0-16.9 3.4-23 9.4L381 738.4c-16.4 16.1-38.2 25-61.4 25-23.2 0-45-8.9-61.4-24.9-33.8-33.3-33.8-87.5 0-120.8l136.4-134.2c16.4-16.1 38.2-25 61.4-25 23.2 0 45 8.9 61.4 24.9 6.1 6.1 14.3 9.4 23.1 9.4 8.6 0 16.8-3.4 22.9-9.4 6.1-6 9.6-14.2 9.6-22.7s-3.4-16.6-9.5-22.6c-28.1-27.8-67.1-43.8-107-43.8h-0.9c-39.9 0-78.9 15.9-107 43.7L212.2 572.3c-28.7 28.2-44.5 65.7-44.5 105.7s15.8 77.5 44.4 105.6c28.1 27.8 67.1 43.8 107 43.8h0.9c39.9 0 78.9-15.9 107-43.7l115.2-113.2c12.7-12.5 12.6-32.9-0.1-45.3-6.1-6.1-14.4-9.5-23-9.5z" fill="#515151" p-id="5974" data-spm-anchor-id="a313x.7781069.0.i1" class=""></path></svg>