<?xml version="1.0" standalone="no"?><!DOCTYPE svg PUBLIC "-//W3C//DTD SVG 1.1//EN" "http://www.w3.org/Graphics/SVG/1.1/DTD/svg11.dtd"><svg t="1534228829814" class="icon" style="" viewBox="0 0 1024 1024" version="1.1" xmlns="http://www.w3.org/2000/svg" p-id="4661" xmlns:xlink="http://www.w3.org/1999/xlink" width="64" height="64"><defs><style type="text/css"></style></defs><path d="M819.8 959.2H204.2c-47.4 0-91.1-25.5-117-68.2-29-47.8-30.9-108.3-5-158L390 142c25.1-48.3 70.8-77.1 122-77.1 51.3 0 96.9 28.8 122.1 77.1l307.8 591c25.9 49.7 24 110.3-5 158.1-26 42.6-69.7 68.1-117.1 68.1zM141.8 764c-15.1 29-14 64.3 2.9 92.2 13.8 22.8 35.6 35.9 59.6 35.9h615.6c24 0 45.7-13.1 59.6-35.9 16.9-27.8 18-63.1 2.9-92.2l-308-591c-13.4-25.7-36.7-41-62.4-41-25.7 0-49.1 15.3-62.4 41L141.8 764z" fill="#e2bf6d" p-id="4662" data-spm-anchor-id="a313x.7781069.0.i11" class="selected"></path><path d="M545.6 343.7c0-18.6-15-33.6-33.6-33.6s-33.6 15-33.6 33.6v294.1c0 18.6 15 33.6 33.6 33.6s33.6-15 33.6-33.6V343.7zM512 721.5c-18.6 0-33.6 15-33.6 33.6v17.2c0 18.6 15 33.6 33.6 33.6s33.6-15 33.6-33.6v-17.2c0-18.6-15-33.6-33.6-33.6z" fill="#c94b48" p-id="4663" data-spm-anchor-id="a313x.7781069.0.i10" class=""></path></svg>