<?xml version="1.0" standalone="no"?><!DOCTYPE svg PUBLIC "-//W3C//DTD SVG 1.1//EN" "http://www.w3.org/Graphics/SVG/1.1/DTD/svg11.dtd"><svg t="1527488034081" class="icon" style="" viewBox="0 0 1024 1024" version="1.1" xmlns="http://www.w3.org/2000/svg" p-id="6600" xmlns:xlink="http://www.w3.org/1999/xlink" width="20" height="20"><defs><style type="text/css"></style></defs><path d="M868 957.8H322c-50.3 0-91.3-40.9-91.3-91.3v-90.9h37v90.9c0 29.9 24.4 54.3 54.3 54.3h546c29.9 0 54.3-24.4 54.3-54.3V284.2c0-29.9-24.4-54.3-54.3-54.3H741.7v-37H868c50.3 0 91.3 41 91.3 91.3v582.4c0 50.3-40.9 91.2-91.3 91.2z" fill="#FF7878" p-id="6601"></path><path d="M563.8 581.4h-296c-10.2 0-18.5-8.3-18.5-18.5s8.3-18.5 18.5-18.5h296.1c10.2 0 18.5 8.3 18.5 18.5s-8.3 18.5-18.6 18.5zM563.8 433.4h-296c-10.2 0-18.5-8.3-18.5-18.5s8.3-18.5 18.5-18.5h296.1c10.2 0 18.5 8.3 18.5 18.5s-8.3 18.5-18.6 18.5zM563.8 285.4h-296c-10.2 0-18.5-8.3-18.5-18.5s8.3-18.5 18.5-18.5h296.1c10.2 0 18.5 8.3 18.5 18.5-0.1 10.2-8.3 18.5-18.6 18.5z" fill="#FF7878" p-id="6602"></path><path d="M693.3 100.4c20.4 0 37 16.6 37 37v592.1c0 20.4-16.6 37-37 37h-555c-20.4 0-37-16.6-37-37V137.4c0-20.4 16.6-37 37-37h555m0-37h-555c-40.9 0-74 33.1-74 74v592.1c0 40.9 33.1 74 74 74h555.1c40.9 0 74-33.1 74-74V137.4c0-40.9-33.2-74-74.1-74z" fill="#FF7878" p-id="6603"></path></svg>