<?xml version="1.0" standalone="no"?><!DOCTYPE svg PUBLIC "-//W3C//DTD SVG 1.1//EN" "http://www.w3.org/Graphics/SVG/1.1/DTD/svg11.dtd"><svg t="1528689192766" class="icon" style="" viewBox="0 0 1024 1024" version="1.1" xmlns="http://www.w3.org/2000/svg" p-id="2347" xmlns:xlink="http://www.w3.org/1999/xlink" width="16" height="16"><defs><style type="text/css"></style></defs><path d="M478.592 670.4V542.293333c0-15.232-10.389333-30.464-25.6-30.464h-117.738667c-7.616 0-14.549333-2.069333-20.074666-6.912l-9.706667-9.706666c-4.842667-5.546667-6.912-11.776-6.912-19.392v-117.717334c0-15.232-14.549333-26.304-29.781333-26.304H140.672c-15.232 0-33.237333 10.389333-33.237333 26.304v128.106667c0 15.232 18.005333 25.621333 33.237333 25.621333h127.424c7.616 0 14.528 4.16 20.053333 9.002667l1.408 0.704c4.842667 5.546667 9.002667 13.845333 9.002667 20.757333v128.106667c0 15.232 11.093333 32.554667 26.304 32.554667h128.106667c15.232 0.682667 25.621333-16.64 25.621333-32.554667z m416.170667-158.570667h-117.717334a27.733333 27.733333 0 0 1-20.074666-8.32l-11.093334-10.368c-5.546667-5.546667-9.002667-12.48-9.002666-20.096v-117.717333c0-15.232-11.072-24.234667-27.008-24.234667h-127.402667c-15.232 0-24.938667 9.002667-24.938667 24.234667v128.106667c0 15.232 9.706667 27.712 24.938667 27.712h128.106667c7.616 0 14.549333 3.456 20.074666 8.32h-0.682666c5.546667 5.525333 7.616 12.437333 7.616 20.053333v128.106667c0 15.253333 13.845333 23.552 29.077333 23.552h128.106667c15.232 0 22.165333-7.616 22.165333-23.552v-127.402667c0-15.232-6.933333-28.373333-22.165333-28.373333z m-537.344-33.237333h128.106666c15.232 0 26.304-15.232 26.304-30.464v-128.789333c0-7.637333 3.456-14.549333 9.002667-20.096l0.704-2.069334c5.546667-5.546667 12.458667-10.389333 20.053333-10.389333h128.128c15.232 0 33.237333-8.32 33.237334-23.552V135.125333c0-15.232-18.005333-28.373333-33.237334-28.373333h-128.106666c-15.232 0-29.781333 12.458667-29.781334 28.373333v117.717334c0 7.616-2.069333 14.549333-7.616 20.096l-9.685333 8.32c-5.546667 5.525333-11.776 6.208-19.413333 6.208h-117.696c-15.232 0-25.621333 16.64-25.621334 32.554666v128.106667c0 15.232 9.685333 30.464 25.6 30.464z m315.754666 67.178667H545.066667c-15.232 0-33.237333 15.232-33.237334 30.464v117.717333c0 7.616-0.682667 14.549333-5.546666 20.074667l-9.002667 12.458666c-5.546667 5.546667-11.072 10.389333-18.688 10.389334h-117.717333c-15.232 0-29.077333 8.32-29.077334 23.552v128.106666c0 15.232 13.141333 28.373333 29.077334 28.373334h128.106666c15.232 0 22.848-12.458667 22.848-28.373334v-127.424c0-7.616 5.546667-14.528 10.389334-20.053333l1.386666 2.048c5.546667-5.546667 13.866667-6.229333 20.778667-6.229333h128.106667c15.232 0 29.76-17.301333 29.76-32.533334V576.213333c1.386667-15.232-13.141333-30.464-29.077334-30.464z" fill="#1296db" p-id="2348"></path></svg>