<?xml version="1.0" standalone="no"?>
<!DOCTYPE svg PUBLIC "-//W3C//DTD SVG 20010904//EN"
 "http://www.w3.org/TR/2001/REC-SVG-20010904/DTD/svg10.dtd">
<svg version="1.0" xmlns="http://www.w3.org/2000/svg"
 width="31.000000pt" height="31.000000pt" viewBox="0 0 31.000000 31.000000"
 preserveAspectRatio="xMidYMid meet">
<metadata>
Created by potrace 1.13, written by Peter Selinger 2001-2015
</metadata>
<g transform="translate(0.000000,31.000000) scale(0.100000,-0.100000)"
fill="#000000" stroke="none">
<path d="M140 240 l0 -70 -70 0 c-56 0 -70 -3 -70 -15 0 -12 14 -15 70 -15
l70 0 0 -70 c0 -56 3 -70 15 -70 12 0 15 14 15 70 l0 70 70 0 c56 0 70 3 70
15 0 12 -14 15 -70 15 l-70 0 0 70 c0 56 -3 70 -15 70 -12 0 -15 -14 -15 -70z
m30 -85 c0 -8 -7 -15 -15 -15 -8 0 -15 7 -15 15 0 8 7 15 15 15 8 0 15 -7 15
-15z"/>
</g>
</svg>
