<svg id="图层_1" data-name="图层 1" xmlns="http://www.w3.org/2000/svg" viewBox="0 0 16 16"><title>画板 7</title><rect x="2.5" y="0.5" width="11" height="11" style="fill:#fff"/><path d="M13,1V11H3V1H13m1-1H2V12H14V0Z" style="fill:gray"/><rect x="0.5" y="2.5" width="11" height="11" style="fill:#fff"/><path d="M11,3V13H1V3H11m1-1H0V14H12V2Z" style="fill:gray"/><path d="M7.56,15.5a.15.15,0,0,1-.06-.14L8.62,9.73c0-.18.06-.23.07-.23H10.5v-2a1,1,0,0,1,2,0v2h1.81a.15.15,0,0,1,.06.14l1.13,5.82h0l-.07,0H7.56Z" style="fill:#fff"/><path d="M11.5,7a.51.51,0,0,1,.5.5V10h1.93l1,5H8.09l1-5H11V7.5a.51.51,0,0,1,.5-.5m0-1A1.5,1.5,0,0,0,10,7.5V9H8.69a.6.6,0,0,0-.56.64L7,15.36a.6.6,0,0,0,.56.64h7.88a.6.6,0,0,0,.56-.64L14.88,9.64A.6.6,0,0,0,14.31,9H13V7.5A1.5,1.5,0,0,0,11.5,6Z" style="fill:#4d84ba"/><rect x="7.5" y="9.5" width="8" height="1" rx="0.37" ry="0.37" style="fill:#fff"/><path d="M15.13,9H7.87A.87.87,0,0,0,7,9.87v.27a.87.87,0,0,0,.87.87h7.27a.87.87,0,0,0,.87-.87V9.87A.87.87,0,0,0,15.13,9Z" style="fill:#4d84ba"/><rect x="9" y="14" width="3" height="1" rx="0.5" ry="0.5" transform="translate(-5.6 22.32) rotate(-80)" style="fill:#fff"/><path d="M10.67,13a.5.5,0,0,0-.49.41l-.35,2a.5.5,0,0,0,.41.58h.09a.5.5,0,0,0,.49-.41l.35-2a.5.5,0,0,0-.41-.58Z" style="fill:#4d84ba"/></svg>