<svg id="图层_1" data-name="图层 1" xmlns="http://www.w3.org/2000/svg" viewBox="0 0 32 32"><title>画板 3</title><rect x="1" y="1" width="28" height="28" style="fill:#fff"/><path d="M29,1H26V2h2V5h1V1ZM23,1H20V2h3V1ZM17,1H14V2h3V1ZM11,1H8V2h3V1ZM5,1H2V2H5V1ZM2,3H1V6H2V3ZM2,9H1v3H2V9Zm0,6H1v3H2V15Zm0,6H1v3H2V21Zm0,6H1v2H2V28H2V27Zm6,1H5v1H8V28Zm6,0H11v1h3V28Zm6,0H17v1h3V28Zm6,0H23v1h3V28Zm3-2H28v3h1V26Zm0-6H28v3h1V20Zm0-6H28v3h1V14Zm0-6H28v3h1V8Z" style="fill:gray"/><rect x="25" y="27" width="6" height="2" style="fill:#525b67"/><rect x="27" y="25" width="2" height="6" style="fill:#525b67"/><path d="M10,7V21.51l3.79-3.73L16.54,23l2-1-2.65-5H21Zm0,0" style="fill:#4d84ba"/></svg>