<svg id="图层_1" data-name="图层 1" xmlns="http://www.w3.org/2000/svg" viewBox="0 0 16 16"><title>画板 1</title><rect x="2.5" y="0.5" width="11" height="11" style="fill:#fff"/><path d="M13,1V11H3V1H13m1-1H2V12H14V0Z" style="fill:gray"/><rect x="0.5" y="2.5" width="11" height="11" style="fill:#fff"/><path d="M11,3V13H1V3H11m1-1H0V14H12V2Z" style="fill:gray"/><path d="M11.5,16A4.5,4.5,0,1,1,16,11.5,4.5,4.5,0,0,1,11.5,16" style="fill:#de673e"/><polygon points="11.5 8 9 11 14 11 11.5 8" style="fill:#fff"/><polygon points="11.5 15 9 12 14 12 11.5 15" style="fill:#fff"/></svg>