<?xml version="1.0" standalone="no"?><!DOCTYPE svg PUBLIC "-//W3C//DTD SVG 1.1//EN" "http://www.w3.org/Graphics/SVG/1.1/DTD/svg11.dtd"><svg t="1545632768413" class="icon" style="" viewBox="0 0 1024 1024" version="1.1" xmlns="http://www.w3.org/2000/svg" p-id="1820" xmlns:xlink="http://www.w3.org/1999/xlink" width="200" height="200"><defs><style type="text/css"></style></defs><path d="M928 0C876.8 0 832 44.8 832 96c0 25.6 12.8 51.2 32 70.4l-185.6 441.6c0 0-6.4 0-6.4 0-19.2 0-38.4 6.4-57.6 19.2L441.6 505.6C448 499.2 448 486.4 448 480 448 428.8 403.2 384 352 384S256 428.8 256 480c0 25.6 6.4 44.8 25.6 64L115.2 832c-6.4 0-12.8 0-19.2 0C44.8 832 0 876.8 0 928 0 979.2 44.8 1024 96 1024S192 979.2 192 928c0-25.6-6.4-44.8-25.6-64L332.8 576c6.4 0 12.8 0 19.2 0 19.2 0 38.4-6.4 57.6-19.2l172.8 121.6C576 684.8 576 697.6 576 704c0 51.2 44.8 96 96 96 51.2 0 96-44.8 96-96 0-25.6-12.8-51.2-32-70.4L921.6 192c0 0 6.4 0 6.4 0C979.2 192 1024 147.2 1024 96 1024 44.8 979.2 0 928 0zM320 448l64 0 0 64L320 512 320 448zM128 896l0 64L64 960l0-64L128 896zM640 672l64 0 0 64-64 0L640 672zM896 128 896 64l64 0 0 64L896 128z" p-id="1821" fill="#1296db"></path></svg>