<svg id="图层_1" data-name="图层 1" xmlns="http://www.w3.org/2000/svg" viewBox="0 0 32 32"><title>画板 57</title><circle cx="24.02" cy="23.98" r="7" transform="translate(-0.05 0.05) rotate(-0.13)" style="fill:#4d84ba"/><polygon points="28.02 22.97 25.02 22.98 25.01 19.98 23.01 19.98 23.02 22.98 20.02 22.99 20.02 24.99 23.02 24.98 23.03 27.98 25.03 27.98 25.02 24.98 28.02 24.97 28.02 22.97" style="fill:#fff"/><circle cx="26.47" cy="3.48" r="2.5" transform="translate(-0.01 0.06) rotate(-0.13)" style="fill:#7e7e7e"/><circle cx="10.47" cy="3.51" r="2.5" transform="translate(-0.01 0.02) rotate(-0.13)" style="fill:#7e7e7e"/><circle cx="3.5" cy="15.53" r="2.5" transform="translate(-0.03 0.01) rotate(-0.13)" style="fill:#7e7e7e"/><circle cx="12.53" cy="27.51" r="2.5" transform="translate(-0.06 0.03) rotate(-0.13)" style="fill:#7e7e7e"/><line x1="23.97" y1="2.48" x2="10.47" y2="2.51" style="fill:none;stroke:#7e7e7e;stroke-miterlimit:10"/><line x1="9.47" y1="4.51" x2="4" y2="15.03" style="fill:none;stroke:#7e7e7e;stroke-miterlimit:10"/><line x1="3.5" y1="15.53" x2="12.53" y2="27.51" style="fill:none;stroke:#7e7e7e;stroke-miterlimit:10"/></svg>