<svg id="图层_1" data-name="图层 1" xmlns="http://www.w3.org/2000/svg" viewBox="0 0 16 16"><title>画板 11</title><rect x="4" y="4" width="9" height="9" style="fill:#fff"/><rect width="9" height="9" style="fill:#fff"/><polygon points="0 0 0 9 3 9 3 8 1 8 1 1 8 1 8 8 6 8 6 9 9 9 9 0 0 0" style="fill:#4d84ba"/><path d="M12.5,5V5Zm-8-.5h0v0Z" style="fill:#fff"/><polygon points="13 4 10 4 10 5 12 5 12 12 5 12 5 5 7 5 7 4 4 4 4 13 13 13 13 4 13 4" style="fill:gray"/><circle cx="11.5" cy="11.5" r="4.5" style="fill:#de673e"/><polygon points="14.33 9.38 13.62 8.67 11.5 10.79 9.38 8.67 8.67 9.38 10.79 11.5 8.67 13.62 9.38 14.33 11.5 12.21 13.62 14.33 14.33 13.62 12.21 11.5 14.33 9.38" style="fill:#fff"/></svg>