<?xml version="1.0" standalone="no"?><!DOCTYPE svg PUBLIC "-//W3C//DTD SVG 1.1//EN" "http://www.w3.org/Graphics/SVG/1.1/DTD/svg11.dtd"><svg t="1552558497346" class="icon" style="" viewBox="0 0 1024 1024" version="1.1" xmlns="http://www.w3.org/2000/svg" p-id="15912" xmlns:xlink="http://www.w3.org/1999/xlink" width="32" height="32"><defs><style type="text/css"></style></defs><path d="M731.241026 551.384615h-438.482052c-118.153846 0-215.302564-97.148718-215.302564-215.302564s97.148718-215.302564 215.302564-215.302564h467.364103c21.005128 0 39.384615 18.379487 39.384615 39.384616s-18.379487 39.384615-39.384615 39.384615h-467.364103c-76.14359 0-136.533333 60.389744-136.533333 136.533333s60.389744 136.533333 136.533333 136.533334h438.482052c21.005128 0 39.384615 18.379487 39.384615 39.384615s-18.379487 39.384615-39.384615 39.384615z" p-id="15913" fill="#1296db"></path><path d="M731.241026 903.220513H234.994872c-21.005128 0-39.384615-18.379487-39.384616-39.384616s18.379487-39.384615 39.384616-39.384615h496.246154c76.14359 0 136.533333-60.389744 136.533333-136.533333s-60.389744-136.533333-136.533333-136.533334h-438.482052c-21.005128 0-39.384615-18.379487-39.384615-39.384615s18.379487-39.384615 39.384615-39.384615h438.482052c118.153846 0 215.302564 97.148718 215.302564 215.302564s-97.148718 215.302564-215.302564 215.302564z" p-id="15914" fill="#1296db"></path><path d="M907.158974 160.164103c0 68.266667-55.138462 120.779487-120.779487 120.779487-68.266667 0-120.779487-55.138462-120.779487-120.779487s55.138462-120.779487 120.779487-120.779488 120.779487 55.138462 120.779487 120.779488" p-id="15915" fill="#1296db"></path><path d="M786.379487 320.328205c-89.271795 0-160.164103-70.892308-160.164102-160.164102s70.892308-160.164103 160.164102-160.164103 160.164103 70.892308 160.164103 160.164103-70.892308 160.164103-160.164103 160.164102z m0-241.558974c-44.635897 0-81.394872 36.758974-81.394872 81.394872s36.758974 81.394872 81.394872 81.394871 81.394872-36.758974 81.394872-81.394871-36.758974-81.394872-81.394872-81.394872z" p-id="15916" fill="#1296db"></path><path d="M361.025641 863.835897c0 68.266667-55.138462 120.779487-120.779487 120.779488-68.266667 0-120.779487-55.138462-120.779487-120.779488 0-68.266667 55.138462-120.779487 120.779487-120.779487 65.641026-2.625641 120.779487 52.512821 120.779487 120.779487" p-id="15917" fill="#1296db"></path><path d="M237.620513 1024c-89.271795 0-160.164103-70.892308-160.164103-160.164103 0-89.271795 70.892308-160.164103 160.164103-160.164102s160.164103 70.892308 160.164102 160.164102c0 89.271795-70.892308 160.164103-160.164102 160.164103z m0-241.558974c-44.635897 0-81.394872 36.758974-81.394872 81.394871 0 44.635897 36.758974 81.394872 81.394872 81.394872s81.394872-36.758974 81.394872-81.394872c0-44.635897-36.758974-81.394872-81.394872-81.394871z" p-id="15918" fill="#1296db"></path></svg>