<svg id="图层_1" data-name="图层 1" xmlns="http://www.w3.org/2000/svg" viewBox="0 0 16 16"><title>画板 35</title><path d="M6.94,10a1.46,1.46,0,0,1-.61-.2,4,4,0,0,1,0-5.57l3-3.08A4.07,4.07,0,0,1,12.12,0a3.66,3.66,0,0,1,2.74,1.19,4,4,0,0,1,0,5.57L13.44,8.15a.94.94,0,0,1-1.22,0,.89.89,0,0,1,0-1.19l1.42-1.39a2.19,2.19,0,0,0,0-3.18A2.42,2.42,0,0,0,12,1.69a2,2,0,0,0-1.62.7l-3,3.08a2.19,2.19,0,0,0,0,3.18.89.89,0,0,1,0,1.19.53.53,0,0,1-.41.2Zm0,0" style="fill:#4d84ba"/><path d="M3.89,16a3.66,3.66,0,0,1-2.74-1.19,4,4,0,0,1,0-5.57L2.57,7.85A1.11,1.11,0,0,1,3.79,8a.89.89,0,0,1,0,1.19L2.37,10.53a2.19,2.19,0,0,0,0,3.18,2.42,2.42,0,0,0,1.62.7,2,2,0,0,0,1.62-.7l3-3.08a2.19,2.19,0,0,0,0-3.18.89.89,0,0,1,0-1.19.94.94,0,0,1,1.22,0,4,4,0,0,1,0,5.57l-3,3.08A4.68,4.68,0,0,1,3.89,16Zm0,0" style="fill:#4d84ba"/></svg>