<svg id="图层_1" data-name="图层 1" xmlns="http://www.w3.org/2000/svg" viewBox="0 0 16 16"><title>画板 37</title><path d="M8.88,14.5a.38.38,0,0,1-.37-.37V8.5h5.63a.38.38,0,0,1,.38.38v5.25a.38.38,0,0,1-.37.38Z" style="fill:#fff"/><path d="M14,9v5H9V9h5m.13-1H8v6.13a.88.88,0,0,0,.88.88h5.25a.88.88,0,0,0,.88-.87V8.88A.88.88,0,0,0,14.13,8Z" style="fill:gray"/><circle cx="11.5" cy="11.5" r="4.5" style="fill:#4d84ba"/><polygon points="14 11 12 11 12 9 11 9 11 11 9 11 9 12 11 12 11 14 12 14 12 12 14 12 14 11" style="fill:#fff"/><path d="M.88,6.5A.38.38,0,0,1,.5,6.13V.88A.38.38,0,0,1,.88.5H6.13A.38.38,0,0,1,6.5.88V6.5Z" style="fill:#fff"/><path d="M6,1V6H1V1H6m.13-1H.88A.88.88,0,0,0,0,.88V6.13A.88.88,0,0,0,.88,7H7V.88A.88.88,0,0,0,6.13,0Z" style="fill:gray"/><path d="M.88,14.5a.38.38,0,0,1-.37-.37V8.88A.38.38,0,0,1,.88,8.5H6.5v5.63a.38.38,0,0,1-.37.38Z" style="fill:#fff"/><path d="M6,9v5H1V9H6M7,8H.88A.88.88,0,0,0,0,8.88v5.25A.88.88,0,0,0,.88,15H6.13A.88.88,0,0,0,7,14.13V8Z" style="fill:gray"/><path d="M8.5,6.5V.88A.38.38,0,0,1,8.88.5h5.25a.38.38,0,0,1,.38.38V6.13a.38.38,0,0,1-.37.38Z" style="fill:#fff"/><path d="M14,1V6H9V1h5m.13-1H8.88A.88.88,0,0,0,8,.88V7h6.13A.88.88,0,0,0,15,6.13V.88A.88.88,0,0,0,14.13,0Z" style="fill:gray"/></svg>