<svg id="图层_1" data-name="图层 1" xmlns="http://www.w3.org/2000/svg" viewBox="0 0 16 16"><title>画板 21 副本</title><polygon points="1.5 15.5 1.5 0.5 9.79 0.5 13.5 4.21 13.5 15.5 1.5 15.5" style="fill:#fff"/><path d="M9.59,1,13,4.41V15H2V1H9.59M10,0H1V16H14V4L10,0Z" style="fill:gray"/><polygon points="10 0 9 0 9 5 10 5 10 0 10 0" style="fill:gray"/><rect x="9" y="4" width="5" height="1" style="fill:#fff"/><polygon points="14 4 9 4 9 5 14 5 14 4 14 4" style="fill:gray"/><rect x="5" y="9" width="5" height="1" style="fill:#4d84ba"/><rect x="7" y="7" width="1" height="5" style="fill:#4d84ba"/></svg>