<svg id="图层_1" data-name="图层 1" xmlns="http://www.w3.org/2000/svg" viewBox="0 0 32 32"><title>画板 64 副本 5</title><polygon points="1.5 30.5 1.5 1.5 17.79 1.5 24.5 8.21 24.5 30.5 1.5 30.5" style="fill:#fff"/><path d="M17.59,2,24,8.41V30H2V2H17.59M18,1H1V31H25V8L18,1Z" style="fill:gray"/><polygon points="1.5 30.5 1.5 1.5 17.5 1.5 17.5 8.5 24.5 8.5 24.5 30.5 1.5 30.5" style="fill:#fff"/><path d="M17,2V9h7V30H2V2H17m1-1H1V31H25V8H18V1Z" style="fill:gray"/><rect x="4" y="17" width="18" height="1" style="fill:#b1b1b1"/><rect x="4" y="21" width="18" height="1" style="fill:#b1b1b1"/><rect x="4" y="25" width="18" height="1" style="fill:#b1b1b1"/><rect x="4" y="13" width="18" height="1" style="fill:#b1b1b1"/><circle cx="24" cy="24" r="7" style="fill:#4d84ba"/><polygon points="24 28 29 24 24 20 24 23 19 23 19 25 24 25 24 28" style="fill:#fff"/><rect x="4" y="6" width="10" height="3" style="fill:#de673e"/></svg>