<?xml version="1.0" standalone="no"?><!DOCTYPE svg PUBLIC "-//W3C//DTD SVG 1.1//EN" "http://www.w3.org/Graphics/SVG/1.1/DTD/svg11.dtd"><svg t="1568949044535" class="icon" viewBox="0 0 1024 1024" version="1.1" xmlns="http://www.w3.org/2000/svg" p-id="2036" xmlns:xlink="http://www.w3.org/1999/xlink" width="200" height="200"><defs><style type="text/css"></style></defs><path d="M512.010745 64.522526c-247.226684 0-447.64325 200.416566-447.64325 447.64325 0 247.229754 200.416566 447.644273 447.64325 447.644273 247.226684 0 447.642227-200.417589 447.642227-447.644273S759.237429 64.522526 512.010745 64.522526zM767.923252 741.054813c0 14.019295-16.480346 25.382087-30.498618 25.382087-0.49528 0-2.012843-0.019443-2.50096-0.047072-0.538259 0.032746 5.057179 0.056282 4.510734 0.056282L279.880897 766.44611c-14.017248 0-25.381064-11.362792-25.381064-25.381064l0-0.007163 0-0.00307L254.499833 283.266505c0-14.017248 11.363815-25.382087 25.381064-25.382087 0.591471 0 1.172709 0.028653 1.7519 0.069585 0.002047 0 0.005117 0 0.007163 0 0.579191-0.040932 1.163499-0.069585 1.7519-0.069585l381.385197 0c13.794168 0 25.572422 16.867156 26.031886 30.65416 0.479931 14.413268-11.06194 30.343075-25.368784 30.343075L334.974679 318.881654c-7.930623 0-14.360056 6.429433-14.360056 14.363126l0 357.319082c0 7.655354 6.205329 13.864776 13.863752 13.864776l353.11534 0c8.417717 0 15.239076-6.822382 15.239076-15.239076l0-151.899572c0-14.017248 19.550265-25.381064 33.568537-25.381064s31.521924 11.363815 31.521924 25.381064L767.923252 741.054813zM532.851399 620.638279c-11.326976 11.326976-29.693276 11.328-41.021276 0l-4.839215-4.839215c-11.326976-11.325953-11.326976-29.694299 0-41.020252l286.027385-286.028409c11.326976-11.326976 29.694299-11.326976 41.021276 0l4.839215 4.839215c11.329023 11.329023 11.326976 29.694299 0 41.021276L532.851399 620.638279z" p-id="2037"></path></svg>