<svg id="图层_1" data-name="图层 1" xmlns="http://www.w3.org/2000/svg" viewBox="0 0 32 32"><title>画板 9</title><rect x="1.5" y="2.5" width="29" height="27" rx="0.47" ry="0.47" style="fill:#fff"/><path d="M30,3l0,26L2,29,2,3H30m0-1H2A1,1,0,0,0,1,3V29a1,1,0,0,0,1,1H30a1,1,0,0,0,1-1V3a1,1,0,0,0-1-1Z" style="fill:gray"/><rect x="1" y="8" width="30" height="1" style="fill:#fff"/><polygon points="31 8 1 8 1 9 31 9 31 8 31 8" style="fill:gray"/><circle cx="4.5" cy="5.5" r="1.5" style="fill:#eec97f"/><circle cx="8.5" cy="5.5" r="1.5" style="fill:#5da58e"/><circle cx="12.5" cy="5.5" r="1.5" style="fill:#de673e"/><path d="M11.24,23.17a.73.73,0,0,1-.5-.2L7.28,19.66a.9.9,0,0,1,0-1.31L10.74,15a.73.73,0,0,1,1,0,.69.69,0,0,1,0,1L8.65,19l3.09,3a.69.69,0,0,1,0,1,.73.73,0,0,1-.51.21Zm9.51,0a.73.73,0,0,1-.51-.21.69.69,0,0,1,0-1l3.09-3-3.09-3a.69.69,0,0,1,0-1,.73.73,0,0,1,1,0l3.46,3.32a.9.9,0,0,1,0,1.31L21.26,23a.73.73,0,0,1-.5.2Zm3-3.83h0ZM13.38,26a.74.74,0,0,1-.27-.05.7.7,0,0,1-.4-.92L18,12.44a.73.73,0,0,1,.94-.39.7.7,0,0,1,.4.92L14,25.56a.72.72,0,0,1-.67.44Zm0,0" style="fill:#4d84ba"/></svg>