<?xml version="1.0" standalone="no"?><!DOCTYPE svg PUBLIC "-//W3C//DTD SVG 1.1//EN" "http://www.w3.org/Graphics/SVG/1.1/DTD/svg11.dtd"><svg t="1564622431862" class="icon" viewBox="0 0 1024 1024" version="1.1" xmlns="http://www.w3.org/2000/svg" p-id="1824" xmlns:xlink="http://www.w3.org/1999/xlink" width="200" height="200"><defs><style type="text/css"></style></defs><path d="M512.285938 363.369597c-81.091924 0-147.200715 66.566291-147.200715 148.45884 0 81.89255 65.994415 148.458841 147.200715 148.458841 81.091924 0 147.200715-66.566291 147.200715-148.458841-0.114375-81.89255-66.10879-148.458841-147.200715-148.45884z m0 242.360773c-51.011281 0-92.529431-42.090026-92.529432-93.901933s41.51815-93.901932 92.529432-93.901932c51.011281 0 92.529431 42.090026 92.529431 93.901932s-41.51815 93.901932-92.529431 93.901933z m376.75148-95.617559c0-0.68625 0.114375-1.372501 0-2.058751-4.918128-46.207528-168.360103-268.209539-376.75148-268.209539S140.338211 461.846532 135.534458 508.05406c-0.114375 0.68625 0 1.372501 0 2.173126V513.772814c0 0.68625-0.114375 1.372501 0 2.058751C140.338211 561.810343 303.780185 783.812353 512.285938 783.812353c208.391377 0 371.947727-222.00201 376.75148-268.209538 0.114375-0.68625 0-1.372501 0-2.173127v-1.601251c0-0.4575 0.114375-1.143751 0-1.715626zM512.285938 729.255445c-170.304479 0-308.355188-177.166983-321.851447-217.427008 13.496258-40.260025 151.432592-217.427008 321.851447-217.427007 170.304479 0 308.240813 177.166983 321.851446 217.427007-13.610633 40.260025-151.546967 217.427008-321.851446 217.427008z m0-729.255445C230.008265 0 0.4575 229.550765 0.4575 511.828437s229.550765 511.828437 511.828438 511.828438S1024.114375 794.10611 1024.114375 511.828437 794.449235 0 512.285938 0z m0 996.321233c-267.180163 0-484.492796-217.312633-484.492796-484.492796s217.312633-484.492796 484.492796-484.492795 484.492796 217.312633 484.492795 484.492795-217.427008 484.492796-484.492795 484.492796z" fill="#1A70CC" p-id="1825"></path></svg>