<svg id="图层_1" data-name="图层 1" xmlns="http://www.w3.org/2000/svg" viewBox="0 0 16 16"><title>画板 14</title><circle cx="8" cy="8" r="7.5" style="fill:#fff"/><path d="M8,1A7,7,0,1,1,1,8,7,7,0,0,1,8,1M8,0a8,8,0,1,0,8,8A8,8,0,0,0,8,0Z" style="fill:gray"/><path d="M7.52,7.38c.08-.22,0-.33-.12-.33-.45,0-1,1.06-1.24,1.06A.17.17,0,0,1,6,8c0-.22.53-.73.69-.89A2.67,2.67,0,0,1,8.5,6.25c.52,0,1.08.32.64,1.5l-.87,2.38a2.34,2.34,0,0,0-.21.68.15.15,0,0,0,.14.17c.36,0,1-1,1.2-1a.18.18,0,0,1,.14.18A3.58,3.58,0,0,1,6.92,12c-.43,0-.74-.21-.74-.67a6.25,6.25,0,0,1,.5-1.8ZM8.17,5a1,1,0,0,1,1-1,.79.79,0,0,1,.83.83,1,1,0,0,1-1,1A.78.78,0,0,1,8.17,5Zm0,0" style="fill:#4d84ba"/></svg>