<?xml version="1.0" standalone="no"?><!DOCTYPE svg PUBLIC "-//W3C//DTD SVG 1.1//EN" "http://www.w3.org/Graphics/SVG/1.1/DTD/svg11.dtd"><svg t="1523592992744" class="icon" style="" viewBox="0 0 1101 1024" version="1.1" xmlns="http://www.w3.org/2000/svg" p-id="20149" xmlns:xlink="http://www.w3.org/1999/xlink" width="137.625" height="128"><defs><style type="text/css"></style></defs><path d="M589.418761 0.000344a510.623141 510.623141 0 0 0-271.483598 77.763363l47.139738 75.354762a422.193123 422.193123 0 1 1-172.042838 206.451405l126.279443 47.139738-83.268733-263.569627L0 286.279625l111.483759 41.634367A511.999484 511.999484 0 1 0 589.418761 0.000344z" fill="#3f81c1" p-id="20150"></path><path d="M747.698171 294.193596a375.397471 375.397471 0 0 0-154.150382-29.591368c-120.774072 0-210.924519 46.10748-210.924519 87.053676s89.806361 86.70959 210.236347 86.70959a375.741557 375.741557 0 0 0 154.838554-29.935454c34.408567-16.516112 56.085965-37.849424 56.085965-57.118222 0-19.612883-20.989226-41.634367-56.085965-57.118222zM806.192736 664.773867v-91.526789a184.429922 184.429922 0 0 1-45.075224 28.903197 407.397439 407.397439 0 0 1-167.913809 34.408567 333.763104 333.763104 0 0 1-209.892261-59.182736v92.214961c4.129028 40.258024 92.903132 84.30099 211.268604 84.30099 118.365472 0 206.451405-44.387052 211.61269-84.989161v-4.129029z" fill="#3f81c1" p-id="20151"></path><path d="M806.192736 506.150371V412.903154a184.429922 184.429922 0 0 1-45.075224 28.903196 407.397439 407.397439 0 0 1-167.913809 34.408568 333.763104 333.763104 0 0 1-209.892261-59.182736v92.214961c4.129028 40.258024 92.903132 84.30099 211.268604 84.30099 118.365472 0 206.451405-44.387052 211.61269-84.989162v-4.129028z" fill="#3f81c1" p-id="20152"></path></svg>