<svg id="图层_1" data-name="图层 1" xmlns="http://www.w3.org/2000/svg" viewBox="0 0 32 32"><title>画板 36</title><path d="M5.92,28.5A4.42,4.42,0,0,1,1.5,24.08V9.95A6.46,6.46,0,0,1,7.95,3.5h17.9A1.66,1.66,0,0,1,27.5,5.16V26.84a1.66,1.66,0,0,1-1.66,1.66Z" style="fill:#fff"/><path d="M25.84,4A1.16,1.16,0,0,1,27,5.16V26.84A1.16,1.16,0,0,1,25.84,28H5.92A3.92,3.92,0,0,1,2,24.08V9.95A6,6,0,0,1,7.95,4h17.9m0-1H7.95A7,7,0,0,0,1,9.95V24.08A4.93,4.93,0,0,0,5.92,29H25.84A2.16,2.16,0,0,0,28,26.84V5.16A2.16,2.16,0,0,0,25.84,3Z" style="fill:gray"/><path d="M7.5,23.42A4.86,4.86,0,0,0,4.55,21.5H4.33a4,4,0,0,0-2.82,1.76V5.06a3.32,3.32,0,0,1,3-3.56,3.32,3.32,0,0,1,3,3.56Z" style="fill:#fff"/><path d="M4.5,2A2.86,2.86,0,0,1,7,5.06V22.19A4.44,4.44,0,0,0,4.61,21H4.33A3.6,3.6,0,0,0,2,22V5.06A2.86,2.86,0,0,1,4.5,2m0-1A3.82,3.82,0,0,0,1,5.06V25c.1-.29,1.59-3,3.32-3H4.5C6.37,22.2,8,24.91,8,25V5.06A3.82,3.82,0,0,0,4.5,1ZM1,25s0,0,0,0H1v0Zm7,0H8Z" style="fill:gray"/><polyline points="16 4 16 12 19 15 22 12.25 22 4 16 4" style="fill:#eec97f"/><circle cx="24" cy="24" r="7" style="fill:#4d84ba"/><rect x="20" y="23" width="8" height="2" style="fill:#fff"/><rect x="20" y="23" width="8" height="2" transform="translate(0 48) rotate(-90)" style="fill:#fff"/></svg>