<svg id="图层_1" data-name="图层 1" xmlns="http://www.w3.org/2000/svg" viewBox="0 0 16 16"><title>画板 12</title><path d="M-67.07,10a.32.32,0,0,1-.23-.09l-2.15-2.15a.32.32,0,0,1,0-.45.32.32,0,0,1,.45,0l1.93,1.93,4-4a.32.32,0,0,1,.45,0,.32.32,0,0,1,0,.45l-4.21,4.21a.32.32,0,0,1-.23.09Zm289-36a.32.32,0,0,1-.23-.09l-2.15-2.15a.32.32,0,0,1,0-.45.32.32,0,0,1,.45,0l1.93,1.93,4-4a.32.32,0,0,1,.45,0,.32.32,0,0,1,0,.45l-4.21,4.21a.32.32,0,0,1-.23.09Zm-289,36" style="fill:#b1b1b1"/><polyline points="16 7 12 2 8 7 11 7 11 16 13 16 13 7 16 7" style="fill:#4d84ba"/><rect width="16" height="1" style="fill:#fff"/><polygon points="16 0 0 0 0 1 16 1 16 0 16 0" style="fill:gray"/><polygon points="2 1 1 1 1 16 2 16 2 1 2 1" style="fill:gray"/><rect x="2" y="5" width="2" height="1" style="fill:#fff"/><polygon points="4 5 2 5 2 6 4 6 4 5 4 5" style="fill:gray"/><rect x="4.5" y="4.5" width="2" height="2" style="fill:#fff"/><path d="M6,5V6H5V5H6M7,4H4V7H7V4Z" style="fill:gray"/><rect x="2" y="11" width="2" height="1" style="fill:#fff"/><polygon points="4 11 2 11 2 12 4 12 4 11 4 11" style="fill:gray"/><rect x="4.5" y="10.5" width="2" height="2" style="fill:#fff"/><path d="M6,11v1H5V11H6m1-1H4v3H7V10Z" style="fill:gray"/></svg>