<?xml version="1.0" standalone="no"?><!DOCTYPE svg PUBLIC "-//W3C//DTD SVG 1.1//EN" "http://www.w3.org/Graphics/SVG/1.1/DTD/svg11.dtd"><svg t="1569390389194" class="icon" viewBox="0 0 1024 1024" version="1.1" xmlns="http://www.w3.org/2000/svg" p-id="1777" xmlns:xlink="http://www.w3.org/1999/xlink" width="200" height="200"><defs><style type="text/css"></style></defs><path d="M876.128 158.459c4.952-4.834 4.245-10.14 2.83-13.677-1.533-3.537-4.717-7.782-11.674-7.782H157.76c-6.958 0-10.26 4.245-11.674 7.782-1.416 3.537-2.24 8.725 2.712 13.677l334.42 322.824c7.9 7.9 12.382 18.747 12.382 29.948v308.995a1 1 0 0 0 0.263 0.676l60.733 66.205a1 1 0 0 0 1.737-0.676V509.345c0-11.319 4.363-22.048 12.381-30.066l305.413-320.82zM646.334 527.474v358.957c0 49.153-39.847 89-89 89a89 89 0 0 1-65.584-28.836l-60.734-66.205a89 89 0 0 1-23.415-60.164V530.599L87.124 221.235l-0.547-0.547c-16.513-16.511-26.782-37.806-29.085-60.84-1.775-17.741 1.174-33.463 6.89-47.752 6.122-15.304 15.969-29.587 30.362-41.146C112.56 56.644 134.655 49 157.761 49h709.523c23.225 0 45.398 7.725 63.236 22.164 13.815 11.182 23.028 24.428 29.181 38.625l0.497 1.146 0.464 1.16c5.862 14.655 8.722 30.942 6.723 48.818-2.48 22.185-12.352 42.763-28.15 58.884L646.333 527.474z" p-id="1778" fill="#2c2c2c"></path></svg>