<?xml version="1.0" standalone="no"?><!DOCTYPE svg PUBLIC "-//W3C//DTD SVG 1.1//EN" "http://www.w3.org/Graphics/SVG/1.1/DTD/svg11.dtd"><svg t="1561598015110" class="icon" viewBox="0 0 1024 1024" version="1.1" xmlns="http://www.w3.org/2000/svg" p-id="2220" xmlns:xlink="http://www.w3.org/1999/xlink" width="200" height="200"><defs><style type="text/css"></style></defs><path d="M129 199v241h241V199H129z m-30-60h301c16.569 0 30 13.431 30 30v301c0 16.569-13.431 30-30 30H99c-16.569 0-30-13.431-30-30V169c0-16.569 13.431-30 30-30z" fill="#2F54EB" p-id="2221"></path><path d="M129 656v241h241V656H129z m-30-60h301c16.569 0 30 13.431 30 30v301c0 16.569-13.431 30-30 30H99c-16.569 0-30-13.431-30-30V626c0-16.569 13.431-30 30-30zM706.537 149.202L536.276 319.463l170.261 170.261 170.261-170.261-170.261-170.261z m21.213-63.64L940.438 298.25c11.715 11.716 11.715 30.71 0 42.426L727.75 553.364c-11.716 11.715-30.71 11.715-42.426 0L472.636 340.676c-11.715-11.716-11.715-30.71 0-42.426L685.324 85.562c11.716-11.715 30.71-11.715 42.426 0z" fill="#85A5FF" p-id="2222"></path><path d="M587 656v241h239V656H587z m-30-60h299c16.569 0 30 13.431 30 30v301c0 16.569-13.431 30-30 30H557c-16.569 0-30-13.431-30-30V626c0-16.569 13.431-30 30-30z" fill="#2F54EB" p-id="2223"></path></svg>