<?xml version="1.0" standalone="no"?><!DOCTYPE svg PUBLIC "-//W3C//DTD SVG 1.1//EN" "http://www.w3.org/Graphics/SVG/1.1/DTD/svg11.dtd"><svg t="1533193430979" class="icon" style="" viewBox="0 0 1024 1024" version="1.1" xmlns="http://www.w3.org/2000/svg" p-id="9854" xmlns:xlink="http://www.w3.org/1999/xlink" width="64" height="64"><defs><style type="text/css"></style></defs><path d="M512 1255.489906" p-id="9855" fill="#d81e06"></path><path d="M718.519288 688.227064 543.827304 513.637418l174.180292-174.180292c8.801119-8.801119 8.801119-23.128523 0-31.827304-8.801119-8.801119-23.128523-8.801119-31.827304 0L512 481.810114 337.819708 307.629822c-8.801119-8.801119-23.230861-8.596442-31.929642 0.102339l0.102339-0.102339c-8.801119 8.801119-8.698781 23.026184 0.102339 31.827304l174.180292 174.180292L305.58305 688.227064c-8.801119 8.801119-8.801119 23.128523 0 31.827304 8.801119 8.801119 23.128523 8.801119 31.827304 0L512 545.464721 686.691985 720.054367c8.801119 8.801119 22.923846 8.903458 31.724965 0.102339l0.102339-0.102339C727.218069 711.355587 727.218069 697.028183 718.519288 688.227064z" p-id="9856" fill="#d81e06"></path></svg>