<svg id="图层_1" data-name="图层 1" xmlns="http://www.w3.org/2000/svg" viewBox="0 0 16 16"><title>画板 39</title><rect x="0.5" y="0.5" width="13" height="13" style="fill:#fff"/><path d="M13,1V13H1V1H13m1-1H0V14H14V0Z" style="fill:gray"/><path d="M15.92,12.84A5.37,5.37,0,0,0,11.5,10a5.36,5.36,0,0,0-4.41,2.84L7,13l.09.16A5.37,5.37,0,0,0,11.5,16a5.38,5.38,0,0,0,4.42-2.84L16,13Zm-4.42,2.5" style="fill:#fff"/><path d="M12.74,12.24a.48.48,0,1,1-.48-.48l.1,0a1.53,1.53,0,1,0,.37.37.5.5,0,0,1,0,.1Z" style="fill:#4d84ba"/><path d="M15.92,12.84A5.37,5.37,0,0,0,11.5,10a5.36,5.36,0,0,0-4.41,2.84L7,13l.09.16A5.37,5.37,0,0,0,11.5,16a5.38,5.38,0,0,0,4.42-2.84L16,13ZM11.5,15.4A4.38,4.38,0,0,1,8,13a4.37,4.37,0,0,1,3.5-2.4A4.36,4.36,0,0,1,15,13a4.37,4.37,0,0,1-3.5,2.4Zm0-.06" style="fill:gray"/><path d="M10.51,3a.6.6,0,0,0-.46.23L7,9.4,4,3.23A.6.6,0,0,0,3.58,3,.54.54,0,0,0,3,3.57c0,.11,0,.11.12.23l3.23,6.86A.7.7,0,0,0,7,11a.7.7,0,0,0,.69-.34L11,3.8V3.57c.12-.34-.12-.57-.46-.57Z" style="fill:#5da58e"/></svg>