<svg id="图层_1" data-name="图层 1" xmlns="http://www.w3.org/2000/svg" viewBox="0 0 16 16"><title>画板 11</title><polygon points="0.5 15.5 0.5 0.5 4.5 0.5 4.5 11.5 15.5 11.5 15.5 15.5 0.5 15.5" style="fill:#fff"/><path d="M4,1V12H15v3H1V1H4M5,0H0V16H16V11H5V0Z" style="fill:#4d84ba"/><rect x="1" y="4" width="2" height="1" style="fill:#b1b1b1"/><rect x="1" y="2" width="2" height="1" style="fill:#b1b1b1"/><rect x="1" y="6" width="2" height="1" style="fill:#b1b1b1"/><rect x="1" y="8" width="2" height="1" style="fill:#b1b1b1"/><rect x="1" y="10" width="2" height="1" style="fill:#b1b1b1"/><rect x="1" y="12" width="2" height="1" style="fill:#b1b1b1"/><rect x="3" y="13" width="1" height="2" style="fill:#b1b1b1"/><rect x="5" y="13" width="1" height="2" style="fill:#b1b1b1"/><rect x="7" y="13" width="1" height="2" style="fill:#b1b1b1"/><rect x="9" y="13" width="1" height="2" style="fill:#b1b1b1"/><rect x="11" y="13" width="1" height="2" style="fill:#b1b1b1"/><rect x="13" y="13" width="1" height="2" style="fill:#b1b1b1"/></svg>