<?xml version="1.0" standalone="no"?><!DOCTYPE svg PUBLIC "-//W3C//DTD SVG 1.1//EN" "http://www.w3.org/Graphics/SVG/1.1/DTD/svg11.dtd"><svg t="1573693860141" class="icon" viewBox="0 0 1024 1024" version="1.1" xmlns="http://www.w3.org/2000/svg" p-id="1610" xmlns:xlink="http://www.w3.org/1999/xlink" width="200" height="200"><defs><style type="text/css"></style></defs><path d="M128 192m32 0l512 0q32 0 32 32l0 0q0 32-32 32l-512 0q-32 0-32-32l0 0q0-32 32-32Z" fill="#89ABF5" p-id="1611"></path><path d="M512 482.624m32 0l320 0q32 0 32 32l0 0q0 32-32 32l-320 0q-32 0-32-32l0 0q0-32 32-32Z" fill="#89ABF5" p-id="1612"></path><path d="M564.02096 825.216195m5.556742-31.513848l66.6809-378.166177q5.556742-31.513848 37.07059-25.957107l0 0q31.513848 5.556742 25.957106 37.07059l-66.6809 378.166177q-5.556742 31.513848-37.07059 25.957107l0 0q-31.513848-5.556742-25.957106-37.07059Z" fill="#89ABF5" p-id="1613"></path><path d="M692.02096 825.216195m5.556742-31.513848l66.6809-378.166177q5.556742-31.513848 37.07059-25.957107l0 0q31.513848 5.556742 25.957106 37.07059l-66.6809 378.166177q-5.556742 31.513848-37.07059 25.957107l0 0q-31.513848-5.556742-25.957106-37.07059Z" fill="#89ABF5" p-id="1614"></path><path d="M512 640m32 0l320 0q32 0 32 32l0 0q0 32-32 32l-320 0q-32 0-32-32l0 0q0-32 32-32Z" fill="#89ABF5" p-id="1615"></path><path d="M448 256v544a32 32 0 1 1-64 0V256h64z" fill="#89ABF5" p-id="1616"></path></svg>