<?xml version="1.0" standalone="no"?><!DOCTYPE svg PUBLIC "-//W3C//DTD SVG 1.1//EN" "http://www.w3.org/Graphics/SVG/1.1/DTD/svg11.dtd"><svg t="1545638683291" class="icon" style="" viewBox="0 0 1024 1024" version="1.1" xmlns="http://www.w3.org/2000/svg" p-id="1435" xmlns:xlink="http://www.w3.org/1999/xlink" width="200" height="200"><defs><style type="text/css"></style></defs><path d="M417.5495168 512.9240576c15.44465067-8.88558933 24.952832-25.30235733 24.952832-43.06152107 0-17.76571733-9.50818133-34.18139307-24.952832-43.06152106a50.04219733 50.04219733 0 0 0-49.88818773 0c-15.44465067 8.880128-24.94737067 25.296896-24.94737067 43.06152106 0 17.760256 9.50272 34.17593173 24.94737067 43.06152107a50.04219733 50.04219733 0 0 0 49.88818773 0zM303.20121173 795.5546112V380.7674368h565.22287787v167.06546347a216.38458027 216.38458027 0 0 1 61.40613973 39.76833706V350.16758613c0-16.89736533-13.75163733-30.59985067-30.703616-30.59985066h-99.53716906l-75.54553174-206.85564587c-5.80539733-15.876096-23.42365867-24.068096-39.35873706-18.29000533L95.85404587 308.00172373c-15.93617067 5.783552-24.15547733 23.34173867-18.35554134 39.2167424l163.36267947 447.28210774c0.278528 0.77550933 0.59528533 1.52917333 0.933888 2.26645333v29.38197333c0 16.89736533 13.746176 30.59438933 30.703616 30.59438934h324.97117867a213.96411733 213.96411733 0 0 1-24.96375467-61.1876864H303.20121173zM241.795072 350.16758613v267.97233494l-96.09106773-263.09536427 531.13869653-192.65071787 57.4029824 157.18045014H272.498688c-16.95744 0-30.703616 13.697024-30.703616 30.59329706zM783.07546453 580.15744c-91.8913024 0-166.3827968 74.23481173-166.3827968 165.80389547C616.69376 837.53478827 691.1852544 911.7696 783.07546453 911.7696c91.88037973 0 166.37733547-74.23481173 166.37733547-165.8093568 0-91.56799147-74.49695573-165.8028032-166.37733547-165.8028032z m97.38540374 175.13731413l-81.13247574 81.7823744v-0.07099733a11.5965952 11.5965952 0 0 1-8.175616 3.35872c-6.41160533 0-11.60533333-5.177344-11.60533333-11.56164267v-33.292288h-84.0105984c-0.91204267 0.229376-1.86231467 0.35498667-2.84535467 0.35498667-6.41160533 0-11.60533333-5.18280533-11.60533333-11.567104v-76.10258773c0-6.38429867 5.193728-11.56164267 11.60533333-11.56164267h86.85595307v-33.50418773c0-6.38976 5.19918933-11.56164267 11.60533333-11.56164267 3.489792 0 6.60821333 1.52917333 8.732672 3.95946667l81.06693974 81.7168384a11.51685973 11.51685973 0 0 1 4.112384 8.82551466c0 3.76832-1.80770133 7.11611733-4.603904 9.224192zM765.1688448 531.13214293l-36.69906773-36.56799573-162.07926614 161.04598187-100.91342506-60.89823574-123.33110614 100.5092864v60.9583104h224.8507392c-0.15837867-3.38602667-0.25122133-6.79389867-0.25122133-10.21815466 0.00546133-113.0430464 87.32453547-205.75791787 198.4233472-214.82919254z" fill="#1296db" p-id="1436"></path></svg>