<svg id="图层_1" data-name="图层 1" xmlns="http://www.w3.org/2000/svg" viewBox="0 0 16 16"><title>画板 24</title><rect x="7.5" y="7.5" width="5" height="5" rx="0.5" ry="0.5" style="fill:#fff"/><path d="M12,8v4H8V8h4m0-1H8A1,1,0,0,0,7,8v4a1,1,0,0,0,1,1h4a1,1,0,0,0,1-1V8a1,1,0,0,0-1-1Z" style="fill:gray"/><rect x="0.5" y="0.5" width="5" height="5" rx="0.5" ry="0.5" style="fill:#fff"/><path d="M5,1V5H1V1H5M5,0H1A1,1,0,0,0,0,1V5A1,1,0,0,0,1,6H5A1,1,0,0,0,6,5V1A1,1,0,0,0,5,0Z" style="fill:gray"/><circle cx="11.5" cy="11.5" r="4.5" style="fill:#4d84ba"/><rect x="9" y="11" width="5" height="1" style="fill:#fff"/><rect x="9" y="11" width="5" height="1" transform="translate(0 23) rotate(-90)" style="fill:#fff"/><rect x="7.5" y="0.5" width="5" height="5" rx="0.5" ry="0.5" style="fill:#fff"/><path d="M12,1V5H8V1h4m0-1H8A1,1,0,0,0,7,1V5A1,1,0,0,0,8,6h4a1,1,0,0,0,1-1V1a1,1,0,0,0-1-1Z" style="fill:gray"/><rect x="0.5" y="7.5" width="5" height="5" rx="0.5" ry="0.5" style="fill:#fff"/><path d="M5,8v4H1V8H5M5,7H1A1,1,0,0,0,0,8v4a1,1,0,0,0,1,1H5a1,1,0,0,0,1-1V8A1,1,0,0,0,5,7Z" style="fill:gray"/></svg>