<svg id="图层_1" data-name="图层 1" xmlns="http://www.w3.org/2000/svg" viewBox="0 0 32 32"><title>画板 6</title><rect x="1" y="1" width="25" height="30" rx="2" ry="2" style="fill:#fff"/><rect x="4" y="4.83" width="10" height="5.03" style="fill:#eec97f"/><path d="M25,28c0,1.1,0,2-1,2H4c-1,0-2,0-2-1V4C2,3,2,2,3,2H24c1,0,1,1,1,2V16h1V3a2,2,0,0,0-2-2H3A2,2,0,0,0,1,3V29a2,2,0,0,0,2,2H24a2,2,0,0,0,2-2V28Z" style="fill:gray"/><rect x="4" y="13" width="19" height="1" rx="0.5" ry="0.5" style="fill:#b1b1b1"/><rect x="4" y="17" width="15" height="1" rx="0.48" ry="0.48" style="fill:#b1b1b1"/><rect x="4" y="25" width="8" height="1" rx="0.5" ry="0.5" style="fill:#b1b1b1"/><polygon points="22.8 16 22.8 16 22.8 28 30 22 22.8 16" style="fill:#4d84ba"/><rect x="12" y="21" width="10.8" height="2" style="fill:#4d84ba"/><rect x="4" y="21" width="6" height="1" rx="0.5" ry="0.5" style="fill:#b1b1b1"/></svg>