<svg id="图层_1" data-name="图层 1" xmlns="http://www.w3.org/2000/svg" viewBox="0 0 16 16"><title>画板 46</title><path d="M.5,15.5v-.38c0-.69.75-1.35,1.38-1.78a13,13,0,0,1,2.89-1.42,1,1,0,0,0,.48-.4,1.19,1.19,0,0,0,.06-1l0-.11-.08-.08a4.86,4.86,0,0,1-1-1.38A4.4,4.4,0,0,1,3.83,7.5h6.31A7.37,7.37,0,0,1,8.8,10.31l-.06.08,0,.09c-.33,1.09.26,1.38.38,1.43a12.5,12.5,0,0,1,3,1.4c.64.43,1.4,1.09,1.4,1.81v.38Z" style="fill:#fff"/><path d="M9.49,8a7.23,7.23,0,0,1-1.08,2l-.12.15-.05.18c-.36,1.18.14,1.83.68,2H9a11.92,11.92,0,0,1,2.86,1.33A2.57,2.57,0,0,1,13,15H1a2.63,2.63,0,0,1,1.15-1.25A12.7,12.7,0,0,1,5,12.37a1.54,1.54,0,0,0,.69-.6,1.67,1.67,0,0,0,.1-1.44l-.07-.22-.16-.16A4.35,4.35,0,0,1,4.65,8.7,3.42,3.42,0,0,1,4.41,8H9.49m1.22-1H3.3a5.43,5.43,0,0,0,.44,2.12,5.31,5.31,0,0,0,1.1,1.52.72.72,0,0,1,0,.61.53.53,0,0,1-.22.2,13.52,13.52,0,0,0-3,1.48C.54,13.65,0,14.39,0,15.12V16H14v-.88c0-.75-.54-1.5-1.62-2.22a12.94,12.94,0,0,0-3.11-1.46c-.11,0-.25-.26-.08-.81A7.35,7.35,0,0,0,10.71,7Z" style="fill:gray"/><circle cx="11.5" cy="11.5" r="4.5" style="fill:#4d84ba"/><path d="M12,5.59a2,2,0,0,0-.32-1.25A1.06,1.06,0,0,0,11.13,4,3.66,3.66,0,0,0,8.46.74a.45.45,0,0,0-.36,0l0,0A.8.8,0,0,0,7.28,0H6.72a.8.8,0,0,0-.78.81h0l0,0a.44.44,0,0,0-.36,0A3.65,3.65,0,0,0,2.87,4a1.07,1.07,0,0,0-.55.37A2,2,0,0,0,2,5.59V6H12Zm.06,0" style="fill:gray"/><rect x="9" y="9" width="1" height="5" rx="0.5" ry="0.5" style="fill:#fff"/><rect x="11" y="10" width="1" height="4" rx="0.5" ry="0.5" style="fill:#fff"/><rect x="13" y="11" width="1" height="3" rx="0.5" ry="0.5" style="fill:#fff"/></svg>