<svg id="图层_1" data-name="图层 1" xmlns="http://www.w3.org/2000/svg" viewBox="0 0 32 32"><title>画板 10</title><polygon points="1.5 28.5 1.5 1.5 15.79 1.5 22.5 8.21 22.5 28.5 1.5 28.5" style="fill:#fff"/><path d="M15.59,2,22,8.41V28H2V2H15.59M16,1H1V29H23V8L16,1Z" style="fill:gray"/><polygon points="1.5 28.5 1.5 1.5 15.5 1.5 15.5 8.5 22.5 8.5 22.5 28.5 1.5 28.5" style="fill:#fff"/><path d="M15,2V9h7V28H2V2H15m1-1H1V29H23V8H16V1Z" style="fill:gray"/><rect x="4" y="10" width="16" height="1" style="fill:#b1b1b1"/><rect x="4" y="13" width="16" height="1" style="fill:#b1b1b1"/><rect x="4" y="16" width="16" height="1" style="fill:#b1b1b1"/><rect x="4" y="20" width="16" height="1" style="fill:#b1b1b1"/><rect x="4" y="24" width="16" height="1" style="fill:#b1b1b1"/><rect x="4" y="4" width="9" height="3" style="fill:#de673e"/><path d="M18.56,30.5c-.06-.19,0-.19,0-.19H20V28.62a4.65,4.65,0,0,1,2.21-4l.71-.43-.71-.43a4.65,4.65,0,0,1-2.21-4v-2H18.6a.15.15,0,0,1-.1-.11.11.11,0,0,1,.1-.08H30.44s.06,0,.06.1a.14.14,0,0,1-.1.09H29v2a4.63,4.63,0,0,1-2.15,4l-.71.43.71.43a4.62,4.62,0,0,1,2.15,4v1.69H30.4c.08,0,.1,0,.1.11l-.06.08Z" style="fill:#fff"/><path d="M28.49,18v1.68a4.14,4.14,0,0,1-1.91,3.62l-1.42.86,1.42.86a4.12,4.12,0,0,1,1.91,3.6V30h-8V28.62a4.15,4.15,0,0,1,2-3.61l1.42-.86-1.42-.86a4.16,4.16,0,0,1-2-3.62V18h8m1.95-1H18.6a.6.6,0,0,0-.6.58.63.63,0,0,0,.59.61h.91v1.49A5.19,5.19,0,0,0,22,24.15a5.16,5.16,0,0,0-2.45,4.46v1.19H18.6a.59.59,0,0,0-.6.61.57.57,0,0,0,.56.58H30.43a.57.57,0,0,0,.56-.58.58.58,0,0,0-.6-.61h-.91V28.62a5.11,5.11,0,0,0-2.4-4.46,5.13,5.13,0,0,0,2.4-4.48V18.19h.91a.62.62,0,0,0,.6-.6.59.59,0,0,0-.56-.6Z" style="fill:#707070"/><path d="M28.28,18.19H20.72v1.49a3.83,3.83,0,0,0,2.74,3.92.55.55,0,0,1,.19.09h0a.59.59,0,0,1,.15.68v0h0l0,0h0l-.1.13,0,0h0l0,0h0a.55.55,0,0,1-.2.09,3.81,3.81,0,0,0-2.72,3.9v1.19h7.56V28.62a3.81,3.81,0,0,0-2.75-3.9h-.07a.56.56,0,0,1-.18-.12h0a.57.57,0,0,1-.07-.11h0v0h0v0h0v0h0v0h0v0h0v0h0a.58.58,0,0,1,.42-.62,3.83,3.83,0,0,0,2.75-3.92V18.19Zm-3,4.54a1.46,1.46,0,0,0-.8.53,1.47,1.47,0,0,0-.21-.22l0,0,0,0,0,0a1.46,1.46,0,0,0-.49-.23,2.71,2.71,0,0,1-1.88-1.86h5.37a2.72,2.72,0,0,1-1.89,1.86Zm-1.1,3.35.05,0h0l0,0h0l.07-.06,0,0,0,0,0-.05v0l.08.12,0,0h0a1.15,1.15,0,0,0,.41.27h0l.06,0a2.26,2.26,0,0,1,1.63,2.42v.25H22.23v-.25a2.26,2.26,0,0,1,1.6-2.41,1.12,1.12,0,0,0,.34-.15Zm0,0" style="fill:#fed543"/></svg>