<svg id="图层_1" data-name="图层 1" xmlns="http://www.w3.org/2000/svg" viewBox="0 0 32 32"><title>画板 1</title><circle cx="5" cy="8" r="3" style="fill:#fff"/><path d="M5,6A2,2,0,1,1,3,8,2,2,0,0,1,5,6M5,4A4,4,0,1,0,9,8,4,4,0,0,0,5,4Z" style="fill:#4d84ba"/><circle cx="5" cy="24" r="3" style="fill:#fff"/><path d="M5,22a2,2,0,1,1-2,2,2,2,0,0,1,2-2m0-2a4,4,0,1,0,4,4,4,4,0,0,0-4-4Z" style="fill:#4d84ba"/><path d="M5,6a2,2,0,0,1,1,.28V2A1,1,0,0,0,4,2V6.28A2,2,0,0,1,5,6Z" style="fill:#4d84ba"/><path d="M5,22a2,2,0,0,1,1,.28V9.72a1.94,1.94,0,0,1-2,0V22.28A2,2,0,0,1,5,22Z" style="fill:#4d84ba"/><path d="M5,26a2,2,0,0,1-1-.28V30a1,1,0,0,0,2,0V25.72A2,2,0,0,1,5,26Z" style="fill:#4d84ba"/><rect x="11" y="5" width="20" height="2" rx="1" ry="1" style="fill:#fff"/><path d="M30,5H12a1,1,0,0,0,0,2H30a1,1,0,0,0,0-2Z" style="fill:#4d84ba"/><rect x="11" y="9" width="11" height="2" rx="1" ry="1" style="fill:#fff"/><path d="M21,9H12a1,1,0,0,0,0,2h9a1,1,0,0,0,0-2Z" style="fill:#4d84ba"/><rect x="11" y="21" width="20" height="2" rx="1" ry="1" style="fill:#fff"/><path d="M30,21H12a1,1,0,0,0,0,2H30a1,1,0,0,0,0-2Z" style="fill:#4d84ba"/><rect x="11" y="25" width="11" height="2" rx="1" ry="1" style="fill:#fff"/><path d="M21,25H12a1,1,0,0,0,0,2h9a1,1,0,0,0,0-2Z" style="fill:#4d84ba"/></svg>