<svg id="图层_1" data-name="图层 1" xmlns="http://www.w3.org/2000/svg" viewBox="0 0 32 32"><title>画板 39</title><path d="M30.13,17.29,16.55,22.85h0a1.4,1.4,0,0,1-1.07,0h0L1.87,17.29a1.39,1.39,0,0,1,.54-2.68,1.42,1.42,0,0,1,.54.11H3l13,5.35,13-5.35h0a1.42,1.42,0,0,1,.54-.11,1.39,1.39,0,0,1,.54,2.68Zm0-6L16.55,16.82h0a1.4,1.4,0,0,1-1.07,0h0L1.87,11.25a1.39,1.39,0,0,1,0-2.57h0L15.45,3.11h0A1.44,1.44,0,0,1,16,3a1.42,1.42,0,0,1,.54.11h0L30.13,8.68h0a1.39,1.39,0,0,1,0,2.57ZM2.41,20.64a1.42,1.42,0,0,1,.54.11H3L16,26.1l13-5.35h0a1.42,1.42,0,0,1,.54-.11,1.39,1.39,0,0,1,.54,2.68L16.55,28.89h0a1.42,1.42,0,0,1-1.07,0h0L1.87,23.32a1.39,1.39,0,0,1,.54-2.68Zm0,0" style="fill:#4d84ba"/></svg>