<svg id="图层_1" data-name="图层 1" xmlns="http://www.w3.org/2000/svg" viewBox="0 0 16 16"><title>画板 28 副本 2</title><rect x="0.5" y="-0.5" width="13" height="15" rx="0.71" ry="0.71" style="fill:#fff"/><path d="M12.79,0A.21.21,0,0,1,13,.21V13.79a.21.21,0,0,1-.21.21H1.21A.21.21,0,0,1,1,13.79V.21A.21.21,0,0,1,1.21,0H12.79m0-1H1.21A1.21,1.21,0,0,0,0,.21V13.79A1.21,1.21,0,0,0,1.21,15H12.79A1.21,1.21,0,0,0,14,13.79V.21A1.21,1.21,0,0,0,12.79-1Z" style="fill:gray"/><circle cx="3" cy="2" r="0.5" style="fill:#fff"/><path d="M3,1A1,1,0,1,0,4,2,1,1,0,0,0,3,1Z" style="fill:gray"/><circle cx="3" cy="7" r="0.5" style="fill:#fff"/><path d="M3,6A1,1,0,1,0,4,7,1,1,0,0,0,3,6Z" style="fill:gray"/><circle cx="3" cy="12" r="0.5" style="fill:#fff"/><path d="M3,11a1,1,0,1,0,1,1,1,1,0,0,0-1-1Z" style="fill:gray"/><rect x="1" y="4" width="12" height="1" style="fill:#fff"/><polygon points="13 4 1 4 1 5 13 5 13 4 13 4" style="fill:gray"/><rect x="1" y="9" width="12" height="1" style="fill:#fff"/><polygon points="13 9 1 9 1 10 13 10 13 9 13 9" style="fill:gray"/><circle cx="11.5" cy="10.5" r="4.5" style="fill:#de673e"/><polygon points="14.33 8.38 13.62 7.67 11.5 9.79 9.38 7.67 8.67 8.38 10.79 10.5 8.67 12.62 9.38 13.33 11.5 11.21 13.62 13.33 14.33 12.62 12.21 10.5 14.33 8.38" style="fill:#fff"/></svg>