<svg id="图层_1" data-name="图层 1" xmlns="http://www.w3.org/2000/svg" viewBox="0 0 16 16"><title>画板 48</title><rect x="0.5" y="0.5" width="15" height="15" style="fill:#fff"/><path d="M15,1V15H1V1H15m1-1H0V16H16V0Z" style="fill:gray"/><polygon points="3.76 4.47 5.66 6.33 6.33 5.67 4.44 3.81 6.33 3.81 6.33 3 3 3 3 6.33 3.76 6.33 3.76 4.47" style="fill:#4d84ba"/><polygon points="9.67 3 9.67 3.81 11.56 3.81 5.66 9.67 5.66 9.67 3.76 11.53 3.76 9.67 3 9.67 3 13 6.33 13 6.33 12.19 4.44 12.19 5.88 10.77 5.88 10.78 6.16 10.5 6.33 10.33 6.33 10.33 10.34 6.33 12.24 4.47 12.24 6.33 13 6.33 13 3 9.67 3" style="fill:#4d84ba"/><polygon points="12.24 11.53 10.34 9.67 9.67 10.33 11.56 12.19 9.67 12.19 9.67 13 13 13 13 9.67 12.24 9.67 12.24 11.53" style="fill:#4d84ba"/></svg>