<svg id="图层_1" data-name="图层 1" xmlns="http://www.w3.org/2000/svg" viewBox="0 0 16 16"><title>画板 7</title><rect width="16" height="15" style="fill:#fff"/><rect x="3" y="2" width="3" height="3" style="fill:#eec97f"/><rect x="7" y="3" width="6" height="1" style="fill:#4d84ba"/><rect x="3" y="10" width="3" height="3" style="fill:#eec97f"/><rect x="7" y="11" width="6" height="1" style="fill:#4d84ba"/><rect x="1" y="7" width="14" height="1" style="fill:gray"/><polygon points="1 0 0 0 0 5 1 5 1 0 1 0" style="fill:gray"/><rect x="1" width="4" height="1" style="fill:#fff"/><polygon points="5 0 1 0 1 1 5 1 5 0 5 0" style="fill:gray"/><rect x="1" y="14" width="4" height="1" style="fill:#fff"/><polygon points="5 14 1 14 1 15 5 15 5 14 5 14" style="fill:gray"/><rect x="11" y="14" width="4" height="1" style="fill:#fff"/><polygon points="15 14 11 14 11 15 15 15 15 14 15 14" style="fill:gray"/><rect x="11" width="4" height="1" style="fill:#fff"/><polygon points="15 0 11 0 11 1 15 1 15 0 15 0" style="fill:gray"/><polygon points="16 0 15 0 15 5 16 5 16 0 16 0" style="fill:gray"/><polygon points="1 10 0 10 0 15 1 15 1 10 1 10" style="fill:gray"/><polygon points="16 10 15 10 15 15 16 15 16 10 16 10" style="fill:gray"/></svg>