<?xml version="1.0" standalone="no"?><!DOCTYPE svg PUBLIC "-//W3C//DTD SVG 1.1//EN" "http://www.w3.org/Graphics/SVG/1.1/DTD/svg11.dtd"><svg t="1523581698552" class="icon" style="" viewBox="0 0 1024 1024" version="1.1" xmlns="http://www.w3.org/2000/svg" p-id="11101" xmlns:xlink="http://www.w3.org/1999/xlink" width="128" height="128"><defs><style type="text/css"></style></defs><path d="M284.033473 955.586864 284.033473 751.872183 81.459778 751.872183 284.033473 955.586864 284.033473 955.586864zM803.148521 662.753469 803.148521 509.979994l-101.287871 0 0 152.773476L549.927309 662.753469l0 101.855806 151.933341 0 0 140.055826 101.287871 0L803.148521 764.610298 942.427658 764.610298l0-101.855806L803.148521 662.754492 803.148521 662.753469zM651.21825 815.534108l-75.968206 0c-34.960233 0-63.307861-28.507264-63.307861-63.661925l0-76.385714c0-35.157731 28.347628-63.657832 63.307861-63.657832l75.968206 0 0-76.396971c0-35.143405 28.331255-63.641459 63.297628-63.641459 4.336772 0 8.571213 0.437975 12.666484 1.278109L727.182362 77.093842c0-7.03216-5.674233-12.737092-12.666484-12.737092L119.450021 64.35675c-6.992251 0-12.667507 5.705955-12.667507 12.737092l0 636.5906c0-7.03216 5.675256 0 12.667507 0l189.921537 0c6.976902 0 12.653181 5.690606 12.653181 12.727882l0 190.975543c0 7.03216 6.992251 12.737092 0 12.737092l334.472747 0c-3.390213-7.79657-5.279237-16.403598-5.279237-25.459858L651.21825 815.534108 651.21825 815.534108zM167.557692 150.451594c0-7.930623 6.418176-14.350846 14.347776-14.350846l473.529827 0c7.93267 0 14.347776 6.421246 14.347776 14.350846l0 14.34573c0 7.93574-6.41613 14.351869-14.347776 14.351869L181.905468 179.149193c-7.9296 0-14.347776-6.41613-14.347776-14.351869L167.557692 150.451594 167.557692 150.451594zM167.557692 250.891144c0-7.9296 6.418176-14.346753 14.347776-14.346753l473.529827 0c7.93267 0 14.347776 6.417153 14.347776 14.346753l0 14.350846c0 7.931646-6.41613 14.347776-14.347776 14.347776L181.905468 279.589766c-7.9296 0-14.347776-6.41613-14.347776-14.347776L167.557692 250.891144 167.557692 250.891144zM167.557692 351.336834c0-7.930623 6.418176-14.351869 14.347776-14.351869l473.529827 0c7.93267 0 14.347776 6.421246 14.347776 14.351869l0 14.350846c0 7.931646-6.41613 14.346753-14.347776 14.346753L181.905468 380.034433c-7.9296 0-14.347776-6.415107-14.347776-14.346753L167.557692 351.336834 167.557692 351.336834zM454.548008 466.128253c0 7.930623-3.672646 14.351869-8.198729 14.351869L175.755398 480.480122c-4.52506 0-8.198729-6.420223-8.198729-14.351869l0-14.346753c0-7.931646 3.672646-14.352893 8.198729-14.352893l270.593881 0c4.52506 0 8.198729 6.417153 8.198729 14.352893L454.548008 466.128253 454.548008 466.128253zM454.548008 466.128253" p-id="11102" fill="#3f81c1"></path></svg>