<svg id="图层_1" data-name="图层 1" xmlns="http://www.w3.org/2000/svg" viewBox="0 0 32 32"><title>画板 6</title><rect x="1.5" y="1.5" width="29" height="29" rx="1.5" ry="1.5" style="fill:#fff"/><path d="M29,2a1,1,0,0,1,1,1V29a1,1,0,0,1-1,1H3a1,1,0,0,1-1-1V3A1,1,0,0,1,3,2H29m0-1H3A2,2,0,0,0,1,3V29a2,2,0,0,0,2,2H29a2,2,0,0,0,2-2V3a2,2,0,0,0-2-2Z" style="fill:gray"/><path d="M24.58,15H17V12h2.13a.88.88,0,0,0,.88-.87V5.88A.88.88,0,0,0,19.13,5H13.88a.88.88,0,0,0-.87.88v5.25a.88.88,0,0,0,.88.88H16v3H8.42a.42.42,0,0,0-.42.42v5.13a.45.45,0,0,0,.45.45h.09A.45.45,0,0,0,9,20.55V16h7v4.08a.42.42,0,0,0,.42.42h.15a.42.42,0,0,0,.42-.42V16h7v4.55a.45.45,0,0,0,.45.45h.09a.45.45,0,0,0,.45-.45V15.42A.42.42,0,0,0,24.58,15Z" style="fill:#4d84ba"/><rect x="5" y="20" width="7" height="7" rx="0.87" ry="0.87" style="fill:#5da58e"/><rect x="13" y="20" width="7" height="7" rx="0.87" ry="0.87" style="fill:#eec97f"/><path d="M21.87,20h5.25a.88.88,0,0,1,.88.88v5.25a.87.87,0,0,1-.87.87H21.87a.87.87,0,0,1-.87-.87V20.87A.87.87,0,0,1,21.87,20Z" style="fill:#5da58e"/></svg>