<?xml version="1.0" standalone="no"?><!DOCTYPE svg PUBLIC "-//W3C//DTD SVG 1.1//EN" "http://www.w3.org/Graphics/SVG/1.1/DTD/svg11.dtd"><svg t="1571128118467" class="icon" viewBox="0 0 1024 1024" version="1.1" xmlns="http://www.w3.org/2000/svg" p-id="46599" xmlns:xlink="http://www.w3.org/1999/xlink" width="200" height="200"><defs><style type="text/css"></style></defs><path d="M592.457143 106.057143c0-3.657143 0-3.657143 0 0-3.657143-10.971429-3.657143-14.628571-10.971429-21.942857-7.314286-10.971429-14.628571-18.285714-25.6-25.6-10.971429-7.314286-21.942857-7.314286-36.571428-7.314286-32.914286 0-58.514286 21.942857-69.485715 51.2-3.657143 7.314286-3.657143 14.628571-3.657142 21.942857 0 3.657143 0 10.971429 3.657142 14.628572 0 3.657143 3.657143 10.971429 3.657143 14.628571 0 3.657143 3.657143 10.971429 7.314286 14.628571 3.657143 7.314286 10.971429 10.971429 14.628571 14.628572 3.657143 3.657143 7.314286 7.314286 14.628572 7.314286 7.314286 3.657143 18.285714 7.314286 29.257143 7.314285 32.914286 0 62.171429-21.942857 69.485714-54.857143v-3.657142-14.628572c3.657143-7.314286 3.657143-14.628571 3.657143-18.285714z m-73.142857 54.857143H512c-3.657143 0-3.657143 0-7.314286-3.657143-7.314286-3.657143-14.628571-10.971429-18.285714-18.285714 0 0 0-3.657143-3.657143-7.314286v-3.657143-3.657143c0-7.314286 3.657143-14.628571 7.314286-21.942857 7.314286-7.314286 18.285714-14.628571 29.257143-14.628571h3.657143c10.971429 0 18.285714 7.314286 25.6 14.628571v3.657143s0 3.657143 3.657142 3.657143c0 3.657143 3.657143 7.314286 3.657143 14.628571s0 10.971429-3.657143 14.628572v3.657142c-7.314286 10.971429-18.285714 18.285714-32.914285 18.285715zM954.514286 95.085714c0-7.314286-3.657143-10.971429-7.314286-18.285714-7.314286-10.971429-14.628571-18.285714-25.6-25.6-10.971429-7.314286-21.942857-7.314286-36.571429-7.314286-32.914286 0-58.514286 21.942857-69.485714 51.2 0 3.657143 0 7.314286-3.657143 10.971429v10.971428c0 3.657143 0 10.971429 3.657143 14.628572 0 3.657143 0 7.314286 3.657143 10.971428 3.657143 7.314286 7.314286 10.971429 10.971429 18.285715 3.657143 10.971429 10.971429 18.285714 21.942857 21.942857h3.657143c7.314286 3.657143 18.285714 7.314286 29.257142 7.314286h3.657143c32.914286-3.657143 58.514286-25.6 65.828572-58.514286v-14.628572c3.657143-7.314286 0-14.628571 0-21.942857z m-36.571429 36.571429c-3.657143 10.971429-14.628571 18.285714-29.257143 21.942857H877.714286c-10.971429-3.657143-18.285714-10.971429-25.6-18.285714 0 0-3.657143-3.657143-3.657143-7.314286s-3.657143-7.314286-3.657143-10.971429c0-3.657143 0-7.314286 3.657143-10.971428 0-3.657143 3.657143-7.314286 3.657143-10.971429 7.314286-7.314286 18.285714-14.628571 29.257143-14.628571h3.657142c10.971429 0 18.285714 7.314286 25.6 14.628571 0 3.657143 3.657143 3.657143 3.657143 7.314286s3.657143 7.314286 3.657143 14.628571c3.657143 3.657143 0 10.971429 0 14.628572zM932.571429 515.657143c0-7.314286-3.657143-10.971429-7.314286-18.285714-7.314286-10.971429-14.628571-18.285714-25.6-25.6-3.657143 0-7.314286-3.657143-7.314286-3.657143-7.314286-3.657143-18.285714-3.657143-25.6-3.657143h-10.971428c-29.257143 3.657143-51.2 25.6-58.514286 51.2 0 3.657143-3.657143 7.314286-3.657143 10.971428v10.971429c0 3.657143 0 10.971429 3.657143 14.628571 0 3.657143 0 7.314286 3.657143 10.971429 3.657143 7.314286 7.314286 10.971429 10.971428 18.285714 7.314286 10.971429 18.285714 18.285714 29.257143 21.942857 7.314286 3.657143 18.285714 7.314286 29.257143 7.314286 36.571429 0 65.828571-25.6 73.142857-58.514286v-14.628571c-7.314286-7.314286-7.314286-14.628571-10.971428-21.942857z m-36.571429 36.571428c0 3.657143-3.657143 7.314286-7.314286 10.971429-7.314286 7.314286-14.628571 10.971429-25.6 10.971429h-7.314285c-7.314286 0-10.971429-3.657143-18.285715-10.971429-3.657143-3.657143-7.314286-7.314286-7.314285-10.971429 0 0 0-3.657143-3.657143-7.314285v-10.971429c0-3.657143 0-7.314286 3.657143-10.971428 0-3.657143 3.657143-7.314286 3.657142-10.971429 3.657143-7.314286 10.971429-10.971429 18.285715-14.628571h14.628571c7.314286 0 14.628571 3.657143 21.942857 10.971428l3.657143 3.657143c0 3.657143 3.657143 3.657143 3.657143 7.314286s3.657143 7.314286 3.657143 14.628571 0 14.628571-3.657143 18.285714z" fill="" p-id="46600"></path><path d="M885.028571 153.6H877.714286c-10.971429-3.657143-18.285714-10.971429-25.6-18.285714 0 0-3.657143-3.657143-3.657143-7.314286s-3.657143-7.314286-3.657143-10.971429c0-3.657143 0-7.314286 3.657143-10.971428h-296.228572s0 3.657143 3.657143 3.657143c0 3.657143 3.657143 7.314286 3.657143 14.628571s0 10.971429-3.657143 14.628572v3.657142h299.885715v358.4h14.628571c7.314286 0 14.628571 3.657143 21.942857 10.971429V153.6h-7.314286z m-365.714285 438.857143H512c-3.657143 0-10.971429-3.657143-14.628571-7.314286V866.742857c3.657143-3.657143 10.971429-3.657143 14.628571-3.657143h3.657143c7.314286 0 10.971429 3.657143 18.285714 7.314286v-277.942857h-14.628571z m-32.914286-453.485714s0-3.657143-3.657143-7.314286v-3.657143l-29.257143 25.6-266.971428 237.714286-36.571429 32.914285H160.914286c10.971429 0 18.285714 7.314286 25.6 14.628572l25.6-25.6L479.085714 182.857143l29.257143-25.6c-10.971429-3.657143-18.285714-10.971429-21.942857-18.285714z m-336.457143 354.742857c-10.971429-3.657143-18.285714-7.314286-21.942857-18.285715v394.971429c7.314286-3.657143 14.628571-7.314286 21.942857-7.314286h3.657143c3.657143 0 7.314286 0 7.314286 3.657143V493.714286h-7.314286-3.657143z m329.142857 420.571428s0-3.657143-3.657143-7.314285v-10.971429c0-3.657143 0-7.314286 3.657143-10.971429h-292.571428v10.971429c0 3.657143 0 10.971429-3.657143 14.628571 0 3.657143-3.657143 7.314286-7.314286 10.971429h310.857143c-3.657143 0-3.657143-3.657143-7.314286-7.314286z m351.085715-362.057143s0-3.657143-3.657143-7.314285v-10.971429c0-3.657143 0-7.314286 3.657143-10.971428H548.571429c3.657143 0 3.657143 3.657143 7.314285 7.314285 0 3.657143 3.657143 3.657143 3.657143 7.314286s3.657143 7.314286 3.657143 14.628571v7.314286h281.6c-10.971429 0-14.628571-3.657143-14.628571-7.314286z" fill="" p-id="46601"></path><path d="M588.8 533.942857c0-3.657143 0-3.657143-3.657143-7.314286 0-3.657143-3.657143-7.314286-7.314286-10.971428-7.314286-10.971429-14.628571-18.285714-25.6-25.6-10.971429-3.657143-21.942857-7.314286-36.571428-10.971429-32.914286 0-58.514286 21.942857-69.485714 51.2-3.657143 7.314286-3.657143 14.628571-3.657143 21.942857 0 3.657143 0 10.971429 3.657143 14.628572 3.657143 10.971429 7.314286 18.285714 14.628571 29.257143 7.314286 10.971429 18.285714 18.285714 29.257143 21.942857 3.657143 0 3.657143 0 7.314286 3.657143 7.314286 3.657143 14.628571 3.657143 21.942857 3.657143h14.628571c29.257143-7.314286 51.2-29.257143 58.514286-54.857143v-7.314286-7.314286c0-7.314286 0-14.628571-3.657143-21.942857z m-36.571429 36.571429c-3.657143 7.314286-10.971429 14.628571-18.285714 18.285714-3.657143 3.657143-10.971429 3.657143-14.628571 3.657143H512c-3.657143 0-10.971429-3.657143-14.628571-7.314286-3.657143-3.657143-7.314286-7.314286-10.971429-14.628571 0-3.657143 0-3.657143-3.657143-7.314286 0-3.657143-3.657143-7.314286-3.657143-10.971429 0-7.314286 3.657143-14.628571 7.314286-21.942857 7.314286-7.314286 18.285714-14.628571 29.257143-14.628571h3.657143c7.314286 0 14.628571 3.657143 18.285714 7.314286 3.657143 0 3.657143 3.657143 7.314286 7.314285 0 3.657143 3.657143 3.657143 3.657143 7.314286s3.657143 7.314286 3.657142 14.628571v7.314286c3.657143 7.314286 3.657143 7.314286 0 10.971429zM581.485714 877.714286c0-7.314286-3.657143-10.971429-7.314285-18.285715-7.314286-10.971429-14.628571-18.285714-25.6-25.6-3.657143-3.657143-7.314286-3.657143-14.628572-7.314285s-14.628571-3.657143-21.942857-3.657143h-14.628571c-25.6 3.657143-47.542857 25.6-54.857143 51.2 0 3.657143-3.657143 7.314286-3.657143 10.971428v10.971429c0 3.657143 0 10.971429 3.657143 14.628571 0 3.657143 0 7.314286 3.657143 10.971429 3.657143 7.314286 3.657143 10.971429 10.971428 18.285714 7.314286 10.971429 18.285714 18.285714 29.257143 21.942857 7.314286 3.657143 18.285714 7.314286 29.257143 7.314286 36.571429 0 65.828571-25.6 73.142857-58.514286v-14.628571c-3.657143-3.657143-3.657143-10.971429-7.314286-18.285714z m-36.571428 36.571428c-7.314286 14.628571-18.285714 21.942857-32.914286 21.942857h-7.314286c-7.314286 0-10.971429-3.657143-18.285714-10.971428-3.657143-3.657143-7.314286-7.314286-7.314286-10.971429 0 0 0-3.657143-3.657143-7.314285v-10.971429c0-3.657143 0-7.314286 3.657143-10.971429 0-3.657143 3.657143-7.314286 3.657143-10.971428 3.657143-3.657143 7.314286-10.971429 14.628572-10.971429 3.657143-3.657143 10.971429-3.657143 14.628571-3.657143h3.657143c7.314286 0 10.971429 3.657143 18.285714 7.314286 3.657143 3.657143 7.314286 3.657143 7.314286 7.314286s3.657143 3.657143 3.657143 7.314286 3.657143 7.314286 3.657143 14.628571 0 14.628571-3.657143 18.285714zM223.085714 888.685714c0-3.657143 0-7.314286-3.657143-10.971428 0-7.314286-3.657143-10.971429-7.314285-18.285715-7.314286-10.971429-14.628571-18.285714-25.6-25.6-7.314286-3.657143-14.628571-7.314286-21.942857-7.314285h-14.628572c-7.314286 0-14.628571 0-21.942857 3.657143-21.942857 7.314286-40.228571 25.6-47.542857 47.542857-3.657143 7.314286-3.657143 14.628571-3.657143 21.942857 0 3.657143 0 10.971429 3.657143 14.628571 3.657143 10.971429 7.314286 18.285714 14.628571 29.257143 7.314286 7.314286 14.628571 18.285714 29.257143 21.942857 7.314286 3.657143 18.285714 7.314286 29.257143 7.314286 29.257143 0 58.514286-21.942857 65.828571-47.542857 0-3.657143 3.657143-7.314286 3.657143-10.971429v-14.628571c3.657143-3.657143 3.657143-7.314286 0-10.971429z m-69.485714 47.542857H146.285714c-10.971429-3.657143-18.285714-10.971429-25.6-18.285714 0 0-3.657143-3.657143-3.657143-7.314286s-3.657143-7.314286-3.657142-10.971428c0-7.314286 3.657143-14.628571 7.314285-21.942857 0-3.657143 3.657143-3.657143 7.314286-7.314286 7.314286-3.657143 14.628571-7.314286 21.942857-7.314286h3.657143c3.657143 0 7.314286 0 7.314286 3.657143 10.971429 0 18.285714 3.657143 21.942857 10.971429 0 3.657143 3.657143 3.657143 3.657143 7.314285v14.628572c0 3.657143 0 10.971429-3.657143 14.628571 0 3.657143-3.657143 7.314286-7.314286 10.971429-3.657143 7.314286-14.628571 10.971429-21.942857 10.971428zM230.4 438.857143c-3.657143-7.314286-3.657143-10.971429-7.314286-18.285714l-3.657143-3.657143-21.942857-21.942857s-3.657143-3.657143-7.314285-3.657143c-7.314286-3.657143-18.285714-7.314286-29.257143-7.314286-32.914286 0-58.514286 21.942857-69.485715 51.2-3.657143 7.314286-3.657143 14.628571-3.657142 21.942857 0 3.657143 0 10.971429 3.657142 14.628572 3.657143 10.971429 7.314286 18.285714 14.628572 29.257142 7.314286 10.971429 14.628571 18.285714 29.257143 21.942858 7.314286 3.657143 18.285714 7.314286 29.257143 7.314285h7.314285c32.914286-3.657143 58.514286-25.6 65.828572-58.514285v-14.628572c-7.314286-7.314286-7.314286-10.971429-7.314286-18.285714z m-36.571429 36.571428c-3.657143 10.971429-14.628571 18.285714-25.6 21.942858h-14.628571c-10.971429-3.657143-18.285714-7.314286-21.942857-18.285715 0 0 0-3.657143-3.657143-3.657143 0 0-3.657143-3.657143-3.657143-7.314285s-3.657143-7.314286-3.657143-10.971429c0-7.314286 3.657143-14.628571 7.314286-21.942857 3.657143-7.314286 14.628571-10.971429 21.942857-14.628571H160.914286c10.971429 0 18.285714 7.314286 25.6 14.628571 0 0 3.657143 3.657143 3.657143 7.314286s3.657143 7.314286 3.657142 14.628571v18.285714z" fill="" p-id="46602"></path></svg>