<?xml version="1.0" standalone="no"?><!DOCTYPE svg PUBLIC "-//W3C//DTD SVG 1.1//EN" "http://www.w3.org/Graphics/SVG/1.1/DTD/svg11.dtd"><svg t="1548228261986" class="icon" style="" viewBox="0 0 1024 1024" version="1.1" xmlns="http://www.w3.org/2000/svg" p-id="2781" xmlns:xlink="http://www.w3.org/1999/xlink" width="64" height="64"><defs><style type="text/css"></style></defs><path d="M981.333333 80.64a42.666667 42.666667 0 0 0-42.666666 42.666667v106.666666A512 512 0 0 0 0 512a42.666667 42.666667 0 0 0 85.333333 0 426.666667 426.666667 0 0 1 793.386667-218.026667H768a42.666667 42.666667 0 1 0 0 85.333334h213.333333a42.666667 42.666667 0 0 0 42.666667-42.666667v-213.333333a42.666667 42.666667 0 0 0-42.666667-42.666667zM981.333333 469.333333a42.666667 42.666667 0 0 0-42.666666 42.666667A426.666667 426.666667 0 0 1 145.28 730.026667H256a42.666667 42.666667 0 0 0 0-85.333334H42.666667a42.666667 42.666667 0 0 0-42.666667 42.666667v213.333333a42.666667 42.666667 0 0 0 85.333333 0v-106.666666A512 512 0 0 0 1024 512a42.666667 42.666667 0 0 0-42.666667-42.666667z" fill="#1296db" p-id="2782"></path></svg>