<?xml version="1.0" standalone="no"?><!DOCTYPE svg PUBLIC "-//W3C//DTD SVG 1.1//EN" "http://www.w3.org/Graphics/SVG/1.1/DTD/svg11.dtd"><svg t="1523583781990" class="icon" style="" viewBox="0 0 1024 1024" version="1.1" xmlns="http://www.w3.org/2000/svg" p-id="13764" xmlns:xlink="http://www.w3.org/1999/xlink" width="128" height="128"><defs><style type="text/css"></style></defs><path d="M509.9 71.1C265.3 71.1 67 269.4 67 514c0 244.6 198.3 443 442.9 443 244.6 0 442.9-198.3 442.9-442.9 0.1-244.7-198.3-443-442.9-443z m181.6 565.8c7.5 7.5 12.2 17.9 12.2 29.3 0 23-18.6 41.5-41.5 41.5-11.4 0-21.8-4.6-29.3-12.2l-123-122.7-122.8 122.9c-7.6 7.5-17.9 12.2-29.4 12.2-22.9 0-41.5-18.6-41.5-41.5 0-11.5 4.6-21.8 12.1-29.3l122.9-123-122.9-123c-7.5-7.5-12.1-17.9-12.1-29.4 0-22.9 18.6-41.5 41.5-41.5 11.4 0 21.8 4.6 29.3 12.1l122.8 122.9 122.9-122.9c7.5-7.5 17.9-12.1 29.3-12.1 22.9 0 41.5 18.6 41.5 41.5 0 11.5-4.6 21.9-12.2 29.4L568.7 514l122.8 122.9z" fill="#3f81c1" p-id="13765"></path></svg>