<?xml version="1.0" standalone="no"?><!DOCTYPE svg PUBLIC "-//W3C//DTD SVG 1.1//EN" "http://www.w3.org/Graphics/SVG/1.1/DTD/svg11.dtd"><svg t="1545640631516" class="icon" style="" viewBox="0 0 1024 1024" version="1.1" xmlns="http://www.w3.org/2000/svg" p-id="2838" xmlns:xlink="http://www.w3.org/1999/xlink" width="200" height="200"><defs><style type="text/css"></style></defs><path d="M893.58 218.666h-84.926v-84.924c0-53.167-43.081-96.248-96.246-96.248H134.92c-53.167 0-96.248 43.081-96.248 96.248v577.485c0 53.167 43.081 96.249 96.248 96.249h84.926v84.926c0 53.167 43.08 96.248 96.248 96.248H893.58c53.167 0 96.248-43.081 96.248-96.248V314.914c0-53.166-43.08-96.248-96.249-96.248z m-673.734 96.248v401.977h-90.587v-588.81h588.81v90.585H316.094c-53.167 0-96.248 43.082-96.248 96.248z m679.397 583.148H310.431v-588.81h588.811v588.81z" fill="#1296db" p-id="2839"></path></svg>