<?xml version="1.0" standalone="no"?><!DOCTYPE svg PUBLIC "-//W3C//DTD SVG 1.1//EN" "http://www.w3.org/Graphics/SVG/1.1/DTD/svg11.dtd"><svg t="1570592186389" class="icon" viewBox="0 0 1024 1024" version="1.1" xmlns="http://www.w3.org/2000/svg" p-id="8041" xmlns:xlink="http://www.w3.org/1999/xlink" width="200" height="200"><defs><style type="text/css"></style></defs><path d="M409.6 546.133333m-279.893333 0a279.893333 279.893333 0 1 0 559.786666 0 279.893333 279.893333 0 1 0-559.786666 0Z" fill="#E9EAEB" p-id="8042"></path><path d="M921.6 880.64h27.306667v27.306667h-27.306667zM75.093333 880.64h27.306667v27.306667H75.093333zM129.706667 880.64h682.666666v27.306667H129.706667z" fill="#2A5082" p-id="8043"></path><path d="M184.32 525.653333h95.573333v368.64h-95.573333z" fill="#A3D4FF" p-id="8044"></path><path d="M293.546667 907.946667h-122.88v-395.946667h122.88v395.946667z m-95.573334-27.306667h68.266667v-341.333333h-68.266667v341.333333z" fill="#2A5082" p-id="8045"></path><path d="M320.853333 716.8h95.573334v177.493333h-95.573334z" fill="#FFFFFF" p-id="8046"></path><path d="M430.08 907.946667h-109.226667v-27.306667h81.92v-150.186667h-81.92v-27.306666h109.226667z" fill="#2A5082" p-id="8047"></path><path d="M512 252.586667h95.573333v641.706666h-95.573333z" fill="#A3D4FF" p-id="8048"></path><path d="M621.226667 907.946667h-122.88v-669.013334h122.88v669.013334z m-95.573334-27.306667h68.266667v-614.4h-68.266667v614.4z" fill="#2A5082" p-id="8049"></path><path d="M648.533333 498.346667h95.573334v395.946666h-95.573334z" fill="#FFFFFF" p-id="8050"></path><path d="M757.76 907.946667h-109.226667v-27.306667h81.92v-368.64h-81.92v-27.306667h109.226667z" fill="#2A5082" p-id="8051"></path><path d="M798.72 266.24h27.306667v81.92h-27.306667z" fill="#BCC0C4" p-id="8052"></path><path d="M771.413333 293.546667h81.92v27.306666h-81.92zM703.146667 129.706667h27.306666v81.92h-27.306666z" fill="#BCC0C4" p-id="8053"></path><path d="M675.84 157.013333h81.92v27.306667h-81.92z" fill="#BCC0C4" p-id="8054"></path><path d="M839.68 880.64h54.613333v27.306667h-54.613333z" fill="#2A5082" p-id="8055"></path></svg>