<svg id="图层_1" data-name="图层 1" xmlns="http://www.w3.org/2000/svg" viewBox="0 0 16 16"><title>画板 2</title><rect y="15" width="16" height="1" style="fill:#fff"/><polygon points="16 15 0 15 0 16 16 16 16 15 16 15" style="fill:gray"/><path d="M2.66,8.48,10.39.75A.81.81,0,0,1,11,.5a.5.5,0,0,1,.36.14l3,3a.52.52,0,0,1,.14.41.83.83,0,0,1-.25.52L6.52,12.34l-4.88,1Z" style="fill:#fff"/><path d="M11,1l3,3a.28.28,0,0,1-.1.23L6.27,11.88l-4,.83.83-4L10.74,1.1A.32.32,0,0,1,11,1h0m0-1A1.31,1.31,0,0,0,10,.39L2.2,8.23,1,14l5.77-1.2L14.61,5a1.17,1.17,0,0,0,.11-1.63l-3-3A1,1,0,0,0,11,0Z" style="fill:gray"/><path d="M6.87,12h0L3.06,8.16l0-.1,3.84,3.78,0,.1Z" style="fill:#fff"/><path d="M3.13,7.55a.54.54,0,0,0-.38.16l0,0a.54.54,0,0,0,0,.76l3.78,3.78a.54.54,0,0,0,.76,0l0,0a.54.54,0,0,0,0-.76L3.51,7.71a.54.54,0,0,0-.38-.16Z" style="fill:gray"/></svg>