<svg id="图层_1" data-name="图层 1" xmlns="http://www.w3.org/2000/svg" viewBox="0 0 32 32"><title>画板 19</title><rect x="24.5" y="6.5" width="4" height="2" rx="0.5" ry="0.5" style="fill:#fff"/><path d="M28,7V8H25V7h3m0-1H25a1,1,0,0,0-1,1V8a1,1,0,0,0,1,1h3a1,1,0,0,0,1-1V7a1,1,0,0,0-1-1Z" style="fill:gray"/><rect x="3.5" y="6.5" width="5" height="2" rx="0.5" ry="0.5" style="fill:#fff"/><path d="M8,7V8H4V7H8M8,6H4A1,1,0,0,0,3,7V8A1,1,0,0,0,4,9H8A1,1,0,0,0,9,8V7A1,1,0,0,0,8,6Z" style="fill:gray"/><rect x="1" y="8" width="30" height="21" rx="1" ry="1" style="fill:#4d84ba"/><path d="M3,9H8A0,0,0,0,1,8,9v4a2,2,0,0,1-2,2H2a0,0,0,0,1,0,0V10A1,1,0,0,1,3,9Z" style="fill:#f6f7f7"/><path d="M24,9h4a2,2,0,0,1,2,2v4a0,0,0,0,1,0,0H25a1,1,0,0,1-1-1V9A0,0,0,0,1,24,9Z" transform="translate(54 24) rotate(-180)" style="fill:#fff"/><path d="M2,22H6a2,2,0,0,1,2,2v4a0,0,0,0,1,0,0H3a1,1,0,0,1-1-1V22A0,0,0,0,1,2,22Z" style="fill:#fff"/><path d="M25,22h5a0,0,0,0,1,0,0v4a2,2,0,0,1-2,2H24a0,0,0,0,1,0,0V23A1,1,0,0,1,25,22Z" transform="translate(54 50) rotate(180)" style="fill:#fff"/><path d="M20,5V8H13V5h7m1-2H12a1,1,0,0,0-1,1V9a1,1,0,0,0,1,1h9a1,1,0,0,0,1-1V4a1,1,0,0,0-1-1Z" style="fill:#4d84ba"/></svg>