<svg id="图层_1" data-name="图层 1" xmlns="http://www.w3.org/2000/svg" viewBox="0 0 16 16"><title>画板 13</title><path d="M-103.07,10a.32.32,0,0,1-.23-.09l-2.15-2.15a.32.32,0,0,1,0-.45.32.32,0,0,1,.45,0l1.93,1.93,4-4a.32.32,0,0,1,.45,0,.32.32,0,0,1,0,.45l-4.21,4.21a.32.32,0,0,1-.23.09Zm289-36a.32.32,0,0,1-.23-.09l-2.15-2.15a.32.32,0,0,1,0-.45.32.32,0,0,1,.45,0l1.93,1.93,4-4a.32.32,0,0,1,.45,0,.32.32,0,0,1,0,.45l-4.21,4.21a.32.32,0,0,1-.23.09Zm-289,36" style="fill:#b1b1b1"/><polygon points="10 13 16 13 13 16 10 13" style="fill:gray"/><polygon points="4 0 3 0 3 15 0 12 0 13 3 16 4 16 4 1 7 4 7 3 4 0" style="fill:#4d84ba"/><rect x="8.5" y="1.5" width="7" height="7" style="fill:#fff"/><path d="M15,2V8H9V2h6m1-1H8V9h8V1Z" style="fill:gray"/><rect x="6.5" y="3.5" width="7" height="7" style="fill:#fff"/><path d="M13,4v6H7V4h6m1-1H6v8h8V3Z" style="fill:gray"/></svg>