<svg id="图层_1" data-name="图层 1" xmlns="http://www.w3.org/2000/svg" viewBox="0 0 16 16"><title>画板 1-V</title><path d="M12.06,9.72h1.56V8.11L16,10.5l-2.39,2.39V11.28H12.06ZM9.72,8.94V7.39H8.11L10.5,5l2.39,2.39H11.28V8.94Zm-.78,2.33H7.39v1.61L5,10.5,7.39,8.11V9.72H8.94Zm.78.78v1.56H8.11L10.5,16l2.39-2.39H11.28V12.06Zm0,0" style="fill:#4d84ba"/><rect x="2" y="1.1" width="1" height="14.9" style="fill:#7e7e7e"/><rect x="8.3" y="-4.7" width="1" height="14.4" transform="translate(11.3 -6.3) rotate(90)" style="fill:#7e7e7e"/><polygon points="5.33 6 4 6 4 5.33 5.33 5.33 5.33 4 6 4 6 5.33 6 6 5.33 6" style="fill:#7e7e7e"/><ellipse cx="2.42" cy="2.5" rx="1.92" ry="2" style="fill:#fff"/><path d="M2.42,1A1.46,1.46,0,0,1,3.83,2.5,1.46,1.46,0,0,1,2.42,4,1.46,1.46,0,0,1,1,2.5,1.46,1.46,0,0,1,2.42,1m0-1A2.46,2.46,0,0,0,0,2.5,2.46,2.46,0,0,0,2.42,5,2.46,2.46,0,0,0,4.83,2.5,2.46,2.46,0,0,0,2.42,0Z" style="fill:gray"/></svg>