<svg id="图层_1" data-name="图层 1" xmlns="http://www.w3.org/2000/svg" viewBox="0 0 16 16"><title>画板 23</title><polygon points="0.5 15.5 0.5 0.5 8.79 0.5 12.5 4.21 12.5 15.5 0.5 15.5" style="fill:#fff"/><path d="M8.59,1,12,4.41V15H1V1H8.59M9,0H0V16H13V4L9,0Z" style="fill:gray"/><rect x="2" y="10" width="6" height="1" rx="0.5" ry="0.5" style="fill:#b1b1b1"/><rect x="2" y="13" width="4" height="1" rx="0.5" ry="0.5" style="fill:#b1b1b1"/><polygon points="9 0 8 0 8 5 9 5 9 0 9 0" style="fill:gray"/><polygon points="13 4 8 4 8 5 13 5 13 4 13 4" style="fill:gray"/><rect x="2" y="7" width="9" height="1" rx="0.5" ry="0.5" style="fill:#b1b1b1"/><circle cx="11.5" cy="11.5" r="4.5" style="fill:#de673e"/><polygon points="3 2 2 2 2 5 3 5 3 2 3 2" style="fill:#4d84ba"/><polygon points="5 3 4 3 4 5 5 5 5 3 5 3" style="fill:#4d84ba"/><rect x="6" y="4" width="1" height="1" style="fill:#fff"/><polygon points="7 4 6 4 6 5 7 5 7 4 7 4" style="fill:#4d84ba"/><polygon points="14.33 9.38 13.62 8.67 11.5 10.79 9.38 8.67 8.67 9.38 10.79 11.5 8.67 13.62 9.38 14.33 11.5 12.21 13.62 14.33 14.33 13.62 12.21 11.5 14.33 9.38" style="fill:#fff"/></svg>