<?xml version="1.0" standalone="no"?><!DOCTYPE svg PUBLIC "-//W3C//DTD SVG 1.1//EN" "http://www.w3.org/Graphics/SVG/1.1/DTD/svg11.dtd"><svg t="1556592939317" class="icon" style="" viewBox="0 0 1098 1024" version="1.1" xmlns="http://www.w3.org/2000/svg" p-id="6724" xmlns:xlink="http://www.w3.org/1999/xlink" width="137.25" height="128"><defs><style type="text/css"></style></defs><path d="M818.450732 461.549268a67.234341 67.234341 0 0 0-67.259317 67.234342v133.319805h-134.868293a66.859707 66.859707 0 1 0 0 133.694439h134.868293V929.092683a67.234341 67.234341 0 1 0 134.493658 0v-133.294829h134.868293a66.859707 66.859707 0 1 0 0-133.694439h-134.868293v-133.319805a67.234341 67.234341 0 0 0-67.259317-67.234342z" fill="#1296db" p-id="6725"></path><path d="M127.075902 401.108293h193.011513V133.694439h419.590244v200.554146H874.146341V66.859707C874.146341 22.053463 852.667317 0 820.373854 0H268.962341L0 334.248585v615.024391c0 14.161171 5.669463 27.772878 15.734634 37.813073a53.947317 53.947317 0 0 0 38.062829 15.659707h484.152196v-133.694439H127.100878V401.108293" fill="#1296db" p-id="6726"></path></svg>