<svg id="图层_1" data-name="图层 1" xmlns="http://www.w3.org/2000/svg" viewBox="0 0 16 16"><title>画板 35 副本</title><path d="M2.51,13.5a2,2,0,0,1-2-2v-7a3,3,0,0,1,3-3H12.9a.6.6,0,0,1,.6.6V12.9a.6.6,0,0,1-.6.6Z" style="fill:#fff"/><path d="M12.9,2a.1.1,0,0,1,.1.1V12.9a.1.1,0,0,1-.1.1H2.51A1.5,1.5,0,0,1,1,11.5v-7A2.54,2.54,0,0,1,3.54,2H12.9m0-1H3.54A3.54,3.54,0,0,0,0,4.54v7A2.51,2.51,0,0,0,2.51,14H12.9A1.1,1.1,0,0,0,14,12.9V2.1A1.1,1.1,0,0,0,12.9,1Z" style="fill:gray"/><path d="M12.66,5.79a.5.5,0,0,0-.71,0L10.18,7.56,8.77,6.15l2.47-2.47A.5.5,0,0,0,10.54,3L8.06,5.44,4.62,2H3.34a.49.49,0,0,0,.13.26L5.23,4,3.46,5.79a.5.5,0,1,0,.71.71L5.94,4.73,7.35,6.15,3.46,10a.5.5,0,0,0,.71.71L8.06,6.85,11.24,10a.5.5,0,1,0,.71-.71L10.89,8.27,12.66,6.5A.5.5,0,0,0,12.66,5.79Z" style="fill:#b1b1b1"/><path d="M3.5,10.69A2.71,2.71,0,0,0,2,10H1.9a2.2,2.2,0,0,0-1.4.6V2A1.52,1.52,0,0,1,2,.5,1.52,1.52,0,0,1,3.5,2Z" style="fill:#fff"/><path d="M2,1A1,1,0,0,1,3,2V9.76a2.66,2.66,0,0,0-.91-.26H1.9a2.28,2.28,0,0,0-.9.19V2A1,1,0,0,1,2,1M2,0A2,2,0,0,0,0,2V12c.06-.14.91-1.49,1.9-1.49H2C3.07,10.6,4,12,4,12V2A2,2,0,0,0,2,0ZM0,12s0,0,0,0H0Zm4,0H4Z" style="fill:gray"/><circle cx="11.5" cy="11.5" r="4.5" style="fill:#4d84ba"/><rect x="9" y="11" width="5" height="1" style="fill:#fff"/><rect x="9" y="11" width="5" height="1" transform="translate(0 23) rotate(-90)" style="fill:#fff"/></svg>