<?xml version="1.0" standalone="no"?><!DOCTYPE svg PUBLIC "-//W3C//DTD SVG 1.1//EN" "http://www.w3.org/Graphics/SVG/1.1/DTD/svg11.dtd"><svg t="1567762130919" class="icon" viewBox="0 0 1024 1024" version="1.1" xmlns="http://www.w3.org/2000/svg" p-id="2638" xmlns:xlink="http://www.w3.org/1999/xlink" width="200" height="200"><defs><style type="text/css"></style></defs><path d="M65.530097 957.170942l766.419183 0L831.94928 66.059532 65.530097 66.059532 65.530097 957.170942 65.530097 957.170942zM297.238627 279.925411l409.94712 0 0 71.288626L297.238627 351.214037 297.238627 279.925411 297.238627 279.925411zM297.238627 458.148511l409.94712 0 0 71.28965L297.238627 529.438161 297.238627 458.148511 297.238627 458.148511zM297.238627 618.548688l409.94712 0 0 71.288626L297.238627 689.837314 297.238627 618.548688 297.238627 618.548688zM190.298748 279.925411l71.293594 0 0 71.288626-71.293594 0L190.298748 279.925411 190.298748 279.925411zM190.298748 458.148511l71.293594 0 0 71.28965-71.293594 0L190.298748 458.148511 190.298748 458.148511zM190.298748 618.548688l71.293594 0 0 71.288626-71.293594 0L190.298748 618.548688 190.298748 618.548688zM849.773958 440.327634l53.471986 0 0 160.399153-53.471986 0L849.773958 440.327634 849.773958 440.327634zM849.773958 654.192489l89.118272 0 0 160.399153-89.118272 0L849.773958 654.192489 849.773958 654.192489zM903.245944 208.638831l0-89.113597-53.471986 0 0 142.580323 53.471986 0L903.245944 208.638831zM921.066529 208.638831l0 71.28658-17.820584 0-53.471986 0 0 89.113597 106.938856 0L956.712814 208.638831 921.066529 208.638831zM921.066529 208.638831" p-id="2639"></path></svg>