<svg id="图层_1" data-name="图层 1" xmlns="http://www.w3.org/2000/svg" viewBox="0 0 32 32"><title>画板 1</title><path d="M23.47,1a5.64,5.64,0,0,0-5.6,5.69c0,3.14,5.6,10.25,5.6,10.25s5.59-7.1,5.59-10.25A5.63,5.63,0,0,0,23.47,1Zm0,9.38a3.75,3.75,0,1,1,3.75-3.75,3.75,3.75,0,0,1-3.75,3.75Z" style="fill:#5da58e"/><path d="M6.11,31H29a3.49,3.49,0,0,0,2-1L10.08,22.22Z" style="fill:#4d84ba"/><path d="M15,5H3.06A2.06,2.06,0,0,0,1,7.06V16l7.71,3Z" style="fill:#4d84ba"/><path d="M1,19V29a2,2,0,0,0,2,2H3.3l4.37-9.69Z" style="fill:#4d84ba"/><path d="M29.43,4.75h0a6.49,6.49,0,0,1,.63,2.81c0,3.63-6.56,11.82-6.56,11.82s-6.57-8.19-6.57-11.82c0-.2,0-.4,0-.6l-5.8,12.85L31,27.25V6.32A1.58,1.58,0,0,0,29.43,4.75Z" style="fill:#4d84ba"/></svg>