<?xml version="1.0" standalone="no"?><!DOCTYPE svg PUBLIC "-//W3C//DTD SVG 1.1//EN" "http://www.w3.org/Graphics/SVG/1.1/DTD/svg11.dtd"><svg t="1588995192039" class="icon" viewBox="0 0 1024 1024" version="1.1" xmlns="http://www.w3.org/2000/svg" p-id="2770" xmlns:xlink="http://www.w3.org/1999/xlink" width="200" height="200"><defs><style type="text/css"></style></defs><path d="M925.866667 740.977778l-95.288889-95.288889-29.866667 29.866667 58.311111 58.311111H699.733333v42.666666h159.288889l-58.311111 58.311111 29.866667 29.866667 95.288889-95.288889c8.533333-7.111111 8.533333-19.911111 0-28.444444z" fill="#42BA73" p-id="2771"></path><path d="M664.177778 344.177778H169.244444c-4.266667 0-7.111111 2.844444-7.111111 7.111111v507.733333c0 4.266667 2.844444 7.111111 7.111111 7.111111h494.933334c4.266667 0 7.111111-2.844444 7.111111-7.111111V351.288889c0-4.266667-4.266667-7.111111-7.111111-7.111111z m-487.822222 14.222222h480.711111v44.088889H176.355556v-44.088889z m480.711111 493.511111H176.355556V416.711111h480.711111v435.2z" fill="#555555" p-id="2772"></path><path d="M709.688889 217.6H214.755556c-4.266667 0-7.111111 2.844444-7.111112 7.111111v99.555556h14.222223v-32.711111h480.711111v399.644444h14.222222V226.133333c0-4.266667-2.844444-8.533333-7.111111-8.533333z m-487.822222 59.733333v-44.088889h480.711111v44.088889H221.866667z" fill="#555555" p-id="2773"></path><path d="M750.933333 157.866667H268.8c-4.266667 0-7.111111 2.844444-7.111111 7.111111v32.711111h14.222222v-25.6h466.488889V568.888889h14.222222V164.977778c1.422222-4.266667-2.844444-7.111111-5.688889-7.111111zM280.177778 682.666667c22.755556 0 42.666667-17.066667 45.511111-39.822223H369.777778c2.844444 22.755556 22.755556 39.822222 45.511111 39.822223 11.377778 0 22.755556-4.266667 29.866667-11.377778l65.422222 65.422222c-4.266667 7.111111-5.688889 14.222222-5.688889 22.755556 0 25.6 21.333333 46.933333 46.933333 46.933333s46.933333-21.333333 46.933334-46.933333-21.333333-46.933333-46.933334-46.933334c-12.8 0-24.177778 4.266667-31.288889 12.8L455.111111 659.911111c2.844444-5.688889 5.688889-11.377778 7.111111-17.066667h44.088889c2.844444 22.755556 22.755556 39.822222 45.511111 39.822223 25.6 0 46.933333-21.333333 46.933334-46.933334 0-25.6-21.333333-46.933333-46.933334-46.933333-22.755556 0-42.666667 17.066667-45.511111 39.822222h-44.088889c-1.422222-7.111111-2.844444-12.8-7.111111-17.066666l65.422222-65.422223c8.533333 7.111111 19.911111 12.8 31.288889 12.8 25.6 0 46.933333-21.333333 46.933334-46.933333 0-25.6-21.333333-46.933333-46.933334-46.933333s-46.933333 21.333333-46.933333 46.933333c0 8.533333 2.844444 15.644444 5.688889 22.755556l-65.422222 65.422222c-8.533333-7.111111-18.488889-11.377778-29.866667-11.377778-22.755556 0-42.666667 17.066667-45.511111 39.822222h-44.088889c-2.844444-22.755556-22.755556-39.822222-45.511111-39.822222-25.6 0-46.933333 21.333333-46.933334 46.933333 0 25.6 19.911111 46.933333 46.933334 46.933334z m273.066666-79.644445c18.488889 0 32.711111 14.222222 32.711112 32.711111s-14.222222 32.711111-32.711112 32.711111-32.711111-14.222222-32.711111-32.711111 14.222222-32.711111 32.711111-32.711111z m0 123.733334c18.488889 0 32.711111 14.222222 32.711112 32.711111s-14.222222 32.711111-32.711112 32.711111-32.711111-14.222222-32.711111-32.711111 14.222222-32.711111 32.711111-32.711111z m0-247.466667c18.488889 0 32.711111 14.222222 32.711112 32.711111s-14.222222 32.711111-32.711112 32.711111-32.711111-14.222222-32.711111-32.711111 14.222222-32.711111 32.711111-32.711111z m-136.533333 123.733333c18.488889 0 32.711111 14.222222 32.711111 32.711111s-14.222222 32.711111-32.711111 32.711111-32.711111-14.222222-32.711111-32.711111 14.222222-32.711111 32.711111-32.711111z m-136.533333 0c18.488889 0 32.711111 14.222222 32.711111 32.711111S298.666667 668.444444 280.177778 668.444444s-32.711111-14.222222-32.711111-32.711111 14.222222-32.711111 32.711111-32.711111z" fill="#555555" p-id="2774"></path></svg>