<svg id="图层_1" data-name="图层 1" xmlns="http://www.w3.org/2000/svg" viewBox="0 0 32 32"><title>画板 70</title><circle cx="16" cy="16" r="15" style="fill:#de673e"/><path d="M15.1,13.84c.16-.41,0-.62-.23-.62-.84,0-1.93,2-2.33,2a.32.32,0,0,1-.29-.3c0-.41,1-1.37,1.29-1.67a5,5,0,0,1,3.4-1.54c1,0,2,.6,1.2,2.82L16.51,19a4.39,4.39,0,0,0-.38,1.28.29.29,0,0,0,.27.32c.68,0,1.93-1.95,2.24-1.95a.33.33,0,0,1,.27.34c0,.66-2.65,3.5-4.94,3.5-.82,0-1.38-.39-1.38-1.26a11.72,11.72,0,0,1,.93-3.37Zm1.22-4.51A1.87,1.87,0,0,1,18.19,7.5a1.49,1.49,0,0,1,1.56,1.56,1.84,1.84,0,0,1-1.88,1.83,1.46,1.46,0,0,1-1.54-1.56Zm0,0" style="fill:#fff"/></svg>