<?xml version="1.0" standalone="no"?><!DOCTYPE svg PUBLIC "-//W3C//DTD SVG 1.1//EN" "http://www.w3.org/Graphics/SVG/1.1/DTD/svg11.dtd"><svg t="1534146392410" class="icon" style="" viewBox="0 0 1024 1024" version="1.1" xmlns="http://www.w3.org/2000/svg" p-id="10421" xmlns:xlink="http://www.w3.org/1999/xlink" width="48" height="48"><defs><style type="text/css"></style></defs><path d="M791.837406 780.020266l0 38.10383 76.207659 0L868.045065 94.14417 296.482505 94.14417l0 76.208683 38.10383 0 0-38.104853 495.354901 0 0 647.772266L791.837406 780.020266 791.837406 780.020266zM171.936931 216.458937l0 707.975417c0 4.419659 3.505847 8.002254 7.849782 8.002254l555.826158 0c4.381797 0 7.887644-3.543709 7.887644-8.002254L743.500515 216.458937c0-4.420683-3.505847-8.002254-7.849782-8.002254L179.785689 208.456682C175.441754 208.456682 171.936931 212.000392 171.936931 216.458937L171.936931 216.458937zM210.04076 246.560512l495.354901 0 0 647.772266-495.354901 0L210.04076 246.560512 210.04076 246.560512z" p-id="10422" fill="#1296db"></path><path d="M437.239296 775.281335 437.239296 444.256106c-7.662517 7.662517-20.61041 16.238846-38.847773 25.732058s-35.101449 16.156982-50.590212 19.986193l0-47.967478c20.48659-5.659907 42.385343-14.696724 65.705468-27.106358 23.316032-12.405541 41.221844-24.109094 53.713342-35.101449l18.48705 0 0 395.482263L437.239296 775.281335z" p-id="10423" fill="#1296db"></path></svg>