<?xml version="1.0" standalone="no"?><!DOCTYPE svg PUBLIC "-//W3C//DTD SVG 1.1//EN" "http://www.w3.org/Graphics/SVG/1.1/DTD/svg11.dtd"><svg t="1566352101445" class="icon" viewBox="0 0 1102 1024" version="1.1" xmlns="http://www.w3.org/2000/svg" p-id="5850" width="34.4375" height="32" xmlns:xlink="http://www.w3.org/1999/xlink"><defs><style type="text/css"></style></defs><path d="M301.056 663.394462c4.253538-13.863385 19.298462-66.953846 22.370462-76.091077 1.890462-5.671385 3.544615-10.24 5.513846-14.178462 2.048-4.096 2.048-4.096 6.695384-10.555077 8.349538-10.24 8.349538-10.24 39.936-13.784615 25.6 14.887385 25.6 14.887385 29.302154 25.915077 2.126769 7.246769 20.48 124.219077 109.489231 209.447384 15.596308 14.966154 64.748308 71.128615 82.944 100.982154-13.469538 17.092923-201.570462-125.715692-230.321231-169.984-7.876923 22.055385-15.438769 39.384615-23.867077 52.775385-24.418462 38.754462-68.450462 50.963692-98.461538 7.876923-45.134769-64.433231-52.854154-217.875692-34.658462-345.403077-55.847385-54.429538-106.338462-156.278154-89.954461-204.8-1.654154 4.962462-11.657846-14.651077-29.617231-40.881231l-3.780923-5.513846c-20.952615-30.168615-25.521231-37.021538-32.610462-49.860923-15.753846-28.435692-21.188923-49.545846-4.253538-72.625231 30.089846-41.196308 83.101538-24.812308 195.584 35.131077 137.294769 0.630154 255.369846 54.902154 351.940923 161.319385 77.036308 84.913231 89.245538 106.496 124.849231 224.807384 9.846154 32.610462 17.250462 51.2 27.726769 66.953846 98.382769 34.894769 163.682462 70.104615 203.618461 106.496 17.408 15.753846 29.853538 31.665231 38.596924 48.049231a171.559385 171.559385 0 0 1 12.366769 30.562462 39.384615 39.384615 0 0 1-36.548923 54.114461 3084.366769 3084.366769 0 0 0-90.899693 1.10277l9.058462 5.356307c1.890462 1.181538 149.582769 186.683077 159.350154 229.769846-135.483077-107.598769-260.332308-200.625231-303.261539-225.910153-43.008-25.363692-22.843077-57.186462 6.380308-69.316924 30.72-12.839385 78.296615-17.801846 149.188923-19.298461h1.102769c-28.514462-28.120615-80.108308-53.878154-186.28923-90.584615a39.384615 39.384615 0 0 1-17.959385-12.681847c-21.976615-27.569231-33.476923-54.350769-47.812923-101.848615-32.531692-108.071385-40.487385-120.438154-107.756308-194.638769-83.968-92.553846-184.083692-137.216-302.867692-135.483077a39.384615 39.384615 0 0 1-19.219692-4.647385 1071.812923 1071.812923 0 0 0-66.875077-33.476923 11457.851077 11457.851077 0 0 0 5.277538 7.640616c38.360615 55.847385 50.097231 78.926769 39.384615 110.670769-4.883692 14.493538 42.850462 103.502769 81.447385 132.962461a39.384615 39.384615 0 0 1 14.966154 37.96677c-15.123692 88.221538-14.966154 201.334154 1.417846 267.500307 2.756923-7.719385 5.513846-16.384 8.507077-25.836307z m27.884308-365.64677a190.464 190.464 0 0 0-41.275077-64.905846 39.384615 39.384615 0 0 1 52.381538 12.603077c11.815385 19.613538 7.719385 40.881231-11.106461 52.302769z" p-id="5851" fill="#4D84BA"></path></svg>