<?xml version="1.0" standalone="no"?><!DOCTYPE svg PUBLIC "-//W3C//DTD SVG 1.1//EN" "http://www.w3.org/Graphics/SVG/1.1/DTD/svg11.dtd"><svg t="1556173796697" class="icon" style="" viewBox="0 0 1024 1024" version="1.1" xmlns="http://www.w3.org/2000/svg" p-id="2477" xmlns:xlink="http://www.w3.org/1999/xlink" width="64" height="64"><defs><style type="text/css"></style></defs><path d="M512 924.66C284.46 924.66 99.34 739.54 99.34 512S284.46 99.34 512 99.34 924.66 284.46 924.66 512 739.54 924.66 512 924.66z m0-788.36c-207.16 0-375.7 168.54-375.7 375.7S304.84 887.7 512 887.7 887.7 719.16 887.7 512 719.16 136.3 512 136.3z" fill="#0897EA" p-id="2478"></path><path d="M499.78 597.09a18.47 18.47 0 0 1-18.48-18.48V291.25a18.48 18.48 0 1 1 37 0v259.26l188.3-81.34a18.48 18.48 0 0 1 14.65 33.92L507.1 595.57a18.4 18.4 0 0 1-7.32 1.52z" fill="#FF4056" p-id="2479"></path></svg>