<?xml version="1.0" standalone="no"?><!DOCTYPE svg PUBLIC "-//W3C//DTD SVG 1.1//EN" "http://www.w3.org/Graphics/SVG/1.1/DTD/svg11.dtd"><svg t="1560998915818" class="icon" style="" viewBox="0 0 1024 1024" version="1.1" xmlns="http://www.w3.org/2000/svg" p-id="8985" xmlns:xlink="http://www.w3.org/1999/xlink" width="200" height="200"><defs><style type="text/css"></style></defs><path d="M755.074472 265.287664c67.624554 66.218759 101.868399 153.254132 102.286144 241.132161l0.235493 0.230374c1.047435 87.68042-31.469115 175.733534-97.40733 243.0714-66.156302 67.560049-153.262323 101.668741-241.176188 102.697746l-2.692819-0.090102c-86.74766 0.462796-173.917161-32.309725-240.553666-97.560913-67.594861-66.190091-101.64212-153.865391-102.562593-240.971411l-0.33993-0.332763c-0.636857-87.738781 31.687203-175.490873 97.843506-243.051946 65.938215-67.336842 153.237749-101.74758 240.740013-102.718224l2.935479-0.157678c86.936055 0.232422 174.112723 32.556482 240.691891 97.751356z m26.773577 241.827379c-0.913306-68.19793-27.892684-135.564465-80.441551-187.020846-51.934535-50.854336-118.976499-76.886621-186.440302-76.501639l-2.508519 0.138224c-67.723871 0.478154-135.991425 27.618283-187.292176 80.008447-51.277201 52.365591-76.990033 121.199354-76.057273 188.931416 0.543683 68.165166 27.268114 135.791767 80.098549 187.524597 51.988801 50.908602 119.403459 76.357272 186.476139 76.086966l2.536163-0.093173c68.05049-0.181228 136.091766-27.568112 187.368967-79.933704 51.30075-52.390164 77.240885-120.978194 75.981506-189.006159l0.278497-0.134129zM664.730926 509.884653l-289.636681 0.979858" fill="#1296db" p-id="8986"></path><path d="M664.730926 479.168093l-98.042139 0.331739-156.056506 0.527301-35.537012 0.119795c-16.065785 0.054266-31.460924 14.089686-30.716559 30.716559 0.743341 16.596157 13.49788 30.774921 30.716559 30.71656l98.04214-0.331739 156.056505-0.527301 35.537012-0.119794c16.065785-0.054266 31.460924-14.089686 30.71656-30.71656-0.743341-16.595133-13.49788-30.774921-30.71656-30.71656z" fill="#1296db" p-id="8987"></path></svg>