<?xml version="1.0" encoding="utf-8"?>
<!-- Svg Vector Icons : http://www.sfont.cn -->
<!DOCTYPE svg PUBLIC "-//W3C//DTD SVG 1.1//EN" "http://www.w3.org/Graphics/SVG/1.1/DTD/svg11.dtd">
<svg version="1.1" xmlns="http://www.w3.org/2000/svg" xmlns:xlink="http://www.w3.org/1999/xlink" x="0px" y="0px" viewBox="0 0 1000 1000" enable-background="new 0 0 1000 1000" xml:space="preserve">
<metadata> Svg Vector Icons : http://www.sfont.cn </metadata>
<g><g transform="translate(0.000000,511.000000) scale(0.100000,-0.100000)"><path d="M4865,4987.8c-34.8-16.4-90-63.4-122.7-106.4l-59.3-75.7l-6.1-3681.3l-4.1-3681.2l42.9-88c114.5-241.3,452-241.3,568.6,0c42.9,85.9,42.9,85.9,42.9,3736.5v3650.6l-45,90c-26.6,49.1-71.6,108.4-102.3,128.8C5110.4,5012.4,4948.9,5026.7,4865,4987.8z" fill="#ff0000"/><path d="M4768.9-3532.2c-153.4-59.3-270-167.7-345.6-321.1c-57.3-118.6-67.5-157.5-67.5-292.4c2-188.2,65.4-343.6,192.2-466.3c137-132.9,249.5-177.9,452-177.9c204.5,0,317,45,452,182c130.9,126.8,190.2,276.1,192.2,462.2c0,135-10.2,173.8-67.5,292.4C5427.4-3552.7,5075.7-3411.6,4768.9-3532.2z" fill="#ff0000"/></g></g>
</svg>