<?xml version="1.0" standalone="no"?><!DOCTYPE svg PUBLIC "-//W3C//DTD SVG 1.1//EN" "http://www.w3.org/Graphics/SVG/1.1/DTD/svg11.dtd"><svg t="1534229509157" class="icon" style="" viewBox="0 0 1024 1024" version="1.1" xmlns="http://www.w3.org/2000/svg" p-id="6346" xmlns:xlink="http://www.w3.org/1999/xlink" width="48" height="48"><defs><style type="text/css"></style></defs><path d="M487.0656 150.272c93.5936 0 175.3088 27.136 238.4384 78.848l-13.312 31.0784c-26.7264 57.0368-89.6 191.6416-95.6416 210.0736-27.7504 83.968 3.9936 167.0656 72.192 189.2352 10.752 3.5328 22.0672 5.2736 33.4336 5.2736 36.3008 0 71.9872-17.664 99.6864-48.9472-29.184 56.6784-79.0528 85.3504-148.736 85.3504-9.6768 0-18.5856-0.5632-26.3168-1.3824a103.7824 103.7824 0 0 0-10.9056-0.5632c-38.9632 0-75.8784 20.48-94.0032 52.224-68.1984 119.4496-125.696 170.3936-192.256 170.3936-51.3536 0-112.64-30.9248-182.1184-91.9552C63.6416 738.6624 25.4976 591.872 68.096 446.9248c45.6192-155.648 169.728-263.8336 331.9808-289.536 29.9008-4.7616 59.1872-7.168 87.04-7.168z m0-50.7904c-30.0544 0-61.7472 2.4576-95.1296 7.7312C0.256 169.2672-120.576 644.7104 133.632 867.9424c85.3504 74.9568 156.16 104.704 216.0128 104.704 106.9056 0 178.944-94.8224 236.8-196.096 9.3184-16.384 30.208-26.5216 49.4592-26.5216 1.8432 0 3.6864 0.1024 5.4784 0.256 10.5472 1.1264 21.1456 1.6896 31.744 1.6896 70.2976 0 174.7968-25.2928 214.6816-165.12a358.4512 358.4512 0 0 0 9.1136-146.2272s-96.9728 126.464-107.008 133.6832c-18.432 24.576-43.4688 39.68-67.7376 39.68-5.888 0-11.776-0.8704-17.4592-2.7648-40.3456-13.056-58.0608-69.0688-39.5264-125.1328 5.7856-17.5616 93.44-204.4928 93.44-204.4928l28.16-65.536c-68.864-69.376-168.7552-116.5824-299.7248-116.5824zM231.4752 342.9376a80.896 80.896 0 0 1 81.2032 80.64 80.896 80.896 0 0 1-81.2032 80.5888 80.9984 80.9984 0 0 1-81.2544-80.5888c0-44.544 36.4032-80.64 81.2544-80.64z m-46.848 368.8448a80.9984 80.9984 0 0 1-81.2544-80.5888c0-44.4416 36.352-80.5888 81.2544-80.5888a80.896 80.896 0 0 1 81.2544 80.5888 80.896 80.896 0 0 1-81.2544 80.5888z m159.3856 161.28a80.896 80.896 0 0 1-81.2544-80.5888c0-44.544 36.4544-80.5888 81.2544-80.5888a80.896 80.896 0 0 1 81.2544 80.5888 80.896 80.896 0 0 1-81.2544 80.5888z m65.6384-508.416a80.896 80.896 0 0 1-81.2544-80.64c0-44.4928 36.4544-80.5888 81.2544-80.5888s81.2544 36.096 81.2544 80.5888A80.896 80.896 0 0 1 409.6 364.544zM939.4176 66.56c-52.6336 3.328-96.0512 58.5216-98.048 60.928-35.84 42.2912-30.208 105.4208 12.4928 140.9536a101.4272 101.4272 0 0 0 142.08-12.288c13.0048-15.36 20.4288-33.4848 22.7328-51.968 19.4048-90.88-20.4288-152.32-20.4288-152.32s-6.1952 11.264-58.8288 14.6944z m-232.2944 509.0304c-19.8144-11.3664-24.7296-46.592-11.264-78.3872l63.0784-146.944c2.2016 1.9456 4.5056 3.9424 6.912 5.888 26.112 21.6576 66.6112 49.4592 111.7696 59.7504l-96.9728 129.9456c-20.8384 27.904-53.76 41.1648-73.5232 29.7472z m137.0624-295.8336c35.328 29.3376 83.0464 34.2016 122.5728 16.9472L913.8176 367.616c-51.1488 0.7168-107.1616-43.264-132.7616-68.4544l28.928-67.5328c6.7584 18.176 18.176 34.816 34.2016 48.128z" p-id="6347" fill="#1296db"></path></svg>