<?xml version="1.0" standalone="no"?><!DOCTYPE svg PUBLIC "-//W3C//DTD SVG 1.1//EN" "http://www.w3.org/Graphics/SVG/1.1/DTD/svg11.dtd"><svg t="1557108382088" class="icon" style="" viewBox="0 0 1037 1024" version="1.1" xmlns="http://www.w3.org/2000/svg" p-id="2491" data-spm-anchor-id="a313x.7781069.0.i10" xmlns:xlink="http://www.w3.org/1999/xlink" width="64.8125" height="64"><defs><style type="text/css"></style></defs><path d="M168.910848 577.874944m-28.672 0a28 28 0 1 0 57.344 0 28 28 0 1 0-57.344 0Z" p-id="2492" data-spm-anchor-id="a313x.7781069.0.i9" class="selected" fill="#f28c26"></path><path d="M229.326848 433.05472m-44.964864 0a43.911 43.911 0 1 0 89.929728 0 43.911 43.911 0 1 0-89.929728 0Z" p-id="2493" data-spm-anchor-id="a313x.7781069.0.i8" class="" fill="#1afa29"></path><path d="M408.513536 315.220992m-58.020864 0a56.661 56.661 0 1 0 116.041728 0 56.661 56.661 0 1 0-116.041728 0Z" p-id="2494" data-spm-anchor-id="a313x.7781069.0.i7" class="" fill="#1296db"></path><path d="M642.842624 315.220992m-72.868864 0a71.161 71.161 0 1 0 145.737728 0 71.161 71.161 0 1 0-145.737728 0Z" p-id="2495" data-spm-anchor-id="a313x.7781069.0.i6" class="" fill="#d81e06"></path><path d="M1012.110336 244.247552l-0.77312-0.671744c-10.673152-9.270272-26.843136-8.132608-36.113408 2.541568L589.09696 690.716672l-48.813056 95.97952 87.571456-60.961792 386.797568-445.37344C1023.9232 269.686784 1022.784512 253.5168 1012.110336 244.247552z" p-id="2496" data-spm-anchor-id="a313x.7781069.0.i18" class="" fill="#2c2c2c"></path><path d="M945.957888 491.52c-13.732864 0-24.981504 10.60352-26.02496 24.06912l-0.086016-0.006144c0 0-36.182016 191.830016-193.878016 294.228992-170.133504 110.475264-364.883968 60.75904-401.06496-3.069952-19.881984-35.075072-50.176-94.208-67.412992-108.545024-46.288896-38.500352-163.328 14.848-187.904-43.52-45.676544-108.48256 62.123008-389.632 329.387008-459.264 186.98752-49.563648 346.205184 10.143744 426.067968 76.672l0-0.01024c4.4288 3.77856 10.171392 6.065152 16.449536 6.065152 14.00832 0 25.363456-11.355136 25.363456-25.363456 0-8.409088-4.094976-15.858688-10.397696-20.473856C822.82496 204.030976 610.65728 41.769984 314.32192 174.932992c-323.584 145.408-344.064 448.512-276.48 524.288s166.500352 15.837184 188.416 40.96c13.995008 16.043008 32.228352 58.630144 56.148992 97.281024 34.644992 55.977984 207.919104 173.529088 472.23296 16.723968 158.611456-94.096384 215.380992-310.782976 217.428992-334.505984l-0.08704-0.007168c0.052224-0.673792 0.08704-1.353728 0.08704-2.040832C972.069888 503.211008 960.37888 491.52 945.957888 491.52z" p-id="2497" data-spm-anchor-id="a313x.7781069.0.i17" class="" fill="#2c2c2c"></path></svg>