<?xml version="1.0" encoding="iso-8859-1"?>
<!-- Generator: Adobe Illustrator 16.0.0, SVG Export Plug-In . SVG Version: 6.00 Build 0)  -->
<!DOCTYPE svg PUBLIC "-//W3C//DTD SVG 1.1//EN" "http://www.w3.org/Graphics/SVG/1.1/DTD/svg11.dtd">
<svg version="1.1" id="Capa_1" xmlns="http://www.w3.org/2000/svg" xmlns:xlink="http://www.w3.org/1999/xlink" x="0px" y="0px"
	 width="102.439px" height="102.439px" viewBox="0 0 102.439 102.439" style="enable-background:new 0 0 102.439 102.439;"
	 xml:space="preserve">
<g>
	<g>
		<rect x="13.583" y="34.29" width="2.966" height="1.693"/>
		<rect x="17.503" y="34.29" width="35.792" height="1.693"/>
		<rect x="13.583" y="42.456" width="2.966" height="1.695"/>
		<rect x="17.503" y="42.456" width="35.792" height="1.695"/>
		<rect x="17.503" y="51.072" width="35.792" height="1.692"/>
		<rect x="13.583" y="51.072" width="2.966" height="1.692"/>
		<rect x="13.583" y="60.585" width="2.966" height="1.694"/>
		<path d="M17.503,62.281h34.932c0.277-0.361,0.563-0.715,0.859-1.063v-0.633H17.503V62.281z"/>
		<path d="M43.541,93.669H32.244H8.666c-0.234,0-0.424-0.191-0.424-0.425V27.585h58.88c0.147,0,0.289-0.023,0.425-0.059v0.047
			l-0.005,0.012v24.829c0.835-0.202,1.685-0.368,2.548-0.493V19.538c0-1.635-1.332-2.967-2.968-2.967H19.68v-5.559h58.88
			c0.148,0,0.289-0.025,0.424-0.061v5.879v35.282c0.861,0.161,1.709,0.362,2.541,0.604V8.783V2.965C81.525,1.33,80.196,0,78.56,0
			H20.104c-1.635,0-2.965,1.33-2.965,2.965v13.607H8.666c-1.635,0-2.965,1.332-2.965,2.967v73.708c0,1.635,1.33,2.965,2.965,2.965
			h22.681h13.091h8.726c-0.678-0.809-1.309-1.658-1.889-2.541L43.541,93.669L43.541,93.669z M64.138,20.003
			c1.067,0,1.934,0.867,1.934,1.936c0,1.069-0.865,1.934-1.934,1.934c-1.069,0-1.935-0.865-1.935-1.934
			C62.204,20.87,63.07,20.003,64.138,20.003z M55.616,20.003c1.065,0,1.935,0.867,1.935,1.936c0,1.069-0.867,1.934-1.935,1.934
			c-1.069,0-1.937-0.865-1.937-1.934C53.679,20.87,54.544,20.003,55.616,20.003z M47.143,20.003c1.069,0,1.935,0.867,1.935,1.936
			c0,1.069-0.865,1.934-1.935,1.934c-1.067,0-1.933-0.865-1.933-1.934C45.21,20.87,46.075,20.003,47.143,20.003z M75.575,3.429
			c1.069,0,1.935,0.867,1.935,1.936s-0.865,1.934-1.935,1.934c-1.067,0-1.935-0.865-1.935-1.934S74.507,3.429,75.575,3.429z
			 M67.052,3.429c1.066,0,1.936,0.867,1.936,1.936s-0.868,1.934-1.936,1.934c-1.068,0-1.935-0.865-1.935-1.934
			S65.984,3.429,67.052,3.429z M58.581,3.429c1.068,0,1.935,0.867,1.935,1.936s-0.865,1.934-1.935,1.934s-1.937-0.865-1.937-1.934
			S57.511,3.429,58.581,3.429z" fill="#4D84BA"/>
		<path d="M73.087,55.14c-13.043,0-23.652,10.608-23.652,23.649s10.609,23.65,23.652,23.65c13.041,0,23.651-10.609,23.651-23.65
			S86.128,55.14,73.087,55.14z M89.625,74.681c3.506,1.187,5.526,2.687,5.526,4.108c0,1.424-2.021,2.925-5.526,4.111
			c0.168-1.336,0.26-2.709,0.26-4.111C89.884,77.388,89.792,76.017,89.625,74.681z M89.361,72.919
			c-0.35-1.914-0.864-3.734-1.52-5.431c3.281,2.039,5.67,4.748,6.717,7.812C93.271,74.365,91.484,73.568,89.361,72.919z
			 M73.087,85.162c-2.154,0-4.195-0.096-6.111-0.264c-0.168-1.912-0.262-3.955-0.262-6.109c0-2.153,0.094-4.196,0.262-6.108
			c1.916-0.17,3.957-0.264,6.111-0.264c2.152,0,4.194,0.094,6.111,0.264c0.166,1.912,0.262,3.955,0.262,6.108
			c0,2.154-0.096,4.197-0.262,6.109C77.283,85.068,75.241,85.162,73.087,85.162z M79.038,86.496c-0.31,2.716-0.771,5.13-1.334,7.168
			c-1.489,0.222-3.032,0.339-4.616,0.339s-3.129-0.117-4.617-0.339c-0.563-2.038-1.025-4.452-1.334-7.168
			c1.959,0.166,3.967,0.252,5.951,0.252C75.071,86.748,77.077,86.662,79.038,86.496z M65.382,72.837
			c-0.168,1.963-0.254,3.969-0.254,5.952c0,1.984,0.086,3.99,0.254,5.953c-2.719-0.311-5.133-0.772-7.17-1.336
			c-0.219-1.489-0.339-3.033-0.339-4.617s0.12-3.127,0.339-4.616C60.25,73.611,62.664,73.147,65.382,72.837z M58.519,72.449
			c0.461-2.228,1.158-4.308,2.048-6.177c1.874-0.893,3.952-1.592,6.178-2.049c-0.536,2.133-0.938,4.521-1.21,7.011
			C63.04,71.507,60.654,71.91,58.519,72.449z M65.534,86.345c0.271,2.492,0.674,4.879,1.21,7.015
			c-2.225-0.459-4.304-1.158-6.178-2.052c-0.891-1.871-1.588-3.95-2.047-6.176C60.654,85.669,63.04,86.074,65.534,86.345z
			 M67.136,71.082c0.309-2.717,0.771-5.131,1.334-7.168c1.488-0.221,3.033-0.338,4.617-0.338s3.127,0.117,4.616,0.338
			c0.563,2.037,1.024,4.451,1.334,7.168c-1.961-0.165-3.967-0.25-5.95-0.25C71.103,70.832,69.095,70.917,67.136,71.082z
			 M79.429,64.224c2.226,0.457,4.306,1.156,6.178,2.049c0.89,1.869,1.588,3.949,2.049,6.177c-2.137-0.537-4.521-0.941-7.016-1.215
			C80.369,68.742,79.966,66.357,79.429,64.224z M80.64,86.345c2.494-0.271,4.879-0.676,7.016-1.213
			c-0.461,2.226-1.159,4.305-2.049,6.176c-1.872,0.894-3.952,1.593-6.178,2.052C79.966,91.224,80.369,88.837,80.64,86.345z
			 M80.794,84.742c0.164-1.963,0.25-3.969,0.25-5.953c0-1.983-0.086-3.989-0.25-5.952c2.715,0.311,5.129,0.772,7.166,1.336
			c0.221,1.489,0.338,3.032,0.338,4.616s-0.117,3.128-0.338,4.617C85.923,83.97,83.509,84.433,80.794,84.742z M93.421,70.226
			c-1.693-2.021-3.963-3.766-6.647-5.121c-1.358-2.684-3.104-4.957-5.122-6.649C86.942,60.693,91.185,64.937,93.421,70.226z
			 M84.388,64.037c-1.695-0.657-3.518-1.174-5.433-1.521c-0.646-2.125-1.442-3.912-2.379-5.198
			C79.64,58.365,82.347,60.753,84.388,64.037z M73.087,56.726c1.422,0,2.924,2.022,4.11,5.522c-1.336-0.166-2.711-0.258-4.11-0.258
			c-1.4,0-2.775,0.092-4.111,0.258C70.163,58.748,71.663,56.726,73.087,56.726z M67.216,62.517
			c-1.914,0.349-3.734,0.863-5.432,1.521c2.04-3.284,4.749-5.672,7.812-6.721C68.661,58.604,67.864,60.392,67.216,62.517z
			 M64.523,58.453c-2.02,1.693-3.764,3.968-5.121,6.65c-2.688,1.355-4.955,3.102-6.648,5.121
			C54.988,64.937,59.234,60.693,64.523,58.453z M58.333,67.49c-0.656,1.694-1.172,3.516-1.521,5.43
			c-2.121,0.648-3.909,1.445-5.197,2.381C52.663,72.238,55.05,69.529,58.333,67.49z M56.548,74.681
			c-0.168,1.336-0.261,2.707-0.261,4.108c0,1.402,0.093,2.775,0.261,4.111c-3.504-1.188-5.525-2.688-5.525-4.111
			C51.023,77.367,53.044,75.865,56.548,74.681z M56.812,84.66c0.351,1.912,0.865,3.734,1.521,5.431
			c-3.283-2.039-5.671-4.748-6.72-7.81C52.903,83.218,54.691,84.013,56.812,84.66z M52.751,87.354
			c1.694,2.021,3.963,3.767,6.649,5.123c1.356,2.687,3.103,4.955,5.12,6.648C59.232,96.886,54.988,92.644,52.751,87.354z
			 M61.785,93.542c1.696,0.657,3.518,1.174,5.432,1.521c0.646,2.123,1.444,3.914,2.381,5.199
			C66.534,99.214,63.825,96.824,61.785,93.542z M73.087,100.854c-1.425,0-2.925-2.022-4.111-5.522
			c1.336,0.166,2.711,0.258,4.111,0.258c1.399,0,2.774-0.092,4.11-0.258C76.011,98.83,74.509,100.854,73.087,100.854z
			 M78.956,95.063c1.915-0.348,3.736-0.862,5.433-1.521c-2.041,3.283-4.748,5.672-7.812,6.721
			C77.513,98.978,78.31,97.187,78.956,95.063z M81.652,99.126c2.02-1.693,3.764-3.964,5.122-6.648
			c2.687-1.356,4.954-3.104,6.647-5.123C91.185,92.644,86.943,96.886,81.652,99.126z M87.841,90.091
			c0.654-1.695,1.17-3.519,1.52-5.431c2.123-0.647,3.91-1.442,5.197-2.379C93.511,85.343,91.123,88.052,87.841,90.091z" fill="#4D84BA"/>
	</g>
</g>
<g>
</g>
<g>
</g>
<g>
</g>
<g>
</g>
<g>
</g>
<g>
</g>
<g>
</g>
<g>
</g>
<g>
</g>
<g>
</g>
<g>
</g>
<g>
</g>
<g>
</g>
<g>
</g>
<g>
</g>
</svg>
