<?xml version="1.0" standalone="no"?><!DOCTYPE svg PUBLIC "-//W3C//DTD SVG 1.1//EN" "http://www.w3.org/Graphics/SVG/1.1/DTD/svg11.dtd"><svg t="1536304681170" class="icon" style="" viewBox="0 0 1024 1024" version="1.1" xmlns="http://www.w3.org/2000/svg" p-id="2767" xmlns:xlink="http://www.w3.org/1999/xlink" width="48" height="48"><defs><style type="text/css"></style></defs><path d="M819.968 190.208h-58.8288v-71.68h94.6688a35.84 35.84 0 0 1 35.84 35.84v723.8656a35.84 35.84 0 0 1-35.84 35.84H178.6368a35.84 35.84 0 0 1-35.84-35.84V154.368a35.84 35.84 0 0 1 35.84-35.84h86.3744v71.68h-50.5344v652.1856h605.4912V190.208zM385.28 445.44V373.76h254.8224v71.68H385.28z m0 204.8v-71.68H547.84v71.68H385.28z m0-458.3936v-71.68h254.8224v71.68H385.28z" p-id="2768" fill="#1296db"></path></svg>