<svg id="svg5692" xmlns="http://www.w3.org/2000/svg" viewBox="0 0 16.05 15.01"><title>mIconLineLayer</title><g id="layer4"><path id="path2960" d="M1.5,4.5l4,9,5-11h4" transform="translate(0 -1)" style="fill:none;stroke:#888a85;stroke-linecap:round;stroke-linejoin:round"/><path id="path2929" d="M6.5,13.5a1,1,0,1,1-1-1A1,1,0,0,1,6.5,13.5Z" transform="translate(0 -1)" style="fill:#eeeeec;stroke:#888a85;stroke-linecap:round;stroke-linejoin:round"/><path id="path2933" d="M15.5,2.5a1,1,0,1,1-1-1A1,1,0,0,1,15.5,2.5Z" transform="translate(0 -1)" style="fill:#eeeeec;stroke:#888a85;stroke-linecap:round;stroke-linejoin:round"/><path id="path2956" d="M11.5,2.5a1,1,0,1,1-1-1A1,1,0,0,1,11.5,2.5Z" transform="translate(0 -1)" style="fill:#eeeeec;stroke:#888a85;stroke-linecap:round;stroke-linejoin:round"/><path id="path2958" d="M2.5,4.5a1,1,0,1,1-1-1A1,1,0,0,1,2.5,4.5Z" transform="translate(0 -1)" style="fill:#eeeeec;stroke:#888a85;stroke-linecap:round;stroke-linejoin:round"/></g><g style="isolation:isolate"><path d="M9.25,11.11h1.06l2.21,4.14,2.22-4.14H16v.11c-.78.07-.85.15-.82.93l.06,2.77c0,.8.06.91.85,1V16H14v-.11c.74-.05.76-.16.75-1l0-3.28h0L12.4,15.91h-.08l-2.06-4h0L10.14,14c0,.37,0,.63,0,.84,0,.75.08,1,.86,1V16h-2v-.11c.52,0,.7-.17.76-.48A10.25,10.25,0,0,0,9.9,13.9L10,12.47c0-.21,0-.38,0-.52,0-.55-.14-.66-.78-.73Z" transform="translate(0 -1)" style="fill:#1873bb;stroke:#000;stroke-miterlimit:10;stroke-width:0.029999999329447746px"/></g></svg>