<?xml version="1.0" standalone="no"?><!DOCTYPE svg PUBLIC "-//W3C//DTD SVG 1.1//EN" "http://www.w3.org/Graphics/SVG/1.1/DTD/svg11.dtd"><svg t="1534146416109" class="icon" style="" viewBox="0 0 1024 1024" version="1.1" xmlns="http://www.w3.org/2000/svg" p-id="11283" xmlns:xlink="http://www.w3.org/1999/xlink" width="48" height="48"><defs><style type="text/css"></style></defs><path d="M791.837406 780.020266l0 38.10383 76.207659 0L868.045065 94.14417 296.482505 94.14417l0 76.208683 38.10383 0 0-38.104853 495.354901 0 0 647.772266L791.837406 780.020266 791.837406 780.020266zM171.936931 216.458937l0 707.975417c0 4.419659 3.505847 8.002254 7.849782 8.002254l555.826158 0c4.381797 0 7.887644-3.543709 7.887644-8.002254L743.500515 216.458937c0-4.420683-3.505847-8.002254-7.849782-8.002254L179.785689 208.456682C175.441754 208.456682 171.936931 212.000392 171.936931 216.458937L171.936931 216.458937zM210.04076 246.560512l495.354901 0 0 647.772266-495.354901 0L210.04076 246.560512 210.04076 246.560512z" p-id="11284" fill="#1296db"></path><path d="M507.941568 489.725694c0-20.818141-6.581905-37.181831-19.73753-49.092092-13.158694-11.906168-31.064506-17.862833-53.713342-17.862833-15.989159 0-32.146141 4.082992-48.466851 12.241812-16.324804 8.162914-31.564903 19.822464-45.719274 34.976606l0-47.468105c12.655228-13.154601 27.0204-23.234167 43.095517-30.229488 16.071024-6.995321 34.933627-10.492982 56.585763-10.492982 34.976606 0 63.12162 9.368368 84.443227 28.106128 21.317515 18.73776 31.978319 44.095287 31.978319 76.073606 0 28.480658-6.537903 53.132104-19.61064 73.950246-13.07683 20.822235-35.438117 42.139749-67.080791 63.956637-32.313963 22.321378-53.924143 38.310537-64.830541 47.967478-10.910491 9.661034-18.530029 18.905582-22.859637 27.731598-4.332678 8.830109-6.495948 19.572778-6.495948 32.228005l192.369286 0 0 43.470047L324.56612 775.282359l0-19.237133c0-22.317285 3.037173-41.260729 9.118682-56.836473 6.077416-15.57165 16.114003-30.728862 30.104645-45.469588s35.80753-32.434713 65.455781-53.089126c30.311353-21.317515 51.004651-40.012296 62.082964-56.087413C502.403434 528.491603 507.941568 510.211261 507.941568 489.725694z" p-id="11285" fill="#1296db"></path></svg>