<?xml version="1.0" standalone="no"?><!DOCTYPE svg PUBLIC "-//W3C//DTD SVG 1.1//EN" "http://www.w3.org/Graphics/SVG/1.1/DTD/svg11.dtd"><svg t="1534229282605" class="icon" style="" viewBox="0 0 1024 1024" version="1.1" xmlns="http://www.w3.org/2000/svg" p-id="3753" xmlns:xlink="http://www.w3.org/1999/xlink" width="48" height="48"><defs><style type="text/css"></style></defs><path d="M512.5 381c-116.7 0-226.3-17.5-308.4-49.4C121 299.5 73.5 255.3 66.8 203.8c-0.5-4.1-0.8-8.2-0.8-12.3 0-39.2 24.2-68.8 44.4-86.7 24-21.2 57.4-39.9 99.2-55.5C291.1 18.8 398.7 2 512.5 2c113.8 0 221.4 16.8 302.9 47.2 41.8 15.6 75.2 34.3 99.2 55.5 20.3 17.9 44.4 47.5 44.4 86.7v2.1c-0.5 20.9-8.4 52.3-43.2 83.5-23 20.7-54.9 39-94.9 54.5-82.1 32-191.7 49.5-308.4 49.5z m0-307C407 74 308.4 89.2 234.8 116.7c-33.1 12.4-59.6 26.9-76.7 42-9.2 8.1-20.1 20.4-20.1 32.8 0 1 0.1 2 0.2 3 2.3 17.5 27.6 45.1 91.9 70 73 28.3 175.9 44.5 282.4 44.5 106.5 0 209.4-16.2 282.4-44.5 55.6-21.5 91.7-50 92.1-72.6v-0.7c-0.2-12.3-11-24.4-20.1-32.5-17.1-15.1-43.7-29.7-76.7-42C716.6 89.2 618 74 512.5 74zM513 1020.5c-113.8 0-221.4-16.8-302.9-47.2-41.8-15.6-75.2-34.3-99.2-55.5-20.3-17.9-44.4-47.5-44.4-86.7h72c0 12.4 10.9 24.7 20.1 32.8 17.1 15.1 43.7 29.7 76.7 42 73.6 27.5 172.2 42.7 277.7 42.7s204.1-15.2 277.7-42.7c33.1-12.4 59.6-26.9 76.7-42 9.2-8.1 20.1-20.4 20.1-32.8h72c0 39.2-24.2 68.8-44.4 86.7-24 21.2-57.4 39.9-99.2 55.5-81.5 30.4-189.1 47.2-302.9 47.2z" p-id="3754" fill="#1296db"></path><path d="M66.5 610.2h72v221.3h-72zM66.5 412.4h72v197.8h-72zM66.5 192.5h72v219.9h-72zM887.5 192.5h72v639h-72z" p-id="3755" fill="#1296db"></path><path d="M512.5 807.4c-116.6 0-226-17.5-308.1-49.3-83.2-32.2-130.8-76.5-137.5-128-0.5-4.1-0.8-8.2-0.8-12.3 0-4.1 0.3-8.2 0.8-12.3l35.6 4.7h36.1v2.3l-0.3 2.3c-0.1 1-0.2 2-0.2 2.9 0 1 0.1 2 0.2 3 2.3 17.6 27.7 45.3 92.1 70.2 72.9 28.2 175.8 44.4 282.2 44.4 106.6 0 209.6-16.3 282.6-44.6 55.8-21.7 91.9-50.3 91.9-73h72c0 21.2-7.4 53.1-42.5 85.1-23 20.9-55.1 39.4-95.3 55-82.3 32-191.9 49.6-308.8 49.6zM512.5 594.3c-116.9 0-226.6-17.6-308.8-49.5C120.9 512.6 73.5 468.4 66.8 417l-0.3-2.6c-0.3-3.2-0.5-6.5-0.5-9.7 0-4.1 0.3-8.2 0.8-12.3l71.4 9.3c-0.1 1-0.2 2-0.2 3s0.1 2 0.2 2.9v0.4c2.6 17.5 27.9 44.9 91.6 69.7 73 28.4 176 44.6 282.7 44.6 106.7 0 209.7-16.3 282.7-44.6 55.8-21.7 91.8-50.3 91.8-73h72c0 21.2-7.4 53.1-42.5 85-23 20.9-55 39.4-95.2 55-82.2 32-191.9 49.6-308.8 49.6z" p-id="3756" fill="#1296db"></path><path d="M802 405m-36 0a36 36 0 1 0 72 0 36 36 0 1 0-72 0Z" p-id="3757" fill="#1296db"></path><path d="M801.5 617.5m-36 0a36 36 0 1 0 72 0 36 36 0 1 0-72 0Z" p-id="3758" fill="#1296db"></path><path d="M801.5 829.5m-36 0a36 36 0 1 0 72 0 36 36 0 1 0-72 0Z" p-id="3759" fill="#1296db"></path></svg>