<?xml version="1.0" standalone="no"?><!DOCTYPE svg PUBLIC "-//W3C//DTD SVG 1.1//EN" "http://www.w3.org/Graphics/SVG/1.1/DTD/svg11.dtd"><svg t="1554985248414" class="icon" style="" viewBox="0 0 1024 1024" version="1.1" xmlns="http://www.w3.org/2000/svg" p-id="1777" xmlns:xlink="http://www.w3.org/1999/xlink" width="64" height="64"><defs><style type="text/css"></style></defs><path d="M921.088 102.4c-84.992-84.992-383.488 2.048-383.488 2.048l-3.072 3.072-464.896 464.896c-7.168 7.168-7.168 19.456 0 26.624l354.304 354.304c7.168 7.168 19.456 7.168 26.624 0l464.896-464.896 3.072-3.072c0 0.512 87.04-298.496 2.56-382.976z m-118.784 280.576c-45.056 45.056-117.76 45.056-162.304 0-45.056-45.056-45.056-117.76 0-162.304 45.056-45.056 117.76-45.056 162.304 0 45.056 44.544 45.056 117.248 0 162.304z" p-id="1778" fill="#1296db"></path></svg>