<?xml version="1.0" standalone="no"?><!DOCTYPE svg PUBLIC "-//W3C//DTD SVG 1.1//EN" "http://www.w3.org/Graphics/SVG/1.1/DTD/svg11.dtd"><svg t="1589355529946" class="icon" viewBox="0 0 1024 1024" version="1.1" xmlns="http://www.w3.org/2000/svg" p-id="2436" xmlns:xlink="http://www.w3.org/1999/xlink" width="200" height="200"><defs><style type="text/css"></style></defs><path d="M154.68661162 328.42831573l-1.28709316 0.64354657v364.89095508l357.81194092 188.23739678V506.36896719L154.68661162 328.42831573z" fill="#FFFFFF" p-id="2437"></path><path d="M868.37985459 328.75008945L511.21145938 140.83446552 168.52286445 321.02752959l-13.83625283 7.40078613 356.52484775 177.94065147 4.18305323-1.93064063 353.95066143-175.04469052V329.0718623l-0.96531944-0.32177285zM515.3945126 504.43832656l-4.18305323 1.93064063 4.18305323-1.93064063z" fill="#91D5FF" p-id="2438"></path><path d="M939.8135331 294.32034336a59.84983916 59.84983916 0 0 0-25.42009307-26.70718623L538.56219219 68.75723955a58.88451885 58.88451885 0 0 0-54.70146563 0L108.35125244 266.32606396a58.24097227 58.24097227 0 0 0-15.44511973 13.83625284 64.35466612 64.35466612 0 0 0-9.65320049 12.54915966 59.84983916 59.84983916 0 0 0-6.43546581 25.7418668v386.12799405a59.20629258 59.20629258 0 0 0 32.17733261 52.1272793l375.50947413 197.56882352a59.20629258 59.20629258 0 0 0 26.70718622 7.72255987h4.50482696a56.31033252 56.31033252 0 0 0 22.84590586-6.11369297l375.509475-197.56882441a59.20629258 59.20629258 0 0 0 32.17733261-52.12727842V318.45334326a56.63210625 56.63210625 0 0 0-6.4354667-24.1329999z m-70.46835908 35.07329268l-353.95066142 175.04469052-4.18305323 2.25241348v375.50947412L153.07774472 693.96281739V329.0718623l13.83625284-7.40078613 344.29746182-180.83661064 357.16839521 187.91562392z" fill="#40A9FF" p-id="2439"></path></svg>