<svg id="图层_1" data-name="图层 1" xmlns="http://www.w3.org/2000/svg" viewBox="0 0 32 32"><title>画板 69</title><rect x="5" y="25" width="2" height="2" style="fill:gray"/><path d="M23,7h2V9H23ZM21,9h2v2H21Zm-2,2h2v2H19Zm-2,2h2v2H17Zm-2,2h2v2H15Zm-2,2h2v2H13Zm-2,2h2v2H11ZM9,21h2v2H9ZM7,23H9v2H7ZM5.29,24.57" style="fill:gray"/><path d="M12,16a4,4,0,1,0,4-4,4,4,0,0,0-4,4Zm0,0" style="fill:#5da58e"/><rect x="25" y="5" width="2" height="2" style="fill:gray"/><path d="M25,4a3,3,0,1,0,3-3,3,3,0,0,0-3,3Zm0,0" style="fill:#eec97f"/><path d="M1,28a3,3,0,1,0,3-3,3,3,0,0,0-3,3Zm0,0" style="fill:#eec97f"/><path d="M28.24,23.74c0-.21.07-.42.07-.7a2.13,2.13,0,0,0-.07-.7l1.5-1.2a.33.33,0,0,0,.07-.42l-1.43-2.46a.41.41,0,0,0-.43-.07l-1.79.7a6.87,6.87,0,0,0-1.21-.7l-.29-1.83c.07-.21-.14-.35-.29-.35H21.53c-.14,0-.36.14-.36.28l-.29,1.9a5.41,5.41,0,0,0-1.21.7L18,18.18a.45.45,0,0,0-.5.14L16,20.78c-.07.07,0,.28.14.42l1.5,1.13c0,.21-.07.42-.07.7a2.15,2.15,0,0,0,.07.7l-1.5,1.2a.33.33,0,0,0-.07.42l1.43,2.46a.4.4,0,0,0,.43.07l1.79-.7a6.81,6.81,0,0,0,1.21.7l.29,1.83a.33.33,0,0,0,.36.28h2.86c.14,0,.36-.14.36-.28l.29-1.83a6.84,6.84,0,0,0,1.21-.7l1.79.7a.35.35,0,0,0,.43-.14L30,25.29c.07-.14.07-.35-.07-.42ZM23,25.5A2.46,2.46,0,1,1,25.45,23,2.51,2.51,0,0,1,23,25.5" style="fill:#4d84ba"/></svg>