<svg id="图层_1" data-name="图层 1" xmlns="http://www.w3.org/2000/svg" viewBox="0 0 16 16"><title>画板 1</title><path d="M13.09,5.57a5.22,5.22,0,0,0,.06-.66c-.5-.07-1.08-.05-1.3.31-.44.7.42,2.4.79,3.13.09.19.16.32.19.41a2.42,2.42,0,0,0,.11.25,3.43,3.43,0,0,0,.12-1.78A6.46,6.46,0,0,1,13,6.34a6.72,6.72,0,0,1,.08-.78Zm-.24-.14a.61.61,0,0,1-.32.15h-.06A.47.47,0,0,1,12,5.34c0-.12.21-.2.44-.23h.15c.2,0,.34.05.35.13a.28.28,0,0,1-.12.2ZM10,.15A8.32,8.32,0,0,1,11.72,0a5.15,5.15,0,0,1,4,1.76c.73.87-.07,4.83-2.42,8.24l-.07-.08,0,0a3.6,3.6,0,0,0,.38-2.65,5.9,5.9,0,0,1-.07-.94,6.22,6.22,0,0,1,.1-.84,4.92,4.92,0,0,0,.09-1,.39.39,0,0,0,0-.15,5.7,5.7,0,0,0-1.44-2.51A6.46,6.46,0,0,0,10,.15Zm-5.72,9,.16.15c-.22.24-.71.76-1.23,1.38-.37.44-.62.35-.7.32C2,10.8,1.35,9.66.79,7.87A20.08,20.08,0,0,1,0,4.31,3.08,3.08,0,0,1,1,1.44C2.22.6,4.2,1.1,5,1.36l0,0A5.55,5.55,0,0,0,3.69,5.06c0,.05,0,.13,0,.23a9.11,9.11,0,0,1,0,1.86,2.34,2.34,0,0,0,.63,2Zm8.6.71c-.29.08-.8.26-.75,1.17,0,.46-.31,2.59-.44,3.35-.18,1-.57,1.37-1.65,1.59A1.37,1.37,0,0,1,8.26,15a18.36,18.36,0,0,1-.19-4.23.22.22,0,0,0,0-.08,1,1,0,0,0,0-.14,1,1,0,0,0-.56-.64.93.93,0,0,0-.35-.08L7,9.86a5.74,5.74,0,0,1,.22-.63l0-.1c0-.11.1-.22.15-.34a4.69,4.69,0,0,0,.27-3.53,1.32,1.32,0,0,0-1.6-1,3.81,3.81,0,0,0-1.22.36l-.14.07A4.94,4.94,0,0,1,5.91,1.61,3.13,3.13,0,0,1,8.22.78,5,5,0,0,1,12,2.49a5.36,5.36,0,0,1,1,1.67,2,2,0,0,0-1.92.53c-.71,1,.39,2.85.92,3.75.1.17.18.31.21.37a3.33,3.33,0,0,0,.56.86l.13.17Zm-5.45,1a.36.36,0,0,1,0,.32,2,2,0,0,1-1.7.82A3.24,3.24,0,0,1,5,11.91a1.25,1.25,0,0,1-.36-.15A1.86,1.86,0,0,1,5,11.65c1-.19,1.14-.32,1.47-.72l.28-.32A.37.37,0,0,1,7,10.47a.5.5,0,0,1,.17,0,.55.55,0,0,1,.28.34Zm8.49-.32h0a3,3,0,0,1-.78.48,4.12,4.12,0,0,1-1.34.27,1.75,1.75,0,0,1-.9-.11c0-.61.21-.67.46-.74l.12,0,.08.05a3.47,3.47,0,0,0,2.36.09ZM6.44,8.46l0-.08c0-.1.09-.19.15-.3a3,3,0,0,0,.21-2.56A.63.63,0,0,0,6.3,5a2.8,2.8,0,0,0-1.69.42v.12a6.92,6.92,0,0,1-.05,1.65,1.46,1.46,0,0,0,.5,1.35A1.75,1.75,0,0,0,6.23,9a4.52,4.52,0,0,1,.21-.54ZM5.49,5.74a.34.34,0,0,1-.1-.24c0-.13.19-.21.47-.21H6c.29,0,.6.16.57.35A.6.6,0,0,1,6,6H6a.76.76,0,0,1-.47-.26Zm9.9,5.75" style="fill:#4d84ba"/></svg>