<?xml version="1.0" standalone="no"?><!DOCTYPE svg PUBLIC "-//W3C//DTD SVG 1.1//EN" "http://www.w3.org/Graphics/SVG/1.1/DTD/svg11.dtd"><svg t="1576823675755" class="icon" viewBox="0 0 1024 1024" version="1.1" xmlns="http://www.w3.org/2000/svg" p-id="2721" xmlns:xlink="http://www.w3.org/1999/xlink" width="200" height="200"><defs><style type="text/css"></style></defs><path d="M548.571429 950.857143h158.610285v36.571428H329.142857v-36.571428h182.857143v-146.285714h36.571429v146.285714z m367.177142-147.492572H109.421714C48.310857 803.364571 0 749.165714 0 683.885714V119.552C0 52.772571 49.590857 0 109.385143 0h805.12c61.074286 0 109.385143 54.198857 109.385143 119.515429v564.297142c1.28 65.353143-48.310857 119.588571-108.105143 119.588572zM209.846857 548.571429h52.882286v-111.250286h109.275428v-44.251429H262.692571V331.044571h126.610286V286.793143H209.810286V548.571429z m281.965714 0h52.882286V331.081143h77.494857V286.793143h-208.054857v44.251428h77.677714V548.571429z m164.461715 0h52.882285v-98.742858h34.450286c23.917714 0 42.203429-1.243429 54.857143-3.766857 9.252571-2.011429 18.395429-6.144 27.392-12.434285 8.96-6.217143 16.384-14.811429 22.198857-25.782858 5.851429-10.971429 8.777143-24.466286 8.777143-40.521142 0-20.845714-5.083429-37.814857-15.177143-50.980572a68.644571 68.644571 0 0 0-37.668571-25.6c-9.801143-2.633143-30.72-3.949714-62.902857-3.949714h-84.809143V548.571429z m52.882285-217.490286h25.526858c19.017143 0 31.707429 0.585143 38.034285 1.792a36.571429 36.571429 0 0 1 21.248 11.593143c5.595429 6.217143 8.411429 14.043429 8.411429 23.552a35.181714 35.181714 0 0 1-5.997714 20.370285 34.706286 34.706286 0 0 1-16.530286 12.873143c-7.021714 2.742857-20.955429 4.096-41.764572 4.096h-28.928V331.081143z" p-id="2722"></path></svg>