<?xml version="1.0" standalone="no"?><!DOCTYPE svg PUBLIC "-//W3C//DTD SVG 1.1//EN" "http://www.w3.org/Graphics/SVG/1.1/DTD/svg11.dtd"><svg t="1571293882759" class="icon" viewBox="0 0 1024 1024" version="1.1" xmlns="http://www.w3.org/2000/svg" p-id="2580" xmlns:xlink="http://www.w3.org/1999/xlink" width="200" height="200"><defs><style type="text/css"></style></defs><path d="M320 64A256 256 0 0 0 64 320c0 192 256 448 256 448s256-256 256-448A256 256 0 0 0 320 64z m0 400a144 144 0 1 1 144-144 144 144 0 0 1-144 144zM832 416a128 128 0 0 0-128 128c0 96 128 224 128 224s128-128 128-224a128 128 0 0 0-128-128z m0 192a64 64 0 1 1 64-64 64 64 0 0 1-64 64zM848 928a32 32 0 0 1-32 32H336a32 32 0 0 1 0-64h480a32 32 0 0 1 32 32z" p-id="2581" fill="#1296db"></path></svg>