<?xml version="1.0" standalone="no"?><!DOCTYPE svg PUBLIC "-//W3C//DTD SVG 1.1//EN" "http://www.w3.org/Graphics/SVG/1.1/DTD/svg11.dtd"><svg t="1574669216481" class="icon" viewBox="0 0 1024 1024" version="1.1" xmlns="http://www.w3.org/2000/svg" p-id="2696" xmlns:xlink="http://www.w3.org/1999/xlink" width="200" height="200"><defs><style type="text/css"></style></defs><path d="M799.552 320.256H609.344C593.92 320.256 576 303.232 576 287.808l-0.64-159.872-29.824-0.256V64H120.64a56.192 56.192 0 0 0-56 56v784c0 30.784 25.216 56 56 56h327.232v-64.32H155.008c-15.36 0-27.968-15.808-27.968-31.232V163.328c0-15.424 16.448-33.728 31.808-33.728h352.32l0.192 208.384a46.72 46.72 0 0 0 46.656 46.656h241.792l-0.256-64.384z" p-id="2697" fill="#1296db"></path><path d="M777.856 374.848L524.16 118.592a32 32 0 0 1 45.248-45.248l253.696 256.256a32.128 32.128 0 0 1 0 45.248 32.128 32.128 0 0 1-45.248 0zM415.168 320H223.232a32.064 32.064 0 0 1-32-32c0-17.6 14.4-32 32-32h191.936a32 32 0 0 1 0 64zM421.632 512h-198.4a32.064 32.064 0 0 1-32-32c0-17.6 14.4-32 32-32h198.4c17.6 0 32 14.4 32 32s-14.4 32-32 32zM357.632 704h-134.4a32.064 32.064 0 0 1-32-32c0-17.6 14.4-32 32-32h134.4c17.6 0 32 14.4 32 32s-14.4 32-32 32zM769.024 521.92c25.92 8.448 49.344 21.888 69.12 39.68-7.808 20.8-6.976 44.736 5.056 65.472 12.096 20.992 32.64 33.728 54.848 37.184a188.416 188.416 0 0 1 0 79.424 76.16 76.16 0 0 0-55.04 37.248 76.352 76.352 0 0 0-4.992 65.6 190.528 190.528 0 0 1-68.992 39.552 76.416 76.416 0 0 0-59.072-28.224c-23.936 0-44.992 11.136-59.136 28.224a191.744 191.744 0 0 1-69.12-39.68 76.352 76.352 0 0 0-5.056-65.472 76.288 76.288 0 0 0-54.848-37.184 193.216 193.216 0 0 1-4.224-39.68c0-13.632 1.536-26.88 4.224-39.744 22.144-3.52 42.624-16.256 54.72-37.184 11.968-20.736 12.864-44.608 5.056-65.344 19.776-17.856 43.264-31.36 69.248-39.808 14.08 17.088 35.2 28.224 59.136 28.224 23.872-0.064 44.992-11.2 59.072-28.288m-118.208-64c-6.592 0-13.248 1.024-19.776 3.136a254.08 254.08 0 0 0-92.352 53.12 64 64 0 0 0-17.024 70.016 12.544 12.544 0 0 1-0.576 10.944 12.608 12.608 0 0 1-9.28 5.888 64 64 0 0 0-52.608 50.048 257.344 257.344 0 0 0 0 105.792c5.44 26.048 26.496 45.952 52.8 50.112a12.736 12.736 0 0 1 9.344 5.952 12.544 12.544 0 0 1 0.576 10.944 64 64 0 0 0 17.088 70.08c26.56 23.936 57.6 41.792 92.16 52.992a64.128 64.128 0 0 0 69.184-20.16 12.608 12.608 0 0 1 9.728-4.928c4.672 0 7.872 2.688 9.728 4.928a64.064 64.064 0 0 0 69.184 20.16 253.312 253.312 0 0 0 91.968-52.864 63.936 63.936 0 0 0 17.088-70.208 12.544 12.544 0 0 1 0.576-10.944 12.608 12.608 0 0 1 9.344-5.952 64 64 0 0 0 52.928-50.112 256.256 256.256 0 0 0 0-105.728 63.936 63.936 0 0 0-52.736-50.048 12.736 12.736 0 0 1-9.344-5.952 12.8 12.8 0 0 1-0.576-10.944 64 64 0 0 0-17.088-70.08 252.928 252.928 0 0 0-92.16-52.992 64.128 64.128 0 0 0-69.184 20.16 12.608 12.608 0 0 1-9.728 4.928 12.608 12.608 0 0 1-9.728-4.928 64.384 64.384 0 0 0-49.536-23.36z" p-id="2698" fill="#1296db"></path><path d="M709.76 672a32 32 0 1 1 0 64 32 32 0 0 1 0-64m0-64c-52.928 0-96 43.072-96 96s43.072 96 96 96 96-43.072 96-96-43.072-96-96-96z" p-id="2699" fill="#1296db"></path><path d="M448.256 928m-32 0a32 32 0 1 0 64 0 32 32 0 1 0-64 0Z" p-id="2700" fill="#1296db"></path></svg>