<svg id="图层_1" data-name="图层 1" xmlns="http://www.w3.org/2000/svg" viewBox="0 0 32 32"><title>画板 64 副本 4</title><polygon points="1.5 30.5 1.5 1.5 17.79 1.5 24.5 8.21 24.5 30.5 1.5 30.5" style="fill:#fff"/><path d="M17.59,2,24,8.41V30H2V2H17.59M18,1H1V31H25V8L18,1Z" style="fill:gray"/><polygon points="1.5 30.5 1.5 1.5 17.5 1.5 17.5 8.5 24.5 8.5 24.5 30.5 1.5 30.5" style="fill:#fff"/><path d="M17,2V9h7V30H2V2H17m1-1H1V31H25V8H18V1Z" style="fill:gray"/><rect x="4" y="17" width="18" height="1" style="fill:#b1b1b1"/><rect x="4" y="21" width="18" height="1" style="fill:#b1b1b1"/><rect x="4" y="25" width="18" height="1" style="fill:#b1b1b1"/><rect x="4" y="13" width="18" height="1" style="fill:#b1b1b1"/><rect x="4" y="6" width="10" height="3" style="fill:#de673e"/><path d="M29.24,24.74c0-.21.07-.42.07-.7a2.13,2.13,0,0,0-.07-.7l1.5-1.2a.33.33,0,0,0,.07-.42l-1.43-2.46a.41.41,0,0,0-.43-.07l-1.79.7a6.87,6.87,0,0,0-1.21-.7l-.29-1.83c.07-.21-.14-.35-.29-.35H22.53c-.14,0-.36.14-.36.28l-.29,1.9a5.41,5.41,0,0,0-1.21.7L19,19.18a.45.45,0,0,0-.5.14L17,21.78c-.07.07,0,.28.14.42l1.5,1.13c0,.21-.07.42-.07.7a2.15,2.15,0,0,0,.07.7l-1.5,1.2a.33.33,0,0,0-.07.42l1.43,2.46a.4.4,0,0,0,.43.07l1.79-.7a6.81,6.81,0,0,0,1.21.7l.29,1.83a.33.33,0,0,0,.36.28h2.86c.14,0,.36-.14.36-.28l.29-1.83a6.84,6.84,0,0,0,1.21-.7l1.79.7a.35.35,0,0,0,.43-.14L31,26.29c.07-.14.07-.35-.07-.42ZM24,26.5A2.46,2.46,0,1,1,26.45,24,2.51,2.51,0,0,1,24,26.5" style="fill:#4d84ba"/><circle cx="24" cy="24" r="3" style="fill:#fff"/></svg>