<svg id="图层_1" data-name="图层 1" xmlns="http://www.w3.org/2000/svg" viewBox="0 0 16 16"><title>画板 5</title><polygon points="0.5 13.5 0.5 1.5 11.5 1.5 11.42 13.5 0.5 13.5" style="fill:#fff"/><path d="M11,2l-.07,11H1V2H11m1-1H0V14H11.92L12,1Z" style="fill:gray"/><rect x="3.5" y="0.5" width="5" height="2" style="fill:#fff"/><path d="M8,1V2H4V1H8M9,0H3V3H9V0Z" style="fill:gray"/><polygon points="7.5 15.5 7.5 4.5 15.5 4.5 15.5 12.79 12.79 15.5 7.5 15.5" style="fill:#fff"/><path d="M15,5v7.59L12.59,15H8V5h7m1-1H7V16h6l3-3V4Z" style="fill:gray"/><polygon points="6.5 15.5 6.5 4.5 15.5 4.5 15.5 12.5 12.42 12.5 12.42 15.5 6.5 15.5" style="fill:#fff"/><path d="M15,5v7H11.92v3H7V5h8m1-1H6V16h6.92V13H16V4Z" style="fill:gray"/></svg>