<?xml version="1.0" standalone="no"?><!DOCTYPE svg PUBLIC "-//W3C//DTD SVG 1.1//EN" "http://www.w3.org/Graphics/SVG/1.1/DTD/svg11.dtd"><svg t="1527488001170" class="icon" style="" viewBox="0 0 1024 1024" version="1.1" xmlns="http://www.w3.org/2000/svg" p-id="5557" xmlns:xlink="http://www.w3.org/1999/xlink" width="20" height="20"><defs><style type="text/css"></style></defs><path d="M822.81984 281.84064H419.42016c-34.90304 0-69.81632 27.31008-69.81632 70.2208v499.32288c0 35.10272 27.15648 70.21568 69.81632 70.21568h290.91328L896.512 730.45504V352.06144c-3.87584-35.10784-31.0272-70.2208-73.69216-70.2208zM690.93888 870.89152V714.84928H842.20928L690.93888 870.89152z m155.15136-202.8544H644.39296v202.8544h-224.9728c-11.62752 0-23.2704-11.70432-23.2704-23.40864V352.06144c0-11.70432 11.64288-23.40352 23.2704-23.40352h403.39968c11.63264 0 23.2704 11.6992 23.2704 23.40352v315.97568z m-69.82144-269.16864H465.9712v46.81216h310.2976V398.86848z m-217.21088-163.84v-39.00416h89.21088c11.63776 0 23.27552 11.6992 23.27552 23.40352V266.24h46.54592v-54.60992c0-35.11296-27.15136-70.2208-69.82144-70.2208H555.18208V102.4H283.66336v46.81216h-85.32992c-34.90816 0-69.82144 27.30496-69.82144 70.21568V718.7456c0 35.11296 27.15648 70.2208 69.82144 70.2208h93.08672V742.15424h-93.08672c-11.63264 0-23.2704-11.70432-23.2704-23.40352v-507.12576c0-11.70432 11.63776-23.40864 23.2704-23.40864h93.08672v46.81216h267.63776zM465.9712 625.1264h224.96768V578.31424H465.9712v46.81216z m0-93.6192h314.17856v-46.81216H465.9712v46.81216z" fill="#1296db" p-id="5558"></path></svg>