<svg id="图层_1" data-name="图层 1" xmlns="http://www.w3.org/2000/svg" viewBox="0 0 32 32"><title>画板 1</title><rect x="1.5" y="1.5" width="29" height="29" rx="0.5" ry="0.5" style="fill:#fff"/><path d="M30,2V30H2V2H30m0-1H2A1,1,0,0,0,1,2V30a1,1,0,0,0,1,1H30a1,1,0,0,0,1-1V2a1,1,0,0,0-1-1Z" style="fill:gray"/><rect x="4" y="4" width="6" height="6" style="fill:#eec97f"/><rect x="6" y="10" width="2" height="16" style="fill:#eec97f"/><rect x="7" y="16" width="10" height="2" style="fill:#eec97f"/><rect x="7" y="24" width="10" height="2" style="fill:#eec97f"/><rect x="19" y="14" width="9" height="5" style="fill:#5da58e"/><rect x="12" y="4" width="16" height="6" style="fill:#4d84ba"/><rect x="19" y="23" width="9" height="5" style="fill:#5da58e"/></svg>