<svg id="图层_1" data-name="图层 1" xmlns="http://www.w3.org/2000/svg" viewBox="0 0 32 32"><title>画板 74</title><path d="M2,19.34l.87.73.42.35L4,21l.24.2.06.05.51.43.51.42,1.47-1.43-1,1.83.55.46.39.33.52.43.39.33h0l.49.41.36.3.67.56.2.16.39.32.5.42,1.24-1.66-.71,2.1,0,0,.44.3.18.21.3.25.45.37.41.34s1.1-.37.49.41l.62.52.59.49.46.38.56.45,0,.05L16,31l6.55-7.34L8.34,11.8Z" style="fill:#5da58e"/><path d="M23.64,16.58c-1.61-1.35-.17-3.3.49-4.41L29.28,6a3.08,3.08,0,0,0-4.72-4L19.41,8.22c-1,.84-2.65,2.6-4.27,1.25C12.3,7.09,10.71,9,10.71,9L9.13,10.86,23.3,22.72l1.59-1.89C26.47,19,23.64,16.58,23.64,16.58Z" style="fill:#5da58e"/><rect x="26" y="3" width="2" height="2" rx="0.98" ry="0.98" style="fill:#fff"/></svg>