<svg id="图层_1" data-name="图层 1" xmlns="http://www.w3.org/2000/svg" viewBox="0 0 32 32"><title>画板 3</title><path d="M14.46,20.13s-2,4.92,2,4.92,4,1,4.94,3" style="fill:none;stroke:gray;stroke-linecap:round;stroke-miterlimit:10;stroke-width:2px"/><rect x="1.5" y="3.5" width="29" height="16" rx="1.48" ry="1.48" style="fill:#fff"/><path d="M29,4a1,1,0,0,1,1,1V18a1,1,0,0,1-1,1H3a1,1,0,0,1-1-1V5A1,1,0,0,1,3,4H29m0-1H3A2,2,0,0,0,1,5V18a2,2,0,0,0,2,2H29a2,2,0,0,0,2-2V5a2,2,0,0,0-2-2Z" style="fill:gray"/><rect x="3" y="6" width="3" height="3" style="fill:#4d84ba"/><rect x="7.6" y="6" width="3" height="3" style="fill:#4d84ba"/><rect x="12.2" y="6" width="3" height="3" style="fill:#4d84ba"/><rect x="16.8" y="6" width="3" height="3" style="fill:#4d84ba"/><rect x="21.4" y="6" width="3" height="3" style="fill:#4d84ba"/><rect x="3" y="10" width="3" height="3" style="fill:#4d84ba"/><rect x="7.6" y="10" width="3" height="3" style="fill:#4d84ba"/><rect x="12.2" y="10" width="3" height="3" style="fill:#4d84ba"/><rect x="16.8" y="10" width="3" height="3" style="fill:#4d84ba"/><rect x="21.4" y="10" width="7.6" height="3" style="fill:#4d84ba"/><rect x="3" y="14" width="3" height="3" style="fill:#4d84ba"/><rect x="7.6" y="14" width="16.4" height="3" style="fill:#4d84ba"/><rect x="26" y="14" width="3" height="3" style="fill:#4d84ba"/><rect x="26" y="6" width="3" height="7" style="fill:#4d84ba"/></svg>