<?xml version="1.0" standalone="no"?><!DOCTYPE svg PUBLIC "-//W3C//DTD SVG 1.1//EN" "http://www.w3.org/Graphics/SVG/1.1/DTD/svg11.dtd"><svg t="1602602548433" class="icon" viewBox="0 0 1024 1024" version="1.1" xmlns="http://www.w3.org/2000/svg" p-id="18030" xmlns:xlink="http://www.w3.org/1999/xlink" width="200" height="200"><defs><style type="text/css"></style></defs><path d="M832 64 192 64C121.6 64 64 121.6 64 192l0 512c0 70.4 57.6 128 128 128l128 0 132.096 120.448C459.072 957.632 466.88 960 474.432 960 493.824 960 512 944.704 512 922.496L512 832l320 0c70.4 0 128-57.6 128-128L960 192C960 121.6 902.4 64 832 64zM896 704c0 35.328-28.672 64-64 64L512 768c-16.96 0-33.28 6.72-45.248 18.752S448 815.04 448 832l0 30.08-84.864-77.376C351.296 773.952 335.936 768 320 768L192 768c-35.328 0-64-28.672-64-64L128 192c0-35.328 28.672-64 64-64l640 0c35.328 0 64 28.672 64 64L896 704zM736 320l-448 0C270.336 320 256 334.336 256 352S270.336 384 288 384l448 0C753.664 384 768 369.664 768 352S753.664 320 736 320zM736 512l-448 0C270.336 512 256 526.336 256 544S270.336 576 288 576l448 0C753.664 576 768 561.664 768 544S753.664 512 736 512z" p-id="18031" fill="#1296db"></path></svg>