<?xml version="1.0" standalone="no"?><!DOCTYPE svg PUBLIC "-//W3C//DTD SVG 1.1//EN" "http://www.w3.org/Graphics/SVG/1.1/DTD/svg11.dtd"><svg t="1602603008249" class="icon" viewBox="0 0 1026 1024" version="1.1" xmlns="http://www.w3.org/2000/svg" p-id="21954" xmlns:xlink="http://www.w3.org/1999/xlink" width="200.390625" height="200"><defs><style type="text/css"></style></defs><path d="M1024 287.288889C1026.844444 238.933333 998.4 196.266667 941.511111 176.355556L514.844444 14.222222C426.666667-19.911111 304.355556 11.377778 241.777778 82.488889l-207.644445 236.088889c-28.444444 31.288889-39.822222 65.422222-34.133333 96.711111V560.355556c34.133333-25.6 76.8-39.822222 125.155556-39.822223l384 145.066667h2.844444v204.8l-76.8-28.444444c-17.066667 42.666667-48.355556 79.644444-85.333333 105.244444l162.133333 59.733333c22.755556 8.533333 51.2 14.222222 76.8 14.222223h11.377778c5.688889 0 11.377778 0 17.066666-2.844445 62.577778-5.688889 128-34.133333 164.977778-79.644444l207.644445-236.088889c14.222222-11.377778 36.977778-48.355556 36.977777-76.8l-2.844444-338.488889z m-466.488889 261.688889L164.977778 403.911111c-28.444444-8.533333-17.066667-31.288889-14.222222-34.133333l85.333333-91.022222 483.555555 207.644444-31.288888 31.288889c-25.6 28.444444-91.022222 45.511111-130.844445 31.288889z m179.2 253.155555l-48.355555 56.888889-2.844445 2.844445v-196.266667c17.066667-5.688889 36.977778-14.222222 51.2-25.6v162.133333zM310.044444 199.111111l31.288889-31.288889c25.6-31.288889 91.022222-45.511111 130.844445-31.288889l403.911111 156.444445c22.755556 11.377778 2.844444 25.6 0 28.444444l-82.488889 85.333334-483.555556-207.644445z m580.266667 369.777778c0 34.133333-2.844444 62.577778-2.844444 65.422222l-48.355556 54.044445v-150.755556l51.2-56.888889V568.888889z" fill="#1296db" p-id="21955"></path><path d="M150.755556 987.022222c11.377778 14.222222 31.288889 17.066667 42.666666 5.688889l176.355556-164.977778c14.222222-14.222222 14.222222-39.822222 0-54.044444s-39.822222-14.222222-54.044445 0l-105.244444 96.711111v-250.311111c0-19.911111-14.222222-45.511111-42.666667-45.511111s-34.133333 17.066667-34.133333 34.133333v250.311111l-76.8-93.866666c-17.066667-14.222222-36.977778 0-42.666667 5.688888-8.533333 11.377778-8.533333 31.288889 0 42.666667l136.533334 173.511111z" fill="#1296db" p-id="21956"></path></svg>