<?xml version="1.0" standalone="no"?><!DOCTYPE svg PUBLIC "-//W3C//DTD SVG 1.1//EN" "http://www.w3.org/Graphics/SVG/1.1/DTD/svg11.dtd"><svg class="icon" width="1024px" height="723.65px" viewBox="0 0 1449 1024" version="1.1" xmlns="http://www.w3.org/2000/svg"><path d="M1123.129902 330.833813C927.096035 95.844322 545.318532 23.418788 333.371106 274.626314c-114.849079 136.12966 22.754791 140.708829 119.392125 111.302029 95.56565-29.212418 156.792689 56.30555 60.136433 119.18226C162.085741 733.2365 528.716893 895.858944 789.643543 919.859159 1133.139739 951.412767 1319.165489 565.859427 1123.129902 330.833813L1123.129902 330.833813 1123.129902 330.833813zM555.957963 299.681011c-34.545034-23.981293-43.650047-68.033866-20.282865-98.266362 23.405026-30.192931 70.31657-35.233114 104.863325-11.176132 34.50547 24.077624 43.474587 68.111275 20.126327 98.343771C637.356054 318.794141 590.427308 323.856686 555.957963 299.681011L555.957963 299.681011 555.957963 299.681011zM748.867948 320.00172c-10.004677-47.639188 17.752453-96.771509 62.131864-109.636877 44.436178-12.996103 88.507674 15.127429 98.612122 62.611799 9.968553 47.637468-17.884908 96.733665-62.149066 109.635157C803.104099 395.609622 758.839941 367.642629 748.867948 320.00172L748.867948 320.00172 748.867948 320.00172zM582.738019 757.489585c-48.057197-22.756511-68.764951-73.349281-46.373122-112.894933 22.390109-39.624782 79.595323-53.310684 127.674882-30.540411 47.905819 22.716947 68.6669 73.270152 46.235506 112.896654C687.850773 766.534391 630.802096 780.165247 582.738019 757.489585L582.738019 757.489585 582.738019 757.489585zM980.888375 449.862975c-20.245021-24.941164-14.301734-63.375568 13.224889-85.750195 27.58683-22.388389 66.444403-20.341352 86.689423 4.603252 20.282865 24.937723 14.301734 63.298159-13.304018 85.748475C1039.930762 476.832254 1001.16952 474.823061 980.888375 449.862975L980.888375 449.862975 980.888375 449.862975zM1030.767262 695.835936c-31.342024-16.235237-37.496896-60.998253-13.876845-99.934955 23.69402-38.991748 68.283295-57.473565 99.683806-41.215966 31.286978 16.144067 37.477973 60.962129 13.919849 99.89539C1106.739847 693.615159 1062.22798 711.940438 1030.767262 695.835936L1030.767262 695.835936 1030.767262 695.835936zM1030.767262 695.835936" fill="#3680c3" /></svg>