<?xml version="1.0" standalone="no"?><!DOCTYPE svg PUBLIC "-//W3C//DTD SVG 1.1//EN" "http://www.w3.org/Graphics/SVG/1.1/DTD/svg11.dtd"><svg t="1602602252050" class="icon" viewBox="0 0 1024 1024" version="1.1" xmlns="http://www.w3.org/2000/svg" p-id="14592" xmlns:xlink="http://www.w3.org/1999/xlink" width="200" height="200"><defs><style type="text/css"></style></defs><path d="M832 256l-192 0L640 192 448 0 0 0l0 768 384 0 0 256 640 0L1024 448 832 256zM832 346.496 933.504 448 832 448 832 346.496zM448 90.496 549.504 192 448 192 448 90.496zM64 64l320 0 0 192 192 0 0 448L64 704 64 64zM960 960 448 960l0-192 192 0L640 320l128 0 0 192 192 0L960 960z" p-id="14593" fill="#1296db"></path></svg>