<?xml version="1.0" standalone="no"?><!DOCTYPE svg PUBLIC "-//W3C//DTD SVG 1.1//EN" "http://www.w3.org/Graphics/SVG/1.1/DTD/svg11.dtd"><svg t="1548303265139" class="icon" style="" viewBox="0 0 1024 1024" version="1.1" xmlns="http://www.w3.org/2000/svg" p-id="11271" xmlns:xlink="http://www.w3.org/1999/xlink" width="64" height="64"><defs><style type="text/css"></style></defs><path d="M836.701945 208.351119H113.720367c-18.770202 0-31.28367-12.513468-31.28367-31.283669 0-18.779596 12.513468-31.28367 31.28367-31.28367h719.853211c18.770202 0 31.293064 12.513468 31.293064 31.28367 0.009394 18.770202-12.513468 31.28367-28.164697 31.283669zM360.156771 546.571743H113.720367c-18.770202 0-31.28367-12.522862-31.28367-31.293064 0-18.760807 12.513468-31.28367 31.28367-31.28367h249.555376c18.779596 0 31.293064 12.522862 31.293064 31.28367 0 18.770202-15.641835 31.293064-34.412036 31.293064zM944.926532 831.807413L844.302092 729.73622a216.045211 216.045211 0 0 0 54.995376-144.412183c0-118.098202-94.057688-214.344807-210.004551-214.344808-115.937468 0-210.00455 96.246606-210.00455 214.344808 0 118.13578 94.076477 214.39178 210.00455 214.39178 38.958972 0 75.381431-10.953982 106.665101-29.865101l102.155743 103.621284c13.161688 13.377761 33.068624 15.745174 46.436991 2.574092 13.39655-13.152294 13.537468-30.851523 0.37578-44.238679zM539.478899 585.324037c0-84.747743 67.029725-153.722128 149.814018-153.722129 82.793688 0 149.823413 68.98378 149.823413 153.722129 0 84.766532-67.029725 153.769101-149.823413 153.769101-82.784294 0-149.814018-69.002569-149.814018-153.769101zM394.568807 884.811156H113.720367c-18.770202 0-31.28367-12.513468-31.28367-31.293064 0-18.770202 12.513468-31.274275 31.28367-31.274275h280.84844c18.779596 0 31.28367 12.504073 31.28367 31.274275 0.009394 18.779596-12.504073 31.293064-31.28367 31.293064z" p-id="11272" fill="#bfbfbf"></path></svg>