<?xml version="1.0" standalone="no"?><!DOCTYPE svg PUBLIC "-//W3C//DTD SVG 1.1//EN" "http://www.w3.org/Graphics/SVG/1.1/DTD/svg11.dtd"><svg t="1585037552899" class="icon" viewBox="0 0 1024 1024" version="1.1" xmlns="http://www.w3.org/2000/svg" p-id="12340" xmlns:xlink="http://www.w3.org/1999/xlink" width="200" height="200"><defs><style type="text/css"></style></defs><path d="M896 801.632V222.368c36.48-7.424 64-39.744 64-78.368C960 99.904 924.128 64 880 64c-38.656 0-70.944 27.52-78.368 64H222.368A80.096 80.096 0 0 0 144 64 80.096 80.096 0 0 0 64 144c0 38.624 27.52 70.944 64 78.368V801.6c-36.48 7.424-64 39.744-64 78.368A80.096 80.096 0 0 0 144 960c38.624 0 70.944-27.52 78.368-64H801.6c7.424 36.48 39.744 64 78.368 64A80 80 0 1 0 896 801.632z m-704 14.784V207.584c5.888-4.448 11.136-9.696 15.584-15.584h608.8c4.48 5.888 9.696 11.136 15.584 15.584v608.8c-5.92 4.48-11.136 9.696-15.616 15.616H207.584A79.04 79.04 0 0 0 192 816.416z" p-id="12341" fill="#1296db"></path></svg>