<svg height="512pt" viewBox="0 -9 512.00013 512" width="512pt" xmlns="http://www.w3.org/2000/svg"><path d="m493.941406 246.976562c0 136.394532-110.570312 246.976563-246.964844 246.976563-34.328124 0-67.023437-7.007813-96.734374-19.667969-20.820313-8.867187-40.175782-20.519531-57.597657-34.480468-14.207031-11.382813-27.125-24.300782-38.496093-38.507813-14-17.460937-25.671876-36.867187-34.554688-57.75-12.621094-29.671875-19.59375-62.308594-19.59375-96.570313 0-136.398437 110.570312-246.976562 246.976562-246.976562 67.199219 0 128.125 26.847656 172.65625 70.390625 23.097657 22.582031 41.785157 49.667969 54.632813 79.832031 12.671875 29.710938 19.675781 62.417969 19.675781 96.753906zm0 0" fill="#43a3f9"/><path d="m474.265625 150.222656c-1.175781 2.429688-2.402344 4.902344-3.667969 7.40625-28.320312 55.8125-76.316406 118.964844-135.171875 177.808594-58.84375 58.84375-121.984375 106.839844-177.789062 135.160156-2.417969 1.234375-4.890625 2.460938-7.394531 3.6875-20.820313-8.871094-40.179688-20.519531-57.597657-34.480468 2.605469-.773438 5.285157-1.636719 8.023438-2.585938 10.191406-3.535156 21.234375-8.3125 32.824219-14.1875 50.941406-25.855469 109.269531-70.359375 164.210937-125.320312 54.96875-54.949219 99.472656-113.269532 125.332031-164.222657 1.945313-3.851562 3.789063-7.664062 5.511719-11.421875l-19.257813-7.316406c-6.621093-2.511719-11.320312-8.4375-12.257812-15.460938-.9375-7.015624 2.039062-13.96875 7.777344-18.132812l14.824218-10.765625c23.097657 22.582031 41.785157 49.667969 54.632813 79.832031zm0 0" fill="#1685fb"/><g fill="#82e7a5"><path d="m140.972656 365.273438c0 13.589843-5.503906 25.910156-14.414062 34.816406-8.917969 8.910156-21.210938 14.414062-34.8125 14.414062h-26.234375c-25.589844-27.695312-44.914063-61.261718-55.722657-98.457031h81.957032c27.191406 0 49.226562 22.050781 49.226562 49.226563zm0 0"/><path d="m199.835938 89.457031c.160156 27.238281-22.859376 49.523438-50.097657 49.523438h-19.359375c-6.324218 0-11.449218 5.125-11.449218 11.449219v32.433593c0 27.1875-22.039063 49.230469-49.230469 49.230469h-69.25c4.761719-80.128906 47.726562-149.980469 110.9375-191.570312h39.222656c13.589844 0 25.894531 5.503906 34.800781 14.414062 8.855469 8.839844 14.347656 21.046875 14.425782 34.519531zm0 0"/><path d="m493.941406 246.976562c0 57.113282-19.378906 109.703126-51.941406 151.539063h-21.707031c-20.140625 0-38.355469-8.160156-51.539063-21.34375-13.199218-13.1875-21.355468-31.410156-21.355468-51.539063v-40.878906c0-6.316406-5.121094-11.445312-11.445313-11.445312h-36.914063c-20.128906 0-38.351562-8.148438-51.539062-21.335938-13.183594-13.195312-21.34375-31.421875-21.34375-51.550781 0-40.257813 32.636719-72.882813 72.882812-72.882813h164.152344c4.066406 7.335938 7.765625 14.90625 11.074219 22.671876v.011718c12.671875 29.710938 19.675781 62.417969 19.675781 96.753906zm0 0"/></g><path d="m474.265625 150.210938v.011718c-1.175781 2.429688-2.402344 4.902344-3.667969 7.40625-26.375 51.980469-69.816406 110.320313-123.199218 165.621094v-38.496094c0-6.316406-5.121094-11.445312-11.445313-11.445312h-14.722656c44.113281-47.523438 79.746093-96.355469 101.804687-139.816406 1.007813-2 1.988282-3.976563 2.945313-5.957032h37.210937c4.066406 7.335938 7.765625 14.90625 11.074219 22.675782zm0 0" fill="#19c88d"/><path d="m341.519531 197.363281c0 10.960938-8.882812 19.847657-19.84375 19.847657-10.957031 0-19.84375-8.886719-19.84375-19.847657 0-10.957031 8.886719-19.84375 19.84375-19.84375 10.960938 0 19.84375 8.886719 19.84375 19.84375zm0 0" fill="#fd6096"/><path d="m219.683594 322.542969c0 10.957031-8.886719 19.84375-19.84375 19.84375-10.960938 0-19.847656-8.886719-19.847656-19.84375 0-10.960938 8.886718-19.847657 19.847656-19.847657 10.957031 0 19.84375 8.886719 19.84375 19.847657zm0 0" fill="#fd6096"/><path d="m511.832031 129.039062-18.6875-84.824218c-1.070312-4.859375-6.773437-7.023438-10.792969-4.101563l-70.277343 51.046875c-4.4375 3.222656-3.523438 10.085938 1.605469 12.03125l31.316406 11.894532c-3.066406 7.640624-6.714844 15.664062-10.941406 23.996093-26.421876 52.070313-71.734376 111.511719-127.605469 167.367188-55.859375 55.871093-115.300781 101.183593-167.367188 127.609375-12.195312 6.179687-23.734375 11.152344-34.359375 14.835937-28.894531 10.042969-50.957031 10.671875-60.65625.988281-9.683594-9.699218-9.054687-31.761718.988282-60.65625-6.90625-9.777343-13.109376-20.082031-18.546876-30.84375-28.980468 64.84375-17.929687 96.46875-2.667968 111.726563 8.320312 8.335937 21.519531 15.398437 42.335937 15.398437 30.148438 0 59.417969-12.507812 85.863281-25.929687 54.691407-27.753906 116.707032-74.941406 174.652344-132.886719 57.941406-57.941406 105.132813-119.957031 132.882813-174.648437 4.4375-8.75 8.574219-17.671875 12.242187-26.773438l30.828125 11.703125c5.128907 1.949219 10.367188-2.578125 9.1875-7.933594zm0 0" fill="#fdc142"/></svg>