<?xml version="1.0" standalone="no"?><!DOCTYPE svg PUBLIC "-//W3C//DTD SVG 1.1//EN" "http://www.w3.org/Graphics/SVG/1.1/DTD/svg11.dtd"><svg t="1528249473083" class="icon" style="" viewBox="0 0 1024 1024" version="1.1" xmlns="http://www.w3.org/2000/svg" p-id="15330" xmlns:xlink="http://www.w3.org/1999/xlink" width="16" height="16"><defs><style type="text/css"></style></defs><path d="M160.093867 443.733333h-57.745067c-9.386667 0-17.015467 7.620267-17.015467 17.015467v102.5024c0 9.386667 7.620267 17.015467 17.015467 17.015467h57.745067a356.4032 356.4032 0 0 0 54.818133 132.266666l-40.849067 40.8576a17.024 17.024 0 0 0 0 24.064l72.482134 72.482134a17.024 17.024 0 0 0 24.064 0l40.849066-40.849067A356.4032 356.4032 0 0 0 443.733333 863.906133v57.745067c0 9.386667 7.620267 17.015467 17.015467 17.015467h102.5024c9.386667 0 17.015467-7.620267 17.015467-17.015467v-57.745067a356.4032 356.4032 0 0 0 132.266666-54.818133l40.8576 40.849067a17.024 17.024 0 0 0 24.064 0l72.482134-72.482134a17.024 17.024 0 0 0 0-24.064l-40.849067-40.849066A356.4032 356.4032 0 0 0 863.906133 580.266667h57.745067c9.386667 0 17.015467-7.620267 17.015467-17.015467V460.7488c0-9.386667-7.620267-17.015467-17.015467-17.015467h-57.745067a356.4032 356.4032 0 0 0-54.818133-132.266666l40.849067-40.8576a17.024 17.024 0 0 0 0-24.064l-72.482134-72.482134a17.024 17.024 0 0 0-24.064 0l-40.849066 40.849067A356.4032 356.4032 0 0 0 580.266667 160.093867v-57.745067c0-9.386667-7.620267-17.015467-17.015467-17.015467H460.7488c-9.386667 0-17.015467 7.620267-17.015467 17.015467v57.745067a356.4032 356.4032 0 0 0-132.266666 54.818133l-40.8576-40.849067a17.024 17.024 0 0 0-24.064 0l-72.482134 72.482134a17.024 17.024 0 0 0 0 24.064l40.849067 40.849066A356.4032 356.4032 0 0 0 160.093867 443.733333z m54.818133-132.266666l-60.330667 60.330666-40.8576-40.849066a103.850667 103.850667 0 0 1-4.667733-4.992c-35.242667-40.200533-33.664-101.418667 4.667733-139.758934l72.4736-72.4736c38.357333-38.357333 99.575467-39.893333 139.758934-4.667733 1.706667 1.4848 3.370667 3.0464 4.992 4.667733l40.849066 40.849067-60.330666 60.3392-47.812267-70.6816a443.136 443.136 0 0 1 94.976-48.725333 441.122133 441.122133 0 0 1 68.949333-19.2L443.733333 160.085333H358.4v-57.745066c0-2.304 0.0768-4.573867 0.221867-6.8352C362.154667 42.171733 406.545067 0 460.7488 0h102.5024C617.472 0 661.845333 42.1888 665.378133 95.5136c0.145067 2.261333 0.221867 4.539733 0.221867 6.8352v57.745067H580.266667l16.162133-83.797334a441.122133 441.122133 0 0 1 101.614933 32.759467 443.136 443.136 0 0 1 62.301867 35.1744l-47.803733 70.6816-60.3392-60.330667 40.849066-40.8576c1.621333-1.621333 3.285333-3.182933 4.992-4.667733 40.200533-35.242667 101.418667-33.664 139.758934 4.667733l72.4736 72.4736c38.357333 38.357333 39.893333 99.575467 4.667733 139.758934-1.4848 1.706667-3.0464 3.370667-4.667733 4.992l-40.849067 40.849066-60.3392-60.330666 70.6816-47.812267a443.136 443.136 0 0 1 48.725333 94.976 441.122133 441.122133 0 0 1 19.2 68.949333L863.914667 443.733333V358.4h57.745066c2.304 0 4.573867 0.0768 6.8352 0.221867C981.828267 362.154667 1024 406.545067 1024 460.7488v102.5024c0 54.229333-42.1888 98.602667-95.5136 102.126933-2.261333 0.145067-4.539733 0.221867-6.8352 0.221867h-57.745067V580.266667l83.797334 16.162133a441.122133 441.122133 0 0 1-32.759467 101.614933 443.136 443.136 0 0 1-35.1744 62.301867l-70.6816-47.803733 60.330667-60.3392 40.8576 40.849066c1.621333 1.621333 3.182933 3.285333 4.667733 4.992 35.242667 40.200533 33.664 101.418667-4.667733 139.758934l-72.4736 72.4736c-38.357333 38.357333-99.575467 39.893333-139.758934 4.667733-1.706667-1.4848-3.370667-3.0464-4.992-4.667733l-40.849066-40.849067 60.330666-60.3392 47.812267 70.6816a443.136 443.136 0 0 1-94.976 48.725333 441.122133 441.122133 0 0 1-68.949333 19.2L580.266667 863.914667h85.333333v57.745066c0 2.304-0.0768 4.573867-0.221867 6.8352C661.845333 981.828267 617.454933 1024 563.2512 1024H460.7488c-54.229333 0-98.602667-42.1888-102.126933-95.5136a103.825067 103.825067 0 0 1-0.221867-6.8352v-57.745067h85.333333l-16.162133 83.797334a441.122133 441.122133 0 0 1-101.614933-32.759467 443.136 443.136 0 0 1-62.301867-35.1744l47.803733-70.6816 60.3392 60.330667-40.849066 40.8576c-1.621333 1.621333-3.285333 3.182933-4.992 4.667733-40.200533 35.242667-101.418667 33.664-139.758934-4.667733l-72.4736-72.4736c-38.357333-38.357333-39.893333-99.575467-4.667733-139.758934 1.4848-1.706667 3.0464-3.370667 4.667733-4.992l40.849067-40.849066 60.3392 60.330666-70.6816 47.812267a443.136 443.136 0 0 1-48.725333-94.976 441.122133 441.122133 0 0 1-19.2-68.949333L160.085333 580.266667v85.333333h-57.745066c-2.304 0-4.573867-0.0768-6.8352-0.221867C42.171733 661.845333 0 617.454933 0 563.2512V460.7488C0 406.528 42.1888 362.154667 95.5136 358.621867c2.261333-0.145067 4.539733-0.221867 6.8352-0.221867h57.745067v85.333333l-83.797334-16.162133a441.122133 441.122133 0 0 1 32.759467-101.614933 443.136 443.136 0 0 1 35.1744-62.301867l70.6816 47.803733zM512 742.4c-127.249067 0-230.4-103.150933-230.4-230.4s103.150933-230.4 230.4-230.4 230.4 103.150933 230.4 230.4-103.150933 230.4-230.4 230.4z m0-85.333333c80.119467 0 145.066667-64.9472 145.066667-145.066667s-64.9472-145.066667-145.066667-145.066667-145.066667 64.9472-145.066667 145.066667 64.9472 145.066667 145.066667 145.066667z" fill="#4990EE" p-id="15331"></path></svg>