<?xml version="1.0" standalone="no"?><!DOCTYPE svg PUBLIC "-//W3C//DTD SVG 1.1//EN" "http://www.w3.org/Graphics/SVG/1.1/DTD/svg11.dtd"><svg t="1602605528217" class="icon" viewBox="0 0 1024 1024" version="1.1" xmlns="http://www.w3.org/2000/svg" p-id="27948" xmlns:xlink="http://www.w3.org/1999/xlink" width="200" height="200"><defs><style type="text/css"></style></defs><path d="M682.666667 42.666667H298.666667c-25.6 0-42.666667 17.066667-42.666667 42.666666v213.333334l426.666667 213.333333 170.666666 64 170.666667-64V298.666667l-341.333333-256z" fill="#21A366" p-id="27949"></path><path d="M256 298.666667h426.666667v213.333333H256z" fill="#107C41" p-id="27950"></path><path d="M1024 85.333333v213.333334h-341.333333V42.666667h298.666666c21.333333 0 42.666667 21.333333 42.666667 42.666666z" fill="#33C481" p-id="27951"></path><path d="M682.666667 512H256v426.666667c0 25.6 17.066667 42.666667 42.666667 42.666666h682.666666c25.6 0 42.666667-17.066667 42.666667-42.666666v-213.333334l-341.333333-213.333333z" fill="#185C37" p-id="27952"></path><path d="M588.8 256H256v597.333333h324.266667c29.866667 0 59.733333-29.866667 59.733333-59.733333V307.2c0-29.866667-21.333333-51.2-51.2-51.2z" opacity=".5" p-id="27953"></path><path d="M546.133333 810.666667H51.2C21.333333 810.666667 0 789.333333 0 759.466667V264.533333C0 234.666667 21.333333 213.333333 51.2 213.333333h499.2c25.6 0 46.933333 21.333333 46.933333 51.2v499.2c0 25.6-21.333333 46.933333-51.2 46.933334z" fill="#107C41" p-id="27954"></path><path d="M145.066667 682.666667L256 512 153.6 341.333333h81.066667l55.466666 106.666667c8.533333 12.8 8.533333 21.333333 12.8 25.6l12.8-25.6L375.466667 341.333333h76.8l-102.4 170.666667 106.666666 170.666667h-85.333333l-64-119.466667c0-4.266667-4.266667-8.533333-8.533333-17.066667 0 4.266667-4.266667 8.533333-8.533334 17.066667L226.133333 682.666667H145.066667z" fill="#FFFFFF" p-id="27955"></path><path d="M682.666667 512h341.333333v213.333333h-341.333333z" fill="#107C41" p-id="27956"></path></svg>