<?xml version="1.0" standalone="no"?><!DOCTYPE svg PUBLIC "-//W3C//DTD SVG 1.1//EN" "http://www.w3.org/Graphics/SVG/1.1/DTD/svg11.dtd"><svg t="1602606589433" class="icon" viewBox="0 0 1024 1024" version="1.1" xmlns="http://www.w3.org/2000/svg" p-id="40903" xmlns:xlink="http://www.w3.org/1999/xlink" width="200" height="200"><defs><style type="text/css"></style></defs><path d="M903.432 199.43L760.568 56.568C729.456 25.456 668 0 624 0H144c-44 0-80 36-80 80v864c0 44 36 80 80 80h736c44 0 80-36 80-80V336c0-44-25.456-105.458-56.568-136.57z m-45.254 45.256c3.13 3.13 6.25 6.974 9.28 11.314H704V92.544c4.34 3.03 8.184 6.15 11.314 9.28l142.864 142.862zM896 944c0 8.672-7.328 16-16 16H144c-8.672 0-16-7.328-16-16V80c0-8.672 7.328-16 16-16h480c4.832 0 10.254 0.61 16 1.704V320h254.296c1.094 5.746 1.704 11.166 1.704 16v608z" p-id="40904" fill="#1296db"></path></svg>