<?xml version="1.0" standalone="no"?><!DOCTYPE svg PUBLIC "-//W3C//DTD SVG 1.1//EN" "http://www.w3.org/Graphics/SVG/1.1/DTD/svg11.dtd"><svg t="1591253333617" class="icon" viewBox="0 0 1024 1024" version="1.1" xmlns="http://www.w3.org/2000/svg" p-id="2129" xmlns:xlink="http://www.w3.org/1999/xlink" width="200" height="200"><defs><style type="text/css"></style></defs><path d="M910.219025 565.631245l-42.176741 42.176741-13.16165-72.739134 57.601799-57.598601a22.378321 22.378321 0 1 0-31.642946-31.646143l-35.658256 35.655059-24.459505-135.171453 125.197115-125.200312c19.056739-19.545865 29.363554-45.344872 29.011895-72.64003-0.345266-27.295158-11.301052-52.822428-30.846917-71.87597-19.194206-18.71467-44.529662-29.018289-71.332497-29.018288-27.790678 0-53.784696 10.958983-72.985295 30.655102l-132.086442 132.086442-125.420898-22.698012 40.185071-40.18507a22.378321 22.378321 0 1 0-31.642946-31.646143l-62.135007 62.13181-72.739134-13.16165 46.70995-46.70995a22.378321 22.378321 0 1 0-31.642946-31.646143l-65.881777 65.881778a22.41029 22.41029 0 0 0-2.381693 2.84844l-132.223908-23.928819a22.365533 22.365533 0 0 0-19.808011 6.195598L157.95578 190.126215a22.384715 22.384715 0 0 0 5.684094 35.773345l323.833486 164.611732L299.028716 578.959133 125.638288 606.970397a22.375124 22.375124 0 0 0-12.004371 6.022966l-57.400393 55.626112a22.375124 22.375124 0 0 0 6.796616 36.65569l180.800849 77.06774 75.734632 179.426181a22.381518 22.381518 0 0 0 36.441497 7.1227l56.511654-56.514851a22.371927 22.371927 0 0 0 6.333065-12.698099l24.868709-176.373138 192.277731-192.277731L808.899579 871.156068a22.36873 22.36873 0 0 0 19.951871 12.237744 22.394306 22.394306 0 0 0 15.82467-6.553651l52.729718-52.732915a22.381518 22.381518 0 0 0 6.195598-19.808011l-25.859748-142.891973 64.126677-64.129874a22.378321 22.378321 0 0 0-0.003197-31.646143 22.371927 22.371927 0 0 0-31.646143 0zM831.613574 109.669757a56.987993 56.987993 0 0 1 41.134551-17.343198c15.063807 0 29.302813 5.792788 40.089164 16.310599a57.064719 57.064719 0 0 1 17.343199 40.399263c0.195011 15.341937-5.597777 29.839893-16.109195 40.626243L410.581449 693.149312l-116.165864 37.745833 35.172327-119.196528L831.613574 109.669757zM211.407999 199.972676l22.650057-22.650057 395.105242 71.498735-108.400587 108.403784-309.354712-157.252462z m-71.684156 450.060005l138.489837-22.371927-31.633355 107.201748L111.571915 677.311854l28.151928-27.279173z m208.14396 263.696544L291.023671 779.053292l104.423639-33.928731-19.865555 140.893909-27.713952 27.710755z m486.961856-90.338085l-165.542031-325.655721 112.91781-112.921008 26.59184 146.95204 0.00959 0.051151 48.663258 268.92348-22.640467 22.650058z" fill="#1296db" p-id="2130"></path></svg>