<?xml version="1.0" standalone="no"?><!DOCTYPE svg PUBLIC "-//W3C//DTD SVG 1.1//EN" "http://www.w3.org/Graphics/SVG/1.1/DTD/svg11.dtd"><svg t="1602425785841" class="icon" viewBox="0 0 1024 1024" version="1.1" xmlns="http://www.w3.org/2000/svg" p-id="14380" xmlns:xlink="http://www.w3.org/1999/xlink" width="200" height="200"><defs><style type="text/css"></style></defs><path d="M529.681067 0C236.771556 0 0 211.171556 0 471.608889 0 622.546489 56.502044 750.614756 162.975289 842.865778 162.975289 842.865778 162.907022 883.712 162.975289 974.324622 162.998044 1014.670222 183.614578 1024 202.660978 1024 219.022222 1024 234.222933 1017.105067 234.222933 1017.105067L392.647111 942.648889C424.322844 947.928178 496.321422 953.594311 529.681067 953.594311 822.226489 953.594311 1018.629689 732.068978 1018.629689 471.608889 1018.629689 211.171556 773.211022 0 529.681067 0M529.681067 68.266667C631.6032 68.266667 737.052444 111.957333 818.9952 188.142933 903.714133 266.899911 950.363022 367.570489 950.363022 471.608889 950.363022 707.470222 769.501867 885.327644 529.681067 885.327644 499.643733 885.327644 431.445333 879.911822 403.8656 875.3152L382.862222 871.8336 363.611022 880.867556 231.2192 943.104C231.173689 874.427733 231.241956 843.047822 231.241956 842.979556L231.287467 811.736178 207.6672 791.256178C116.462933 712.248889 68.266667 601.7024 68.266667 471.608889 68.266667 249.218844 275.2512 68.266667 529.681067 68.266667M341.328782 476.842667C341.328782 515.572622 309.948871 546.952533 271.218916 546.952533 232.48896 546.952533 201.109049 515.572622 201.109049 476.842667 201.109049 438.112711 232.48896 406.7328 271.218916 406.7328 309.948871 406.7328 341.328782 438.112711 341.328782 476.842667M578.896782 476.842667C578.896782 515.572622 547.516871 546.952533 508.786916 546.952533 470.05696 546.952533 438.677049 515.572622 438.677049 476.842667 438.677049 438.112711 470.05696 406.7328 508.786916 406.7328 547.516871 406.7328 578.896782 438.112711 578.896782 476.842667M817.511538 476.842667C817.511538 515.572622 786.131627 546.952533 747.401671 546.952533 708.671716 546.952533 677.291804 515.572622 677.291804 476.842667 677.291804 438.112711 708.671716 406.7328 747.401671 406.7328 786.131627 406.7328 817.511538 438.112711 817.511538 476.842667" p-id="14381" fill="#1296db"></path></svg>