<?xml version="1.0" standalone="no"?><!DOCTYPE svg PUBLIC "-//W3C//DTD SVG 1.1//EN" "http://www.w3.org/Graphics/SVG/1.1/DTD/svg11.dtd"><svg t="1602424476271" class="icon" viewBox="0 0 1024 1024" version="1.1" xmlns="http://www.w3.org/2000/svg" p-id="1249" xmlns:xlink="http://www.w3.org/1999/xlink" width="200" height="200"><defs><style type="text/css"></style></defs><path d="M512 54.272q95.232 0 178.688 36.352t145.408 98.304 98.304 145.92 36.352 179.2-36.352 178.688-98.304 145.408-145.408 98.304-178.688 36.352-179.2-36.352-145.92-98.304-98.304-145.408-36.352-178.688 36.352-179.2 98.304-145.92 145.92-98.304 179.2-36.352zM567.296 450.56q0-24.576-15.872-41.472t-39.424-16.896-39.936 16.896-16.384 41.472l0 343.04q0 24.576 16.384 39.424t39.936 14.848 39.936-15.36 16.384-39.936zM512 323.584q29.696 0 50.688-20.992t20.992-50.688-20.992-50.688-50.688-20.992-51.2 20.992-21.504 50.688 21.504 50.688 51.2 20.992z" p-id="1250" fill="#1296db"></path></svg>