<svg id="图层_1" data-name="图层 1" xmlns="http://www.w3.org/2000/svg" viewBox="0 0 32 32"><title>画板 73</title><polygon points="1 16 8 7 31 7 31 25 8 25 1 16" style="fill:#4d84ba"/><path d="M11.72,19.61a3.6,3.6,0,0,1-2.37.89A2.18,2.18,0,0,1,7,18.19c0-1.52,1.23-2.39,3.22-2.39h.44l.34.06a2.26,2.26,0,0,1,.61.1c-.07-.82-.5-1.09-1.3-1.09a6.58,6.58,0,0,0-1.06.29l-.92.28a.71.71,0,0,1-.47-.21,1.18,1.18,0,0,1-.14-.56c0-.32.27-.6.79-.82a4.75,4.75,0,0,1,2-.35c1.67,0,2.51.77,2.51,2.57V19c.14,1.24-.2,1.41-.61,1.38S11.76,20.1,11.72,19.61Zm-.11-2.32-.2-.06L11,17.12l-.57,0A2.39,2.39,0,0,0,9,17.36c-.38.24-.58.41-.58.78a1,1,0,0,0,.3.66,1.24,1.24,0,0,0,.84.27,2.61,2.61,0,0,0,1.42-.42c.44-.28.67-.57.67-.87Z" style="fill:#fff"/><path d="M14,11.86c.06-.44,1.4-.52,1.4,0v2.53l.06,0a3.11,3.11,0,0,1,2.13-.75,3.2,3.2,0,0,1,2.42,1,3.15,3.15,0,0,1,1,2.36,3.53,3.53,0,0,1-3.46,3.43,2.6,2.6,0,0,1-2-.75l-.16,0V20c-.18.65-1.38.46-1.4,0ZM15.43,17a1.87,1.87,0,0,0,2,2,1.87,1.87,0,0,0,2-2,1.88,1.88,0,0,0-2-2A1.87,1.87,0,0,0,15.43,17Z" style="fill:#fff"/><path d="M22,17.15a3.85,3.85,0,0,1,.88-2.58,2.77,2.77,0,0,1,2.21-1.06A2.73,2.73,0,0,1,27.91,16a.65.65,0,0,1-1.06.28A1.45,1.45,0,0,0,25.23,15a1.93,1.93,0,0,0-1.91,2.18,1.92,1.92,0,0,0,1.79,2,1.86,1.86,0,0,0,1.16-.36l.18-.14.3-.27c.34-.29.57-.43.68-.43.37,0,.56.24.56.71s-.32.85-.93,1.27a3.53,3.53,0,0,1-1.95.61A3.26,3.26,0,0,1,22,17.15Z" style="fill:#fff"/></svg>