<?xml version="1.0" standalone="no"?><!DOCTYPE svg PUBLIC "-//W3C//DTD SVG 1.1//EN" "http://www.w3.org/Graphics/SVG/1.1/DTD/svg11.dtd"><svg t="1594800617330" class="icon" viewBox="0 0 1024 1024" version="1.1" xmlns="http://www.w3.org/2000/svg" p-id="3878" xmlns:xlink="http://www.w3.org/1999/xlink" width="200" height="200"><defs><style type="text/css"></style></defs><path d="M1024 253.698302q0 45.010989-14.321678 85.418581t-40.407592 73.142857-61.378621 55.752248-76.211788 33.246753q3.068931 23.528472 3.068931 45.010989 0 72.631369-27.62038 137.078921t-75.7003 112.015984-112.527473 75.188811-137.078921 27.62038q-55.240759 0-105.366633-15.856144t-93.090909-45.522478l-282.341658 187.204795 188.227772-283.364635q-28.643357-42.965035-43.476523-91.556444t-14.833167-102.809191q0-72.631369 27.62038-137.078921t75.188811-112.015984 111.504496-75.188811 136.567433-27.62038q11.252747 0 20.45954 0.511489t19.436563 1.534466q10.22977-41.942058 33.246753-78.257742t55.752248-62.401598 73.142857-40.919081 86.441558-14.833167q52.171828 0 98.717283 19.948052t80.815185 54.217782 54.217782 80.815185 19.948052 98.717283zM480.799201 769.278721q47.056943 0 87.976024-17.902098t71.096903-48.591409 47.568432-71.608392 17.390609-86.953047q0-24.551449-4.091908-45.010989-8.183816-2.045954-15.344655-4.603397t-15.344655-5.626374l-88.999001 87.976024q-14.321678 14.321678-31.712288 20.971029t-35.804196 6.649351-36.315684-6.649351-31.200799-20.971029q-14.321678-14.321678-20.971029-31.712288t-6.649351-35.804196 6.649351-35.804196 20.971029-31.712288l88.999001-88.999001q-3.068931-8.183816-5.626374-14.833167t-4.603397-13.81019q-19.436563-4.091908-43.988012-4.091908-46.033966 0-86.953047 17.390609t-71.608392 48.07992-48.07992 71.608392-17.390609 86.953047 17.390609 86.953047 48.07992 71.608392 71.608392 48.591409 86.953047 17.902098zM770.301698 386.685315q26.597403 0 50.125874-10.22977t41.430569-27.62038 28.131868-41.430569 10.22977-50.637363-10.22977-50.125874-28.131868-40.919081-41.430569-27.62038-50.125874-10.22977-50.637363 10.22977-41.430569 27.62038-27.62038 40.919081-10.22977 50.125874 10.22977 50.637363 27.62038 41.430569 41.430569 27.62038 50.637363 10.22977z" p-id="3879" fill="#1296db"></path></svg>