<?xml version="1.0" standalone="no"?><!DOCTYPE svg PUBLIC "-//W3C//DTD SVG 1.1//EN" "http://www.w3.org/Graphics/SVG/1.1/DTD/svg11.dtd"><svg t="1574155759417" class="icon" viewBox="0 0 1024 1024" version="1.1" xmlns="http://www.w3.org/2000/svg" p-id="4345" xmlns:xlink="http://www.w3.org/1999/xlink" width="200" height="200"><defs><style type="text/css"></style></defs><path d="M856.8 706.5L628.5 934.8c-10.5 10.5-27.5 10.5-38.1 0l-19-19 247.4-247.4c10.5-10.5 27.5-10.5 38.1 0 10.5 10.5 10.5 27.6-0.1 38.1z" p-id="4346" fill="#1296db"></path><path d="M590.4 934.8l-95.1-95.1c-10.5-10.5-10.5-27.5 0-38.1 10.5-10.5 27.5-10.5 38.1 0l114.2 114.2-19 19c-10.6 10.5-27.7 10.5-38.2 0zM504.4 495.8H297.9c-14.9 0-27-12.2-27-27v-2c0-14.9 12.2-27 27-27h206.5c14.9 0 27 12.2 27 27v2c0 14.8-12.1 27-27 27zM569.5 595.9H297.9c-14.9 0-27-12.2-27-27v-2c0-14.9 12.2-27 27-27h271.7c14.9 0 27 12.2 27 27v2c0 14.8-12.2 27-27.1 27z" p-id="4347" fill="#1296db"></path><path d="M479 892H222.5V197h376.6v204.2h204.3l0.1 185c22.3 9.2 42.9 21.6 61.2 36.6V397c0-7.5-3-14.6-8.2-19.9L617 137.7c-5.3-5.3-12.4-8.2-19.9-8.2H175.3c-7.8 0-14.1 6.3-14.1 14.1v801.9c0 7.8 6.3 14.1 14.1 14.1H515c-15.3-20.3-27.5-43.1-36-67.6z" p-id="4348" fill="#1296db"></path><path d="M533.6 639.9H296.9c-14.3 0-26.1 12.6-26.1 28s11.7 28 26.1 28h195.6c10.8-21 24.8-39.8 41.1-56zM466.8 790.1c0.5-17.3 2.9-34 6.8-50H296.9c-14.3 0-26.1 12.6-26.1 28s11.7 28 26.1 28h169.4c0.2-2.1 0.3-4 0.5-6z" p-id="4349" fill="#1296db"></path></svg>