<svg id="图层_1" data-name="图层 1" xmlns="http://www.w3.org/2000/svg" viewBox="0 0 32 32"><title>画板 27</title><path d="M16.68,18.44l-6.23,6.28,2.7,2.72a1.22,1.22,0,0,1-.84,2.06H3.91a1.21,1.21,0,0,1-1.2-1.21V19.82a1.2,1.2,0,0,1,2-.85l2.7,2.72,6.23-6.28a.6.6,0,0,1,.86,0l2.14,2.16a.61.61,0,0,1,0,.87ZM1,30" style="fill:#fff;stroke:gray;stroke-miterlimit:10"/><path d="M15.32,13.56l6.23-6.28-2.7-2.72a1.22,1.22,0,0,1,.84-2.06h8.4a1.21,1.21,0,0,1,1.2,1.21v8.47a1.2,1.2,0,0,1-2,.85l-2.7-2.72-6.23,6.28a.6.6,0,0,1-.86,0l-2.14-2.16a.61.61,0,0,1,0-.87ZM31,2" style="fill:#fff;stroke:gray;stroke-miterlimit:10"/></svg>