<?xml version="1.0" standalone="no"?><!DOCTYPE svg PUBLIC "-//W3C//DTD SVG 1.1//EN" "http://www.w3.org/Graphics/SVG/1.1/DTD/svg11.dtd"><svg t="1573639981637" class="icon" viewBox="0 0 1024 1024" version="1.1" xmlns="http://www.w3.org/2000/svg" p-id="9988" xmlns:xlink="http://www.w3.org/1999/xlink" width="200" height="200"><defs><style type="text/css"></style></defs><path d="M1017.169945 795.294809a47.220883 47.220883 0 0 1-44.59863 44.131097h-2.337667a49.558551 49.558551 0 0 0-47.078591 51.509995v1.849806a58.604308 58.604308 0 0 0 2.134392 11.403752c0.874084 3.130442 1.768496 5.569747 2.134392 6.504814a55.921072 55.921072 0 0 1-17.725618 65.77993l-2.601925 1.748169-69.499871 40.655087-0.650482 0.284586a51.509995 51.509995 0 0 1-21.770799 4.71599 55.18928 55.18928 0 0 1-41.691791-18.904616 81.147553 81.147553 0 0 0-39.130521-26.994977 81.940328 81.940328 0 0 0-38.845936 26.425806 55.372228 55.372228 0 0 1-41.590154 18.741995 51.774253 51.774253 0 0 1-22.157022-4.837955l-2.601925-1.32129-67.080894-39.923296-0.650481-0.487861a56.083692 56.083692 0 0 1-17.522343-65.962878 61.836387 61.836387 0 0 0 4.268785-19.534769 49.700844 49.700844 0 0 0-47.078591-51.509995h-2.642581a47.505469 47.505469 0 0 1-44.212407-44.232735c-0.142293-0.833429-0.223603-1.687186-0.365895-2.520615H44.151424v157.701082a21.994402 21.994402 0 0 0 1.768497 8.659533 22.461935 22.461935 0 0 0 11.891612 11.789975 22.238333 22.238333 0 0 0 8.740844 1.727841h403.298462v50.940824H25.856635A25.836308 25.836308 0 0 1 8.212328 1016.377171a24.555672 24.555672 0 0 1-5.325817-7.927742 24.189777 24.189777 0 0 1-2.032754-9.574273V24.758948a24.393052 24.393052 0 0 1 2.032754-9.594601A25.185826 25.185826 0 0 1 25.876963 0h654.912794l187.013399 210.288437v226.997677h-43.053737v-196.973896l-168.454352-189.371394H408.868208V508.188586h-16.424655l-136.03192-136.031921L120.379712 508.188586h-16.424655V50.940824h-37.40268a22.502591 22.502591 0 0 0-8.740844 1.748169 22.360298 22.360298 0 0 0-11.891612 11.789975 21.791127 21.791127 0 0 0-1.768497 8.639206V752.119107h404.985648c-0.182948-2.723891-0.508189-5.427454-0.630154-8.131018l3.049132-49.802481c0.813102-6.098263 1.727841-11.891613 2.683235-17.014154a47.261538 47.261538 0 0 1 44.720596-44.151424h2.31734a49.578878 49.578878 0 0 0 47.07859-51.489668v-1.829479a58.401032 58.401032 0 0 0-2.134392-11.383424 74.053241 74.053241 0 0 0-2.134392-6.565796 55.900744 55.900744 0 0 1 17.684963-65.739276l2.683236-1.809151 70.760178-41.163276 0.650482-0.304913a52.851613 52.851613 0 0 1 21.730144-4.594025 55.880417 55.880417 0 0 1 41.366551 18.193152 79.480695 79.480695 0 0 0 38.256436 25.307791 78.972506 78.972506 0 0 0 37.992179-24.718293 55.778779 55.778779 0 0 1 41.12262-17.827255 52.851613 52.851613 0 0 1 22.360298 4.87861l2.418978 1.260308 68.361528 40.533122 0.569172 0.467533a56.043037 56.043037 0 0 1 17.583325 65.962878 62.22261 62.22261 0 0 0-4.248457 19.555097 49.558551 49.558551 0 0 0 47.078591 51.489668h1.687186a47.302194 47.302194 0 0 1 45.147474 44.110769 296.15198 296.15198 0 0 1-0.121966 117.940407zM144.610144 406.550868h12.033906l99.767583-108.833667L356.179216 406.550868h12.033906V50.940824h-223.602978V406.550868z m829.221479 278.162105a13.111266 13.111266 0 0 1-1.463583-8.27331h-2.31734a93.079821 93.079821 0 0 1-90.965757-95.071921 98.954481 98.954481 0 0 1 7.663484-36.32532 12.968973 12.968973 0 0 0-3.415027-14.391901l-63.299971-37.443335-0.447206-0.223603a9.005102 9.005102 0 0 0-3.577647-0.691136 11.850958 11.850958 0 0 0-8.517241 3.55732 107.532705 107.532705 0 0 1-70.556903 39.130521 107.73598 107.73598 0 0 1-71.146402-39.902968 11.83063 11.83063 0 0 0-8.537568-3.597975 8.252983 8.252983 0 0 0-3.415028 0.691136l-65.45469 38.053162-0.691136 0.508188a13.111266 13.111266 0 0 0-3.130442 15.06271 106.496 106.496 0 0 1 3.597975 10.773598 99.604963 99.604963 0 0 1 3.638631 20.164923c0.121965 2.297012 0.121965 2.297012 0.16262 4.695663a93.059494 93.059494 0 0 1-90.965757 95.07192h-2.683235c1.687186 0 0.304913 1.565221-0.874085 8.313965a256.655563 256.655563 0 0 0 0 102.999663c1.178998 6.647107 2.56127 8.252983 0.99605 8.252983h2.784873a93.100149 93.100149 0 0 1 90.965757 95.092248 98.771533 98.771533 0 0 1-7.683811 36.365975 12.968973 12.968973 0 0 0 3.374372 14.351246l61.999007 36.935146 0.650482 0.304913a8.537568 8.537568 0 0 0 3.47601 0.691137 11.261459 11.261459 0 0 0 8.27331-3.557321 108.89465 108.89465 0 0 1 72.142451-41.610481 108.081548 108.081548 0 0 1 72.609985 42.382928 11.180149 11.180149 0 0 0 8.334293 3.63863 7.683811 7.683811 0 0 0 3.293062-0.630153l64.357003-37.646611 0.609826-0.447206a13.212903 13.212903 0 0 0 3.130442-15.062709 107.512377 107.512377 0 0 1-3.597975-10.814254 99.991186 99.991186 0 0 1-3.719941-20.327543c-0.121965-2.357995-0.121965-2.357995-0.16262-4.736318a93.100149 93.100149 0 0 1 90.965757-95.092248h2.72389c-1.585548 0-0.223603-1.544893 0.955395-8.293637a313.735305 313.735305 0 0 0 5.142868-51.509996 326.988864 326.988864 0 0 0-5.224178-51.388029z m-233.990353 145.199642a94.523077 94.523077 0 1 1 95.417489-94.523077 94.970283 94.970283 0 0 1-95.397161 94.523077z m0-145.565538a51.327047 51.327047 0 0 0-51.570977 51.083117 51.570978 51.570978 0 1 0 51.570977-51.083117z m-95.417488 51.042461z" p-id="9989" fill="#1296db"></path></svg>