<svg id="图层_1" data-name="图层 1" xmlns="http://www.w3.org/2000/svg" viewBox="0 0 16 16"><title>画板 8</title><rect x="2.5" y="0.5" width="11" height="11" style="fill:#fff"/><path d="M13,1V11H3V1H13m1-1H2V12H14V0Z" style="fill:gray"/><rect x="0.5" y="2.5" width="11" height="11" style="fill:#fff"/><path d="M11,3V13H1V3H11m1-1H0V14H12V2Z" style="fill:gray"/><path d="M15.92,11.84A5.37,5.37,0,0,0,11.5,9a5.36,5.36,0,0,0-4.41,2.84L7,12l.09.16A5.37,5.37,0,0,0,11.5,15a5.38,5.38,0,0,0,4.42-2.84L16,12Zm-4.42,2.5" style="fill:#fff"/><path d="M12.74,11.24a.48.48,0,1,1-.48-.48l.1,0a1.53,1.53,0,1,0,.37.37.5.5,0,0,1,0,.1Z" style="fill:#4d84ba"/><path d="M15.92,11.84A5.37,5.37,0,0,0,11.5,9a5.36,5.36,0,0,0-4.41,2.84L7,12l.09.16A5.37,5.37,0,0,0,11.5,15a5.38,5.38,0,0,0,4.42-2.84L16,12ZM11.5,14.4A5.14,5.14,0,0,1,7.56,12,5.12,5.12,0,0,1,11.5,9.6,5.12,5.12,0,0,1,15.44,12a5.13,5.13,0,0,1-3.94,2.4Zm0-.06" style="fill:gray"/><polygon points="15 8.65 7.69 16 7 15.35 14.31 8 15 8.65" style="fill:gray"/><path d="M-247.07,46a.32.32,0,0,1-.23-.09l-2.15-2.15a.32.32,0,0,1,0-.45.32.32,0,0,1,.45,0l1.93,1.93,4-4a.32.32,0,0,1,.45,0,.32.32,0,0,1,0,.45l-4.21,4.21a.32.32,0,0,1-.23.09Zm289-36a.32.32,0,0,1-.23-.09L39.55,7.75A.32.32,0,0,1,40,7.3l1.93,1.93,4-4a.32.32,0,0,1,.45.45L42.15,9.91a.32.32,0,0,1-.23.09Zm-289,36" style="fill:#b1b1b1"/></svg>