<svg id="图层_1" data-name="图层 1" xmlns="http://www.w3.org/2000/svg" viewBox="0 0 16 16"><title>画板 42</title><polygon points="1.5 15.5 1.5 0.5 9.79 0.5 13.5 4.21 13.5 15.5 1.5 15.5" style="fill:#fff"/><path d="M9.59,1,13,4.41V15H2V1H9.59M10,0H1V16H14V4L10,0Z" style="fill:gray"/><polygon points="1.5 15.5 1.5 0.5 9.5 0.5 9.5 4.5 13.5 4.5 13.5 15.5 1.5 15.5" style="fill:#fff"/><path d="M9,1V5h4V15H2V1H9m1-1H1V16H14V4H10V0Z" style="fill:gray"/><path d="M7.5,5.5A1.67,1.67,0,0,1,9.19,7.15,1.62,1.62,0,0,1,9,7.91l1.37,1a1,1,0,0,1,.6-.19,1,1,0,1,1-1,1A1,1,0,0,1,10,9.42l-1.37-1a1.7,1.7,0,0,1-.82.39v1.58a1.37,1.37,0,1,1-.61,0V8.78a1.69,1.69,0,0,1-.82-.39L5,9.42a1,1,0,0,1,.07.36,1,1,0,1,1-1-1,1,1,0,0,1,.6.19L6,7.91a1.62,1.62,0,0,1-.19-.76A1.67,1.67,0,0,1,7.5,5.5Zm0,0" style="fill:#4d84ba"/></svg>