<svg id="图层_1" data-name="图层 1" xmlns="http://www.w3.org/2000/svg" viewBox="0 0 32 32"><title>画板 73</title><path d="M1.93,28.5a.42.42,0,0,1-.43-.41V9A.58.58,0,0,1,2,8.5H13a.58.58,0,0,1,.5.5v2.5H26a.6.6,0,0,1,.47.39l0,2.12V28a.58.58,0,0,1-.5.5Z" style="fill:#fff"/><path d="M13,9l0,0v3H26l0,0,0,2V28s0,0,0,0H2V9S2,9,2,9H13m0-1H2A1.07,1.07,0,0,0,1,9V28.09a.92.92,0,0,0,.93.91H26a1.07,1.07,0,0,0,1-1V14l0-2.19A1.09,1.09,0,0,0,26,11H14V9a1.07,1.07,0,0,0-1-1Zm14,3.65v.15l0,.09,0-.25Zm0,.25V12a.8.8,0,0,0,0-.1Z" style="fill:#4d84ba"/><polygon points="4.5 27.5 4.5 2.5 18.79 2.5 24.5 8.21 24.5 27.5 4.5 27.5" style="fill:#fff"/><path d="M18.59,3,24,8.41V27H5V3H18.59M19,2H4V28H25V8L19,2Z" style="fill:gray"/><polygon points="4.5 27.5 4.5 2.5 18.5 2.5 18.5 8.5 24.5 8.5 24.5 27.5 4.5 27.5" style="fill:#fff"/><path d="M18,3V9h6V27H5V3H18m1-1H4V28H25V8H19V2Z" style="fill:gray"/><rect x="7" y="11" width="15" height="1" style="fill:#b1b1b1"/><rect x="8.5" y="15.81" width="15.45" height="0.86" style="fill:#b1b1b1"/><rect x="7" y="5" width="9" height="1" style="fill:#b1b1b1"/><rect x="7" y="8" width="9" height="1" style="fill:#b1b1b1"/><polygon points="12.79 22.24 16.65 18.38 20.52 22.24 17.43 22.24 17.43 26.11 15.88 26.11 15.88 22.24 12.79 22.24" style="fill:#4d84ba"/><path d="M26.1,29H3.34c-.48,0-.94-.37-.79-.83L6.93,14.83A1.29,1.29,0,0,1,8.08,14H30.84a.6.6,0,0,1,.6.83L27.06,28.17A1.06,1.06,0,0,1,26.1,29Z" style="fill:#4d84ba"/></svg>