<svg id="图层_1" data-name="图层 1" xmlns="http://www.w3.org/2000/svg" viewBox="0 0 16 16"><title>画板 24</title><rect x="0.5" y="0.5" width="12" height="12" style="fill:#fff"/><path d="M12,1V12H1V1H12m1-1H0V13H13V0Z" style="fill:gray"/><rect x="3" y="4.38" width="2" height="5.25" style="fill:#4d84ba"/><rect x="8" y="4.38" width="2" height="5.25" style="fill:#4d84ba"/><rect x="6" y="5.5" width="1" height="1" style="fill:#fff"/><polygon points="7 5.5 6 5.5 6 6.5 7 6.5 7 5.5 7 5.5" style="fill:gray"/><rect x="6" y="7.5" width="1" height="1" style="fill:#fff"/><polygon points="7 7.5 6 7.5 6 8.5 7 8.5 7 7.5 7 7.5" style="fill:gray"/><circle cx="11.5" cy="11.5" r="4.5" style="fill:#4d84ba"/><polygon points="14 11 12 11 12 9 11 9 11 11 9 11 9 12 11 12 11 14 12 14 12 12 14 12 14 11" style="fill:#fff"/></svg>