<svg id="图层_1" data-name="图层 1" xmlns="http://www.w3.org/2000/svg" viewBox="0 0 32 32"><title>画板 2</title><rect x="1.5" y="1.5" width="25" height="25" style="fill:#fff"/><path d="M26,2V26H2V2H26m1-1H1V27H27V1Z" style="fill:gray"/><rect x="26.3" y="23.1" width="2.4" height="8.81" rx="1.11" ry="1.11" transform="translate(-11.39 27.5) rotate(-45)" style="fill:#4d84ba"/><path d="M19,27.5A9.5,9.5,0,1,1,28.5,18,9.51,9.51,0,0,1,19,27.5Z" style="fill:#fff"/><path d="M19,9a9,9,0,1,1-9,9,9,9,0,0,1,9-9m0-1A10,10,0,1,0,29,18,10,10,0,0,0,19,8Z" style="fill:#4d84ba"/></svg>