<?xml version="1.0" standalone="no"?><!DOCTYPE svg PUBLIC "-//W3C//DTD SVG 1.1//EN" "http://www.w3.org/Graphics/SVG/1.1/DTD/svg11.dtd"><svg t="1536644771246" class="icon" style="" viewBox="0 0 1024 1024" version="1.1" xmlns="http://www.w3.org/2000/svg" p-id="1431" xmlns:xlink="http://www.w3.org/1999/xlink" width="64" height="64"><defs><style type="text/css"></style></defs><path d="M790.535721 494.939031 790.535721 494.939031l-330.164948 5.596006c-16.788018 0-27.98003 11.192012-27.98003 27.98003 0 16.788018 11.192012 27.98003 27.98003 27.98003l0 0 330.164948-5.596006c16.788018 0 27.980229-11.192012 27.980229-27.980229S807.323938 494.939031 790.535721 494.939031zM717.787644 657.223602 717.787644 657.223602 465.966779 657.223602c-16.788018 0-27.98003 11.192012-27.98003 27.980229s11.192012 27.98003 27.98003 27.98003l0 0 251.820865 0c16.788018 0 27.980229-11.192012 27.980229-27.98003C745.767873 674.01182 734.575662 657.223602 717.787644 657.223602zM846.49598 237.52236 410.00652 237.52236c-72.748277 0-128.708536 55.960259-128.708536 128.708536l0 447.681472c0 72.748277 55.960259 128.708536 128.708536 128.708536l436.48966 0c72.748277 0 128.708536-55.960259 128.708536-128.708536L975.204715 366.230895C975.204515 299.078625 919.244057 237.52236 846.49598 237.52236zM919.244057 813.912367c0 39.172041-33.576235 72.748277-72.748277 72.748277L410.00652 886.660644c-39.172041 0-72.748277-33.576235-72.748277-72.748277L337.258243 366.230895c0-39.172241 33.576235-72.748277 72.748277-72.748277l436.48966 0c39.172041 0 72.748077 33.576235 72.748077 72.748277L919.244057 813.912367 919.244057 813.912367zM230.933931 696.395844l-22.384024 0c-39.172241 0-72.748277-33.576035-72.748277-72.748277L135.80163 175.966095c0-39.172041 33.576035-72.748277 72.748277-72.748277l442.085466 0c39.172041 0 72.748277 33.576035 72.748277 72.748277l0 16.788018c0 16.788018 11.192012 27.98003 27.98003 27.98003 16.788018 0 27.980229-11.192012 27.980229-27.98003l0-16.788018c0-72.748277-55.960259-128.708536-128.708536-128.708536L208.549907 47.257559c-72.748277 0-128.708536 55.960259-128.708536 128.708536l0 447.681472c0 72.748277 55.960259 128.708536 128.708536 128.708536l22.384024 0c16.788018 0 27.98003-11.192012 27.98003-27.98003C258.91396 707.587855 242.125943 696.395844 230.933931 696.395844z" p-id="1432" fill="#1296db"></path></svg>