<svg id="图层_1" data-name="图层 1" xmlns="http://www.w3.org/2000/svg" viewBox="0 0 16 16"><title>画板 55</title><polygon points="0.5 15.5 0.5 0.5 7.79 0.5 11.5 4.21 11.5 15.5 0.5 15.5" style="fill:#fff"/><path d="M7.59,1,11,4.41V15H1V1H7.59M8,0H0V16H12V4L8,0Z" style="fill:gray"/><polygon points="0.5 15.5 0.5 0.5 7.5 0.5 7.5 4.5 11.5 4.5 11.5 15.5 0.5 15.5" style="fill:#fff"/><path d="M7,1V5h4V15H1V1H7M8,0H0V16H12V4H8V0Z" style="fill:gray"/><path d="M13.77,11a2.16,2.16,0,0,0-1.36-.14,2.15,2.15,0,0,1-.73-.67L9.17,6.12a.13.13,0,0,0-.23,0,1.73,1.73,0,0,0-.07,2.15c.76,1,1.81,2.2,1.92,2.38,0,0,1.39,2.89,2.41,3.31a1.56,1.56,0,0,0,1.7-.8A1.73,1.73,0,0,0,13.77,11ZM11,10.07a.23.23,0,1,1,.23-.23.23.23,0,0,1-.23.23Zm2.93,3.29c-.36.21-.93-.09-1.28-.67s-.35-1.23,0-1.45.93.09,1.28.67.35,1.23,0,1.45ZM13.43,8a1.92,1.92,0,0,0-.24-1.91.12.12,0,0,0-.22,0L11.12,9l.57.94A10.07,10.07,0,0,0,13.43,8ZM9.59,10.91a2.16,2.16,0,0,0-1.35.14A1.73,1.73,0,0,0,7.1,13.18a1.56,1.56,0,0,0,1.7.8c.76-.31,1.69-2,2.12-2.88l-.61-.84a2.15,2.15,0,0,1-.72.65Zm-.25,1.82c-.35.59-.93.89-1.28.67S7.69,12.54,8,12s.93-.89,1.28-.67.36.86,0,1.45Zm0,0" style="fill:#4d84ba"/></svg>