<?xml version="1.0" standalone="no"?><!DOCTYPE svg PUBLIC "-//W3C//DTD SVG 1.1//EN" "http://www.w3.org/Graphics/SVG/1.1/DTD/svg11.dtd"><svg t="1535546648090" class="icon" style="" viewBox="0 0 1024 1024" version="1.1" xmlns="http://www.w3.org/2000/svg" p-id="10284" xmlns:xlink="http://www.w3.org/1999/xlink" width="64" height="64"><defs><style type="text/css"></style></defs><path d="M192 832h160a32 32 0 0 1 0 64H160a32 32 0 0 1-32-32V672a32 32 0 0 1 64 0z" p-id="10285" fill="#1296db"></path><path d="M182.72 886.72a32 32 0 0 1-45.44-45.44l224-224a32 32 0 0 1 45.44 45.44zM832 832V672a32 32 0 0 1 64 0v192a32 32 0 0 1-32 32H672a32 32 0 0 1 0-64z" p-id="10286" fill="#1296db"></path><path d="M886.72 841.28a32 32 0 0 1-45.44 45.44l-224-224a32 32 0 0 1 45.44-45.44zM192 192v160a32 32 0 0 1-64 0V160a32 32 0 0 1 32-32h192a32 32 0 0 1 0 64z" p-id="10287" fill="#1296db"></path><path d="M137.28 182.72a32 32 0 0 1 45.44-45.44l224 224a32 32 0 0 1-45.44 45.44zM832 192H672a32 32 0 0 1 0-64h192a32 32 0 0 1 32 32v192a32 32 0 0 1-64 0z" p-id="10288" fill="#1296db"></path><path d="M841.28 137.28a32 32 0 1 1 45.44 45.44l-224 224a32 32 0 0 1-45.44-45.44z" p-id="10289" fill="#1296db"></path></svg>