<svg id="图层_1" data-name="图层 1" xmlns="http://www.w3.org/2000/svg" viewBox="0 0 16 16"><title>画板 18</title><path d="M15.78.22a.5.5,0,0,0-.71,0L9.34,6l.77.64L15.78.93A.5.5,0,0,0,15.78.22Z" style="fill:gray"/><path d="M5.15,10.15.22,15.07a.5.5,0,1,0,.71.71l4.92-4.92Z" style="fill:gray"/><circle cx="10.5" cy="5.5" r="2" style="fill:#fff"/><path d="M10.5,4A1.5,1.5,0,1,1,9,5.5,1.5,1.5,0,0,1,10.5,4m0-1A2.5,2.5,0,1,0,13,5.5,2.5,2.5,0,0,0,10.5,3Z" style="fill:#4d84ba"/><circle cx="5.5" cy="10.5" r="2" style="fill:#fff"/><path d="M5.5,9A1.5,1.5,0,1,1,4,10.5,1.5,1.5,0,0,1,5.5,9m0-1A2.5,2.5,0,1,0,8,10.5,2.5,2.5,0,0,0,5.5,8Z" style="fill:#4d84ba"/></svg>