<svg id="图层_1" data-name="图层 1" xmlns="http://www.w3.org/2000/svg" viewBox="0 0 16 16"><title>画板 6</title><rect x="0.5" y="0.5" width="13" height="13" style="fill:#fff"/><path d="M13,1V13H1V1H13m1-1H0V14H14V0Z" style="fill:gray"/><polyline points="2 2 8 4 12 12 2 12 1.97 2.16" style="fill:#4d84ba;opacity:0.2"/><polygon points="2 7 2 2 6 4 9.5 7 2 12 2 7" style="fill:#4d84ba"/><path d="M15.92,11.84A5.37,5.37,0,0,0,11.5,9a5.36,5.36,0,0,0-4.41,2.84L7,12l.09.16A5.37,5.37,0,0,0,11.5,15a5.38,5.38,0,0,0,4.42-2.84L16,12Zm-4.42,2.5" style="fill:#fff"/><path d="M12.74,11.24a.48.48,0,1,1-.48-.48l.1,0a1.53,1.53,0,1,0,.37.37.5.5,0,0,1,0,.1Z" style="fill:#4d84ba"/><path d="M15.92,11.84A5.37,5.37,0,0,0,11.5,9a5.36,5.36,0,0,0-4.41,2.84L7,12l.09.16A5.37,5.37,0,0,0,11.5,15a5.38,5.38,0,0,0,4.42-2.84L16,12ZM11.5,14.4A5.14,5.14,0,0,1,7.56,12,5.12,5.12,0,0,1,11.5,9.6,5.12,5.12,0,0,1,15.44,12a5.13,5.13,0,0,1-3.94,2.4Zm0-.06" style="fill:gray"/></svg>