<?xml version="1.0" standalone="no"?><!DOCTYPE svg PUBLIC "-//W3C//DTD SVG 1.1//EN" "http://www.w3.org/Graphics/SVG/1.1/DTD/svg11.dtd"><svg t="1584002353716" class="icon" viewBox="0 0 1024 1024" version="1.1" xmlns="http://www.w3.org/2000/svg" p-id="588" xmlns:xlink="http://www.w3.org/1999/xlink" width="200" height="200"><defs><style type="text/css"></style></defs><path d="M968.992 490.848c-5.28-28.704-17.44-59.552-36.192-91.872a227.776 227.776 0 0 0-8.32-77.28c-15.296-53.888-48.544-100.992-98.752-140.096l-0.992-0.736-2.24-1.44a232.128 232.128 0 0 0-129.696-39.168c-54.624 0-111.424 18.304-169.056 54.464-17.6-12.576-48.832-27.744-96.992-27.744-45.76 0-97.6 14.016-154.112 41.536-21.76 6.016-157.856 47.808-205.024 161.056-28.96 69.536-18.176 149.92 32 239.136-8.288 25.056-26.56 84.192-3.04 128.064 18.496 34.496 87.968 147.04 204.576 147.04 8.96 0 18.112-0.672 27.136-2.016l1.312-0.256 8.736-1.728c51.072-10.016 64.928-15.488 212.48-137.664 2.048 0.992 4.256 2.144 6.496 3.328 18.592 9.632 44.032 22.848 81.696 22.848 4.512 0 9.12-0.192 13.76-0.576l1.568-0.16 4.8-0.96c89.696-18.304 186.496-42.624 224.576-83.936 4-4.352 9.056-9.28 14.432-14.528 22.688-22.112 53.76-52.384 67.296-97.44 7.456-24.928 8.672-51.808 3.52-79.84h0.032z m-48.608 20.576h-190.016a560.32 560.32 0 0 1-28.96-24.416 10.368 10.368 0 0 1-2.656-6.272h215.2c3.36 10.944 5.408 21.152 6.432 30.688z m-13.312-49.792h-204.64c3.616-9.888 9.344-20.992 14.912-30.688h174.816c5.952 10.816 10.912 21.024 14.912 30.688z m-25.728-61.184a30.144 30.144 0 0 0 0.672 11.392h-155.456c2.656-12.48 0.288-22.528-4.096-30.688h159.68c0.096 7.616-0.256 14.144-0.8 19.296z m-0.608-38.432h-174.112c-3.264-3.008-6.112-5.472-7.776-7.488-10.88-13.12-52.704-15.424-52.704-15.424l-27.68 22.912H447.04l0.864-22.016s-14.336-5.728-16.512-8.672h442.656c3.424 10.944 5.504 21.28 6.688 30.688z m-361.664 99.616h-75.904l1.184-30.688h90.88l-24.192 20.064 8.032 10.624z m14.368 19.104l23.136 30.688h-115.328l1.184-30.688h91.008z m37.44 49.792l23.136 30.688h-154.72l1.184-30.688h130.4z m-12.544-118.72h-113.248l1.184-30.688h149.12l-37.056 30.688z m134.464-220.384a180.48 180.48 0 0 1 85.312 21.184h-179.328c32.384-14.08 63.84-21.184 94.048-21.184h-0.032zM350.56 231.712h136.064c9.312 5.152 14.048 10.048 15.072 11.168l13.92 18.944 20.416-13.984c8.544-5.824 16.992-11.2 25.408-16.16h244.736c11.68 10.144 21.696 20.416 30.112 30.688H271.904c9.76-3.392 15.84-4.992 16.096-5.056 0 0 44.256-19.648 62.56-25.6zM226.752 281.504h623.68c6.848 10.432 12.288 20.736 16.64 30.688H177.248a313.216 313.216 0 0 1 49.504-30.688z m-71.648 49.824h266.976c-16.352 3.648-33.888 17.504-47.936 30.688H129.472a190.08 190.08 0 0 1 25.632-30.688zM355.2 381.12c-3.776 3.968-6.464 6.72-7.648 7.456-3.232 1.952-27.68-2.72-49.664-7.456H355.2z m-76.96 199.232l2.08 30.688H152.288a24.96 24.96 0 0 0-2.304-17.536c-0.416-0.736-5.536-9.568-7.552-13.184l135.808 0.032z m-131.776 49.76H281.6l1.696 25.056s2.368 2.368 5.888 5.632H138.656c2.144-11.68 5.312-22.624 7.808-30.688z m-27.936-248.992h133.504l-20.864 18.368v12.352H107.488c1.856-7.648 9.728-28.032 11.04-30.72z m-14.368 49.792h127.04v30.688H103.488a174.304 174.304 0 0 1 0.672-30.688z m132.48 49.824c5.984 8.128 15.616 21.344 21.792 30.688H112.8a238.4 238.4 0 0 1-7.104-30.688h130.944z m-117.408 49.792h148.096c3.104 9.984 6.912 23.808 8.8 30.688H132.544a355.008 355.008 0 0 1-13.312-30.688z m209.28 299.008l-8.384 1.664a131.072 131.072 0 0 1-18.944 1.376c-9.824 0-19.264-1.12-28.32-3.232h56.48l-0.832 0.192z m51.552-19.296H227.936a203.68 203.68 0 0 1-37.408-30.688h232.672c-18.432 14.272-32.064 23.872-43.136 30.688z m67.424-49.792H173.6a317.248 317.248 0 0 1-21.824-30.688h333.6c-14.176 11.616-26.72 21.792-37.888 30.688z m309.44-70.112c-28 8.512-56.8 15.232-80.256 20.288h-72.864c-8.192-3.072-15.584-6.912-22.88-10.656-9.056-4.704-17.632-9.152-27.296-12l-13.088-3.872-10.496 8.704-21.472 17.824H140.8c-4.032-8.672-5.12-19.488-4.512-30.688h177.792c1.792 0.736 3.296 1.056 4.352 0.672l2.016-0.672h467.488a491.2 491.2 0 0 1-31.008 10.4z m105.568-58.912c-5.888 5.76-11.424 11.168-16.384 16.544-2.88 3.168-8 7.52-16.832 12.896H353.408a24.448 24.448 0 0 0 2.624-3.264c3.936-5.888 7.136-17.056 9.28-27.488h498.528a50.112 50.112 0 0 1-1.344 1.312z m20.192-20.384H368.096l0.064-1.888c0-8.48 26.656-6.016 43.648-10.912 16.992-4.864 26.432-9.824 26.432-9.824l0.32-8.096h169.824l15.872 21.12c9.152 1.856 50.112-9.984 87.36-21.12h194.304c-6.56 11.392-14.592 21.44-23.232 30.72z m32.064-49.824h-145.6c15.232-9.92-0.864-19.648-0.864-19.648l-14.016-11.04h166.56a109.536 109.536 0 0 1-6.08 30.688z" fill="#1296db" p-id="589"></path></svg>