<svg id="图层_1" data-name="图层 1" xmlns="http://www.w3.org/2000/svg" viewBox="0 0 32 32"><title>画板 64 副本 3</title><path d="M5.92,29.5A4.42,4.42,0,0,1,1.5,25.08V10.95A6.46,6.46,0,0,1,7.95,4.5h17.9A1.66,1.66,0,0,1,27.5,6.16V27.84a1.66,1.66,0,0,1-1.66,1.66Z" style="fill:#fff"/><path d="M25.84,5A1.16,1.16,0,0,1,27,6.16V27.84A1.16,1.16,0,0,1,25.84,29H5.92A3.92,3.92,0,0,1,2,25.08V10.95A6,6,0,0,1,7.95,5h17.9m0-1H7.95A7,7,0,0,0,1,10.95V25.08A4.93,4.93,0,0,0,5.92,30H25.84A2.16,2.16,0,0,0,28,27.84V6.16A2.16,2.16,0,0,0,25.84,4Z" style="fill:gray"/><path d="M27,13.07a.71.71,0,0,0-1,0l-4.48,4.48-4-4,1.93-1.95a.69.69,0,0,0,0-1,.68.68,0,0,0-1,0l-1.91,2L12.77,8.81v0l0,0L9,5H7.76a.71.71,0,0,0,.07.89l3.42,3.42-5.4,5.4a.7.7,0,0,0,1,1l5.4-5.4,3.33,3.31L7.51,21.68a.68.68,0,0,0,0,1,.69.69,0,0,0,1,0l8.07-8.07L21,19.08v0h0l0,0h0v0h0l2,2a.72.72,0,0,0,1,0,.74.74,0,0,0,0-1l-1.5-1.5L27,14.12Z" style="fill:#b1b1b1"/><path d="M8,24.49a5.3,5.3,0,0,0-3.2-2H4.56A4.33,4.33,0,0,0,1.5,24.33V6.06A3.42,3.42,0,0,1,4.75,2.5,3.42,3.42,0,0,1,8,6.06Z" style="fill:#fff"/><path d="M4.75,3A2.92,2.92,0,0,1,7.5,6.06V23.29A4.92,4.92,0,0,0,4.85,22H4.56A4,4,0,0,0,2,23.1v-17A2.92,2.92,0,0,1,4.75,3m0-1A3.93,3.93,0,0,0,1,6.06V26c.11-.29,1.7-3,3.56-3h.19c2,.2,3.72,2.91,3.75,3V6.06A3.93,3.93,0,0,0,4.75,2ZM1,26s0,0,0,0H1v0Zm7.5,0h0Z" style="fill:gray"/><path d="M20.61,10.08l.78.82L17.5,15l-3.89-4.1.78-.82m0,0-.78.82a6,6,0,0,1,0-8.2,5.3,5.3,0,0,1,7.78,0,6,6,0,0,1,0,8.2h0l-.78-.82" style="fill:#4d84ba"/><circle cx="17.5" cy="6.5" r="2.5" style="fill:#fff"/><circle cx="24" cy="24" r="7" style="fill:#4d84ba"/><polygon points="28 23 25 23 25 20 23 20 23 23 20 23 20 25 23 25 23 28 25 28 25 25 28 25 28 23" style="fill:#fff"/></svg>