<?xml version="1.0" standalone="no"?><!DOCTYPE svg PUBLIC "-//W3C//DTD SVG 1.1//EN" "http://www.w3.org/Graphics/SVG/1.1/DTD/svg11.dtd"><svg t="1569228014328" class="icon" viewBox="0 0 1024 1024" version="1.1" xmlns="http://www.w3.org/2000/svg" p-id="3858" xmlns:xlink="http://www.w3.org/1999/xlink" width="200" height="200"><defs><style type="text/css"></style></defs><path d="M854.7 345.7L615.2 106.4c-5.3-5.3-12.4-8.2-19.9-8.2H173.8c-7.8 0-14.1 6.3-14.1 14.1v801.6c0 7.8 6.3 14.1 14.1 14.1h675c7.8 0 14.1-6.3 14.1-14.1V365.6c0-7.5-3-14.6-8.2-19.9z m-53 514.6H221V165.7h376.5v204.1h204.2v490.5z" p-id="3859" fill="#2c2c2c"></path><path d="M393.9 643l64.8-13.2c5.3 40.6 27.3 60.8 66.1 60.8 29.1-0.9 44.5-12.8 46.3-35.7 0.9-15.9-9.3-28.2-30.4-37-22-7.9-41.5-13.2-58.2-15.9-53.8-11.4-79.8-39.7-78-84.6 5.3-48.5 41-74.5 107.1-78 69.6-1.8 110.2 25.6 121.7 82l-64.8 11.9c-4.4-28.2-22.5-42.3-54.2-42.3-25.6 0.9-39.2 10.1-41 27.8-1.8 15.9 15.4 27.8 51.6 35.7 28.2 6.2 51.1 14.1 68.8 23.8 30.9 17.6 46.7 42.3 47.6 74.1-2.6 56.4-41 85.5-115.1 87.3-74.1 0.7-118.2-31.5-132.3-96.7z" p-id="3860" fill="#2c2c2c"></path></svg>