<svg id="图层_1" data-name="图层 1" xmlns="http://www.w3.org/2000/svg" viewBox="0 0 32 32"><title>画板 47</title><path d="M7,30a1,1,0,0,1-1-1V9A2,2,0,0,1,8,7H25a1,1,0,0,1,1,1V29a1,1,0,0,1-1,1Z" style="fill:#fff"/><path d="M25,8V29H7V9A1,1,0,0,1,8,8H25m0-2H8A3,3,0,0,0,5,9V29a2,2,0,0,0,2,2H25a2,2,0,0,0,2-2V8a2,2,0,0,0-2-2Z" style="fill:#4d84ba"/><rect x="9" y="2" width="14" height="5" rx="1" ry="1" style="fill:#fff"/><path d="M22,3V6H10V3H22m0-2H10A2,2,0,0,0,8,3V6a2,2,0,0,0,2,2H22a2,2,0,0,0,2-2V3a2,2,0,0,0-2-2Z" style="fill:#4d84ba"/><rect x="10" y="12" width="2" height="15" rx="1" ry="1" style="fill:#4d84ba"/><rect x="15" y="12" width="2" height="15" rx="1" ry="1" style="fill:#4d84ba"/><rect x="20" y="12" width="2" height="15" rx="1" ry="1" style="fill:#4d84ba"/><rect x="2" y="6" width="28" height="3" rx="1" ry="1" style="fill:#4d84ba"/></svg>