<svg id="图层_1" data-name="图层 1" xmlns="http://www.w3.org/2000/svg" viewBox="0 0 24 24"><title>5编辑选择-V</title><rect x="5.5" y="11.5" width="13" height="1" style="fill:#fff"/><polygon points="19 11 5 11 5 13 19 13 19 11 19 11" style="fill:#4d84ba"/><rect x="11.5" y="5.5" width="1" height="13" style="fill:#fff"/><path d="M12,6V6m1-1H11V19h2V5Z" style="fill:#4d84ba"/><polygon points="16.09 19.14 13.5 20.97 13.5 13.92 19.8 17.98 16.63 18.88 18.86 23.08 18.31 23.34 16.09 19.14" style="fill:#fff"/><path d="M14,14.83l4.6,3-1.51.43-.8.23,0-.05-.14.1-.22.06,0,.07-.61.43L14,20V14.83M13,13v8.94l2.91-2.06L18.09,24l1.45-.69-2.18-4.12,3.64-1L13,13Z" style="fill:gray"/></svg>