<svg id="图层_1" data-name="图层 1" xmlns="http://www.w3.org/2000/svg" viewBox="0 0 32 32"><title>画板 24</title><path d="M24.23,23.39l5.38,5.38a1.25,1.25,0,0,1,.05,1.76l-.14.14a1.25,1.25,0,0,1-1.76-.05l-5.38-5.38a1.25,1.25,0,0,1-.05-1.76l.14-.14A1.25,1.25,0,0,1,24.23,23.39Z" style="fill:gray"/><path d="M15,26.5A12.5,12.5,0,1,1,27.5,14,12.51,12.51,0,0,1,15,26.5Z" style="fill:#fff"/><path d="M15,2A12,12,0,1,1,3,14,12,12,0,0,1,15,2m0-1A13,13,0,1,0,28,14,13,13,0,0,0,15,1Z" style="fill:gray"/><rect x="9" y="13" width="12" height="2" rx="1" ry="1" style="fill:#4d84ba"/></svg>