<?xml version="1.0" standalone="no"?><!DOCTYPE svg PUBLIC "-//W3C//DTD SVG 1.1//EN" "http://www.w3.org/Graphics/SVG/1.1/DTD/svg11.dtd"><svg t="1523599337583" class="icon" style="" viewBox="0 0 1024 1024" version="1.1" xmlns="http://www.w3.org/2000/svg" p-id="24719" xmlns:xlink="http://www.w3.org/1999/xlink" width="128" height="128"><defs><style type="text/css"></style></defs><path d="M510.407736 960.414823c-60.290131 0-118.797663-11.81714-173.898609-35.122939-53.199643-22.50148-100.970646-54.706973-141.983735-95.720062s-73.218582-88.784092-95.720062-141.983735c-23.305799-55.101969-35.122939-113.608477-35.122939-173.898609 0-60.290131 11.81714-118.797663 35.122939-173.898609 22.50148-53.200666 54.706973-100.970646 95.720062-141.983735 41.013089-41.014112 88.784092-73.218582 141.983735-95.721085 55.101969-23.305799 113.608477-35.122939 173.898609-35.122939s118.797663 11.81714 173.898609 35.122939c53.199643 22.502503 100.970646 54.706973 141.983735 95.721085 41.013089 41.013089 73.218582 88.784092 95.720062 141.983735 23.305799 55.100946 35.122939 113.608477 35.122939 173.898609 0 60.290131-11.81714 118.797663-35.122939 173.898609-22.50148 53.199643-54.706973 100.970646-95.720062 141.983735s-88.784092 73.218582-141.983735 95.720062C629.205399 948.597683 570.697867 960.414823 510.407736 960.414823zM510.407736 130.408095c-102.377692 0-198.627826 39.868009-271.0206 112.260783-72.392774 72.392774-112.260783 168.642908-112.260783 271.0206 0 102.377692 39.868009 198.62885 112.260783 271.0206 72.392774 72.39175 168.642908 112.260783 271.0206 112.260783 102.377692 0 198.62885-39.868009 271.0206-112.260783 72.39175-72.392774 112.260783-168.642908 112.260783-271.0206 0-102.377692-39.868009-198.627826-112.260783-271.0206C709.036585 170.276105 612.786451 130.408095 510.407736 130.408095z" p-id="24720" fill="#3f81c1"></path><path d="M684.420955 514.493797 430.450682 708.683545 430.450682 318.694389Z" p-id="24721" fill="#3f81c1"></path></svg>