<?xml version="1.0" standalone="no"?><!DOCTYPE svg PUBLIC "-//W3C//DTD SVG 1.1//EN" "http://www.w3.org/Graphics/SVG/1.1/DTD/svg11.dtd"><svg t="1589447259906" class="icon" viewBox="0 0 1066 1024" version="1.1" xmlns="http://www.w3.org/2000/svg" p-id="4849" xmlns:xlink="http://www.w3.org/1999/xlink" width="66.625" height="64"><defs><style type="text/css"></style></defs><path d="M938.666667 85.333333v220.842667h-29.738667v170.666667H938.666667v220.885333h-217.514667v-5.674667l-375.68 148.352V938.666667H128v-220.842667l40.917333-0.042667 65.237334-331.306666h-56.746667V165.674667h217.514667v57.6l326.229333-66.218667V85.333333H938.666667zM286.165333 778.026667H187.306667v100.394666h98.858666v-100.394666zM721.152 218.368L394.922667 284.629333v101.888l-100.309334-0.042666-65.237333 331.306666h116.138667l-0.042667 57.984 375.68-148.394666v-150.528h128.469333v-170.666667h-128.426666l-0.042667-87.808z m158.208 318.72h-98.858667v100.394667h98.858667v-100.394667zM335.616 225.877333H236.757333v100.394667h98.858667V225.877333zM879.36 145.578667h-98.858667v100.394666h98.858667V145.578667z" p-id="4850" fill="#4d84ba"></path></svg>