<?xml version="1.0" standalone="no"?><!DOCTYPE svg PUBLIC "-//W3C//DTD SVG 1.1//EN" "http://www.w3.org/Graphics/SVG/1.1/DTD/svg11.dtd"><svg t="1596702721577" class="icon" viewBox="0 0 1024 1024" version="1.1" xmlns="http://www.w3.org/2000/svg" p-id="10587" xmlns:xlink="http://www.w3.org/1999/xlink" width="200" height="200"><defs><style type="text/css"></style></defs><path d="M588.56 575.75m-298.5 0a298.5 298.5 0 1 0 597 0 298.5 298.5 0 1 0-597 0Z" fill="#BAD4FF" p-id="10588"></path><path d="M574.32 561.51m-312.74 0a312.74 312.74 0 1 0 625.48 0 312.74 312.74 0 1 0-625.48 0Z" fill="#BAD4FF" p-id="10589"></path><path d="M511.33 98.23c-228.85 0-415 186.17-415 415a425.2 425.2 0 0 0 6.52 71c0 0.14 0.25 0.09 0.3 0.2a13.65 13.65 0 0 0 13.05 10.17 13.84 13.84 0 0 0 13.8-13.84 12 12 0 0 0-0.27-1.33l0.25-0.1a387.59 387.59 0 0 1-6-66.06c0-213.93 173.43-387.36 387.36-387.36S898.7 299.34 898.7 513.27 725.27 900.64 511.33 900.64c-143 0-267.51-77.67-334.62-192.91 0-0.06-0.09-0.11-0.12-0.18-0.17-0.3-0.38-0.59-0.55-0.89a13.7 13.7 0 0 0-12.04-7.4 13.84 13.84 0 0 0-13.83 13.84 13.52 13.52 0 0 0 2.76 7.87l-0.23 0.14c71.94 123.66 205.6 207.18 358.68 207.18 228.85 0 415-186.17 415-415S740.18 98.23 511.33 98.23z" fill="#3585F9" p-id="10590"></path><path d="M344.19 499.43m13.83 0l306.63 0q13.83 0 13.83 13.83l0 0.01q0 13.83-13.83 13.83l-306.63 0q-13.83 0-13.83-13.83l0-0.01q0-13.83 13.83-13.83Z" fill="#3585F9" p-id="10591"></path><path d="M497.5 346.12m13.83 0l0.01 0q13.83 0 13.83 13.83l0 306.63q0 13.83-13.83 13.83l-0.01 0q-13.83 0-13.83-13.83l0-306.63q0-13.83 13.83-13.83Z" fill="#3585F9" p-id="10592"></path></svg>