<svg id="图层_1" data-name="图层 1" xmlns="http://www.w3.org/2000/svg" viewBox="0 0 16 16"><title>画板 1</title><rect x="0.5" y="0.5" width="13" height="15" rx="0.5" ry="0.5" style="fill:#fff"/><path d="M13,1V15H1V1H13m0-1H1A1,1,0,0,0,0,1V15a1,1,0,0,0,1,1H13a1,1,0,0,0,1-1V1a1,1,0,0,0-1-1Z" style="fill:gray"/><rect x="2" y="4" width="3" height="3" style="fill:#eec97f"/><rect x="6" y="5" width="6" height="1" style="fill:#4d84ba"/><rect x="2" y="9" width="3" height="3" style="fill:#eec97f"/><rect x="6" y="10" width="6" height="1" style="fill:#4d84ba"/><circle cx="11.5" cy="11.5" r="4.5" style="fill:#de673e"/><polygon points="14 11 12 11 12 9 11 9 11 11 9 11 9 12 11 12 11 14 12 14 12 12 14 12 14 11" style="fill:#fff"/></svg>