<?xml version="1.0" standalone="no"?><!DOCTYPE svg PUBLIC "-//W3C//DTD SVG 1.1//EN" "http://www.w3.org/Graphics/SVG/1.1/DTD/svg11.dtd"><svg t="1570592221249" class="icon" viewBox="0 0 1024 1024" version="1.1" xmlns="http://www.w3.org/2000/svg" p-id="9917" xmlns:xlink="http://www.w3.org/1999/xlink" width="200" height="200"><defs><style type="text/css"></style></defs><path d="M560.15872 321.91488c-99.25632 0-179.72224 87.98208-179.72224 196.5056h359.45472c0-108.52352-80.46592-196.5056-179.73248-196.5056" fill="#DAE6EE" p-id="9918"></path><path d="M87.84896 721.02912H704.4096V593.21344H87.84896zM87.84896 945.27488H704.4096V817.4592H87.84896z" fill="#FFE7CF" p-id="9919"></path><path d="M977.22368 381.17376c-3.49184-3.4816-8.1408-4.64896-12.8-4.64896l-100.0448 1.16736-22.10816-56.9344 72.1408-72.02816c3.4816-3.4816 4.63872-8.1408 4.63872-12.8 0-4.63872-2.32448-9.28768-4.63872-12.76928L809.70752 118.58944c-6.98368-6.9632-17.44896-6.9632-24.43264 0l-72.13056 72.0384-55.84896-23.2448 1.16736-98.75456c0-4.64896-2.32448-9.29792-4.64896-12.77952C651.48928 52.35712 645.66272 51.2 641.024 51.2l-150.0672 2.33472c-9.29792 0-17.44896 8.13056-17.44896 17.41824l-1.16736 101.08928-58.1632 23.2448-76.77952-76.6976c-6.98368-6.9632-17.44896-6.9632-24.43264 0l-107.03872 106.9056c-3.4816 3.4816-4.64896 8.1408-4.64896 12.76928 0 4.64896 2.33472 9.29792 4.64896 12.8l77.94688 77.83424-25.58976 56.9344-100.05504 1.16736c-9.29792 0-17.44896 8.13056-17.44896 17.42848l-1.16736 115.02592h34.9184l1.15712-97.59744 94.22848-1.15712c6.98368 0 12.8-4.64896 15.12448-10.46528l34.89792-77.85472a20.29568 20.29568 0 0 0-3.4816-19.75296l-74.45504-74.36288 82.59584-82.4832 73.28768 73.19552c4.64896 4.64896 12.8 6.97344 18.61632 3.4816l79.104-32.53248c6.9632-2.32448 10.46528-9.28768 10.46528-16.26112l1.16736-95.2832 115.17952-1.16736-1.16736 92.95872c0 6.9632 4.64896 13.94688 10.45504 16.27136l77.94688 32.53248c6.98368 2.31424 13.96736 1.14688 18.61632-3.4816l68.63872-68.56704 80.27136 80.1792-67.4816 67.38944c-4.63872 4.63872-6.97344 11.61216-3.4816 18.5856l30.24896 77.85472c2.33472 6.9632 9.3184 11.6224 16.2816 11.6224l94.23872-1.16736-1.16736 115.02592-94.22848 1.16736c-6.98368 0-12.8 4.63872-15.12448 10.45504l-34.89792 77.84448a20.28544 20.28544 0 0 0 3.4816 19.7632l74.45504 74.35264-95.39584 95.2832 24.44288 24.40192 107.01824-106.9056c3.49184-3.4816 4.6592-8.13056 4.6592-12.77952 0-4.64896-2.32448-9.29792-4.6592-12.77952l-77.94688-77.85472 25.6-56.9344 100.0448-1.16736c9.30816 0 17.44896-8.13056 17.44896-17.41824L983.04 393.95328c-1.16736-4.64896-2.33472-9.29792-5.81632-12.77952" fill="#0E5DA1" p-id="9920"></path><path d="M560.7424 321.91488c-98.88768 0-180.31616 80.1792-180.31616 180.09088v17.43872h34.9184v-17.43872c0-80.15872 65.13664-145.22368 145.408-145.22368 80.26112 0 145.408 65.06496 145.408 145.22368v17.43872h34.89792v-17.43872c-1.14688-98.74432-81.42848-180.09088-180.30592-180.09088" fill="#0E5DA1" p-id="9921"></path><path d="M624.7424 519.44448v-17.42848c0-34.85696-29.09184-63.90784-64-63.90784-34.89792 0-63.96928 29.05088-63.96928 63.90784v17.42848h34.89792v-17.42848c0-16.27136 12.8-29.05088 29.0816-29.05088 16.2816 0 29.0816 12.77952 29.0816 29.05088v17.42848h34.89792z" fill="#0E5DA1" p-id="9922"></path><path d="M701.51168 713.48224c0 3.4816-2.33472 5.80608-5.82656 5.80608H95.40608c-3.4816 0-5.81632-2.32448-5.81632-5.80608V600.77056c0-3.4816 2.33472-5.80608 5.81632-5.80608h600.27904c3.49184 0 5.82656 2.32448 5.82656 5.80608v112.71168z m-5.82656-156.8768H95.40608A44.15488 44.15488 0 0 0 51.2 600.7808v112.71168a44.15488 44.15488 0 0 0 44.20608 44.1344h600.27904a44.16512 44.16512 0 0 0 44.21632-44.1344V600.77056a44.16512 44.16512 0 0 0-44.21632-44.15488z" fill="#FFA950" p-id="9923"></path><path d="M138.45504 673.97632h34.89792v-34.85696h-34.89792zM411.83232 673.97632H644.5056v-34.85696H411.83232zM701.51168 937.728c0 3.4816-2.33472 5.81632-5.82656 5.81632H95.40608c-3.4816 0-5.81632-2.33472-5.81632-5.81632V825.02656c0-3.4816 2.33472-5.81632 5.81632-5.81632h600.27904c3.49184 0 5.82656 2.32448 5.82656 5.81632v112.70144z m-5.82656-155.6992H95.40608A44.15488 44.15488 0 0 0 51.2 826.18368V938.9056a44.15488 44.15488 0 0 0 44.20608 44.1344h600.27904a44.16512 44.16512 0 0 0 44.21632-44.1344V826.18368a44.16512 44.16512 0 0 0-44.21632-44.15488z" fill="#FFA950" p-id="9924"></path><path d="M138.45504 899.3792h34.89792v-34.85696h-34.89792zM411.83232 899.3792H644.5056v-34.85696H411.83232z" fill="#FFA950" p-id="9925"></path></svg>