<?xml version="1.0" standalone="no"?><!DOCTYPE svg PUBLIC "-//W3C//DTD SVG 1.1//EN" "http://www.w3.org/Graphics/SVG/1.1/DTD/svg11.dtd"><svg t="1539682904009" class="icon" style="" viewBox="0 0 1025 1024" version="1.1" xmlns="http://www.w3.org/2000/svg" p-id="2520" xmlns:xlink="http://www.w3.org/1999/xlink" width="64.0625" height="64"><defs><style type="text/css"></style></defs><path d="M658.501818 992.116364c-24.203636 0-47.941818-10.193455-63.464727-27.298909-19.293091-21.108364-59.857455-52.386909-85.597091-52.386909-26.717091 0-68.561455 33.466182-85.038545 51.362909-22.946909 24.948364-64.628364 33.908364-95.930182 20.084364l-3.258182-1.512727L202.24 913.291636c-30.882909-21.643636-42.589091-63.790545-27.345455-98.117818 2.443636-5.701818 9.053091-24.296727 9.053091-39.168 0-57.250909-46.568727-103.819636-103.819636-103.819636L75.915636 672.186182c-0.023273 0-0.023273 0-0.046545 0-32.512 0-57.809455-25.250909-65.233455-64.349091C8.843636 598.155636 0 548.584727 0 507.717818s8.843636-90.437818 10.589091-99.956364c7.400727-39.261091 32.698182-64.535273 64.488727-64.535273l5.073455 0c57.250909 0 103.819636-46.568727 103.819636-103.819636 0-14.941091-6.725818-33.768727-9.076364-39.191273C159.627636 165.818182 171.450182 123.694545 202.356364 102.237091L205.661091 100.072727l128.837818-70.609455c34.420364-14.638545 73.285818-4.980364 96.302545 19.269818 18.920727 19.805091 58.717091 49.198545 83.758545 49.198545 24.878545 0 64.349091-28.811636 83.176727-48.267636 23.04-23.970909 64.488727-32.325818 95.278545-18.990545l3.304727 1.559273 124.439273 69.282909c31.860364 22.248727 43.613091 64.395636 28.369455 98.769455-2.490182 5.794909-9.099636 24.250182-9.099636 39.144727 0 57.250909 46.568727 103.819636 103.819636 103.819636l4.282182 0 0.023273 0c32.488727 0 57.809455 25.250909 65.256727 64.325818C1015.156364 417.28 1024 466.850909 1024 507.717818s-8.843636 90.437818-10.612364 99.956364c-7.447273 39.261091-32.791273 64.512-64.558545 64.512l-5.003636 0c-57.250909 0-103.819636 46.568727-103.819636 103.819636 0 13.847273 5.794909 31.371636 9.216 39.517091 15.127273 34.024727 3.374545 76.148364-27.531636 97.675636l-3.281455 2.117818-127.627636 70.260364C680.820364 989.928727 669.952 992.116364 658.501818 992.116364zM509.463273 865.861818c57.553455 0 117.480727 64.837818 119.994182 67.584 9.867636 10.891636 29.626182 15.173818 42.891636 9.402182l122.391273-67.584c13.288727-9.890909 17.943273-27.368727 11.822545-41.146182-3.258182-7.749818-13.102545-33.117091-13.102545-58.112 0-82.920727 67.444364-150.365091 150.365091-150.365091l4.282182 0 0 0c8.843636 0 16.593455-10.891636 19.549091-26.484364C968.634182 593.780364 977.454545 545.303273 977.454545 507.717818s-8.820364-86.039273-9.821091-91.461818c-2.978909-15.592727-10.705455-26.484364-18.804364-26.484364l-5.026909 0c-82.920727 0-150.365091-67.444364-150.365091-150.365091 0-28.997818 13.405091-58.717091 13.544727-58.996364 5.818182-13.172364 0.791273-31.185455-11.915636-40.029091l-120.296727-66.885818c-16.872727-6.865455-33.768727-1.745455-43.566545 8.448-2.513455 2.583273-61.114182 62.510545-116.689455 62.510545-55.924364 0-114.967273-61.044364-117.457455-63.627636-10.053818-10.612364-29.765818-14.801455-43.217455-9.006545L229.306182 140.194909C215.994182 150.109091 211.316364 167.563636 217.413818 181.341091c0.884364 1.466182 13.102545 30.626909 13.102545 58.088727 0 82.920727-67.444364 150.365091-150.365091 150.365091L75.915636 389.794909c0 0 0 0-0.023273 0-8.890182 0-16.593455 10.868364-19.525818 26.461091C55.365818 421.678545 46.545455 470.178909 46.545455 507.717818s8.820364 86.039273 9.821091 91.461818c2.955636 15.592727 10.682182 26.507636 18.781091 26.507636l5.003636-0.023273c82.920727 0 150.365091 67.444364 150.365091 150.365091 0 28.322909-12.916364 57.762909-13.056 58.065455-6.283636 14.126545-1.28 32.139636 11.403636 41.029818l117.969455 65.978182c17.408 7.168 33.675636 1.629091 43.287273-8.820364C390.749091 931.607273 451.886545 865.861818 509.463273 865.861818z" p-id="2521" fill="#1296db"></path><path d="M512 699.857455c-106.170182 0-192.535273-86.365091-192.535273-192.512s86.388364-192.512 192.535273-192.512c106.146909 0 192.488727 86.365091 192.488727 192.512S618.146909 699.857455 512 699.857455zM512 361.355636c-80.500364 0-145.989818 65.489455-145.989818 145.966545s65.489455 145.966545 145.989818 145.966545c80.477091 0 145.943273-65.489455 145.943273-145.966545S592.477091 361.355636 512 361.355636z" p-id="2522" fill="#1296db"></path></svg>