<?xml version="1.0" standalone="no"?><!DOCTYPE svg PUBLIC "-//W3C//DTD SVG 1.1//EN" "http://www.w3.org/Graphics/SVG/1.1/DTD/svg11.dtd"><svg t="1539745866815" class="icon" style="" viewBox="0 0 1024 1024" version="1.1" xmlns="http://www.w3.org/2000/svg" p-id="26504" xmlns:xlink="http://www.w3.org/1999/xlink" width="32" height="32"><defs><style type="text/css"></style></defs><path d="M546.3 135.4L938.4 330c28.5 14.1 28.5 54.8 0 68.9L546.3 593.6c-21.6 10.7-47.1 10.7-68.7 0L85.4 398.9c-28.5-14.1-28.5-54.8 0-68.9l392.1-194.6c21.7-10.7 47.1-10.7 68.8 0zM938.4 641.6l-15.8-7.8-376.3 186.8c-21.6 10.7-47.1 10.7-68.7 0L101.2 633.8l-15.8 7.8c-28.5 14.1-28.5 54.8 0 68.9l392.1 194.6c21.6 10.7 47.1 10.7 68.7 0l392.1-194.6c28.5-14.1 28.5-54.7 0.1-68.9z" p-id="26505" fill="#1296db"></path><path d="M938.4 489.8l-11.9-5.9-380.2 188.6c-21.6 10.7-47.1 10.7-68.7 0L97.4 483.9l-11.9 5.9c-28.5 14.1-28.5 54.8 0 68.9l392.1 194.6c21.6 10.7 47.1 10.7 68.7 0l392.1-194.6c28.4-14.1 28.4-54.8 0-68.9z" p-id="26506" fill="#1296db"></path></svg>