<?xml version="1.0" standalone="no"?><!DOCTYPE svg PUBLIC "-//W3C//DTD SVG 1.1//EN" "http://www.w3.org/Graphics/SVG/1.1/DTD/svg11.dtd"><svg t="1587698390891" class="icon" viewBox="0 0 1024 1024" version="1.1" xmlns="http://www.w3.org/2000/svg" p-id="4066" xmlns:xlink="http://www.w3.org/1999/xlink" width="200" height="200"><defs><style type="text/css"></style></defs><path d="M180.544 196.992l389.44 0c0 0 63.488 1.984 64.64 57.728 1.152 56.384-64.64 56.512-64.64 56.512L360.576 311.232c0 0-49.6-7.552-69.44 44.48C283.456 375.872 217.664 559.488 192.064 640c-7.232 22.72 10.048 28.864 24.128 29.248 14.72 0.512 27.968 0.256 40.192 0 16.384-0.128 30.272-6.4 37.888-29.248 16.384-49.728 69.696-182.4 76.608-199.872C388.736 395.008 412.16 399.616 438.016 399.616c47.168 0 491.712 0 491.712 0 61.12 0 84.032 33.024 66.304 83.968L921.6 849.344C902.592 908.032 845.44 960 784.32 960L182.656 960C118.912 960 64 905.6 64 844.48l0-534.4C64 249.024 119.488 196.992 180.544 196.992zM763.648 267.648c-29.184-2.304-34.752-3.904-8.64-29.952 18.24-19.968 41.536-38.592 41.536-38.592 0.704-1.792-18.176-47.872-95.168-81.472S512.512 116.928 482.368 132.48c-14.272 12.224-57.6 19.136-18.24-20.8 66.624-62.528 161.024-101.696 263.232-72.576 95.104 27.328 139.392 82.368 142.72 89.92-0.448 0.576-0.576 0.96 0.064 0.96 0 0 0.192-0.384-0.064-0.96 2.048-2.816 16.256-13.248 40.64-35.712 20.864-21.248 26.944-16 29.376 9.856 3.008 48.64 1.344 187.456 1.344 187.456S811.392 274.496 763.648 267.648z" p-id="4067" fill="#2c2c2c"></path></svg>