<?xml version="1.0" encoding="utf-8"?>
<!-- Generator: Adobe Illustrator 15.0.0, SVG Export Plug-In . SVG Version: 6.00 Build 0)  -->
<!DOCTYPE svg PUBLIC "-//W3C//DTD SVG 1.1//EN" "http://www.w3.org/Graphics/SVG/1.1/DTD/svg11.dtd">
<svg version="1.1" id="Layer_1" xmlns="http://www.w3.org/2000/svg" xmlns:xlink="http://www.w3.org/1999/xlink" x="0px" y="0px"
	 width="64px" height="64px" viewBox="0 0 64 64" enable-background="new 0 0 64 64" xml:space="preserve">
<g>
	<g>
		<g>
			<path fill="#1296db" d="M3.805,60.247h41.319V18.929H3.805V60.247z M7.486,56.566v-33.96h33.958v33.96"/>
		</g>
	</g>
	<g>
		<g>
			<polygon fill="#1296db" points="54.575,48.681 54.575,25.314 59.192,29.932 60.195,28.932 53.865,22.606 47.539,28.932 
				48.542,29.932 53.159,25.314 53.159,48.681 48.542,44.063 47.539,45.063 53.865,51.392 60.195,45.063 59.192,44.063 			"/>
		</g>
	</g>
	<g>
		<g>
			<polygon fill="#1296db" points="17.313,15.406 12.693,10.789 36.06,10.789 31.439,15.406 32.444,16.408 38.768,10.082 
				32.444,3.753 31.439,4.755 36.06,9.372 12.693,9.372 17.313,4.755 16.312,3.753 9.982,10.082 16.312,16.408 			"/>
		</g>
	</g>
</g>
</svg>
