<?xml version="1.0" standalone="no"?><!DOCTYPE svg PUBLIC "-//W3C//DTD SVG 1.1//EN" "http://www.w3.org/Graphics/SVG/1.1/DTD/svg11.dtd"><svg t="1589522793057" class="icon" viewBox="0 0 1024 1024" version="1.1" xmlns="http://www.w3.org/2000/svg" p-id="7718" xmlns:xlink="http://www.w3.org/1999/xlink" width="64" height="64"><defs><style type="text/css"></style></defs><path d="M882.346667 782.506667H853.333333V213.333333a28.586667 28.586667 0 0 0-28.586666-28.586666H198.826667V113.493333a28.586667 28.586667 0 0 0-56.746667 0v71.253334h-28.586667a28.586667 28.586667 0 0 0 0 56.746666h28.586667V810.666667a28.586667 28.586667 0 0 0 28.586667 28.586666h625.92v71.253334a28.586667 28.586667 0 1 0 56.746666 0v-71.253334h28.586667a28.586667 28.586667 0 0 0 0-56.746666z m-682.666667 0V241.493333h597.333333v541.013334zM298.666667 384a56.746667 56.746667 0 1 0 56.746666-57.173333A56.746667 56.746667 0 0 0 298.666667 384z m454.826666 306.773333l-85.333333-225.706666a15.36 15.36 0 0 0-12.8-9.813334 15.36 15.36 0 0 0-14.933333 6.826667l-95.573334 145.92a15.786667 15.786667 0 0 1-20.053333 5.546667l-163.84-79.786667a15.786667 15.786667 0 0 0-20.053333 5.546667l-97.28 148.48a14.506667 14.506667 0 0 0 0 15.786666 15.36 15.36 0 0 0 13.653333 8.106667h481.28a15.36 15.36 0 0 0 12.8-6.4 14.506667 14.506667 0 0 0 1.706667-14.506667z" p-id="7719" fill="#4d84ba"></path></svg>