<svg id="图层_1" data-name="图层 1" xmlns="http://www.w3.org/2000/svg" viewBox="0 0 32 32"><title>画板 50</title><polygon points="0.5 30.5 0.5 1.31 15.79 1.31 23.5 9.07 23.5 30.5 0.5 30.5" style="fill:#fff"/><path d="M15.58,1.81,23,9.28V30H1V1.81H15.58m.42-1H0V31H24V8.86l-8-8Z" style="fill:gray"/><polygon points="0.5 30.5 0.5 1.31 15.5 1.31 15.5 9.36 23.5 9.36 23.5 30.5 0.5 30.5" style="fill:#fff"/><path d="M15,1.81v8h8V30H1V1.81H15m1-1H0V31H24V8.86H16v-8Z" style="fill:gray"/><rect x="3" y="10.88" width="18" height="1.01" style="fill:#b1b1b1"/><rect x="3" y="13.89" width="18" height="1.01" style="fill:#b1b1b1"/><polygon points="3 17.92 19 17.92 20 16.91 3 16.91 3 17.92" style="fill:#b1b1b1"/><polygon points="3 20.94 16 20.94 17 19.93 3 19.93 3 20.94" style="fill:#b1b1b1"/><polygon points="3 23.96 14 23.96 15 22.95 3 22.95 3 23.96" style="fill:#b1b1b1"/><polygon points="3 26.98 13 26.98 14 25.97 3 25.97 3 26.98" style="fill:#b1b1b1"/><rect x="3" y="3.83" width="10" height="5.03" style="fill:#de673e"/><path d="M29.64,14.41l-1.37,1.35L24.52,12l1.37-1.35a1,1,0,0,1,1.43-.12L29.79,13a1.08,1.08,0,0,1-.15,1.44ZM17.5,18.9l6.37-6.26,3.78,3.71-9,8.92a.62.62,0,0,1-.33.18s0,0-.06,0L13.57,27a.38.38,0,0,1-.36-.06.31.31,0,0,1-.06-.36l1.49-4.64s0,0,0-.06a.67.67,0,0,1,.21-.36l1.73-1.59M17.5,25l-2.32-2.31-.63,1.95,1,1Zm6.25-10.87a.36.36,0,0,0-.48,0l-7.05,6.95a.31.31,0,0,0,0,.48.36.36,0,0,0,.48,0l7-6.95a.34.34,0,0,0,0-.48Z" style="fill:#5da58e"/></svg>