<svg id="图层_1" data-name="图层 1" xmlns="http://www.w3.org/2000/svg" viewBox="0 0 16 16"><title>画板 4</title><rect x="2.5" y="0.5" width="11" height="11" style="fill:#fff"/><path d="M13,1V11H3V1H13m1-1H2V12H14V0Z" style="fill:gray"/><rect x="0.5" y="2.5" width="11" height="11" style="fill:#fff"/><path d="M11,3V13H1V3H11m1-1H0V14H12V2Z" style="fill:gray"/><path d="M11.5,16A4.5,4.5,0,1,1,16,11.5,4.5,4.5,0,0,1,11.5,16" style="fill:#5da58e"/><rect x="9" y="11" width="5" height="1" style="fill:#fff"/><rect x="9" y="11" width="5" height="1" transform="translate(0 23) rotate(-90)" style="fill:#fff"/><path d="M-103.07,46a.32.32,0,0,1-.23-.09l-2.15-2.15a.32.32,0,0,1,0-.45.32.32,0,0,1,.45,0l1.93,1.93,4-4a.32.32,0,0,1,.45,0,.32.32,0,0,1,0,.45l-4.21,4.21a.32.32,0,0,1-.23.09Zm289-36a.32.32,0,0,1-.23-.09l-2.15-2.15A.32.32,0,0,1,184,7.3l1.93,1.93,4-4a.32.32,0,0,1,.45.45l-4.21,4.21a.32.32,0,0,1-.23.09Zm-289,36" style="fill:#b1b1b1"/></svg>