<?xml version="1.0" standalone="no"?><!DOCTYPE svg PUBLIC "-//W3C//DTD SVG 1.1//EN" "http://www.w3.org/Graphics/SVG/1.1/DTD/svg11.dtd"><svg t="1585723570341" class="icon" viewBox="0 0 1024 1024" version="1.1" xmlns="http://www.w3.org/2000/svg" p-id="1688" xmlns:xlink="http://www.w3.org/1999/xlink" width="200" height="200"><defs><style type="text/css"></style></defs><path d="M840.5 900.3h-657c-16.5 0-29.9 13.4-29.9 29.9s13.4 29.9 29.9 29.9h657.1c16.5 0 29.9-13.4 29.9-29.9-0.1-16.6-13.5-29.9-30-29.9zM512 134.2l251.2 228H631.5v418.2h-239V362.3H260.9L512 134.2m0-70.2c-7.6 0-15.3 2.9-21.1 8.7L162.4 371c-18.8 18.8-5.5 51 21.1 51h149.3v358.4c0 33 26.7 59.7 59.7 59.7h238.9c33 0 59.7-26.7 59.7-59.7V422h149.3c26.6 0 39.9-32.2 21.1-51L533.1 72.7c-5.8-5.8-13.5-8.7-21.1-8.7z" p-id="1689"></path></svg>