<svg id="图层_1" data-name="图层 1" xmlns="http://www.w3.org/2000/svg" viewBox="0 0 16 16"><title>画板 53</title><text transform="translate(-152 -14.25)" style="font-size:4px;font-family:AdobeSongStd-Light-GBpc-EUC-H, Adobe Song Std"><tspan xml:space="preserve">      41删除数据              42定时获取查看          43定时获取设置             44TimingAcquireLog         45板本轴                       46工程统计                        47上移                             48下移</tspan><tspan x="0" y="96" xml:space="preserve">   </tspan></text><rect x="0.5" y="0.5" width="14" height="14" rx="0.44" ry="0.44" style="fill:#fff"/><path d="M14,1V14H1V1H14m.06-1H.94A.94.94,0,0,0,0,.94V14.06A.94.94,0,0,0,.94,15H14.06a.94.94,0,0,0,.94-.94V.94A.94.94,0,0,0,14.06,0Z" style="fill:gray"/><rect x="3" y="3" width="4" height="5" style="fill:#eec97f"/><rect x="8" y="3" width="4" height="3" style="fill:#de673e"/><rect x="8" y="7" width="4" height="5" style="fill:#eec97f"/><rect x="3" y="9" width="4" height="3" style="fill:#de673e"/><path d="M8,15.5a.5.5,0,0,1-.5-.5V9A.5.5,0,0,1,8,8.5h2a.5.5,0,0,1,.5.5v.5H14a.5.5,0,0,1,.5.5v5a.5.5,0,0,1-.5.5Z" style="fill:#fff"/><path d="M10,9v1h4v5H8V9h2m0-1H8A1,1,0,0,0,7,9v6a1,1,0,0,0,1,1h6a1,1,0,0,0,1-1V10a1,1,0,0,0-1-1H11a1,1,0,0,0-1-1Z" style="fill:#4d84ba"/><path d="M15.22,11H9.14a1.42,1.42,0,0,0-1.29,1L7,15a.75.75,0,0,0,.74,1h6.09a1.42,1.42,0,0,0,1.29-1L16,12A.75.75,0,0,0,15.22,11Z" style="fill:#4d84ba"/></svg>