<?xml version="1.0" standalone="no"?><!DOCTYPE svg PUBLIC "-//W3C//DTD SVG 1.1//EN" "http://www.w3.org/Graphics/SVG/1.1/DTD/svg11.dtd"><svg t="1533193236944" class="icon" style="" viewBox="0 0 1024 1024" version="1.1" xmlns="http://www.w3.org/2000/svg" p-id="5662" xmlns:xlink="http://www.w3.org/1999/xlink" width="64" height="64"><defs><style type="text/css"></style></defs><path d="M880.2 356.8c21.1 49.3 31.8 101 31.8 155.2 0 54.1-10.7 105.9-31.8 155.2-21.1 49.3-49.6 91.8-85.5 127.6s-78.3 64.2-127.6 85.5C617.9 901.3 566.2 912 512 912c-59.7 0-116.4-12.6-170.3-37.8-53.8-25.2-99.7-60.6-137.5-106.5-2.4-3.5-3.6-7.3-3.4-11.8 0.2-4.4 1.6-7.8 4.4-10.7l71.3-71.9c3.5-3.2 7.7-4.7 13.1-4.7 5.6 0.7 9.6 2.7 12 6.2 25.3 33 56.4 58.5 93.2 76.5s75.9 27 117.2 27c36.1 0 70.5-7 103.4-21.1 32.9-14 61.2-33.1 85.1-57.1 24-24 42.9-52.4 57.1-85.1 14-32.9 21.1-67.3 21.1-103.4s-7-70.5-21.1-103.4c-14.2-32.9-33.1-61.2-57.1-85.1-24-24-52.4-42.9-85.1-57.1-32.9-14-67.3-21.1-103.4-21.1-34.1 0-66.7 6.1-97.9 18.5-31.2 12.4-59 29.9-83.4 52.9l71.3 71.9c10.8 10.4 13.2 22.3 7.3 35.9-5.9 13.9-16.1 20.8-30.8 20.8H145.3c-8.9 0-16.9-3.3-23.4-9.9s-9.9-14.4-9.9-23.4v-233c0-14.6 6.9-24.8 20.8-30.8 13.6-5.9 25.5-3.5 35.9 7.3l67.7 67.2c37.1-35.1 79.6-62.2 127.4-81.4 47.8-19.3 97.1-29 148.2-29 54.1 0 105.9 10.7 155.2 31.8s91.8 49.6 127.6 85.5c35.8 35.7 64.2 78.2 85.4 127.6z" p-id="5663" fill="#1296db"></path></svg>