<?xml version="1.0" encoding="utf-8"?>
<!-- Generator: Adobe Illustrator 21.1.0, SVG Export Plug-In . SVG Version: 6.00 Build 0)  -->
<svg version="1.1" id="图层_1" xmlns="http://www.w3.org/2000/svg" xmlns:xlink="http://www.w3.org/1999/xlink" x="0px" y="0px"
	 viewBox="0 0 16 16" style="enable-background:new 0 0 16 16;" xml:space="preserve">
<style type="text/css">
	.st0{fill:#FFFFFF;}
	.st1{fill:#808080;}
	.st2{fill:#4D84BA;}
	.st3{fill:#FFFFFF;stroke:#808080;stroke-miterlimit:10;}
	.st4{fill:#525B67;}
	.st5{fill:none;stroke:#4D84BA;stroke-linecap:round;stroke-linejoin:round;stroke-miterlimit:10;}
	.st6{fill:#B1B1B1;}
	.st7{fill:#FED543;}
	.st8{fill:#EEC97F;}
	.st9{fill:#5DA58E;}
	.st10{fill:#DE673E;}
	.st11{fill:none;stroke:#4D84BA;stroke-miterlimit:10;}
	.st12{fill:none;stroke:#808080;stroke-miterlimit:10;}
	.st13{clip-path:url(#SVGID_2_);}
	.st14{opacity:0.2;fill:#4D84BA;}
	.st15{fill:#FFFFFF;stroke:#4D84BA;stroke-miterlimit:10;}
	.st16{clip-path:url(#SVGID_4_);}
	.st17{fill:#7E7E7E;}
	.st18{fill:none;stroke:#7E7E7E;stroke-miterlimit:10;}
</style>
<polyline class="st2" points="16,7 12,2 8,7 11,7 11,16 13,16 13,7 16,7 "/>
<g>
	<rect class="st0" width="16" height="1"/>
	<polygon class="st1" points="16,0 0,0 0,1 16,1 16,0 	"/>
</g>
<g>
	<polygon class="st1" points="2,1 1,1 1,16 2,16 2,1 	"/>
</g>
<g>
	<rect x="2" y="5" class="st0" width="2" height="1"/>
	<polygon class="st1" points="4,5 2,5 2,6 4,6 4,5 	"/>
</g>
<g>
	<rect x="4.5" y="4.5" class="st0" width="2" height="2"/>
	<path class="st1" d="M6,5v1H5V5H6 M7,4H4v3h3V4L7,4z"/>
</g>
<g>
	<rect x="2" y="11" class="st0" width="2" height="1"/>
	<polygon class="st1" points="4,11 2,11 2,12 4,12 4,11 	"/>
</g>
<g>
	<rect x="4.5" y="10.5" class="st0" width="2" height="2"/>
	<path class="st1" d="M6,11v1H5v-1H6 M7,10H4v3h3V10L7,10z"/>
</g>
</svg>
