<?xml version="1.0" standalone="no"?><!DOCTYPE svg PUBLIC "-//W3C//DTD SVG 1.1//EN" "http://www.w3.org/Graphics/SVG/1.1/DTD/svg11.dtd"><svg t="1586415885181" class="icon" viewBox="0 0 1024 1024" version="1.1" xmlns="http://www.w3.org/2000/svg" p-id="2153" xmlns:xlink="http://www.w3.org/1999/xlink" width="200" height="200"><defs><style type="text/css"></style></defs><path d="M300.8 723.2c0 12.8 0 19.2 6.4 25.6 6.4 6.4 12.8 6.4 19.2 6.4h6.4l172.8-44.8 448-448c19.2-19.2 32-51.2 0-83.2l-64-64c-32-32-64-32-96 6.4l-448 435.2-44.8 166.4zM825.6 160c6.4-6.4 19.2-6.4 25.6 0l44.8 44.8c6.4 6.4 6.4 19.2 0 25.6l-44.8 44.8-70.4-70.4 44.8-44.8zM736 249.6l70.4 70.4-313.6 313.6-70.4-70.4L736 249.6zM384 608l64 64-83.2 19.2L384 608z m544-204.8c-25.6 0-38.4 12.8-38.4 25.6v409.6c0 19.2-19.2 38.4-38.4 38.4H166.4c-19.2 0-38.4-19.2-38.4-38.4V179.2c0-19.2 19.2-38.4 38.4-38.4h448c12.8 0 25.6-12.8 25.6-32s-12.8-32-32-32H160c-51.2 0-96 44.8-96 96v678.4c0 51.2 44.8 96 96 96h704c51.2 0 96-44.8 96-96v-416c0-19.2-12.8-32-32-32z" p-id="2154" fill="#2c2c2c"></path></svg>