<?xml version="1.0" standalone="no"?><!DOCTYPE svg PUBLIC "-//W3C//DTD SVG 1.1//EN" "http://www.w3.org/Graphics/SVG/1.1/DTD/svg11.dtd"><svg t="1570592098700" class="icon" viewBox="0 0 1024 1024" version="1.1" xmlns="http://www.w3.org/2000/svg" p-id="6179" xmlns:xlink="http://www.w3.org/1999/xlink" width="200" height="200"><defs><style type="text/css"></style></defs><path d="M64.083 63.868h832.091v64.122H64.083z" p-id="6180" fill="#1296db"></path><path d="M64.012 127.99h64.012v767.649H64.012z" p-id="6181" fill="#1296db"></path><path d="M64.012 831.721h320.105v63.919H64.012zM832.162 127.854h64.012v192.142h-64.012zM192.037 255.953h384.075v63.915H192.037zM191.726 383.79h320.139v64.419H191.726zM192.39 512h191.728v63.919H192.39zM525.793 723.243c-12.857-76.24 31.311-153.279 110.181-182.428 58.449-21.61 121.471-11.274 166.094 19.593l-37.974 58.322 170.287-0.623-60.861-167.421-31.176 47.869c-65.745-40.372-155.372-53.575-233.853-24.562-108.735 40.192-171.32 144.136-158.965 249.25h76.267z m0 0M882.541 681.511C895.387 757.75 851.242 834.8 772.37 863.939c-53.765 19.87-113.016 12.382-158.573-14.406 8.674-13.351 34.313-52.72 34.313-52.72l-183.123-10.188 77.49 172.41 32.49-49.884c65.735 40.372 146.384 50.633 224.865 21.62 108.714-40.202 171.322-144.136 158.965-249.238h-76.255v-0.022z m0 0" p-id="6182" fill="#1296db"></path></svg>