<svg id="图层_1" data-name="图层 1" xmlns="http://www.w3.org/2000/svg" viewBox="0 0 16 16"><title>画板 5</title><rect x="5.5" y="2.5" width="9" height="9" style="fill:#fff"/><path d="M14,3v8H6V3h8m1-1H5V12H15V2Z" style="fill:gray"/><rect x="2.5" y="4.21" width="9.29" height="9.29" style="fill:#fff"/><path d="M11.29,4.71V13H3V4.71h8.29m1-1H2V14H12.29V3.71Z" style="fill:gray"/><polygon points="1 10 0 10 0 16 1 16 1 10 1 10" style="fill:gray"/><rect y="15" width="6" height="1" style="fill:#fff"/><polygon points="6 15 0 15 0 16 6 16 6 15 6 15" style="fill:gray"/><path d="M7,1.81A1.42,1.42,0,0,1,8.5.5h0A1.42,1.42,0,0,1,10,1.81V13.19A1.42,1.42,0,0,1,8.5,14.5h0A1.42,1.42,0,0,1,7,13.19V5.74" style="fill:none;stroke:#4d84ba;stroke-miterlimit:10"/><path d="M11.5,16A4.5,4.5,0,1,1,16,11.5,4.5,4.5,0,0,1,11.5,16" style="fill:#5da58e"/><rect x="9" y="11" width="5" height="1" style="fill:#fff"/><rect x="9" y="11" width="5" height="1" transform="translate(0 23) rotate(-90)" style="fill:#fff"/><path d="M-139.07,46a.32.32,0,0,1-.23-.09l-2.15-2.15a.32.32,0,0,1,0-.45.32.32,0,0,1,.45,0l1.93,1.93,4-4a.32.32,0,0,1,.45,0,.32.32,0,0,1,0,.45l-4.21,4.21a.32.32,0,0,1-.23.09Zm289-36a.32.32,0,0,1-.23-.09l-2.15-2.15A.32.32,0,0,1,148,7.3l1.93,1.93,4-4a.32.32,0,0,1,.45.45l-4.21,4.21a.32.32,0,0,1-.23.09Zm-289,36" style="fill:#b1b1b1"/></svg>