<svg id="图层_1" data-name="图层 1" xmlns="http://www.w3.org/2000/svg" viewBox="0 0 16 16"><title>画板 40</title><rect x="9.5" y="9.5" width="6" height="6" style="fill:#fff"/><path d="M15,10v5H10V10h5m1-1H9v7h7V9Z" style="fill:gray"/><polyline points="15 15 15 12.5 15 10 12.87 11 11 12.5" style="fill:#de673e"/><rect x="9.5" y="0.5" width="6" height="6" style="fill:#fff"/><path d="M15,1V6H10V1h5m1-1H9V7h7V0Z" style="fill:gray"/><polygon points="12.5 1 10 1 11 3.13 12.5 5 15 1 12.5 1" style="fill:#5da58e"/><rect x="0.5" y="0.5" width="6" height="6" style="fill:#fff"/><path d="M6,1V6H1V1H6M7,0H0V7H7V0Z" style="fill:gray"/><polygon points="1 3.5 1 1 3 2 4.75 3.5 1 6 1 3.5" style="fill:#fed543"/><rect x="0.5" y="9.5" width="6" height="6" style="fill:#fff"/><path d="M6,10v5H1V10H6M7,9H0v7H7V9Z" style="fill:gray"/><polygon points="3.5 15 6 15 5 12.87 3.5 11 1 15 3.5 15" style="fill:#4d84ba"/></svg>