<?xml version="1.0" standalone="no"?><!DOCTYPE svg PUBLIC "-//W3C//DTD SVG 1.1//EN" "http://www.w3.org/Graphics/SVG/1.1/DTD/svg11.dtd"><svg t="1555402146594" class="icon" style="" viewBox="0 0 1024 1024" version="1.1" xmlns="http://www.w3.org/2000/svg" p-id="1646" xmlns:xlink="http://www.w3.org/1999/xlink" width="32" height="32"><defs><style type="text/css"></style></defs><path d="M768 266.24v-163.84c0-12.288 8.192-20.48 20.48-20.48s20.48 8.192 20.48 20.48v163.84h163.84c12.288 0 20.48 8.192 20.48 20.48s-8.192 20.48-20.48 20.48h-163.84v163.84c0 12.288-8.192 20.48-20.48 20.48s-20.48-8.192-20.48-20.48v-163.84h-163.84c-12.288 0-20.48-8.192-20.48-20.48s8.192-20.48 20.48-20.48h163.84z m-286.72 688.128l374.784-210.944c4.096-2.048 8.192-8.192 8.192-12.288v-225.28c0-12.288 8.192-20.48 20.48-20.48s20.48 8.192 20.48 20.48v225.28c0 18.432-12.288 38.912-28.672 49.152l-382.976 215.04c-16.384 8.192-38.912 8.192-55.296 0l-378.88-215.04c-16.384-10.24-28.672-28.672-28.672-49.152v-446.464c0-18.432 12.288-38.912 28.672-49.152l378.88-219.136c16.384-10.24 40.96-10.24 55.296 0l163.84 96.256c10.24 6.144 12.288 18.432 8.192 28.672s-18.432 12.288-28.672 8.192l-163.84-96.256c-4.096-2.048-12.288-2.048-14.336 0l-378.88 219.136c-4.096 2.048-8.192 8.192-8.192 12.288v2.048c4.096 0 6.144 0 10.24 2.048l382.976 210.944 172.032-94.208c10.24-6.144 22.528-2.048 28.672 8.192s2.048 22.528-8.192 28.672l-174.08 96.256v415.744z m-40.96-4.096v-417.792l-368.64-202.752v401.408c0 4.096 4.096 10.24 8.192 12.288l360.448 206.848z" p-id="1647" fill="#1296db"></path></svg>