<svg id="图层_1" data-name="图层 1" xmlns="http://www.w3.org/2000/svg" viewBox="0 0 32 32"><title>画板 7</title><rect x="2" y="1" width="25" height="30" rx="2" ry="2" style="fill:#fff"/><rect x="5" y="4.83" width="10" height="5.03" style="fill:#eec97f"/><path d="M26,28c0,1.1,0,2-1,2H5c-1,0-2,0-2-1V4C3,3,3,2,4,2H25c1,0,1,1,1,2V16h1V3a2,2,0,0,0-2-2H4A2,2,0,0,0,2,3V29a2,2,0,0,0,2,2H25a2,2,0,0,0,2-2V28Z" style="fill:gray"/><rect x="5" y="13" width="19" height="1" rx="0.5" ry="0.5" style="fill:#b1b1b1"/><rect x="5" y="17" width="15" height="1" rx="0.48" ry="0.48" style="fill:#b1b1b1"/><rect x="5" y="25" width="8" height="1" rx="0.5" ry="0.5" style="fill:#b1b1b1"/><rect x="5" y="21" width="6" height="1" rx="0.5" ry="0.5" style="fill:#b1b1b1"/><path d="M29.69,16.3a1,1,0,0,0-1.45,0L21,23.55h0l-3.23-3.23a1,1,0,0,0-1.45,1.45l.7.7h0l3.23,3.23a1.09,1.09,0,0,0,1.49,0l8-8A1,1,0,0,0,29.69,16.3Z" style="fill:#4d84ba"/><rect x="26" y="24" width="1" height="4" style="fill:gray"/></svg>