<svg id="图层_1" data-name="图层 1" xmlns="http://www.w3.org/2000/svg" viewBox="0 0 32 32"><title>画板 30</title><rect x="25.63" y="21.98" width="2.74" height="10.06" rx="1.27" ry="1.27" transform="translate(-11.19 27) rotate(-45)" style="fill:#4d84ba"/><path d="M16,26.5A12.5,12.5,0,1,1,28.5,14,12.51,12.51,0,0,1,16,26.5Z" style="fill:#fff"/><path d="M16,2A12,12,0,1,1,4,14,12,12,0,0,1,16,2m0-1A13,13,0,1,0,29,14,13,13,0,0,0,16,1Z" style="fill:#4d84ba"/><rect x="1.5" y="12.5" width="18" height="18" style="fill:#fff"/><path d="M19,13V30H2V13H19m1-1H1V31H20V12Z" style="fill:gray"/><polyline points="7.3 16.08 14.01 21.66 7.3 27.25" style="fill:none;stroke:#4d84ba;stroke-linecap:round;stroke-linejoin:round"/></svg>