<svg id="图层_1" data-name="图层 1" xmlns="http://www.w3.org/2000/svg" viewBox="0 0 32 32"><title>画板 61</title><path d="M15,29.5a13.76,13.76,0,0,1-13.5-14A13.76,13.76,0,0,1,15,1.53a13.76,13.76,0,0,1,13.5,14A13.76,13.76,0,0,1,15,29.5Z" style="fill:#fff"/><path d="M15,2A13.26,13.26,0,0,1,28,15.52,13.26,13.26,0,0,1,15,29,13.26,13.26,0,0,1,2,15.52,13.26,13.26,0,0,1,15,2m0-1A14.25,14.25,0,0,0,1,15.52,14.25,14.25,0,0,0,15,30,14.25,14.25,0,0,0,29,15.52,14.25,14.25,0,0,0,15,1Z" style="fill:gray"/><circle cx="24" cy="24" r="7" style="fill:#4d84ba"/><polygon points="28 23 25 23 25 20 23 20 23 23 20 23 20 25 23 25 23 28 25 28 25 25 28 25 28 23" style="fill:#fff"/></svg>