<svg id="图层_1" data-name="图层 1" xmlns="http://www.w3.org/2000/svg" viewBox="0 0 16 16"><title>画板 49</title><rect x="2.5" y="0.5" width="5" height="15" rx="0.5" ry="0.5" style="fill:#fff"/><path d="M7,1V15H3V1H7M7,0H3A1,1,0,0,0,2,1V15a1,1,0,0,0,1,1H7a1,1,0,0,0,1-1V1A1,1,0,0,0,7,0Z" style="fill:gray"/><rect x="4" y="2" width="3" height="1" style="fill:#b1b1b1"/><rect x="4" y="10" width="3" height="1" style="fill:#b1b1b1"/><rect x="5" y="4" width="2" height="1" style="fill:#b1b1b1"/><rect x="5" y="6" width="2" height="1" style="fill:#b1b1b1"/><rect x="5" y="8" width="2" height="1" style="fill:#b1b1b1"/><rect x="5" y="12" width="2" height="1" style="fill:#b1b1b1"/><polygon points="10 4 11.5 2.5 13 4 10 4" style="fill:gray"/><polygon points="10 11.5 11.5 13 13 11.5 10 11.5" style="fill:gray"/><rect x="9" y="1" width="5" height="1" style="fill:gray"/><rect x="9" y="14" width="5" height="1" style="fill:gray"/><rect x="11" y="4" width="1" height="8" style="fill:gray"/></svg>