<svg id="图层_1" data-name="图层 1" xmlns="http://www.w3.org/2000/svg" viewBox="0 0 16 16"><title>画板 41</title><polygon points="0.5 15.5 0.5 0.5 8.79 0.5 12.5 4.21 12.5 15.5 0.5 15.5" style="fill:#fff"/><path d="M8.59,1,12,4.41V15H1V1H8.59M9,0H0V16H13V4L9,0Z" style="fill:gray"/><rect x="2" y="3" width="5" height="2" style="fill:#de673e"/><polygon points="9 0 8 0 8 5 9 5 9 0 9 0" style="fill:gray"/><rect x="8" y="4" width="5" height="1" style="fill:#fff"/><polygon points="13 4 8 4 8 5 13 5 13 4 13 4" style="fill:gray"/><rect x="2" y="7" width="9" height="1" rx="0.5" ry="0.5" style="fill:#b1b1b1"/><rect x="2" y="13" width="4" height="1" rx="0.5" ry="0.5" style="fill:#b1b1b1"/><path d="M15.92,11.84A5.37,5.37,0,0,0,11.5,9a5.36,5.36,0,0,0-4.41,2.84L7,12l.09.16A5.37,5.37,0,0,0,11.5,15a5.38,5.38,0,0,0,4.42-2.84L16,12Zm-4.42,2.5" style="fill:#fff"/><path d="M12.74,11.24a.48.48,0,1,1-.48-.48l.1,0a1.53,1.53,0,1,0,.37.37.5.5,0,0,1,0,.1Z" style="fill:#4d84ba"/><path d="M15.92,11.84A5.37,5.37,0,0,0,11.5,9a5.36,5.36,0,0,0-4.41,2.84L7,12l.09.16A5.37,5.37,0,0,0,11.5,15a5.38,5.38,0,0,0,4.42-2.84L16,12ZM11.5,14.4A5.14,5.14,0,0,1,7.56,12,5.12,5.12,0,0,1,11.5,9.6,5.12,5.12,0,0,1,15.44,12a5.13,5.13,0,0,1-3.94,2.4Zm0-.06" style="fill:gray"/><rect x="2" y="10" width="5" height="1" rx="0.5" ry="0.5" style="fill:#b1b1b1"/></svg>