<svg id="图层_1" data-name="图层 1" xmlns="http://www.w3.org/2000/svg" viewBox="0 0 16 16"><title>画板 22</title><rect x="0.5" y="0.5" width="13" height="13" rx="0.5" ry="0.5" style="fill:#fff"/><path d="M13,1V13H1V1H13m0-1H1A1,1,0,0,0,0,1V13a1,1,0,0,0,1,1H13a1,1,0,0,0,1-1V1a1,1,0,0,0-1-1Z" style="fill:gray"/><path d="M1,13H13L9.9,6.42h0C9.8,6.18,9.66,6,9.5,6s-.27.15-.4.36l-.58,1c-.12.18-.22.3-.36.3a.42.42,0,0,1-.34-.26l-.13-.26L6,3.48C5.87,3.17,5.68,3,5.48,3s-.4.21-.53.5L1,13M9.9,6.42" style="fill:#4d84ba"/><circle cx="10.5" cy="3.5" r="1.5" style="fill:#eec97f"/><circle cx="11.5" cy="11.5" r="4.5" style="fill:#4d84ba"/><polygon points="14 11 12 11 12 9 11 9 11 11 9 11 9 12 11 12 11 14 12 14 12 12 14 12 14 11" style="fill:#fff"/></svg>