<?xml version="1.0" standalone="no"?><!DOCTYPE svg PUBLIC "-//W3C//DTD SVG 1.1//EN" "http://www.w3.org/Graphics/SVG/1.1/DTD/svg11.dtd"><svg t="1575281058692" class="icon" viewBox="0 0 1024 1024" version="1.1" xmlns="http://www.w3.org/2000/svg" p-id="2053" xmlns:xlink="http://www.w3.org/1999/xlink" width="200" height="200"><defs><style type="text/css"></style></defs><path d="M903.424 714.752q0-43.008-16.128-82.176-16.384-37.888-45.568-67.328-29.44-29.184-67.328-45.568-39.168-16.64-82.432-16.64-43.008 0-82.432 16.64-37.888 16.384-67.072 45.568-29.44 29.44-45.568 67.328-16.64 39.168-16.64 82.176 0 43.264 16.64 82.432 16.128 37.888 45.568 67.328 29.184 29.184 67.072 45.568 39.424 16.384 82.432 16.384 43.264 0 82.432-16.384 37.888-16.384 67.328-45.568 29.184-29.44 45.568-67.328 16.128-39.168 16.128-82.432m-61.696-26.88q8.192 0 13.824 5.888 6.144 5.888 6.144 14.08v13.312q0 8.192-6.144 14.08-5.632 5.888-13.824 5.888h-122.88l0.256 123.648q0 7.936-5.376 13.568-5.632 5.376-13.568 5.376h-14.848q-8.192 0.512-13.824-5.376-5.632-5.632-5.632-13.568l-0.256-123.648h-123.136q-8.448 0-14.08-5.888-5.888-5.888-5.888-14.08v-13.312q0-8.192 5.888-14.08 5.632-5.888 14.08-5.888h122.88l-0.512-123.904q-0.256-7.68 5.376-13.312t13.568-5.632h15.104q7.936-0.256 13.568 5.376 5.632 5.632 5.632 13.568l0.512 123.904h123.136M430.08 413.696q-4.864 4.864-4.864 12.032v155.648q0 7.168 4.864 12.288 5.12 4.608 12.032 4.608 7.424 0 12.288-4.608 5.376-5.376 5.376-12.288V442.88h120.832q7.168 0 12.288-4.864 4.864-5.12 4.864-12.288t-4.864-12.032q-5.376-5.376-12.288-5.12H442.112q-6.912 0-12.032 5.12m461.824-22.784V97.28H131.584v829.184h276.224v-276.48h38.4q4.72576-17.16736 11.776-33.792 0.10752-0.256 0.256-0.512h-50.432v-224.768h207.36V472.576q17.00864-5.36064 34.56-8.448v-73.216h242.176m-34.816-259.328v224.768h-207.36V131.584h207.36m-241.92 0v224.768h-207.36V131.584h207.36m-241.664 224.768h-207.36V131.584h207.36v224.768m-207.36 34.56h207.36v224.768h-207.36v-224.768m207.36 501.248h-207.36v-242.176h207.36v242.176m-22.528-194.816q5.12-5.12 5.12-12.288 0-7.424-5.12-12.288-5.376-5.376-12.288-5.376h-138.24q-7.168 0-12.288 5.376-4.864 4.864-4.864 12.288v172.544q0 7.424 4.864 12.288 5.12 4.864 12.288 4.864t12.288-4.864q4.864-4.864 4.864-12.288v-155.648h121.088q7.168 0 12.288-4.608m-162.816-283.648q-4.864 4.864-4.864 12.032v155.648q0 7.168 4.864 12.288 5.12 4.608 12.288 4.608t12.288-4.608q4.864-5.12 4.864-12.288V442.88h121.088q7.168 0 12.288-4.864 5.12-5.12 5.12-12.288t-5.12-12.032q-5.376-5.376-12.288-5.12h-138.24q-7.168 0-12.288 5.12m162.816-234.752q5.12-5.12 5.12-12.288t-5.12-12.288q-5.12-5.12-12.288-5.12h-138.24q-7.168 0-12.288 5.12-4.864 5.12-4.864 12.288V322.048q0 7.168 4.864 12.288 5.12 4.864 12.288 4.864t12.288-4.864q4.864-5.12 4.864-12.288V183.552h121.088q7.168 0 12.288-4.608M430.08 154.368q-4.864 5.12-4.864 12.288V322.048q0 7.168 4.864 12.288 5.12 4.864 12.032 4.864 7.424 0 12.288-4.864 5.376-5.376 5.376-12.288V183.552h120.832q7.168 0 12.288-4.608 4.864-5.12 4.864-12.288t-4.864-12.288q-5.12-5.12-12.288-5.12H442.112q-6.912 0-12.032 5.12m409.856 12.288q0-7.168-5.376-12.288-4.864-5.12-12.288-5.12h-137.984q-7.424 0-12.288 5.12-5.12 5.12-5.12 12.288V322.048q0 6.912 5.12 12.288 4.864 4.864 12.288 4.864 7.168 0 12.288-4.864 5.12-5.12 5.12-12.288V183.552h120.576q7.424 0 12.288-4.608 5.376-5.376 5.376-12.288z" p-id="2054" fill="#1296db"></path></svg>