<?xml version="1.0" standalone="no"?><!DOCTYPE svg PUBLIC "-//W3C//DTD SVG 1.1//EN" "http://www.w3.org/Graphics/SVG/1.1/DTD/svg11.dtd"><svg t="1591361090875" class="icon" viewBox="0 0 1024 1024" version="1.1" xmlns="http://www.w3.org/2000/svg" p-id="37790" xmlns:xlink="http://www.w3.org/1999/xlink" width="64" height="64"><defs><style type="text/css"></style></defs><path d="M273.44 128H128v145.44L273.44 128z m72 0L480 235.648V480H128v416h768V128H345.44zM128 96h768a32 32 0 0 1 32 32v768a32 32 0 0 1-32 32H128a32 32 0 0 1-32-32V128a32 32 0 0 1 32-32z m0 222.72V448h320V251.008L307.84 138.88 128 318.72z m416 535.904L521.376 832 832 521.376l22.624 22.624L544 854.624z m-6.624-166.624l-148.704-148.672a16 16 0 0 1 22.656-22.656l148.672 148.704v-88.256a16 16 0 1 1 32 0V720h-143.84a16 16 0 0 1 0-32h89.216z" fill="#4d84ba" p-id="37791"></path></svg>