<svg id="图层_1" data-name="图层 1" xmlns="http://www.w3.org/2000/svg" viewBox="0 0 32 32"><title>画板 29</title><rect x="24.95" y="20.84" width="3.08" height="11.32" rx="1.43" ry="1.43" transform="translate(-10.98 26.49) rotate(-45)" style="fill:#4d84ba"/><path d="M15,26.5A12.5,12.5,0,1,1,27.5,14,12.51,12.51,0,0,1,15,26.5Z" style="fill:#fff"/><path d="M15,2A12,12,0,1,1,3,14,12,12,0,0,1,15,2m0-1A13,13,0,1,0,28,14,13,13,0,0,0,15,1Z" style="fill:#4d84ba"/><rect x="1.49" y="12.5" width="18" height="17.99" style="fill:#fff"/><path d="M19,13V30H2V13H19m1-1H1V31H20V12Z" style="fill:gray"/><polyline points="14 16.07 7.3 21.66 14 27.24" style="fill:none;stroke:#4d84ba;stroke-linecap:round;stroke-linejoin:round"/></svg>