<svg id="图层_1" data-name="图层 1" xmlns="http://www.w3.org/2000/svg" viewBox="0 0 32 32"><title>画板 21</title><polygon points="4.5 30.5 4.5 1.5 20.97 1.5 27.5 8.2 27.5 30.5 4.5 30.5" style="fill:#fff"/><path d="M20.76,2,27,8.41V30H5V2H20.76m.42-1H4V31H28V8L21.18,1Z" style="fill:gray"/><polygon points="4.5 30.5 4.5 1.5 20.5 1.5 20.5 8.5 27.5 8.5 27.5 30.5 4.5 30.5" style="fill:#fff"/><path d="M20,2V9h7V30H5V2H20m1-1H4V31H28V8H21V1Z" style="fill:gray"/><polygon points="17 12 15 12 15 17 10 17 10 19 15 19 15 24 17 24 17 19 22 19 22 17 17 17 17 12 17 12" style="fill:#4d84ba"/></svg>