<svg id="图层_1" data-name="图层 1" xmlns="http://www.w3.org/2000/svg" viewBox="0 0 32 32"><title>画板 68</title><polygon points="4.5 30.5 4.5 1.5 20.79 1.5 27.5 8.21 27.5 30.5 4.5 30.5" style="fill:#fff"/><path d="M20.59,2,27,8.41V30H5V2H20.59M21,1H4V31H28V8L21,1Z" style="fill:gray"/><polygon points="4.5 30.5 4.5 1.5 20.5 1.5 20.5 8.5 27.5 8.5 27.5 30.5 4.5 30.5" style="fill:#fff"/><path d="M20,2V9h7V30H5V2H20m1-1H4V31H28V8H21V1Z" style="fill:gray"/><rect x="7" y="11" width="18" height="1" style="fill:#b1b1b1"/><rect x="7" y="14" width="18" height="1" style="fill:#b1b1b1"/><rect x="7" y="17" width="18" height="1" style="fill:#b1b1b1"/><rect x="7" y="8" width="11" height="1" style="fill:#b1b1b1"/><polygon points="12 24.5 16.5 20 21 24.5 17.4 24.5 17.4 29 15.6 29 15.6 24.5 12 24.5" style="fill:#4d84ba"/></svg>