<svg id="图层_1" data-name="图层 1" xmlns="http://www.w3.org/2000/svg" viewBox="0 0 16 16"><title>画板 28</title><rect x="0.5" y="0.5" width="13" height="15" rx="0.71" ry="0.71" style="fill:#fff"/><path d="M12.79,1a.21.21,0,0,1,.21.21V14.79a.21.21,0,0,1-.21.21H1.21A.21.21,0,0,1,1,14.79V1.21A.21.21,0,0,1,1.21,1H12.79m0-1H1.21A1.21,1.21,0,0,0,0,1.21V14.79A1.21,1.21,0,0,0,1.21,16H12.79A1.21,1.21,0,0,0,14,14.79V1.21A1.21,1.21,0,0,0,12.79,0Z" style="fill:gray"/><circle cx="3" cy="3" r="0.5" style="fill:#fff"/><path d="M3,2A1,1,0,1,0,4,3,1,1,0,0,0,3,2Z" style="fill:gray"/><circle cx="3" cy="8" r="0.5" style="fill:#fff"/><path d="M3,7A1,1,0,1,0,4,8,1,1,0,0,0,3,7Z" style="fill:gray"/><circle cx="3" cy="13" r="0.5" style="fill:#fff"/><path d="M3,12a1,1,0,1,0,1,1,1,1,0,0,0-1-1Z" style="fill:gray"/><rect x="1" y="5" width="12" height="1" style="fill:#fff"/><polygon points="13 5 1 5 1 6 13 6 13 5 13 5" style="fill:gray"/><rect x="1" y="10" width="12" height="1" style="fill:#fff"/><polygon points="13 10 1 10 1 11 13 11 13 10 13 10" style="fill:gray"/><circle cx="11.5" cy="11.5" r="4.5" style="fill:#4d84ba"/><rect x="9" y="11" width="5" height="1" style="fill:#fff"/><rect x="9" y="11" width="5" height="1" transform="translate(0 23) rotate(-90)" style="fill:#fff"/></svg>