<?xml version="1.0" standalone="no"?><!DOCTYPE svg PUBLIC "-//W3C//DTD SVG 1.1//EN" "http://www.w3.org/Graphics/SVG/1.1/DTD/svg11.dtd"><svg t="1587605942302" class="icon" viewBox="0 0 1024 1024" version="1.1" xmlns="http://www.w3.org/2000/svg" p-id="1684" width="32" height="32" xmlns:xlink="http://www.w3.org/1999/xlink"><defs><style type="text/css"></style></defs><path d="M755.916 98.271L149 98.333c-23.826 0-50.576 26.919-50.576 50.601v606.521c0 25.643 26.758 50.502 50.576 50.636h606.916c25.035-0.134 50.576-25.003 50.576-50.636V148.934c0-23.615-25.532-50.601-50.576-50.663z m-77.455 247.082L412.159 611.658l-0.007 0.008c-12.28 12.28-31 14.196-45.29 5.757a37.603 37.603 0 0 1-7.414-5.757l-0.004-0.004-153.326-153.325c-14.553-14.554-14.553-38.152 0-52.708 14.554-14.554 38.151-14.554 52.704 0l126.98 126.979 239.955-239.959c14.558-14.554 38.155-14.554 52.708 0 14.549 14.554 14.549 38.15-0.004 52.704z" p-id="1685" fill="#4D84BA"></path><path d="M960.163 489.052l0.002 430.019 0.001 0.012c0 18.861-12.905 34.708-30.36 39.202a40.859 40.859 0 0 1-10.115 1.272h-0.006l-559.495 0.001c-22.353-0.001-40.475-18.123-40.478-40.478 0-22.354 18.121-40.475 40.475-40.475l519.029-0.001-0.003-389.553c0.003-22.357 18.124-40.478 40.478-40.478 22.35 0.004 40.471 18.126 40.472 40.479z" p-id="1686" fill="#4D84BA"></path></svg>