<?xml version="1.0" encoding="iso-8859-1"?>
<!-- Generator: Adobe Illustrator 19.0.0, SVG Export Plug-In . SVG Version: 6.00 Build 0)  -->
<svg xmlns="http://www.w3.org/2000/svg" xmlns:xlink="http://www.w3.org/1999/xlink" version="1.1" id="Layer_1" x="0px" y="0px" viewBox="0 0 512.085 512.085" style="enable-background:new 0 0 512.085 512.085;" xml:space="preserve" width="512" height="512">
<path fill="#1296db" d="M491.185,135.877c7.81,7.811,7.81,20.475,0,28.285c-3.905,3.905-9.024,5.857-14.143,5.857s-10.237-1.952-14.143-5.857  l-50.857-50.857l-50.857,50.857c-3.905,3.905-9.024,5.857-14.143,5.857s-10.237-1.952-14.143-5.857  c-7.81-7.811-7.81-20.475,0-28.285l50.857-50.857L332.9,34.162c-7.81-7.811-7.81-20.475,0-28.285c7.811-7.811,20.475-7.811,28.285,0  l50.857,50.857L462.9,5.877c7.811-7.811,20.475-7.811,28.285,0c7.81,7.811,7.81,20.475,0,28.285L440.328,85.02L491.185,135.877z   M323.506,204.276L114.28,14.715c-0.172-0.156-0.347-0.309-0.524-0.459C95.711-0.982,71.194-4.27,49.772,5.678  c-21.422,9.947-34.729,30.8-34.729,54.419v38c0,11.046,8.954,20,20,20s20-8.954,20-20v-38c0-11.844,8.86-16.879,11.576-18.14  c2.692-1.252,12.119-4.725,21.101,2.67L295.976,233.31c7.712,8.663,4.604,18.422,3.445,21.248  c-1.149,2.808-5.782,11.946-17.387,12.539h-72.992c-6.862,0-13.245,3.518-16.909,9.319c-3.665,5.802-4.099,13.077-1.15,19.273  l69.941,147c0.021,0.045,0.042,0.089,0.063,0.133c2.409,4.968,2.713,10.567,0.855,15.767c-1.857,5.2-5.64,9.34-10.652,11.658  c-10.039,4.642-22.089,0.337-26.92-9.598l-70.088-150.975c-3.233-6.964-10.167-11.462-17.844-11.576  c-7.7-0.09-14.741,4.178-18.18,11.042l-32.679,65.246c-2.158,2.142-6.375,3.711-10.215,3.711c-0.03,0-0.062,0-0.092-0.001  c-9.522-0.063-20.132-9.112-20.132-22v-158c0-11.046-8.954-20-20-20s-20,8.954-20,20v158c0,16.605,6.434,32.233,18.116,44.005  c11.249,11.335,26.468,17.895,41.753,17.995c0.11,0,0.22,0.001,0.331,0.001c13.676-0.001,32.147-5.538,43.374-21.119  c0.624-0.866,1.178-1.78,1.656-2.735l15.086-30.121l52.694,113.506c0.036,0.077,0.072,0.153,0.109,0.23  c10.338,21.545,32.108,34.229,54.687,34.227c8.45-0.001,17.018-1.778,25.136-5.533c14.834-6.861,26.03-19.116,31.528-34.508  c5.486-15.363,4.601-31.905-2.494-46.592l-56.313-118.355h41.76c0.249,0,0.498-0.005,0.746-0.014  c23.754-0.888,44.148-15.204,53.226-37.365c9.126-22.282,4.601-46.937-11.81-64.342  C324.268,204.994,323.894,204.627,323.506,204.276z"/>















</svg>
