<?xml version="1.0" standalone="no"?><!DOCTYPE svg PUBLIC "-//W3C//DTD SVG 1.1//EN" "http://www.w3.org/Graphics/SVG/1.1/DTD/svg11.dtd"><svg t="1540969934950" class="icon" style="" viewBox="0 0 1024 1024" version="1.1" xmlns="http://www.w3.org/2000/svg" p-id="2498" xmlns:xlink="http://www.w3.org/1999/xlink" width="64" height="64"><defs><style type="text/css"></style></defs><path d="M938.672 1024H640a85.328 85.328 0 0 1-85.328-85.328V640A85.328 85.328 0 0 1 640 554.672h298.672A85.328 85.328 0 0 1 1024 640v298.672A85.328 85.328 0 0 1 938.672 1024z m0-554.672H640A85.328 85.328 0 0 1 554.672 384V85.344A85.344 85.344 0 0 1 640 0h298.672A85.344 85.344 0 0 1 1024 85.344V384a85.328 85.328 0 0 1-85.328 85.328z m0-384H640V384h298.672zM384 1024H85.344A85.344 85.344 0 0 1 0 938.672V640a85.344 85.344 0 0 1 85.344-85.328H384A85.328 85.328 0 0 1 469.328 640v298.672A85.328 85.328 0 0 1 384 1024z m0-384H85.344v298.672H384z m0-170.672H85.344A85.328 85.328 0 0 1 0 384V85.344A85.344 85.344 0 0 1 85.344 0H384a85.328 85.328 0 0 1 85.328 85.344V384A85.312 85.312 0 0 1 384 469.328z" fill="#1296db" p-id="2499"></path></svg>