<?xml version="1.0" standalone="no"?><!DOCTYPE svg PUBLIC "-//W3C//DTD SVG 1.1//EN" "http://www.w3.org/Graphics/SVG/1.1/DTD/svg11.dtd"><svg t="1538203593529" class="icon" style="" viewBox="0 0 1024 1024" version="1.1" xmlns="http://www.w3.org/2000/svg" p-id="1609" xmlns:xlink="http://www.w3.org/1999/xlink" width="64" height="64"><defs><style type="text/css"></style></defs><path d="M387.84208 408.812665q-1.009414-1.009414-7.065898-9.589433t-13.122382-19.178866-14.131796-20.18828-11.103554-14.636503q-7.065898-10.09414-3.028242-14.131796t10.09414 2.018828q3.028242 3.028242 10.598847 9.084726t16.150624 12.112968 16.150624 12.112968 11.608261 9.084726q15.14121 13.122382 21.197694 7.065898 3.028242-3.028242 8.075312-6.561191t11.103554-5.551777q10.09414-5.04707 12.112968-23.216522 0-2.018828 4.542363-26.244764t9.589433-58.041304 12.112968-73.182514 12.112968-74.696635 9.589433-61.069546 5.551777-31.796541q2.018828-18.169452 8.075312-19.178866t9.084726 19.178866q1.009414 7.065898 4.542363 32.301248t9.084726 60.564839 11.608261 74.191928 10.598847 72.677807 8.075312 56.527183 4.542363 26.749471q2.018828 6.056484 3.028242 12.617675t6.056484 8.580019q10.09414 4.037656 18.169452 10.09414 12.112968 6.056484 19.178866 0 2.018828-1.009414 10.598847-7.570605t19.178866-14.636503 20.18828-15.14121 13.627089-10.09414q8.075312-6.056484 11.103554-5.04707t0 5.04707q-1.009414 3.028242-8.580019 12.617675t-16.150624 20.692987-15.645917 21.197694l-9.084726 14.131796q-9.084726 12.112968-3.028242 18.169452 3.028242 3.028242 5.551777 7.065898t5.551777 10.09414q6.056484 13.122382 30.28242 17.160038 5.04707 1.009414 28.768299 4.037656t57.536597 8.075312 73.182514 10.598847 73.182514 11.103554 57.536597 9.084726 27.758885 3.532949q12.112968 2.018828 10.598847 9.084726t-10.598847 8.075312q-3.028242 1.009414-28.263592 4.542363t-61.069546 9.589433-77.22017 12.617675-77.724877 12.112968-60.564839 9.589433-25.23535 4.037656q-5.04707 1.009414-9.589433 2.523535t-7.570605 6.561191l-6.056484 12.112968q-4.037656 8.075312-7.065898 10.09414-2.018828 3.028242-3.532949 6.561191t3.532949 10.598847q3.028242 4.037656 9.589433 12.617675t14.636503 19.683573 15.645917 20.18828 9.589433 12.112968q5.04707 8.075312 1.514121 9.084726t-9.589433-4.037656q-4.037656-2.018828-13.627089-8.580019t-20.18828-14.636503-20.18828-14.636503-12.617675-8.580019q-8.075312-9.084726-14.131796-3.028242-3.028242 3.028242-7.570605 4.542363t-8.580019 4.542363q-3.028242 2.018828-6.561191 6.056484t-5.551777 13.122382q0 2.018828-3.532949 27.758885t-8.580019 62.583667-12.112968 79.238998-12.112968 80.248412-9.589433 64.602495-4.542363 31.796541q-2.018828 17.160038-7.065898 14.131796t-7.065898-16.150624q-1.009414-5.04707-4.542363-31.291834t-9.589433-64.602495-13.627089-80.753119-13.627089-79.743705-10.09414-62.583667-4.037656-28.263592q-1.009414-14.131796-9.084726-18.169452-10.09414-4.037656-15.14121-8.075312-5.04707-2.018828-11.608261-1.514121t-8.580019 2.523535q-1.009414 1.009414-11.103554 8.580019t-21.702401 15.645917-21.702401 16.150624-13.122382 9.084726q-3.028242 3.028242-9.084726 4.037656t0-7.065898q3.028242-4.037656 11.608261-15.645917t17.664745-24.225936 16.655331-23.216522 10.598847-13.627089q4.037656-5.04707-0.504707-12.112968t-8.580019-14.131796-11.103554-8.075312-14.131796-3.028242q-2.018828-1.009414-25.740057-4.542363t-58.041304-9.084726-73.687221-12.112968-74.696635-11.608261-61.069546-9.589433-30.787127-5.551777q-16.150624-2.018828-20.692987-9.084726t20.692987-10.09414q9.084726-1.009414 36.843611-5.551777t63.593081-9.589433 76.210756-11.103554 74.191928-11.103554 56.527183-8.580019 23.721229-3.532949q5.04707-1.009414 8.580019-1.514121t6.561191-4.542363q2.018828-5.04707 4.542363-9.084726t4.542363-8.075312q6.056484-8.075312 0-14.131796z" p-id="1610" fill="#1296db"></path></svg>