<?xml version="1.0" standalone="no"?><!DOCTYPE svg PUBLIC "-//W3C//DTD SVG 1.1//EN" "http://www.w3.org/Graphics/SVG/1.1/DTD/svg11.dtd"><svg t="1564299794109" class="icon" viewBox="0 0 1024 1024" version="1.1" xmlns="http://www.w3.org/2000/svg" p-id="2450" xmlns:xlink="http://www.w3.org/1999/xlink" width="200" height="200"><defs><style type="text/css"></style></defs><path d="M512 12.8C236.7488 12.8 12.8 236.7488 12.8 512s223.9488 499.2 499.2 499.2a496.4864 496.4864 0 0 0 424.6528-236.6976l3.2256-5.2736c3.5328-5.888 6.9632-11.776 10.2912-17.8688a38.5024 38.5024 0 0 0-15.0016-52.224 38.6048 38.6048 0 0 0-52.224 15.0016 407.04 407.04 0 0 1-8.8064 15.2576l-2.816 4.6592A419.9936 419.9936 0 0 1 512 934.4c-232.9088 0-422.4-189.4912-422.4-422.4S279.1424 89.6 512 89.6s422.4 189.4912 422.4 422.4a38.4 38.4 0 0 0 76.8 0c0-275.2512-223.9488-499.2-499.2-499.2z" fill="#1296db" p-id="2451"></path><path d="M425.6256 297.728a38.4 38.4 0 0 0-57.6 33.28v361.984a38.2976 38.2976 0 0 0 57.6 33.2288l313.5488-180.992a38.4 38.4 0 0 0 0-66.4576L425.6256 297.728z m19.2 328.7552V397.5168L643.1744 512l-198.3488 114.4832z" fill="#1296db" p-id="2452"></path></svg>