<?xml version="1.0" standalone="no"?><!DOCTYPE svg PUBLIC "-//W3C//DTD SVG 1.1//EN" "http://www.w3.org/Graphics/SVG/1.1/DTD/svg11.dtd"><svg t="1585531814554" class="icon" viewBox="0 0 1024 1024" version="1.1" xmlns="http://www.w3.org/2000/svg" p-id="5493" xmlns:xlink="http://www.w3.org/1999/xlink" width="200" height="200"><defs><style type="text/css"></style></defs><path d="M195.90225 552.931225h34.341133c22.605857 0 40.932248-18.326391 40.932248-40.932248 0-22.606881-18.326391-40.932248-40.932248-40.932248h-58.290591l-17.050328-2.031263c-0.080841 0.675382-0.149403 1.354857-0.227174 2.031263h-57.461713c-22.606881 0-40.932248 18.326391-40.932248 40.932248s18.325367 40.932248 40.932248 40.932248h80.300884l-22.529109 2.728134a359.687012 359.687012 0 0 0 7.820106 42.715871l39.742143-9.799181a318.603315 318.603315 0 0 1-6.645351-35.644824zM229.842247 660.34256a318.306556 318.306556 0 0 1-15.83464-35.056424l-38.258349 14.554484a359.432209 359.432209 0 0 0 17.880229 39.58353l36.21276-19.08159zM345.002057 830.594105a359.185592 359.185592 0 0 0 39.625486 17.833157l14.500248-38.277791a317.695642 317.695642 0 0 1-35.090192-15.792685l-19.035542 36.237319zM213.796806 399.271566l-38.284955-14.480806a358.320898 358.320898 0 0 0-12.874215 41.514509l39.760562 9.721409a317.372278 317.372278 0 0 1 11.398608-36.755112zM363.519806 229.91439l-19.098987-36.20355a361.008101 361.008101 0 0 0-37.093827 22.532179l23.320125 33.639145a320.259024 320.259024 0 0 1 32.872689-19.967774zM229.572094 364.17114a319.839469 319.839469 0 0 1 19.907399-32.94125l-33.691333-23.245423a360.773763 360.773763 0 0 0-22.463618 37.17262l36.247552 19.014053zM435.27199 202.583928l-9.8176-39.737026a358.231871 358.231871 0 0 0-41.459251 12.965289l14.571881 38.251186a317.438792 317.438792 0 0 1 36.70497-11.479449zM552.930713 847.838861v-54.082756c0-22.606881-18.325367-40.932248-40.932248-40.932248s-40.932248 18.325367-40.932248 40.932248v34.341133a318.29223 318.29223 0 0 1-35.189453-6.531763l-9.743922 39.755445a359.352391 359.352391 0 0 0 42.730197 7.757685l2.203178-18.426675v76.133981c0 22.606881 18.325367 40.932248 40.932248 40.932248s40.932248-18.325367 40.932248-40.932248v-57.46069c0.852414-0.097214 1.705851-0.186242 2.556219-0.288572l-2.556219-21.197788zM794.012444 363.382171a318.217529 318.217529 0 0 1 15.870455 35.041074l38.241976-14.591323a359.053586 359.053586 0 0 0-17.918091-39.565111l-36.19434 19.11536zM794.28362 660.101059a320.090179 320.090179 0 0 1-19.939122 32.923854l33.668821 23.276123a361.043916 361.043916 0 0 0 22.499433-37.149085l-36.229132-19.050892zM810.095747 625.017006l38.269605 14.518669a357.99958 357.99958 0 0 0 12.914125-41.50223l-39.751353-9.759271a317.480748 317.480748 0 0 1-11.432377 36.742832zM660.205948 794.229896l19.065218 36.220946a361.333512 361.333512 0 0 0 37.116339-22.496363l-23.288402-33.661658a320.165904 320.165904 0 0 1-32.893155 19.937075zM554.79006 154.881486l-1.8573 15.663748V97.214089c0-22.605857-18.325367-40.932248-40.932248-40.932248s-40.932248 18.326391-40.932248 40.932248v57.461713c-0.967024 0.109494-1.937119 0.212848-2.902097 0.330528l2.902097 23.867593v51.369972c0 22.605857 18.325367 40.932248 40.932248 40.932248s40.932248-18.326391 40.932248-40.932248v-34.341133a318.568523 318.568523 0 0 1 34.891671 6.459109l9.700943-39.765679a359.541703 359.541703 0 0 0-42.735314-7.714706zM588.425112 821.490773l9.781784 39.74726a358.656543 358.656543 0 0 0 41.469483-12.925381l-14.534018-38.266535a317.597405 317.597405 0 0 1-36.717249 11.444656zM639.046023 175.448918l-14.462387 38.292118a318.325999 318.325999 0 0 1 35.107589 15.758915l18.996657-36.257785a359.397417 359.397417 0 0 0-39.641859-17.793248zM283.824719 341.710592c7.993045 7.993045 18.467607 11.989055 28.943192 11.989056 10.474562 0 20.951171-3.996011 28.943193-11.989056 15.985066-15.985066 15.985066-41.901319 0-57.886385l-94.066399-94.066399c-15.985066-15.985066-41.901319-15.985066-57.886385 0s-15.985066 41.901319 0 57.886385l94.066399 94.066399zM341.710081 682.287361c-15.985066-15.985066-41.901319-15.985066-57.886385 0l-24.264637 24.264637a319.67574 319.67574 0 0 1-9.763364-13.32754l-33.650402 23.303752a361.488031 361.488031 0 0 0 14.259772 19.177781l-40.647768 40.647769c-15.985066 15.985066-15.985066 41.901319 0 57.886385 7.993045 7.993045 18.467607 11.989055 28.943192 11.989056 10.474562 0 20.951171-3.996011 28.943193-11.989056l40.646745-40.647769a361.974102 361.974102 0 0 0 19.551288 14.518669l23.260774-33.679054a321.338612 321.338612 0 0 1-13.659092-9.992585l24.26566-24.26566c15.986089-15.984043 15.986089-41.901319 0.001024-57.886385zM740.172211 682.289408c-15.985066-15.985066-41.901319-15.985066-57.886385 0s-15.985066 41.901319 0 57.886385l94.066399 94.066399c7.993045 7.993045 18.467607 11.989055 28.943193 11.989055s20.951171-3.996011 28.943192-11.989055c15.985066-15.985066 15.985066-41.901319 0-57.886385l-94.066399-94.066399zM926.785399 471.069799h-83.010598l25.198915-3.077082a359.892697 359.892697 0 0 0-7.861038-42.707684l-39.732933 9.837042a318.294276 318.294276 0 0 1 6.718005 35.947724h-34.34318c-22.606881 0-40.932248 18.326391-40.932248 40.932248 0 22.606881 18.325367 40.932248 40.932248 40.932248h55.506175l19.795859 2.37714c0.095167-0.789992 0.178055-1.585101 0.267083-2.37714h57.460689c22.606881 0 40.932248-18.325367 40.932248-40.932248 0.001023-22.606881-18.324344-40.932248-40.931225-40.932248zM682.289919 341.712639c7.993045 7.993045 18.467607 11.989055 28.943193 11.989055s20.951171-3.996011 28.943192-11.989055l24.26566-24.26566a320.788074 320.788074 0 0 1 9.586333 13.07376l33.626865-23.339568a361.349885 361.349885 0 0 0-14.059204-18.889209l40.646745-40.645722c15.985066-15.985066 15.985066-41.901319 0-57.886385s-41.901319-15.985066-57.886385 0l-40.646745 40.645722a361.163643 361.163643 0 0 0-19.838837-14.716166l-23.230074 33.701566a319.575456 319.575456 0 0 1 13.914917 10.169617l-24.26566 24.26566c-15.985066 15.985066-15.985066 41.901319 0 57.886385z" p-id="5494" fill="#1296db"></path></svg>