<svg id="图层_1" data-name="图层 1" xmlns="http://www.w3.org/2000/svg" viewBox="0 0 16 16"><title>画板 15-V</title><path d="M2.55,14.5a2,2,0,0,1-2-2V4.61A3.18,3.18,0,0,1,3.72,1.5H14a.44.44,0,0,1,.45.43V14.07a.44.44,0,0,1-.46.43Z" style="fill:#fff"/><path d="M14,2V14H2.55A1.52,1.52,0,0,1,1,12.52V4.61A2.68,2.68,0,0,1,3.72,2H14m0-1H3.72A3.67,3.67,0,0,0,0,4.61v7.91A2.51,2.51,0,0,0,2.55,15H14a.94.94,0,0,0,1-.93V1.93A.94.94,0,0,0,14,1Z" style="fill:gray"/><path d="M14,6.51a.4.4,0,0,0-.56,0L10.92,9,8.67,6.78,9.76,5.69a.38.38,0,0,0,0-.55h0a.38.38,0,0,0-.54,0l0,0L8.12,6.25,6,4.13,3.89,2h-.7a.4.4,0,0,0,0,.5L5.15,4.41l-3,3a.39.39,0,0,0,0,.56.4.4,0,0,0,.56,0l3-3L7.58,6.82,4,10.38v1.12L8.15,7.37l2.48,2.5L11.75,11a.41.41,0,0,0,.56,0,.41.41,0,0,0,0-.56l-.84-.84L14,7.1Z" style="fill:#b1b1b1"/><path d="M3.5,11.88a3.82,3.82,0,0,0-1.37-.55H1.88a3.36,3.36,0,0,0-1.38.46V2.1A1.56,1.56,0,0,1,2,.5,1.55,1.55,0,0,1,3.5,2.08Z" style="fill:#fff"/><path d="M2,1A1.07,1.07,0,0,1,3,2.1v9a4.36,4.36,0,0,0-.78-.22l-.09,0H1.77A3.75,3.75,0,0,0,1,11V2.06A1.06,1.06,0,0,1,2,1M2,0A2.05,2.05,0,0,0,0,2.1v10.8a2.68,2.68,0,0,1,1.88-1.09H2A3.28,3.28,0,0,1,4,13V2.1A2.05,2.05,0,0,0,2,0Z" style="fill:gray"/><circle cx="11.5" cy="11.5" r="4.5" style="fill:#4d84ba"/><polygon points="14 11.5 11 9 11 11 9 11 9 12 11 12 11 14 14 11.5" style="fill:#fff"/></svg>