<?xml version="1.0" standalone="no"?><!DOCTYPE svg PUBLIC "-//W3C//DTD SVG 1.1//EN" "http://www.w3.org/Graphics/SVG/1.1/DTD/svg11.dtd"><svg t="1523584057798" class="icon" style="" viewBox="0 0 1024 1024" version="1.1" xmlns="http://www.w3.org/2000/svg" p-id="14664" xmlns:xlink="http://www.w3.org/1999/xlink" width="128" height="128"><defs><style type="text/css"></style></defs><path d="M938.666667 512c0-47.061333-38.272-85.333333-85.333334-85.333333H639.018667a21.333333 21.333333 0 0 1-19.818667-29.269334c13.802667-34.453333 20.8-70.762667 20.8-107.925333V128c0-70.592-57.408-128-128-128s-128 57.408-128 128v161.472c0 37.12 6.997333 73.429333 20.8 107.946667A21.312 21.312 0 0 1 384.981333 426.666667H170.666667c-47.061333 0-85.333333 38.272-85.333334 85.333333v170.666667h42.666667v320a21.333333 21.333333 0 0 0 21.333333 21.333333h106.666667a21.290667 21.290667 0 0 0 19.072-11.797333L320 922.368V1002.666667a21.333333 21.333333 0 0 0 21.333333 21.333333h533.333334a21.333333 21.333333 0 0 0 21.333333-21.333333V682.666667h42.666667v-170.666667z m-85.333334 469.333333h-42.666666v-192a21.333333 21.333333 0 0 0-42.666667 0v192h-42.666667v-149.333333a21.333333 21.333333 0 0 0-42.666666 0v149.333333h-42.666667v-85.333333a21.333333 21.333333 0 0 0-42.666667 0v85.333333H362.666667v-149.333333a21.333333 21.333333 0 0 0-40.405334-9.536L242.816 981.333333H170.666667V682.666667h682.666666v298.666666z m42.666667-341.333333H128v-128c0-23.530667 19.136-42.666667 42.666667-42.666667h214.314666c21.248 0 41.066667-10.517333 52.992-28.138666a63.872 63.872 0 0 0 6.421334-59.648A247.146667 247.146667 0 0 1 426.666667 289.472V128c0-47.061333 38.272-85.333333 85.333333-85.333333s85.333333 38.272 85.333333 85.333333v161.472c0 31.722667-5.973333 62.698667-17.728 92.096A63.936 63.936 0 0 0 639.018667 469.333333H853.333333c23.530667 0 42.666667 19.136 42.666667 42.666667v128z" fill="#3f81c1" p-id="14665"></path><path d="M512 128m-42.666667 0a42.666667 42.666667 0 1 0 85.333334 0 42.666667 42.666667 0 1 0-85.333334 0Z" fill="#3f81c1" p-id="14666"></path></svg>