<svg id="图层_1" data-name="图层 1" xmlns="http://www.w3.org/2000/svg" viewBox="0 0 16 16"><title>画板 8</title><rect x="1.5" y="0.5" width="13" height="15" rx="0.5" ry="0.5" style="fill:#fff"/><path d="M14,1V15H2V1H14m0-1H2A1,1,0,0,0,1,1V15a1,1,0,0,0,1,1H14a1,1,0,0,0,1-1V1a1,1,0,0,0-1-1Z" style="fill:gray"/><rect x="3" y="4" width="3" height="3" style="fill:#eec97f"/><rect x="7" y="4" width="6" height="1" style="fill:#4d84ba"/><rect x="7" y="6" width="6" height="1" style="fill:#4d84ba"/><rect x="3" y="9" width="3" height="3" style="fill:#eec97f"/><rect x="7" y="9" width="6" height="1" style="fill:#4d84ba"/><rect x="7" y="11" width="6" height="1" style="fill:#4d84ba"/></svg>