<?xml version="1.0" standalone="no"?><!DOCTYPE svg PUBLIC "-//W3C//DTD SVG 1.1//EN" "http://www.w3.org/Graphics/SVG/1.1/DTD/svg11.dtd"><svg t="1552284678293" class="icon" style="" viewBox="0 0 1024 1024" version="1.1" xmlns="http://www.w3.org/2000/svg" p-id="5592" xmlns:xlink="http://www.w3.org/1999/xlink" width="64" height="64"><defs><style type="text/css"></style></defs><path d="M892.1088 737.8468864V286.1531136c35.02134613-15.03941973 59.55037867-49.83575893 59.55037867-90.3643136 0-54.29220693-44.01179307-98.304-98.304-98.304-40.73171627 0-75.677696 24.77370027-90.59259734 60.07466667H260.14624427c-14.91490133-35.3009664-49.86088107-60.07466667-90.59259734-60.07466667-54.29220693 0-98.304 44.01179307-98.304 98.304 0 40.94907733 25.04021333 76.04578987 60.64264534 90.82525013v450.77189974c-35.60133973 14.77946027-60.64264533 49.8761728-60.64264534 90.82525013 0 54.29220693 44.01179307 98.304 98.304 98.304 40.73171627 0 75.677696-24.77370027 90.59259734-60.07466667H762.76258133c14.91490133 35.3009664 49.86088107 60.07466667 90.59259734 60.07466667 54.29220693 0 98.304-44.01179307 98.304-98.304 0-40.52964693-24.52903253-75.32598613-59.55037867-90.3643136zM853.35517867 157.55946667c21.11351467 0 38.22933333 17.11581867 38.22933333 38.22933333s-17.11581867 38.22933333-38.22933333 38.22933333-38.22933333-17.11581867-38.22933334-38.22933333 17.11581867-38.22933333 38.22933334-38.22933333z m-683.802624 0c21.11351467 0 38.22933333 17.11581867 38.22933333 38.22933333s-17.11581867 38.22933333-38.22933333 38.22933333-38.22933333-17.11581867-38.22933334-38.22933333 17.11581867-38.22933333 38.22933334-38.22933333z m0 708.88106666c-21.11351467 0-38.22933333-17.11581867-38.22933334-38.22933333s17.11581867-38.22933333 38.22933334-38.22933333 38.22933333 17.11581867 38.22933333 38.22933333-17.11581867 38.22933333-38.22933333 38.22933333z m593.2089344-76.45866666H260.14624427c-9.8697216-23.35812267-28.51362133-42.09923413-51.7963776-52.11204267V286.130176c23.28275627-10.01280853 41.926656-28.75282773 51.7963776-52.11204267H762.76258133c10.02263893 23.72184747 29.097984 42.67485867 52.88864427 52.5664256v450.8319744c-23.79175253 9.89047467-42.8670976 28.84348587-52.88973653 52.56533334z m90.5936896 76.45866666c-21.11351467 0-38.22933333-17.11581867-38.22933334-38.22933333s17.11581867-38.22933333 38.22933334-38.22933333 38.22933333 17.11581867 38.22933333 38.22933333-17.11581867 38.22933333-38.22933333 38.22933333z" fill="#1296db" p-id="5593"></path></svg>