<svg id="图层_1" data-name="图层 1" xmlns="http://www.w3.org/2000/svg" viewBox="0 0 32 32"><title>画板 48</title><polygon points="1.5 20.5 1.5 1.5 20.5 1.5 20.5 9.5 9.5 9.5 9.5 20.5 1.5 20.5" style="fill:#fff"/><path d="M20,2V9H9V20H2V2H20m1-1H1V21h9V10H21V1Z" style="fill:gray"/><rect x="11.5" y="11.5" width="9" height="9" style="fill:#fff"/><path d="M20,12v8H12V12h8m1-1H11V21H21V11Z" style="fill:gray"/><polygon points="11.5 30.5 11.5 22.5 22.5 22.5 22.5 11.5 30.5 11.5 30.5 30.5 11.5 30.5" style="fill:#fff"/><path d="M30,12V30H12V23H23V12h7m1-1H22V22H11v9H31V11Z" style="fill:gray"/></svg>