<svg id="图层_1" data-name="图层 1" xmlns="http://www.w3.org/2000/svg" viewBox="0 0 32 32"><title>画板 4</title><rect x="1" y="1" width="28" height="28" style="fill:#fff"/><path d="M29,1H26V2h2V5h1V1ZM23,1H20V2h3V1ZM17,1H14V2h3V1ZM11,1H8V2h3V1ZM5,1H2V2H5V1ZM2,3H1V6H2V3ZM2,9H1v3H2V9Zm0,6H1v3H2V15Zm0,6H1v3H2V21Zm0,6H1v2H2V28H2V27Zm6,1H5v1H8V28Zm6,0H11v1h3V28Zm6,0H17v1h3V28Zm6,0H23v1h3V28Zm3-2H28v3h1V26Zm0-6H28v3h1V20Zm0-6H28v3h1V14Zm0-6H28v3h1V8Z" style="fill:gray"/><rect x="25" y="27" width="6" height="2" style="fill:#525b67"/><rect x="27" y="25" width="2" height="6" style="fill:#525b67"/><path d="M22.29,9.15,9.15,22.29A.93.93,0,0,1,7.83,21L21,7.83a.93.93,0,1,1,1.32,1.31Zm0,0" style="fill:#4d84ba"/><path d="M22.29,22.29a.93.93,0,0,1-1.32,0L7.83,9.15A.93.93,0,1,1,9.15,7.83L22.29,21a.93.93,0,0,1,0,1.32Zm0,0" style="fill:#4d84ba"/></svg>