<svg id="图层_1" data-name="图层 1" xmlns="http://www.w3.org/2000/svg" viewBox="0 0 16 16"><title>画板 31</title><rect x="2" width="14" height="16" style="fill:#fff"/><path d="M16,0H15V1h0V2h1V0ZM14,0H13V1h1V0ZM12,0H11V1h1V0ZM10,0H9V1h1V0ZM8,0H7V1H8V0ZM6,0H5V1H6V0ZM4,0H2V1H4V0ZM3,2H2V3H3V2ZM3,4H2V5H3V4ZM3,6H2V7H3V6ZM3,8H2V9H3V8Zm0,2H2v1H3V10Zm0,2H2v1H3V12Zm0,2H2v1H2v1H3V15H3V14Zm2,1H4v1H5V15Zm2,0H6v1H7V15Zm2,0H8v1H9V15Zm2,0H10v1h1V15Zm2,0H12v1h1V15Zm2,0H14v1h1V15Zm1,0H15v1h1V15Zm0-2H15v1h1V13Zm0-2H15v1h1V11Zm0-2H15v1h1V9Zm0-2H15V8h1V7Zm0-2H15V6h1V5Zm0-2H15V4h1V3Z" style="fill:gray"/><rect width="1" height="16" rx="0.5" ry="0.5" style="fill:#fff"/><path d="M.5,0A.5.5,0,0,0,0,.5v15a.5.5,0,0,0,1,0V.5A.5.5,0,0,0,.5,0Z" style="fill:#4d84ba"/></svg>