<svg id="图层_1" data-name="图层 1" xmlns="http://www.w3.org/2000/svg" viewBox="0 0 16 16"><title>画板 32</title><rect x="0.5" y="0.5" width="13" height="13" style="fill:#fff"/><path d="M13,1V13H1V1H13m1-1H0V14H14V0Z" style="fill:gray"/><circle cx="11.5" cy="11.5" r="4.5" style="fill:#de673e"/><path d="M9,10.59a1.92,1.92,0,0,0,2.43,2.18.3.3,0,0,1,.3.07l1.06,1.05a.38.38,0,0,0,.53,0l.53-.53a.38.38,0,0,0,0-.53l-1-1a.3.3,0,0,1-.07-.3A1.93,1.93,0,0,0,10.56,9a.22.22,0,0,0-.11.37l1,1a.37.37,0,0,1,0,.53L11,11.5a.38.38,0,0,1-.53,0l-1-1a.22.22,0,0,0-.37.11Zm0,0" style="fill:#fff"/></svg>