<svg width="1024" height="1024" xmlns="http://www.w3.org/2000/svg" class="icon">
 <defs>
  <style type="text/css"/>
 </defs>
 <g>
  <title>background</title>
  <rect fill="none" id="canvas_background" height="402" width="582" y="-1" x="-1"/>
 </g>
 <g>
  <title>Layer 1</title>
  <path transform="rotate(-180 653.7000122070312,419.29968261718744) " id="svg_1" fill="#1296db" d="m394.6,689.8c-13.2,3.2 -27.4,-9.5 -31.7,-23.2c-8.4,-28.5 -12.7,-58.6 -12.7,-88.1c0,-159.4 151.5,-325.1 314.1,-352.1l0,-5.3c0,-1.6 0,-3.7 0.5,-5.3l0.5,-2.1c1.6,-11.6 5.8,-38.5 32.2,-55.4c10.6,-6.9 22.2,-10 34.3,-10c14.8,0 26.9,5.3 34.3,9.5c1.6,0.5 2.6,1.6 4.2,2.6l158.9,125.6c17.4,13.2 28,34.8 28,57c0,22.7 -10.6,44.3 -28.5,57.5l-158.2,125.2c-11.6,9 -25.3,13.7 -39.1,13.7c-12.1,0 -23.8,-3.7 -34.8,-10.6c-21.1,-13.7 -31.7,-34.8 -31.7,-64.4l0,-1.1c-105.6,11.7 -222.7,105.7 -248.6,194.3c-4.8,14.3 -13.7,32.2 -21.7,32.2zm335.7,-466.6l0,32.8c0,17.4 -13.7,31.7 -31.1,32.7c-125.6,6.9 -257.6,131.4 -279.7,254.4c66.5,-84.4 175.7,-153.1 280.2,-145.7c17.4,1.1 30.6,15.3 30.6,32.7l0,34.9c0,4.7 0.5,6.9 0.5,7.9l157.3,-124.6c2.1,-1.6 2.6,-3.2 2.6,-5.3c0,-2.1 -1.1,-4.2 -2.6,-5.3l-156.2,-123.4c-1.1,1.6 -1.6,5.8 -2.1,8.4l0.5,0.5zm0,0"/>
  <path id="svg_2" fill="#1296db" d="m715.6,916.3l-527.3,0c-67,0 -121.9,-54.9 -121.9,-121.9l0,-568c0,-67 54.9,-121.9 121.9,-121.9l436.5,0l0,69.7l-436.5,0c-28.5,0 -52.3,23.2 -52.3,52.3l0,568.5c0,28.5 23.2,52.3 52.3,52.3l527.3,0c28.5,0 52.3,-23.2 52.3,-52.3l0,-201.8l69.1,0l0,201.6c0,66.6 -54.4,121.5 -121.4,121.5zm0,0"/>
  <path id="svg_3" fill="#1296db" d="m183,566.9l112.4,0l0,59.1l-112.4,0l0,-59.1zm0,154.1l296.1,0l0,59.1l-296.1,0l0,-59.1zm0,-425.4l237,0l0,59.1l-237,0l0,-59.1zm0,140.9l112.4,0l0,59.1l-112.4,0l0,-59.1zm0,0"/>
 </g>
</svg>