<svg id="图层_1" data-name="图层 1" xmlns="http://www.w3.org/2000/svg" viewBox="0 0 16 16"><title>画板 14</title><path d="M13.9,13.29c-.05,0,0-.08-.08-.11v0s-.06,0-.09,0,0,0,0-.08,0,0,0-.06l-.07-.07a.72.72,0,0,0,0-.19s0-.06,0-.08a.82.82,0,0,1,.11-.32.22.22,0,0,1,0-.13l0,0s0-.07,0-.11.09-.05.1-.12a.14.14,0,0,0,.09-.05l.1,0s0,.06.09.07a2.69,2.69,0,0,1,0,.72c-.06.11,0,.26-.11.36a.67.67,0,0,0,0,.19s0,.08-.06.1,0,0-.07,0ZM10.06,15a.31.31,0,0,0-.1,0l0,0s-.07,0-.1,0l0,0s0-.06,0-.1l0,0a1,1,0,0,1,0-.16s.05,0,0-.09a2,2,0,0,1,.25-.19.31.31,0,0,0,.15,0s0,0,.08,0h0l0,0,0,0-.1,0s-.05,0-.07-.08,0-.09,0-.16l0,0s0-.07,0-.11v0l-.12,0s-.05,0-.07-.06l-.18,0c-.06,0,0,.05-.09.07H9.46l-.18-.08a.23.23,0,0,1-.13,0c0-.05-.09-.09-.13-.15s0,0,0-.08a1.84,1.84,0,0,0,0-.2l0,0h-.1a1.47,1.47,0,0,1-.27-.13s-.07.06-.09.12-.08.05-.11.11-.12,0-.17,0,0,0-.08,0-.25,0-.37-.05a.11.11,0,0,0-.08,0l0,.05H7.55s-.07,0-.1,0,.05.27,0,.39,0,0-.1,0l-.08,0s0-.08-.09-.09a1,1,0,0,0,0-.13l0,0s0,.06-.08.08a.2.2,0,0,1-.12,0l-.07-.07s0-.06,0-.08a.08.08,0,0,1,0-.06l-.08,0L6.6,13.4s0,0,0-.08,0-.09,0-.16,0-.06,0-.1-.05,0-.09-.06-.06-.06-.08-.12,0-.1,0-.16l0-.06c-.07,0-.18,0-.28,0l0,0a1.24,1.24,0,0,1,0-.34s.06,0,.08-.09v-.05s.07-.12.14-.15a.39.39,0,0,1,.11-.11s0-.06,0-.11a.28.28,0,0,0,.05-.1.59.59,0,0,1,0-.16.4.4,0,0,0,0-.18l0,0-.05,0L6.29,11H6.22a.82.82,0,0,0-.09.12s-.13,0-.2,0S5.79,11,5.71,11h-.1l-.06,0s0,0-.1,0h0l0,0-.13.09c0,.06-.13.05-.21.09l0,0s0,0-.08,0h0s0,0-.08,0a.6.6,0,0,1-.3,0l-.06-.06s0-.08,0-.13A.51.51,0,0,0,4.31,11a.2.2,0,0,0-.09-.09l0-.05,0,0,0-.05a.77.77,0,0,0-.18-.05l0,0H3.75s-.09.06-.11.11a.45.45,0,0,1,0,.13s0,0-.08,0l-.1,0c-.06-.07,0-.2-.06-.28s-.07,0-.13,0,0-.06-.08-.08H3l-.08,0c-.07,0-.17-.07-.25-.08s0,0-.08,0a.43.43,0,0,1-.18,0,.53.53,0,0,1,0-.11l-.13-.05,0-.06a.2.2,0,0,0,0-.08l-.11,0,0-.05,0,0s0-.09,0-.13l0,0-.05,0s-.09,0-.13-.05a1.63,1.63,0,0,0-.38-.49H1.33s0,.07-.1.08-.06,0-.09,0A1.48,1.48,0,0,0,1,9.06S1,9,.94,8.93L.79,8.75H.73s0-.08-.09-.1a4.64,4.64,0,0,1,0-.48s0-.07,0-.11A.43.43,0,0,1,.74,8h0s0,.06.09.07l0,0a2.54,2.54,0,0,0,0-.39A1,1,0,0,0,.9,7.5a.88.88,0,0,1-.1-.42C.8,7,.73,7.08.71,7H.66a.93.93,0,0,1-.2-.22s0,0-.1-.05l0,0c0-.12,0-.27,0-.4s0-.08-.09-.12a1,1,0,0,1-.13-.1A.24.24,0,0,1,.08,6a.51.51,0,0,1,.14-.07l0,0V5.82a1.26,1.26,0,0,0,.06-.13s0-.07,0-.11,0-.06,0-.08-.11,0-.18,0S0,5.41,0,5.39V5.34l0-.05A.42.42,0,0,0,.09,5.2.32.32,0,0,1,.1,5s0,0,.07,0v0a.42.42,0,0,0,.14-.11.72.72,0,0,1,.2,0l0,0a1.55,1.55,0,0,0,.2,0,.11.11,0,0,1,.08.07s.08,0,.13,0,.07-.06.13-.08l0-.05s0,0,.07,0,.13,0,.17,0a1,1,0,0,1,.45,0,.49.49,0,0,1,.22-.06l0,0a.47.47,0,0,0,.08-.27l0,0s0,0,.06-.06h0l0,0c0-.18,0-.39,0-.58,0,0,0-.06,0-.1s0-.06.09-.07.27-.05.37.06H3l0,0a.82.82,0,0,1,0-.18l0,0V3.2a.17.17,0,0,1,.06-.06A1.08,1.08,0,0,1,3.27,3s0-.06.06-.09,0,0,.09-.07.11.06.19.08,0,.06.1.07h0l.09,0A.32.32,0,0,0,4,3s0-.08.05-.1a.35.35,0,0,1,0-.24s.07,0,.07-.05h.1a.15.15,0,0,0,.1-.05v0s0-.05.06-.08a.61.61,0,0,1,.38,0c0,.09,0,.22,0,.33a.26.26,0,0,1,.09.09A.11.11,0,0,1,5,2.9l.1.05s0,0,.07,0,0,.07.09.08,0,.06,0,.07a1.22,1.22,0,0,0,0,.23l0,0c.06.08,0,.2.06.29a.45.45,0,0,1-.1.22.62.62,0,0,0,0,.21.36.36,0,0,0,.2.06l0,0a.69.69,0,0,1,.3.11h.05c.07,0,.11.09.2.13a.7.7,0,0,0,0,.11c.05,0,.05.08.1.11h0s.06,0,.07,0a.5.5,0,0,1,0,.18l0,.07s0,.05,0,.1a.4.4,0,0,0,.05.07v.05s0,0,0,.07l.09.05s0,0,.09,0A1.42,1.42,0,0,1,7,5.36l0,0c.2,0,.37,0,.58,0,0,0,0,0,.09.05h.1l.1.07s0,0,0,.08.13,0,.2,0,.08.08.11.13.19,0,.3,0,0,0,.09.05a.65.65,0,0,0,.24-.13l.08,0,0,0,.13,0,0,0c.13,0,.26-.05.38-.09a1,1,0,0,0,.22,0,1,1,0,0,0,.32,0s0-.05,0-.09l.13-.13h.07s0-.07.05-.11a.09.09,0,0,0,.06-.05v0l0,0a1,1,0,0,1-.1-.18c0-.07,0-.13,0-.21s.05,0,.06-.06l.1-.05c.15,0,.29.07.45,0s0,0,.08,0l0,0,0,0a1.12,1.12,0,0,0,.15-.15l.13,0,0,0a.23.23,0,0,0,.13-.05,1.14,1.14,0,0,0,0-.18V4a.11.11,0,0,1,.07,0h.08c.07,0,.1-.11.18-.17H12l.06,0a2.27,2.27,0,0,1,.25,0l0,0s0,0,0-.08,0,0-.06-.06-.07-.06-.1-.1l-.05,0,0-.06a.13.13,0,0,0-.13,0l0,.05s-.07,0-.11.07-.06,0-.09,0l0,0h-.1l-.07.05a.29.29,0,0,1-.13,0l0,0,0,0s0,0,0-.08a1.91,1.91,0,0,1,0-.29l0,0a1.32,1.32,0,0,1,.06-.21l0,0a.73.73,0,0,1,.1-.22l0,0a2.55,2.55,0,0,1,.3,0s.06,0,.07,0a1.79,1.79,0,0,1,.16-.18.89.89,0,0,0,0-.21c0-.05.05-.14.09-.21l0,0s0-.06,0-.1l.06-.06,0-.05c0-.05,0-.1,0-.16l0,0h-.13l-.06-.07v0s0-.06.06-.1h.07s0,0,.07,0,0-.05,0-.07h0v0l0,0,.15,0s0,0,.1-.05.05,0,.1,0a.3.3,0,0,0,.15,0s.1,0,.15,0a.36.36,0,0,1,.16.08.1.1,0,0,0,.07,0s.07,0,.13,0,.07,0,.1.06,0,.06,0,.08.06.09.12.13,0,.08,0,.11l0,0s0,.08,0,.11a.18.18,0,0,1,.08.12l.07.1.08,0s0,.07,0,.07,0,.13,0,.21,0,0,0,.06l0,0a1.55,1.55,0,0,0,.35,0,1,1,0,0,1,.13.09.22.22,0,0,1,.13,0,.33.33,0,0,0,.11.11.09.09,0,0,0,0,.06.41.41,0,0,1,0,.1v.05h0s.07.05.1.08a1,1,0,0,0,.24-.07s0-.09.1-.11,0-.05,0-.1.07-.05.13-.07a1,1,0,0,1,.17-.16h0l0,0h0l0,0a.14.14,0,0,1,0,.08.17.17,0,0,0,0,.08.36.36,0,0,1,0,.13.24.24,0,0,1,0,.21l0,0a7.61,7.61,0,0,0,0,.82.42.42,0,0,1,0,.11s0,0,0,.07a.5.5,0,0,0-.3,0v.05s-.09,0-.11.09,0,.07,0,.11.09.12.09.21,0,.22.07.35l-.1.13c0,.07,0,.14,0,.21l0,0h-.07l0-.05-.08,0a1.67,1.67,0,0,0-.1.19,1.57,1.57,0,0,0-.18.2s0,0,0,.08,0,.06,0,.1l0,0a.78.78,0,0,1-.35,0s-.06,0-.07,0a.73.73,0,0,0-.05.11v0l0,0s0,0,0,.08v0c0,.06-.07.07-.08.13l0,.05c-.07,0,0,.09-.07.12a.23.23,0,0,0-.11.12v0a.47.47,0,0,1-.34.12.2.2,0,0,0-.1.07s0,0,0,.08a.26.26,0,0,1-.06.08s0,0,0,.08l0,.05s0,.06,0,.07h0l0,.07c-.07,0-.1.06-.17.06s0,0,0-.1a.14.14,0,0,0,0-.08l0,0c.07-.12,0-.28,0-.42l0,0s0-.08.05-.1a.41.41,0,0,0,0-.13s-.05,0-.1,0l-.08,0A.34.34,0,0,0,13,6.2s0,0-.06.07,0,0,0,.08l-.17.09a1.08,1.08,0,0,0-.13.21s0,0,0,.08l-.1.1s0,0-.1,0l-.08,0a.11.11,0,0,0-.07,0s0,.06,0,.11a.44.44,0,0,0,.08.13,1.22,1.22,0,0,0,.18,0,.29.29,0,0,1,.18.12v.13l0,0,0,.05.08,0a.52.52,0,0,0,.14-.17h0a.4.4,0,0,1,.3-.16l.05.07a.32.32,0,0,1,.13,0l0,0s.06,0,.13,0h.07s0,0,.08,0l0,.05a.81.81,0,0,1-.28.23v0s-.08,0-.13,0l0,0s0,.09,0,.13l0,0,0,.1a.49.49,0,0,0-.18.21s-.06,0-.07.09,0,0-.06.08,0,0,.06.09.1,0,.15,0,.09,0,.11.07l0,0s0,.09,0,.13l.06.07a1.88,1.88,0,0,1,0,.37v0s.1,0,.14.12a.61.61,0,0,1,.08.16l0,.05a.45.45,0,0,1,.05.16.35.35,0,0,0,.11.11l0,.06c0,.06-.09.08-.14.13s0,0-.08,0h-.07l0,0,0,0s.11,0,.18,0a.5.5,0,0,0,.16.14,1.34,1.34,0,0,1,0,.32l0,.08c0,.07,0,.16,0,.24l0,0-.1.05s0,.1-.09.14a1,1,0,0,1-.09.24c0,.05,0,.07,0,.13s0,.05,0,.1a.25.25,0,0,1,0,.11s0,0-.07,0,0,.06,0,.07a.73.73,0,0,0,0,.21.9.9,0,0,0-.07.16l0,0h0l0,0s0,0,0,.08l0,0s0,.11-.08.15l0,0s-.07,0-.12,0l0,0s0,.07,0,.1l0,0c-.06,0-.07.11-.14.17l-.07,0,0,0s0,0,.05.06l0,0h-.08c0,.06-.09.06-.12.11a.19.19,0,0,1-.11.15h0a.29.29,0,0,1-.26.09l-.07.06s-.09,0-.15,0l0,0c-.07,0-.12.1-.2.12l0,0s0,0-.1,0h0s0,0,0-.08l0,0s0,0,0,.07l0,0h-.08a.13.13,0,0,0-.1.06s0,0,0,.08-.15,0-.22,0l0,0-.08,0s-.07.06-.13.09h-.14l0,0s0,0-.07,0l-.08,0,0,0,0,0a.45.45,0,0,1,0,.1s0,.08,0,.13-.06,0-.08.06v0c.1,0,.19,0,.3,0l0,0a.27.27,0,0,1,0,.11l-.05,0a1,1,0,0,0-.1.12c0,.06,0,.15,0,.21l-.05,0,0,.05a.31.31,0,0,1-.14.06s-.06,0-.07.05h-.17Zm0,0" style="fill:#4d84ba"/></svg>