<?xml version="1.0" standalone="no"?><!DOCTYPE svg PUBLIC "-//W3C//DTD SVG 1.1//EN" "http://www.w3.org/Graphics/SVG/1.1/DTD/svg11.dtd"><svg t="1567136086390" class="icon" viewBox="0 0 1024 1024" version="1.1" xmlns="http://www.w3.org/2000/svg" p-id="2026" xmlns:xlink="http://www.w3.org/1999/xlink" width="32" height="32"><defs><style type="text/css"></style></defs><path d="M192 0h576l192 192v704a128 128 0 0 1-128 128H192a128 128 0 0 1-128-128V128a128 128 0 0 1 128-128z m549.504 64H192a64 64 0 0 0-64 64v768a64 64 0 0 0 64 64h640a64 64 0 0 0 64-64V218.496L741.504 64z m-117.76 346.88c-3.584-35.2-16-60.608-37.12-76.416-21.248-15.744-48.32-23.68-81.28-23.68-13.44 0-26.56 1.408-39.488 4.16a103.36 103.36 0 0 0-34.496 13.696c-9.984 6.4-18.048 14.976-24.064 25.728a81.088 81.088 0 0 0-9.024 40.064c0 15.104 4.352 27.328 13.056 36.672 8.704 9.408 20.288 17.024 34.752 22.976 14.528 5.952 30.912 10.88 49.216 14.72 18.24 3.904 36.864 8.128 55.808 12.672 19.008 4.608 37.632 9.984 55.872 16.128 18.304 6.144 34.688 14.528 49.216 25.024 14.464 10.496 26.048 23.744 34.752 39.744 8.704 16 13.056 36.096 13.056 60.352 0 26.048-5.696 48.32-17.088 66.816-11.328 18.496-25.92 33.6-43.776 45.248a188.16 188.16 0 0 1-59.904 25.344 283.776 283.776 0 0 1-141.824-2.432c-23.872-6.848-44.8-17.28-62.848-31.168a147.136 147.136 0 0 1-42.88-53.44C325.312 651.328 320 625.664 320 595.968h60.16c0 20.544 3.968 38.272 11.776 53.12 7.808 14.848 18.048 27.072 30.72 36.672 12.8 9.6 27.52 16.64 44.544 21.248 16.896 4.544 34.304 6.848 52.16 6.848 14.272 0 28.672-1.344 43.136-4.096 14.528-2.752 27.52-7.424 39.168-14.08a78.72 78.72 0 0 0 28.096-27.072c7.104-11.392 10.688-26.048 10.688-43.84 0-16.896-4.352-30.656-13.056-41.152a96 96 0 0 0-34.752-25.664 250.304 250.304 0 0 0-49.216-16.128l-55.872-12.672a745.344 745.344 0 0 1-55.808-15.104 199.872 199.872 0 0 1-49.216-22.592 107.2 107.2 0 0 1-34.752-36.352c-8.704-14.848-13.056-33.472-13.056-55.872 0-24.64 4.928-46.016 14.72-64.064 9.792-18.048 22.848-32.896 39.104-44.544 16.32-11.648 34.816-20.352 55.552-26.048 20.736-5.76 42.048-8.576 63.872-8.576 24.576 0 47.296 2.944 68.224 8.96 20.992 5.888 39.36 15.232 55.232 28.032 15.808 12.8 28.288 28.928 37.44 48.32 9.152 19.456 14.144 42.624 15.04 69.568h-60.16z" fill="#4D84BA" p-id="2027"></path><path d="M741.504 64H192a64 64 0 0 0-64 64v768a64 64 0 0 0 64 64h640a64 64 0 0 0 64-64V218.496L741.504 64z" fill="#4D84BA" opacity=".15" p-id="2028"></path></svg>