<?xml version="1.0" standalone="no"?><!DOCTYPE svg PUBLIC "-//W3C//DTD SVG 1.1//EN" "http://www.w3.org/Graphics/SVG/1.1/DTD/svg11.dtd"><svg t="1562032190297" class="icon" viewBox="0 0 1024 1024" version="1.1" xmlns="http://www.w3.org/2000/svg" p-id="7089" xmlns:xlink="http://www.w3.org/1999/xlink" width="64" height="64"><defs><style type="text/css"></style></defs><path d="M66.113 457.499c6.17-50.632 20.855-99.564 43.644-145.435 45.78-92.144 122.25-166.333 215.325-208.898 20.084-9.185 43.81-0.35 52.996 19.735 9.184 20.082 0.35 43.81-19.734 52.996-159.265 72.834-245.756 249.64-205.66 420.41 30.737 130.877 129.202 233.323 256.19 270.334l0.262-70.8L605.98 910.49l-197.69 113.177 0.275-74.433c-75.398-17.911-144.81-54.93-202.085-108.039C140.883 780.368 95.358 702.01 74.83 614.59c-12.17-51.83-15.104-104.684-8.716-157.091zM616.494-0.001l-0.272 74.434c75.405 17.911 144.821 54.932 202.1 108.046 65.6 60.831 111.125 139.191 131.652 226.616 7.988 34.035 11.994 68.508 11.994 103.011a447.02 447.02 0 0 1-3.272 53.946c-6.152 50.591-20.803 99.489-43.545 145.334-45.679 92.08-122.013 166.27-214.937 208.9-20.072 9.21-43.81 0.402-53.018-19.67-9.21-20.077-0.401-43.81 19.672-53.02 158.963-72.928 245.278-249.659 205.248-420.224C841.384 296.49 742.915 194.04 615.921 157.027l-0.26 70.802-196.85-114.64L616.493-0.001z" fill="#1296db" p-id="7090"></path></svg>