<?xml version="1.0" standalone="no"?><!DOCTYPE svg PUBLIC "-//W3C//DTD SVG 1.1//EN" "http://www.w3.org/Graphics/SVG/1.1/DTD/svg11.dtd"><svg t="1568107954470" class="icon" viewBox="0 0 1024 1024" version="1.1" xmlns="http://www.w3.org/2000/svg" p-id="10639" id="mx_n_1568107954473" xmlns:xlink="http://www.w3.org/1999/xlink" width="200" height="200"><defs><style type="text/css"></style></defs><path d="M95.812267 341.333333l375.057066 173.1584a85.333333 85.333333 0 0 0 70.656 0.4096L929.245867 341.333333l-387.754667-173.568a85.333333 85.333333 0 0 0-70.621867 0.4096L95.812267 341.333333z m389.393066-142.165333a51.2 51.2 0 0 1 42.359467-0.238933L845.687467 341.333333l-318.122667 142.404267a51.2 51.2 0 0 1-42.359467-0.238933L177.2544 341.333333l307.950933-142.165333z" fill="#1296db" p-id="10640"></path><path d="M129.365333 527.496533l341.504 157.661867a85.333333 85.333333 0 0 0 70.656 0.4096l352.938667-158.0032a17.066667 17.066667 0 0 0-13.994667-31.1296l-352.904533 157.969067a51.2 51.2 0 0 1-42.359467-0.238934L143.701333 496.503467a17.066667 17.066667 0 1 0-14.336 30.993066z" fill="#1296db" p-id="10641"></path><path d="M129.365333 698.1632l341.504 157.661867a85.333333 85.333333 0 0 0 70.656 0.4096l352.938667-158.0032a17.066667 17.066667 0 0 0-13.994667-31.1296l-352.904533 157.969066a51.2 51.2 0 0 1-42.359467-0.238933L143.701333 667.170133a17.066667 17.066667 0 1 0-14.336 30.993067z" fill="#1296db" p-id="10642"></path></svg>