<?xml version="1.0" standalone="no"?><!DOCTYPE svg PUBLIC "-//W3C//DTD SVG 1.1//EN" "http://www.w3.org/Graphics/SVG/1.1/DTD/svg11.dtd"><svg t="1556267830408" class="icon" style="" viewBox="0 0 1386 1024" version="1.1" xmlns="http://www.w3.org/2000/svg" p-id="3607" xmlns:xlink="http://www.w3.org/1999/xlink" width="270.703125" height="200"><defs><style type="text/css"></style></defs><path d="M577.113701 1023.974803V590.815748l48.47874-118.097638h711.533859l48.806299 119.584252-0.277165 431.697638z m42.204725-38.022047h724.107086v-155.086614H619.368819z m0-198.198425h724.107086v-155.086614H619.368819z m13.329134-198.173229h697.423622l-27.565355-78.866141H660.263308z m591.269291 337.83937v-43.086614h42.07874v43.086614z m-992.907087 0h-1.310236c-39.83622-1.033071-229.719685-16.47874-229.719685-214.551181a337.637795 337.637795 0 0 1 295.206299-336.755905l2.847244-0.352756 0.453544-2.847244a448.226772 448.226772 0 0 1 434.217322-372.913386 442.885039 442.885039 0 0 1 438.626772 408.995276h-42.229921A404.737008 404.737008 0 0 0 727.639686 43.111811a399.52126 399.52126 0 0 0-391.785827 318.085039 160.327559 160.327559 0 0 0-10.07874 47.874016 295.987402 295.987402 0 0 0-288.655119 298.582677c0 163.275591 165.870866 175.622047 194.015749 176.579528h288.730708v43.111811z m992.907087-193.007874v-43.086614h42.07874v43.086614z m-835.023622-345.700787a356.182677 356.182677 0 0 1 325.03937-286.765354v17.637795a326.929134 326.929134 0 0 0-307.905512 269.177953z" p-id="3608" fill="#1296db"></path></svg>