<?xml version="1.0" standalone="no"?><!DOCTYPE svg PUBLIC "-//W3C//DTD SVG 1.1//EN" "http://www.w3.org/Graphics/SVG/1.1/DTD/svg11.dtd"><svg t="1597128387333" class="icon" viewBox="0 0 1024 1024" version="1.1" xmlns="http://www.w3.org/2000/svg" p-id="10564" xmlns:xlink="http://www.w3.org/1999/xlink" width="200" height="200"><defs><style type="text/css"></style></defs><path d="M990.08 111.36a32 32 0 0 0-32 32V960H140.16a32 32 0 0 0 0 64h849.92a32 32 0 0 0 32-32V143.36a32 32 0 0 0-32-32z" fill="#d4237a" p-id="10565"></path><path d="M393.6 841.6a32 32 0 0 0-32-32H64V64h745.6v300.8a32 32 0 0 0 64 0V32a32 32 0 0 0-32-32H32a32 32 0 0 0-32 32v809.6a32 32 0 0 0 32 32h329.6a32 32 0 0 0 32-32z" fill="#d4237a" p-id="10566"></path><path d="M625.28 841.6a32 32 0 0 0 32 32h184.32a32 32 0 0 0 32-32v-183.68a32 32 0 1 0-64 0v106.24L256 210.56h106.24a32 32 0 0 0 0-64H178.56a32 32 0 0 0-32 32v184.96a32 32 0 0 0 64 0V256l553.6 553.6h-106.88a32 32 0 0 0-32 32z" fill="#d4237a" p-id="10567"></path></svg>