<svg height="496pt" viewBox="0 0 496 496" width="496pt" xmlns="http://www.w3.org/2000/svg"><path d="m240 168c0-57.34375-46.65625-104-104-104s-104 46.65625-104 104 46.65625 104 104 104 104-46.65625 104-104zm-192 0c0-48.519531 39.480469-88 88-88s88 39.480469 88 88-39.480469 88-88 88-88-39.480469-88-88zm0 0" fill="#4D84BA"/><path d="m144 456c0 4.417969-3.582031 8-8 8s-8-3.582031-8-8 3.582031-8 8-8 8 3.582031 8 8zm0 0" fill="#4D84BA"/><path d="m336 0c-47.441406 0-91.457031 20.609375-121.992188 56.769531-22.113281-15.554687-48.984374-24.769531-78.007812-24.769531-74.992188 0-136 61.007812-136 136 0 66.792969 48.433594 122.367188 112 133.753906v34.246094h-16v120c0 22.054688 17.945312 40 40 40s40-17.945312 40-40v-120h-16v-34.246094c23.59375-4.226562 45.128906-14.449218 62.839844-29.195312 29.992187 30.128906 70.695312 47.441406 113.160156 47.441406 88.222656 0 160-71.777344 160-160s-71.777344-160-160-160zm0 16c4.710938 0 9.359375.265625 13.953125.703125-3.5625 19.242187-11.898437 37.128906-24.394531 52.121094-8.742188 10.496093-13.558594 23.800781-13.558594 37.464843 0 21.925782-16.457031 40.109376-38.28125 42.296876l-3.214844.316406c-4.59375-32.476563-20.648437-61.246094-44-82.140625 27.472656-32.347657 66.960938-50.761719 109.496094-50.761719zm-65.921875 271.664062c-13.046875-6.769531-25.0625-15.527343-35.628906-26.097656 12.375-13.015625 22.160156-28.460937 28.640625-45.566406h10.382812c7.917969 0 15.589844 2.328125 22.183594 6.71875l24.304688 16.203125c5.039062 3.359375 8.039062 8.972656 8.039062 15.023437 0 9.957032-8.097656 18.054688-18.054688 18.054688h-6.058593c-6.742188 0-13.277344 1.976562-18.886719 5.71875zm-254.078125-119.664062c0-66.167969 53.832031-120 120-120s120 53.832031 120 120-53.832031 120-120 120-120-53.832031-120-120zm144 288c0 13.230469-10.769531 24-24 24s-24-10.769531-24-24v-104h48zm-16-120h-16v-32.40625c2.664062.160156 5.296875.40625 8 .40625s5.335938-.246094 8-.40625zm143.457031-40.6875 6.414063-4.28125c2.976562-1.984375 6.441406-3.03125 10.015625-3.03125h6.058593c18.773438 0 34.054688-15.28125 34.054688-34.054688 0-11.410156-5.664062-22-15.167969-28.335937l-24.304687-16.203125c-9.222656-6.148438-19.96875-9.40625-31.054688-9.40625h-5.433594c2.496094-10.28125 3.960938-20.960938 3.960938-32 0-1.0625-.136719-2.089844-.160156-3.144531l3.472656-.34375c30.03125-3.007813 52.6875-28.03125 52.6875-58.222657 0-9.929687 3.503906-19.59375 9.847656-27.21875 14.359375-17.230468 23.894532-37.8125 27.90625-59.941406 19.300782 4.070313 37.140625 12.0625 52.757813 23.039063l-23.367188 23.367187c-12.34375 12.351563-19.144531 28.769532-19.144531 46.234375v13.359375c0 19.464844 8.574219 37.765625 23.519531 50.222656l16.214844 13.511719c3.386719 2.824219 5.808594 6.136719 7 9.578125 2.121094 6.117188 1.570313 12.511719-1.558594 17.992188-3.070312 5.390625-8.382812 9.199218-14.566406 10.453125-17.738281 3.585937-30.609375 19.929687-30.609375 38.847656v32.496094c-12.71875 3.691406-26.113281 5.769531-40 5.769531-16.710938 0-33.078125-3.105469-48.542969-8.6875zm104.542969-2.648438v-26.929687c0-11.335937 7.480469-21.085937 17.785156-23.167969 10.703125-2.167968 19.925782-8.804687 25.292969-18.199218 5.371094-9.40625 6.386719-20.765626 2.777344-31.160157-2.144531-6.183593-6.246094-11.933593-11.871094-16.621093l-16.214844-13.523438c-11.289062-9.40625-17.769531-23.238281-17.769531-37.933594v-13.359375c0-13 5.273438-25.722656 14.464844-34.914062l24.671875-24.671875c29.886719 26.402344 48.863281 64.886718 48.863281 107.816406 0 59.550781-36.335938 110.777344-88 132.664062zm0 0" fill="#4D84BA"/><path d="m208 184h-16v-48h-16v48h-16v-80h-16v80h-16v-64h-16v64h-16v-32h-16v32h-16v16h144zm0 0" fill="#4D84BA"/></svg>