<?xml version="1.0" standalone="no"?><!DOCTYPE svg PUBLIC "-//W3C//DTD SVG 1.1//EN" "http://www.w3.org/Graphics/SVG/1.1/DTD/svg11.dtd"><svg t="1575274753148" class="icon" viewBox="0 0 1024 1024" version="1.1" xmlns="http://www.w3.org/2000/svg" p-id="2644" xmlns:xlink="http://www.w3.org/1999/xlink" width="516" height="516"><defs><style type="text/css"></style></defs><path d="M511.98464 66.56c-118.97856 0-230.83008 46.35136-314.95168 130.4832C112.90624 281.15968 66.56 393.04192 66.56 511.99488c0 118.9632 46.34624 230.84544 130.47296 314.9568C281.15456 911.09376 393.00608 957.44 511.98464 957.44c118.98368 0 230.84032-46.34624 314.9824-130.48832C911.09376 742.84032 957.44 630.97856 957.44 511.99488c0-118.97856-46.34624-230.8352-130.47296-314.95168C742.82496 112.91136 630.96832 66.56 511.98464 66.56z m275.58912 721.02912c-73.61024 73.63584-171.47904 114.18624-275.58912 114.18624s-201.97376-40.5504-275.57888-114.18624c-73.63584-73.61024-114.16064-171.47904-114.16064-275.59424 0-104.11008 40.54528-201.97376 114.18112-275.58912 73.60512-73.63072 171.47392-114.176 275.584-114.176s201.97376 40.54528 275.584 114.176c73.63584 73.61536 114.18112 171.47904 114.18112 275.58912 0 104.1152-40.56576 201.984-114.2016 275.59424z" fill="#3FAAE3" p-id="2645"></path><path d="M519.1168 555.79136V267.91936a27.8528 27.8528 0 0 0-27.84256-27.84768 27.8528 27.8528 0 0 0-27.84256 27.84768v306.23232a27.81184 27.81184 0 0 0 16.88064 25.58976" fill="#3FAAE3" p-id="2646"></path><path d="M734.70464 574.15168a31.0784 31.0784 0 0 1-31.07328 31.0784H496.44544a31.08864 31.08864 0 0 1-31.07328-31.0784 31.09376 31.09376 0 0 1 31.07328-31.0784h207.18592a31.08864 31.08864 0 0 1 31.07328 31.0784z" fill="#3FAAE3" p-id="2647"></path></svg>