<svg width="1024" height="1024" xmlns="http://www.w3.org/2000/svg" class="icon">
 <defs>
  <style type="text/css"/>
 </defs>
 <g>
  <title>background</title>
  <rect fill="none" id="canvas_background" height="402" width="582" y="-1" x="-1"/>
 </g>
 <g>
  <title>Layer 1</title>
  <path id="svg_1" fill="#4D84BA" d="m651.06522,0.10842l-503.35623,0c-34.12932,0 -59.7233,25.6 -59.7233,59.7233l0,904.33656c0,34.12932 25.6,59.7233 59.7233,59.7233l725.1727,0c34.12932,0 59.7233,-25.6 59.7233,-59.7233l0,-682.52009l-281.53977,-281.53977z"/>
  <path id="svg_2" fill="#4D84BA" d="m313.52471,485.49647c25.4976,0 45.27887,5.2224 59.33176,15.66118c15.05883,11.24593 23.69054,28.61176 25.90118,52.10353l-34.93647,0c-3.01177,-13.25177 -8.53534,-22.78702 -16.56471,-28.61177c-7.63181,-5.82475 -19.47407,-8.73412 -35.53882,-8.73412c-13.65534,0 -23.99172,1.90946 -31.02118,5.72236c-8.83652,4.41524 -13.25176,11.84828 -13.25176,22.28706c0,9.43887 5.0176,16.76348 15.05882,21.98588c4.81882,2.60819 17.06466,7.02946 36.74353,13.25176c28.31059,8.63172 47.08593,15.66118 56.32,21.08236c18.67294,11.04112 28.00941,26.50352 28.00941,46.38117c0,19.2753 -7.52941,34.5329 -22.58823,45.77883c-15.2576,11.04112 -36.54476,16.5647 -63.84942,16.5647c-26.50352,0 -47.1823,-5.12 -62.04235,-15.36c-18.26936,-12.64941 -28.11181,-32.62946 -29.51529,-59.93412l34.93647,0c2.40941,16.46231 8.23416,28.11182 17.46823,34.93647c8.63172,6.22231 21.68471,9.33648 39.15294,9.33647c15.66118,0 28.11182,-2.60818 37.34589,-7.83058c9.23407,-5.61996 13.85411,-12.75182 13.85411,-21.38353c0,-11.44471 -6.72828,-20.48 -20.17882,-27.10589c-4.81882,-2.40941 -18.77534,-7.12583 -41.86353,-14.15529c-26.7023,-8.43294 -43.17063,-14.45647 -49.39294,-18.07059c-16.46231,-9.83642 -24.69647,-24.29289 -24.69647,-43.36941c0,-19.27529 8.02936,-34.23172 24.09412,-44.87529c14.86004,-10.43878 33.93054,-15.66118 57.22353,-15.66118zm120.16941,4.21647l35.23765,0l0,89.75059l109.02588,0l0,-89.75059l35.23764,0l0,215.04l-35.23764,0l0,-95.17176l-109.02588,0l0,95.17176l-35.23765,0l0,-215.04zm221.66588,0l89.14824,0c52.00112,0 78.0047,21.98588 78.0047,65.95765c0,44.37534 -26.20235,66.56 -78.60706,66.56l-53.30823,0l0,82.52235l-35.23765,0l0,-215.04zm35.23765,30.11765l0,72.28235l51.2,0c15.4624,0 26.9071,-2.81299 34.33412,-8.43294c7.22823,-5.82475 10.84235,-15.16122 10.84235,-28.00941c0,-12.64941 -3.71652,-21.78711 -11.14353,-27.40706c-7.02946,-5.61995 -18.37177,-8.43294 -34.03294,-8.43294l-51.2,0z"/>
  <path id="svg_3" fill="#4D84BA" d="m651.06522,221.93092c0,34.12329 25.6,59.71727 59.7233,59.71727l221.81647,0l-281.53977,-281.53977l0,221.8225z"/>
  <text style="cursor: move;" stroke="null" transform="matrix(9.045933952506854,0,0,9.017609547315915,-2161.963683651757,-4015.9141664496988) " xml:space="preserve" text-anchor="start" font-family="Helvetica, Arial, sans-serif" font-size="24" id="svg_5" y="514.500541" x="264.157842" stroke-opacity="null" stroke-width="0" fill="#ffffff">F</text>
  <text style="cursor: move;" stroke="null" transform="matrix(9.244510857675381,0,0,8.656106709021012,-3307.6458823896896,-4263.936417625091) " xml:space="preserve" text-anchor="start" font-family="Helvetica, Arial, sans-serif" font-size="24" id="svg_6" y="564.188936" x="402.029477" fill-opacity="null" stroke-opacity="null" stroke-width="0" fill="#ffffff">C</text>
  <text stroke="null" transform="matrix(8.006487599688796,0,0,8.776304459465045,-6647.530211791265,-4972.795833203242) " xml:space="preserve" text-anchor="start" font-family="Helvetica, Arial, sans-serif" font-size="24" id="svg_7" y="637.270812" x="908.052286" fill-opacity="null" stroke-opacity="null" stroke-width="0" fill="#ffffff">S</text>
 </g>
</svg>