<?xml version="1.0" standalone="no"?><!DOCTYPE svg PUBLIC "-//W3C//DTD SVG 1.1//EN" "http://www.w3.org/Graphics/SVG/1.1/DTD/svg11.dtd"><svg t="1594288038771" class="icon" viewBox="0 0 1024 1024" version="1.1" xmlns="http://www.w3.org/2000/svg" p-id="9155" xmlns:xlink="http://www.w3.org/1999/xlink" width="200" height="200"><defs><style type="text/css"></style></defs><path d="M469.333333 896H170.666667V128h426.666666v213.333333a42.666667 42.666667 0 0 0 42.666667 42.666667h213.333333v85.333333a42.666667 42.666667 0 0 0 85.333334 0V341.333333a42.666667 42.666667 0 0 0-12.373334-30.293333l-256-256A42.666667 42.666667 0 0 0 640 42.666667H128a42.666667 42.666667 0 0 0-42.666667 42.666666v853.333334a42.666667 42.666667 0 0 0 42.666667 42.666666h341.333333a42.666667 42.666667 0 0 0 0-85.333333z m213.333334-707.84L793.173333 298.666667H682.666667z" p-id="9156" fill="#1296db"></path><path d="M959.573333 746.666667l-98.56-170.666667a42.666667 42.666667 0 0 0-37.12-21.333333h-197.12a42.666667 42.666667 0 0 0-37.12 21.333333l-98.56 170.666667a42.666667 42.666667 0 0 0 0 42.666666l98.56 170.666667a42.666667 42.666667 0 0 0 37.12 21.333333h197.12a42.666667 42.666667 0 0 0 37.12-21.333333l98.56-170.666667a42.666667 42.666667 0 0 0 0-42.666666zM799.146667 896h-147.626667l-73.813333-128 73.813333-128h147.626667l73.813333 128z" p-id="9157" fill="#1296db"></path><path d="M725.333333 768m-42.666666 0a42.666667 42.666667 0 1 0 85.333333 0 42.666667 42.666667 0 1 0-85.333333 0Z" p-id="9158" fill="#1296db"></path><path d="M426.666667 256H298.666667a42.666667 42.666667 0 0 0 0 85.333333h128a42.666667 42.666667 0 0 0 0-85.333333zM426.666667 426.666667H298.666667a42.666667 42.666667 0 0 0 0 85.333333h128a42.666667 42.666667 0 0 0 0-85.333333zM426.666667 597.333333H298.666667a42.666667 42.666667 0 0 0 0 85.333334h128a42.666667 42.666667 0 0 0 0-85.333334z" p-id="9159" fill="#1296db"></path></svg>