<?xml version="1.0" standalone="no"?><!DOCTYPE svg PUBLIC "-//W3C//DTD SVG 1.1//EN" "http://www.w3.org/Graphics/SVG/1.1/DTD/svg11.dtd"><svg t="1534146431372" class="icon" style="" viewBox="0 0 1024 1024" version="1.1" xmlns="http://www.w3.org/2000/svg" p-id="12175" xmlns:xlink="http://www.w3.org/1999/xlink" width="48" height="48"><defs><style type="text/css"></style></defs><path d="M791.837406 780.020266l0 38.10383 76.207659 0L868.045065 94.14417 296.482505 94.14417l0 76.208683 38.10383 0 0-38.104853 495.354901 0 0 647.772266L791.837406 780.020266 791.837406 780.020266zM171.936931 216.458937l0 707.975417c0 4.419659 3.505847 8.002254 7.849782 8.002254l555.826158 0c4.381797 0 7.887644-3.543709 7.887644-8.002254L743.500515 216.458937c0-4.420683-3.505847-8.002254-7.849782-8.002254L179.785689 208.456682C175.441754 208.456682 171.936931 212.000392 171.936931 216.458937L171.936931 216.458937zM210.04076 246.560512l495.354901 0 0 647.772266-495.354901 0L210.04076 246.560512 210.04076 246.560512z" p-id="12176" fill="#1296db"></path><path d="M330.561671 710.575638c26.482141 20.48659 56.375985 30.728862 89.688695 30.728862 26.64587 0 47.756677-6.534833 63.332421-19.611663 15.57165-13.072737 23.359011-30.604018 23.359011-52.589752 0-48.967248-35.062564-73.449849-105.178481-73.449849l-32.228005 0 0-40.472783 30.728862 0c62.121849 0 93.186356-22.984481 93.186356-68.953442 0-42.4713-23.733541-63.706951-71.201645-63.706951-27.149337 0-52.714596 9.16166-76.697823 27.480888l0-46.218648c25.314549-14.653745 54.876842-21.98471 88.689948-21.98471 32.977066 0 59.459207 8.619308 79.446423 25.857924 19.986193 17.238616 29.979802 39.597857 29.979802 67.079768 0 50.633191-25.818015 83.193771-77.447906 97.683786l0 0.99977c27.981285 2.998287 50.092885 12.866029 66.331731 29.605272s24.357757 37.59934 24.357757 62.582337c0 34.812877-12.533454 62.875003-37.598316 84.192517-25.069979 21.321608-58.422597 31.978319-100.057857 31.978319-36.643572 0-66.204841-6.827499-88.689948-20.48659L330.562694 710.575638z" p-id="12177" fill="#1296db"></path></svg>