<?xml version="1.0" standalone="no"?><!DOCTYPE svg PUBLIC "-//W3C//DTD SVG 1.1//EN" "http://www.w3.org/Graphics/SVG/1.1/DTD/svg11.dtd"><svg t="1562031906388" class="icon" viewBox="0 0 1024 1024" version="1.1" xmlns="http://www.w3.org/2000/svg" p-id="3267" xmlns:xlink="http://www.w3.org/1999/xlink" width="64" height="64"><defs><style type="text/css"></style></defs><path d="M106.666667 378.026667l384 221.866666a42.666667 42.666667 0 0 0 42.666666 0l384-221.866666A42.666667 42.666667 0 0 0 938.666667 341.333333a42.666667 42.666667 0 0 0-21.333334-37.12l-384-221.44a42.666667 42.666667 0 0 0-42.666666 0l-384 221.44A42.666667 42.666667 0 0 0 85.333333 341.333333a42.666667 42.666667 0 0 0 21.333334 36.693334zM512 170.666667l298.666667 170.666666-298.666667 170.666667-298.666667-170.666667z m362.666667 305.92L512 682.666667l-362.666667-207.786667a42.666667 42.666667 0 0 0-58.453333 15.786667 42.666667 42.666667 0 0 0 15.786667 58.026666l384 221.866667a42.666667 42.666667 0 0 0 42.666666 0l384-221.866667a42.666667 42.666667 0 0 0 15.786667-58.026666 42.666667 42.666667 0 0 0-58.453333-15.786667z m0 170.666666L512 853.333333l-362.666667-207.786666a42.666667 42.666667 0 0 0-58.453333 15.786666 42.666667 42.666667 0 0 0 15.786667 58.026667l384 221.866667a42.666667 42.666667 0 0 0 42.666666 0l384-221.866667a42.666667 42.666667 0 0 0 15.786667-58.026667 42.666667 42.666667 0 0 0-58.453333-15.786666z" p-id="3268" fill="#1296db"></path></svg>