<?xml version="1.0" standalone="no"?><!DOCTYPE svg PUBLIC "-//W3C//DTD SVG 1.1//EN" "http://www.w3.org/Graphics/SVG/1.1/DTD/svg11.dtd"><svg t="1567135185549" class="icon" viewBox="0 0 1024 1024" version="1.1" xmlns="http://www.w3.org/2000/svg" p-id="21001" xmlns:xlink="http://www.w3.org/1999/xlink" width="32" height="32"><defs><style type="text/css"></style></defs><path d="M475.4 728.4c-52.4 18.4-101.1 10.3-148.8-12.3-4.9-2.3-13.3-1.1-18.3 1.6-37.3 20.1-66.5 17.6-91.5-17.7-24-34-45.3-71.2-60.2-109.9C116.3 485.7 80.9 379 82.7 265.3c1.6-100 51.6-176 153.3-184.6 47.2-4 96.1 2.2 143.2 9.9 25.6 4.2 47 3.4 72.1-3.6 32-8.9 67.5-13.8 100.2-9.9 37.8 4.6 72.2-5 108-9.6 73-9.4 142-0.6 206.3 39.6 67.5 42.2 83.7 102.4 71.3 176.1-16.5 99-51.5 191.3-100 278.7-3 5.3-5.6 10.9-11.8 23.1 27.2-2.2 49.5-5.6 71.8-5.4 14 0.1 33.6 1.2 40.2 9.9 7 9.1 6 29.7 0.8 42-23.5 55.5-73 69.6-127.1 73.9-14.2 1.1-28.5 0.2-45.5 0.2-5.2 40.6-10.5 80.2-15.3 119.9-11.8 97.3-98.8 155.7-191.9 128.3-44.9-13.2-67.4-45.4-72.1-90.4-4-38.3-5.9-76.8-8.8-115.2-0.4-6.1-1.2-12.2-2-19.8z m-30.5-106c-17.2 9.2-31.7 18.1-47.2 24.9-11.4 5-24.5 5.9-35.9 11-23.2 10.3-25.2 32-3.2 44.8 12.6 7.4 28.6 13.8 42.6 13 32.7-1.8 65.1-8.2 97.2-12.7 2.8 44.7 4.2 94.9 9.7 144.6 5.5 50.1 31.4 79.9 74.9 85.9 55.6 7.6 132.4-14.4 144.5-98.9 6.4-44.3 11.7-88.7 17.2-133.1 1.5-12 1.1-20.7 19.8-20.3 29 0.6 59.6-1.1 86.9-9.9 22.7-7.3 42.4-25.2 61.8-40.5 4.9-3.9 7.3-17.5 4.3-23.3-3.1-6.1-14-11-21.6-11.3-12.3-0.5-24.7 4.4-37.1 5-20.3 1-40.8 0.3-66.8 0.3 10-17.1 15.3-26.3 20.6-35.5 44.4-76.3 76.4-157.3 96-243.6 30.3-134-17.2-201.7-155.5-227.3-43.4-8-90.4 4.1-135.8 6.8-13 0.8-26.2 2.3-39.1 1.3-44.8-3.1-90-8.6-131.2 15-14.6 8.3-26.7 7.8-42.5 4.5-42.7-8.7-86-18.8-129.2-19.6C173 101.6 112.5 158 109.8 260.3c-3.7 139.9 36.7 270.1 99.8 393.7 7.1 14 18.7 26.6 30.7 37 25.6 22.3 52.7 21.4 76.8-2.3 16.6-16.3 33-33.4 46-52.5 20.3-29.7 43.2-41.2 81.8-13.8z" fill="" p-id="21002"></path><path d="M444.9 622.4c-38.6-27.4-61.4-15.9-81.7 13.6-13.1 19.1-29.4 36.2-46 52.5-24.1 23.7-51.2 24.6-76.8 2.3-12-10.4-23.5-23-30.7-37-63.1-123.5-103.5-253.8-99.8-393.7C112.5 158 173 101.6 275.2 103.4c43.2 0.8 86.5 10.9 129.2 19.6 15.8 3.2 28 3.8 42.5-4.5 41.2-23.6 86.4-18.2 131.2-15 12.9 0.9 26.1-0.6 39.1-1.3 45.4-2.7 92.5-14.8 135.8-6.8 138.4 25.7 185.9 93.3 155.5 227.3-19.5 86.4-51.6 167.3-96 243.6-5.3 9.2-10.7 18.4-20.6 35.5 26 0 46.4 0.7 66.8-0.3 12.4-0.6 24.8-5.5 37.1-5 7.7 0.3 18.5 5.2 21.6 11.3 3 5.8 0.7 19.4-4.3 23.3-19.4 15.3-39.1 33.2-61.8 40.5-27.3 8.8-57.9 10.5-86.9 9.9-18.6-0.4-18.3 8.3-19.8 20.3-5.5 44.4-10.9 88.8-17.2 133.1-12.2 84.4-88.9 106.5-144.5 98.9-43.6-5.9-69.4-35.7-74.9-85.9-5.5-49.7-6.8-99.9-9.7-144.6-32.1 4.5-64.5 10.9-97.2 12.7-14 0.8-30-5.6-42.6-13-22-12.8-20-34.5 3.2-44.8 11.3-5 24.5-6 35.9-11 15.5-6.7 30.1-15.6 47.3-24.8z m31.5-37.4c46.2 21 52.4 34 51.7 84.3-0.6 52 0.1 104.1 4.2 155.9 2.6 32.9 9.6 67.4 48.1 79.8 49 15.9 108.7-18.1 117.9-68.6 7.9-43.9 10.3-88.9 19-132.7 7.8-39.4-10.3-87.8 38.9-113.6-5.9-8.7-10.9-15-14.7-21.9-31.5-58.1-68.8-113.7-80.1-180.7-9.2-54.7 17.9-88.7 73-92.2 8.3-0.5 16.7-1.2 25.7-1.8-34.3-102.1-135-168-239.6-165-91.7 2.7-152.6 87.6-153.5 187.5 14.8-4.6 29-9.9 43.6-13.4 46-11 82.5 4.7 93.8 44.5 16.6 58.7 20.3 118.1-3.3 176.5-8.3 20.4-16.5 41-24.7 61.4z m-82-443c-46-3.5-92.1-11.1-137.9-9.4-61.7 2.3-100.9 38.7-113.5 99.2-5.2 25.1-8.8 51.9-6.1 77.2 11.6 110 39.3 216.2 87.9 316 7.6 15.7 20.4 29.2 32.2 42.5 12.5 14.1 27.6 13.1 39.8-0.1 24.7-26.6 48.2-54.4 72.8-82.3-37.3-36-45.7-78.4-41.2-125.3 2.1-22.3 4.4-44.9 3-67.1-5.7-87.4 7.9-169.4 63-250.7z m268.7-20.4c33 35.1 68.8 67.7 97.8 105.4 29.3 38 47.4 81.8 34.6 133-4.7 18.8-5 39.1-4.9 58.7 0.2 20.5 4.4 41 4.8 61.5 0.4 20.2-1.8 40.4-3 63 48.3-85.2 81.3-173.4 95.2-268.3 6.7-45.8-5-83.6-44.7-112.7-55.9-41.1-117.6-47.3-179.8-40.6zM442.4 585.9c9-22.4 17.3-45.5 27.4-67.9 19.5-42.8 17.5-87.1 12-132-6-50-21.8-69-86.8-46-4.2 1.5-9.7 2.5-12 5.7-7.2 9.7-17.4 19.8-18.8 30.6-3.8 31-3.2 62.5-5.5 93.8-4.3 61.4 21.4 98.6 83.7 115.8zM762 327.4c-58.6-6.5-83.4 15.8-67.6 66.8 14.8 47.8 38.5 92.9 58.2 139.1 3.1-0.9 6.3-1.8 9.4-2.7V327.4zM477.1 619.2c-23 34-52.6 57.8-94.6 62.6 38.6 9.5 75.2 12.4 104.3-20.3 12.9-14.6 14.3-28.4-9.7-42.3z m388.6 14.5c-25.7-3.5-53.4-6.5-80.8-11.2-13.9-2.4-25.4-2.8-29.7 13.3-5.2 19.5 12 18.5 21.3 18.4 32.9-0.2 65.6-3.4 89.2-20.5z" fill="#FFFFFF" p-id="21003"></path><path d="M476.4 585c8.2-20.4 16.3-41 24.6-61.5 23.6-58.4 19.9-117.9 3.3-176.5-11.3-39.8-47.8-55.5-93.8-44.5-14.6 3.5-28.8 8.8-43.6 13.4 0.9-99.9 61.8-184.8 153.4-187.4 104.6-3 205.4 62.9 239.6 165-9 0.6-17.4 1.2-25.7 1.8-55.1 3.6-82.2 37.6-73 92.2 11.3 67 48.6 122.6 80.1 180.7 3.8 7 8.9 13.3 14.7 21.9-49.2 25.9-31.1 74.3-38.9 113.6-8.7 43.8-11.1 88.7-19 132.7-9.1 50.4-68.8 84.4-117.9 68.6-38.5-12.5-45.5-46.9-48.1-79.8-4-51.8-4.8-103.9-4.2-155.9 0.9-50.3-5.3-63.3-51.5-84.3z" fill="#315D8A" p-id="21004"></path><path d="M394.4 142c-55.1 81.3-68.7 163.3-63.1 250.8 1.4 22.2-0.8 44.8-3 67.1-4.5 46.8 3.9 89.3 41.2 125.3-24.6 27.9-48.1 55.7-72.8 82.3-12.2 13.1-27.3 14.2-39.8 0.1-11.8-13.3-24.5-26.8-32.2-42.5-48.7-99.9-76.3-206-87.9-316.1-2.7-25.3 0.9-52.1 6.1-77.2 12.6-60.5 51.8-96.9 113.5-99.2 45.9-1.7 92 5.9 138 9.4zM663.1 121.6c62.1-6.7 123.8-0.5 179.7 40.5 39.7 29.2 51.4 67 44.7 112.7-13.9 94.9-46.9 183.1-95.2 268.3 1.2-22.6 3.4-42.8 3-63-0.4-20.5-4.6-41-4.8-61.5-0.1-19.6 0.2-39.8 4.9-58.7 12.9-51.2-5.3-95-34.6-133-28.9-37.6-64.6-70.2-97.7-105.3z" fill="#315D8A" p-id="21005"></path><path d="M442.4 585.9c-62.3-17.3-88-54.4-83.6-115.9 2.2-31.2 1.6-62.8 5.5-93.8 1.3-10.9 11.6-20.9 18.8-30.6 2.3-3.1 7.8-4.2 12-5.7 65-23 80.8-4 86.8 46.1 5.5 44.9 7.5 89.2-12 132-10.3 22.4-18.6 45.6-27.5 67.9z m30.2-225.3v-9.7c-10.5-4.1-20.8-10.6-31.5-11.5-6.4-0.5-13.5 7.7-20.4 12.1 8.7 7.4 16.4 18.2 26.4 20.9 6.9 1.9 16.9-7.5 25.5-11.8zM762 327.4v203.3c-3.1 0.9-6.3 1.8-9.4 2.7-19.8-46.3-43.5-91.3-58.2-139.1-15.8-51 9-73.4 67.6-66.9z m-11.9 21.7c-0.3-2.9-0.6-5.7-0.8-8.6-6.3-2.5-13.3-8.2-18.7-6.9-9.1 2.2-17.2 8.7-25.7 13.4 6.8 5.4 13.7 15 20.4 15 8.3 0 16.5-8.2 24.8-12.9zM477.1 619.2c24 14 22.6 27.7 9.7 42.2-29.1 32.7-65.7 29.8-104.3 20.3 42-4.7 71.6-28.6 94.6-62.5zM865.7 633.7c-23.7 17.1-56.4 20.3-89.2 20.5-9.3 0-26.5 1.1-21.3-18.4 4.3-16.1 15.8-15.7 29.7-13.3 27.4 4.7 55.2 7.7 80.8 11.2z" fill="#315D8A" p-id="21006"></path><path d="M472.6 360.6c-8.6 4.3-18.6 13.7-25.5 11.8-10-2.7-17.7-13.6-26.4-20.9 6.8-4.3 13.9-12.6 20.4-12.1 10.8 0.9 21.1 7.4 31.5 11.5v9.7zM750.1 349.1c-8.3 4.7-16.5 12.8-24.8 12.9-6.8 0-13.6-9.6-20.4-15 8.5-4.7 16.6-11.3 25.7-13.4 5.4-1.3 12.4 4.4 18.7 6.9 0.2 2.9 0.5 5.7 0.8 8.6z" fill="#FFFFFF" p-id="21007"></path></svg>