<?xml version="1.0" standalone="no"?><!DOCTYPE svg PUBLIC "-//W3C//DTD SVG 1.1//EN" "http://www.w3.org/Graphics/SVG/1.1/DTD/svg11.dtd"><svg t="1567133661751" class="icon" viewBox="0 0 1024 1024" version="1.1" xmlns="http://www.w3.org/2000/svg" p-id="3249" xmlns:xlink="http://www.w3.org/1999/xlink" width="32" height="32"><defs><style type="text/css"></style></defs><path d="M97 810.3L471.9 927v-91.9l-86.2-21.7V702.2l86.2-21.7v-95L97 702.2v108.1z m67-53c8.4-2.4 18.3-4.9 29.7-7.6l61.5-14.7c11.1-2.7 20.8-5.2 29.2-7.6l31.7-8.1v76.8l-31.7-8.1c-16.5-4.4-36.3-9.3-59.5-14.7l-61-14.1v-1.9z m104.3-325.7c-7.7-10.4-11.6-21.5-11.6-33.3 0-8.8 1.5-19.2 4.5-31.3l-77.1-15.2c-4 9.1-6 20.7-6 34.9 0 33.7 19 61 56.9 81.8v2l-49.9 6.1v73.3h286.8v-89.4H308.2c-17.5-7.2-30.8-16.8-39.9-28.9zM445.2 97l-59 34.4c13.4 16.8 20.2 33.5 20.2 50 0 17.9-7.1 32.5-21.2 44s-32.9 17.2-56.4 17.2c-52.1 0-78.1-21.4-78.1-64.2 0-12.1 5.2-24.4 15.6-36.9l-57.5-41.9c-20.5 23.9-30.7 51.9-30.7 83.9 0 42.1 13.3 77.3 39.8 105.6 27.9 30.3 64.8 45.5 110.9 45.5 46.4 0 83.2-13.8 110.4-41.4 26.5-26.3 39.8-60.1 39.8-101.5 0-16.5-2.5-32.5-7.6-48-5.7-18.1-14.4-33.6-26.2-46.7z m415.4 29.8c-35.3-19.2-81-29.8-130.1-29.8-49.1 0-94.8 10.6-130.1 29.8C545.5 156.7 534 198 534 227.3v575.9h0.2c1.7 28.7 15.3 66.2 66.2 93.9 35.3 19.2 81 29.8 130.1 29.8 49.1 0 94.8-10.6 130.1-29.8 50.9-27.7 64.5-65.2 66.2-93.9h0.2V227.3c0-29.3-11.5-70.6-66.4-100.5zM636.3 192c25.4-15.5 58.2-24 93.7-24s68.3 8.5 93.7 24c25.3 15.4 32.4 31.9 32.8 35.5-0.5 3.6-7.5 20.1-32.8 35.5-25.4 15.5-58.2 24-93.7 24s-68.3-8.5-93.7-24c-25.3-15.5-32.3-32-32.8-35.5 0.5-3.6 7.5-20.1 32.8-35.5z m220.2 604.4c-0.4 3.4-7.3 20-32.9 35.6-25.4 15.5-58.2 24-93.7 24s-68.3-8.5-93.7-24c-25.7-15.6-32.5-32.3-32.9-35.5V694.3c5 4.5 10.7 8.8 17.1 12.9 29.7 19.2 68.1 29.8 109.4 29.8s79.7-10.6 109.4-29.8c6.4-4.1 12-8.4 17.1-12.9v102.1z m0-189.7c-0.4 3.4-7.3 20-32.9 35.6-25.4 15.5-58.2 24-93.7 24s-68.3-8.5-93.7-24c-25.7-15.6-32.5-32.3-32.9-35.5V504.6c5 4.5 10.7 8.8 17.1 12.9 29.7 19.2 68.1 29.8 109.4 29.8s79.7-10.6 109.4-29.8c6.4-4.1 12-8.4 17.1-12.9v102.1z m0-189.7c-0.4 3.4-7.3 20-32.9 35.6-25.4 15.5-58.2 24-93.7 24s-68.3-8.5-93.7-24c-25.7-15.6-32.5-32.3-32.9-35.5V314.9c5 4.5 10.7 8.8 17.1 12.9 29.7 19.2 68.1 29.8 109.4 29.8s79.7-10.6 109.4-29.8c6.4-4.1 12-8.4 17.1-12.9V417z" fill="#4D84BA" p-id="3250"></path></svg>