<svg id="svg5692" xmlns="http://www.w3.org/2000/svg" xmlns:xlink="http://www.w3.org/1999/xlink" viewBox="0 0 16.21 14.37"><defs><linearGradient id="未命名的渐变" x1="6.7" y1="760.87" x2="8.7" y2="767.87" gradientTransform="translate(0 -758)" gradientUnits="userSpaceOnUse"><stop offset="0" stop-color="#eee"/><stop offset="1" stop-color="#cfcfcf"/></linearGradient></defs><title>mIconPolygonLayer</title><g id="layer4"><path id="path2960" d="M.5,6.5c0,12,6,2,9,2,2,0,6,4,6-1,0-8-4.4-3.2-7-4C6.6,2.9.5-.5.5,6.5Z" transform="translate(0 -1.65)" style="stroke:#888a85;stroke-linecap:round;stroke-linejoin:round;fill:url(#未命名的渐变)"/></g><g style="isolation:isolate"><path d="M9.41,11.11h1.06l2.21,4.14,2.22-4.14h1.21v.11c-.78.07-.85.15-.82.93l.06,2.77c0,.8.06.91.85,1V16H14.14v-.11c.74-.05.76-.16.75-1l0-3.28h0l-2.27,4.27h-.08l-2.06-4h0L10.29,14c0,.37,0,.63,0,.84,0,.75.08,1,.86,1V16h-2v-.11c.52,0,.7-.17.76-.48a10.25,10.25,0,0,0,.18-1.51l.12-1.43c0-.21,0-.38,0-.52,0-.55-.14-.66-.78-.73Z" transform="translate(0 -1.65)" style="fill:#1873bb;stroke:#000;stroke-miterlimit:10;stroke-width:0.029999999329447746px"/></g></svg>