<?xml version="1.0" standalone="no"?><!DOCTYPE svg PUBLIC "-//W3C//DTD SVG 1.1//EN" "http://www.w3.org/Graphics/SVG/1.1/DTD/svg11.dtd"><svg t="1565782396185" class="icon" viewBox="0 0 1024 1024" version="1.1" xmlns="http://www.w3.org/2000/svg" p-id="1669" xmlns:xlink="http://www.w3.org/1999/xlink" width="32" height="32"><defs><style type="text/css"></style></defs><path d="M1016.746667 873.506133l-102.161067-71.765333A84.992 84.992 0 0 0 921.6 768.017067a84.753067 84.753067 0 0 0-24.951467-60.330667A84.48 84.48 0 0 0 853.333333 684.3904V476.142933a84.701867 84.701867 0 0 0 43.298134-23.261866A84.736 84.736 0 0 0 921.6 392.567467a84.753067 84.753067 0 0 0-24.951467-60.347734 84.906667 84.906667 0 0 0-122.129066 1.757867l-183.415467-114.244267a85.4016 85.4016 0 0 0-18.722133-92.330666 84.650667 84.650667 0 0 0-43.281067-23.278934L529.066667 17.066667a17.066667 17.066667 0 1 0-34.133334 0.017066l0.034134 87.04a85.504 85.504 0 0 0-68.3008 83.626667c0 11.298133 2.321067 22.033067 6.3488 31.931733l-183.483734 114.244267c-0.512-0.546133-0.887467-1.1776-1.416533-1.723733A84.736 84.736 0 0 0 187.733333 307.2a84.8896 84.8896 0 0 0-58.7264 23.722667l-102.126933-71.816534a17.066667 17.066667 0 0 0-19.626667 27.921067l102.144 71.8336A84.6336 84.6336 0 0 0 102.4 392.5504a85.504 85.504 0 0 0 68.266667 83.575467l0.034133 208.264533A85.504 85.504 0 0 0 102.4 768a85.469867 85.469867 0 0 0 85.367467 85.333333 84.821333 84.821333 0 0 0 60.330666-25.002666c0.341333-0.341333 0.5632-0.750933 0.887467-1.092267l134.382933 85.5552a17.066667 17.066667 0 0 0 18.3296-28.791467l-134.4-85.572266A85.060267 85.060267 0 0 0 273.066667 768.017067a84.855467 84.855467 0 0 0-24.951467-60.347734 84.514133 84.514133 0 0 0-43.298133-23.278933L204.8 476.142933a84.718933 84.718933 0 0 0 43.298133-23.278933A84.7872 84.7872 0 0 0 273.066667 392.5504c0-10.308267-2.048-20.241067-5.512534-29.627733l184.285867-114.773334A85.111467 85.111467 0 0 0 512.034133 273.066667a84.770133 84.770133 0 0 0 60.177067-24.8832l184.32 114.807466A84.6336 84.6336 0 0 0 750.933333 392.5504a85.504 85.504 0 0 0 68.266667 83.575467v208.2816a85.504 85.504 0 0 0-68.266667 83.6096c0 10.666667 2.2016 20.770133 5.802667 30.208l-134.417067 85.230933a17.066667 17.066667 0 0 0 18.295467 28.8256l134.3488-85.1968A84.992 84.992 0 0 0 836.3008 853.333333a84.616533 84.616533 0 0 0 58.692267-23.6544l102.126933 71.748267a17.015467 17.015467 0 0 0 23.773867-4.1472 17.066667 17.066667 0 0 0-4.1472-23.773867zM238.933333 768.017067a50.6368 50.6368 0 0 1-7.936 27.204266c-0.0512 0.085333-0.1536 0.119467-0.2048 0.2048-0.1024 0.170667-0.1024 0.375467-0.2048 0.5632A50.7904 50.7904 0 0 1 187.767467 819.2 51.285333 51.285333 0 0 1 136.533333 768c0-28.228267 22.9888-51.2 51.285334-51.2 13.653333 0 26.504533 5.3248 36.1472 14.984533A50.858667 50.858667 0 0 1 238.933333 768.017067z m-14.984533-339.285334a50.7904 50.7904 0 0 1-36.181333 15.0016A51.285333 51.285333 0 0 1 136.533333 392.5504 51.3024 51.3024 0 0 1 187.818667 341.333333a50.756267 50.756267 0 0 1 43.042133 23.7056c0.085333 0.1536 0.085333 0.341333 0.187733 0.512l0.238934 0.290134A50.688 50.688 0 0 1 238.933333 392.5504a50.722133 50.722133 0 0 1-14.984533 36.181333zM512.034133 238.933333A51.285333 51.285333 0 0 1 460.8 187.7504 51.3024 51.3024 0 0 1 512.085333 136.533333c13.653333 0 26.504533 5.3248 36.1472 14.984534 9.659733 9.6768 14.967467 22.545067 14.967467 36.232533a50.858667 50.858667 0 0 1-14.984533 36.181333 50.7904 50.7904 0 0 1-36.181334 15.0016zM785.066667 392.5504c0-9.898667 2.952533-19.063467 7.8336-26.914133l0.068266-0.068267 0.034134-0.1024a51.165867 51.165867 0 0 1 43.349333-24.1152c13.653333 0 26.504533 5.3248 36.1472 14.984533 9.659733 9.6768 14.984533 22.528 14.967467 36.232534 0.017067 13.653333-5.3248 26.504533-14.984534 36.181333a50.8416 50.8416 0 0 1-36.181333 14.984533A51.285333 51.285333 0 0 1 785.066667 392.5504zM836.3008 819.2a51.165867 51.165867 0 0 1-43.0592-23.671467l-0.068267-0.2048-0.085333-0.068266a50.858667 50.858667 0 0 1-8.021333-27.2384A51.319467 51.319467 0 0 1 836.352 716.8c13.653333 0 26.504533 5.341867 36.1472 15.0016 9.659733 9.6768 14.984533 22.528 14.967467 36.215467a50.8416 50.8416 0 0 1-14.984534 36.1984 50.8416 50.8416 0 0 1-36.181333 14.984533z" fill="#515151" p-id="1670"></path><path d="M563.2 853.333333a17.066667 17.066667 0 0 0-17.066667 17.066667v51.2h-68.266666v-51.2a17.066667 17.066667 0 0 0-34.133334 0v136.533333a17.066667 17.066667 0 0 0 34.133334 0v-51.2h68.266666v51.2a17.066667 17.066667 0 0 0 34.133334 0v-136.533333a17.066667 17.066667 0 0 0-17.066667-17.066667M238.933333 529.066667v102.4a17.066667 17.066667 0 0 0 34.133334 0v-102.4a17.066667 17.066667 0 0 0-34.133334 0M785.066667 631.466667v-102.4a17.066667 17.066667 0 0 0-34.133334 0v102.4a17.066667 17.066667 0 0 0 34.133334 0M688.008533 403.3536a17.083733 17.083733 0 0 0 8.5504-31.8464l-88.695466-51.2a17.0496 17.0496 0 1 0-17.066667 29.559467l88.695467 51.2c2.696533 1.553067 5.632 2.286933 8.516266 2.286933" fill="#515151" p-id="1671"></path></svg>