<?xml version="1.0" standalone="no"?><!DOCTYPE svg PUBLIC "-//W3C//DTD SVG 1.1//EN" "http://www.w3.org/Graphics/SVG/1.1/DTD/svg11.dtd"><svg t="1571300678161" class="icon" viewBox="0 0 1024 1024" version="1.1" xmlns="http://www.w3.org/2000/svg" p-id="9580" xmlns:xlink="http://www.w3.org/1999/xlink" width="200" height="200"><defs><style type="text/css"></style></defs><path d="M201.4 302.8l127.9-127.9-154.7-51.6c-10.1-3.2-21.5 2-24.8 12.2-1.2 4.1-1.2 8.5 0 12.2l51.6 155.1z m-49.1 403.9c-7.7 7.7-7.7 19.9 0 27.6l110.8 110.8c7.7 7.7 19.9 7.7 27.6 0l34.5-34.5-55.2-55.2c-7.7-7.7-7.7-19.9 0-27.6s19.9-7.7 27.6 0l55.2 55.2 51.2-51.2-55.2-55.6c-7.7-7.7-7.7-19.9 0-27.6 7.7-7.7 19.9-7.7 27.6 0l55.2 55.2 52.4-52.4-138.5-138.3-193.2 193.6z m71.6-371l138.4-138.4 440.4 440.4L664.2 776 223.9 335.7z m606.4 329.6L691.8 803.8 708 820c38.2 38.2 100.3 38.2 138.4-0.4 38.2-38.2 38.2-99.9 0-138l-16.1-16.3z m-99.9-260.2l-55.2-55.2c-7.7-7.7-7.7-19.9 0-27.6s19.9-7.7 27.6 0l55.2 55.2 51.2-51.2-55.2-55.2c-7.7-7.7-7.7-19.9 0-27.6 7.7-7.7 19.9-7.7 27.6 0l55.6 55.2 34.5-34.5c7.7-7.7 7.7-19.9 0-27.6L760.9 125.8c-7.7-7.7-19.9-7.7-27.6 0L539.6 319.4 678 457.9l52.4-52.8z" fill="#1296db" p-id="9581"></path></svg>