<?xml version="1.0" standalone="no"?><!DOCTYPE svg PUBLIC "-//W3C//DTD SVG 1.1//EN" "http://www.w3.org/Graphics/SVG/1.1/DTD/svg11.dtd"><svg t="1560998905936" class="icon" style="" viewBox="0 0 1024 1024" version="1.1" xmlns="http://www.w3.org/2000/svg" p-id="8183" xmlns:xlink="http://www.w3.org/1999/xlink" width="200" height="200"><defs><style type="text/css"></style></defs><path d="M509.828339 137.326571c103.583407 0 197.055946 41.826739 265.024525 110.207945 67.664486 67.743325 109.655047 161.474907 109.655047 264.59347 0 103.461564-41.990561 196.808165-109.655047 264.911898l-2.379509 1.991456c-67.46278 66.76961-160.260579 107.879629-262.645016 107.87963-103.583407 0-197.397923-42.48305-264.902683-109.870063h-0.660406c-67.841618-68.104756-109.340714-161.451357-109.340714-264.911897 0-103.119587 41.499096-196.850145 109.340714-264.59347l2.351865-2.370295c68.169261-66.372342 160.944534-107.838674 263.211224-107.838674z m-41.493976 194.137873V470.662678H328.752172c-22.918649 0-41.99568 18.533348-41.995681 41.466332 0 22.8951 19.077031 41.788856 41.995681 41.788855h139.582191v138.874686c0 23.209433 18.575328 41.446878 41.493976 41.446878 23.100901 0 41.493977-18.238469 41.493977-41.446878V553.917865H690.838978c22.960628 0 42.01411-18.893756 42.01411-41.788855 0-22.932984-19.053482-41.466332-42.01411-41.466332H551.322316V331.464444c0-23.269842-18.393076-41.78476-41.493977-41.78476-22.918649 0-41.493977 18.514918-41.493976 41.78476z m247.638952-25.579727c-52.958421-52.620538-125.663494-84.628218-206.144976-84.628218-79.64292 0-152.034684 30.971507-204.650103 82.918329l-1.696578 2.028317C250.669653 358.417201 217.916585 431.899403 217.916585 512.127986c0 80.191723 32.752044 153.688259 85.565073 205.92484 52.620538 52.873438 125.367591 85.283504 206.346681 85.283504 79.287632 0 151.992705-31.711776 204.135089-83.269521l2.009887-2.015007c52.995281-52.236582 85.546643-125.733118 85.546643-205.92484 0-80.228582-32.550338-153.711808-85.546643-205.924841v-0.317404z" fill="#1296db" p-id="8184"></path></svg>