<?xml version="1.0" standalone="no"?><!DOCTYPE svg PUBLIC "-//W3C//DTD SVG 1.1//EN" "http://www.w3.org/Graphics/SVG/1.1/DTD/svg11.dtd"><svg t="1576823262936" class="icon" viewBox="0 0 1024 1024" version="1.1" xmlns="http://www.w3.org/2000/svg" p-id="2593" xmlns:xlink="http://www.w3.org/1999/xlink" width="200" height="200"><defs><style type="text/css"></style></defs><path d="M895.7 191.8H256.2l-19.3 192H128.5l63.7 445.1-0.2 2.5h640l-0.3-1.7 64-637.9z m-581.6 64H825l-36.2 360.1-20.7-103.5h-320L383.9 384h0.1l-0.1-0.2h-82.7l12.9-128z m-7.9 351.8V576H434v31.5h-96.6V657h96.9v29.8h-96.9v80.6h-31.2V607.6z m161.2 0V576H593v31.5h-47v159.9h-31.5V607.6h-47.1z m286.8-3.3v48.4c0 15.6-12.7 28.3-28.3 28.3h-67.4v86.4h-32.2V576h99.6c15.6 0 28.3 12.7 28.3 28.3z" p-id="2594"></path><path d="M716.3 604.5h-49.5c-4.4 0-8 3.6-8 8v30.1c0 4.4 3.6 8 8 8h49.5c4.4 0 8-3.6 8-8v-30.1c0-4.4-3.6-8-8-8z" p-id="2595"></path></svg>