<?xml version="1.0" standalone="no"?><!DOCTYPE svg PUBLIC "-//W3C//DTD SVG 1.1//EN" "http://www.w3.org/Graphics/SVG/1.1/DTD/svg11.dtd"><svg t="1554103445408" class="icon" style="" viewBox="0 0 1024 1024" version="1.1" xmlns="http://www.w3.org/2000/svg" p-id="4333" xmlns:xlink="http://www.w3.org/1999/xlink" width="64" height="64"><defs><style type="text/css"></style></defs><path d="M45.6 920.5v-817c0-34.4 27.2-62.3 60.6-62.3h661.2c33.4 0 60.6 28 60.6 62.3v284.2h40V103.5C868 46.4 822.9 0 767.4 0H106.2C50.7 0 5.6 46.4 5.6 103.5v817c0 57.1 45.1 103.5 100.6 103.5h540.4v-41.2H106.2c-33.4 0-60.6-27.9-60.6-62.3z" fill="#1296db" p-id="4334"></path><path d="M130.5 194.4h446.6v40H130.5zM130.5 348.5h565.2v40H130.5zM130.5 503.1h233.4v40H130.5zM942.7 494.4c-50.6-50.6-118-78.5-189.6-78.5s-139 27.9-189.6 78.5C512.9 545 485 612.4 485 684s27.9 139 78.5 189.6 118 78.5 189.6 78.5 139-27.9 189.6-78.5 78.5-118 78.5-189.6c0.1-71.6-27.8-139-78.5-189.6zM753.1 912.2c-125.8 0-228.2-102.4-228.2-228.2s102.4-228.2 228.2-228.2S981.3 558.2 981.3 684 878.9 912.2 753.1 912.2z" fill="#1296db" p-id="4335"></path><path d="M896.5 582.6c-7.5-7.1-19.3-6.8-26.4 0.7L714.6 746.9l-77.4-73.5c-7.5-7.1-19.3-6.8-26.4 0.7-7.1 7.5-6.8 19.3 0.7 26.4l87.1 82.7c2.4 2.2 5.2 3.8 8.3 4.6 2.9 1.8 6.2 2.7 9.7 2.7h0.5c5-0.1 9.6-2.2 13-5.8l167-175.7c3.4-3.6 5.2-8.3 5.1-13.3 0-5.1-2.1-9.7-5.7-13.1z" fill="#1296db" p-id="4336"></path></svg>