<?xml version="1.0" standalone="no"?><!DOCTYPE svg PUBLIC "-//W3C//DTD SVG 1.1//EN" "http://www.w3.org/Graphics/SVG/1.1/DTD/svg11.dtd"><svg t="1534146960617" class="icon" style="" viewBox="0 0 1024 1024" version="1.1" xmlns="http://www.w3.org/2000/svg" p-id="13959" xmlns:xlink="http://www.w3.org/1999/xlink" width="48" height="48"><defs><style type="text/css"></style></defs><path d="M791.837406 780.020266l0 38.10383 76.207659 0L868.045065 94.14417 296.482505 94.14417l0 76.208683 38.10383 0 0-38.104853 495.354901 0 0 647.772266L791.837406 780.020266 791.837406 780.020266zM171.936931 216.458937l0 707.975417c0 4.419659 3.505847 8.002254 7.849782 8.002254l555.826158 0c4.381797 0 7.887644-3.543709 7.887644-8.002254L743.500515 216.458937c0-4.420683-3.505847-8.002254-7.849782-8.002254L179.785689 208.456682C175.441754 208.456682 171.936931 212.000392 171.936931 216.458937L171.936931 216.458937zM210.04076 246.560512l495.354901 0 0 647.772266-495.354901 0L210.04076 246.560512 210.04076 246.560512z" p-id="13960" fill="#1296db"></path><path d="M558.157249 655.862525c0 37.810141-12.533454 68.289316-37.598316 91.437525-25.069979 23.152303-58.755172 34.726919-101.057627 34.726919-36.310997 0-63.375399-5.414313-81.195254-16.238846l0-49.965995c26.146497 16.98893 52.79646 25.482371 79.945797 25.482371 26.981515 0 48.756447-7.451716 65.330938-22.360264 16.571421-14.903431 24.858154-34.68394 24.858154-59.334363 0-24.647353-8.618285-43.845601-25.856901-57.585533-17.238616-13.740956-41.597397-20.611433-73.076342-20.611433-24.319895 0-46.218648 1.085728-65.705468 3.247974l14.240329-196.367343 180.877557 0 0 42.970674L399.265426 431.264211l-7.995091 109.675912 35.226293-1.499144c40.972157 0 73.158207 10.204409 96.560196 30.604018C546.455743 590.449723 558.157249 619.055225 558.157249 655.862525z" p-id="13961" fill="#1296db"></path></svg>