<?xml version="1.0" standalone="no"?><!DOCTYPE svg PUBLIC "-//W3C//DTD SVG 1.1//EN" "http://www.w3.org/Graphics/SVG/1.1/DTD/svg11.dtd"><svg t="1534154602722" class="icon" style="" viewBox="0 0 1024 1024" version="1.1" xmlns="http://www.w3.org/2000/svg" p-id="19189" xmlns:xlink="http://www.w3.org/1999/xlink" width="48" height="48"><defs><style type="text/css"></style></defs><path d="M791.837406 780.020266l0 38.10383 76.207659 0L868.045065 94.14417 296.482505 94.14417l0 76.208683 38.10383 0 0-38.104853 495.354901 0 0 647.772266L791.837406 780.020266 791.837406 780.020266zM171.936931 216.458937l0 707.975417c0 4.419659 3.505847 8.002254 7.849782 8.002254l555.826158 0c4.381797 0 7.887644-3.543709 7.887644-8.002254L743.500515 216.458937c0-4.420683-3.505847-8.002254-7.849782-8.002254L179.785689 208.456682C175.441754 208.456682 171.936931 212.000392 171.936931 216.458937L171.936931 216.458937zM210.04076 246.560512l495.354901 0 0 647.772266-495.354901 0L210.04076 246.560512 210.04076 246.560512z" p-id="19190" fill="#1296db"></path><path d="M527.178701 388.293537l0 255.576863 57.961086 0 0 40.472783-57.961086 0 0 90.938152-47.468105 0 0-90.938152L299.082726 684.343183l0-38.22458c32.142048-36.139082 64.456011-77.779458 96.934726-124.914988 32.477692-47.13246 59.291384-91.437525 80.44517-132.910079L527.178701 388.293537zM354.045525 643.8704l125.664048 0L479.709573 459.496206c-17.324574 31.147394-35.893488 61.333904-55.711859 90.563622C404.176272 579.289546 380.859217 610.561783 354.045525 643.8704z" p-id="19191" fill="#1296db"></path></svg>