<svg id="图层_1" data-name="图层 1" xmlns="http://www.w3.org/2000/svg" viewBox="0 0 16 16"><title>画板 21</title><rect x="0.5" y="0.5" width="15" height="15" rx="1.5" ry="1.5" style="fill:#fff"/><path d="M14,1a1,1,0,0,1,1,1V14a1,1,0,0,1-1,1H2a1,1,0,0,1-1-1V2A1,1,0,0,1,2,1H14m0-1H2A2,2,0,0,0,0,2V14a2,2,0,0,0,2,2H14a2,2,0,0,0,2-2V2a2,2,0,0,0-2-2Z" style="fill:gray"/><rect x="3.5" y="0.5" width="9" height="4" rx="0.5" ry="0.5" style="fill:#fff"/><path d="M12,1V4H4V1h8m0-1H4A1,1,0,0,0,3,1V4A1,1,0,0,0,4,5h8a1,1,0,0,0,1-1V1a1,1,0,0,0-1-1Z" style="fill:gray"/><rect x="5.35" y="1.37" width="5.29" height="2.07" rx="1" ry="1" style="fill:#de673e"/><polygon points="9 7 9 7 9 13 13 10 9 7" style="fill:#4d84ba"/><rect x="3" y="9" width="6" height="2" style="fill:#4d84ba"/></svg>