<svg id="图层_1" data-name="图层 1" xmlns="http://www.w3.org/2000/svg" viewBox="0 0 32 32"><title>画板 8</title><rect x="1" y="1" width="25" height="30" rx="2" ry="2" style="fill:#fff"/><rect x="4" y="4.83" width="10" height="5.03" style="fill:#eec97f"/><path d="M25,28c0,1.1,0,2-1,2H4c-1,0-2,0-2-1V4C2,3,2,2,3,2H24c1,0,1,1,1,2V19h1V3a2,2,0,0,0-2-2H3A2,2,0,0,0,1,3V29a2,2,0,0,0,2,2H24a2,2,0,0,0,2-2V28Z" style="fill:gray"/><rect x="4" y="13" width="19" height="1" rx="0.5" ry="0.5" style="fill:#b1b1b1"/><rect x="4" y="17" width="15" height="1" rx="0.48" ry="0.48" style="fill:#b1b1b1"/><rect x="4" y="25" width="8" height="1" rx="0.5" ry="0.5" style="fill:#b1b1b1"/><rect x="4" y="21" width="6" height="1" rx="0.5" ry="0.5" style="fill:#b1b1b1"/><circle cx="24" cy="24" r="7" style="fill:#4d84ba"/><polygon points="26.04 28.99 26.04 28.99 26.04 28.99 26.04 28.99" style="fill:#4d84ba"/><path d="M26.87,23.44H23.6V23l-.56.45q-.29-.59-.55-1H22V23q.57.45,1.1.94l-.66.82c-.14-.18-.28-.36-.44-.54V28H21V24.57a12.07,12.07,0,0,1-.75,1.54q-.13-.83-.25-1.49a10.43,10.43,0,0,0,.93-2.16h-.85V21.41H21V20h1v1.4h.82v.8A7.45,7.45,0,0,0,24.73,20H26l-.14.23A5.84,5.84,0,0,0,28,22.36l-.58,1q-.29-.19-.55-.39Zm-4.16,3.29h3a19.53,19.53,0,0,0,.76-2.85l1.06.26q-.28,1-.8,2.59h1.06v1H22.71Zm1-2.63a22.36,22.36,0,0,1,.8,2.14l-.94.32a18.17,18.17,0,0,0-.73-2.11Zm1.58-3a10.67,10.67,0,0,1-1.06,1.32h2.1A8.4,8.4,0,0,1,25.25,21.15Zm.09,2.57q.32,1.11.52,2.18l-.94.22q-.11-.8-.45-2.18Z" style="fill:#fff"/></svg>