<?xml version="1.0" encoding="iso-8859-1"?>
<!-- Generator: Adobe Illustrator 19.0.0, SVG Export Plug-In . SVG Version: 6.00 Build 0)  -->
<svg version="1.1" id="Layer_1" xmlns="http://www.w3.org/2000/svg" xmlns:xlink="http://www.w3.org/1999/xlink" x="0px" y="0px"
	 viewBox="0 0 489.8 489.8" style="enable-background:new 0 0 489.8 489.8;" xml:space="preserve">
<g>
	<g>
		<path id="XMLID_2049_" style="fill:#3C92CA;" d="M340,211.9H149.6c-6.6,0-12-5.4-12-12V68.1c0-6.6,5.4-12,12-12H340
			c6.6,0,12,5.4,12,12v131.8C352,206.5,346.6,211.9,340,211.9z"/>
		<path d="M25.3,442.7h91.2c14,0,25.3-11.4,25.3-25.3V368c0-14-11.4-25.3-25.3-25.3H80V300c0-7.5,6.1-13.7,13.7-13.7h142.1v56.4
			h-36.5c-14,0-25.3,11.4-25.3,25.3v49.4c0,14,11.4,25.3,25.3,25.3h91.2c14,0,25.3-11.4,25.3-25.3V368c0-14-11.4-25.3-25.3-25.3H254
			v-56.4h142.1c7.5,0,13.7,6.1,13.7,13.7v42.7h-36.5c-14,0-25.3,11.4-25.3,25.3v49.4c0,14,11.4,25.3,25.3,25.3h91.2
			c14,0,25.3-11.4,25.3-25.3V368c0-14-11.4-25.3-25.3-25.3H428V300c0-17.5-14.3-31.8-31.8-31.8H253.9v-47.3h74
			c18.3,0,33.2-14.9,33.2-33.2V80.3c0-18.3-14.9-33.2-33.2-33.2H161.8c-18.3,0-33.2,14.9-33.2,33.2v107.4
			c0,18.3,14.9,33.2,33.2,33.2h74v47.2H93.7c-17.5,0-31.8,14.3-31.8,31.8v42.7H25.3C11.3,342.6,0,354,0,367.9v49.4
			C0,431.4,11.4,442.7,25.3,442.7z M297.6,368v49.4c0,4-3.2,7.2-7.2,7.2h-91.2c-4,0-7.2-3.2-7.2-7.2V368c0-4,3.2-7.2,7.2-7.2h91.2
			C294.4,360.8,297.6,364.1,297.6,368z M471.5,368v49.4c0,4-3.2,7.2-7.2,7.2h-91.2c-4,0-7.2-3.2-7.2-7.2V368c0-4,3.2-7.2,7.2-7.2
			h91.2C468.2,360.8,471.5,364.1,471.5,368z M146.7,187.7V80.3c0-8.3,6.8-15.1,15.1-15.1h166c8.3,0,15.1,6.8,15.1,15.1v107.4
			c0,8.3-6.8,15.1-15.1,15.1h-166C153.4,202.8,146.7,196,146.7,187.7z M18.1,368c0-4,3.2-7.2,7.2-7.2h91.2c4,0,7.2,3.2,7.2,7.2v49.4
			c0,4-3.2,7.2-7.2,7.2H25.3c-4,0-7.2-3.2-7.2-7.2C18.1,417.4,18.1,368,18.1,368z"/>
		<path d="M197.1,122.1h95.4c5,0,9.1-4.1,9.1-9.1s-4.1-9.1-9.1-9.1h-95.4c-5,0-9.1,4.1-9.1,9.1S192.1,122.1,197.1,122.1z"/>
		<path d="M301.6,154.9c0-5-4.1-9.1-9.1-9.1h-95.4c-5,0-9.1,4.1-9.1,9.1s4.1,9.1,9.1,9.1h95.4C297.5,164,301.6,159.9,301.6,154.9z"
			/>
	</g>
</g>
<g>
</g>
<g>
</g>
<g>
</g>
<g>
</g>
<g>
</g>
<g>
</g>
<g>
</g>
<g>
</g>
<g>
</g>
<g>
</g>
<g>
</g>
<g>
</g>
<g>
</g>
<g>
</g>
<g>
</g>
</svg>
