<?xml version="1.0" standalone="no"?><!DOCTYPE svg PUBLIC "-//W3C//DTD SVG 1.1//EN" "http://www.w3.org/Graphics/SVG/1.1/DTD/svg11.dtd"><svg t="1585037418113" class="icon" viewBox="0 0 1024 1024" version="1.1" xmlns="http://www.w3.org/2000/svg" p-id="6095" xmlns:xlink="http://www.w3.org/1999/xlink" width="200" height="200"><defs><style type="text/css"></style></defs><path d="M887.74 353.5c-20.511-48.423-49.759-91.872-87.139-129.251s-80.828-66.628-129.251-87.139c-50.123-21.238-103.402-31.918-158.257-31.918s-108.134 10.801-158.257 31.918c-48.423 20.511-91.872 49.759-129.251 87.139-37.379 37.379-66.628 80.828-87.139 129.251-21.238 50.123-31.918 103.402-31.918 158.257s10.801 108.134 31.918 158.257c20.511 48.423 49.759 91.872 87.139 129.251 37.379 37.379 80.828 66.628 129.251 87.139 50.123 21.238 103.402 31.918 158.257 31.918s108.134-10.801 158.257-31.918c48.423-20.511 91.872-49.759 129.251-87.139 37.379-37.379 66.628-80.828 87.139-129.251 21.238-50.123 31.918-103.402 31.918-158.257s-10.801-108.013-31.918-158.257zM513.092 860.069c-192.117 0-348.311-156.194-348.311-348.311s156.194-348.311 348.311-348.311 348.311 156.194 348.311 348.311-156.194 348.311-348.311 348.311z" fill="#1296db" p-id="6096"></path><path d="M618.678 324.13c-19.419 0-35.195 15.899-35.195 35.195v303.408c0 19.419 15.777 35.195 35.195 35.195 19.297 0 35.195-15.777 35.195-35.195v-303.408c0-19.297-15.777-35.195-35.195-35.195zM407.506 324.13c-19.419 0-35.195 15.899-35.195 35.195v303.408c0 19.419 15.777 35.195 35.195 35.195 19.297 0 35.195-15.777 35.195-35.195v-303.408c0-19.297-15.777-35.195-35.195-35.195z" fill="#1296db" p-id="6097"></path></svg>