<?xml version="1.0" standalone="no"?><!DOCTYPE svg PUBLIC "-//W3C//DTD SVG 1.1//EN" "http://www.w3.org/Graphics/SVG/1.1/DTD/svg11.dtd"><svg t="1534745131617" class="icon" style="" viewBox="0 0 1024 1024" version="1.1" xmlns="http://www.w3.org/2000/svg" p-id="8658" xmlns:xlink="http://www.w3.org/1999/xlink" width="64" height="64"><defs><style type="text/css"></style></defs><path d="M888.6 767.711V462.284h-54.177v0.902H538.48V295.478a107.703 107.703 0 0 1-27.089 3.444c-9.357 0-18.434-1.198-27.089-3.444v167.708H184.748v-0.902h-54.177v306.192a92.44 92.44 0 0 1 26.216-3.777c9.747 0 19.14 1.513 27.962 4.31V517.363h299.555v251.373a92.417 92.417 0 0 1 27.089-4.037 92.427 92.427 0 0 1 27.089 4.037V517.363h295.943v252.564a92.274 92.274 0 0 1 30.7-5.228c8.11 0 15.978 1.049 23.475 3.012z" fill="#809091" p-id="8659"></path><path d="M538.48 295.478c46.271-12.009 80.438-54.055 80.438-104.083 0-59.385-48.141-107.526-107.526-107.526S403.866 132.01 403.866 191.395c0 50.028 34.166 92.074 80.438 104.083a107.703 107.703 0 0 0 27.089 3.444c9.355 0 18.432-1.197 27.087-3.444z" fill="#D73949" p-id="8660"></path><path d="M130.571 768.477c-38.278 11.302-66.216 46.713-66.216 88.654 0 51.049 41.383 92.431 92.431 92.431 51.048 0 92.431-41.383 92.431-92.431 0-41.301-27.09-76.271-64.469-88.121a92.368 92.368 0 0 0-27.962-4.31 92.404 92.404 0 0 0-26.215 3.777zM484.303 768.736c-37.83 11.579-65.343 46.772-65.343 88.394 0 51.049 41.383 92.431 92.431 92.431 51.048 0 92.431-41.383 92.431-92.431 0-41.622-27.513-76.815-65.343-88.394a92.422 92.422 0 0 0-27.089-4.037 92.413 92.413 0 0 0-27.087 4.037zM888.6 767.711a92.57 92.57 0 0 0-23.477-3.012 92.27 92.27 0 0 0-30.7 5.228c-35.956 12.659-61.731 46.918-61.731 87.203 0 51.049 41.383 92.431 92.431 92.431s92.431-41.383 92.431-92.431c0-42.935-29.276-79.03-68.954-89.419z" fill="#0CA294" p-id="8661"></path></svg>