<?xml version="1.0" standalone="no"?><!DOCTYPE svg PUBLIC "-//W3C//DTD SVG 1.1//EN" "http://www.w3.org/Graphics/SVG/1.1/DTD/svg11.dtd"><svg t="1531981179055" class="icon" style="" viewBox="0 0 1024 1024" version="1.1" xmlns="http://www.w3.org/2000/svg" p-id="3668" xmlns:xlink="http://www.w3.org/1999/xlink" width="64" height="64"><defs><style type="text/css"></style></defs><path d="M834.136 146H189.864c-25.416 0-46.016 25.272-46.016 56.464v588.624L223.648 880h610.488c25.416 0 46.016-25.272 46.016-56.464V202.464c0-31.192-20.608-56.464-46.016-56.464z" fill="#3678BF" p-id="3669"></path><path d="M172 207.216h40.664V264H172z" fill="#707272" p-id="3670"></path><path d="M174 230.952h36.664v30.76H174z" fill="#A5A5A5" p-id="3671"></path><path d="M258 356.768v157.048c0 14.456 8.64 26.176 19.28 26.176h501.432c10.656 0 19.288-11.728 19.288-26.176V356.768h-540zM782.008 866.36V660.344c0-18.96-7.856-34.344-17.536-34.344H308.456c-9.688 0-17.544 15.384-17.544 34.344v206.016h491.096z" fill="#245B8E" p-id="3672"></path><path d="M680 866.36V668.912c0-18.168-6.128-32.912-13.656-32.912H311.232c-7.544 0-13.664 14.744-13.664 32.912v197.448H680z" fill="#EAEAEA" p-id="3673"></path><path d="M436.416 818V677.432c0-12.936-1.624-23.432-3.608-23.432H338.992c-1.992 0-3.608 10.496-3.608 23.432v140.568h101.032z" fill="#A5A5A5" p-id="3674"></path><path d="M432.808 654h-22.392v137.336h-75.032v26.664h101.032V677.432c0-12.936-1.616-23.432-3.608-23.432z" fill="#878787" p-id="3675"></path><path d="M296.576 364.768V489.36c0 17.192 17.256 31.16 38.56 31.16h385.72c21.296 0 38.568-13.96 38.568-31.16V364.768H296.576z" fill="#EAEAEA" p-id="3676"></path><path d="M258 153.552v224.944c0 20.712 8.64 37.504 19.28 37.504h501.432c10.656 0 19.288-16.792 19.288-37.504V153.552h-540z" fill="#245B8E" p-id="3677"></path><path d="M296.568 153.552v256.344c0 35.384 17.256 64.096 38.56 64.096h385.712c21.304 0 38.576-28.712 38.576-64.096V153.552H296.568z" fill="#EAEAEA" p-id="3678"></path><path d="M324 249.496h408v6.72h-408zM320.912 299.216h408v6.72h-408zM320.912 348.936h408v6.72h-408zM320.912 398.664h408v6.72h-408zM320.912 448.384h408v6.72h-408z" fill="#ACB8BC" p-id="3679"></path></svg>