<?xml version="1.0" standalone="no"?><!DOCTYPE svg PUBLIC "-//W3C//DTD SVG 1.1//EN" "http://www.w3.org/Graphics/SVG/1.1/DTD/svg11.dtd"><svg t="1602425202414" class="icon" viewBox="0 0 1024 1024" version="1.1" xmlns="http://www.w3.org/2000/svg" p-id="6534" xmlns:xlink="http://www.w3.org/1999/xlink" width="200" height="200"><defs><style type="text/css"></style></defs><path d="M512 70.62069h335.536552C847.501241 70.62069 847.448276 953.344 847.448276 953.344L176.498759 953.37931C176.569379 953.37931 176.551724 512 176.551724 512l-0.052965-226.392276L344.275862 70.62069H512zM298.743172 13.629793l-185.37931 238.344828A35.310345 35.310345 0 0 0 105.931034 273.655172V953.255724A70.656 70.656 0 0 0 176.498759 1024h671.002482A70.638345 70.638345 0 0 0 918.068966 953.344V70.656A70.550069 70.550069 0 0 0 847.536552 0H326.62069a35.310345 35.310345 0 0 0-27.877518 13.629793zM317.793103 247.313655C317.793103 247.207724 176.498759 247.172414 176.498759 247.172414v70.620689H317.793103c38.982621 0 70.62069-31.532138 70.62069-70.479448V70.62069h-70.62069v176.692965z m137.286621 492.402759a35.310345 35.310345 0 0 0 69.08469 14.689103l62.411034-293.570207a35.310345 35.310345 0 0 0-69.084689-14.689103l-62.411035 293.570207z m276.462345-117.142069a26.182621 26.182621 0 0 1 0-37.040552l-103.282759 103.265104a35.310345 35.310345 0 0 0 49.964138 49.928827l103.247449-103.247448a44.438069 44.438069 0 0 0 0-62.852414l-103.265104-103.247448a35.310345 35.310345 0 0 0-49.928827 49.928827l103.265103 103.282759z m-471.357793-49.928828a44.438069 44.438069 0 0 0 0 62.834759l103.265103 103.247448a35.310345 35.310345 0 0 0 49.928828-49.928827l-103.265104-103.265104c10.24 10.24 10.24 26.800552 0 37.040552l103.282759-103.265104a35.310345 35.310345 0 0 0-49.964138-49.928827l-103.247448 103.265103z" p-id="6535" fill="#1296db"></path></svg>