<?xml version="1.0" standalone="no"?><!DOCTYPE svg PUBLIC "-//W3C//DTD SVG 1.1//EN" "http://www.w3.org/Graphics/SVG/1.1/DTD/svg11.dtd"><svg t="1602600941570" class="icon" viewBox="0 0 1024 1024" version="1.1" xmlns="http://www.w3.org/2000/svg" p-id="6118" xmlns:xlink="http://www.w3.org/1999/xlink" width="200" height="200"><defs><style type="text/css"></style></defs><path d="M839.566222 774.826667l170.894222 170.922666a45.539556 45.539556 0 0 1 0 64.796445 46.136889 46.136889 0 0 1-32.398222 13.454222 46.136889 46.136889 0 0 1-32.398222-13.454222L774.826667 839.68a473.713778 473.713778 0 0 1-636.017778-30.833778A473.827556 473.827556 0 0 1 473.770667 0C735.402667 0 947.484444 212.110222 947.484444 473.799111c0 112.213333-39.594667 217.941333-107.946666 301.056zM473.770667 91.733333c-210.887111 0.341333-381.724444 171.207111-382.065778 382.094223 0 211.000889 171.064889 382.094222 382.065778 382.094222s382.037333-171.093333 382.037333-382.094222c0-211.029333-171.036444-382.094222-382.037333-382.094223z" p-id="6119" fill="#1296db"></path></svg>