<?xml version="1.0" standalone="no"?><!DOCTYPE svg PUBLIC "-//W3C//DTD SVG 1.1//EN" "http://www.w3.org/Graphics/SVG/1.1/DTD/svg11.dtd"><svg t="1563520045899" class="icon" viewBox="0 0 1024 1024" version="1.1" xmlns="http://www.w3.org/2000/svg" p-id="2028" xmlns:xlink="http://www.w3.org/1999/xlink" width="32" height="32"><defs><style type="text/css"></style></defs><path d="M131.584 773.12c0 46.08 27.136 110.08 157.184 151.04 77.824 24.576 168.96 33.28 223.744 33.28 96.768 0 187.904-16.384 257.536-46.08 79.36-33.792 122.88-82.944 122.88-137.728 0-38.4-15.36-73.728-44.544-102.4-28.672-28.16-69.12-48.64-120.832-61.44l-17.92 72.192c69.12 17.408 109.056 50.688 109.056 91.648 0 22.528-29.696 49.152-77.824 69.632-60.416 25.6-141.312 39.936-228.352 39.936-49.152 0-131.584-7.68-201.216-29.696-39.424-12.288-104.96-38.912-104.96-79.872 0-38.4 43.008-74.24 109.568-92.16l-18.944-71.68c-48.64 12.8-89.6 34.304-118.272 61.952-31.232 28.672-47.104 64-47.104 101.376z" fill="#4D84BA" p-id="2029"></path><path d="M758.272 525.824c28.16-44.544 44.544-97.28 44.544-153.6 0-160.256-130.048-290.304-290.304-290.304S221.696 211.968 221.696 372.224c0 56.32 16.384 109.056 44.544 153.6l246.272 282.112 245.76-282.112z m-464.384-153.6c0-120.32 97.792-218.112 218.112-218.112s218.112 97.792 218.112 218.112c0 31.744-7.168 61.952-19.456 89.6L512 699.392 313.856 461.824c-12.288-27.648-19.968-57.344-19.968-89.6z" fill="#4D84BA" p-id="2030"></path><path d="M621.056 372.224c0-60.416-48.64-109.056-109.056-109.056-59.904 0-109.056 48.64-109.056 109.056S452.096 481.28 512 481.28c60.416 0 109.056-48.64 109.056-109.056zM512 408.576c-19.968 0-36.352-16.384-36.352-36.352 0-19.968 16.384-36.352 36.352-36.352s36.352 16.384 36.352 36.352c0 20.48-16.384 36.352-36.352 36.352z" fill="#4D84BA" p-id="2031"></path></svg>