<?xml version="1.0" standalone="no"?><!DOCTYPE svg PUBLIC "-//W3C//DTD SVG 1.1//EN" "http://www.w3.org/Graphics/SVG/1.1/DTD/svg11.dtd"><svg t="1602425717807" class="icon" viewBox="0 0 1026 1024" version="1.1" xmlns="http://www.w3.org/2000/svg" p-id="12273" xmlns:xlink="http://www.w3.org/1999/xlink" width="200.390625" height="200"><defs><style type="text/css"></style></defs><path d="M986.746539 424.463427l-42.140974-42.140974a122.147749 122.147749 0 0 1-36.033586-86.114162v-61.073875a122.147749 122.147749 0 0 0-122.147748-122.147748h-61.073875a122.147749 122.147749 0 0 1-86.114162-36.033586L598.316698 36.033586a122.147749 122.147749 0 0 0-172.839065 0l-42.140973 42.140973a122.147749 122.147749 0 0 1-86.114163 36.033586h-61.073874a122.147749 122.147749 0 0 0-122.147749 122.147749v61.073874a122.147749 122.147749 0 0 1-36.033586 86.114163l-42.140973 42.140973a122.147749 122.147749 0 0 0 0 172.839065l42.140973 42.140973a122.147749 122.147749 0 0 1 36.033586 86.114163v61.073874a122.147749 122.147749 0 0 0 122.147749 122.147749h61.073874a122.147749 122.147749 0 0 1 86.114163 36.033585l42.140973 42.140974a122.147749 122.147749 0 0 0 172.839065 0l42.140973-42.140974a122.147749 122.147749 0 0 1 86.114163-36.033585h61.073874a122.147749 122.147749 0 0 0 122.147749-122.147749v-61.073874a122.147749 122.147749 0 0 1 36.033586-86.114163l42.140973-42.140973a122.147749 122.147749 0 0 0-1.221477-174.060542z m-43.362451 129.476613l-42.140973 42.140974a183.221623 183.221623 0 0 0-53.74501 129.476613v61.073874a61.073874 61.073874 0 0 1-61.073874 61.073875h-61.073875a183.221623 183.221623 0 0 0-129.476613 53.745009l-42.140973 42.140974a61.073874 61.073874 0 0 1-86.114163 0L428.531327 900.228908a183.221623 183.221623 0 0 0-129.476613-53.74501h-61.073875a61.073874 61.073874 0 0 1-61.073874-61.073874v-61.073874A183.221623 183.221623 0 0 0 123.161955 596.081014l-42.140973-42.140974a61.073874 61.073874 0 0 1 0-86.114163L123.161955 427.51712a183.221623 183.221623 0 0 0 53.74501-129.476613v-61.073875a61.073874 61.073874 0 0 1 61.073874-61.073874h61.073875A183.221623 183.221623 0 0 0 428.531327 122.147749l42.140973-42.140974a61.073874 61.073874 0 0 1 86.114163 0l40.308757 42.140974a183.221623 183.221623 0 0 0 129.476614 53.745009h61.073874a61.073874 61.073874 0 0 1 61.073875 61.073874v61.073875A183.221623 183.221623 0 0 0 901.243115 427.51712l42.140973 42.140974a61.073874 61.073874 0 0 1 0 86.114162z" fill="#1296db" p-id="12274"></path><path d="M511.591796 296.819029a213.75856 213.75856 0 1 0 213.75856 213.75856 213.75856 213.75856 0 0 0-213.75856-213.75856z m0 366.443246a152.684686 152.684686 0 1 1 152.684686-152.684686 152.684686 152.684686 0 0 1-152.684686 152.684686z" fill="#1296db" p-id="12275"></path></svg>