<?xml version="1.0" standalone="no"?><!DOCTYPE svg PUBLIC "-//W3C//DTD SVG 1.1//EN" "http://www.w3.org/Graphics/SVG/1.1/DTD/svg11.dtd"><svg t="1537158163990" class="icon" style="" viewBox="0 0 1024 1024" version="1.1" xmlns="http://www.w3.org/2000/svg" p-id="4054" xmlns:xlink="http://www.w3.org/1999/xlink" width="64" height="64"><defs><style type="text/css"></style></defs><path d="M946.176 173.056h-118.784V148.48a90.624 90.624 0 1 0-181.248 0v24.576H377.856V148.48a90.624 90.624 0 1 0-181.248 0v24.576H77.824a38.4 38.4 0 0 0-38.4 38.4v729.6a38.4 38.4 0 0 0 38.4 38.4h870.4a38.4 38.4 0 0 0 38.4-38.4V211.456a38.4 38.4 0 0 0-40.448-38.4z m-248.832-24.576a39.424 39.424 0 1 1 78.848 0v121.344a39.424 39.424 0 0 1-78.848 0V148.48z m-449.536 0a39.424 39.424 0 1 1 78.848 0v121.344a39.424 39.424 0 0 1-78.848 0V148.48z m659.968 754.176H116.224V249.856h80.384v20.48a90.624 90.624 0 0 0 181.248 0v-20.48h268.288v20.48a90.624 90.624 0 0 0 181.248 0v-20.48h80.384v652.8z" fill="#1F88D9" p-id="4055"></path><path d="M662.528 446.464l-196.608 204.8-102.4-106.496a38.4 38.4 0 1 0-56.32 51.2l132.096 134.656a38.4 38.4 0 0 0 27.136 11.264 38.4 38.4 0 0 0 27.648-11.776L716.8 499.712a38.4 38.4 0 0 0-54.272-53.248z" fill="#1F88D9" p-id="4056"></path></svg>