<?xml version="1.0" standalone="no"?><!DOCTYPE svg PUBLIC "-//W3C//DTD SVG 1.1//EN" "http://www.w3.org/Graphics/SVG/1.1/DTD/svg11.dtd"><svg t="1545221160306" class="icon" style="" viewBox="0 0 1024 1024" version="1.1" xmlns="http://www.w3.org/2000/svg" p-id="5471" xmlns:xlink="http://www.w3.org/1999/xlink" width="32" height="32"><defs><style type="text/css"></style></defs><path d="M768 752c-12.288 0-24.576-4.672-33.92-14.08L512 515.904l-222.08 222.08c-18.752 18.752-49.152 18.752-67.904 0s-18.752-49.152 0-67.904l256-256c18.752-18.752 49.152-18.752 67.904 0l256 256c18.752 18.752 18.752 49.152 0 67.904C792.576 747.328 780.288 752 768 752z" p-id="5472" fill="#1296db"></path><path d="M832 256c0 35.328-28.608 64-64 64L256 320C220.608 320 192 291.328 192 256l0 0c0-35.328 28.608-64 64-64l512 0C803.392 192 832 220.672 832 256L832 256z" p-id="5473" fill="#1296db"></path></svg>