<?xml version="1.0" standalone="no"?><!DOCTYPE svg PUBLIC "-//W3C//DTD SVG 1.1//EN" "http://www.w3.org/Graphics/SVG/1.1/DTD/svg11.dtd"><svg t="1602605890691" class="icon" viewBox="0 0 1024 1024" version="1.1" xmlns="http://www.w3.org/2000/svg" p-id="34279" xmlns:xlink="http://www.w3.org/1999/xlink" width="200" height="200"><defs><style type="text/css"></style></defs><path d="M879 47h-734a40 40 0 0 0-40 40v850a40 40 0 0 0 40 40h734a40 40 0 0 0 40-40V87a40 40 0 0 0-40-40zM428.792 789.944h-42.184v106.248h-47.656V789.944h-42.184v-37.504H428.8v37.504z m159.376 106.248H535.04l-22.656-40.624-23.44 40.624h-53.128l50.784-75-46.096-68.752h53.128l20.312 36.72 21.096-36.72h53.128l-49.216 68.752 49.216 75z m139.848-106.248h-42.184v106.248h-47.656V789.944h-42.184v-37.504h132.032v37.504zM864 688.64H160v-584h704v584z" fill="#1C63A7" p-id="34280"></path><path d="M259 257.784h506v40h-506zM259 378.928h506v40h-506zM259 500.072h506v40h-506z" fill="#1C63A7" p-id="34281"></path></svg>