<?xml version="1.0" standalone="no"?><!DOCTYPE svg PUBLIC "-//W3C//DTD SVG 1.1//EN" "http://www.w3.org/Graphics/SVG/1.1/DTD/svg11.dtd"><svg t="1602601444532" class="icon" viewBox="0 0 1024 1024" version="1.1" xmlns="http://www.w3.org/2000/svg" p-id="9745" xmlns:xlink="http://www.w3.org/1999/xlink" width="200" height="200"><defs><style type="text/css"></style></defs><path d="M800 64A160 160 0 0 1 960 224v576a160 160 0 0 1-160 160h-576A160 160 0 0 1 64 800v-576A160 160 0 0 1 224 64z m0 64h-576A96 96 0 0 0 128 224v576A96 96 0 0 0 224 896h576a96 96 0 0 0 96-96v-576A96 96 0 0 0 800 128zM320 256a32 32 0 0 1 32 32v448a32 32 0 1 1-64 0v-448A32 32 0 0 1 320 256z m256 0a32 32 0 0 1 32 32v448a32 32 0 1 1-64 0v-448A32 32 0 0 1 576 256zM448 384a32 32 0 0 1 32 32v192a32 32 0 0 1-64 0v-192A32 32 0 0 1 448 384z m256 0a32 32 0 0 1 32 32v192a32 32 0 1 1-64 0v-192A32 32 0 0 1 704 384z" p-id="9746" fill="#1296db"></path></svg>