<?xml version="1.0" encoding="utf-8"?>
<!-- Generator: Adobe Illustrator 15.0.0, SVG Export Plug-In . SVG Version: 6.00 Build 0)  -->
<!DOCTYPE svg PUBLIC "-//W3C//DTD SVG 1.1//EN" "http://www.w3.org/Graphics/SVG/1.1/DTD/svg11.dtd">
<svg version="1.1" id="图层_1" xmlns="http://www.w3.org/2000/svg" xmlns:xlink="http://www.w3.org/1999/xlink" x="0px" y="0px"
	 width="22px" height="22px" viewBox="0 0 22 22" enable-background="new 0 0 22 22" xml:space="preserve">
<path fill-rule="evenodd" clip-rule="evenodd" fill="#F7B25B" d="M17.502,7l-1-0.002c-0.275,0-0.499-0.223-0.5-0.496L16,5.495
	C16,5.221,16.224,5,16.5,5l0.998,0.002c0.276,0,0.5,0.222,0.5,0.496L18,6.504C18,6.778,17.777,7,17.502,7z M14.609,16.924
	l-0.925,0.01c-0.245,0.066-0.497-0.079-0.562-0.324l-1.361-3.681c-0.064,0.04-0.135,0.068-0.214,0.069L7.451,13
	c-0.061,0-0.118-0.015-0.17-0.039l-1.322,3.65C5.893,16.855,5.64,17,5.395,16.934l-1.003-0.008C4.146,16.861,4,16.61,4.066,16.366
	L8.071,5.388C8.137,5.145,8.39,5,8.635,5.064l0.975,0.008c0,0,0,0,0,0l0.81-0.007c0.245-0.066,0.497,0.08,0.563,0.325l3.953,10.971
	C15,16.607,14.855,16.858,14.609,16.924z M9.504,6.822L7.99,11l3.059,0L9.504,6.822z M16.5,9l0.998,0.001
	c0.276,0.001,0.5,0.198,0.5,0.441L18,16.56c0,0.243-0.223,0.44-0.498,0.439l-1-0.001c-0.275-0.001-0.499-0.198-0.5-0.44L16,9.439
	C16,9.196,16.224,9,16.5,9z"/>
</svg>
