<?xml version="1.0" encoding="utf-8"?>
<!-- Generator: Adobe Illustrator 17.0.0, SVG Export Plug-In . SVG Version: 6.00 Build 0)  -->
<!DOCTYPE svg PUBLIC "-//W3C//DTD SVG 1.1//EN" "http://www.w3.org/Graphics/SVG/1.1/DTD/svg11.dtd">
<svg version="1.1" id="图层_1" xmlns="http://www.w3.org/2000/svg" xmlns:xlink="http://www.w3.org/1999/xlink" x="0px" y="0px"
	 width="10px" height="10px" viewBox="0 0 10 10" enable-background="new 0 0 10 10" xml:space="preserve">
<g>
	<g>
		<path fill-rule="evenodd" clip-rule="evenodd" fill="#4196FF" d="M7.918,6.24l0.078-0.078l-3.16-3.159L4.5,3.338L4.164,3.002
			l-3.16,3.159L1.082,6.24C1.035,6.316,1,6.401,1,6.498c0,0.276,0.224,0.5,0.5,0.5c0.097,0,0.182-0.035,0.258-0.082l0.078,0.078
			L4.5,4.33l2.664,2.664l0.078-0.078C7.318,6.963,7.403,6.998,7.5,6.998c0.276,0,0.5-0.224,0.5-0.5C8,6.401,7.965,6.316,7.918,6.24z
			"/>
	</g>
</g>
</svg>
