<?xml version="1.0" encoding="utf-8"?>
<!-- Generator: Adobe Illustrator 17.0.0, SVG Export Plug-In . SVG Version: 6.00 Build 0)  -->
<!DOCTYPE svg PUBLIC "-//W3C//DTD SVG 1.1//EN" "http://www.w3.org/Graphics/SVG/1.1/DTD/svg11.dtd">
<svg version="1.1" id="图层_1" xmlns="http://www.w3.org/2000/svg" xmlns:xlink="http://www.w3.org/1999/xlink" x="0px" y="0px"
	 width="242px" height="34px" viewBox="0 0 242 34" enable-background="new 0 0 242 34" xml:space="preserve">
<g>
	<path fill-rule="evenodd" clip-rule="evenodd" fill="#FAFBFC" d="M2,33.5c-0.827,0-1.5-0.673-1.5-1.5V2c0-0.827,0.673-1.5,1.5-1.5
		h238c0.827,0,1.5,0.673,1.5,1.5v30c0,0.827-0.673,1.5-1.5,1.5H2z"/>
	<path fill="#4196FF" d="M240,1c0.551,0,1,0.449,1,1v30c0,0.551-0.449,1-1,1H2c-0.551,0-1-0.449-1-1V2c0-0.551,0.449-1,1-1H240
		 M240,0H2C0.895,0,0,0.895,0,2v30c0,1.105,0.895,2,2,2h238c1.105,0,2-0.895,2-2V2C242,0.895,241.105,0,240,0L240,0z"/>
</g>
</svg>
