<?xml version="1.0" encoding="utf-8"?>
<!-- Generator: Adobe Illustrator 15.0.0, SVG Export Plug-In . SVG Version: 6.00 Build 0)  -->
<!DOCTYPE svg PUBLIC "-//W3C//DTD SVG 1.1//EN" "http://www.w3.org/Graphics/SVG/1.1/DTD/svg11.dtd">
<svg version="1.1" id="图层_1" xmlns="http://www.w3.org/2000/svg" xmlns:xlink="http://www.w3.org/1999/xlink" x="0px" y="0px"
	 width="15px" height="15px" viewBox="0 0 15 15" enable-background="new 0 0 15 15" xml:space="preserve">
<path fill-rule="evenodd" clip-rule="evenodd" fill="#757575" d="M7.489,14.002c-3.59,0-6.5-2.91-6.5-6.5s2.91-6.5,6.5-6.5
	c3.589,0,6.5,2.91,6.5,6.5S11.078,14.002,7.489,14.002z M7.489,2.002c-3.038,0-5.5,2.462-5.5,5.5c0,3.037,2.462,5.5,5.5,5.5
	c3.037,0,5.5-2.463,5.5-5.5C12.988,4.464,10.525,2.002,7.489,2.002z M6.989,8.002v-1v-3h1v3h3v1h-3H6.989z"/>
</svg>
