<?xml version="1.0" encoding="utf-8"?>
<!-- Generator: Adobe Illustrator 17.0.0, SVG Export Plug-In . SVG Version: 6.00 Build 0)  -->
<!DOCTYPE svg PUBLIC "-//W3C//DTD SVG 1.1//EN" "http://www.w3.org/Graphics/SVG/1.1/DTD/svg11.dtd">
<svg version="1.1" id="图层_1" xmlns="http://www.w3.org/2000/svg" xmlns:xlink="http://www.w3.org/1999/xlink" x="0px" y="0px"
	 width="28px" height="28px" viewBox="0 0 28 28" enable-background="new 0 0 28 28" xml:space="preserve">
<g>
	<path fill-rule="evenodd" clip-rule="evenodd" fill="#DCDEE0" d="M14,0c7.732,0,14,6.268,14,14s-6.268,14-14,14S0,21.732,0,14
		S6.268,0,14,0z"/>
</g>
<g>
	<path fill-rule="evenodd" clip-rule="evenodd" fill="#FFFFFF" d="M7.009,21c0.195-2.931,2.648-5.004,5.653-5.004h2.678
		c3.005,0,5.458,2.073,5.653,5.004H7.009z M14.002,13.978c-2.211,0-4.003-1.793-4.003-4.003c0-2.211,1.792-4.004,4.003-4.004
		s4.003,1.793,4.003,4.004C18.005,12.186,16.213,13.978,14.002,13.978z"/>
</g>
</svg>
