<?xml version="1.0" encoding="utf-8"?>
<!-- Generator: Adobe Illustrator 18.1.0, SVG Export Plug-In . SVG Version: 6.00 Build 0)  -->
<svg version="1.1" id="图层_1" xmlns="http://www.w3.org/2000/svg" xmlns:xlink="http://www.w3.org/1999/xlink" x="0px" y="0px"
	 viewBox="0 0 22 22" enable-background="new 0 0 22 22" xml:space="preserve">
<rect x="1" y="5" fill-rule="evenodd" clip-rule="evenodd" fill="#FFFFFF" width="20" height="12"/>
<path fill-rule="evenodd" clip-rule="evenodd" fill="#B8B8B8" d="M20,18H2c-1.1,0-2-0.9-2-2V6c0-1.1,0.9-2,2-2h18c1.1,0,2,0.9,2,2
	v10C22,17.1,21.1,18,20,18z M21,5.7L20.3,5H1.7L1,5.7V17h20V5.7z M10,12.8L1,5.7L1.7,5l8.9,7h0.7l8.9-7L21,5.7l-9,7.1H10z"/>
</svg>
