<?xml version="1.0" encoding="utf-8"?>
<!-- Generator: Adobe Illustrator 17.0.0, SVG Export Plug-In . SVG Version: 6.00 Build 0)  -->
<!DOCTYPE svg PUBLIC "-//W3C//DTD SVG 1.1//EN" "http://www.w3.org/Graphics/SVG/1.1/DTD/svg11.dtd">
<svg version="1.1" id="图层_1" xmlns="http://www.w3.org/2000/svg" xmlns:xlink="http://www.w3.org/1999/xlink" x="0px" y="0px"
	 width="18px" height="18px" viewBox="0 0 18 18" enable-background="new 0 0 18 18" xml:space="preserve">
<g opacity="0.4">
	<path fill="#4196FF" d="M11.005,3.707L15.67,8.99l-4.662,5.347c-0.001-1.096-0.008-1.73-0.039-2.117H11v-0.207v-1h-1l-8-0.006V7h8
		h1V6l0-1.066C11.001,4.561,11.003,4.107,11.005,3.707 M10.585,2c-0.389,0-0.577,0.332-0.577,0.742c0,0.022-0.005,1.321-0.009,2.189
		V6H2C1.448,6,1,6.415,1,6.925v4.163c0,0.511,0.448,0.925,1,0.925h8v0.207c0,0,0,0,0.001,0c0,0,0.007,2.989,0.007,3.037
		c0,0.41,0.189,0.742,0.577,0.742c0.31,0,0.743-0.507,0.743-0.507L17,8.986l-5.612-6.356C11.388,2.629,10.936,2,10.585,2L10.585,2z"
		/>
</g>
</svg>
