<?xml version="1.0" encoding="utf-8"?>
<!-- Generator: Adobe Illustrator 15.0.0, SVG Export Plug-In . SVG Version: 6.00 Build 0)  -->
<!DOCTYPE svg PUBLIC "-//W3C//DTD SVG 1.1//EN" "http://www.w3.org/Graphics/SVG/1.1/DTD/svg11.dtd">
<svg version="1.1" id="图层_1" xmlns="http://www.w3.org/2000/svg" xmlns:xlink="http://www.w3.org/1999/xlink" x="0px" y="0px"
	 width="30px" height="30px" viewBox="0 0 30 30" enable-background="new 0 0 30 30" xml:space="preserve">
<path fill-rule="evenodd" clip-rule="evenodd" fill="#DBDEDF" d="M4,2.031h22c1.104,0,2,0.896,2,2v22c0,1.105-0.896,2-2,2H4
	c-1.104,0-2-0.895-2-2v-22C2,2.927,2.896,2.031,4,2.031z"/>
<path fill-rule="evenodd" clip-rule="evenodd" fill="#FFFFFF" d="M4,3h22c0.553,0,1,0.448,1,1v22c0,0.553-0.447,1-1,1H4
	c-0.553,0-1-0.447-1-1V4C3,3.448,3.447,3,4,3z"/>
</svg>
