<?xml version="1.0" encoding="UTF-8"?>
<svg width="16px" height="16px" viewBox="0 0 16 16" version="1.1" xmlns="http://www.w3.org/2000/svg" xmlns:xlink="http://www.w3.org/1999/xlink">
    <!-- Generator: Sketch 45.1 (43504) - http://www.bohemiancoding.com/sketch -->
    <title>icon_check_hover</title>
    <desc>Created with Sketch.</desc>
    <defs></defs>
    <g id="Page-1" stroke="none" stroke-width="1" fill="none" fill-rule="evenodd">
        <g id="icon_check_hover" transform="translate(-24.000000, 1.000000)">
            <g id="Group" transform="translate(25.000000, 0.000000)">
                <path d="M1,13.5 C0.724,13.5 0.5,13.275 0.5,13 L0.5,1 C0.5,0.724 0.724,0.5 1,0.5 L13,0.5 C13.275,0.5 13.5,0.724 13.5,1 L13.5,13 C13.5,13.275 13.275,13.5 13,13.5 L1,13.5 Z" id="Shape" fill="#FFFFFF"></path>
                <path d="M13,1 L13,13 L1,13 L1,1 L13,1 L13,1 Z M13,0 L1,0 C0.448,0 0,0.448 0,1 L0,13 C0,13.552 0.448,14 1,14 L13,14 C13.552,14 14,13.552 14,13 L14,1 C14,0.448 13.552,0 13,0 L13,0 Z" id="Shape" fill="#4196FF" fill-rule="nonzero"></path>
            </g>
        </g>
    </g>
</svg>