<?xml version="1.0" encoding="UTF-8"?>
<svg width="25px" height="25px" viewBox="0 0 25 25" version="1.1" xmlns="http://www.w3.org/2000/svg" xmlns:xlink="http://www.w3.org/1999/xlink">
    <!-- Generator: Sketch 45.1 (43504) - http://www.bohemiancoding.com/sketch -->
    <title>icon_net_broken</title>
    <desc>Created with Sketch.</desc>
    <defs></defs>
    <g id="Page-1" stroke="none" stroke-width="1" fill="none" fill-rule="evenodd">
        <g id="icon_net_broken" fill="#F63F3F">
            <path d="M12.5,0 C5.596,0 0,5.596 0,12.5 C0,19.404 5.596,25 12.5,25 C19.404,25 25,19.404 25,12.5 C25,5.596 19.404,0 12.5,0 Z M12.5,24 C6.149,24 1,18.851 1,12.5 C1,6.149 6.149,1 12.5,1 C18.851,1 24,6.149 24,12.5 C24,18.851 18.851,24 12.5,24 Z" id="Shape"></path>
            <polygon id="Shape" points="17 16.273 16.273 17 12.5 13.227 8.727 17 8 16.273 11.773 12.5 8 8.727 8.727 8 12.5 11.773 16.273 8 17 8.727 13.227 12.5"></polygon>
        </g>
    </g>
</svg>