<?xml version="1.0" encoding="utf-8"?>
<!-- Generator: Adobe Illustrator 17.0.0, SVG Export Plug-In . SVG Version: 6.00 Build 0)  -->
<!DOCTYPE svg PUBLIC "-//W3C//DTD SVG 1.1//EN" "http://www.w3.org/Graphics/SVG/1.1/DTD/svg11.dtd">
<svg version="1.1" id="图层_1" xmlns="http://www.w3.org/2000/svg" xmlns:xlink="http://www.w3.org/1999/xlink" x="0px" y="0px"
	 width="22px" height="22px" viewBox="0 0 22 22" enable-background="new 0 0 22 22" xml:space="preserve">
<path fill-rule="evenodd" clip-rule="evenodd" fill="#535963" d="M14.437,11.313c0.062,0.136,0.062,0.274,0,0.41
	c0,0,0.017,0.075-0.227,0.319c-0.782,0.782-2.976,2.976-2.976,2.976l-0.751-0.751l2.749-2.749l-2.749-2.749l0.751-0.751
	c0,0,2.32,2.32,3.039,3.039C14.462,11.245,14.437,11.313,14.437,11.313z"/>
<path fill-rule="evenodd" clip-rule="evenodd" fill="#535963" d="M10.437,11.313c0.062,0.136,0.062,0.274,0,0.41
	c0,0,0.017,0.075-0.227,0.319c-0.782,0.782-2.976,2.976-2.976,2.976l-0.751-0.751l2.749-2.749L6.483,8.769l0.751-0.751
	c0,0,2.32,2.32,3.039,3.039C10.462,11.245,10.437,11.313,10.437,11.313z"/>
</svg>
