<?xml version="1.0" encoding="utf-8"?>
<!-- Generator: Adobe Illustrator 17.0.0, SVG Export Plug-In . SVG Version: 6.00 Build 0)  -->
<!DOCTYPE svg PUBLIC "-//W3C//DTD SVG 1.1//EN" "http://www.w3.org/Graphics/SVG/1.1/DTD/svg11.dtd">
<svg version="1.1" id="图层_1" xmlns="http://www.w3.org/2000/svg" xmlns:xlink="http://www.w3.org/1999/xlink" x="0px" y="0px"
	 width="28px" height="28px" viewBox="0 0 28 28" enable-background="new 0 0 28 28" xml:space="preserve">
<path fill-rule="evenodd" clip-rule="evenodd" fill="#5899EF" d="M2.034,0h24c0.552,0,1,0.448,1,1v26c0,0.552-0.448,1-1,1h-24
	c-0.552,0-1-0.448-1-1V1C1.034,0.448,1.481,0,2.034,0z"/>
<g>
	<path fill="#FFFFFF" d="M11,9.697l6.819,4.373L11,18.287L11,9.697 M9.928,6.997C9.331,6.997,9.013,7.422,9,8.007v11.959
		c0.034,0.6,0.315,1.037,0.893,1.037c0.318,0,0.725-0.132,1.231-0.441l8.267-5.113c0.716-0.507,0.929-1.896,0-2.747l-8.166-5.236
		C10.705,7.137,10.271,6.997,9.928,6.997L9.928,6.997z"/>
</g>
</svg>
