<?xml version="1.0" encoding="UTF-8"?>
<svg width="12px" height="12px" viewBox="0 0 12 12" version="1.1" xmlns="http://www.w3.org/2000/svg" xmlns:xlink="http://www.w3.org/1999/xlink">
    <!-- Generator: Sketch 45.1 (43504) - http://www.bohemiancoding.com/sketch -->
    <title>icon_fail</title>
    <desc>Created with Sketch.</desc>
    <defs></defs>
    <g id="Page-1" stroke="none" stroke-width="1" fill="none" fill-rule="evenodd">
        <g id="icon_fail" fill-rule="nonzero">
            <path d="M6,0 C9.3,0 12,2.7 12,6 C12,9.3 9.3,12 6,12 C2.7,12 0,9.3 0,6 C0,2.7 2.7,0 6,0 Z" id="Shape" fill="#F63F3F"></path>
            <polygon id="Shape" fill="#FFFFFF" points="9 9 8.4 9 6 6.6 3.6 9 3 9 3 8.4 5.4 6 3 3.6 3 3 3.6 3 6 5.4 8.4 3 9 3 9 3.6 6.6 6 9 8.4"></polygon>
        </g>
    </g>
</svg>