<?xml version="1.0" encoding="utf-8"?>
<!-- Generator: Adobe Illustrator 17.0.0, SVG Export Plug-In . SVG Version: 6.00 Build 0)  -->
<!DOCTYPE svg PUBLIC "-//W3C//DTD SVG 1.1//EN" "http://www.w3.org/Graphics/SVG/1.1/DTD/svg11.dtd">
<svg version="1.1" id="图层_1" xmlns="http://www.w3.org/2000/svg" xmlns:xlink="http://www.w3.org/1999/xlink" x="0px" y="0px"
	 width="28px" height="28px" viewBox="0 0 28 28" enable-background="new 0 0 28 28" xml:space="preserve">
<path fill-rule="evenodd" clip-rule="evenodd" fill="#F9B259" d="M2,0h24c0.552,0,1,0.448,1,1v26c0,0.552-0.448,1-1,1H2
	c-0.552,0-1-0.448-1-1V1C1,0.448,1.448,0,2,0z"/>
<path fill-rule="evenodd" clip-rule="evenodd" fill="#FFFFFF" d="M20.476,10.016l-0.999-0.002c-0.276,0-0.5-0.223-0.5-0.496
	l-0.002-1.006c0-0.274,0.223-0.495,0.499-0.495l0.999,0.002c0.276,0,0.5,0.222,0.5,0.496l0.002,1.007
	C20.975,9.794,20.752,10.016,20.476,10.016z M17.585,20.003l-0.925,0.01c-0.245,0.066-0.497-0.08-0.562-0.325l-1.575-3.674
	l-4.097,0.002L8.933,19.69c-0.066,0.243-0.318,0.388-0.563,0.322l-1.004-0.008c-0.245-0.065-0.391-0.316-0.325-0.56L11.046,8.31
	c0.066-0.243,0.318-0.388,0.563-0.323l1.785,0c0.245-0.065,0.497,0.08,0.563,0.325L17.91,19.44
	C17.975,19.685,17.83,19.937,17.585,20.003z M12.479,9.838l-1.513,4.179l3.058-0.001L12.479,9.838z M19.474,12.016l0.999,0.002
	c0.276,0,0.5,0.197,0.5,0.441l0.002,7.117c0,0.243-0.223,0.44-0.499,0.44l-0.999-0.001c-0.276,0-0.5-0.198-0.5-0.44l-0.002-7.118
	C18.975,12.212,19.198,12.016,19.474,12.016z"/>
</svg>
