<?xml version="1.0" encoding="utf-8"?>
<!-- Generator: Adobe Illustrator 17.0.0, SVG Export Plug-In . SVG Version: 6.00 Build 0)  -->
<!DOCTYPE svg PUBLIC "-//W3C//DTD SVG 1.1//EN" "http://www.w3.org/Graphics/SVG/1.1/DTD/svg11.dtd">
<svg version="1.1" id="图层_1" xmlns="http://www.w3.org/2000/svg" xmlns:xlink="http://www.w3.org/1999/xlink" x="0px" y="0px"
	 width="28px" height="28px" viewBox="0 0 28 28" enable-background="new 0 0 28 28" xml:space="preserve">
<path fill-rule="evenodd" clip-rule="evenodd" fill="#A2A8B8" d="M2.034,0h24c0.552,0,1,0.448,1,1v26c0,0.552-0.448,1-1,1h-24
	c-0.552,0-1-0.448-1-1V1C1.034,0.448,1.481,0,2.034,0z"/>
<path fill-rule="evenodd" clip-rule="evenodd" fill="#FFFFFF" d="M22.546,10.999H21v7.556c0,0.246-0.298,0.444-0.667,0.444h-0.667
	c-0.368,0-0.667-0.198-0.667-0.444v-7.556h-1.646l-2.392,3l2.892,3.722c0.145,0.155,0.145,0.406,0,0.562l-0.526,0.561
	c-0.145,0.155-0.381,0.155-0.526,0l-2.802-3.607l-2.802,3.607c-0.145,0.155-0.381,0.155-0.526,0l-0.526-0.561
	c-0.145-0.155-0.145-0.406,0-0.562L13.038,14l-2.392-3H9v7.556c0,0.246-0.298,0.444-0.667,0.444H7.667
	C7.299,18.999,7,18.801,7,18.555v-7.556H5.455c-0.251,0-0.454-0.299-0.454-0.667V9.666C5.001,9.297,5.204,9,5.455,9h5.091
	c0.657,0,0.728,0.236,0.652,0.155l2.802,3.607l2.802-3.607C16.727,9.236,16.828,9,17.455,9h5.091C22.797,9,23,9.297,23,9.666v0.667
	C23,10.701,22.797,10.999,22.546,10.999z"/>
</svg>
