<?xml version="1.0" encoding="utf-8"?>
<!-- Generator: Adobe Illustrator 15.0.0, SVG Export Plug-In . SVG Version: 6.00 Build 0)  -->
<!DOCTYPE svg PUBLIC "-//W3C//DTD SVG 1.1//EN" "http://www.w3.org/Graphics/SVG/1.1/DTD/svg11.dtd">
<svg version="1.1" id="图层_1" xmlns="http://www.w3.org/2000/svg" xmlns:xlink="http://www.w3.org/1999/xlink" x="0px" y="0px"
	 width="15px" height="15px" viewBox="0 0 15 15" enable-background="new 0 0 15 15" xml:space="preserve">
<g>
	<path fill="#757575" d="M7.471,1.002c2.481,0,4.5,2.019,4.5,4.5c0,0.762-0.204,1.506-0.607,2.211
		c-0.414,0.598-3.059,4.411-3.449,5.011c-0.214,0.278-0.258,0.278-0.444,0.278c-0.212,0-0.426-0.254-0.489-0.349L3.579,7.716
		C3.175,7.01,2.971,6.266,2.971,5.502C2.971,3.021,4.989,1.002,7.471,1.002 M7.471,0.002c-3.038,0-5.5,2.462-5.5,5.5
		c0,1.006,0.29,1.937,0.762,2.748l3.426,4.971c0,0,0.484,0.781,1.313,0.781c0.548,0,0.859-0.172,1.264-0.704
		c0.252-0.405,3.475-5.049,3.475-5.049c0.472-0.812,0.762-1.741,0.762-2.747C12.971,2.464,10.508,0.002,7.471,0.002L7.471,0.002z"/>
</g>
<g>
	<g>
		<path fill-rule="evenodd" clip-rule="evenodd" fill="#757575" d="M7.502,3.002c-1.381,0-2.5,1.119-2.5,2.5s1.119,2.5,2.5,2.5
			s2.5-1.119,2.5-2.5S8.883,3.002,7.502,3.002z M7.502,7.002c-0.829,0-1.5-0.672-1.5-1.5s0.671-1.5,1.5-1.5
			c0.828,0,1.5,0.672,1.5,1.5S8.33,7.002,7.502,7.002z"/>
	</g>
</g>
</svg>
