<?xml version="1.0" encoding="utf-8"?>
<!-- Generator: Adobe Illustrator 15.0.0, SVG Export Plug-In . SVG Version: 6.00 Build 0)  -->
<!DOCTYPE svg PUBLIC "-//W3C//DTD SVG 1.1//EN" "http://www.w3.org/Graphics/SVG/1.1/DTD/svg11.dtd">
<svg version="1.1" id="图层_1" xmlns="http://www.w3.org/2000/svg" xmlns:xlink="http://www.w3.org/1999/xlink" x="0px" y="0px"
	 width="14px" height="14px" viewBox="0 0 14 14" enable-background="new 0 0 14 14" xml:space="preserve">
<path fill-rule="evenodd" clip-rule="evenodd" fill="#38404B" d="M6.5,13C2.91,13,0,10.09,0,6.5S2.91,0,6.5,0S13,2.91,13,6.5
	S10.09,13,6.5,13z M6.5,1C3.462,1,1,3.462,1,6.5C1,9.537,3.462,12,6.5,12C9.537,12,12,9.537,12,6.5C12,3.462,9.537,1,6.5,1z M5.2,9
	L3,6.8L3.8,6l1.7,1.7L9.2,4L10,4.8L5.8,9H5.2z"/>
</svg>
