<?xml version="1.0" encoding="UTF-8"?>
<svg width="24px" height="24px" viewBox="0 0 24 24" version="1.1" xmlns="http://www.w3.org/2000/svg" xmlns:xlink="http://www.w3.org/1999/xlink">
    <!-- Generator: Sketch 45.1 (43504) - http://www.bohemiancoding.com/sketch -->
    <title>qq</title>
    <desc>Created with Sketch.</desc>
    <defs></defs>
    <g id="Page-1" stroke="none" stroke-width="1" fill="none" fill-rule="evenodd">
        <g id="qq" fill-rule="nonzero">
            <path d="M12,0 C5.4,0 0,5.4 0,12 C0,18.6 5.4,24 12,24 C18.6,24 24,18.6 24,12 C24,5.4 18.6,0 12,0 Z" id="Shape" fill="#25A5E5"></path>
            <path d="M17.5895069,15.3761129 C17.3861723,15.3761129 16.7761683,14.9567184 16.5728337,14.4324752 C16.5728337,14.4324752 16.3694991,15.6906588 15.7594951,16.1100533 C15.7594951,16.1100533 17.1828376,17.053691 16.674501,18.3118746 C16.4711664,18.7312691 14.43782,19.4652095 12.5061409,18.207026 L11.9978043,18.207026 L11.9978043,18.207026 L11.4894677,18.207026 C9.55778859,19.5700582 7.52444219,18.8361178 7.32110755,18.3118746 C6.81277095,17.053691 8.23611343,16.1100533 8.23611343,16.1100533 C7.62610951,15.5858102 7.42277487,14.4324752 7.42277487,14.4324752 C7.21944023,14.8518697 6.71110363,15.3761129 6.40610167,15.3761129 C6.20276703,15.3761129 5.89776507,14.6421725 6.10109971,13.2791402 C6.30443435,11.916108 7.21944023,11.4967135 7.21944023,11.4967135 C7.11777291,10.9724703 7.62610951,10.7627731 7.62610951,10.7627731 C7.52444219,9.81913539 7.82944415,9.50458949 7.93111147,9.50458949 C7.93111147,9.39974086 7.93111147,9.29489223 7.93111147,9.08519496 C7.93111147,6.77852505 9.65945591,4.89124968 11.9978043,4.89124968 L11.9978043,4.89124968 C11.9978043,4.89124968 11.9978043,4.89124968 11.9978043,4.89124968 C11.9978043,4.89124968 11.9978043,4.89124968 11.9978043,4.89124968 L11.9978043,4.89124968 C14.2344853,4.89124968 16.0644971,6.77852505 16.0644971,9.08519496 C16.0644971,9.19004359 16.0644971,9.29489223 16.0644971,9.50458949 C15.9628298,9.39974086 16.5728337,9.60943812 16.674501,11.4967135 C16.674501,11.4967135 17.5895069,11.916108 17.7928415,13.2791402 C18.0978435,14.7470211 17.7928415,15.3761129 17.5895069,15.3761129 Z" id="Shape" fill="#FFFFFF"></path>
        </g>
    </g>
</svg>