<?xml version="1.0" encoding="UTF-8"?>
<svg width="24px" height="24px" viewBox="0 0 24 24" version="1.1" xmlns="http://www.w3.org/2000/svg" xmlns:xlink="http://www.w3.org/1999/xlink">
    <!-- Generator: Sketch 45.1 (43504) - http://www.bohemiancoding.com/sketch -->
    <title>wechat_disable</title>
    <desc>Created with Sketch.</desc>
    <defs></defs>
    <g id="Page-1" stroke="none" stroke-width="1" fill="none" fill-rule="evenodd">
        <g id="wechat_disable" fill-rule="nonzero">
            <path d="M12,0 C5.4,0 0,5.4 0,12 C0,18.6 5.4,24 12,24 C18.6,24 24,18.6 24,12 C24,5.4 18.6,0 12,0 Z" id="Shape" fill="#D2D5D6"></path>
            <path d="M18.1,16.7 L18.5,18 L17,17.2 C16.5,17.3 15.9,17.5 15.4,17.5 C12.9,17.5 10.9,15.8 10.9,13.7 C10.9,11.6 12.9,9.9 15.4,9.9 C17.8,9.9 19.9,11.6 19.9,13.7 C20,14.9 19.2,15.9 18.1,16.7 Z M14,11.9 C13.7,11.9 13.3,12.2 13.3,12.5 C13.3,12.8 13.6,13.1 14,13.1 C14.5,13.1 14.8,12.8 14.8,12.5 C14.8,12.2 14.5,11.9 14,11.9 Z M16.9,11.9 C16.6,11.9 16.3,12.2 16.3,12.5 C16.3,12.8 16.6,13.1 16.9,13.1 C17.4,13.1 17.7,12.8 17.7,12.5 C17.7,12.2 17.4,11.9 16.9,11.9 Z M10.6,13.8 C10.6,14.2 10.7,14.5 10.8,14.9 C10.6,14.9 10.5,14.9 10.3,14.9 C9.6,14.9 9.1,14.8 8.4,14.6 L6.5,15.5 L7.1,14 C5.8,13 5,11.9 5,10.4 C5,8 7.4,6 10.3,6 C12.9,6 15.2,7.6 15.7,9.7 C15.5,9.7 15.4,9.7 15.2,9.7 C12.6,9.6 10.6,11.5 10.6,13.8 Z M8.6,8.1 C8.1,8.1 7.7,8.4 7.7,8.8 C7.7,9.2 8.2,9.5 8.6,9.5 C9.1,9.5 9.4,9.2 9.4,8.8 C9.4,8.4 9,8.1 8.6,8.1 Z M12.3,8.1 C11.9,8.1 11.4,8.4 11.4,8.8 C11.4,9.2 11.8,9.5 12.3,9.5 C12.7,9.5 13,9.2 13,8.8 C13,8.4 12.8,8.1 12.3,8.1 Z" id="Shape" fill="#FFFFFF"></path>
        </g>
    </g>
</svg>