<?xml version="1.0" encoding="utf-8"?>
<!-- Generator: Adobe Illustrator 15.0.0, SVG Export Plug-In . SVG Version: 6.00 Build 0)  -->
<!DOCTYPE svg PUBLIC "-//W3C//DTD SVG 1.1//EN" "http://www.w3.org/Graphics/SVG/1.1/DTD/svg11.dtd">
<svg version="1.1" id="图层_1" xmlns="http://www.w3.org/2000/svg" xmlns:xlink="http://www.w3.org/1999/xlink" x="0px" y="0px"
	 width="22px" height="22px" viewBox="0 0 22 22" enable-background="new 0 0 22 22" xml:space="preserve">
<g>
	<g>
		<path fill-rule="evenodd" clip-rule="evenodd" fill="#5999ED" d="M22,7.979v-1h-5h-1v3v1h1h4v3h-5v1h5h1v-1v-3v-1h-1h-4v-2H22z
			 M10,6.979H9v1v2v1v4h1v-4h3h1v-1v-2v-1h-1H10z M13,9.979h-3v-2h3V9.979z M6,13.229l-1.25-1.25h-1.5L2,13.229v-6.25H1v8h1v-0.25
			l2-2l2,2v0.25h1v-8H6V13.229z"/>
	</g>
</g>
</svg>
