<?xml version="1.0" encoding="utf-8"?>
<!-- Generator: Adobe Illustrator 17.0.0, SVG Export Plug-In . SVG Version: 6.00 Build 0)  -->
<!DOCTYPE svg PUBLIC "-//W3C//DTD SVG 1.1//EN" "http://www.w3.org/Graphics/SVG/1.1/DTD/svg11.dtd">
<svg version="1.1" id="图层_1" xmlns="http://www.w3.org/2000/svg" xmlns:xlink="http://www.w3.org/1999/xlink" x="0px" y="0px"
	 width="34px" height="26px" viewBox="0 0 34 26" enable-background="new 0 0 34 26" xml:space="preserve">
<g>
	<path fill-rule="evenodd" clip-rule="evenodd" fill="#FFFFFF" d="M4,25.5c-1.93,0-3.5-1.57-3.5-3.5V4c0-1.93,1.57-3.5,3.5-3.5h128
		c1.93,0,3.5,1.57,3.5,3.5v18c0,1.93-1.57,3.5-3.5,3.5H4z"/>
	<path fill="#D1D2D3" d="M132,1c1.654,0,3,1.346,3,3v18c0,1.654-1.346,3-3,3H4c-1.654,0-3-1.346-3-3V4c0-1.654,1.346-3,3-3H132
		 M132,0H4C1.791,0,0,1.791,0,4v18c0,2.209,1.791,4,4,4h128c2.209,0,4-1.791,4-4V4C136,1.791,134.209,0,132,0L132,0z"/>
</g>
<g>
	<g>
		<path fill-rule="evenodd" clip-rule="evenodd" fill="#47515D" d="M23.857,19.136l-3.614-3.614C21.321,14.518,22,13.09,22,11.5
			C22,8.462,19.538,6,16.5,6S11,8.462,11,11.5s2.462,5.5,5.5,5.5c1.093,0,2.11-0.323,2.966-0.873l3.7,3.7
			c0.191,0.191,0.5,0.191,0.691,0C24.048,19.636,24.048,19.327,23.857,19.136z M16.53,16c-2.485,0-4.5-2.015-4.5-4.5
			S14.045,7,16.53,7c2.485,0,4.5,2.015,4.5,4.5S19.015,16,16.53,16z M18.5,11H17V9.5C17,9.224,16.776,9,16.5,9S16,9.224,16,9.5V11
			h-1.5c-0.276,0-0.5,0.224-0.5,0.5c0,0.276,0.224,0.5,0.5,0.5H16v1.5c0,0.276,0.224,0.5,0.5,0.5s0.5-0.224,0.5-0.5V12h1.5
			c0.276,0,0.5-0.224,0.5-0.5C19,11.224,18.776,11,18.5,11z"/>
	</g>
</g>
</svg>
