<svg id="图层_1" data-name="图层 1" xmlns="http://www.w3.org/2000/svg" viewBox="0 0 48 48"><title>17复制-V</title><polygon points="28.18 33.24 24.5 36 24.5 24.95 33.85 31.32 29.29 32.69 32.33 38.78 31.22 39.33 28.18 33.24" style="fill:#fff"/><path d="M25,25.89l7.7,5.25-3,.9-1.14.34.53,1.06,2.55,5.11-.21.11-2.55-5.11-.54-1.07-1,.72L25,35V25.89M24,24V37l4-3,3,6,2-1-3-6,5-1.5L24,24Z" style="fill:gray"/><polygon points="40 46 40 36 45 36 48 39 48 46 40 46" style="fill:#fff"/><path d="M45,36H40V46h8V39Zm2,3H45V37Zm0,6H41V37h3v3h3Z" style="fill:#4d84ba"/><polygon points="36 48 36 38 41 38 44 41 44 48 36 48" style="fill:#fff"/><path d="M41,38H36V48h8V41Zm2,3H41V39Zm0,6H37V39h3v3h3Z" style="fill:#4d84ba"/></svg>