<svg id="图层_1" data-name="图层 1" xmlns="http://www.w3.org/2000/svg" viewBox="0 0 48 48"><title>22删除节点-V</title><polygon points="28.18 33.24 24.5 36 24.5 24.95 33.85 31.32 29.29 32.69 32.33 38.78 31.22 39.33 28.18 33.24" style="fill:#fff"/><path d="M25,25.89l7.7,5.25-3,.9-1.14.34.53,1.06,2.55,5.11-.21.11-2.55-5.11-.54-1.07-1,.72L25,35V25.89M24,24V37l4-3,3,6,2-1-3-6,5-1.5L24,24Z" style="fill:gray"/><circle cx="42" cy="42" r="5.5" style="fill:#fff"/><path d="M42,37a5,5,0,1,1-5,5,5,5,0,0,1,5-5m0-1a6,6,0,1,0,6,6,6,6,0,0,0-6-6Z" style="fill:#4d84ba"/><rect x="39.5" y="41.5" width="5" height="1" style="fill:#fff"/><polygon points="45 41 39 41 39 43 45 43 45 41 45 41" style="fill:#4d84ba"/></svg>