<svg id="图层_1" data-name="图层 1" xmlns="http://www.w3.org/2000/svg" viewBox="0 0 48 48"><title>18移动-V</title><polygon points="28.18 33.24 24.5 36 24.5 24.95 33.85 31.32 29.29 32.69 32.33 38.78 31.22 39.33 28.18 33.24" style="fill:#fff"/><path d="M25,25.89l7.7,5.25-3,.9-1.14.34.53,1.06,2.55,5.11-.21.11-2.55-5.11-.54-1.07-1,.72L25,35V25.89M24,24V37l4-3,3,6,2-1-3-6,5-1.5L24,24Z" style="fill:gray"/><path d="M48,42l-3-2v1H43V39h1l-2-3-2,3h1v2H39V40l-3,2,3,2V43h2v2H40l2,3,2-3H43V43h2v1Z" style="fill:#4d84ba"/></svg>