<svg id="图层_1" data-name="图层 1" xmlns="http://www.w3.org/2000/svg" viewBox="0 0 24 24"><title>2多边形范围选择</title><path d="M1,10.51a1.63,1.63,0,0,1,2.25,0l1.85,1.71a1,1,0,0,0,1.34.13l.06-.06c.22-.25.13-1,.08-1.49L5.71,3.7A1.21,1.21,0,0,1,6.79,2.38a1.32,1.32,0,0,1,1.32,1L9.13,9c0,.13.17.16.18,0l.36-7.23a1.24,1.24,0,0,1,2.48,0V9c0,.08.07.11.08,0l1.11-5.55a1.24,1.24,0,0,1,1.38-1.09h.06a1.2,1.2,0,0,1,1,1.31l-1,6.57c0,.12,0,.18.11,0l1.51-3.51A1.32,1.32,0,0,1,18,5.88a1.19,1.19,0,0,1,.94,1.6l-2.71,7.89v.13h0A5.44,5.44,0,0,1,10.93,19a7.8,7.8,0,0,1-4.4-1.38h0a55.22,55.22,0,0,1-5.59-5,1.4,1.4,0,0,1,0-2Z" style="fill:#fff;stroke:gray;stroke-miterlimit:10"/><polygon points="17.5 23.5 17.5 16.5 21.79 16.5 23.5 18.21 23.5 23.5 17.5 23.5" style="fill:#fff"/><path d="M21.59,17,23,18.41V23H18V17h3.59M22,16H17v8h7V18l-2-2Z" style="fill:gray"/><polygon points="22 16 21 16 21 18 21 19 22 19 24 19 24 18 22 18 22 16 22 16" style="fill:gray"/></svg>