<svg id="图层_1" data-name="图层 1" xmlns="http://www.w3.org/2000/svg" viewBox="0 0 24 24"><title>画板 2 副本</title><path d="M21,13.09h0V8.55a1.92,1.92,0,0,0-2-1.82A2.12,2.12,0,0,0,18,7V6.73a1.92,1.92,0,0,0-2-1.82,2.1,2.1,0,0,0-1.24.41,2.59,2.59,0,0,0-4.51,0A2.1,2.1,0,0,0,9,4.91,1.92,1.92,0,0,0,7,6.73V7.91A3.74,3.74,0,0,0,5.05,8,3.25,3.25,0,0,0,3.35,9.19,4.58,4.58,0,0,0,3.2,12.3a8.11,8.11,0,0,0,2,3.67,12.86,12.86,0,0,1,1.5,2.1,9.41,9.41,0,0,1,1.46,3.18h0C8.72,22.83,10.9,24,13.47,24c3,0,5.5-1.63,5.5-3.64a37.06,37.06,0,0,0,1.54-3.54A10.78,10.78,0,0,0,21,13.09Z" style="fill:#fff"/><path d="M3.2,12.3c0-.11,0,.1,0,0Z" style="fill:#fff"/><path d="M3.19,12.26h0Zm0,0v0Z" style="fill:gray"/><path d="M7.8,19c-.17-.31-.34-.6-.51-.87l.19.29A5.31,5.31,0,0,1,7.8,19ZM20.46,8.52A1.29,1.29,0,0,0,20.34,8a1.14,1.14,0,0,1,.16.57v2.91ZM3.55,11.23a2.71,2.71,0,0,1,.23-1.78,2,2,0,0,1,.52-.53A3.48,3.48,0,0,0,3.55,11.23ZM6.92,8.57l.16-.12.39.09v0Zm10.55-.76.37-.2a1.36,1.36,0,0,0-.37.88Zm-7-1.09a1.35,1.35,0,0,0-.26-.8l.18.13.16-.31a1.74,1.74,0,0,0-.08.52Zm4-.45a1.74,1.74,0,0,0-.08-.52l.16.31.18-.13a1.35,1.35,0,0,0-.26.75Z" style="fill:#fff"/><path d="M12.47,4a2.53,2.53,0,0,0-2.26,1.32A2.1,2.1,0,0,0,9,4.91,1.92,1.92,0,0,0,7,6.73V7.91a3.74,3.74,0,0,0-.85-.09A3.53,3.53,0,0,0,5.05,8,3.25,3.25,0,0,0,3.34,9.19,4.58,4.58,0,0,0,3.2,12.3a8.11,8.11,0,0,0,2,3.67,12.86,12.86,0,0,1,1.5,2.1,9.41,9.41,0,0,1,1.46,3.18h0C8.72,22.83,10.9,24,13.47,24c3,0,5.5-1.63,5.5-3.64a37.06,37.06,0,0,0,1.54-3.54A10.78,10.78,0,0,0,21,13.09h0V8.55a2,2,0,0,0-2-1.82A2.12,2.12,0,0,0,18,7V6.73a1.92,1.92,0,0,0-2-1.82,2.1,2.1,0,0,0-1.24.41A2.53,2.53,0,0,0,12.47,4ZM10,9.45h1V6.27a1.51,1.51,0,0,1,3,0V9.45h1V6.73a1,1,0,0,1,2,0v3.64h1V8.55a1,1,0,0,1,1-.91,1,1,0,0,1,1,.89l0,4.56a10.13,10.13,0,0,1-.5,3.64A36.72,36.72,0,0,1,18,20.34v0c0,1.51-2,2.73-4.5,2.73s-4.63-1.24-4.63-2.75h0a9.45,9.45,0,0,0-.93-2.18,32.21,32.21,0,0,0-2.67-3.54,5.71,5.71,0,0,1-1-2.35c0-.26-.09-.51-.12-.74C3.95,10.77,4.22,9.39,5,9A2.41,2.41,0,0,1,6,8.79a3.37,3.37,0,0,1,.92.13c0-.1,0-.22,0-.33v2.68H8V6.73a1,1,0,0,1,2,0V9.45ZM8.84,20.34h0Zm-.73.91h0Z" style="fill:gray"/><path d="M2.63,12.13c0-.12,0,.11,0,0Z" style="fill:#fff"/><path d="M2.63,12.09h0Zm0,0v0Z" style="fill:gray"/></svg>