<svg id="图层_1" data-name="图层 1" xmlns="http://www.w3.org/2000/svg" viewBox="0 0 48 48"><title>12多边形范围选择-V</title><polygon points="39.28 46.5 36.58 42 39.28 37.5 44.72 37.5 47.42 42 44.72 46.5 39.28 46.5" style="fill:#fff"/><path d="M44.43,38l2.4,4-2.4,4H39.57l-2.4-4,2.4-4h4.87M45,37H39l-3,5,3,5h6l3-5-3-5Z" style="fill:#4d84ba"/><polygon points="28.18 33.24 24.5 36 24.5 24.95 33.85 31.32 29.29 32.69 32.33 38.78 31.22 39.33 28.18 33.24" style="fill:#fff"/><path d="M25,25.89l7.7,5.25-3,.9-1.14.34.53,1.06,2.55,5.11-.21.11-2.55-5.11-.54-1.07-1,.72L25,35V25.89M24,24V37l4-3,3,6,2-1-3-6,5-1.5L24,24Z" style="fill:gray"/></svg>