<svg id="图层_1" data-name="图层 1" xmlns="http://www.w3.org/2000/svg" viewBox="0 0 48 48"><title>20旋转切割-V</title><polygon points="28.18 33.24 24.5 36 24.5 24.95 33.85 31.32 29.29 32.69 32.33 38.78 31.22 39.33 28.18 33.24" style="fill:#fff"/><path d="M25,25.89l7.7,5.25-3,.9-1.14.34.53,1.06,2.55,5.11-.21.11-2.55-5.11-.54-1.07-1,.72L25,35V25.89M24,24V37l4-3,3,6,2-1-3-6,5-1.5L24,24Z" style="fill:gray"/><polygon points="39 36 38 36 38 40 39 40 39 36 39 36" style="fill:#4d84ba"/><polygon points="40 38 36 38 36 39 40 39 40 38 40 38" style="fill:#4d84ba"/><polygon points="48 45 45 45 45 46 48 46 48 45 48 45" style="fill:#fff"/><polygon points="48 45 45 45 45 46 48 46 48 45 48 45" style="fill:#4d84ba"/><polygon points="46 45 45 45 45 48 46 48 46 45 46 45" style="fill:#4d84ba"/><rect x="38.5" y="38.5" width="7" height="7" style="fill:#fff"/><path d="M45,39v6H39V39h6m1-1H38v8h8V38Z" style="fill:#4d84ba"/><line x1="36.5" y1="47.5" x2="47.5" y2="36.5" style="fill:#fff;stroke:#4d84ba;stroke-miterlimit:10"/></svg>