<?xml version="1.0" encoding="UTF-8"?>
<!DOCTYPE svg PUBLIC "-//W3C//DTD SVG 1.1//EN" "http://www.w3.org/Graphics/SVG/1.1/DTD/svg11.dtd">
<!-- Creator: CorelDRAW 2020 (64-Bit 评估版) -->
<svg xmlns="http://www.w3.org/2000/svg" xml:space="preserve" width="50mm" height="50mm" version="1.1" style="shape-rendering:geometricPrecision; text-rendering:geometricPrecision; image-rendering:optimizeQuality; fill-rule:evenodd; clip-rule:evenodd"
viewBox="0 0 5000 5000"
 xmlns:xlink="http://www.w3.org/1999/xlink"
 xmlns:xodm="http://www.corel.com/coreldraw/odm/2003">
 <defs>
  <style type="text/css">
   <![CDATA[
    .str0 {stroke:#332C2B;stroke-width:20;stroke-miterlimit:22.9256}
    .fil6 {fill:none}
    .fil0 {fill:#FFF000}
    .fil2 {fill:#E40082}
    .fil3 {fill:#FEFEFE;fill-rule:nonzero}
    .fil1 {fill:#332C2B;fill-rule:nonzero}
    .fil4 {fill:#E40082;fill-rule:nonzero}
    .fil5 {fill:#E62129;fill-rule:nonzero}
   ]]>
  </style>
 </defs>
 <g id="图层_x0020_1">
  <metadata id="CorelCorpID_0Corel-Layer"/>
  <g>
   <polygon class="fil0" points="1454.67,2676.04 2150.79,3499.62 3248.42,3125.98 3428.64,1639.7 2026.61,1685.42 "/>
   <path id="1" class="fil1" d="M2144.79 3507.58l-696.12 -823.58 12 -15.92 696.12 823.58 -10.25 16.15 -1.75 -0.23zm1.75 0.23l-1.21 0.41 -0.54 -0.64 1.75 0.23zm1097.63 -373.64l-1097.63 373.64 8.5 -16.38 1097.63 -373.64 2.08 2.11 -10.58 14.27zm10.58 -14.27l-1.35 11.13 -9.23 3.14 10.58 -14.27zm180.22 -1486.28l-180.22 1486.28 -12.66 12.16 180.22 -1486.28 11.36 -14.43 1.3 2.27zm-1.3 -2.27l1.58 -0.05 -0.28 2.32 -1.3 -2.27zm-1402.03 45.72l1402.03 -45.72 -10.06 16.7 -1402.03 45.72 0.85 -7.77 9.21 -8.93zm-9.21 8.93l5.08 -8.8 4.13 -0.13 -9.21 8.93zm-571.94 990.62l571.94 -990.62 8.36 -1.16 -571.94 990.62 -10.18 8.54 1.82 -7.38zm-1.82 7.38l-1.45 -1.72 3.27 -5.66 -1.82 7.38z"/>
  </g>
  <ellipse class="fil2 str0" cx="2114.79" cy="3499.62" rx="41.91" ry="45.72"/>
  <polygon class="fil3 str0" points="2329.31,2221.07 2096.91,2697.31 2687.44,2731.59 2847.45,2289.65 "/>
  <ellipse class="fil4 str0" cx="2694.01" cy="2699.41" rx="34.29" ry="38.1"/>
  <ellipse class="fil5 str0" cx="2629.25" cy="2726.23" rx="34.29" ry="38.1"/>
  <line class="fil6 str0" x1="1454.67" y1="2676.04" x2="2026.61" y2= "1685.42" />
  <polyline class="fil6 str0" points="3428.64,1639.7 3248.42,3125.98 2159.29,3499.62 "/>
  <ellipse class="fil2 str0" cx="2201.19" cy="3499.62" rx="41.91" ry="45.72"/>
 </g>
</svg>
