<?xml version="1.0" encoding="UTF-8"?>
<!DOCTYPE svg PUBLIC "-//W3C//DTD SVG 1.1//EN" "http://www.w3.org/Graphics/SVG/1.1/DTD/svg11.dtd">
<!-- Creator: CorelDRAW 2020 (64-Bit 评估版) -->
<svg xmlns="http://www.w3.org/2000/svg" xml:space="preserve" width="50mm" height="50mm" version="1.1" style="shape-rendering:geometricPrecision; text-rendering:geometricPrecision; image-rendering:optimizeQuality; fill-rule:evenodd; clip-rule:evenodd"
viewBox="0 0 5000 5000"
 xmlns:xlink="http://www.w3.org/1999/xlink"
 xmlns:xodm="http://www.corel.com/coreldraw/odm/2003">
 <defs>
  <style type="text/css">
   <![CDATA[
    .str0 {stroke:#332C2B;stroke-width:20;stroke-miterlimit:22.9256}
    .fil3 {fill:none}
    .fil0 {fill:yellow}
    .fil2 {fill:#FEFEFE;fill-rule:nonzero}
    .fil1 {fill:#332C2B;fill-rule:nonzero}
   ]]>
  </style>
 </defs>
 <g id="图层_x0020_1">
  <metadata id="CorelCorpID_0Corel-Layer"/>
  <g id="_2577592200752">
   <g>
    <polygon class="fil0" points="1330.9,2534.8 2022.57,3353.1 3113.16,2981.86 3292.23,1505.09 1899.18,1550.52 "/>
    <path id="1" class="fil1" d="M2016.57 3361.06l-691.67 -818.3 12 -15.92 691.67 818.3 -10.25 16.15 -1.75 -0.23zm1.75 0.23l-1.21 0.41 -0.54 -0.64 1.75 0.23zm1090.59 -371.24l-1090.59 371.24 8.5 -16.38 1090.59 -371.24 2.08 2.11 -10.58 14.27zm10.58 -14.27l-1.35 11.13 -9.23 3.14 10.58 -14.27zm179.07 -1476.77l-179.07 1476.77 -12.66 12.16 179.07 -1476.77 11.36 -14.43 1.3 2.27zm-1.3 -2.27l1.58 -0.05 -0.28 2.32 -1.3 -2.27zm-1393.05 45.43l1393.05 -45.43 -10.06 16.7 -1393.05 45.43 0.85 -7.77 9.21 -8.93zm-9.21 8.93l5.08 -8.8 4.13 -0.13 -9.21 8.93zm-568.28 984.28l568.28 -984.28 8.36 -1.16 -568.28 984.28 -10.18 8.54 1.82 -7.38zm-1.82 7.38l-1.45 -1.72 3.27 -5.66 -1.82 7.38z"/>
   </g>
   <polygon class="fil2 str0" points="2199.94,2082.74 1969.02,2555.92 2555.78,2589.99 2714.77,2150.88 "/>
  </g>
  <line class="fil3 str0" x1="1330.9" y1="2534.8" x2="1899.18" y2= "1550.52" />
  <line class="fil3 str0" x1="3113.16" y1="2981.86" x2="3292.23" y2= "1505.09" />
  <line class="fil3 str0" x1="2022.57" y1="3353.1" x2="3113.16" y2= "2981.86" />
 </g>
</svg>
