<svg id="图层_1" data-name="图层 1" xmlns="http://www.w3.org/2000/svg" viewBox="0 0 24 24"><title>画板 2 副本 2-V</title><path d="M14.51,17.64l.13-.13c.42-.42.85-.73,1.26-.31L20.68,22a1.07,1.07,0,0,1,0,1.52h0l-.13.13a1.07,1.07,0,0,1-1.51,0L14.2,18.9C13.78,18.48,14.09,18,14.51,17.64Z" style="fill:gray"/><path d="M11,21.5A8.5,8.5,0,1,1,19.5,13,8.51,8.51,0,0,1,11,21.5Z" style="fill:#fff"/><path d="M11,5a8,8,0,1,1-8,8,8,8,0,0,1,8-8m0-1a9,9,0,1,0,9,9,9,9,0,0,0-9-9Z" style="fill:gray"/><rect x="6" y="12" width="10" height="2" rx="1" ry="1" style="fill:#4d84ba"/><rect x="10" y="8" width="2" height="10" rx="1" ry="1" style="fill:#4d84ba"/></svg>