<svg id="图层_1" data-name="图层 1" xmlns="http://www.w3.org/2000/svg" viewBox="0 0 24 24"><title>6属性刷-V</title><path d="M9.72,23.5a.88.88,0,0,1-.34-.1L.69,14.71a.59.59,0,0,1,0-.88l5-5.12L5,8a.59.59,0,0,1,0-.87L7.36,4.79A.53.53,0,0,1,7.8,4.6a.73.73,0,0,1,.44.19L9,5.58a4.52,4.52,0,0,0,3.41,1.5A5,5,0,0,0,16,5.58L21,.65a.52.52,0,0,1,.74,0l1.61,1.61a.52.52,0,0,1,0,.73L18.42,7.81a5.1,5.1,0,0,0,0,7l.79.79a.59.59,0,0,1,0,.88L16.83,18.9a.59.59,0,0,1-.88,0l-.69-.69L10.1,23.36l0,.07a.54.54,0,0,1-.23.06Z" style="fill:#fff"/><path d="M21.37,1h0L23,2.63,18,7.49a5.6,5.6,0,0,0,0,7.72l.79.79a.1.1,0,0,1,0,.17l-2.37,2.37,0,0h-.06l-.06-.05L16,18.2l-.71-.71-.71.71L9.81,23l0,0h0l-.07,0L2.74,16.06l-.11-.11L1,14.36c-.06-.06-.06-.11,0-.18L5.69,9.43l.7-.71L5.68,8l-.33-.33a.1.1,0,0,1,0-.17L7.72,5.15l.06,0h0l.11,0,.77.77a5,5,0,0,0,3.78,1.67A5.46,5.46,0,0,0,16.3,5.95L21.36,1h0m0-1a1,1,0,0,0-.72.3l-5,4.93a4.46,4.46,0,0,1-3.17,1.36A4,4,0,0,1,9.38,5.23l-.79-.79A1.22,1.22,0,0,0,7.8,4.1,1,1,0,0,0,7,4.44L4.64,6.81a1.09,1.09,0,0,0,0,1.58L5,8.73.34,13.48a1.09,1.09,0,0,0,0,1.58l1.58,1.58.11.11,7,7a1.21,1.21,0,0,0,.68.23h.11a.81.81,0,0,0,.68-.34l4.75-4.75.34.34a1.09,1.09,0,0,0,1.58,0l2.37-2.37a1.09,1.09,0,0,0,0-1.58l-.79-.79a4.58,4.58,0,0,1,0-6.33L23.7,3.35a1,1,0,0,0,0-1.44L22.09.3a1,1,0,0,0-.72-.3Z" style="fill:#4d84ba"/><line x1="3" y1="16" x2="8" y2="11" style="fill:none;stroke:#4d84ba;stroke-miterlimit:10"/><line x1="3" y1="16" x2="8" y2="11" style="fill:#fff"/><line x1="5" y1="18" x2="9" y2="14" style="fill:#fff;stroke:#4d84ba;stroke-miterlimit:10"/><line x1="7" y1="20" x2="12" y2="15" style="fill:#fff;stroke:#4d84ba;stroke-miterlimit:10"/><line x1="9" y1="22" x2="13" y2="18" style="fill:#fff;stroke:#4d84ba;stroke-miterlimit:10"/><line x1="5.98" y1="8.92" x2="15" y2="17.92" style="fill:#fff;stroke:#4d84ba;stroke-miterlimit:10"/></svg>