<svg id="图层_1" data-name="图层 1" xmlns="http://www.w3.org/2000/svg" viewBox="0 0 24 24"><title>画板 1</title><rect x="0.5" y="11.5" width="23" height="1" style="fill:#fff"/><rect x="11.5" y="0.5" width="1" height="23" style="fill:#fff"/><polygon points="24 11 13 11 13 0 11 0 11 11 0 11 0 13 11 13 11 24 13 24 13 13 24 13 24 11" style="fill:#4d84ba"/><polygon points="13 0 11 0 10 0 10 1 10 11 11 11 11 1 13 1 13 11 14 11 14 1 14 0 13 0" style="fill:#fff"/><polygon points="11 24 13 24 14 24 14 23 14 13 13 13 13 23 11 23 11 13 10 13 10 23 10 24 11 24" style="fill:#fff"/><polygon points="0 11 0 13 0 14 1 14 11 14 11 13 1 13 1 11 11 11 11 10 1 10 0 10 0 11" style="fill:#fff"/><polygon points="24 11 24 13 24 14 23 14 13 14 13 13 23 13 23 11 13 11 13 10 23 10 24 10 24 11" style="fill:#fff"/></svg>