<svg id="图层_1" data-name="图层 1" xmlns="http://www.w3.org/2000/svg" viewBox="0 0 24 24"><title>画板 3</title><path d="M16.26,16.5a.24.24,0,0,1-.17-.07L11.9,12.24a.24.24,0,0,1,0-.34.24.24,0,0,1,.17-.07.24.24,0,0,1,.17.07l4.19,4.19a.24.24,0,0,1,0,.34A.24.24,0,0,1,16.26,16.5Z" style="fill:#fff"/><path d="M12.07,11.33a.74.74,0,0,0-.52,1.26l4.19,4.19a.74.74,0,1,0,1-1L12.6,11.55a.74.74,0,0,0-.52-.22Z" style="fill:gray"/><path d="M8,15.5A7.51,7.51,0,0,1,.5,8,7.35,7.35,0,0,1,7.85.5,7.58,7.58,0,0,1,15.5,8,7.51,7.51,0,0,1,8,15.5Z" style="fill:#fff"/><path d="M7.85,1A7.17,7.17,0,0,1,15,8,7,7,0,0,1,1,8,6.85,6.85,0,0,1,7.85,1m0-1A7.88,7.88,0,0,0,0,8,8,8,0,0,0,16,8,8.13,8.13,0,0,0,7.85,0Z" style="fill:gray"/><polygon points="17.5 23.5 17.5 16.5 21.79 16.5 23.5 18.21 23.5 23.5 17.5 23.5" style="fill:#fff"/><path d="M21.59,17,23,18.41V23H18V17h3.59M22,16H17v8h7V18l-2-2Z" style="fill:gray"/><polygon points="22 16 21 16 21 18 21 19 22 19 24 19 24 18 22 18 22 16 22 16" style="fill:gray"/><path d="M4,8.5a.5.5,0,0,1,0-1h8a.5.5,0,0,1,0,1Z" style="fill:#fff"/><path d="M12,7H4A1,1,0,0,0,4,9h8a1,1,0,0,0,0-2Z" style="fill:#4d84ba"/><path d="M8,12.5a.5.5,0,0,1-.5-.5V4a.5.5,0,0,1,1,0v8A.5.5,0,0,1,8,12.5Z" style="fill:#fff"/><path d="M8,3A1,1,0,0,0,7,4v8a1,1,0,0,0,2,0V4A1,1,0,0,0,8,3Z" style="fill:#4d84ba"/></svg>