<svg id="图层_1" data-name="图层 1" xmlns="http://www.w3.org/2000/svg" viewBox="0 0 24 24"><title>1漫游-V</title><path d="M1.63,12.91a1.94,1.94,0,0,1,2.67,0l2.2,2a1.13,1.13,0,0,0,1.59.16L8.17,15c.27-.3.16-1.19.09-1.77L7.19,4.8A1.44,1.44,0,0,1,8.48,3.24a1.57,1.57,0,0,1,1.57,1.24l1.21,6.6c0,.16.2.19.22,0l.42-8.6a1.48,1.48,0,0,1,3,0v8.64c0,.09.08.13.09,0l1.32-6.6a1.48,1.48,0,0,1,1.64-1.29H18a1.42,1.42,0,0,1,1.19,1.56L18,12.61c0,.14,0,.22.13,0l1.79-4.18a1.57,1.57,0,0,1,1.85-1,1.42,1.42,0,0,1,1.12,1.91l-3.22,9.39v.16h0A6.47,6.47,0,0,1,13.4,23a9.27,9.27,0,0,1-5.23-1.64h0a65.68,65.68,0,0,1-6.65-5.93,1.67,1.67,0,0,1-.06-2.37Z" style="fill:#fff;stroke:gray;stroke-miterlimit:10"/></svg>