<svg id="图层_1" data-name="图层 1" xmlns="http://www.w3.org/2000/svg" viewBox="0 0 48 48"><title>19旋转-V</title><polygon points="28.18 33.24 24.5 36 24.5 24.95 33.85 31.32 29.29 32.69 32.33 38.78 31.22 39.33 28.18 33.24" style="fill:#fff"/><path d="M25,25.89l7.7,5.25-3,.9-1.14.34.53,1.06,2.55,5.11-.21.11-2.55-5.11-.54-1.07-1,.72L25,35V25.89M24,24V37l4-3,3,6,2-1-3-6,5-1.5L24,24Z" style="fill:gray"/><polygon points="43 40 39 37.51 43 35 43 40" style="fill:#4d84ba"/><path d="M43,37v1A4.49,4.49,0,1,1,38.05,43H37a5.5,5.5,0,1,0,6-6Z" style="fill:#4d84ba"/></svg>