<?xml version="1.0" standalone="no"?><!DOCTYPE svg PUBLIC "-//W3C//DTD SVG 1.1//EN" "http://www.w3.org/Graphics/SVG/1.1/DTD/svg11.dtd"><svg t="1573732251447" class="icon" viewBox="0 0 1024 1024" version="1.1" xmlns="http://www.w3.org/2000/svg" p-id="6733" xmlns:xlink="http://www.w3.org/1999/xlink" width="32" height="32"><defs><style type="text/css"></style></defs><path d="M0 512c0-18.867 15.283-34.133 34.133-34.133L989.867 477.867C1008.717 477.867 1024 493.133 1024 512c0 18.867-15.283 34.133-34.133 34.133l-955.733 0c-18.851 0-34.134-15.266-34.134-34.133z" fill="#707070" p-id="6734"></path><path d="M677.766 955.73300001l-354.724 0 177.362-307.20000001 177.362 307.20000001M796.007 1024L500.40400001 512 204.8 1024 796.007 1024zM677.765 68.267l-177.36200001 307.2-177.36199999-307.2L677.765 68.267M796.007 0L204.8 0l295.603 512L796.007 0z" fill="#707070" p-id="6735"></path></svg>