<?xml version="1.0" standalone="no"?><!DOCTYPE svg PUBLIC "-//W3C//DTD SVG 1.1//EN" "http://www.w3.org/Graphics/SVG/1.1/DTD/svg11.dtd"><svg t="1528249743395" class="icon" style="" viewBox="0 0 1024 1024" version="1.1" xmlns="http://www.w3.org/2000/svg" p-id="16023" xmlns:xlink="http://www.w3.org/1999/xlink" width="16" height="16"><defs><style type="text/css"></style></defs><path d="M911.4 512.1c0-220.5-179.4-400-400-400-19 0-37.8 1.3-56.1 3.9-159.6 60.7-273.1 215.1-273.1 396s113.5 335.4 273.1 396.1c18.4 2.6 37.2 3.9 56.1 3.9 220.5 0.1 400-179.3 400-399.9z" fill="#91B4FF" p-id="16024"></path><path d="M185.1 805.4c-6.8 0-13.5-2.9-18.2-8.6a444.03 444.03 0 0 1-37.2-52.1c-6.8-11.1-3.3-25.6 7.9-32.4 11.1-6.8 25.6-3.3 32.4 7.9 9.9 16.3 21.1 31.9 33.2 46.6 8.3 10 6.9 24.9-3.1 33.2-4.4 3.7-9.8 5.4-15 5.4z" fill="#3778FF" p-id="16025"></path><path d="M511.6 959.3c-92.9 0-182-28.2-257.7-81.7-10.6-7.5-13.2-22.2-5.7-32.9 7.5-10.7 22.2-13.2 32.9-5.7 67.7 47.8 147.3 73 230.5 73 220.5 0 400-179.4 400-400s-179.4-400-400-400-400 179.4-400 400c0 38.3 5.4 76.1 16 112.5 3.7 12.5-3.5 25.6-16 29.3-12.5 3.7-25.6-3.5-29.3-16-11.9-40.7-17.9-83-17.9-125.7C64.5 265.6 265.1 65 511.6 65s447.2 200.6 447.2 447.2-200.6 447.1-447.2 447.1z" fill="#3778FF" p-id="16026"></path><path d="M512.6 726.9c-13 0-23.6-10.6-23.6-23.6V321c0-13 10.6-23.6 23.6-23.6 13 0 23.6 10.6 23.6 23.6v382.3c0 13-10.6 23.6-23.6 23.6z" fill="#3778FF" p-id="16027"></path><path d="M702.5 536.9H320.3c-13 0-23.6-10.6-23.6-23.6 0-13 10.6-23.6 23.6-23.6h382.3c13 0 23.6 10.6 23.6 23.6-0.1 13-10.6 23.6-23.7 23.6z" fill="#3778FF" p-id="16028"></path></svg>