<svg id="图层_1" data-name="图层 1" xmlns="http://www.w3.org/2000/svg" viewBox="0 0 128 128"><title>画板 1</title><path d="M93.82,33.27H23.21a3,3,0,1,1,0-5.91H93.52a2.84,2.84,0,0,1,3.06,3A2.77,2.77,0,0,1,93.82,33.27ZM47.28,65.2H23.21a3,3,0,1,1,0-5.91H47.58a2.84,2.84,0,0,1,3.06,3A3.1,3.1,0,0,1,47.28,65.2Zm57.12,26.93L94.57,82.5a20,20,0,0,0,5.37-13.64A20.46,20.46,0,1,0,89.84,86.28l10,9.78a3.22,3.22,0,0,0,4.54.24A2.73,2.73,0,0,0,104.39,92.13ZM64.79,68.86A14.63,14.63,0,1,1,79.43,83.38,14.58,14.58,0,0,1,64.79,68.86ZM50.64,97.14H23.21a3,3,0,1,1,0-5.91H50.64a3,3,0,1,1,0,5.91Z" style="fill:#1296db"/></svg>