<svg id="图层_1" data-name="图层 1" xmlns="http://www.w3.org/2000/svg" viewBox="0 0 16 16"><title>画板 2</title><rect x="0.5" y="0.5" width="15" height="15" rx="0.5" ry="0.5" style="fill:#fff"/><path d="M15,1V15H1V1H15m0-1H1A1,1,0,0,0,0,1V15a1,1,0,0,0,1,1H15a1,1,0,0,0,1-1V1a1,1,0,0,0-1-1Z" style="fill:gray"/><polygon points="10.49 10.51 12.51 12.49 12.48 12.5 10.49 10.51" style="fill:#fff"/><path d="M10.53,10a.47.47,0,0,0-.34.14l-.05.05a.48.48,0,0,0,0,.67l2,2a.48.48,0,0,0,.67,0l.05-.05a.48.48,0,0,0,0-.67l-2-2a.47.47,0,0,0-.34-.14Z" style="fill:#4d84ba"/><circle cx="7.5" cy="7.5" r="4" style="fill:#fff"/><path d="M7.5,4A3.5,3.5,0,1,1,4,7.5,3.5,3.5,0,0,1,7.5,4m0-1A4.5,4.5,0,1,0,12,7.5,4.5,4.5,0,0,0,7.5,3Z" style="fill:#4d84ba"/></svg>