<svg id="图层_1" data-name="图层 1" xmlns="http://www.w3.org/2000/svg" viewBox="0 0 16 16"><title>画板 4</title><rect x="0.5" y="0.5" width="15" height="15" rx="0.5" ry="0.5" style="fill:#fff"/><path d="M15,1V15H1V1H15m0-1H1A1,1,0,0,0,0,1V15a1,1,0,0,0,1,1H15a1,1,0,0,0,1-1V1a1,1,0,0,0-1-1Z" style="fill:gray"/><path d="M4.16,9.75h0a1.85,1.85,0,0,0-.24.29,1.89,1.89,0,0,0-.15.29,2.51,2.51,0,0,0-.15.37q-.09.27-.18.59l-.18.62a3.85,3.85,0,0,0-.11.46c0,.19-.21.53-.14.62s.4-.09.6-.11l.44-.1.63-.19.63-.22.46-.19a1.38,1.38,0,0,0,.3-.18l.25-.21L4.24,9.67l-.08.08Zm0,0" style="fill:#4d84ba"/><path d="M13,4.49a1.17,1.17,0,0,0-.07-.24h0a2.52,2.52,0,0,0-.44-.65,2.06,2.06,0,0,0-.52-.43l-.26-.1A1.22,1.22,0,0,0,11.34,3a1,1,0,0,0-.33,0,1,1,0,0,0-.32.17l-.31.28-.32.3,2.09,2.1.17-.16.18-.18.24-.24a.89.89,0,0,0,.18-.28A.82.82,0,0,0,13,4.77a1.39,1.39,0,0,0,0-.28Zm0,0" style="fill:#4d84ba"/><path d="M5.09,8.8l-.43.43,2.1,2.11.44-.45L8,10.1l.9-.91,2.7-2.72L9.52,4.35Zm0,0" style="fill:#4d84ba"/></svg>