<svg id="图层_1" data-name="图层 1" xmlns="http://www.w3.org/2000/svg" viewBox="0 0 64 64"><title>画板 1</title><path d="M30.53,11.58H14.36a2.93,2.93,0,0,0-2.94,2.92v35a2.93,2.93,0,0,0,2.94,2.92H49.64a2.93,2.93,0,0,0,2.94-2.92v-16a1.45,1.45,0,0,0-.43-1,1.48,1.48,0,0,0-2.08,0,1.45,1.45,0,0,0-.43,1v16H14.36v-35H30.53a1.47,1.47,0,0,0,1-.43,1.45,1.45,0,0,0,0-2.06A1.47,1.47,0,0,0,30.53,11.58Z" style="fill:#1296db"/><path d="M48.17,14.5a1.46,1.46,0,0,1,1,.43,1.45,1.45,0,0,1,0,2.06L32.15,33.92l-2.64.57.57-2.64L47.14,14.93a1.48,1.48,0,0,1,1-.43m0-2.92a4.41,4.41,0,0,0-3.12,1.28L28,29.79a2.92,2.92,0,0,0-.8,1.45l-1.06,4.95a1.46,1.46,0,0,0,1.45,1.66h.21l5-1.07A2.9,2.9,0,0,0,34.23,36L51.29,19.05a4.35,4.35,0,0,0,0-6.19A4.41,4.41,0,0,0,48.17,11.58Z" style="fill:#1296db"/></svg>