<?xml version="1.0" standalone="no"?><!DOCTYPE svg PUBLIC "-//W3C//DTD SVG 1.1//EN" "http://www.w3.org/Graphics/SVG/1.1/DTD/svg11.dtd"><svg t="1605450766826" class="icon" viewBox="0 0 1170 1024" version="1.1" xmlns="http://www.w3.org/2000/svg" p-id="20892" xmlns:xlink="http://www.w3.org/1999/xlink" width="228.515625" height="200"><defs><style type="text/css"></style></defs><path d="M975.854574 768.937126l183.43901 184.8287c14.62831 14.774593 14.62831 44.32378 0 59.098373-14.701452 14.847735-44.031214 14.847735-58.732665 0l-183.43901-184.8287a632.893841 632.893841 0 0 1-117.39219 73.946108 469.129908 469.129908 0 0 1-176.051713 37.009625 467.228228 467.228228 0 0 1-352.176569-162.666809c-44.031214-51.784218 21.942465-103.495295 73.360976-44.396922a377.776111 377.776111 0 0 0 278.815593 125.730327c51.345369 0 102.690738-7.387297 146.721951-29.622329 44.031214-22.16189 88.062427-44.32378 124.706345-81.333404 36.717059-36.936483 66.046821-73.872967 80.748272-125.657185 14.62831-44.396921 29.25662-96.107998 29.25662-147.892216 0-51.711077-7.314155-96.107998-29.25662-140.431778-22.015607-44.396921-44.031214-88.720701-80.748272-125.730327-36.643917-36.936483-73.360976-66.558811-124.706345-81.333404-44.031214-22.16189-95.376583-29.549187-146.721951-29.549187-154.109248 0-286.202889 96.107998-344.862413 229.225621-14.62831 7.314155-22.015607 22.16189-44.031214 22.16189a40.300995 40.300995 0 0 1-36.717059-22.16189 47.468867 47.468867 0 0 1 0-44.396921C271.501437 118.269888 440.165854 0 623.678006 0c65.973679 0 124.706345 14.774593 176.051713 36.936483 58.732665 22.235032 110.078034 59.244656 154.109248 103.568437 44.031214 44.32378 73.360976 96.107998 95.376583 147.819074 21.942465 51.784218 36.643917 110.882591 36.643917 177.441403 0 66.558811-14.62831 125.730326-36.643917 177.441403-14.62831 51.784218-44.031214 88.720701-73.360976 125.730326zM21.942465 591.495723C14.62831 591.495723 0 584.108427 0 569.260692c0-14.774593 14.62831-22.16189 21.942465-22.16189h190.899449l110.004892-192.215996c7.314155-14.774593 21.942465-14.774593 36.643917-7.387297 7.314155-7.387297 7.314155 0 7.314155 0L476.882913 524.936912l51.41851-59.171515c7.314155-7.314155 29.25662-7.314155 36.643917 0l7.314155 7.387297 66.046821 125.730326 80.748272-332.720916c0-14.774593 14.62831-22.16189 29.329762-22.16189 7.314155 0 7.314155 0 14.62831 7.314155l117.465331 118.34303c7.314155 7.387297 7.314155 29.549187 0 37.009625-7.314155 7.314155-29.402904 7.314155-36.717058 0l-80.675131-81.333405L682.33753 680.216425c0 7.314155-7.314155 14.774593-14.628311 14.774593-14.701452 7.314155-29.402904 0-36.717058-7.387297L542.929733 532.324208l-51.345368 51.784219s0 7.314155-7.314156 7.314155c-7.314155 7.460438-22.015607 0-29.402903-7.314155L344.862413 413.981179 249.412689 576.647988c0 7.460438-14.701452 14.847735-22.015607 14.847735H21.942465z" p-id="20893" fill="#1296db"></path></svg>