<?xml version="1.0" standalone="no"?><!DOCTYPE svg PUBLIC "-//W3C//DTD SVG 1.1//EN" "http://www.w3.org/Graphics/SVG/1.1/DTD/svg11.dtd"><svg t="1539674204039" class="icon" style="" viewBox="0 0 1024 1024" version="1.1" xmlns="http://www.w3.org/2000/svg" p-id="4728" xmlns:xlink="http://www.w3.org/1999/xlink" width="200" height="200"><defs><style type="text/css"></style></defs><path d="M866.461538 0H157.538462a39.384615 39.384615 0 0 0 0 78.769231h708.923076a39.384615 39.384615 0 0 0 0-78.769231zM866.461538 945.230769H157.538462a39.384615 39.384615 0 0 0 0 78.769231h708.923076a39.384615 39.384615 0 0 0 0-78.769231z" fill="#13227a" p-id="4729"></path><path d="M157.538462 1.181538a39.384615 39.384615 0 0 0-27.884308 67.190154l473.088 473.088a39.384615 39.384615 0 1 0 55.768615-55.611077L185.422769 12.681846A39.542154 39.542154 0 0 0 157.538462 1.181538z" fill="#13227a" p-id="4730"></path><path d="M624.403692 478.365538a39.542154 39.542154 0 0 0-27.884307 11.500308l-466.865231 466.865231a39.384615 39.384615 0 0 0 55.768615 55.768615L652.209231 545.634462a39.384615 39.384615 0 0 0-27.805539-67.268924z" fill="#13227a" p-id="4731"></path></svg>