<?xml version="1.0" standalone="no"?><!DOCTYPE svg PUBLIC "-//W3C//DTD SVG 1.1//EN" "http://www.w3.org/Graphics/SVG/1.1/DTD/svg11.dtd"><svg t="1545221138674" class="icon" style="" viewBox="0 0 1024 1024" version="1.1" xmlns="http://www.w3.org/2000/svg" p-id="4503" xmlns:xlink="http://www.w3.org/1999/xlink" width="32" height="32"><defs><style type="text/css"></style></defs><path d="M512 624c-12.288 0-24.576-4.672-33.92-14.08l-256-256c-18.752-18.752-18.752-49.152 0-67.904s49.152-18.752 67.904 0L512 508.096l222.08-222.08c18.752-18.752 49.152-18.752 67.904 0s18.752 49.152 0 67.904l-256 256C536.576 619.328 524.288 624 512 624z" p-id="4504" fill="#1296db"></path><path d="M832 768c0-35.392-28.608-64-64-64L256 704c-35.392 0-64 28.608-64 64l0 0c0 35.392 28.608 64 64 64l512 0C803.392 832 832 803.392 832 768L832 768z" p-id="4505" fill="#1296db"></path></svg>