<svg id="Capa_1" enable-background="new 0 0 512 512" height="512" viewBox="0 0 512 512" width="512" xmlns="http://www.w3.org/2000/svg"><g><path d="m60 85.924h30v45h-30z" fill="#b4d2d7"/><path d="m512 85.924h-105.072l-20.016 72.552 125.088-20.016z" fill="#87a0af"/><path d="m406.928 138.46-20.016 72.552 125.088-20.016v-52.536z" fill="#b4d2d7"/><path d="m406.928 85.924h-150.928l-20.016 125.088 170.944-20.016z" fill="#e1ebf0"/><path d="m140.112 85.924v30.024h-140.112v75.048l256 20.016v-125.088z" fill="#fff5f5"/><path d="m512 190.996h-256l-20.016 117.54 20.016 117.54h256z" fill="#07485e"/><path d="m0 190.996h256v235.08h-256z" fill="#09607d"/><path d="m256 145.972-20.016 110.028 20.016 110.028c60.67 0 110.028-49.358 110.028-110.028s-49.358-110.028-110.028-110.028z" fill="#b4d2d7"/><path d="m145.972 256c0 60.67 49.358 110.028 110.028 110.028v-220.056c-60.67 0-110.028 49.358-110.028 110.028z" fill="#e1ebf0"/><path d="m256 175.972-20.016 80.028 20.016 80.028c44.128 0 80.028-35.9 80.028-80.028s-35.9-80.028-80.028-80.028z" fill="#e1ebf0"/><path d="m175.972 256c0 44.128 35.9 80.028 80.028 80.028v-160.056c-44.128 0-80.028 35.9-80.028 80.028z" fill="#fff5f5"/><path d="m256 220.972-20.016 35.028 20.016 35.028c19.314 0 35.028-15.714 35.028-35.028s-15.714-35.028-35.028-35.028z" fill="#04303e"/><path d="m220.972 256c0 19.314 15.713 35.028 35.028 35.028v-70.056c-19.314 0-35.028 15.713-35.028 35.028z" fill="#07485e"/></g></svg>