<?xml version="1.0" standalone="no"?><!DOCTYPE svg PUBLIC "-//W3C//DTD SVG 1.1//EN" "http://www.w3.org/Graphics/SVG/1.1/DTD/svg11.dtd"><svg t="1605452148318" class="icon" viewBox="0 0 1024 1024" version="1.1" xmlns="http://www.w3.org/2000/svg" p-id="28927" xmlns:xlink="http://www.w3.org/1999/xlink" width="200" height="200"><defs><style type="text/css"></style></defs><path d="M144.790359 240.412765c-78.898923 0-143.08986 64.191937-143.089861 143.08986s64.190937 143.08986 143.089861 143.089861 143.08986-64.191937 143.08986-143.089861-64.191937-143.08986-143.08986-143.08986z m0 198.961806c-30.80997 0-55.872945-25.064976-55.872946-55.872946 0-30.80797 25.062976-55.872945 55.872946-55.872945 30.80797 0 55.872945 25.065976 55.872945 55.872945 0 30.80897-25.068976 55.872945-55.872945 55.872946z m0-234.393771c27.095974 0 49.059952-21.961979 49.059952-49.059952V50.98995c0-27.097974-21.963979-49.059952-49.059952-49.059952-27.097974 0-49.059952 21.961979-49.059952 49.059952v104.931898c0 27.096974 21.962979 49.058952 49.059952 49.058952z m0 358.40465c-27.097974 0-49.059952 21.961979-49.059952 49.059952V974.939048c0 27.096974 21.961979 49.059952 49.059952 49.059952 27.095974 0 49.059952-21.962979 49.059952-49.059952V612.446402c0-27.098974-21.969979-49.059952-49.059952-49.059952z m367.74164-191.220813c-78.893923 0-143.08386 64.191937-143.08386 143.08986s64.185937 143.08986 143.08386 143.08986c78.902923 0 143.08986-64.187937 143.089861-143.08986 0-78.903923-64.186937-143.08986-143.089861-143.08986z m0 198.961805c-30.80397 0-55.866945-25.064976-55.866945-55.872945 0-30.80797 25.063976-55.871945 55.866945-55.871946 30.81297 0 55.872945 25.064976 55.872946 55.871946 0 30.80797-25.059976 55.872945-55.872946 55.872945z m0.007-236.683769c27.090974 0 49.057952-21.961979 49.057953-49.059952V49.625952c0-27.096974-21.959979-49.059952-49.057953-49.059953-27.098974 0-49.059952 21.962979-49.059952 49.059953v235.756769c0 27.098974 21.966979 49.059952 49.059952 49.059952z m0 363.855645c-27.098974 0-49.059952 21.961979-49.059952 49.059952v226.216779c0 27.097974 21.961979 49.059952 49.059952 49.059952 27.090974 0 49.057952-21.961979 49.057953-49.059952V747.35927c0-27.097974-21.959979-49.059952-49.057953-49.059952z m367.752641-201.365803c-78.903923 0-143.08986 64.185937-143.08986 143.08886 0 78.898923 64.185937 143.08286 143.08986 143.08286s143.08986-64.184937 143.089861-143.08286c0-78.903923-64.191937-143.08986-143.089861-143.08986z m0 198.954805c-30.80897 0-55.871945-25.060976-55.871945-55.866945 0-30.80797 25.062976-55.872945 55.871945-55.872945s55.872945 25.064976 55.872946 55.872945c0 30.80597-25.063976 55.866945-55.872946 55.866945z m0-236.069769c27.096974 0 49.059952-21.962979 49.059952-49.059952V49.625952c0-27.096974-21.962979-49.059952-49.059952-49.059953s-49.058952 21.962979-49.058952 49.059953v361.131647c0 27.096974 21.961979 49.059952 49.058952 49.059952z m0 363.855645c-27.096974 0-49.058952 21.960979-49.058952 49.058952v100.843901c0 27.097974 21.961979 49.059952 49.058952 49.059952 27.096974 0 49.059952-21.961979 49.059952-49.059952V872.732148c0-27.097974-21.968979-49.058952-49.059952-49.058952z" p-id="28928" fill="#1296db"></path></svg>