<?xml version="1.0" standalone="no"?>
<!DOCTYPE svg PUBLIC "-//W3C//DTD SVG 20010904//EN"
 "http://www.w3.org/TR/2001/REC-SVG-20010904/DTD/svg10.dtd">
<svg version="1.0" xmlns="http://www.w3.org/2000/svg"
 width="31.000000pt" height="31.000000pt" viewBox="0 0 31.000000 31.000000"
 preserveAspectRatio="xMidYMid meet">
<metadata>
Created by potrace 1.13, written by Peter Selinger 2001-2015
</metadata>
<g transform="translate(0.000000,31.000000) scale(0.100000,-0.100000)"
fill="#000000" stroke="none">
<path d="M0 155 l0 -155 155 0 155 0 0 155 0 155 -155 0 -155 0 0 -155z m140
70 l0 -55 -55 0 -55 0 0 55 0 55 55 0 55 0 0 -55z m140 0 l0 -55 -55 0 c-42 0
-55 -3 -55 -15 0 -8 -7 -15 -15 -15 -12 0 -15 -13 -15 -55 l0 -55 -55 0 -55 0
0 55 0 55 55 0 c42 0 55 3 55 15 0 8 7 15 15 15 12 0 15 13 15 55 l0 55 55 0
55 0 0 -55z m0 -140 l0 -55 -55 0 -55 0 0 55 0 55 55 0 55 0 0 -55z"/>
</g>
</svg>
