<?xml version="1.0" standalone="no"?>
<!DOCTYPE svg PUBLIC "-//W3C//DTD SVG 20010904//EN"
 "http://www.w3.org/TR/2001/REC-SVG-20010904/DTD/svg10.dtd">
<svg version="1.0" xmlns="http://www.w3.org/2000/svg"
 width="31.000000pt" height="31.000000pt" viewBox="0 0 31.000000 31.000000"
 preserveAspectRatio="xMidYMid meet">
<metadata>
Created by potrace 1.13, written by Peter Selinger 2001-2015
</metadata>
<g transform="translate(0.000000,31.000000) scale(0.100000,-0.100000)"
fill="#000000" stroke="none">
<path d="M0 155 l0 -155 155 0 155 0 0 155 0 155 -155 0 -155 0 0 -155z m152
68 l2 -58 3 58 4 57 59 0 60 0 0 -60 0 -60 -57 -2 -58 -2 58 -3 57 -4 0 -59 0
-60 -60 0 -60 0 -2 58 -2 57 -3 -57 -4 -58 -59 0 -60 0 0 60 0 60 58 2 57 2
-57 3 -58 4 0 59 0 60 60 0 60 0 2 -57z"/>
<path d="M80 228 c41 -45 50 -53 50 -45 0 2 -21 23 -47 47 l-48 45 45 -47z"/>
<path d="M220 225 c-24 -25 -42 -45 -39 -45 3 0 25 20 49 45 24 25 42 45 39
45 -3 0 -25 -20 -49 -45z"/>
<path d="M80 85 c-24 -25 -42 -45 -39 -45 3 0 25 20 49 45 24 25 42 45 39 45
-3 0 -25 -20 -49 -45z"/>
<path d="M220 88 c24 -27 45 -48 47 -48 8 0 0 9 -44 50 l-48 45 45 -47z"/>
</g>
</svg>
