<?xml version="1.0" standalone="no"?><!DOCTYPE svg PUBLIC "-//W3C//DTD SVG 1.1//EN" "http://www.w3.org/Graphics/SVG/1.1/DTD/svg11.dtd"><svg t="1605364898814" class="icon" viewBox="0 0 1024 1024" version="1.1" xmlns="http://www.w3.org/2000/svg" p-id="19956" xmlns:xlink="http://www.w3.org/1999/xlink" width="200" height="200"><defs><style type="text/css"></style></defs><path d="M512 0A512 512 0 1 1 0 512 512 512 0 0 1 512 0z m0 82.346667A429.653333 429.653333 0 1 0 941.653333 512 429.653333 429.653333 0 0 0 512 82.346667z" fill="#1296db" p-id="19957"></path><path d="M512 240h5.973333a35.413333 35.413333 0 0 1 9.6 2.56h1.28a34.56 34.56 0 0 1 9.173334 6.613333l192 180.266667a40.96 40.96 0 0 1-56.533334 59.52l-123.946666-115.84v383.36a41.173333 41.173333 0 0 1-82.346667 0V375.893333l-123.946667 115.84a40.96 40.96 0 0 1-56.533333-59.52l192-180.266666a34.56 34.56 0 0 1 9.173333-6.613334h1.493334a41.386667 41.386667 0 0 1 12.373333-3.626666H512z" fill="#1296db" p-id="19958"></path></svg>