<?xml version="1.0" standalone="no"?><!DOCTYPE svg PUBLIC "-//W3C//DTD SVG 1.1//EN" "http://www.w3.org/Graphics/SVG/1.1/DTD/svg11.dtd"><svg t="1605451364040" class="icon" viewBox="0 0 1024 1024" version="1.1" xmlns="http://www.w3.org/2000/svg" p-id="24276" xmlns:xlink="http://www.w3.org/1999/xlink" width="200" height="200"><defs><style type="text/css"></style></defs><path d="M591.4 850.38V651.27c0-8.8 1.68-17.27 5.05-25.4 3.37-8.13 8.16-15.31 14.39-21.53 6.22-6.22 13.4-11.02 21.53-14.39s16.6-5.05 25.4-5.05h199.11c8.8 0 17.27 1.68 25.4 5.05 8.13 3.37 15.31 8.16 21.53 14.39a65.799 65.799 0 0 1 14.39 21.53c3.37 8.13 5.05 16.6 5.05 25.4v199.11c0 8.8-1.68 17.27-5.05 25.4-3.37 8.13-8.16 15.31-14.39 21.53a65.799 65.799 0 0 1-21.53 14.39c-8.13 3.37-16.6 5.05-25.4 5.05H657.77c-8.8 0-17.27-1.69-25.4-5.05s-15.31-8.16-21.53-14.39a65.799 65.799 0 0 1-14.39-21.53c-3.37-8.13-5.05-16.6-5.05-25.4z" fill="#1296db" p-id="24277"></path><path d="M408.62 339.69c0 37.91-31.02 68.92-68.92 68.92H201.85c-37.91 0-68.92-31.02-68.92-68.92V201.84c0-37.91 31.02-68.92 68.92-68.92H339.7c37.91 0 68.92 31.02 68.92 68.92v137.85zM339.69 64H201.85C126.03 64 64 126.03 64 201.84v137.85c0 75.82 62.03 137.85 137.85 137.85H339.7c75.82 0 137.85-62.03 137.85-137.85V201.84C477.54 126.03 415.51 64 339.69 64z m551.39 758.15c0 37.91-31.01 68.92-68.92 68.92H684.31c-37.91 0-68.92-31.01-68.92-68.92V684.31c0-37.91 31.01-68.92 68.92-68.92h137.85c37.91 0 68.92 31.02 68.92 68.92v137.84z m-68.93-275.69H684.31c-75.82 0-137.85 62.03-137.85 137.84v137.85c0 75.82 62.03 137.85 137.85 137.85h137.85C897.97 960 960 897.97 960 822.15V684.31c0-75.82-62.03-137.85-137.85-137.85z m68.93-206.77c0 37.91-31.01 68.92-68.92 68.92H684.31c-37.91 0-68.92-31.02-68.92-68.92V201.84c0-37.91 31.01-68.92 68.92-68.92h137.85c37.91 0 68.92 31.02 68.92 68.92v137.85zM822.15 64H684.31c-75.82 0-137.85 62.03-137.85 137.84v137.85c0 75.82 62.03 137.85 137.85 137.85h137.85c75.82 0 137.85-62.03 137.85-137.85V201.84C960 126.03 897.97 64 822.15 64zM408.62 822.15c0 37.91-31.02 68.92-68.92 68.92H201.85c-37.91 0-68.92-31.01-68.92-68.92V684.31c0-37.91 31.02-68.92 68.92-68.92H339.7c37.91 0 68.92 31.02 68.92 68.92v137.84z m-68.93-275.69H201.85C126.03 546.46 64 608.49 64 684.31v137.85C64 897.97 126.03 960 201.85 960H339.7c75.82 0 137.85-62.03 137.85-137.85V684.31c-0.01-75.82-62.04-137.85-137.86-137.85z" fill="#1296db" p-id="24278"></path></svg>