<?xml version="1.0" standalone="no"?><!DOCTYPE svg PUBLIC "-//W3C//DTD SVG 1.1//EN" "http://www.w3.org/Graphics/SVG/1.1/DTD/svg11.dtd"><svg t="1602600862435" class="icon" viewBox="0 0 1024 1024" version="1.1" xmlns="http://www.w3.org/2000/svg" p-id="4535" xmlns:xlink="http://www.w3.org/1999/xlink" width="200" height="200"><defs><style type="text/css"></style></defs><path d="M916.491236 511.701325H876.099003l91.02475 460.8128a51.201422 51.201422 0 0 1-50.632517 51.201423H107.508764a51.201422 51.201422 0 0 1-50.632517-51.201423l91.02475-460.8128H107.508764a50.945415 50.945415 0 0 1-50.632517-51.201422v-51.201422a50.97386 50.97386 0 0 1 50.632517-51.201423h303.226201v-256.007111a101.265035 101.265035 0 1 1 202.53007 0v256.007111h303.226201a50.97386 50.97386 0 0 1 50.632517 51.201423v51.201422a50.945415 50.945415 0 0 1-50.632517 51.201422z m-808.982472 460.8128h153.319815a26.311842 26.311842 0 0 1-3.982333-18.489402l30.720853-227.817884a25.344704 25.344704 0 0 1 29.298592-20.765021 25.771383 25.771383 0 0 1 20.480569 29.66838l-30.720854 227.732548a22.528626 22.528626 0 0 1-3.982333 9.671379h613.848163l-100.980583-460.8128H208.489347z m455.123754-870.424178a50.632518 50.632518 0 1 0-101.265036 0v256.007111h101.265036v-256.007111z m353.858718 307.208534H107.508764v51.201422h808.982472v-51.201422z m0 0" p-id="4536" fill="#1296db"></path></svg>