<?xml version="1.0" standalone="no"?><!DOCTYPE svg PUBLIC "-//W3C//DTD SVG 1.1//EN" "http://www.w3.org/Graphics/SVG/1.1/DTD/svg11.dtd"><svg t="1605357235337" class="icon" viewBox="0 0 1024 1024" version="1.1" xmlns="http://www.w3.org/2000/svg" p-id="1177" xmlns:xlink="http://www.w3.org/1999/xlink" width="200" height="200"><defs><style type="text/css"></style></defs><path d="M960.2 533.3h-54.6c-8.1-16.4-17.8-31.4-29.1-44.9-33.8-40.3-77.9-62.5-124.3-62.5-15.5 0-30.7 2.5-45.3 7.3v-1c0-17-2.2-33.6-6.3-49.3 16.6-4.5 33.8-6.9 51.6-6.9 91.9-0.1 171.2 64.3 208 157.3zM625 272.8c-1.9-8.7-2.8-17.8-2.8-27.1 0-71.8 58.2-130 130-130s130 58.2 130 130-58.2 130-130 130c-20.9 0-40.7-5-58.3-13.8-13.8-36-38-66.9-68.9-89.1z m47.2-27.1c0 44.1 35.9 80 80 80s80-35.9 80-80-35.9-80-80-80-80 35.9-80 80zM314.9 432.4v-0.3c0-17.2 2.2-34 6.4-49.9-15.9-4.2-32.5-6.4-49.4-6.4-91.9 0-171.3 64.4-208.1 157.4h54.6c8.1-16.4 17.8-31.4 29.1-44.9 33.8-40.3 77.9-62.5 124.3-62.5 14.7 0.1 29.1 2.3 43.1 6.6zM141.8 245.7c0-71.8 58.2-130 130-130s130 58.2 130 130c0 8.6-0.8 17.1-2.5 25.2-32.6 22.6-57.9 54.7-72.1 92.4-16.8 7.9-35.6 12.4-55.5 12.4-71.7 0-129.9-58.2-129.9-130z m50 0c0 44.1 35.9 80 80 80s80-35.9 80-80-35.9-80-80-80-80 35.9-80 80zM853 908.3h-50.4c-3.7-25.9-10.4-51-20.2-75.2-15-37-36.4-70.2-63.7-98.6-27.1-28.3-58.7-50.5-93.8-66-36.1-15.9-74.5-24-114.1-24s-78 8.1-114.1 24c-35.1 15.5-66.6 37.7-93.8 66-27.3 28.5-48.7 61.6-63.7 98.6-9.8 24.2-16.6 49.4-20.2 75.2h-50.4C189.4 738.9 323 606.2 488.4 595.2c-80.2-10.9-142.1-79.7-142.1-163 0-90.9 73.6-164.5 164.5-164.5s164.5 73.6 164.5 164.5c0 83.2-61.8 152-142.1 163 165.4 11 299.1 143.6 319.8 313.1zM510.9 546.7c30.6 0 59.3-11.9 81-33.5 21.6-21.6 33.5-50.4 33.5-81s-11.9-59.3-33.5-81c-21.6-21.6-50.4-33.5-81-33.5s-59.3 11.9-81 33.5c-21.6 21.6-33.5 50.4-33.5 81s11.9 59.3 33.5 81c21.6 21.6 50.4 33.5 81 33.5z" fill="#1296db" p-id="1178"></path></svg>