<svg id="图层_1" data-name="图层 1" xmlns="http://www.w3.org/2000/svg" viewBox="0 0 16 16"><title>画板 4</title><polygon points="5.5 13.5 5.5 0.5 12.4 0.5 15.5 3.7 15.5 13.5 5.5 13.5" style="fill:#fff"/><path d="M12.19,1,15,3.9V13H6V1h6.19m.42-1H5V14H16V3.5L12.62,0Z" style="fill:gray"/><polygon points="5.5 13.5 5.5 0.5 12.12 0.5 12.12 4 15.5 4 15.5 13.5 5.5 13.5" style="fill:#fff"/><path d="M11.62,1V4.5H15V13H6V1h5.62m1-1H5V14H16V3.5H12.62V0Z" style="fill:gray"/><polygon points="5.5 13.5 5.5 0.5 12.4 0.5 15.5 3.7 15.5 13.5 5.5 13.5" style="fill:#fff"/><path d="M12.19,1,15,3.9V13H6V1h6.19m.42-1H5V14H16V3.5L12.62,0Z" style="fill:gray"/><polygon points="5.5 13.5 5.5 0.5 12.12 0.5 12.12 4 15.5 4 15.5 13.5 5.5 13.5" style="fill:#fff"/><path d="M11.62,1V4.5H15V13H6V1h5.62m1-1H5V14H16V3.5H12.62V0Z" style="fill:gray"/><polygon points="0.5 15.5 0.5 2.5 7.4 2.5 10.5 5.7 10.5 15.5 0.5 15.5" style="fill:#fff"/><path d="M7.19,3,10,5.9V15H1V3H7.19m.42-1H0V16H11V5.5L7.62,2Z" style="fill:gray"/><polygon points="0.5 15.5 0.5 2.5 7.12 2.5 7.12 6 10.5 6 10.5 15.5 0.5 15.5" style="fill:#fff"/><path d="M6.62,3V6.5H10V15H1V3H6.62m1-1H0V16H11V5.5H7.62V2Z" style="fill:gray"/></svg>