<?xml version="1.0" standalone="no"?><!DOCTYPE svg PUBLIC "-//W3C//DTD SVG 1.1//EN" "http://www.w3.org/Graphics/SVG/1.1/DTD/svg11.dtd"><svg t="1608305314487" class="icon" viewBox="0 0 1024 1024" version="1.1" xmlns="http://www.w3.org/2000/svg" p-id="3186" xmlns:xlink="http://www.w3.org/1999/xlink" width="200" height="200"><defs><style type="text/css"></style></defs><path d="M768 448V192L576 0H0v1024h768v-128h256V448h-256zM512 64h38.4L704 217.6V256H512V64z m192 896H64V64h384v256h256v128H128v448h576v64z m-52.48-320v192h-192v-64h128v-64h-128V512h192v64h-128v64h128zM384 768v64H192V512h192v64H256v192h128z m493.44 64h-76.8l-96-320h64l70.4 230.4 70.4-230.4h64l-96 320z" fill="#5AB48C" p-id="3187"></path></svg>