<?xml version="1.0" standalone="no"?><!DOCTYPE svg PUBLIC "-//W3C//DTD SVG 1.1//EN" "http://www.w3.org/Graphics/SVG/1.1/DTD/svg11.dtd"><svg t="1607440971905" class="icon" viewBox="0 0 1024 1024" version="1.1" xmlns="http://www.w3.org/2000/svg" p-id="6511" xmlns:xlink="http://www.w3.org/1999/xlink" width="200" height="200"><defs><style type="text/css"></style></defs><path d="M600.362667 79.232l7.808 0.426667c10.538667 0.981333 21.930667 4.010667 34.133333 9.088 15.232 6.4 27.306667 13.994667 36.181333 22.869333l148.565334 148.565333 5.162666 5.717334c6.741333 8.106667 12.629333 18.304 17.706667 30.464 6.314667 15.274667 9.514667 29.226667 9.514667 41.941333v548.565333l-0.384 6.186667c-1.237333 10.026667-5.546667 18.773333-12.970667 26.197333a44.074667 44.074667 0 0 1-32.384 13.312h-640l-6.186667-0.384a43.690667 43.690667 0 0 1-26.197333-12.928 44.074667 44.074667 0 0 1-13.312-32.426666V125.013333l0.384-6.229333c1.237333-10.026667 5.546667-18.773333 12.970667-26.154667 8.874667-8.917333 19.626667-13.354667 32.341333-13.354666h426.666667zM554.666667 140.202667H188.970667v731.434666h609.493333V384h-198.101333l-6.186667-0.384a43.690667 43.690667 0 0 1-26.197333-12.928 44.074667 44.074667 0 0 1-13.312-32.426667V140.245333z m60.970666 3.797333v179.029333h179.029334c-3.157333-9.173333-6.656-15.701333-10.496-19.498666L635.136 154.453333l-2.602667-2.261333a62.336 62.336 0 0 0-16.896-8.234667z" p-id="6512" fill="#e6e6e6"></path><path d="M471.893333 608c-34.389333-12.032-56.746667-31.018667-56.746666-61.098667 0-35.328 29.44-62.378667 78.250666-62.378666 23.338667 0 40.533333 4.949333 52.821334 10.453333l-10.453334 37.802667a98.133333 98.133333 0 0 0-43.306666-9.856c-20.224 0-30.08 9.216-30.08 19.968 0 13.226667 11.690667 19.029333 38.4 29.184 36.522667 13.482667 53.76 32.512 53.76 61.696 0 34.688-26.752 64.170667-83.541334 64.170666-23.637333 0-46.976-6.186667-58.666666-12.586666l9.514666-38.698667c12.629333 6.442667 31.957333 12.885333 51.925334 12.885333 21.461333 0 32.853333-8.917333 32.853333-22.4 0-12.928-9.813333-20.266667-34.730667-29.184z m-243.797333-13.568c0-70.570667 50.346667-109.909333 112.981333-109.909333 24.277333 0 42.666667 4.949333 50.986667 9.216l-9.514667 37.162666a101.376 101.376 0 0 0-39.296-7.68c-37.12 0-66.005333 22.4-66.005333 68.48 0 41.429333 24.533333 67.541333 66.304 67.541334 14.122667 0 29.781333-3.072 38.997333-6.784l7.04 36.565333c-8.576 4.266667-27.904 8.917333-53.077333 8.917333-71.552 0-108.373333-44.544-108.373333-103.509333z m461.525333 100.394667h-54.656l-66.304-206.933334h51.242667l25.173333 87.552c7.082667 24.533333 13.525333 48.213333 18.432 73.984h0.938667c5.205333-24.874667 11.648-49.450667 18.730667-73.088l26.368-88.405333h49.749333l-69.674667 206.933333z" p-id="6513" fill="#e6e6e6"></path></svg>