<?xml version="1.0" standalone="no"?><!DOCTYPE svg PUBLIC "-//W3C//DTD SVG 1.1//EN" "http://www.w3.org/Graphics/SVG/1.1/DTD/svg11.dtd"><svg t="1605363743612" class="icon" viewBox="0 0 1024 1024" version="1.1" xmlns="http://www.w3.org/2000/svg" p-id="17081" xmlns:xlink="http://www.w3.org/1999/xlink" width="200" height="200"><defs><style type="text/css"></style></defs><path d="M848.457143 204.8c0 102.4-182.857143 182.857143-416.914286 182.857143C204.8 387.657143 14.628571 307.2 14.628571 204.8S197.485714 21.942857 431.542857 21.942857c226.742857-7.314286 416.914286 80.457143 416.914286 182.857143zM526.628571 877.714286c-29.257143-7.314286-51.2-29.257143-58.514285-58.514286h-36.571429C204.8 819.2 14.628571 738.742857 14.628571 636.342857v138.971429c0 102.4 182.857143 182.857143 416.914286 182.857143 29.257143 0 65.828571 0 95.085714-7.314286-14.628571-21.942857-14.628571-51.2 0-73.142857z m0 0" p-id="17082" fill="#1296db"></path><path d="M431.542857 768h36.571429v-21.942857c0-36.571429 21.942857-65.828571 58.514285-73.142857-7.314286-14.628571-7.314286-29.257143-7.314285-51.2-29.257143 0-58.514286 7.314286-87.771429 7.314285C204.8 629.028571 14.628571 548.571429 14.628571 446.171429V585.142857c7.314286 102.4 190.171429 182.857143 416.914286 182.857143z m0 0" p-id="17083" fill="#1296db"></path><path d="M431.542857 577.828571c43.885714 0 80.457143 0 117.028572-7.314285l29.257142-29.257143c29.257143-29.257143 65.828571-29.257143 95.085715-14.628572 7.314286-36.571429 36.571429-58.514286 73.142857-58.514285h58.514286c21.942857-21.942857 36.571429-51.2 36.571428-73.142857V256C848.457143 351.085714 658.285714 438.857143 431.542857 438.857143 204.8 438.857143 21.942857 351.085714 21.942857 256v138.971429c0 102.4 182.857143 182.857143 409.6 182.857142z m577.828572 226.742858v-58.514286l-65.828572-14.628572c-7.314286-14.628571-7.314286-29.257143-21.942857-43.885714l36.571429-58.514286-43.885715-43.885714-58.514285 43.885714-43.885715-21.942857-7.314285-58.514285h-58.514286l-14.628572 65.828571c-14.628571 7.314286-29.257143 7.314286-43.885714 21.942857l-51.2-43.885714-43.885714 43.885714 36.571428 58.514286-21.942857 43.885714-65.828571 14.628572v51.2l65.828571 14.628571c7.314286 14.628571 7.314286 29.257143 21.942857 43.885714l-36.571428 58.514286 43.885714 43.885714 58.514286-36.571428 43.885714 21.942857 14.628572 65.828571h51.2l14.628571-65.828571c14.628571-7.314286 29.257143-7.314286 43.885714-21.942857l58.514286 36.571428 43.885714-43.885714-43.885714-58.514286 21.942857-43.885714 65.828572-14.628571z m-234.057143 51.2c-43.885714 0-80.457143-36.571429-80.457143-80.457143 0-43.885714 36.571429-80.457143 80.457143-80.457143 43.885714 0 80.457143 36.571429 80.457143 80.457143 0 43.885714-36.571429 80.457143-80.457143 80.457143z m0 0" p-id="17084" fill="#1296db"></path></svg>