<?xml version="1.0" standalone="no"?><!DOCTYPE svg PUBLIC "-//W3C//DTD SVG 1.1//EN" "http://www.w3.org/Graphics/SVG/1.1/DTD/svg11.dtd"><svg t="1605447501620" class="icon" viewBox="0 0 1024 1024" version="1.1" xmlns="http://www.w3.org/2000/svg" p-id="6672" xmlns:xlink="http://www.w3.org/1999/xlink" width="200" height="200"><defs><style type="text/css"></style></defs><path d="M794.4 655.49c40.58 0 73.6-33.02 73.6-73.6 0-40.58-33.02-73.6-73.6-73.6-40.58 0-73.6 33.02-73.6 73.6 0 2.93 0.19 5.82 0.53 8.67l-96.89 48.28c-14.45-12.44-33.24-19.97-53.75-19.97-45.48 0-82.48 37-82.48 82.48 0 45.48 37 82.48 82.48 82.48 19.25 0 36.98-6.63 51.03-17.73l63.48 46.23a73.103 73.103 0 0 0-5.19 27.1c0 40.58 33.02 73.6 73.6 73.6s73.6-33.02 73.6-73.6c0-40.58-33.02-73.6-73.6-73.6-13.93 0-26.97 3.89-38.08 10.64l-66.73-48.6a82.034 82.034 0 0 0 4.38-26.52c0-7.94-1.13-15.61-3.23-22.88l91.48-45.58c13.38 13.91 32.17 22.6 52.97 22.6z m-223.72 81.5c-19.65 0-35.64-15.99-35.64-35.64s15.99-35.64 35.64-35.64 35.64 15.99 35.64 35.64-15.99 35.64-35.64 35.64z m209.68 102.44c0 14.75-12 26.76-26.76 26.76s-26.76-12-26.76-26.76 12-26.76 26.76-26.76 26.76 12.01 26.76 26.76z m14.04-284.3c14.75 0 26.76 12 26.76 26.76s-12 26.76-26.76 26.76-26.76-12-26.76-26.76 12.01-26.76 26.76-26.76zM660.79 483.33c41.28-41.28 64.01-96.17 64.01-154.55s-22.73-113.26-64.01-154.54-96.17-64.01-154.54-64.01c-58.38 0-113.26 22.73-154.55 64.01-41.28 41.28-64.01 96.17-64.01 154.54s22.73 113.27 64.01 154.55a220.043 220.043 0 0 0 40.57 32.02c-9.83 3.21-19.55 6.84-29.15 10.9-43.79 18.52-83.1 45.03-116.86 78.79s-60.27 73.08-78.79 116.86c-19.18 45.35-28.9 93.5-28.9 143.13 0 13.81 11.19 25 25 25s25-11.19 25-25c0-175.17 142.51-317.68 317.68-317.68 58.37 0 113.26-22.74 154.54-64.02zM337.68 328.79c0-92.94 75.62-168.56 168.56-168.56S674.8 235.84 674.8 328.79c0 92.94-75.62 168.56-168.56 168.56s-168.56-75.62-168.56-168.56z" p-id="6673" fill="#1296db"></path></svg>