<?xml version="1.0" standalone="no"?><!DOCTYPE svg PUBLIC "-//W3C//DTD SVG 1.1//EN" "http://www.w3.org/Graphics/SVG/1.1/DTD/svg11.dtd"><svg t="1605450726166" class="icon" viewBox="0 0 1029 1024" version="1.1" xmlns="http://www.w3.org/2000/svg" p-id="20477" xmlns:xlink="http://www.w3.org/1999/xlink" width="200.9765625" height="200"><defs><style type="text/css"></style></defs><path d="M992.364 200.515H845.348a36.762 36.762 0 0 0 0 73.523h91.883a18.432 18.432 0 0 1 18.381 18.38v477.917a18.432 18.432 0 0 1-18.38 18.38H91.888a18.432 18.432 0 0 1-18.376-18.38V292.419a18.432 18.432 0 0 1 18.376-18.381h91.883a36.762 36.762 0 0 0 0-73.523H36.756A36.864 36.864 0 0 0 0 237.276v588.201a36.864 36.864 0 0 0 36.751 36.762h433.014v88.233H322.75a36.767 36.767 0 0 0 0 73.528h367.545a36.767 36.767 0 0 0 0-73.528H543.273v-88.233h449.09a36.864 36.864 0 0 0 36.757-36.762v-588.2a36.864 36.864 0 0 0-36.756-36.762zM514.56 477.916a236.815 236.815 0 0 0 142.003-47.764l109.466 109.49a36.756 36.756 0 1 0 51.978-51.988L708.265 377.887a238.449 238.449 0 1 0-193.705 100.03z m0-404.388a165.432 165.432 0 1 1-165.376 165.433A165.417 165.417 0 0 1 514.56 73.528zM264.192 715.192a36.864 36.864 0 0 0 36.751-36.766v-191.16a36.756 36.756 0 1 0-73.507 0v191.16a36.864 36.864 0 0 0 36.756 36.766z m146.995-139.704V678.4a36.756 36.756 0 1 0 73.508 0V575.488a36.756 36.756 0 1 0-73.508 0z m183.757 58.829v44.109a36.756 36.756 0 1 0 73.508 0v-44.11a36.756 36.756 0 1 0-73.508 0z" fill="#1296db" p-id="20478"></path></svg>