<?xml version="1.0" standalone="no"?><!DOCTYPE svg PUBLIC "-//W3C//DTD SVG 1.1//EN" "http://www.w3.org/Graphics/SVG/1.1/DTD/svg11.dtd"><svg t="1605452513993" class="icon" viewBox="0 0 1024 1024" version="1.1" xmlns="http://www.w3.org/2000/svg" p-id="30449" xmlns:xlink="http://www.w3.org/1999/xlink" width="200" height="200"><defs><style type="text/css"></style></defs><path d="M512 585.142857c142.628571 0 256-113.371429 256-256s-113.371429-256-256-256-256 113.371429-256 256 113.371429 256 256 256z m0-438.857143c102.4 0 182.857143 80.457143 182.857143 182.857143s-80.457143 182.857143-182.857143 182.857143-182.857143-80.457143-182.857143-182.857143 80.457143-182.857143 182.857143-182.857143z m0 182.857143c21.942857 0 36.571429-14.628571 36.571429-36.571428V219.428571c0-21.942857-14.628571-36.571429-36.571429-36.571428s-36.571429 14.628571-36.571429 36.571428v73.142858c0 21.942857 14.628571 36.571429 36.571429 36.571428z m0 109.714286c21.942857 0 36.571429-14.628571 36.571429-36.571429s-14.628571-36.571429-36.571429-36.571428-36.571429 14.628571-36.571429 36.571428 14.628571 36.571429 36.571429 36.571429z m424.228571 149.942857c-10.971429-3.657143-25.6-3.657143-36.571428-3.657143-36.571429 0-73.142857 14.628571-98.742857 40.228572-29.257143 32.914286-47.542857 73.142857-54.857143 113.371428l-25.6 135.314286c-3.657143 10.971429-3.657143 21.942857-3.657143 32.914286v7.314285c0 18.285714 18.285714 32.914286 36.571429 32.914286 32.914286-3.657143 62.171429-21.942857 84.114285-51.2l3.657143-3.657143 7.314286-43.885714-18.285714 18.285714-10.971429 10.971429c-10.971429 14.628571-25.6 25.6-43.885714 32.914285h-3.657143v-3.657142c0-10.971429 3.657143-18.285714 3.657143-29.257143l29.257143-153.6c3.657143-29.257143 14.628571-54.857143 25.6-80.457143 7.314286-10.971429 21.942857-18.285714 40.228571-18.285714 10.971429 0 25.6 3.657143 36.571429 10.971428l7.314285 3.657143 40.228572-43.885714-18.285715-7.314286z m-299.885714 321.828571c0-3.657143 0-3.657143 0 0 0-10.971429 0-21.942857 3.657143-29.257142l18.285714-95.085715 14.628572-65.828571h-10.971429c-21.942857 0-40.228571-3.657143-58.514286-3.657143-47.542857 0-91.428571 21.942857-120.685714 58.514286-29.257143 32.914286-43.885714 73.142857-47.542857 117.028571 0 51.2 25.6 58.514286 51.2 58.514286 25.6-3.657143 47.542857-14.628571 62.171429-32.914286 10.971429-10.971429 21.942857-25.6 32.914285-40.228571-3.657143 10.971429-3.657143 21.942857-3.657143 36.571428v7.314286c0 18.285714 18.285714 32.914286 36.571429 32.914286 32.914286-3.657143 62.171429-21.942857 80.457143-47.542857v-3.657143l10.971428-51.2-21.942857 21.942857c-32.914286 40.228571-47.542857 36.571429-47.542857 36.571428z m-36.571428-117.028571c-14.628571 29.257143-32.914286 54.857143-51.2 76.8-10.971429 14.628571-25.6 25.6-40.228572 32.914286-3.657143 0-7.314286 0-7.314286-21.942857 0-32.914286 10.971429-62.171429 25.6-91.428572 7.314286-21.942857 25.6-36.571429 47.542858-40.228571 14.628571 0 25.6 3.657143 36.571428 7.314285l-10.971428 36.571429zM475.428571 669.257143l7.314286-29.257143h-102.4l-7.314286 29.257143h36.571429c-10.971429 36.571429-29.257143 73.142857-54.857143 102.4l-47.542857 73.142857C303.542857 672.914286 259.657143 585.142857 179.2 585.142857c-36.571429 0-69.485714 25.6-102.4 69.485714l-3.657143 10.971429 25.6 14.628571 3.657143-7.314285c10.971429-25.6 32.914286-40.228571 58.514286-43.885715 21.942857 0 43.885714 18.285714 62.171428 54.857143 21.942857 65.828571 29.257143 135.314286 25.6 204.8V950.857143l36.571429-7.314286 171.885714-274.285714h18.285714z" fill="#1296db" p-id="30450"></path></svg>