<?xml version="1.0" standalone="no"?><!DOCTYPE svg PUBLIC "-//W3C//DTD SVG 1.1//EN" "http://www.w3.org/Graphics/SVG/1.1/DTD/svg11.dtd"><svg t="1605447538654" class="icon" viewBox="0 0 1024 1024" version="1.1" xmlns="http://www.w3.org/2000/svg" p-id="7471" xmlns:xlink="http://www.w3.org/1999/xlink" width="200" height="200"><defs><style type="text/css"></style></defs><path d="M462.649 494.11H121.943c-31.757 0-57.594-25.836-57.594-57.594V95.811c0-31.757 25.836-57.594 57.594-57.594h340.706c31.758 0 57.594 25.836 57.594 57.594v340.706c0 31.757-25.836 57.593-57.594 57.593z m-319.333-78.966h297.96v-297.96h-297.96v297.96zM462.649 994.782H121.943c-31.757 0-57.594-25.837-57.594-57.595V596.483c0-31.757 25.836-57.594 57.594-57.594h340.706c31.758 0 57.594 25.837 57.594 57.594v340.704c0 31.758-25.836 57.595-57.594 57.595z m-319.333-78.967h297.96V617.856h-297.96v297.959zM943.711 176.777H582.254c-20.877 0-37.801-16.924-37.801-37.801s16.924-37.801 37.801-37.801h361.457c20.877 0 37.801 16.924 37.801 37.801s-16.924 37.801-37.801 37.801zM943.711 309.305H582.254c-20.877 0-37.801-16.924-37.801-37.801s16.924-37.801 37.801-37.801h361.457c20.877 0 37.801 16.924 37.801 37.801s-16.924 37.801-37.801 37.801zM943.711 441.834H582.254c-20.877 0-37.801-16.924-37.801-37.801s16.924-37.801 37.801-37.801h361.457c20.877 0 37.801 16.924 37.801 37.801s-16.924 37.801-37.801 37.801zM943.711 684.783H582.254c-20.877 0-37.801-16.924-37.801-37.801s16.924-37.801 37.801-37.801h361.457c20.877 0 37.801 16.924 37.801 37.801s-16.924 37.801-37.801 37.801zM943.711 817.313H582.254c-20.877 0-37.801-16.924-37.801-37.801s16.924-37.801 37.801-37.801h361.457c20.877 0 37.801 16.924 37.801 37.801s-16.924 37.801-37.801 37.801zM943.711 949.842H582.254c-20.877 0-37.801-16.924-37.801-37.801s16.924-37.801 37.801-37.801h361.457c20.877 0 37.801 16.924 37.801 37.801s-16.924 37.801-37.801 37.801z" p-id="7472" fill="#1296db"></path></svg>