<?xml version="1.0" standalone="no"?><!DOCTYPE svg PUBLIC "-//W3C//DTD SVG 1.1//EN" "http://www.w3.org/Graphics/SVG/1.1/DTD/svg11.dtd"><svg t="1605447382262" class="icon" viewBox="0 0 1024 1024" version="1.1" xmlns="http://www.w3.org/2000/svg" p-id="4549" xmlns:xlink="http://www.w3.org/1999/xlink" width="200" height="200"><defs><style type="text/css"></style></defs><path d="M563.2 260.8c-17.6 0-33.6 4.8-46.4 17.6-12.8 12.8-17.6 25.6-17.6 40 0 16 4.8 30.4 17.6 40 12.8 12.8 27.2 17.6 46.4 17.6 17.6 0 33.6-4.8 46.4-17.6 12.8-9.6 17.6-25.6 17.6-40 0-16-4.8-30.4-17.6-40-14.4-12.8-28.8-17.6-46.4-17.6zM577.6 716.8c-16 0-22.4-3.2-30.4-8-4.8-4.8-8-12.8-8-25.6 0-4.8 0-12.8 3.2-22.4s3.2-17.6 4.8-25.6l27.2-94.4c3.2-8 4.8-17.6 4.8-27.2 0-9.6 3.2-17.6 3.2-20.8 0-20.8-8-35.2-20.8-48-16-12.8-33.6-17.6-60.8-17.6-16 0-30.4 3.2-46.4 8s-33.6 9.6-51.2 17.6l-8 27.2c4.8-3.2 12.8-4.8 17.6-4.8 8-3.2 16-3.2 20.8-3.2 16 0 22.4 3.2 27.2 8 4.8 4.8 8 12.8 8 25.6 0 8 0 12.8-3.2 22.4-3.2 8-3.2 16-4.8 25.6l-27.2 94.4c-3.2 9.6-4.8 17.6-4.8 25.6s-3.2 16-3.2 22.4c0 17.6 8 35.2 22.4 48 16 12.8 35.2 17.6 60.8 17.6 17.6 0 33.6-3.2 46.4-8s30.4-9.6 51.2-17.6l8-27.2c-3.2 3.2-9.6 3.2-17.6 4.8-3.2 3.2-11.2 3.2-19.2 3.2z" p-id="4550" fill="#1296db"></path><path d="M512 1024c-68.8 0-137.6-12.8-200-40-60.8-25.6-116.8-64-161.6-108.8-48-48-83.2-100.8-108.8-161.6C12.8 649.6 0 582.4 0 512c0-68.8 12.8-137.6 40-200 25.6-60.8 64-116.8 108.8-161.6 48-48 100.8-83.2 161.6-108.8C374.4 12.8 441.6 0 512 0s137.6 12.8 200 40c60.8 25.6 116.8 64 161.6 108.8 48 48 83.2 100.8 108.8 161.6 27.2 64 40 129.6 40 200 0 68.8-12.8 137.6-40 200-25.6 60.8-64 116.8-108.8 161.6-48 48-100.8 83.2-161.6 108.8C649.6 1008 580.8 1024 512 1024z m0-960C265.6 64 64 264 64 512s203.2 448 448 448 448-203.2 448-448S758.4 64 512 64z" p-id="4551" fill="#1296db"></path></svg>