<?xml version="1.0" standalone="no"?><!DOCTYPE svg PUBLIC "-//W3C//DTD SVG 1.1//EN" "http://www.w3.org/Graphics/SVG/1.1/DTD/svg11.dtd"><svg t="1605448229922" class="icon" viewBox="0 0 1169 1024" version="1.1" xmlns="http://www.w3.org/2000/svg" p-id="13722" xmlns:xlink="http://www.w3.org/1999/xlink" width="228.3203125" height="200"><defs><style type="text/css"></style></defs><path d="M917.942713 646.509798c-8.630997 0-16.529995 0.585-24.429992 1.827999L703.78078 319.5609a189.219941 189.219941 0 0 0 52.442984-130.486959A189.219941 189.219941 0 0 0 567.222823 0a189.219941 189.219941 0 0 0-189.073941 189.073941c0 50.614984 20.113994 96.32997 52.442983 130.486959l-192.730939 333.019896a188.269941 188.269941 0 0 0-48.786985-6.729998A189.219941 189.219941 0 0 0 0 834.925739 189.219941 189.219941 0 0 0 189.073941 1023.99968c87.771973 0 162.230949-60.342981 182.929943-141.457956H734.93977A188.561941 188.561941 0 0 0 917.869713 1023.99968a189.219941 189.219941 0 0 0 189.074941-189.073941A189.073941 189.073941 0 0 0 917.869713 646.509798zM510.97584 369.589885a189.366941 189.366941 0 0 0 112.273965 0l181.759943 314.075901c-34.156989 25.599992-59.244981 62.171981-70.216978 104.301968H372.004884a183.734943 183.734943 0 0 0-51.931984-88.429973l190.90294-329.946896z" p-id="13723" fill="#1296db"></path></svg>