<?xml version="1.0" standalone="no"?><!DOCTYPE svg PUBLIC "-//W3C//DTD SVG 1.1//EN" "http://www.w3.org/Graphics/SVG/1.1/DTD/svg11.dtd"><svg t="1605025259793" class="icon" viewBox="0 0 1080 1024" version="1.1" xmlns="http://www.w3.org/2000/svg" p-id="6553" xmlns:xlink="http://www.w3.org/1999/xlink" width="210.9375" height="200"><defs><style type="text/css"></style></defs><path d="M1080.888889 585.955556c0 11.377778-5.688889 19.911111-14.222222 28.444444-8.533333 8.533333-19.911111 11.377778-31.288889 11.377778h-150.755556c0 73.955556-14.222222 136.533333-45.511111 190.577778l139.377778 136.533333c8.533333 8.533333 14.222222 17.066667 14.222222 28.444444s-5.688889 19.911111-14.222222 28.444445c-8.533333 8.533333-17.066667 11.377778-31.288889 11.377778-11.377778 0-22.755556-2.844444-31.288889-11.377778L787.911111 881.777778c-2.844444 2.844444-5.688889 5.688889-11.377778 8.533333-5.688889 2.844444-14.222222 8.533333-28.444444 19.911111-14.222222 8.533333-28.444444 17.066667-42.666667 22.755556-14.222222 5.688889-34.133333 14.222222-54.044444 19.911111-22.755556 5.688889-42.666667 8.533333-65.422222 8.533333V375.466667h-85.333334v585.955555c-22.755556 0-45.511111-2.844444-68.266666-8.533333-22.755556-5.688889-42.666667-14.222222-59.733334-22.755556-17.066667-8.533333-31.288889-17.066667-45.511111-25.6-14.222222-8.533333-22.755556-14.222222-28.444444-19.911111l-14.222223-8.533333-122.311111 136.533333c-8.533333 5.688889-19.911111 11.377778-31.288889 11.377778-11.377778 0-19.911111-2.844444-28.444444-11.377778-8.533333-8.533333-14.222222-17.066667-14.222222-28.444444s2.844444-22.755556 11.377778-31.288889l136.533333-147.911111c-25.6-48.355556-39.822222-108.088889-39.822222-179.2H42.666667c-11.377778 0-22.755556-2.844444-31.288889-11.377778-5.688889-8.533333-11.377778-17.066667-11.377778-28.444444s5.688889-19.911111 14.222222-28.444445 19.911111-11.377778 31.288889-11.377778h150.755556v-193.422222l-116.622223-113.777778c-8.533333-8.533333-14.222222-17.066667-14.222222-28.444444s5.688889-19.911111 14.222222-28.444445c5.688889-11.377778 17.066667-14.222222 28.444445-14.222222s22.755556 2.844444 31.288889 11.377778l116.622222 113.777778h568.888889l116.622222-113.777778c8.533333-8.533333 19.911111-11.377778 31.288889-11.377778s22.755556 2.844444 31.288889 11.377778c8.533333 8.533333 14.222222 17.066667 14.222222 28.444444s-5.688889 19.911111-14.222222 28.444445l-116.622222 113.777778v193.422222h150.755555c11.377778 0 22.755556 2.844444 31.288889 11.377778 5.688889 8.533333 11.377778 19.911111 11.377778 31.288889zM756.622222 207.644444H324.266667c0-56.888889 19.911111-108.088889 62.577777-147.911111C429.511111 19.911111 480.711111 0 540.444444 0s110.933333 19.911111 153.6 59.733333c42.666667 42.666667 62.577778 91.022222 62.577778 147.911111z" p-id="6554" fill="#1296db"></path></svg>