<?xml version="1.0" standalone="no"?><!DOCTYPE svg PUBLIC "-//W3C//DTD SVG 1.1//EN" "http://www.w3.org/Graphics/SVG/1.1/DTD/svg11.dtd"><svg t="1534230059664" class="icon" style="" viewBox="0 0 1024 1024" version="1.1" xmlns="http://www.w3.org/2000/svg" p-id="15007" xmlns:xlink="http://www.w3.org/1999/xlink" width="64" height="64"><defs><style type="text/css"></style></defs><path d="M548.352 512l126.464-126.464a25.6 25.6 0 1 0-36.352-36.352L512 475.648 385.536 349.184a25.6 25.6 0 1 0-36.352 36.352L475.648 512l-126.464 126.464a25.6 25.6 0 1 0 36.352 36.352L512 548.352l126.464 126.464a25.6 25.6 0 0 0 36.352-36.352zM512 952.32a435.2 435.2 0 1 1 435.2-435.2 435.2 435.2 0 0 1-435.2 435.2z" fill="#515151" p-id="15008"></path></svg>