<?xml version="1.0" standalone="no"?><!DOCTYPE svg PUBLIC "-//W3C//DTD SVG 1.1//EN" "http://www.w3.org/Graphics/SVG/1.1/DTD/svg11.dtd"><svg t="1605447606221" class="icon" viewBox="0 0 1024 1024" version="1.1" xmlns="http://www.w3.org/2000/svg" p-id="8292" xmlns:xlink="http://www.w3.org/1999/xlink" width="200" height="200"><defs><style type="text/css"></style></defs><path d="M592.842 485.053H431.158V107.79h161.684v377.263m53.895 53.894V53.894H377.263v485.053h269.474z m107.789 377.264V269.474H916.21v700.632h53.895V215.58H700.631v754.526h53.895zM323.368 215.579H53.894v754.526h53.895V269.473h161.684v700.632h53.895z m53.895 485.053v2.695l2.695-2.695z m0 269.473h2.695l-2.695-2.695z m269.474 0v-2.695l-2.695 2.695z m0-269.473h-2.695l2.695 2.695zM512 873.634l96.472 96.472h35.571l2.695-2.695V931.84l-96.472-96.472 96.472-96.472v-35.571l-2.695-2.695h-35.571L512 797.102l-96.472-96.472h-35.571l-2.695 2.695v35.571l96.472 96.472-96.472 96.472v35.571l2.695 2.695h35.571z" p-id="8293" fill="#1296db"></path></svg>