<?xml version="1.0" standalone="no"?><!DOCTYPE svg PUBLIC "-//W3C//DTD SVG 1.1//EN" "http://www.w3.org/Graphics/SVG/1.1/DTD/svg11.dtd"><svg t="1548303404885" class="icon" style="" viewBox="0 0 1024 1024" version="1.1" xmlns="http://www.w3.org/2000/svg" p-id="18236" xmlns:xlink="http://www.w3.org/1999/xlink" width="64" height="64"><defs><style type="text/css"></style></defs><path d="M482.3 96H155.4C122.6 96 96 122.6 96 155.4v713.1c0 32.8 26.6 59.4 59.4 59.4h713.1c32.8 0 59.4-26.6 59.4-59.4V541.7c0-7.6-2.9-15.2-8.7-21-5.8-5.8-13.4-8.7-21-8.7s-15.2 2.9-21 8.7c-5.8 5.8-8.7 13.4-8.7 21v326.9H155.4V155.4h326.9c7.6 0 15.2-2.9 21-8.7 5.8-5.8 8.7-13.4 8.7-21s-2.9-15.2-8.7-21c-5.8-5.8-13.4-8.7-21-8.7z" p-id="18237" fill="#bfbfbf"></path><path d="M838.9 155.4c4.6 0 13.4 1.1 21 8.7 11.6 11.6 11.6 30.4 0 42L515 551l-53.4 11.6 11.5-53.7 344.8-344.8c7.5-7.5 16.4-8.7 21-8.7m0-59.4c-22.8 0-45.6 8.7-63 26.1L431.1 466.9c-8.1 8.1-13.7 18.4-16.1 29.6l-21.5 100.8c-2.6 18.2 11.6 33.9 29.3 33.9 1.4 0 2.8-0.1 4.3-0.3l100.6-21.8c11.2-2.4 21.4-8 29.4-16.1l344.8-344.8c34.8-34.8 34.8-91.3 0-126.1-17.4-17.4-40.2-26.1-63-26.1z" p-id="18238" fill="#bfbfbf"></path></svg>