<?xml version="1.0" standalone="no"?><!DOCTYPE svg PUBLIC "-//W3C//DTD SVG 1.1//EN" "http://www.w3.org/Graphics/SVG/1.1/DTD/svg11.dtd"><svg t="1605451911115" class="icon" viewBox="0 0 1024 1024" version="1.1" xmlns="http://www.w3.org/2000/svg" p-id="25643" xmlns:xlink="http://www.w3.org/1999/xlink" width="200" height="200"><defs><style type="text/css"></style></defs><path d="M34.133333 2.389333a34.133333 34.133333 0 0 1 33.8944 30.139734L68.266667 36.488533v919.04l920.132266 0.034134a34.133333 34.133333 0 0 1 33.8944 30.139733l0.238934 3.9936a34.133333 34.133333 0 0 1-30.139734 33.8944l-3.9936 0.238933H34.133333a34.133333 34.133333 0 0 1-33.8944-30.139733L0 989.696V36.488533a34.133333 34.133333 0 0 1 34.133333-34.133333z m894.327467 32.6656a93.866667 93.866667 0 0 1 5.7344 187.562667l-4.027733 0.1024-137.6256 337.3056c9.898667 13.892267 16.042667 30.583467 17.169066 48.64l0.170667 5.7344a93.866667 93.866667 0 1 1-186.538667-15.1552l-191.488-115.2c-14.097067 10.820267-31.300267 17.749333-50.0736 19.1488l-6.109866 0.2048-102.5024 252.347733c14.1312 15.394133 23.210667 35.498667 24.541866 57.719467l0.170667 5.7344a93.866667 93.866667 0 1 1-86.186667-93.525333l100.113067-246.3744a93.866667 93.866667 0 1 1 155.374933-53.6576l190.941867 114.858666a93.457067 93.457067 0 0 1 76.049067-18.2272l131.925333-323.242666A93.866667 93.866667 0 0 1 928.426667 35.054933zM204.014933 776.533333a42.666667 42.666667 0 1 0 0 85.333334 42.666667 42.666667 0 0 0 0-85.333334z m512-204.8a42.666667 42.666667 0 1 0 0 85.333334 42.666667 42.666667 0 0 0 0-85.333334z m-341.333333-204.8a42.666667 42.666667 0 1 0 0 85.333334 42.666667 42.666667 0 0 0 0-85.333334zM928.426667 86.254933a42.666667 42.666667 0 1 0 0 85.333334 42.666667 42.666667 0 0 0 0-85.333334z" p-id="25644" fill="#1296db"></path></svg>