<?xml version="1.0" standalone="no"?><!DOCTYPE svg PUBLIC "-//W3C//DTD SVG 1.1//EN" "http://www.w3.org/Graphics/SVG/1.1/DTD/svg11.dtd"><svg t="1605452113835" class="icon" viewBox="0 0 1145 1024" version="1.1" xmlns="http://www.w3.org/2000/svg" p-id="28101" xmlns:xlink="http://www.w3.org/1999/xlink" width="223.6328125" height="200"><defs><style type="text/css"></style></defs><path d="M1122.9309 354.481097a92.928261 92.928261 0 0 0-133.949615-12.833496L571.892665 86.696453A104.845079 104.845079 0 0 0 550.006971 35.706223 92.928261 92.928261 0 0 0 415.599018 22.987312a94.647033 94.647033 0 0 0-31.854571 60.500767L157.439496 217.781448a91.667829 91.667829 0 0 0-89.261549-19.135659A93.501185 93.501185 0 0 0 4.354222 316.209779a91.667829 91.667829 0 0 0 80.20935 66.917515l54.198603 239.138447a98.199161 98.199161 0 0 0-44.573481 80.20935 93.959524 93.959524 0 0 0 95.678296 95.678296 100.834611 100.834611 0 0 0 60.500767-22.229448l225.846612 133.147521c0 6.416748-3.208374 12.833496-3.208374 19.135659A95.678296 95.678296 0 0 0 664.591757 928.207119a101.865874 101.865874 0 0 0-9.510537-44.688066L1008.346114 504.243412a100.490857 100.490857 0 0 0 98.772085-12.718911 94.532448 94.532448 0 0 0 15.927286-137.501743z m-165.804185 114.584786L610.049399 838.945571a75.053035 75.053035 0 0 0-25.666992-6.302163l-50.76106-239.138448a126.730773 126.730773 0 0 0 70.125889-105.303418l353.837818-19.135659zM511.277314 854.987441L285.086947 721.037827c0-6.416748 3.208374-12.833496 3.208374-19.13566a92.469922 92.469922 0 0 0-6.416748-28.760781l117.907744-95.563711a113.782692 113.782692 0 0 0 73.334263 25.437822l50.99023 239.138448-12.718911 12.833496z m-309.378922-245.555196L147.814374 370.293798l207.398462 89.376132c0 6.416748-3.208374 12.718911-3.208374 19.13566a131.314164 131.314164 0 0 0 9.510537 50.990229l-118.022329 92.469922a89.949057 89.949057 0 0 0-41.479693-12.718911z m-12.604326-337.910533l210.377666-121.116118c3.208374 3.208374 3.208374 6.416748 6.416748 9.510537a122.376551 122.376551 0 0 0 41.479693 28.760781V357.574886a109.543055 109.543055 0 0 0-66.917515 44.688067l-191.356592-82.959385a241.888483 241.888483 0 0 0 0-47.781856z m366.671314-121.116118l401.619674 245.440611v9.510537l-363.348355 22.344033a129.480808 129.480808 0 0 0-82.959385-70.125889V188.676912a129.251638 129.251638 0 0 0 28.760781-15.927285 58.323656 58.323656 0 0 0 15.927285-22.344033z" p-id="28102" fill="#1296db"></path></svg>