<?xml version="1.0" standalone="no"?><!DOCTYPE svg PUBLIC "-//W3C//DTD SVG 1.1//EN" "http://www.w3.org/Graphics/SVG/1.1/DTD/svg11.dtd"><svg t="1605357617667" class="icon" viewBox="0 0 1024 1024" version="1.1" xmlns="http://www.w3.org/2000/svg" p-id="4404" xmlns:xlink="http://www.w3.org/1999/xlink" width="200" height="200"><defs><style type="text/css"></style></defs><path d="M666.9 116.4v-1.3h-0.5c-2.3 0-4.6 0.2-6.8 0.5-3.5 0.2-7 1.2-10.4 2.9-25.8 10.6-46.1 44.3-70.6 85.2C542.7 263.6 498 338 421.3 356.8c-30.2 7.4-66 50.2-100 93.5-3.1 3.9-6 7.6-8.5 10.8l-0.8 1.1L66.2 563.8 265.4 704c83.7-39.3 109.3 36 178.5 224.4 139.4-15.6 233-238.4 310.6-253C850.9 657.3 859 731 962 794.6c-103.5-224-213.4-657.3-295.1-678.2zM366.8 627.5L267.3 678l-155-109.1 208.9-86.4 40.5 30.1 62.1 47.1c-17.3 24-36.2 46.9-57 67.8z m70.3-86.8l-61.8-45.9-37.9-28.7c0.5-0.6 1-1.3 1.5-1.9 21.8-27.8 62.5-79.4 87.7-85.6 70.5-17.2 115-73.6 149.7-128.3-33.5 84.5-75 195-139.2 290.4z" fill="#418DE3" p-id="4405"></path></svg>