<svg id="图层_1" data-name="图层 1" xmlns="http://www.w3.org/2000/svg" viewBox="0 0 32 32"><title>画板 4</title><rect x="1.5" y="1.5" width="29" height="29" rx="1.52" ry="1.52" style="fill:#fff"/><path d="M29,2a1,1,0,0,1,1,1V29a1,1,0,0,1-1,1H3a1,1,0,0,1-1-1V3A1,1,0,0,1,3,2H29m0-1H3A2,2,0,0,0,1,3V29a2,2,0,0,0,2,2H29a2,2,0,0,0,2-2V3a2,2,0,0,0-2-2Z" style="fill:gray"/><rect x="1.5" y="1.5" width="29" height="29" rx="1.44" ry="1.44" style="fill:#fff"/><path d="M29.06,2a.94.94,0,0,1,.94.94V29.06a.94.94,0,0,1-.94.94H2.94A.94.94,0,0,1,2,29.06V2.94A.94.94,0,0,1,2.94,2H29.06m0-1H2.94A1.94,1.94,0,0,0,1,2.94V29.06A1.94,1.94,0,0,0,2.94,31H29.06A1.94,1.94,0,0,0,31,29.06V2.94A1.94,1.94,0,0,0,29.06,1Z" style="fill:gray"/><path d="M25.55,9.17l-1.7,1.7L19.18,6.15l1.7-1.7a1.27,1.27,0,0,1,1.78-.15l3.07,3.06a1.38,1.38,0,0,1-.18,1.81ZM10.45,14.83l7.92-7.89,4.7,4.68L11.89,22.86a.77.77,0,0,1-.41.23s0,0-.07,0L5.56,25a.47.47,0,0,1-.44-.08A.4.4,0,0,1,5,24.45L6.89,18.6s0,0,0-.08a.85.85,0,0,1,.26-.45l2.15-2m1.11,6.42L7.56,19.58,6.78,22,8,23.28Zm7.78-13.7a.45.45,0,0,0-.59,0L8.85,17.54a.4.4,0,0,0,0,.6.45.45,0,0,0,.59,0l8.74-8.76a.43.43,0,0,0,0-.6Z" style="fill:#4d84ba"/><rect x="3" y="26" width="26" height="1" rx="0.5" ry="0.5" style="fill:#5da58e"/></svg>