<?xml version="1.0" standalone="no"?><!DOCTYPE svg PUBLIC "-//W3C//DTD SVG 1.1//EN" "http://www.w3.org/Graphics/SVG/1.1/DTD/svg11.dtd"><svg t="1583385645055" class="icon" viewBox="0 0 1024 1024" version="1.1" xmlns="http://www.w3.org/2000/svg" p-id="1187" width="32" height="32" xmlns:xlink="http://www.w3.org/1999/xlink"><defs><style type="text/css"></style></defs><path d="M512 128c211.2 0 384 172.8 384 384s-172.8 384-384 384c-211.2 0-384-172.8-384-384S300.8 128 512 128M512 0C230.4 0 0 230.4 0 512s230.4 512 512 512c281.6 0 512-230.4 512-512S793.6 0 512 0L512 0z" p-id="1188" fill="#707070"></path><path d="M384 448l192 0 0 64-192 0 0-64Z" p-id="1189" fill="#707070"></path><path d="M448 512l128 0 0 192-128 0 0-192Z" p-id="1190" fill="#707070"></path><path d="M384 704l256 0 0 64-256 0 0-64Z" p-id="1191" fill="#707070"></path><path d="M512 320m-64 0a1 1 0 1 0 128 0 1 1 0 1 0-128 0Z" p-id="1192" fill="#707070"></path></svg>