<?xml version="1.0" standalone="no"?><!DOCTYPE svg PUBLIC "-//W3C//DTD SVG 1.1//EN" "http://www.w3.org/Graphics/SVG/1.1/DTD/svg11.dtd"><svg t="1607441009685" class="icon" viewBox="0 0 1024 1024" version="1.1" xmlns="http://www.w3.org/2000/svg" p-id="7357" xmlns:xlink="http://www.w3.org/1999/xlink" width="200" height="200"><defs><style type="text/css"></style></defs><path d="M842.883 368.005h-134.542v83.509h134.542v-83.509zM842.883 474.316h-134.542v83.596h134.542v-83.596zM842.883 261.694h-134.542v83.552h134.542v-83.552zM842.883 683.175h-134.542v83.552h134.542v-83.552zM904.77 178.141h-323.704c-3.988 0.020-7.778 0.851-11.217 2.342l0.275-90.358-479.998 95.676v652.355l480.042 95.72v-85.74c3.259 1.407 7.053 2.228 11.039 2.232h323.608c15.975 0 29.062-13.7 29.062-30.375v-611.389c-0.044-16.851-13.086-30.462-29.105-30.462M413.786 652.8l-58.211-3.807-43.636-110.119-47.226 102.547-54.578-3.763 69.065-125.35-61.756-136.686 54.49-3.807 36.371 102.503h7.266l40.003-110.163 58.211-3.763-72.741 144.302 72.741 148.11zM897.504 812.333h-327.338v-45.562h109.069v-83.596h-109.069v-18.995h109.069v-83.509h-109.069v-22.76h109.069v-83.596h-109.069v-22.803h109.069v-83.509h-109.069v-22.76h109.069v-83.552h-109.069v-45.562h327.338v596.2zM842.883 580.671h-134.542v83.509h134.542v-83.509z" p-id="7358" fill="#e6e6e6"></path></svg>