<?xml version="1.0" standalone="no"?><!DOCTYPE svg PUBLIC "-//W3C//DTD SVG 1.1//EN" "http://www.w3.org/Graphics/SVG/1.1/DTD/svg11.dtd"><svg t="1606047369663" class="icon" viewBox="0 0 1024 1024" version="1.1" xmlns="http://www.w3.org/2000/svg" p-id="2819" xmlns:xlink="http://www.w3.org/1999/xlink" width="200" height="200"><defs><style type="text/css"></style></defs><path d="M931.328 168.96h-351.232V96.768c0-15.36-9.728-28.672-24.576-32.256h-6.144c-2.56-0.512-5.632-0.512-8.192 0L404.48 89.6 90.624 147.456c-3.072 0.512-6.656 2.048-9.216 3.584-8.192 4.096-14.336 11.776-16.384 20.48-0.512 2.56-0.512 5.632 0 8.192v662.528c0.512 6.144 2.56 11.776 6.144 16.384l3.072 3.584 1.536 1.536c1.536 1.536 3.072 3.072 5.12 4.096l4.096 2.048c2.048 1.024 4.608 2.048 7.168 2.048l242.176 46.592 207.36 40.96h7.168c16.384-0.512 30.208-13.312 31.744-30.208v-75.264H931.84c15.36-2.048 27.136-13.824 29.184-29.184V201.728c0-16.896-12.8-31.232-29.696-32.768zM429.056 684.032c-0.512 0.512-1.024 0.512-1.536 0.512l-69.12-4.096c-5.632 0-6.656-3.584-8.192-7.68-14.336-36.352-27.648-72.704-41.472-109.056 0-2.56-2.048-5.12-3.584-9.216-7.68 18.432-15.36 36.352-22.528 53.248l-25.088 60.416c-1.024 4.096-5.12 6.656-9.216 5.632-17.92-1.536-35.328-2.56-53.248-3.072-7.168 0-8.192-2.048-5.12-8.192 24.064-47.104 47.616-95.232 71.68-142.336 3.584-6.144 3.584-13.824 0-19.456-22.528-47.104-43.52-91.648-66.048-138.752-4.608-9.216-2.048-10.752 19.968-11.776l35.328-2.56c8.192 0 9.728 0 11.776 6.144 13.312 34.816 26.624 70.144 39.936 104.96 0 2.048 2.048 4.608 3.072 7.68 15.36-34.816 32.768-75.776 46.592-110.08 6.144-15.36 8.192-15.872 22.528-16.384s33.28 0 45.056-2.048c2.048 0 4.608 0 5.632 1.536s0 3.584 0 5.632c-25.088 50.688-49.664 101.888-74.752 152.576-3.584 6.144-3.584 14.336 0 20.48 23.552 47.616 69.632 142.336 78.848 162.304 1.024 1.024 1.024 2.56-0.512 3.584z m273.92 72.704c0 2.56-2.048 4.608-4.608 4.608h-118.272v-67.072h118.272c2.56 0 4.608 2.048 4.608 4.608v57.856z m0-108.032c0 2.56-2.048 4.608-4.608 4.608h-118.272v-67.072h118.272c2.56 0 4.608 2.048 4.608 4.608v57.856z m0-108.544c0 2.56-2.048 4.608-4.608 4.608h-118.272V477.696h118.272c2.56 0 4.608 2.048 4.608 4.608v57.856z m0-107.52c0 2.56-2.048 4.608-4.608 4.608h-118.272V369.664h118.272c2.56 0 4.608 2.048 4.608 4.608v58.368z m0-108.032c0 2.56-2.048 4.608-4.608 4.608h-118.272V261.632h118.272c2.56 0 4.608 2.048 4.608 4.608v58.368z m189.952 432.128c0 2.56-2.048 4.608-4.608 4.608h-143.36c-2.56 0-4.608-2.048-4.608-4.608v-58.368c0-2.56 2.048-4.608 4.608-4.608h143.36c2.56 0 4.608 2.048 4.608 4.608v58.368z m0-108.032c0 2.56-2.048 4.608-4.608 4.608h-143.36c-2.56 0-4.608-2.048-4.608-4.608v-58.368c0-2.56 2.048-4.608 4.608-4.608h143.36c2.56 0 4.608 2.048 4.608 4.608v58.368z m0-108.544c0 2.56-2.048 4.608-4.608 4.608h-143.36c-2.56 0-4.608-2.048-4.608-4.608V482.304c0-2.56 2.048-4.608 4.608-4.608h143.36c2.56 0 4.608 2.048 4.608 4.608v57.856z m0-107.52c0 2.56-2.048 4.608-4.608 4.608h-143.36c-2.56 0-4.608-2.048-4.608-4.608V374.272c0-2.56 2.048-4.608 4.608-4.608h143.36c2.56 0 4.608 2.048 4.608 4.608v58.368z m0-108.032c0 2.56-2.048 4.608-4.608 4.608h-143.36c-2.56 0-4.608-2.048-4.608-4.608V266.24c0-2.56 2.048-4.608 4.608-4.608h143.36c2.56 0 4.608 2.048 4.608 4.608v58.368z" fill="#539168" p-id="2820"></path></svg>