<?xml version="1.0" standalone="no"?><!DOCTYPE svg PUBLIC "-//W3C//DTD SVG 1.1//EN" "http://www.w3.org/Graphics/SVG/1.1/DTD/svg11.dtd"><svg t="1575278797906" class="icon" viewBox="0 0 1024 1024" version="1.1" xmlns="http://www.w3.org/2000/svg" p-id="2814" xmlns:xlink="http://www.w3.org/1999/xlink" width="200" height="200"><defs><style type="text/css"></style></defs><path d="M382.3 764.9c20.6 11.9 44.2 15.8 66.2 11 16.5-3.6 30.7-11.8 41.1-23.5l-133.9-9.9c7.3 8.8 16.2 16.4 26.6 22.4zM339 711.2l168.9 12.5 27.9-48.4-194.7-14.4c-6.4 15.6-7.2 33.1-2.1 50.3zM628.5 338.4c-81.6-47.1-186.4-19-233.5 62.6-28.6 49.5-30.6 109.8-5.2 161.2l3.5 7.2-36.2 62.6 237.1 17.5c40.4-12.7 75.2-40 96.9-77.6 47.1-81.6 19-186.4-62.6-233.5z m-102.7 82.7c-11.6 20.1-37.2 26.9-57.3 15.4s-26.9-37.2-15.4-57.3c11.6-20.1 37.2-26.9 57.3-15.4 20.1 11.5 27 37.2 15.4 57.3z" fill="#FFBC00" p-id="2815"></path><path d="M643.5 312.4C547.5 257 424.4 290 369 386c-32.3 55.9-35.7 123.4-9.6 182.1l-40.1 69.5-0.3 0.4c-14.5 25.3-17.3 55.2-8 84.2 9.2 28.6 29.1 53 56.3 68.7 19.5 11.3 41 17.1 62.5 17.1 8.4 0 16.8-0.9 25.1-2.7 29.2-6.3 53.3-23.3 68.1-47.7l0.4-0.4 0.9-1.8 39.9-69.1c63.9-6.8 120.6-43.5 152.9-99.4 55.3-95.9 22.3-219.1-73.6-274.5z m-195 463.5c-22.1 4.8-45.6 0.9-66.2-11-10.3-6-19.3-13.6-26.5-22.4l133.9 9.9c-10.5 11.7-24.7 19.9-41.2 23.5z m59.4-52.2L339 711.2c-5.1-17.3-4.3-34.7 2.1-50.3l194.7 14.4-27.9 48.4z m183.2-151.8c-21.7 37.6-56.4 64.9-96.9 77.6L357.1 632l36.2-62.7-3.5-7.2c-25.3-51.4-23.4-111.6 5.2-161.2 47.1-81.6 151.9-109.7 233.5-62.6 81.6 47.2 109.7 152 62.6 233.6z" fill="#46287C" p-id="2816"></path><path d="M468.42516 436.496646a42 42 0 1 0 42-72.746134 42 42 0 1 0-42 72.746134Z" fill="#FFFFFF" p-id="2817"></path><path d="M308 810.2c-0.9 5.7-0.6 11.7 0.9 17.4 2.9 10.8 9.8 19.9 19.5 25.5 15.4 8.9 34.3 6.9 47.4-3.7L308 810.2z" fill="#FFBC00" p-id="2818"></path><path d="M406.2 832.3l-98.6-56.9c-7.2-4.1-16.3-1.7-20.5 5.5-9.6 16.6-12.2 36-7.2 54.6 5 18.6 16.9 34.1 33.5 43.7 11.3 6.5 23.6 9.6 35.8 9.6 24.9 0 49.1-12.9 62.4-35.9 2-3.4 2.5-7.5 1.5-11.4-0.9-3.9-3.4-7.2-6.9-9.2z m-77.7 20.8c-9.7-5.6-16.6-14.6-19.5-25.5-1.5-5.8-1.8-11.7-0.9-17.4l67.8 39.2c-13.2 10.6-32 12.7-47.4 3.7zM510.2 208.5c1.8 6.7 7.9 11.1 14.5 11.1 1.3 0 2.6-0.2 3.9-0.5 8-2.1 12.8-10.4 10.6-18.4l-24.5-91.5c-2.1-8-10.4-12.8-18.4-10.6-8 2.1-12.8 10.4-10.6 18.4l24.5 91.5zM877.8 318.9c-2.1-8-10.4-12.7-18.4-10.6l-91.5 24.5c-8 2.1-12.8 10.4-10.6 18.4 1.8 6.7 7.9 11.1 14.5 11.1 1.3 0 2.6-0.2 3.9-0.5l91.5-24.5c8-2.2 12.7-10.4 10.6-18.4zM656.9 257.9c2.4 1.4 4.9 2 7.5 2 5.2 0 10.2-2.7 13-7.5l47.4-82c4.1-7.2 1.7-16.3-5.5-20.5-7.2-4.1-16.3-1.7-20.5 5.5l-47.4 82c-4.1 7.2-1.6 16.4 5.5 20.5z" fill="#46287C" p-id="2819"></path></svg>