<svg id="图层_1" data-name="图层 1" xmlns="http://www.w3.org/2000/svg" viewBox="0 0 16 16"><title>画板 10-V</title><rect x="7.5" y="1.5" width="8" height="14" style="fill:#fff"/><path d="M15,2V15H8V2h7m1-1H7V16h9V1Z" style="fill:gray"/><rect x="12" y="3" width="2" height="2" style="fill:#4d84ba"/><rect x="9" y="3" width="2" height="2" style="fill:#4d84ba"/><rect x="12" y="6" width="2" height="2" style="fill:#4d84ba"/><rect x="9" y="6" width="2" height="2" style="fill:#4d84ba"/><rect x="12" y="9" width="2" height="2" style="fill:#4d84ba"/><rect x="9" y="9" width="2" height="2" style="fill:#4d84ba"/><rect x="12" y="12" width="2" height="2" style="fill:#4d84ba"/><rect x="9" y="12" width="2" height="2" style="fill:#4d84ba"/><rect x="0.5" y="1.5" width="2" height="2.2" style="fill:#fff"/><path d="M2,2V3.2H1V2H2M3,1H0V4.2H3V1Z" style="fill:gray"/><rect x="0.5" y="7.5" width="2" height="2.07" style="fill:#fff"/><path d="M2,8V9.07H1V8H2M3,7H0v3.07H3V7Z" style="fill:gray"/><rect x="0.5" y="13.5" width="2" height="2" style="fill:#fff"/><path d="M2,14v1H1V14H2m1-1H0v3H3V13Z" style="fill:gray"/><rect x="3" y="8" width="5" height="1" style="fill:#fff"/><polygon points="8 8 3 8 3 9 8 9 8 8 8 8" style="fill:gray"/><polygon points="6 2 5 2 5 15 6 15 6 2 6 2" style="fill:gray"/><rect x="3.5" y="2.5" width="2" height="0.13" style="fill:#fff"/><polygon points="6 2 3 2 3 3.13 6 3.13 6 2 6 2" style="fill:gray"/><rect x="3" y="14" width="3" height="1" style="fill:#fff"/><polygon points="6 14 3 14 3 15 6 15 6 14 6 14" style="fill:gray"/></svg>