<?xml version="1.0" standalone="no"?><!DOCTYPE svg PUBLIC "-//W3C//DTD SVG 1.1//EN" "http://www.w3.org/Graphics/SVG/1.1/DTD/svg11.dtd"><svg t="1605366017528" class="icon" viewBox="0 0 1075 1024" version="1.1" xmlns="http://www.w3.org/2000/svg" p-id="22320" xmlns:xlink="http://www.w3.org/1999/xlink" width="209.9609375" height="200"><defs><style type="text/css"></style></defs><path d="M802.56 236.032H222.6176a40.0896 40.0896 0 0 0-40.0384 39.936c0 22.016 18.0224 39.9872 40.0384 39.9872h579.9424c22.016 0 39.9872-17.9712 39.9872-39.936a40.0896 40.0896 0 0 0-39.9872-40.0384z m0 237.9264H222.6176a40.0896 40.0896 0 0 0-40.0384 39.9872c0 22.016 18.0224 40.0384 40.0384 40.0384h579.9424c22.016 0 39.9872-18.0224 39.9872-40.0384a40.0896 40.0896 0 0 0-39.9872-39.936z" fill="#1296db" p-id="22321"></path><path d="M964.4544 0H60.5184C27.4944 0 0.512 26.9824 0.512 60.0064v669.952c0 32.9728 26.9824 60.0064 60.0064 60.0064h92.0064v190.6688a40.2432 40.2432 0 0 0 13.8752 33.8944c9.216 7.7824 20.992 10.7008 32.1024 9.0112h0.2048a32.512 32.512 0 0 0 1.3824-0.3072l0.7168-0.1024 1.024-0.2048 1.024-0.3072 0.6656-0.2048c0.3584-0.1024 0.8704-0.3072 1.28-0.3584 0.2048 0 0.3072-0.1024 0.512-0.2048l1.3824-0.512 0.4096-0.2048 1.3824-0.6144 0.4096-0.2048 1.28-0.5632c0.2048-0.1024 0.3072-0.2048 0.512-0.2048l1.3312-0.7168 0.512-0.3072c0.3584-0.2048 0.768-0.512 1.1776-0.6656a0.768 0.768 0 0 1 0.4096-0.2048l1.28-0.9216 0.2048-0.2048a44.544 44.544 0 0 0 8.6016-8.192l185.8048-218.368h554.4448c32.9728 0 60.0064-27.0336 60.0064-60.0064V60.0064C1024.4608 26.9824 997.376 0 964.4544 0z m-19.968 649.9328c0 33.024-27.0336 60.0064-60.0576 60.0064H391.5776a39.8336 39.8336 0 0 0-30.4128 14.0288l-128.6656 151.04v-116.5824c0-1.3824-0.1024-2.7648-0.2048-4.1984 0.1024-1.3824 0.2048-2.7648 0.2048-4.1984a39.9872 39.9872 0 0 0-39.9872-39.936H140.4928a60.16 60.16 0 0 1-60.0064-60.0576V139.9808c0-32.9728 27.0336-60.0064 60.0064-60.0064h743.936c33.024 0 60.0064 27.0336 60.0064 60.0064v509.952z" fill="#1296db" p-id="22322"></path></svg>