<?xml version="1.0" standalone="no"?><!DOCTYPE svg PUBLIC "-//W3C//DTD SVG 1.1//EN" "http://www.w3.org/Graphics/SVG/1.1/DTD/svg11.dtd"><svg t="1605447298840" class="icon" viewBox="0 0 1024 1024" version="1.1" xmlns="http://www.w3.org/2000/svg" p-id="2841" xmlns:xlink="http://www.w3.org/1999/xlink" width="200" height="200"><defs><style type="text/css"></style></defs><path d="M576.853333 1023.744a102.4 102.4 0 0 1-48.298666-11.946667l-131.754667-73.472a98.986667 98.986667 0 0 1-52.309333-88.064V431.872a20.736 20.736 0 0 0-7.936-15.872L32.085333 171.776l-3.328-4.010667A97.109333 97.109333 0 0 1 9.557333 59.904a97.536 97.536 0 0 1 91.306667-59.648h821.589333c39.68 0 75.434667 23.210667 91.989334 59.648 16.554667 36.352 9.301333 78.08-17.92 107.861333l-3.925334 4.010667-308.48 246.869333a21.162667 21.162667 0 0 0-7.253333 15.872v488.533334c0.597333 56.32-44.373333 100.693333-100.010667 100.693333zM84.48 112.128l303.189333 242.346667c23.808 19.2 37.717333 47.616 37.717334 78.08v418.389333c0 7.253333 3.328 14.506667 9.898666 17.92l131.754667 72.106667c5.973333 3.328 13.909333 3.328 20.48 0a20.821333 20.821333 0 0 0 9.984-17.92V435.2c0-30.464 13.226667-58.88 37.034667-78.08l303.786666-244.906667a20.48 20.48 0 0 0 2.048-21.248 19.968 19.968 0 0 0-17.92-11.264H101.034667a18.773333 18.773333 0 0 0-17.92 11.264 20.224 20.224 0 0 0 1.365333 21.162667z" fill="#1296db" p-id="2842"></path><path d="M982.698667 527.872H756.906667a39.850667 39.850667 0 0 1-39.68-39.68c0-21.845333 17.92-39.765333 39.68-39.765333h225.792c21.845333 0 39.68 17.92 39.68 39.765333a38.997333 38.997333 0 0 1-39.68 39.68z m0 149.589333H756.906667a39.850667 39.850667 0 0 1-39.68-39.68c0-21.845333 17.92-39.765333 39.68-39.765333h225.792c21.845333 0 39.68 17.92 39.68 39.765333a38.997333 38.997333 0 0 1-39.68 39.68z m0 148.992H756.906667a39.850667 39.850667 0 0 1-39.68-39.765333c0-21.845333 17.92-39.68 39.68-39.68h225.792c21.845333 0 39.68 17.92 39.68 39.68a39.424 39.424 0 0 1-39.68 39.765333z" fill="#1296db" p-id="2843"></path></svg>