<?xml version="1.0" standalone="no"?><!DOCTYPE svg PUBLIC "-//W3C//DTD SVG 1.1//EN" "http://www.w3.org/Graphics/SVG/1.1/DTD/svg11.dtd"><svg t="1602602637431" class="icon" viewBox="0 0 1024 1024" version="1.1" xmlns="http://www.w3.org/2000/svg" p-id="18399" xmlns:xlink="http://www.w3.org/1999/xlink" width="200" height="200"><defs><style type="text/css"></style></defs><path d="M781.799619 712.801524l208.700952 208.749714-68.949333 68.998095-208.700952-208.749714A437.052952 437.052952 0 0 1 438.857143 877.714286a438.759619 438.759619 0 0 1-393.264762-243.809524H341.333333l-63.585523 105.959619A339.968 339.968 0 0 0 438.857143 780.190476a340.21181 340.21181 0 0 0 237.714286-96.304762l7.314285-7.314285A340.21181 340.21181 0 0 0 780.190476 438.857143c0-33.889524-4.924952-66.608762-14.140952-97.52381h100.790857c7.119238 31.353905 10.873905 64.024381 10.873905 97.52381a437.052952 437.052952 0 0 1-95.914667 273.944381zM832.121905 243.809524H536.380952l63.585524-105.959619A339.968 339.968 0 0 0 438.857143 97.52381C250.246095 97.52381 97.52381 250.246095 97.52381 438.857143c0 33.889524 4.924952 66.608762 14.140952 97.523809H10.873905A440.710095 440.710095 0 0 1 0 438.857143c0-242.492952 196.36419-438.857143 438.857143-438.857143a438.759619 438.759619 0 0 1 393.264762 243.809524z" p-id="18400" fill="#1296db"></path></svg>