<?xml version="1.0" standalone="no"?><!DOCTYPE svg PUBLIC "-//W3C//DTD SVG 1.1//EN" "http://www.w3.org/Graphics/SVG/1.1/DTD/svg11.dtd"><svg t="1585037245620" class="icon" viewBox="0 0 1024 1024" version="1.1" xmlns="http://www.w3.org/2000/svg" p-id="1869" xmlns:xlink="http://www.w3.org/1999/xlink" width="200" height="200"><defs><style type="text/css"></style></defs><path d="M331.627743 665.061737m-325.847739 0a325.847739 325.847739 0 1 0 651.695478 0 325.847739 325.847739 0 1 0-651.695478 0Z" fill="#E9EAEB" p-id="1870"></path><path d="M528.919994 445.712772m-218.683482 126.256967a252.513935 252.513935 0 1 0 437.366965-252.513935 252.513935 252.513935 0 1 0-437.366965 252.513935Z" fill="#A3D4FF" p-id="1871"></path><path d="M529.376138 714.480773A268.986947 268.986947 0 0 1 296.225217 580.095675a268.986947 268.986947 0 1 1 233.295421 134.385098zM528.581387 209.525153a236.329923 236.329923 0 0 0-204.250899 354.02526 236.113173 236.113173 0 1 0 204.250899-354.02526z" fill="#2A5082" p-id="1872"></path><path d="M528.919994 445.712772m-218.683482 126.256967a252.513935 252.513935 0 1 0 437.366965-252.513935 252.513935 252.513935 0 1 0-437.366965 252.513935Z" fill="#A3D4FF" p-id="1873"></path><path d="M529.376138 714.480773A268.986947 268.986947 0 0 1 296.225217 580.095675a268.986947 268.986947 0 1 1 233.295421 134.385098zM528.581387 209.525153a236.329923 236.329923 0 0 0-204.250899 354.02526 236.113173 236.113173 0 1 0 204.250899-354.02526z" fill="#2A5082" p-id="1874"></path><path d="M344.488252 544.548649a204.034149 204.034149 0 0 1-18.351513-42.266281l31.139773-9.537007a171.738376 171.738376 0 0 0 15.461511 35.474776zM317.900233 455.753334A202.300148 202.300148 0 0 1 419.050307 267.325196l16.256262 28.24977A169.570874 169.570874 0 0 0 350.196006 453.730332z" fill="#2A5082" p-id="1875"></path><path d="M95.58682 746.776547c-38.292528 0-46.818034-14.450011-50.575037-21.675016C11.126508 666.795738 171.593876 541.875397 270.215198 472.515346l18.785014 26.73252c-179.396881 125.931842-223.324914 196.736894-215.883158 209.525153 3.612503 6.285755 39.520779 14.955761 153.386862-25.576519C323.752487 648.733225 445.999577 589.993932 570.775418 518.032879s236.691173-148.546109 315.299231-215.449657c91.902067-78.608058 102.378325-113.866083 98.765822-120.079588-7.225005-12.932759-90.746066-10.259508-289.505962 82.14831l-13.72751-29.550272c109.31433-50.575037 297.742468-127.232343 331.483243-68.8543 45.878784 79.475058-258.582939 283.364708-426.275312 380.035278C460.666337 619.182954 336.468496 678.789247 237.341424 714.047273c-69.721301 24.781768-113.721583 32.729274-141.754604 32.729274z" fill="#2A5082" p-id="1876"></path><path d="M700.319763 159.817117a65.025048 65.025048 0 1 1 65.025048-65.025048 65.025048 65.025048 0 0 1-65.025048 65.025048z m0-97.971072a32.657024 32.657024 0 1 0 32.657024 32.657024 32.729274 32.729274 0 0 0-32.657024-32.657024zM194.569393 290.445213A97.320821 97.320821 0 1 1 291.890214 193.124391 97.465321 97.465321 0 0 1 194.569393 290.445213z m0-162.056869a65.025048 65.025048 0 1 0 65.025047 65.025048 65.025048 65.025048 0 0 0-65.025047-65.025048zM356.048261 871.118888a70.443802 70.443802 0 1 1 70.227051-70.443802 70.516052 70.516052 0 0 1-70.227051 70.443802z m0-108.375079a37.859028 37.859028 0 1 0 37.859028 37.859027 37.931278 37.931278 0 0 0-37.859028-37.786777z" fill="#BCC0C4" p-id="1877"></path></svg>