<?xml version="1.0" standalone="no"?><!DOCTYPE svg PUBLIC "-//W3C//DTD SVG 1.1//EN" "http://www.w3.org/Graphics/SVG/1.1/DTD/svg11.dtd"><svg t="1526975473642" class="icon" style="" viewBox="0 0 1024 1024" version="1.1" xmlns="http://www.w3.org/2000/svg" p-id="1871" xmlns:xlink="http://www.w3.org/1999/xlink" width="20" height="20"><defs><style type="text/css"></style></defs><path d="M784.128 745.024a256 256 0 0 0 51.264-156.224c0-145.472-117.504-264.32-261.888-264.32S311.616 443.328 311.616 588.8c0 146.624 117.504 265.408 261.888 265.408 61.888 0 117.504-21.504 162.496-57.856l165.632 168.064 49.984-49.152-167.488-170.24z m-210.624 48.192c-111.232 0-201.856-92.032-201.856-204.416 0-112.32 90.624-204.416 201.856-204.416s201.856 92.032 201.856 204.416c0 112.32-90.624 204.416-201.856 204.416zM64 129.984h832v128H64zM62.016 323.2h192v128h-192zM62.016 512h96v128h-96z" p-id="1872" fill="#515151"></path></svg>