<?xml version="1.0" standalone="no"?><!DOCTYPE svg PUBLIC "-//W3C//DTD SVG 1.1//EN" "http://www.w3.org/Graphics/SVG/1.1/DTD/svg11.dtd"><svg class="icon" width="200px" height="200.00px" viewBox="0 0 1024 1024" version="1.1" xmlns="http://www.w3.org/2000/svg"><path d="M384 480 96 480C44.8 480 0 435.2 0 384L0 96C0 44.8 44.8 0 96 0L384 0c51.2 0 96 44.8 96 96L480 384C480 435.2 435.2 480 384 480z" fill="#4d84ba" /><path d="M384 1024 96 1024C44.8 1024 0 979.2 0 928L0 640c0-51.2 44.8-96 96-96L384 544c51.2 0 96 44.8 96 96l0 281.6C480 979.2 435.2 1024 384 1024z" fill="#4d84ba" /><path d="M787.2 1024 787.2 1024c-134.4 0-243.2-108.8-243.2-236.8l0 0c0-134.4 108.8-236.8 236.8-236.8l0 0c134.4 0 236.8 108.8 236.8 236.8l0 0C1024 915.2 915.2 1024 787.2 1024z" fill="#4d84ba" /><path d="M928 480 640 480C588.8 480 544 435.2 544 384L544 96C544 44.8 588.8 0 640 0l281.6 0C979.2 0 1024 44.8 1024 96L1024 384C1024 435.2 979.2 480 928 480z" fill="#4d84ba" /></svg>