<?xml version="1.0" standalone="no"?><!DOCTYPE svg PUBLIC "-//W3C//DTD SVG 1.1//EN" "http://www.w3.org/Graphics/SVG/1.1/DTD/svg11.dtd"><svg t="1535531948035" class="icon" style="" viewBox="0 0 1024 1024" version="1.1" xmlns="http://www.w3.org/2000/svg" p-id="12847" xmlns:xlink="http://www.w3.org/1999/xlink" width="200" height="200"><defs><style type="text/css"></style></defs><path d="M759.250732 63.822584c35.827997 3.815909 54.975079 38.919405 75.459622 59.403948 59.932997 59.932997 119.885438 119.885438 179.818435 179.818435-4.327562 24.464181-37.304627 42.723034-52.980655 57.798381-48.160883 48.695049-96.337115 97.40647-144.497998 146.102542-13.845333 13.847379-41.777499 55.685253-72.248488 35.322483-13.617136-9.100262-19.61985-35.282574-8.02886-51.377134 49.767474-49.76645 99.547227-99.547227 149.314701-149.313677 0-0.535189 0-1.069355 0-1.605567-169.808454-0.599657-294.223045 4.627391-362.849028 102.753245-36.58729 52.317553-48.686862 123.519198-62.615083 199.084221-2.675946 28.361955-5.351891 56.731072-8.027837 85.093027-8.280594 23.984251-47.659463 30.81482-62.615083 8.027837-18.372439-27.992541 14.618952-165.981289 22.476921-194.268542C456.950731 380.509247 544.123117 302.087153 719.11257 272.54021c56.18872 0 112.391766 0 168.579463 0-51.907207-51.907207-103.82874-103.829763-155.734924-155.735947C730.827379 86.35067 732.093209 78.587869 759.250732 63.822584z" p-id="12848" fill="#1296db"></path><path d="M105.803209 136.071072c101.673657 0 203.37699 0 305.049624 0 39.593763 0 91.75168-8.961092 102.754269 20.871353 3.748371 8.340969 0.446162 20.144806-1.605567 27.293623-33.961486 24.842805-241.649666 12.849656-308.260759 12.844539-26.567076-0.002047-58.864666-3.119037-78.670757 4.816702-53.149501 21.295002-48.165999 80.919984-48.165999 155.735947 0 120.937396 0 241.909585 0 362.846982-0.001023 72.669066-7.092535 136.822179 38.532595 163.763784 35.827997 21.154809 122.571616 9.635451 175.001733 9.632381 142.341892 0 284.72881 0 427.068655 0 72.968895-0.00307 151.743006 9.985422 179.818435-35.32146 24.968671-40.293705 11.250228-187.641611 11.238972-252.066923-0.005117-35.997865-6.999414-81.178881 19.265786-91.514273 52.67264-20.726044 43.351344 57.748239 43.349297 97.937566-0.001023 93.871971 17.824971 264.766153-28.89919 311.470871-41.565674 41.549302-140.526547 30.507828-223.167732 30.504758-163.746388 0-327.543941 0-491.290329 0-100.851942 0.00307-181.090405 7.158027-210.324216-64.22065-15.683191-38.293141-6.42227-111.069655-6.421246-160.552649 0-116.655883 0-233.347582 0-350.003466-0.001023-54.43375-11.142781-137.103588 6.421246-179.818435C34.853297 158.090575 62.965565 153.969721 105.803209 136.071072z" p-id="12849" fill="#1296db"></path></svg>