<?xml version="1.0" standalone="no"?><!DOCTYPE svg PUBLIC "-//W3C//DTD SVG 1.1//EN" "http://www.w3.org/Graphics/SVG/1.1/DTD/svg11.dtd"><svg t="1605357265800" class="icon" viewBox="0 0 1024 1024" version="1.1" xmlns="http://www.w3.org/2000/svg" p-id="1986" xmlns:xlink="http://www.w3.org/1999/xlink" width="200" height="200"><defs><style type="text/css"></style></defs><path d="M668.3 441.6c-7.7 14.3-16.9 26.6-27.5 37-10.6 10.4-29.6 27.8-57.1 52.3-7.6 6.9-13.7 13-18.2 18.2-4.6 5.2-8 10-10.2 14.4-2.2 4.3-4 8.7-5.2 13-1.2 4.3-3.1 12-5.5 22.9-4.2 23.2-17.5 34.8-39.8 34.8-11.6 0-21.4-3.8-29.3-11.4-7.9-7.6-11.9-18.8-11.9-33.8 0-18.7 2.9-34.9 8.7-48.7 5.8-13.7 13.5-25.7 23.1-36.1 9.6-10.4 22.5-22.7 38.8-36.9 14.3-12.5 24.6-21.9 31-28.3 6.4-6.4 11.7-13.4 16.1-21.2 4.3-7.8 6.5-16.2 6.5-25.4 0-17.8-6.6-32.9-19.9-45.1-13.3-12.2-30.4-18.4-51.4-18.4-24.6 0-42.6 6.2-54.2 18.6-11.6 12.4-21.4 30.6-29.5 54.7-7.6 25.2-22 37.8-43.2 37.8-12.5 0-23-4.4-31.6-13.2-8.6-8.8-12.9-18.3-12.9-28.6 0-21.2 6.8-42.6 20.4-64.4 13.6-21.7 33.5-39.7 59.6-54 26.1-14.3 56.6-21.4 91.4-21.4 32.4 0 60.9 6 85.7 17.9 24.8 11.9 43.9 28.1 57.4 48.7 13.5 20.5 20.3 42.8 20.3 66.9 0 18.8-3.8 35.4-11.6 49.7z m-125 309.7c-10.1 8.9-21.7 13.4-34.8 13.4-13.6 0-25.5-4.4-35.7-13.2-10.2-8.8-15.2-21.1-15.2-36.9 0-14 4.9-25.9 14.7-35.5 9.8-9.6 21.9-14.4 36.2-14.4 14.1 0 25.9 4.8 35.5 14.4 9.6 9.6 14.4 21.4 14.4 35.5 0 15.5-5.1 27.8-15.1 36.7zM512.5 12.1c-276.1 0-500 223.6-500 499.4 0 275.8 223.9 499.4 500 499.4s500-223.6 500-499.4c0-275.8-223.9-499.4-500-499.4z" fill="#1296db" p-id="1987"></path></svg>