<?xml version="1.0" standalone="no"?><!DOCTYPE svg PUBLIC "-//W3C//DTD SVG 1.1//EN" "http://www.w3.org/Graphics/SVG/1.1/DTD/svg11.dtd"><svg t="1605365824147" class="icon" viewBox="0 0 1024 1024" version="1.1" xmlns="http://www.w3.org/2000/svg" p-id="21546" xmlns:xlink="http://www.w3.org/1999/xlink" width="200" height="200"><defs><style type="text/css"></style></defs><path d="M960 896v64a64 64 0 0 1-64 64H128a64 64 0 0 1-64-64V64a64 64 0 0 1 64-64h768a64 64 0 0 1 64 64v640a64 64 0 0 1-64 64H256a64 64 0 0 0 0 128h704zM608 128a32 32 0 0 0-32 32v320l128-128 128 128v-320a32 32 0 0 0-32-32h-192z" p-id="21547" fill="#1296db"></path></svg>