<?xml version="1.0" standalone="no"?><!DOCTYPE svg PUBLIC "-//W3C//DTD SVG 1.1//EN" "http://www.w3.org/Graphics/SVG/1.1/DTD/svg11.dtd"><svg t="1607614757750" class="icon" viewBox="0 0 1024 1024" version="1.1" xmlns="http://www.w3.org/2000/svg" p-id="5708" xmlns:xlink="http://www.w3.org/1999/xlink" width="200" height="200"><defs><style type="text/css"></style></defs><path d="M750.933333 755.456H573.303467c-14.421333 0-26.112 12.475733-26.112 27.869867v168.618666h28.433066L750.933333 760.439467v-4.983467zM750.933333 699.733333v-88.183466c0-15.189333 11.4688-27.477333 25.6-27.477334s25.6 12.288 25.6 27.477334v160.136533c0 7.2192-2.645333 14.1312-7.338666 19.285333L604.6208 998.7072a24.746667 24.746667 0 0 1-18.261333 8.226133H203.093333C138.069333 1006.933333 85.333333 950.306133 85.333333 880.452267V143.530667C85.333333 73.693867 138.069333 17.066667 203.093333 17.066667h481.28C749.397333 17.066667 802.133333 73.693867 802.133333 143.547733v48.930134c0 15.189333-11.4688 27.477333-25.6 27.477333s-25.6-12.288-25.6-27.477333V143.530667c0-39.4752-29.7984-71.492267-66.56-71.492267H203.093333c-36.7616 0-66.56 32.017067-66.56 71.509333v736.887467c0 39.4752 29.7984 71.492267 66.56 71.492267H494.933333v-168.618667C494.933333 737.160533 530.0224 699.733333 573.303467 699.733333H750.933333zM252.654933 263.509333h36.317867l-17.988267 93.44c7.901867-9.6768 16.896-16.674133 26.7264-21.3504 8.789333-4.334933 18.432-6.3488 28.928-6.3488 20.0704 0 33.8944 6.007467 41.386667 18.363734 6.997333 11.6736 8.430933 29.0304 3.9936 52.053333l-20.565333 106.8032h-36.317867l19.285333-100.113067c2.816-14.677333 2.133333-26.043733-1.792-33.706666-4.778667-8.362667-13.243733-12.356267-25.668266-12.356267-11.4688 0-21.282133 4.676267-29.457067 14.011733-8.482133 9.352533-13.909333 21.026133-16.7424 35.720534l-18.568533 96.443733H205.8752l46.779733-242.961067z m248.9344 14.677334l-10.734933 55.739733h36.642133l-6.0416 31.368533h-36.642133l-18.773333 97.450667c-0.750933 4.010667-0.682667 7.0144 0.768 9.352533 1.536 1.9968 3.874133 3.003733 7.697066 3.003734h21.674667l-6.058667 31.368533h-27.6992c-14.336 0-24.081067-4.010667-29.2352-12.014933-4.949333-7.338667-6.144-17.681067-3.447466-31.709867l18.773333-97.450667h-29.627733l6.0416-31.368533h29.610666l7.714134-40.0384 39.338666-15.701333z m151.1424 51.063466c24.2176 0 39.611733 9.352533 46.523734 28.040534 9.710933-10.683733 19.080533-18.0224 28.142933-22.016 8.0896-4.010667 17.7152-6.024533 28.859733-6.024534 16.896 0 29.815467 5.6832 38.9632 17.698134 8.533333 12.014933 11.298133 27.357867 7.6288 46.3872l-21.777066 113.152h-36.317867l20.497067-106.478934c2.645333-13.687467 1.706667-23.688533-2.56-29.696-4.5056-6.3488-12.8512-9.352533-25.6-9.352533-8.9088 0-16.896 3.345067-24.354134 10.683733-7.714133 6.997333-12.458667 16.6912-14.882133 29.354667l-20.309333 105.472h-36.317867l20.4288-106.120533c5.085867-26.368-3.242667-39.389867-24.917333-39.389867-10.496 0-19.5584 4.010667-27.5968 12.680533a56.32 56.32 0 0 0-15.2064 29.371734l-19.933867 103.458133h-36.3008l33.211733-172.544h36.317867l-3.413333 17.698133c16.605867-15.018667 32.989867-22.357333 48.913066-22.357333z m232.891734-65.7408h36.317866l-46.7968 242.961067h-36.3008l46.762667-242.961067z" p-id="5709" fill="#1296db"></path></svg>