<?xml version="1.0" standalone="no"?><!DOCTYPE svg PUBLIC "-//W3C//DTD SVG 1.1//EN" "http://www.w3.org/Graphics/SVG/1.1/DTD/svg11.dtd"><svg t="1567327641876" class="icon" viewBox="0 0 1024 1024" version="1.1" xmlns="http://www.w3.org/2000/svg" p-id="2827" xmlns:xlink="http://www.w3.org/1999/xlink" width="200" height="200"><defs><style type="text/css"></style></defs><path d="M902 684.3H576.3c-7.3 0-13.4-5.9-13.5-13.2v-31.3c0.1-7.3 6.1-13.3 13.5-13.2H902c7.3 0 13.3 5.9 13.4 13.2v31.3c-0.1 7.3-6 13.3-13.4 13.2z m0 115.7H576.3c-7.3 0-13.4-5.9-13.5-13.2v-31.3c0.1-7.3 6.1-13.3 13.5-13.2H902c7.3 0 13.3 5.9 13.4 13.2v31.2c-0.1 7.3-6 13.3-13.4 13.3z m0 115.7H576.3c-7.3 0-13.4-5.9-13.5-13.2v-31.3c0.1-7.3 6.1-13.3 13.5-13.2H902c7.3 0 13.3 5.9 13.4 13.2v31.2c-0.1 7.4-6 13.2-13.4 13.3zM504 621.4v58.7c-94.9 0-172.1-76-172.1-169.4S409.1 341.3 504 341.3c94.9 0 172.1 76 172.1 169.4 0 19.8-3.4 39.4-10.3 57.9h-66.2c11-17.3 16.8-37.4 16.8-57.9 0-60.9-50.5-110.5-112.5-110.5-61.9 0-112.4 49.6-112.4 110.5 0.1 61.1 50.5 110.7 112.5 110.7z m-14.2 235.4c3.7-0.1 7.3 1.4 10.1 4 2.6 2.6 4.2 6.3 4.2 10v30.8c-0.1 7.7-6.4 14-14.2 14h-56.1c-26.7 0.3-49-20.6-50.4-47.2l-8.2-59.4c-24.6-10.3-47.8-23.4-69.2-39.2l-56.2 22.6c-23.9 12.1-53.1 3.7-66.8-19.3l-70.5-119.7c-13.5-22.9-6.3-52.5 16.4-66.6l48.2-36.7a295.5 295.5 0 0 1 0-78.6L129 434.8c-22.5-14-29.8-43.4-16.5-66.3l70.4-119.9c13.7-23 42.8-31.4 66.7-19.4l56.3 22.6c21.3-15.9 44.7-29 69.2-39.2l8.2-59.3c1.4-26.7 23.6-47.6 50.3-47.3h140.7c27 0 49.1 20.7 50.3 47.2l8.2 59.4c24.6 10.2 47.9 23.4 69.3 39.2l56.3-22.5c23.9-11.9 53-3.6 66.7 19.3l70.2 119.8c13.5 22.9 6.4 52.4-16.3 66.6l-48 36.6c3.4 26.1 3.4 52.6 0 78.6l24.3 18.5h-87.9l2.1-11.1c5.9-30.8 5.9-62.7 0-93.6l-3.2-17.4 73.4-55.9-62.8-107.1-85 35.9-13.9-11.7c-24.5-20.3-52.4-36.1-82.4-46.6l-16.9-6.1-12.7-90.3H441.9l-12.5 90.5-16.9 6.1c-30.1 10.6-58 26.4-82.5 46.7l-13.8 11.5-85.8-34.6-62.1 105.6 73.4 55.9-3.2 17.5c-2.9 15.4-4.4 31-4.5 46.7 0.1 15.7 1.6 31.4 4.4 46.8l3.1 17.5-73.3 55.9 63 107.1 84.9-35.9 14 11.6c24.5 20.3 52.4 36.1 82.4 46.6l16.9 6.1 12.5 90.5h47.9z m0 0" p-id="2828" fill="#515151"></path></svg>