<?xml version="1.0" standalone="no"?><!DOCTYPE svg PUBLIC "-//W3C//DTD SVG 1.1//EN" "http://www.w3.org/Graphics/SVG/1.1/DTD/svg11.dtd"><svg t="1602425526592" class="icon" viewBox="0 0 1024 1024" version="1.1" xmlns="http://www.w3.org/2000/svg" p-id="9256" xmlns:xlink="http://www.w3.org/1999/xlink" width="200" height="200"><defs><style type="text/css"></style></defs><path d="M13.192915 512.006566A41.682289 41.682289 0 0 0 54.875204 554.170731h510.547806L389.899614 729.33272a41.682289 41.682289 0 1 0 59.029831 59.029831L670.712954 566.217635a76.738781 76.738781 0 0 0 0-108.422139L448.929445 235.65058a41.441351 41.441351 0 0 0-29.514916-12.046904 41.682289 41.682289 0 0 0-29.514915 71.317673L565.543479 469.8424H54.875204A41.682289 41.682289 0 0 0 13.192915 512.006566z" fill="#1296db" p-id="9257"></path><path d="M827.925055 940.514953H310.751452c-55.897636 0-99.146023-64.571407-99.146023-120.469043a41.802758 41.802758 0 1 0-83.485047 0 219.374128 219.374128 0 0 0 49.994653 137.455178A171.668387 171.668387 0 0 0 310.751452 1024h517.173603a183.112946 183.112946 0 0 0 182.872008-182.872008V180.716696a181.426379 181.426379 0 0 0-180.703565-180.703565H310.751452A180.703565 180.703565 0 0 0 127.879444 182.885139v24.093809l82.521295 1.566097 1.084221-28.91257a10.601276 10.601276 0 0 0 0-2.770788 96.375235 96.375235 0 0 1 99.266492-93.363509h518.86017A97.820863 97.820863 0 0 1 927.312016 180.716696v660.411296a99.50743 99.50743 0 0 1-99.386961 99.386961z" fill="#1296db" p-id="9258"></path></svg>