<?xml version="1.0" standalone="no"?><!DOCTYPE svg PUBLIC "-//W3C//DTD SVG 1.1//EN" "http://www.w3.org/Graphics/SVG/1.1/DTD/svg11.dtd"><svg t="1605452173721" class="icon" viewBox="0 0 1131 1024" version="1.1" xmlns="http://www.w3.org/2000/svg" p-id="29275" xmlns:xlink="http://www.w3.org/1999/xlink" width="220.8984375" height="200"><defs><style type="text/css"></style></defs><path d="M794.138947 585.189053a107.789474 107.789474 0 1 1-207.548631 9.701052L406.474105 457.566316a107.304421 107.304421 0 0 1-82.405052 9.269895L199.410526 657.138526a107.789474 107.789474 0 1 1-52.277894-43.115789l121.478736-185.236211a107.789474 107.789474 0 1 1 183.834948-20.911158l169.229473 129.024c18.863158-16.168421 43.277474-25.869474 70.063158-25.869473 22.635789 0 43.708632 7.006316 61.116632 18.970947l137.593263-159.366737a107.789474 107.789474 0 1 1 48.613053 46.780632l-144.869053 167.774316zM79.764211 105.741474v456.111158a26.947368 26.947368 0 1 1-53.894737 0V78.794105a26.947368 26.947368 0 0 1 26.947368-26.947368h914.970947a26.947368 26.947368 0 1 1 0 53.894737H79.764211z m900.365473 413.696a26.947368 26.947368 0 1 1 53.894737 0v428.032a26.947368 26.947368 0 0 1-26.947368 26.947368H98.950737a26.947368 26.947368 0 0 1 0-53.894737h881.178947V519.437474z m-872.124631 248.993684a53.894737 53.894737 0 1 0 0-107.789474 53.894737 53.894737 0 0 0 0 107.789474z m583.626105-95.717053a53.894737 53.894737 0 1 0 0-107.789473 53.894737 53.894737 0 0 0 0 107.789473z m-337.488842-255.461052a53.894737 53.894737 0 1 0 0-107.789474 53.894737 53.894737 0 0 0 0 107.789474zM985.734737 374.029474a53.894737 53.894737 0 1 0 0-107.789474 53.894737 53.894737 0 0 0 0 107.789474z" fill="#1296db" p-id="29276"></path></svg>