<svg id="图层_1" data-name="图层 1" xmlns="http://www.w3.org/2000/svg" viewBox="0 0 16 16"><title>画板 28</title><rect x="0.5" y="0.5" width="14" height="14" rx="0.5" ry="0.5" style="fill:#fff"/><path d="M14,1V14H1V1H14m0-1H1A1,1,0,0,0,0,1V14a1,1,0,0,0,1,1H14a1,1,0,0,0,1-1V1a1,1,0,0,0-1-1Z" style="fill:gray"/><path d="M4,14H5V12H8v2H9V12h5V11H9V8h5V7H9V4H8V7H5V4H4V7H1V8H4v3H1v1H4ZM5,8H8v3H5Z" style="fill:#4d84ba"/><circle cx="11.5" cy="11.5" r="4.5" style="fill:#4d84ba"/><polygon points="14 11 12 11 12 9 11 9 11 11 9 11 9 12 11 12 11 14 12 14 12 12 14 12 14 11" style="fill:#fff"/><rect y="3" width="15" height="1" style="fill:gray"/></svg>