<?xml version="1.0" standalone="no"?><!DOCTYPE svg PUBLIC "-//W3C//DTD SVG 1.1//EN" "http://www.w3.org/Graphics/SVG/1.1/DTD/svg11.dtd"><svg t="1602602715045" class="icon" viewBox="0 0 1024 1024" version="1.1" xmlns="http://www.w3.org/2000/svg" p-id="19433" xmlns:xlink="http://www.w3.org/1999/xlink" width="200" height="200"><defs><style type="text/css"></style></defs><path d="M992 640h-576c-17.066667 0-32 14.933333-32 32v192c0 17.066667 14.933333 32 32 32h576c17.066667 0 32-14.933333 32-32v-192c0-17.066667-14.933333-32-32-32zM960 832H448v-128h512v128zM224 640h-192c-17.066667 0-32 14.933333-32 32v192c0 17.066667 14.933333 32 32 32h192c17.066667 0 32-14.933333 32-32v-192c0-17.066667-14.933333-32-32-32zM192 832H64v-128h128v128zM439.466667 424.533333c-12.8-12.8-32-12.8-44.8 0l-40.533334 40.533334V256c0-36.266667 27.733333-64 64-64h576c14.933333 0 29.866667-14.933333 29.866667-32S1009.066667 128 992 128h-576c-70.4 0-128 57.6-128 128v211.2L247.466667 426.666667c-12.8-12.8-32-12.8-44.8 0-12.8 12.8-12.8 32 0 44.8l96 96c6.4 6.4 14.933333 8.533333 23.466666 8.533333s17.066667-2.133333 23.466667-8.533333l96-96c8.533333-12.8 8.533333-34.133333-2.133333-46.933334z" fill="#1296db" p-id="19434"></path></svg>