<?xml version="1.0" standalone="no"?><!DOCTYPE svg PUBLIC "-//W3C//DTD SVG 1.1//EN" "http://www.w3.org/Graphics/SVG/1.1/DTD/svg11.dtd"><svg t="1605357676671" class="icon" viewBox="0 0 1024 1024" version="1.1" xmlns="http://www.w3.org/2000/svg" p-id="6445" xmlns:xlink="http://www.w3.org/1999/xlink" width="200" height="200"><defs><style type="text/css"></style></defs><path d="M525.489732 110.10564A398.977218 398.977218 0 0 0 137.952973 416.032626c66.203758-87.470377 218.711036-144.234002 387.536759-144.242775 169.194205 0.10528 321.868177 57.211066 387.668361 145.006057A398.985992 398.985992 0 0 0 525.489732 110.10564z m-387.677133 491.308036a398.38063 398.38063 0 0 0 775.196347 0.763282c-66.203758 87.470377-218.711036 144.234002-387.519214 144.251549-169.202978-0.114054-321.87695-57.219839-387.677133-145.014831z m0 0" fill="#F57C00" p-id="6446"></path><path d="M115.028189 940.41622a83.575006 83.575006 0 1 0 83.583779-83.566232 83.575006 83.575006 0 0 0-83.583779 83.566232z m0 0" fill="#9E9E9E" p-id="6447"></path><path d="M81.092841 134.495575a61.413504 61.413504 0 1 0 61.413504-61.413505 61.413504 61.413504 0 0 0-61.413504 61.413505z m0 0" fill="#616161" p-id="6448"></path><path d="M786.198832 78.346085A78.354858 78.354858 0 1 0 864.55369 0a78.354858 78.354858 0 0 0-78.354858 78.346085z m0 0" fill="#757575" p-id="6449"></path></svg>