<?xml version="1.0" standalone="no"?><!DOCTYPE svg PUBLIC "-//W3C//DTD SVG 1.1//EN" "http://www.w3.org/Graphics/SVG/1.1/DTD/svg11.dtd"><svg t="1605357736451" class="icon" viewBox="0 0 1024 1024" version="1.1" xmlns="http://www.w3.org/2000/svg" p-id="7420" xmlns:xlink="http://www.w3.org/1999/xlink" width="200" height="200"><defs><style type="text/css"></style></defs><path d="M984.7168 904.2432a136.0896 136.0896 0 0 1-192.512 0 134.7584 134.7584 0 0 1-39.424-111.2576l-171.008-112.9984-6.656 7.424a135.5776 135.5776 0 0 1-77.312 38.4512l5.12 59.6992a87.9616 87.9616 0 0 1 55.296 25.6 89.7024 89.7024 0 1 1-126.976 0 91.8016 91.8016 0 0 1 30.208-19.8144l-5.632-65.8432a135.3728 135.3728 0 0 1-73.728-37.9904l-114.688 114.944a136.8576 136.8576 0 1 1-54.272-72.4992l136.192-95.232a140.6464 140.6464 0 0 1-2.048-79.6672l-101.376-51.2a52.3264 52.3264 0 1 1 6.144-73.6768 53.1456 53.1456 0 0 1 12.288 36.7104l99.84 50.0736a138.24 138.24 0 0 1 68.096-53.8112l-31.744-148.48a136.5504 136.5504 0 1 1 72.192-11.8272l17.92 152.6784a136.8576 136.8576 0 0 1 72.704 29.1328l30.72-24.9344a99.3792 99.3792 0 1 1 30.72 28.8768l-33.28 26.624a136.3968 136.3968 0 0 1 19.968 106.0864l180.224 90.5216a136.2944 136.2944 0 0 1 193.024 192.4096z" fill="#00B7EE" p-id="7421"></path></svg>