<?xml version="1.0" standalone="no"?><!DOCTYPE svg PUBLIC "-//W3C//DTD SVG 1.1//EN" "http://www.w3.org/Graphics/SVG/1.1/DTD/svg11.dtd"><svg t="1567762026092" class="icon" viewBox="0 0 1024 1024" version="1.1" xmlns="http://www.w3.org/2000/svg" p-id="1113" xmlns:xlink="http://www.w3.org/1999/xlink" width="200" height="200"><defs><style type="text/css"></style></defs><path d="M268.502 139.742h691.683v102.852H268.502V139.742zM268.502 467.033h691.683v102.852H268.502V467.033zM268.502 789.57h691.683v102.853H268.502V789.571zM71.024 100.892c7.865 0 15.509-0.656 22.939-1.966 7.424-1.31 14.142-3.492 20.154-6.554 6.006-3.057 11.142-6.99 15.402-11.797 4.26-4.802 7.045-10.702 8.356-17.696h30.476v229.39h-40.963V130.387H71.024v-29.494zM223.077 619.393H66.437c0.214-19.007 4.801-35.607 13.763-49.81 8.955-14.199 21.187-26.544 36.702-37.03a414.223 414.223 0 0 1 23.267-15.895c8.08-5.13 15.51-10.65 22.284-16.549 6.77-5.9 12.34-12.289 16.713-19.17 4.367-6.882 6.661-14.797 6.881-23.759 0-4.147-0.49-8.572-1.474-13.272-0.984-4.695-2.898-9.063-5.735-13.107-2.842-4.04-6.774-7.424-11.798-10.16-5.028-2.729-11.581-4.096-19.661-4.096-7.43 0-13.6 1.475-18.515 4.424-4.915 2.949-8.848 6.994-11.798 12.125-2.949 5.136-5.136 11.198-6.554 18.188-1.423 6.994-2.243 14.531-2.458 22.611H70.696c0-12.668 1.69-24.414 5.08-35.228 3.384-10.815 8.464-20.154 15.238-28.02 6.769-7.865 15.018-14.034 24.741-18.514 9.719-4.475 21.024-6.718 33.918-6.718 13.978 0 25.668 2.293 35.064 6.882 9.391 4.587 16.984 10.378 22.776 17.368 5.786 6.995 9.882 14.582 12.29 22.775 2.4 8.193 3.604 16.006 3.604 23.43 0 9.177-1.423 17.482-4.26 24.906a80.336 80.336 0 0 1-11.47 20.481c-4.808 6.226-10.27 11.962-16.384 17.204a245.745 245.745 0 0 1-19.007 14.747 508.028 508.028 0 0 1-19.662 13.108c-6.554 4.152-12.616 8.305-18.187 12.452-5.571 4.153-10.436 8.469-14.583 12.944-4.153 4.48-6.995 9.232-8.52 14.255H223.08v33.428zM128.372 819.504a86.222 86.222 0 0 0 18.35-1.311c6.114-1.091 11.577-3 16.386-5.735 4.802-2.73 8.684-6.498 11.633-11.305 2.949-4.804 4.424-10.702 4.424-17.696 0-9.831-3.333-17.697-9.995-23.595-6.667-5.9-15.238-8.847-25.725-8.847-6.554 0-12.238 1.31-17.04 3.932-4.808 2.622-8.796 6.176-11.962 10.65-3.169 4.48-5.52 9.504-7.045 15.075-1.53 5.571-2.187 11.306-1.966 17.204H68.074c0.435-11.142 2.51-21.465 6.227-30.968 3.713-9.504 8.791-17.748 15.238-24.742 6.442-6.99 14.255-12.452 23.43-16.385 9.177-3.933 19.55-5.898 31.133-5.898 8.955 0 17.747 1.31 26.38 3.932 8.627 2.622 16.385 6.447 23.267 11.47 6.881 5.027 12.396 11.417 16.549 19.17 4.147 7.757 6.225 16.661 6.225 26.707 0 11.583-2.621 21.685-7.865 30.313-5.243 8.632-13.436 14.91-24.577 18.843v0.656c13.108 2.621 23.318 9.124 30.64 19.498 7.316 10.378 10.977 22.996 10.977 37.85 0 10.927-2.186 20.701-6.554 29.329-4.372 8.632-10.27 15.95-17.696 21.956-7.43 6.012-16.058 10.65-25.889 13.927-9.83 3.278-20.21 4.915-31.132 4.915-13.328 0-24.961-1.915-34.9-5.735-9.943-3.82-18.243-9.227-24.905-16.221-6.667-6.99-11.746-15.402-15.238-25.233-3.496-9.83-5.356-20.752-5.57-32.77h37.357c-0.44 13.983 3 25.617 10.323 34.9 7.317 9.288 18.295 13.927 32.934 13.927 12.453 0 22.884-3.548 31.296-10.65 8.408-7.097 12.617-17.204 12.617-30.313 0-8.955-1.751-16.058-5.244-21.3-3.498-5.243-8.085-9.227-13.763-11.961-5.684-2.73-12.074-4.424-19.171-5.08-7.102-0.656-14.367-0.871-21.792-0.656v-27.853z" p-id="1114"></path></svg>