<?xml version="1.0" standalone="no"?><!DOCTYPE svg PUBLIC "-//W3C//DTD SVG 1.1//EN" "http://www.w3.org/Graphics/SVG/1.1/DTD/svg11.dtd"><svg t="1594800629067" class="icon" viewBox="0 0 1024 1024" version="1.1" xmlns="http://www.w3.org/2000/svg" p-id="4044" xmlns:xlink="http://www.w3.org/1999/xlink" width="200" height="200"><defs><style type="text/css"></style></defs><path d="M720.592593 407.703704h-75.851852v-71.111111c0-73.197037-59.543704-132.740741-132.740741-132.740741s-132.740741 59.543704-132.740741 132.740741v71.111111h-75.851852v-71.111111c0-55.561481 21.712593-107.899259 61.250371-147.342223C404.100741 149.712593 456.438519 128 512 128c55.561481 0 107.899259 21.712593 147.342222 61.25037S720.592593 281.031111 720.592593 336.592593v71.111111zM769.896296 421.925926H254.103704c-25.031111 0-45.511111 20.48-45.511111 45.511111v383.051852c0 25.031111 20.48 45.511111 45.511111 45.511111h515.792592c25.031111 0 45.511111-20.48 45.511111-45.511111V467.437037c0-25.031111-20.48-45.511111-45.511111-45.511111zM540.444444 662.755556v47.407407c0 15.644444-12.8 28.444444-28.444444 28.444444s-28.444444-12.8-28.444444-28.444444v-47.407407c-11.472593-8.628148-18.962963-22.376296-18.962963-37.925926 0-26.168889 21.238519-47.407407 47.407407-47.407408s47.407407 21.238519 47.407407 47.407408c0 15.54963-7.49037 29.297778-18.962963 37.925926z" p-id="4045" fill="#1296db"></path></svg>