<svg id="图层_1" data-name="图层 1" xmlns="http://www.w3.org/2000/svg" viewBox="0 0 32 32"><title>画板 9</title><rect x="1" y="1" width="25" height="30" rx="2" ry="2" style="fill:#fff"/><rect x="4" y="4.83" width="10" height="5.03" style="fill:#eec97f"/><path d="M25,28c0,1.1,0,2-1,2H4c-1,0-2,0-2-1V4C2,3,2,2,3,2H24c1,0,1,1,1,2V19h1V3a2,2,0,0,0-2-2H3A2,2,0,0,0,1,3V29a2,2,0,0,0,2,2H24a2,2,0,0,0,2-2V28Z" style="fill:gray"/><rect x="4" y="13" width="19" height="1" rx="0.5" ry="0.5" style="fill:#b1b1b1"/><rect x="4" y="17" width="15" height="1" rx="0.48" ry="0.48" style="fill:#b1b1b1"/><rect x="4" y="25" width="8" height="1" rx="0.5" ry="0.5" style="fill:#b1b1b1"/><rect x="4" y="21" width="6" height="1" rx="0.5" ry="0.5" style="fill:#b1b1b1"/><polygon points="26.04 28.99 26.04 28.99 26.04 28.99 26.04 28.99" style="fill:#4d84ba"/><path d="M30.85,22.73A9.61,9.61,0,0,0,23,18a9.58,9.58,0,0,0-7.84,4.73L15,23l.16.27A9.59,9.59,0,0,0,23,28a9.62,9.62,0,0,0,7.85-4.73L31,23ZM23,26.89" style="fill:#fff"/><path d="M30.85,22.73A9.61,9.61,0,0,0,23,18a9.58,9.58,0,0,0-7.84,4.73L15,23l.16.27A9.59,9.59,0,0,0,23,28a9.62,9.62,0,0,0,7.85-4.73L31,23ZM23,27a9.23,9.23,0,0,1-7-4,9.21,9.21,0,0,1,7-4,9.2,9.2,0,0,1,7,4,9.22,9.22,0,0,1-7,4Zm0-.11" style="fill:gray"/><path d="M25.49,21.48a1,1,0,1,1-1-1,1.41,1.41,0,0,1,.19,0,3.07,3.07,0,1,0,.73.74,1,1,0,0,1,0,.19Z" style="fill:#4d84ba"/><rect x="25" y="27" width="1" height="1" style="fill:gray"/></svg>