<svg id="图层_1" data-name="图层 1" xmlns="http://www.w3.org/2000/svg" viewBox="0 0 16 16"><title>画板 22</title><rect x="4" y="8" width="8" height="1" rx="0.5" ry="0.5" style="fill:gray"/><circle cx="2.5" cy="8.5" r="2" style="fill:#fff"/><path d="M2.5,7A1.5,1.5,0,1,1,1,8.5,1.5,1.5,0,0,1,2.5,7m0-1A2.5,2.5,0,1,0,5,8.5,2.5,2.5,0,0,0,2.5,6Z" style="fill:#4d84ba"/><circle cx="13.5" cy="8.5" r="2" style="fill:#fff"/><path d="M13.5,7A1.5,1.5,0,1,1,12,8.5,1.5,1.5,0,0,1,13.5,7m0-1A2.5,2.5,0,1,0,16,8.5,2.5,2.5,0,0,0,13.5,6Z" style="fill:#4d84ba"/></svg>