<svg xmlns="http://www.w3.org/2000/svg" viewBox="0 0 32 32" enable-background="new 0 0 32 32">
    <path style="text-indent:0;text-align:start;line-height:normal;text-transform:none;block-progression:tb;-inkscape-font-specification:Bitstream Vera Sans" d="M 5.25 2.75 L 4.6875 3.28125 L 3.28125 4.6875 L 2.75 5.25 L 3.15625 5.90625 L 5.25 9.40625 L 5.53125 9.90625 L 6.09375 9.90625 L 8.09375 9.90625 L 8.46875 9.90625 L 12.46875 13.875 C 8.8960894 17.466023 4.3492328 22.025767 4.1875 22.1875 C 2.6206986 23.754301 2.6158087 26.322123 4.21875 27.8125 C 5.7827298 29.355797 8.3263695 29.394915 9.8125 27.8125 C 9.822927 27.8014 9.833428 27.79251 9.84375 27.78125 L 16 21.59375 L 22.1875 27.8125 L 22.28125 27.875 C 23.849884 29.356331 26.34663 29.373342 27.8125 27.8125 L 27.8125 27.78125 L 27.84375 27.78125 C 29.374741 26.216236 29.390661 23.669635 27.8125 22.1875 L 27.78125 22.15625 L 22.5625 16.96875 C 26.072907 16.641736 28.823073 13.676089 28.875 10.09375 L 28.90625 10.09375 C 28.90835 10.0726 28.90435 10.05238 28.90625 10.03125 C 28.907191 10.02069 28.905368 10.01056 28.90625 10 C 29.00293 8.8431991 28.754988 7.7392304 28.15625 6.78125 L 27.46875 5.71875 L 26.59375 6.59375 L 22.8125 10.375 L 21.40625 8.90625 L 25.09375 5.21875 L 26.15625 4.15625 L 24.78125 3.59375 C 23.975601 3.2484719 23.048148 3 22 3 C 18.154545 3 15 6.1545455 15 10 C 15 10.418974 15.08896 10.782865 15.15625 11.15625 C 14.717832 11.595368 14.389026 11.952793 13.875 12.46875 L 9.90625 8.5 L 9.90625 8.09375 L 9.90625 6.09375 L 9.90625 5.53125 L 9.40625 5.25 L 5.90625 3.15625 L 5.25 2.75 z M 22 5 C 22.142261 5 22.239145 5.082479 22.375 5.09375 L 19.28125 8.1875 L 18.59375 8.875 L 19.28125 9.59375 L 22.09375 12.5 L 22.78125 13.21875 L 23.5 12.5 L 26.75 9.25 C 26.77116 9.4791244 26.932068 9.6480696 26.90625 9.90625 L 26.90625 9.9375 L 26.90625 10 C 26.90625 12.754545 24.660795 15 21.90625 15 C 21.539583 15 21.09375 14.9125 20.59375 14.8125 L 20.0625 14.71875 L 19.6875 15.09375 L 8.40625 26.40625 L 8.375 26.40625 L 8.375 26.4375 C 7.6625854 27.21468 6.4205548 27.233055 5.59375 26.40625 L 5.59375 26.375 L 5.5625 26.375 C 4.7853205 25.662585 4.7669452 24.420555 5.59375 23.59375 C 5.9723174 23.215183 13.312797 15.812203 16.90625 12.21875 L 17.3125 11.8125 L 17.15625 11.25 C 17.075272 10.92609 17 10.366667 17 10 C 17 7.2454545 19.245455 5 22 5 z M 5.5625 5.25 L 7.90625 6.6875 L 7.90625 7.6875 L 7.6875 7.90625 L 6.6875 7.90625 L 5.25 5.5625 L 5.5625 5.25 z M 20.1875 17.40625 L 26.40625 23.59375 L 26.40625 23.625 L 26.4375 23.625 C 27.21468 24.337415 27.233055 25.579445 26.40625 26.40625 L 26.375 26.40625 L 26.375 26.4375 C 25.662585 27.21468 24.420555 27.233055 23.59375 26.40625 L 17.40625 20.1875 L 20.1875 17.40625 z" color="#000" overflow="visible" enable-background="accumulate" font-family="Bitstream Vera Sans" fill="#4D84BA"/>
</svg>