<?xml version="1.0" encoding="utf-8"?>
<!-- Generator: Adobe Illustrator 17.0.0, SVG Export Plug-In . SVG Version: 6.00 Build 0)  -->
<!DOCTYPE svg PUBLIC "-//W3C//DTD SVG 1.1//EN" "http://www.w3.org/Graphics/SVG/1.1/DTD/svg11.dtd">
<svg version="1.1" xmlns="http://www.w3.org/2000/svg" xmlns:xlink="http://www.w3.org/1999/xlink" x="0px" y="0px" width="48px"
	 height="48px" viewBox="0 0 48 48" enable-background="new 0 0 48 48" xml:space="preserve">
<g id="Layer_1">
</g>
<g id="flag-3">
</g>
<g id="flag-2">
</g>
<g id="flag">
</g>
<g id="direction-2">
</g>
<g id="direction">
</g>
<g id="globe-stand">
</g>
<g id="tree">
</g>
<g id="people-area">
</g>
<g id="people">
</g>
<g id="locate-people">
</g>
<g id="transmiter">
</g>
<g id="globe-locate">
</g>
<g id="globesearch">
</g>
<g id="globe-pointer">
</g>
<g id="globe">
	<path fill="#1296db" d="M24,47C11.317,47,1,36.682,1,24S11.317,1,24,1s23,10.318,23,23S36.683,47,24,47z M24,3
		C12.421,3,3,12.42,3,24s9.421,21,21,21s21-9.42,21-21S35.579,3,24,3z"/>
	<path fill="#1296db" d="M24,47c-0.553,0-1-0.448-1-1V2c0-0.552,0.447-1,1-1s1,0.448,1,1v44C25,46.552,24.553,47,24,47z"/>
	<path fill="#1296db" d="M43,15H5c-0.553,0-1-0.448-1-1s0.447-1,1-1h38c0.553,0,1,0.448,1,1S43.553,15,43,15z"/>
	<path fill="#1296db" d="M43,35H5c-0.553,0-1-0.448-1-1s0.447-1,1-1h38c0.553,0,1,0.448,1,1S43.553,35,43,35z"/>
	<path fill="#1296db" d="M23.111,47c-0.329,0-0.651-0.162-0.842-0.459c-0.299-0.464-0.164-1.083,0.3-1.382
		C29.811,40.505,34.134,32.595,34.134,24S29.811,7.495,22.569,2.841c-0.464-0.299-0.599-0.917-0.3-1.382
		c0.298-0.465,0.916-0.599,1.382-0.301C31.468,6.182,36.134,14.721,36.134,24s-4.666,17.818-12.482,22.842
		C23.483,46.949,23.297,47,23.111,47z"/>
	<path fill="#1296db" d="M24.133,47c-0.186,0-0.372-0.051-0.54-0.159C15.776,41.818,11.11,33.279,11.11,24
		S15.776,6.182,23.593,1.158c0.467-0.297,1.085-0.164,1.382,0.301c0.299,0.464,0.164,1.083-0.3,1.382
		C17.434,7.495,13.11,15.405,13.11,24s4.323,16.505,11.564,21.159c0.464,0.299,0.599,0.917,0.3,1.382
		C24.784,46.838,24.462,47,24.133,47z"/>
</g>
<g id="place-2">
</g>
<g id="place">
</g>
<g id="gothic-directer">
</g>
<g id="pin-long">
</g>
<g id="pin">
</g>
<g id="map-lock">
</g>
<g id="map-close">
</g>
<g id="map-minus">
</g>
<g id="mapp-add">
</g>
<g id="map-point">
</g>
<g id="locate-track">
</g>
<g id="locate-lock">
</g>
<g id="locate-close_1_">
</g>
<g id="locate-remove">
</g>
<g id="locate-pluse">
</g>
<g id="map-circle">
</g>
<g id="maplocate-3">
</g>
<g id="navigater">
</g>
<g id="navigate-2">
</g>
<g id="navigate">
</g>
<g id="track">
</g>
<g id="map-locater-s">
</g>
<g id="map-locate">
</g>
<g id="maphold">
</g>
<g id="map">
</g>
<g id="locate-fav">
</g>
<g id="locate-5">
</g>
<g id="locate-close">
</g>
<g id="locateminus">
</g>
<g id="locate-add">
</g>
<g id="locate-favorite">
</g>
<g id="locate4">
</g>
<g id="locate-3">
</g>
<g id="locate-1">
</g>
<g id="locate">
</g>
</svg>
