<svg id="图层_1" data-name="图层 1" xmlns="http://www.w3.org/2000/svg" viewBox="0 0 16 16"><title>画板 50</title><rect x="1.5" y="1.5" width="13" height="13" style="fill:#fff"/><path d="M14,2V14H2V2H14m1-1H1V15H15V1Z" style="fill:gray"/><rect x="0.5" y="13.5" width="2" height="2" style="fill:#fff"/><path d="M2,14v1H1V14H2m1-1H0v3H3V13Z" style="fill:#4d84ba"/><rect x="0.5" y="0.5" width="2" height="2" style="fill:#fff"/><path d="M2,1V2H1V1H2M3,0H0V3H3V0Z" style="fill:#4d84ba"/><rect x="13.5" y="0.5" width="2" height="2" style="fill:#fff"/><path d="M15,1V2H14V1h1m1-1H13V3h3V0Z" style="fill:#4d84ba"/><rect x="13.5" y="13.5" width="2" height="2" style="fill:#fff"/><path d="M15,14v1H14V14h1m1-1H13v3h3V13Z" style="fill:#4d84ba"/></svg>