<svg id="图层_1" data-name="图层 1" xmlns="http://www.w3.org/2000/svg" viewBox="0 0 16 16"><title>画板 7-V</title><rect x="2" y="4" width="13" height="1" style="fill:#fff"/><polygon points="15 4 2 4 2 5 15 5 15 4 15 4" style="fill:gray"/><rect x="2" y="11" width="12" height="1" style="fill:#fff"/><polygon points="14 11 2 11 2 12 14 12 14 11 14 11" style="fill:gray"/><circle cx="1.5" cy="4.5" r="1" style="fill:#fff"/><path d="M1.5,4a.5.5,0,1,1-.5.5A.5.5,0,0,1,1.5,4m0-1A1.5,1.5,0,1,0,3,4.5,1.5,1.5,0,0,0,1.5,3Z" style="fill:gray"/><circle cx="1.5" cy="11.5" r="1" style="fill:#fff"/><path d="M1.5,11a.5.5,0,1,1-.5.5.5.5,0,0,1,.5-.5m0-1A1.5,1.5,0,1,0,3,11.5,1.5,1.5,0,0,0,1.5,10Z" style="fill:gray"/><circle cx="14.5" cy="4.5" r="1" style="fill:#fff"/><path d="M14.5,4a.5.5,0,1,1-.5.5.5.5,0,0,1,.5-.5m0-1A1.5,1.5,0,1,0,16,4.5,1.5,1.5,0,0,0,14.5,3Z" style="fill:gray"/><circle cx="14.5" cy="11.5" r="1" style="fill:#fff"/><path d="M14.5,11a.5.5,0,1,1-.5.5.5.5,0,0,1,.5-.5m0-1A1.5,1.5,0,1,0,16,11.5,1.5,1.5,0,0,0,14.5,10Z" style="fill:gray"/></svg>