<svg id="图层_1" data-name="图层 1" xmlns="http://www.w3.org/2000/svg" viewBox="0 0 16 16"><title>画板 34</title><rect x="9.5" y="9.5" width="6" height="6" style="fill:#fff"/><path d="M15,10v5H10V10h5m1-1H9v7h7V9Z" style="fill:gray"/><polyline points="10 10 13 11 15 15 10 15 9.98 10.08" style="fill:#4d84ba;opacity:0.2"/><polygon points="10 12.5 10 10 12 11 13.75 12.5 10 15 10 12.5" style="fill:#4d84ba"/><rect x="9.5" y="0.5" width="6" height="6" style="fill:#fff"/><path d="M15,1V6H10V1h5m1-1H9V7h7V0Z" style="fill:gray"/><polyline points="10 1 13 2 15 6 10 6 9.98 1.08" style="fill:#4d84ba;opacity:0.2"/><polygon points="10 3.5 10 1 12 2 13.75 3.5 10 6 10 3.5" style="fill:#4d84ba"/><rect x="0.5" y="0.5" width="6" height="6" style="fill:#fff"/><path d="M6,1V6H1V1H6M7,0H0V7H7V0Z" style="fill:gray"/><polyline points="1 1 4 2 6 6 1 6 0.98 1.08" style="fill:#4d84ba;opacity:0.2"/><polygon points="1 3.5 1 1 3 2 4.75 3.5 1 6 1 3.5" style="fill:#4d84ba"/><rect x="0.5" y="9.5" width="6" height="6" style="fill:#fff"/><path d="M6,10v5H1V10H6M7,9H0v7H7V9Z" style="fill:gray"/><polyline points="1 10 4 11 6 15 1 15 0.98 10.08" style="fill:#4d84ba;opacity:0.2"/><polygon points="1 12.5 1 10 3 11 4.75 12.5 1 15 1 12.5" style="fill:#4d84ba"/></svg>