<?xml version="1.0" standalone="no"?><!DOCTYPE svg PUBLIC "-//W3C//DTD SVG 1.1//EN" "http://www.w3.org/Graphics/SVG/1.1/DTD/svg11.dtd"><svg t="1569233799558" class="icon" viewBox="0 0 1024 1024" version="1.1" xmlns="http://www.w3.org/2000/svg" p-id="1554" xmlns:xlink="http://www.w3.org/1999/xlink" width="200" height="200"><defs><style type="text/css"></style></defs><path d="M855.1 345.6L615.9 106.5c-5.3-5.3-12.4-8.2-19.9-8.2H174.7c-7.8 0-14.1 6.3-14.1 14.1v801.2c0 7.8 6.3 14.1 14.1 14.1h674.7c7.8 0 14.1-6.3 14.1-14.1V365.5c-0.1-7.5-3.1-14.6-8.4-19.9zM802.2 860H221.8V165.7h376.3v204h204.1V860z" p-id="1555" fill="#2c2c2c"></path><path d="M504.5 445.6H296.3c-14.3 0-26-11.7-26-26s11.7-26 26-26h208.2c14.3 0 26 11.7 26 26s-11.7 26-26 26zM569.6 558.6H296.3c-14.3 0-26-11.7-26-26s11.7-26 26-26h273.3c14.3 0 26 11.7 26 26s-11.7 26-26 26zM634.7 671.6H296.3c-14.3 0-26-11.7-26-26s11.7-26 26-26h338.4c14.3 0 26 11.7 26 26s-11.7 26-26 26zM699.7 784.6H296.3c-14.3 0-26-11.7-26-26s11.7-26 26-26h403.4c14.3 0 26 11.7 26 26 0.1 14.3-11.7 26-26 26zM399.2 260c-0.7-0.8-1.8-1.3-2.9-1.4l-41-3.7-15.8-39.5c-0.9-2.3-3.5-3.4-5.8-2.5-1.1 0.5-2 1.3-2.5 2.5l-15.8 39.5-41 3.7c-2.4 0.2-4.2 2.4-4 4.8 0.1 1.1 0.6 2.1 1.4 2.9L303 295l-9.3 42.3c-0.5 2.4 1 4.8 3.4 5.3 1.1 0.3 2.3 0 3.3-0.6l30.1-19.2c2.9-1.9 6.6-1.9 9.5 0l30.1 19.2c2.1 1.3 4.8 0.7 6.1-1.4 0.6-1 0.8-2.2 0.6-3.3l-9.3-42.3 31.3-28.7c1.9-1.7 2-4.5 0.4-6.3z" p-id="1556" fill="#2c2c2c"></path></svg>