<svg id="图层_1" data-name="图层 1" xmlns="http://www.w3.org/2000/svg" viewBox="0 0 32 32"><title>画板 38</title><rect x="5.5" y="1.5" width="21" height="29" style="fill:#fff"/><path d="M26,2V30H6V2H26m1-1H5V31H27V1Z" style="fill:gray"/><path d="M28,1H4A1.07,1.07,0,0,0,3,2.13V8.88A1.07,1.07,0,0,0,4,10H28a1.07,1.07,0,0,0,1-1.12V2.13A1.07,1.07,0,0,0,28,1ZM9,7H6V4H9Zm4,0H10V4h3Zm4,0H14V4h3Z" style="fill:#4d84ba"/><path d="M28,11H4a1.15,1.15,0,0,0-1,1.25v7.5A1.15,1.15,0,0,0,4,21H28a1.15,1.15,0,0,0,1-1.25v-7.5A1.15,1.15,0,0,0,28,11ZM9,17.67H6V14.33H9Zm4,0H10V14.33h3Zm4,0H14V14.33h3Z" style="fill:#4d84ba"/><path d="M28,22H4a1.07,1.07,0,0,0-1,1.13v6.75A1.07,1.07,0,0,0,4,31H28a1.07,1.07,0,0,0,1-1.12V23.13A1.07,1.07,0,0,0,28,22ZM9,28H6V25H9Zm4,0H10V25h3Zm4,0H14V25h3Z" style="fill:#4d84ba"/></svg>