<?xml version="1.0" standalone="no"?><!DOCTYPE svg PUBLIC "-//W3C//DTD SVG 1.1//EN" "http://www.w3.org/Graphics/SVG/1.1/DTD/svg11.dtd"><svg class="icon" width="200px" height="200.00px" viewBox="0 0 1024 1024" version="1.1" xmlns="http://www.w3.org/2000/svg"><path d="M841.3 936.1H215.8c-34.7 0-63.1-28.4-63.1-63.1V567.1c0-34.7 28.4-63.1 63.1-63.1h625.5c34.7 0 63.1 28.4 63.1 63.1V873c0 34.7-28.4 63.1-63.1 63.1z" fill="#009fe8" /><path d="M841.3 959.7H215.8c-47.8 0-86.7-38.9-86.7-86.7V567.1c0-47.8 38.9-86.7 86.7-86.7h625.5c47.8 0 86.7 38.9 86.7 86.7V873c0 47.8-38.9 86.7-86.7 86.7z m-625.5-432c-21.8 0-39.5 17.7-39.5 39.5V873c0 21.8 17.7 39.5 39.5 39.5h625.5c21.8 0 39.5-17.7 39.5-39.5V567.1c0-21.8-17.7-39.5-39.5-39.5H215.8z" fill="#182987" /><path d="M719.1 920.7H173.3c-47 0-85.5-38.5-85.5-85.5V173c0-47 38.5-85.5 85.5-85.5H719c47 0 85.5 38.5 85.5 85.5v662.1c0.1 47.1-38.4 85.6-85.4 85.6z" fill="#009fe8" /><path d="M719.1 944.3H173.4c-60.2 0-109.1-49-109.1-109.1V173c0-60.2 49-109.1 109.1-109.1h545.7c60.2 0 109.1 49 109.1 109.1v662.1c0 60.2-49 109.2-109.1 109.2zM173.4 111.1c-34.2 0-61.9 27.8-61.9 61.9v662.1c0 34.2 27.8 61.9 61.9 61.9h545.7c34.2 0 61.9-27.8 61.9-61.9V173c0-34.2-27.8-61.9-61.9-61.9H173.4z" fill="#036eb7" /><path d="M213.2 399.4h466L502.2 252" fill="#009fe8" /><path d="M679.2 423h-466c-13 0-23.6-10.6-23.6-23.6s10.6-23.6 23.6-23.6h400.9l-127-105.7c-10-8.3-11.4-23.2-3-33.3 8.3-10 23.2-11.3 33.2-3l177 147.5c7.6 6.4 10.5 16.8 7.1 26.2-3.4 9.3-12.2 15.5-22.2 15.5z" fill="#ffffff" /><path d="M679.2 544h-466l177 147.5" fill="#009fe8" /><path d="M390.1 715.1c-5.3 0-10.7-1.8-15.1-5.5L198 562.1c-7.6-6.4-10.5-16.8-7.1-26.2 3.4-9.3 12.3-15.6 22.2-15.6h466.1c13 0 23.6 10.6 23.6 23.6s-10.6 23.6-23.6 23.6H278.4l126.9 105.8c10 8.3 11.4 23.2 3 33.3-4.7 5.6-11.4 8.5-18.2 8.5z" fill="#ffffff" /></svg>