<svg id="图层_1" data-name="图层 1" xmlns="http://www.w3.org/2000/svg" viewBox="0 0 32 32"><title>画板 28</title><path d="M2.18,26.91l6.05-6L5.61,18.23a1.17,1.17,0,0,1,.82-2h8.17a1.17,1.17,0,0,1,1.17,1.17v8.16a1.17,1.17,0,0,1-2,.82l-2.63-2.62-6.05,6a.58.58,0,0,1-.84,0L2.18,27.75a.58.58,0,0,1,0-.84ZM17.42,15.77a1.17,1.17,0,0,1-1.17-1.17V6.43a1.17,1.17,0,0,1,2-.82l2.62,2.63,6-6.06a.58.58,0,0,1,.84,0l2.08,2.08a.58.58,0,0,1,0,.84l-6,6.06,2.62,2.63a1.17,1.17,0,0,1-.82,2Zm0,0" style="fill:#fff;stroke:gray;stroke-miterlimit:10"/></svg>