<svg id="图层_1" data-name="图层 1" xmlns="http://www.w3.org/2000/svg" viewBox="0 0 32 32"><title>画板 64 副本 6</title><rect x="6.5" y="1.5" width="19" height="29" rx="0.5" ry="0.5" style="fill:#fff"/><path d="M25,2V30H7V2H25m0-1H7A1,1,0,0,0,6,2V30a1,1,0,0,0,1,1H25a1,1,0,0,0,1-1V2a1,1,0,0,0-1-1Z" style="fill:gray"/><path d="M30,8H2A1,1,0,0,0,1,9V21a1,1,0,0,0,1,1H6V16a1,1,0,0,1,1-1H25a1,1,0,0,1,1,1v6h4a1,1,0,0,0,1-1V9A1,1,0,0,0,30,8Z" style="fill:#4d84ba"/><circle cx="27.5" cy="11.5" r="1.5" style="fill:#fff"/><rect x="9" y="20" width="9" height="1" style="fill:#b1b1b1"/><rect x="9" y="23" width="11" height="1" style="fill:#b1b1b1"/><rect x="9" y="26" width="13" height="1" style="fill:#b1b1b1"/><rect x="9" y="17" width="14" height="1" style="fill:#b1b1b1"/></svg>