<?xml version="1.0" standalone="no"?><!DOCTYPE svg PUBLIC "-//W3C//DTD SVG 1.1//EN" "http://www.w3.org/Graphics/SVG/1.1/DTD/svg11.dtd"><svg t="1590559542502" class="icon" viewBox="0 0 1024 1024" version="1.1" xmlns="http://www.w3.org/2000/svg" p-id="15731" xmlns:xlink="http://www.w3.org/1999/xlink" width="64" height="64"><defs><style type="text/css"></style></defs><path d="M284.444444 414.890667v80.440889l-170.666666 170.666666V853.333333c0 5.12 0.682667 10.012444 1.934222 14.734223l170.666667-170.666667c5.233778 19.569778 20.650667 34.986667 40.220444 40.220444l-170.666667 170.666667c4.721778 1.251556 9.671111 1.934222 14.734223 1.934222h187.335111l170.666666-170.666666h80.440889l-170.666666 170.666666h204.003555L910.222222 642.446222V438.442667l-170.666666 170.666666V528.668444l170.666666-170.666666V170.666667c0-5.12-0.682667-10.012444-1.934222-14.734223l-170.666667 170.666667a57.002667 57.002667 0 0 0-40.220444-40.220444l170.666667-170.666667A56.945778 56.945778 0 0 0 853.333333 113.777778h-187.335111l-170.666666 170.666666H414.890667l170.666666-170.666666H381.553778L113.777778 381.553778v204.003555l170.666666-170.666666zM170.666667 56.888889h682.666666a113.777778 113.777778 0 0 1 113.777778 113.777778v682.666666a113.777778 113.777778 0 0 1-113.777778 113.777778H170.666667a113.777778 113.777778 0 0 1-113.777778-113.777778V170.666667a113.777778 113.777778 0 0 1 113.777778-113.777778z m130.446222 56.888889H170.666667a56.888889 56.888889 0 0 0-56.888889 56.888889v130.446222L301.112889 113.777778zM910.222222 722.887111L722.887111 910.222222H853.333333a56.888889 56.888889 0 0 0 56.888889-56.888889v-130.446222z" fill="#4d84ba" p-id="15732"></path><path d="M341.333333 341.333333v341.333334h341.333334V341.333333H341.333333z m0-56.888889h341.333334a56.888889 56.888889 0 0 1 56.888889 56.888889v341.333334a56.888889 56.888889 0 0 1-56.888889 56.888889H341.333333a56.888889 56.888889 0 0 1-56.888889-56.888889V341.333333a56.888889 56.888889 0 0 1 56.888889-56.888889z" fill="#4d84ba" p-id="15733"></path></svg>