<svg id="图层_1" data-name="图层 1" xmlns="http://www.w3.org/2000/svg" viewBox="0 0 16 16"><title>画板 52</title><rect x="0.5" y="0.5" width="14" height="14" rx="0.44" ry="0.44" style="fill:#fff"/><path d="M14,1V14H1V1H14m.06-1H.94A.94.94,0,0,0,0,.94V14.06A.94.94,0,0,0,.94,15H14.06a.94.94,0,0,0,.94-.94V.94A.94.94,0,0,0,14.06,0Z" style="fill:gray"/><text transform="translate(-116 -14.25)" style="font-size:4px;font-family:AdobeSongStd-Light-GBpc-EUC-H, Adobe Song Std"><tspan xml:space="preserve">      41删除数据              42定时获取查看          43定时获取设置             44TimingAcquireLog         45板本轴                       46工程统计                        47上移                             48下移</tspan><tspan x="0" y="96" xml:space="preserve">   </tspan></text><rect x="3" y="3" width="4" height="5" style="fill:#eec97f"/><rect x="8" y="3" width="4" height="3" style="fill:#de673e"/><rect x="8" y="7" width="5" height="6" style="fill:#4d84ba"/><rect x="3" y="9" width="4" height="3" style="fill:#de673e"/><rect x="7.5" y="7.5" width="8" height="8" rx="0.63" ry="0.63" style="fill:#fff"/><path d="M14.88,8a.13.13,0,0,1,.13.13v6.75a.13.13,0,0,1-.12.13H8.13A.13.13,0,0,1,8,14.88V8.13A.13.13,0,0,1,8.13,8h6.75m0-1H8.13A1.13,1.13,0,0,0,7,8.13v6.75A1.13,1.13,0,0,0,8.13,16h6.75A1.13,1.13,0,0,0,16,14.88V8.13A1.13,1.13,0,0,0,14.88,7Z" style="fill:#4d84ba"/><rect x="9.5" y="7.5" width="4" height="4" rx="0.5" ry="0.5" style="fill:#fff"/><path d="M13,8v3H10V8h3m0-1H10A1,1,0,0,0,9,8v3a1,1,0,0,0,1,1h3a1,1,0,0,0,1-1V8a1,1,0,0,0-1-1Z" style="fill:#4d84ba"/><rect x="10" y="9" width="2" height="1" rx="0.5" ry="0.5" style="fill:#de673e"/></svg>