<svg id="图层_1" data-name="图层 1" xmlns="http://www.w3.org/2000/svg" viewBox="0 0 16 16"><title>画板 67</title><rect x="2" y="1.1" width="1" height="14.9" style="fill:#7e7e7e"/><rect x="8.3" y="-4.7" width="1" height="14.4" transform="translate(11.3 -6.3) rotate(90)" style="fill:#7e7e7e"/><polygon points="5.33 6 4 6 4 5.33 5.33 5.33 5.33 4 6 4 6 5.33 6 6 5.33 6" style="fill:#7e7e7e"/><ellipse cx="2.42" cy="2.5" rx="1.92" ry="2" style="fill:#fff"/><path d="M2.42,1A1.46,1.46,0,0,1,3.83,2.5,1.46,1.46,0,0,1,2.42,4,1.46,1.46,0,0,1,1,2.5,1.46,1.46,0,0,1,2.42,1m0-1A2.46,2.46,0,0,0,0,2.5,2.46,2.46,0,0,0,2.42,5,2.46,2.46,0,0,0,4.83,2.5,2.46,2.46,0,0,0,2.42,0Z" style="fill:gray"/><rect x="5" y="7" width="11" height="1" rx="0.5" ry="0.5" style="fill:#4d84ba"/><path d="M12,6V7H9V6h3m0-1H9A1,1,0,0,0,8,6V7A1,1,0,0,0,9,8h3a1,1,0,0,0,1-1V6a1,1,0,0,0-1-1Z" style="fill:#4d84ba"/><path d="M13,8v7H8V8h5m0-1H8A1,1,0,0,0,7,8v7a1,1,0,0,0,1,1h5a1,1,0,0,0,1-1V8a1,1,0,0,0-1-1Z" style="fill:#4d84ba"/><path d="M9.5,9a.5.5,0,0,0-.5.5v4a.5.5,0,0,0,1,0v-4A.5.5,0,0,0,9.5,9Z" style="fill:#4d84ba"/><path d="M11.5,9a.5.5,0,0,0-.5.5v4a.5.5,0,0,0,1,0v-4a.5.5,0,0,0-.5-.5Z" style="fill:#4d84ba"/></svg>