<svg id="图层_1" data-name="图层 1" xmlns="http://www.w3.org/2000/svg" viewBox="0 0 32 32"><title>画板 64 副本 2</title><rect x="1.5" y="1.5" width="29" height="29" rx="0.5" ry="0.5" style="fill:#fff"/><path d="M30,2V30H2V2H30m0-1H2A1,1,0,0,0,1,2V30a1,1,0,0,0,1,1H30a1,1,0,0,0,1-1V2a1,1,0,0,0-1-1Z" style="fill:gray"/><path d="M30,25v4a1.07,1.07,0,0,1-1,1H3a1.07,1.07,0,0,1-1-1V2.92A.92.92,0,0,1,2.92,2H29.08a.92.92,0,0,1,.92.92V7h1V2a1,1,0,0,0-1-1H2A1,1,0,0,0,1,2V30a1,1,0,0,0,1,1H30a1,1,0,0,0,1-1V25Z" style="fill:gray"/><path d="M24,9.61,22.39,8,16,14.39,9.61,8,8,9.61,14.39,16,8,22.39,9.61,24,16,17.61,22.39,24,24,22.39,17.61,16Zm0,0" style="fill:#4d84ba"/></svg>