<?xml version="1.0" standalone="no"?><!DOCTYPE svg PUBLIC "-//W3C//DTD SVG 1.1//EN" "http://www.w3.org/Graphics/SVG/1.1/DTD/svg11.dtd"><svg t="1545989708249" class="icon" style="" viewBox="0 0 1024 1024" version="1.1" xmlns="http://www.w3.org/2000/svg" p-id="2201" xmlns:xlink="http://www.w3.org/1999/xlink" width="64" height="64"><defs><style type="text/css"></style></defs><path d="M423.119587 555.496696c-10.335098-75.083559 42.153359-144.327899 117.235893-154.662997 17.642568-2.428656 34.925752-1.272689 51.235222 2.71432-28.92988-25.606348-68.376086-38.989553-109.651975-33.308014-75.081511 10.335098-127.570992 79.580463-117.235894 154.661974 7.906442 57.439967 50.328059 101.540755 103.426752 114.522597-23.695778-20.973267-40.35644-50.121234-45.009998-83.92788z" fill="#1296db" p-id="2202"></path><path d="M304.659126 130.242309l67.230358 48.459468a123.222551 123.222551 0 0 0 73.2549 23.25346h0.001024c10.153871-0.099317 20.085558-1.831731 29.793015-4.364823-14.552482-3.824212-28.455821-9.981858-40.812069-18.888637l-67.230358-48.459468a54.041691 54.041691 0 0 0-59.07716-2.693842l-3.847761 2.272001c0.224231 0.154607 0.467916 0.263139 0.688051 0.421841zM451.213976 820.617467a121.498328 121.498328 0 0 0-72.583231 24.958229l-66.37439 50.727374c-0.659382 0.504775-1.385317 0.876446-2.063129 1.347433l4.923865 2.778825a54.03862 54.03862 0 0 0 59.376134-4.126258l66.37439-50.727374c12.76785-9.758651 27.364359-16.452813 42.706257-20.52583-10.51735-2.800326-21.335722-4.539908-32.359896-4.432399zM943.149919 486.12437a54.041691 54.041691 0 0 0-32.879005-49.196666l-75.063081-31.940103a123.782616 123.782616 0 0 1-58.116755-50.955701v-0.001023a123.771354 123.771354 0 0 1-16.537796-75.664102l8.345689-80.710832a54.040667 54.040667 0 0 0-27.19337-52.622587l-37.588878-21.212856c-18.110484-10.220423-40.349273-8.997904-57.313005 2.779849l32.665014 18.434031a54.040667 54.040667 0 0 1 27.19337 52.622586l-8.345689 80.710833c-2.723535 26.341498 3.071656 52.861152 16.537795 75.664101v0.001024a123.767258 123.767258 0 0 0 58.116755 50.955701l75.063081 31.940103a54.042715 54.042715 0 0 1 32.879006 49.196666l0.422864 43.122978a54.040667 54.040667 0 0 1-32.388564 50.044443l-73.453533 32.116211a122.886717 122.886717 0 0 0-57.790136 52.19665h-0.001024a122.890812 122.890812 0 0 0-14.959988 75.287312l10.083223 82.601949a54.040667 54.040667 0 0 1-26.164366 53.08231l-33.028493 19.503992c17.306734 12.071608 40.084087 13.081159 58.345081 2.298622l36.921305-21.802614a54.03862 54.03862 0 0 0 26.164366-53.08231l-10.083223-82.601949a122.884669 122.884669 0 0 1 72.751148-127.483962l73.453533-32.116211a54.040667 54.040667 0 0 0 32.388565-50.044443l-0.423889-43.124002z" fill="#1296db" p-id="2203"></path><path d="M341.674628 919.953797a66.420465 66.420465 0 0 1-32.705968-8.618043l-37.162942-20.976338a66.393844 66.393844 0 0 1-33.422689-65.620811l9.526229-82.139152c2.691795-23.3538-2.394868-47.371078-14.350777-67.595885-11.991745-20.311837-30.608028-36.394004-52.440334-45.291568l-76.144304-31.045227c-24.891676-10.173325-41.148927-34.103572-41.428448-61.006159l-0.419793-42.704209a66.518758 66.518758 0 0 1 39.64484-61.530389l76.476042-33.824051c21.396132-9.456605 39.488185-25.887917 50.972084-46.23559 11.676388-20.679412 16.326875-45.012047 13.092421-68.557314l-10.942262-79.849744c-3.670629-26.639448 8.932376-52.685043 32.111091-66.354937l36.970452-21.83333c22.706705-13.44259 51.304846-12.148399 72.770601 3.321484l67.229335 48.437967c19.01867 13.722111 42.808645 20.696818 65.8133 20.889308 23.756187-0.227303 47.23183-8.302686 66.110228-22.724111l63.767578-48.717488a66.417393 66.417393 0 0 1 73.119747-5.069256l37.600141 21.221047c23.091686 13.005391 36.236326 38.456109 33.492312 64.817061l-8.338522 80.706737c-2.42968 23.510455 2.849473 47.651623 14.858624 68.015678v-0.017406c12.165805 20.608764 30.223047 36.428816 52.248868 45.798391L915.182492 425.386469c24.350041 10.365815 40.239717 34.156814 40.501831 60.621178l0.419793 43.124002a66.489065 66.489065 0 0 1-39.906954 61.653255l-73.451486 32.111092c-21.780089 9.527253-40.222311 26.185867-51.898699 46.864255-11.502328 20.381461-16.273633 44.382357-13.425184 67.613291l10.086294 82.593758c3.198618 26.272897-9.456605 51.933511-32.233958 65.393508l-36.935639 21.797494c-23.143904 13.722111-52.073784 12.148399-73.661382-3.950149l-64.869278-48.437967c-19.001264-14.176716-42.651991-21.570192-66.233094-21.623434-23.388612 0.227303-46.51511 8.180844-65.096582 22.374966l-66.389748 50.74478a66.500328 66.500328 0 0 1-40.413778 13.687299z m-6.380853-787.380101a41.319916 41.319916 0 0 0-21.098181 5.76857l-36.987857 21.83333c-14.438831 8.529989-22.304318 24.769834-20.014911 41.37623l10.942263 79.867151c3.967556 28.92988-1.747772 58.856-16.099573 84.271906-14.106068 25.014542-36.359192 45.203513-62.649495 56.828707l-76.476043 33.824052a41.495001 41.495001 0 0 0-24.716592 38.369078l0.419793 42.704209c0.175084 16.763051 10.313597 31.708705 25.835699 38.03734l76.144304 31.045227c26.866751 10.977075 49.800758 30.765706 64.537539 55.761819 14.718352 24.891676 20.993745 54.451245 17.672261 83.223447l-9.527253 82.139152a41.441759 41.441759 0 0 0 20.836066 40.921625l37.162942 20.976339c14.508455 8.146032 32.373206 6.922489 45.6059-3.181212l66.389749-50.727375c22.846977-17.462364 51.28744-27.234326 80.059641-27.531252h1.293167c28.719983 0 57.14304 9.421793 80.181484 26.622042l64.869279 48.420561a41.467356 41.467356 0 0 0 45.920232 2.464492l36.93564-21.797495c14.194122-8.39074 22.095445-24.402259 20.084534-40.781352l-10.086294-82.593758c-3.478138-28.510087 2.377462-57.964196 16.500936-82.961332 14.333371-25.398499 36.935639-45.815797 63.680548-57.526997l73.451485-32.111092a41.443806 41.443806 0 0 0 24.87427-38.438702l-0.419793-43.124002c-0.157678-16.500936-10.068888-31.342154-25.259251-37.792632l-75.060009-31.936007c-26.972211-11.484922-49.102469-30.887549-63.994881-56.111987v-0.017406c-14.735758-24.926488-21.203641-54.52087-18.213896-83.327884l8.338522-80.706737c1.71296-16.431312-6.48529-32.286176-20.871902-40.414801l-37.600141-21.221047c-14.525861-8.163438-32.390612-6.922489-45.6059 3.181211l-63.767578 48.717488c-23.143904 17.672261-51.933511 27.566065-81.073288 27.864015-29.226807 0.454605-57.387749-8.810533-80.706737-25.625802l-67.229334-48.437967a41.464284 41.464284 0 0 0-24.277345-7.851152z" fill="#1296db" p-id="2204"></path><path d="M509.624586 661.892716c-82.576351 0-149.770874-67.194522-149.770874-149.770874s67.194522-149.753468 149.770874-149.753467 149.753468 67.176092 149.753468 149.753467-67.177116 149.770874-149.753468 149.770874z m0-274.457581c-68.76721 0-124.704113 55.936903-124.704113 124.686707 0 68.76721 55.936903 124.704113 124.704113 124.704113 68.749804 0 124.686707-55.936903 124.686707-124.704113 0-68.749804-55.936903-124.686707-124.686707-124.686707z" fill="#1296db" p-id="2205"></path></svg>