<?xml version="1.0" standalone="no"?><!DOCTYPE svg PUBLIC "-//W3C//DTD SVG 1.1//EN" "http://www.w3.org/Graphics/SVG/1.1/DTD/svg11.dtd"><svg t="1575511305485" class="icon" viewBox="0 0 1024 1024" version="1.1" xmlns="http://www.w3.org/2000/svg" p-id="1790" xmlns:xlink="http://www.w3.org/1999/xlink" width="516" height="516"><defs><style type="text/css"></style></defs><path d="M461.872951 687.675535c-6.297468 0-19.067039-4.813065-25.363184-11.324858l-94.528165-91.764424c-12.593612-13.023587-12.854243-38.089096 0-51.21323 12.855566-13.124134 37.567835-13.023587 50.161447 0L486.59845 624.53416c12.594935 13.023587 12.594935 38.79293 0 51.815194-13.304062 12.421623-18.426708 11.324858-24.724176 11.324858z m1.447359-0.829519c-6.297468 0-20.58584-4.585509-26.883307-11.097303-12.594935-13.023587-19.48246-45.061292 0-65.721219l183.211328-187.208104c15.309726-19.408372 34.999897-16.966119 53.607855 0 18.607959 16.966119 12.594935 43.627163 0 56.65075L488.871359 675.74739c-6.297468 6.511793-19.253581 11.097302-25.551049 11.097303z m332.043246 336.808682H228.636444C159.370915 1023.656021 102.697674 952.028941 102.697674 867.378274v-592.557313c0-84.65199 56.67324-156.280393 125.93877-156.280393h125.940093C367.17015 40.400372 436.437003 0.330749 512 0.330749c75.562997 0 144.82985 40.069623 157.423463 118.209819h125.940093c69.26553 0 125.93877 71.62708 125.93877 156.277747v592.557313c0 84.65199-56.67324 156.280393-125.93877 156.280393zM267.586811 210.11845c-50.260672 0-66.282171 51.12062-66.28217 101.910491v495.813126c0 38.13937 16.84308 119.798739 66.28217 119.798739h504.915349c49.43909 0 48.203411-73.644651 48.203411-127.240599V312.028941c0-53.835411 0.414098-101.910491-48.203411-101.910491H617.048641c-4.944041 0-20.853085 0.127008-26.261499-5.06708-5.405767-5.194088-4.629168-12.475866-4.629168-17.923969v-26.110677c0-43.587473-35.162625-65.852196-74.713633-65.852197s-73.518966 22.264724-73.518966 65.852197c0 5.449426 0.76337 31.767814-4.180672 37.215917-4.944041 5.449426-14.314832 11.885809-19.257551 11.885809H267.586811z m433.321344 129.816475H323.091845c-18.892403 0-31.486016-13.023587-31.486016-32.558966v-130.231897c0-19.53538 17.267762-32.558966 36.15752-32.558966 18.892403 0 36.66555 13.023587 36.66555 32.558966v80.571866H660.837209v-80.571866c0-19.53538 18.368496-32.558966 36.308341-32.558966 17.939845 0 35.24862 13.023587 35.248621 32.558966v130.231897c0 19.53538-12.594935 32.558966-31.486016 32.558966z" fill="#4D84BA" p-id="1791"></path></svg>