<svg id="图层_1" data-name="图层 1" xmlns="http://www.w3.org/2000/svg" viewBox="0 0 16 16"><title>画板 30</title><rect x="0.5" y="0.5" width="14" height="14" rx="0.57" ry="0.57" style="fill:#fff"/><path d="M13.93,1a.08.08,0,0,1,.07.07V13.93a.08.08,0,0,1-.07.07H1.07A.08.08,0,0,1,1,13.93V1.07A.08.08,0,0,1,1.07,1H13.93m0-1H1.07A1.07,1.07,0,0,0,0,1.07V13.93A1.07,1.07,0,0,0,1.07,15H13.93A1.07,1.07,0,0,0,15,13.93V1.07A1.07,1.07,0,0,0,13.93,0Z" style="fill:#4d84ba"/><rect x="1" y="1" width="13" height="2" style="fill:#4d84ba"/><rect x="4" y="3" width="1" height="11" style="fill:#4d84ba"/><polygon points="10 3 9 3 9 14 10 14 10 3 10 3" style="fill:#4d84ba"/><rect x="1" y="6" width="13" height="1" style="fill:#4d84ba"/><rect x="1" y="10" width="13" height="1" style="fill:#4d84ba"/><circle cx="11.5" cy="11.5" r="4.5" style="fill:#de673e"/><polygon points="12.91 9.38 11.5 10.79 10.09 9.38 9.38 10.09 10.79 11.5 9.38 12.91 10.09 13.62 11.5 12.21 12.91 13.62 13.62 12.91 12.21 11.5 13.62 10.09 12.91 9.38" style="fill:#fff"/></svg>