<?xml version="1.0" standalone="no"?><!DOCTYPE svg PUBLIC "-//W3C//DTD SVG 1.1//EN" "http://www.w3.org/Graphics/SVG/1.1/DTD/svg11.dtd"><svg t="1570592633369" class="icon" viewBox="0 0 1024 1024" version="1.1" xmlns="http://www.w3.org/2000/svg" p-id="10767" xmlns:xlink="http://www.w3.org/1999/xlink" width="200" height="200"><defs><style type="text/css"></style></defs><path d="M204.8 921.6v-307.2l307.2-102.4 307.2 102.4v307.2h102.4v51.2H102.4v-51.2h102.4zM819.2 102.4v307.2l-307.2 102.4-307.2-102.4V102.4H102.4V51.2h819.2v51.2h-102.4zM256 102.4v270.336l256 85.2992 256-85.3504V102.4H256z m0 548.864V921.6h512v-270.336l-256-85.2992-256 85.3504zM307.2 307.2h409.6v51.2l-204.8 51.2-204.8-51.2V307.2z m409.6 563.2H307.2v-51.2l204.8-51.2 204.8 51.2v51.2z" p-id="10768" fill="#1296db"></path></svg>