<?xml version="1.0" standalone="no"?><!DOCTYPE svg PUBLIC "-//W3C//DTD SVG 1.1//EN" "http://www.w3.org/Graphics/SVG/1.1/DTD/svg11.dtd"><svg t="1523581805514" class="icon" style="" viewBox="0 0 1024 1024" version="1.1" xmlns="http://www.w3.org/2000/svg" p-id="11886" xmlns:xlink="http://www.w3.org/1999/xlink" width="128" height="128"><defs><style type="text/css"></style></defs><path d="M704 544C704 563.2 691.2 576 672 576l-384 0C268.8 576 256 563.2 256 544l0 0C256 524.8 268.8 512 288 512l384 0C691.2 512 704 524.8 704 544L704 544zM768 672c0-19.2-12.8-32-32-32l-448 0C268.8 640 256 652.8 256 672l0 0C256 691.2 268.8 704 288 704l448 0C755.2 704 768 691.2 768 672L768 672zM768 800c0-19.2-12.8-32-32-32l-448 0C268.8 768 256 780.8 256 800l0 0C256 819.2 268.8 832 288 832l448 0C755.2 832 768 819.2 768 800L768 800zM928 640c-19.2 0-32 12.8-32 32l0 192c0 19.2-12.8 32-32 32l-704 0C140.8 896 128 883.2 128 864l0-704C128 140.8 140.8 128 160 128L256 128l0 224C256 403.2 300.8 448 352 448l460.8 0 0 0 38.4 0 0 0 0 0-70.4 70.4c-12.8 12.8-12.8 32 0 44.8 12.8 12.8 32 12.8 44.8 0l128-128C960 435.2 960 428.8 960 416c0-6.4-6.4-19.2-12.8-25.6l-128-128c-12.8-12.8-32-12.8-44.8 0-12.8 12.8-12.8 32 0 44.8L844.8 384 832 384c0 0 0 0 0 0L352 384C332.8 384 320 371.2 320 352L320 128l128 0 0 128 192 0L640 96C640 76.8 627.2 64 608 64l-448 0C108.8 64 64 108.8 64 160l0 704C64 915.2 108.8 960 160 960l704 0c51.2 0 96-44.8 96-96l0-192C960 652.8 947.2 640 928 640z" p-id="11887" fill="#3f81c1"></path></svg>