<?xml version="1.0" standalone="no"?><!DOCTYPE svg PUBLIC "-//W3C//DTD SVG 1.1//EN" "http://www.w3.org/Graphics/SVG/1.1/DTD/svg11.dtd"><svg t="1590221630136" class="icon" viewBox="0 0 1024 1024" version="1.1" xmlns="http://www.w3.org/2000/svg" p-id="2305" xmlns:xlink="http://www.w3.org/1999/xlink" width="64" height="64"><defs><style type="text/css"></style></defs><path d="M890.000379 1023.997806H133.851142C59.977014 1023.997806 0 963.874506 0 890.146664V606.572414c0-73.874127 60.1233-133.851142 133.851142-133.851141h29.476508a39.423916 39.423916 0 0 1 0 78.847831H133.851142a55.295882 55.295882 0 0 0-55.149596 55.149596v283.574249c0 30.354221 24.795375 55.149596 55.149596 55.149596h756.149237a55.295882 55.295882 0 0 0 55.076453-55.149596V606.572414a55.295882 55.295882 0 0 0-55.076453-55.149596h-32.402217a39.497058 39.497058 0 0 1 0-78.774688h32.402217c73.874127 0 133.851142 60.050157 133.851141 133.851142v283.501107A133.924284 133.924284 0 0 1 889.927236 1023.997806z" fill="#4d84ba" p-id="2306"></path><path d="M724.624733 787.673741H299.29993a39.423916 39.423916 0 0 1-39.423915-39.497059V134.07057c0-73.874127 60.1233-133.851142 133.851141-133.851142h236.324065c73.874127 0 133.851142 60.1233 133.851142 133.851142v614.398683a39.204487 39.204487 0 0 1-39.27763 39.27763zM338.723846 708.972195h346.476971v-574.901625a55.295882 55.295882 0 0 0-55.149596-55.149596h-236.250922a55.295882 55.295882 0 0 0-55.076453 55.076453v574.901625z" fill="#4d84ba" p-id="2307"></path><path d="M848.674753 787.673741H730.695577a39.497058 39.497058 0 0 1 0-78.847831h118.052319a39.497058 39.497058 0 0 1 0 78.847831z m-543.450264 0H163.473935a39.497058 39.497058 0 0 1 0-78.847831h141.750554a39.497058 39.497058 0 0 1 0 78.847831z m200.776712-200.776713a39.497058 39.497058 0 0 1-39.423915-39.423915V240.346914a39.423916 39.423916 0 0 1 78.847831 0v307.199341c0 21.723382-17.554248 39.350773-39.423916 39.350773z" fill="#4d84ba" p-id="2308"></path><path d="M423.34995 362.422081a39.423916 39.423916 0 0 1-27.867369-67.144999l70.875277-70.94842a39.350773 39.350773 0 0 1 55.588452 55.734738l-70.802134 70.875277a38.911917 38.911917 0 0 1-27.794226 11.483404z" fill="#4d84ba" p-id="2309"></path><path d="M588.652453 362.422081a39.423916 39.423916 0 0 1-27.794226-11.483404l-70.94842-70.94842a39.350773 39.350773 0 0 1 55.588453-55.588452l70.948419 70.875277a39.350773 39.350773 0 0 1-27.794226 67.144999z" fill="#4d84ba" p-id="2310"></path></svg>