<?xml version="1.0" standalone="no"?><!DOCTYPE svg PUBLIC "-//W3C//DTD SVG 1.1//EN" "http://www.w3.org/Graphics/SVG/1.1/DTD/svg11.dtd"><svg t="1530243687613" class="icon" style="" viewBox="0 0 1024 1024" version="1.1" xmlns="http://www.w3.org/2000/svg" p-id="14406" xmlns:xlink="http://www.w3.org/1999/xlink" width="64" height="64"><defs><style type="text/css"></style></defs><path d="M362.7 981.3c-4.5 0-9.1-0.7-13.5-2.2L87.7 891.8C35.3 874.3 0 825.3 0 770V204.4c0-41.8 19.5-79.8 53.4-104.2s76.1-30.9 115.7-17.6l207.1 69.2c17.4 5.8 29.1 22.1 29.1 40.5v746.4c0 13.7-6.6 26.6-17.7 34.6-7.4 5.3-16.1 8-24.9 8z m-234.4-820c-8.9 0-17.6 2.8-25 8.2-11.4 8.2-17.9 20.9-17.9 35V770c0 18.6 11.8 35 29.4 40.9L320 879.4V223l-177.9-59.4c-4.6-1.6-9.2-2.3-13.8-2.3zM896 948.2c-13.7 0-27.6-2.2-41.1-6.8l-207.1-69.2c-17.4-5.8-29.1-22.1-29.1-40.5V85.3c0-13.7 6.6-26.6 17.7-34.6s25.4-10.2 38.5-5.8l261.4 87.3c52.5 17.5 87.7 66.5 87.7 121.8v565.6c0 41.8-19.5 79.8-53.4 104.2-22.3 16.1-48.2 24.4-74.6 24.4zM704 801l177.9 59.4c13.4 4.5 27.5 2.3 38.8-5.9 11.4-8.2 17.9-20.9 17.9-35V254c0-18.6-11.8-35-29.4-40.9L704 144.6V801z" fill="#5F6379" p-id="14407"></path><path d="M362.7 981.3c-8.7 0-17.3-2.6-24.6-7.8-11.4-8-18.1-21-18.1-34.9V192.2c0-18 11.3-34.1 28.3-40.2L647 45.2c13.1-4.7 27.6-2.7 38.9 5.3 11.4 8 18.1 21 18.1 34.9v746.4c0 18-11.3 34.1-28.3 40.2L377 978.8c-4.6 1.7-9.5 2.5-14.3 2.5z m42.6-759v655.8l213.3-76.4V145.9l-213.3 76.4z" fill="#3688FF" p-id="14408"></path></svg>