<?xml version="1.0" standalone="no"?><!DOCTYPE svg PUBLIC "-//W3C//DTD SVG 1.1//EN" "http://www.w3.org/Graphics/SVG/1.1/DTD/svg11.dtd"><svg t="1545633191652" class="icon" style="" viewBox="0 0 1024 1024" version="1.1" xmlns="http://www.w3.org/2000/svg" p-id="1992" xmlns:xlink="http://www.w3.org/1999/xlink" width="200" height="200"><defs><style type="text/css"></style></defs><path d="M708.007651 63.983243h-336.012823c-59.251475 0-112.00598 54.377468-112.00598 112.003934l-32.370245 0.783852c-59.249429 0-107.635439 53.594639-107.63544 111.221104v560.021714c0 57.628512 52.754504 112.003933 112.003934 112.003933h420.018075c59.249429 0 112.003933-54.375421 112.003934-112.003933h28.000727c59.251475 0 112.003933-54.375421 112.003934-112.00598V288.663422L708.007651 63.983243z m-56.002479 840.032059H231.98812c-29.401634 0-56.002478-27.493168-56.002478-56.002479V287.992133c0-28.507264 23.969924-55.107085 53.371558-55.107085l30.688953-0.896416v504.018211c0 57.630558 52.754504 112.00598 112.003933 112.00598H708.059839c-0.052189 28.561499-26.710338 56.002478-56.054667 56.002479z m196.00714-168.008459c0 28.508287-26.599821 56.002478-56.002479 56.002479h-420.016029c-29.401634 0-56.004525-27.493168-56.004525-56.002479V175.987177c0-28.506241 26.601868-56.003502 56.004525-56.003502h280.010345c-0.448208 64.514339 0 112.731504 0 112.731504 0 58.187237 52.358485 111.278409 112.003934 111.278409h84.003205v392.013255zM764.009106 287.992133c-29.847795 0-56.002478-54.155411-56.002478-83.277681v-83.890643L848.012312 287.992133h-84.003206z m-334.111521 101.988836c0-8.824993-7.139607-15.96767-15.965623-15.96767s-15.96767 7.141654-15.96767 15.96767v223.375463c0 8.789177 7.141654 15.933901 15.96767 15.933901h350.956164c8.826016 0 19.037589-7.144724 19.079544-15.933901 0-8.81783-10.216689-15.96153-19.037589-15.96153H429.897585v-207.413933z m307.587424 28.529777c-0.453325 0.487094-0.639566 1.085728-1.050935 1.607614l-75.233472 75.232448-76.126818-76.130911c-0.182149-0.222057-0.264013-0.483001-0.448208-0.708128-6.242168-6.245238-16.376992-6.245238-22.626323 0-0.448208 0.487094-0.63138 1.085728-1.043773 1.607614l-86.709851 86.710874c-6.099928 6.094812-6.099928 16.006556 0 22.101367 6.091742 6.095835 15.999392 6.095835 22.095228 0l77.102029-77.140914 74.561159 74.557066c0.559748 0.859577 0.973164 1.834788 1.717108 2.582825 6.093788 6.095835 16.005532 6.095835 22.103414 0l85.622076-85.630263c0.933255-0.632403 1.836835-1.309832 2.65855-2.169409 6.246261-6.242168 6.246261-16.375969 0-22.620183-6.243191-6.245238-16.378016-6.245238-22.620184 0z" fill="#1296db" p-id="1993"></path></svg>