<?xml version="1.0" standalone="no"?><!DOCTYPE svg PUBLIC "-//W3C//DTD SVG 1.1//EN" "http://www.w3.org/Graphics/SVG/1.1/DTD/svg11.dtd"><svg t="1523599308773" class="icon" style="" viewBox="0 0 1024 1024" version="1.1" xmlns="http://www.w3.org/2000/svg" p-id="24374" xmlns:xlink="http://www.w3.org/1999/xlink" width="128" height="128"><defs><style type="text/css"></style></defs><path d="M337.549318 593.908498l97.849562 97.849562c7.643074 7.643074 17.660218 11.464099 27.677363 11.464099 10.013051 0 20.030196-3.821025 27.669176-11.464099l195.700147-195.695031c15.286148-15.286148 15.286148-40.065508 0-55.350632-15.286148-15.286148-40.060391-15.286148-55.346539 0L463.076242 608.734158l-70.176292-70.173223c-15.286148-15.281031-40.064484-15.281031-55.350632 0C322.268286 553.844014 322.268286 578.626443 337.549318 593.908498zM864.593965 127.748523 693.416328 127.748523c6.260587 8.999978 9.94142 19.928888 9.94142 31.722492s-3.680832 22.722514-9.94142 31.722492l139.455145 0 0 704.375425L191.022103 895.568932 191.022103 191.193507 329.559343 191.193507c-6.260587-8.999978-9.94142-19.928888-9.94142-31.722492s3.680832-22.722514 9.94142-31.722492L159.299611 127.748523c-17.520025 0-31.722492 14.202467-31.722492 31.722492l0 767.82041c0 17.520025 14.202467 31.722492 31.722492 31.722492l705.294354 0c17.520025 0 31.722492-14.202467 31.722492-31.722492L896.316457 159.471015C896.316457 141.950989 882.113991 127.748523 864.593965 127.748523zM444.80204 256.002558l132.0065 0c33.909297 0 61.398372-27.489074 61.398372-61.398372l0-5.457292c0-33.909297-27.489074-61.398372-61.398372-61.398372l-2.593058 0c2.105964-5.276167 3.275603-11.027148 3.275603-17.055444 0-25.432229-20.61655-46.048779-46.048779-46.048779l-38.885636 0c-25.432229 0-46.048779 20.61655-46.048779 46.048779 0 6.028297 1.170662 11.779278 3.276626 17.055444l-4.982478 0c-33.909297 0-61.398372 27.489074-61.398372 61.398372l0 5.457292C383.403668 228.513484 410.892743 256.002558 444.80204 256.002558z" p-id="24375" fill="#3f81c1"></path></svg>