<svg id="图层_1" data-name="图层 1" xmlns="http://www.w3.org/2000/svg" viewBox="0 0 16 16"><title>画板 2-V</title><path d="M8,6a5,5,0,0,1,5,5h1A6,6,0,0,0,2,11H3A5,5,0,0,1,8,6Z" style="fill:gray"/><circle cx="14" cy="12" r="1.5" style="fill:#fff"/><path d="M14,11a1,1,0,1,1-1,1,1,1,0,0,1,1-1m0-1a2,2,0,1,0,2,2,2,2,0,0,0-2-2Z" style="fill:gray"/><circle cx="2" cy="12" r="1.5" style="fill:#fff"/><path d="M2,11a1,1,0,1,1-1,1,1,1,0,0,1,1-1m0-1a2,2,0,1,0,2,2,2,2,0,0,0-2-2Z" style="fill:gray"/><rect x="1" y="4" width="14" height="1" style="fill:#4d84ba"/><ellipse cx="8" cy="4.93" rx="1.5" ry="1.57" style="fill:#fff"/><path d="M8,3.86A1,1,0,0,1,9,4.93a1,1,0,1,1-2,0A1,1,0,0,1,8,3.86m0-1A2,2,0,0,0,6,4.93a2,2,0,1,0,4,0A2,2,0,0,0,8,2.86Z" style="fill:#4d84ba"/><circle cx="1.5" cy="4.5" r="1" style="fill:#fff"/><path d="M1.5,4a.5.5,0,1,1-.5.5A.5.5,0,0,1,1.5,4m0-1A1.5,1.5,0,1,0,3,4.5,1.5,1.5,0,0,0,1.5,3Z" style="fill:#4d84ba"/><circle cx="14.5" cy="4.5" r="1" style="fill:#fff"/><path d="M14.5,4a.5.5,0,1,1-.5.5.5.5,0,0,1,.5-.5m0-1A1.5,1.5,0,1,0,16,4.5,1.5,1.5,0,0,0,14.5,3Z" style="fill:#4d84ba"/></svg>