<?xml version="1.0" standalone="no"?><!DOCTYPE svg PUBLIC "-//W3C//DTD SVG 1.1//EN" "http://www.w3.org/Graphics/SVG/1.1/DTD/svg11.dtd"><svg t="1592364498595" class="icon" viewBox="0 0 1536 1024" version="1.1" xmlns="http://www.w3.org/2000/svg" p-id="3266" xmlns:xlink="http://www.w3.org/1999/xlink" width="300" height="200"><defs><style type="text/css"></style></defs><path d="M1479.261091 840.005818L1164.613818 94.533818C1144.738909 48.151273 1091.746909 15.010909 1042.059636 15.010909H495.546182c-49.687273 0-102.679273 36.445091-122.554182 79.522909L58.321455 840.005818c-16.546909 43.077818-16.546909 86.132364 6.632727 119.272727 19.874909 33.140364 59.624727 49.710545 105.984 49.710546h1195.706182c46.382545 0 86.132364-19.898182 106.007272-49.710546 19.851636-33.140364 23.179636-76.194909 6.609455-119.272727z m-871.098182-261.748363l29.812364-215.365819h225.210182l29.812363 215.365819H608.162909z m291.467636 66.257454l39.749819 298.193455H555.170909l39.726546-298.193455h304.73309zM329.937455 362.891636h238.475636l-29.812364 215.365819H237.195636l92.741819-215.365819z m314.647272-66.257454l29.812364-215.342546h149.061818l29.789091 215.342546h-208.663273z m284.858182 66.257454h264.983273c3.304727 0 6.609455 0 9.937454-3.304727l92.741819 218.670546H959.255273l-29.812364-215.365819z m172.218182-241.850181l72.890182 175.592727H919.505455l-29.812364-215.342546h149.038545c26.507636 0 56.32 19.874909 62.929455 39.749819z m-669.044364 0c9.937455-19.874909 39.726545-39.749818 62.929455-39.749819h112.616727l-29.812364 215.342546h-221.928727l76.194909-175.592727zM117.946182 922.833455c-9.937455-13.242182-9.937455-33.140364 0-56.32l92.741818-221.998546h321.28l-39.726545 298.193455H170.938182c-26.484364 0-43.054545-6.609455-52.992-19.874909z m1298.385454 0c-9.937455 13.265455-26.507636 19.874909-49.687272 19.874909h-357.701819l-39.749818-298.193455h354.397091l92.741818 221.998546c9.937455 23.179636 9.937455 43.077818 0 56.32z" p-id="3267" fill="#1296db"></path></svg>