<svg id="图层_1" data-name="图层 1" xmlns="http://www.w3.org/2000/svg" viewBox="0 0 16 16"><title>画板 64</title><rect x="3.5" y="3.5" width="10" height="9" style="fill:#fff"/><path d="M13,4v8H4V4h9m1-1H3V13H14V3Z" style="fill:gray"/><polygon points="4 0 3 0 3 4 4 4 4 0 4 0" style="fill:gray"/><rect y="3" width="4" height="1" style="fill:#fff"/><polygon points="4 3 0 3 0 4 4 4 4 3 4 3" style="fill:gray"/><rect x="13" y="12" width="3" height="1" style="fill:#fff"/><polygon points="16 12 13 12 13 13 16 13 16 12 16 12" style="fill:gray"/><polygon points="14 13 13 13 13 16 14 16 14 13 14 13" style="fill:gray"/><line x1="1.5" y1="14.5" x2="15.5" y2="1.5" style="fill:none;stroke:gray;stroke-miterlimit:10"/></svg>