<svg id="图层_1" data-name="图层 1" xmlns="http://www.w3.org/2000/svg" viewBox="0 0 16 16"><title>画板 51</title><text transform="translate(-80 -14.25)" style="font-size:4px;font-family:AdobeSongStd-Light-GBpc-EUC-H, Adobe Song Std"><tspan xml:space="preserve">      41删除数据              42定时获取查看          43定时获取设置             44TimingAcquireLog         45板本轴                       46工程统计                        47上移                             48下移</tspan><tspan x="0" y="96" xml:space="preserve">   </tspan></text><polygon points="2.5 15.5 2.5 0.5 9.79 0.5 13.5 4.21 13.5 15.5 2.5 15.5" style="fill:#fff"/><path d="M9.59,1,13,4.41V15H3V1H9.59M10,0H2V16H14V4L10,0Z" style="fill:gray"/><polygon points="2.5 15.5 2.5 0.5 9.5 0.5 9.5 4.5 13.5 4.5 13.5 15.5 2.5 15.5" style="fill:#fff"/><path d="M9,1V5h4V15H3V1H9m1-1H2V16H14V4H10V0Z" style="fill:gray"/><polygon points="5.87 12.53 8.27 10.13 10.67 12.53 8.75 12.53 8.75 14.93 7.79 14.93 7.79 12.53 5.87 12.53" style="fill:#4d84ba"/><polygon points="11 7.5 8 6 8 7 5 7 5 8 8 8 8 9 11 7.5" style="fill:#de673e"/><rect y="10" width="16" height="6" style="fill:#4d84ba"/><path d="M2.62,13.3v1.5H2v-4H3.36a2,2,0,0,1,1.21.31A1,1,0,0,1,5,12a1.13,1.13,0,0,1-.49,1,2,2,0,0,1-1.27.34Zm0-2v1.6h.6a1.46,1.46,0,0,0,.86-.21.71.71,0,0,0,.3-.61q0-.77-1.1-.77Z" style="fill:#fff"/><path d="M6.5,15V11H7.56a1.94,1.94,0,0,1,1.39.53,1.86,1.86,0,0,1,.56,1.42,2,2,0,0,1-.56,1.5A1.93,1.93,0,0,1,7.51,15ZM7,11.46v3.08h.54a1.43,1.43,0,0,0,1.1-.41A1.63,1.63,0,0,0,9,13a1.47,1.47,0,0,0-.4-1.12,1.5,1.5,0,0,0-1.07-.37Z" style="fill:#fff"/><path d="M14,11.46H11.75V12.8h2.08v.45H11.75V15H11V11h3Z" style="fill:#fff"/></svg>