<svg id="图层_1" data-name="图层 1" xmlns="http://www.w3.org/2000/svg" viewBox="0 0 32 32"><title>画板 8</title><polygon points="1.5 30.5 1.5 1.5 17.79 1.5 24.5 8.21 24.5 30.5 1.5 30.5" style="fill:#fff"/><path d="M17.59,2,24,8.41V30H2V2H17.59M18,1H1V31H25V8L18,1Z" style="fill:gray"/><polygon points="1.5 30.5 1.5 1.5 17.5 1.5 17.5 8.5 24.5 8.5 24.5 30.5 1.5 30.5" style="fill:#fff"/><path d="M17,2V9h7V30H2V2H17m1-1H1V31H25V8H18V1Z" style="fill:gray"/><path d="M17.36,24.5l-1-3H8.64l-1,3H3.73l6.61-17h4.32l6.61,17Zm-8.09-6h6.47l-3.31-8.2Z" style="fill:#fff"/><path d="M14.32,8l6.22,16H17.72l-.77-2.32L16.72,21H8.28l-.23.68L7.28,24H4.46L10.68,8h3.63M8.54,19h7.94l-.56-1.37-2.56-6.33-.95-2.35-.91,2.36L9.07,17.64,8.54,19M15,7H10L3,25H8l1-3h7l1,3h5L15,7ZM10,18l2.44-6.33L15,18Z" style="fill:gray"/><circle cx="24" cy="24" r="7" style="fill:#4d84ba"/><polygon points="24 28 29 24 24 20 24 23 19 23 19 25 24 25 24 28" style="fill:#fff"/></svg>