<svg id="图层_1" data-name="图层 1" xmlns="http://www.w3.org/2000/svg" viewBox="0 0 16 16"><title>画板 21</title><polygon points="3.71 13 13.21 3.5 11.79 3.5 2.29 13 3.71 13" style="fill:gray"/><circle cx="13.5" cy="2.5" r="2" style="fill:#fff"/><path d="M13.5,1A1.5,1.5,0,1,1,12,2.5,1.5,1.5,0,0,1,13.5,1m0-1A2.5,2.5,0,1,0,16,2.5,2.5,2.5,0,0,0,13.5,0Z" style="fill:#4d84ba"/><circle cx="2.5" cy="13.5" r="2" style="fill:#fff"/><path d="M2.5,12A1.5,1.5,0,1,1,1,13.5,1.5,1.5,0,0,1,2.5,12m0-1A2.5,2.5,0,1,0,5,13.5,2.5,2.5,0,0,0,2.5,11Z" style="fill:#4d84ba"/><path d="M8.93,13.39h0a1.48,1.48,0,0,0-.19.23,1.52,1.52,0,0,0-.12.23,2,2,0,0,0-.12.3l-.15.47-.14.5a3.09,3.09,0,0,0-.09.37c0,.16-.17.43-.11.49s.32-.07.48-.09l.35-.08.5-.15.51-.18.37-.15a1.11,1.11,0,0,0,.24-.14l.2-.17L9,13.33l-.06.06Zm0,0" style="fill:#de673e"/><path d="M16,9.18A.94.94,0,0,0,15.92,9h0a2,2,0,0,0-.35-.52,1.66,1.66,0,0,0-.42-.35L14.94,8a1,1,0,0,0-.25,0,.82.82,0,0,0-.26,0,.78.78,0,0,0-.26.14l-.25.22-.26.24,1.68,1.69.13-.13.15-.14.19-.19A.71.71,0,0,0,16,9.64a.66.66,0,0,0,0-.23,1.11,1.11,0,0,0,0-.23Zm0,0" style="fill:#de673e"/><path d="M9.68,12.63,9.33,13,11,14.67l.35-.36.65-.64.72-.73,2.17-2.18-1.68-1.7Zm0,0" style="fill:#de673e"/></svg>