<?xml version="1.0" standalone="no"?><!DOCTYPE svg PUBLIC "-//W3C//DTD SVG 1.1//EN" "http://www.w3.org/Graphics/SVG/1.1/DTD/svg11.dtd"><svg t="1556593060699" class="icon" style="" viewBox="0 0 1024 1024" version="1.1" xmlns="http://www.w3.org/2000/svg" p-id="7613" xmlns:xlink="http://www.w3.org/1999/xlink" width="128" height="128"><defs><style type="text/css"></style></defs><path d="M890.496 131.2v585.664a147.84 147.84 0 0 0-80 131.008c0 25.728 6.656 49.984 18.368 71.104H197.12c-35.264 0-64-28.736-64-64V195.2c0-35.264 28.736-64 64-64h693.376m64.256-64H197.12a128 128 0 0 0-128 128v659.84a128 128 0 0 0 128 128h757.76c-0.064-1.28-0.384-2.496-0.384-3.84v-47.68a84.032 84.032 0 0 1-80-83.648c0-45.056 35.52-81.152 80-83.648V69.888c0-0.896 0.256-1.728 0.256-2.688z" fill="#1296db" p-id="7614"></path><path d="M865.152 973.888H203.776c-65.472 0-118.72-56.576-118.72-126.08 0-75.392 53.248-131.968 118.72-131.968h689.344v64H203.776c-30.208 0-54.72 27.84-54.72 62.08 0 40.128 24.576 67.968 54.72 67.968h661.376v64zM261.184 248.64h496v64h-496zM261.184 472.576h502.656v64H261.184z" fill="#1296db" p-id="7615"></path></svg>