<svg id="图层_1" data-name="图层 1" xmlns="http://www.w3.org/2000/svg" viewBox="0 0 16 16"><title>画板 31</title><polygon points="0.5 15.5 0.5 0.5 8.79 0.5 12.5 4.21 12.5 15.5 0.5 15.5" style="fill:#fff"/><path d="M8.59,1,12,4.41V15H1V1H8.59M9,0H0V16H13V4L9,0Z" style="fill:gray"/><polygon points="9 0 8 0 8 5 9 5 9 0 9 0" style="fill:gray"/><rect x="8" y="4" width="5" height="1" style="fill:#fff"/><polygon points="13 4 8 4 8 5 13 5 13 4 13 4" style="fill:gray"/><path d="M4,5a3.11,3.11,0,0,1-1.12-.14.48.48,0,0,1-.33-.47V4q0-.32-.55-.32v-.3q.55,0,.55-.33V2.62a.49.49,0,0,1,.33-.48A3,3,0,0,1,4,2v.31q-.57,0-.57.3V3q0,.4-.55.51h0q.55.1.55.51v.37a.25.25,0,0,0,.13.24A1,1,0,0,0,4,4.69Z" style="fill:#b1b1b1"/><path d="M2,13.69a1,1,0,0,0,.44-.07.25.25,0,0,0,.13-.24V13q0-.41.55-.51h0q-.55-.1-.55-.51v-.38q0-.3-.57-.3V11a3,3,0,0,1,1.12.15.49.49,0,0,1,.33.48V12q0,.33.55.33v.3q-.55,0-.55.32v.42a.48.48,0,0,1-.33.47A3.11,3.11,0,0,1,2,14Z" style="fill:#b1b1b1"/><rect x="4" y="6" width="2" height="1" rx="0.5" ry="0.5" style="fill:#b1b1b1"/><rect x="7" y="6" width="4" height="1" rx="0.5" ry="0.5" style="fill:#b1b1b1"/><rect x="4" y="8" width="2" height="1" rx="0.5" ry="0.5" style="fill:#b1b1b1"/><rect x="7" y="8" width="4" height="1" rx="0.5" ry="0.5" style="fill:#b1b1b1"/><rect x="4" y="10" width="2" height="1" rx="0.5" ry="0.5" style="fill:#b1b1b1"/><circle cx="11.5" cy="11.5" r="4.5" style="fill:#4d84ba"/><rect x="9" y="11" width="5" height="1" style="fill:#fff"/><rect x="9" y="11" width="5" height="1" transform="translate(0 23) rotate(-90)" style="fill:#fff"/></svg>