<svg id="图层_1" data-name="图层 1" xmlns="http://www.w3.org/2000/svg" viewBox="0 0 16 16"><title>画板 14-V</title><rect x="0.5" y="0.5" width="14" height="14" rx="0.44" ry="0.44" style="fill:#fff"/><path d="M14,1V14H1V1H14m.06-1H.94A.94.94,0,0,0,0,.94V14.06A.94.94,0,0,0,.94,15H14.06a.94.94,0,0,0,.94-.94V.94A.94.94,0,0,0,14.06,0Z" style="fill:gray"/><rect x="3" y="3" width="4" height="5" style="fill:#eec97f"/><rect x="8" y="3" width="4" height="3" style="fill:#de673e"/><rect x="8" y="7" width="4" height="5" style="fill:#eec97f"/><rect x="3" y="9" width="4" height="3" style="fill:#de673e"/><circle cx="11.5" cy="11.5" r="4.5" style="fill:#4d84ba"/><polygon points="14 11.5 11 9 11 11 9 11 9 12 11 12 11 14 14 11.5" style="fill:#fff"/></svg>