<svg id="图层_1" data-name="图层 1" xmlns="http://www.w3.org/2000/svg" viewBox="0 0 16 16"><title>画板 19</title><rect x="-3" y="7.5" width="22" height="1" rx="0.5" ry="0.5" transform="translate(-3.31 8) rotate(-45)" style="fill:gray"/><path d="M6.23,12.39a.5.5,0,0,1-.35-.15L3.76,10.12a.5.5,0,0,1,0-.71L9.41,3.76a.5.5,0,0,1,.71,0l2.12,2.12a.5.5,0,0,1,0,.71L6.59,12.24A.5.5,0,0,1,6.23,12.39Z" style="fill:#fff"/><path d="M9.77,4.11l2.12,2.12L6.23,11.89,4.11,9.77,9.77,4.11h0m0-1a1,1,0,0,0-.71.29L3.4,9.06a1,1,0,0,0,0,1.41L5.53,12.6a1,1,0,0,0,1.41,0L12.6,6.94a1,1,0,0,0,0-1.41L10.47,3.4a1,1,0,0,0-.71-.29Z" style="fill:#4d84ba"/></svg>