<?xml version="1.0" encoding="utf-8"?>
<!-- Generator: Adobe Illustrator 21.1.0, SVG Export Plug-In . SVG Version: 6.00 Build 0)  -->
<svg version="1.1" id="图层_1" xmlns="http://www.w3.org/2000/svg" xmlns:xlink="http://www.w3.org/1999/xlink" x="0px" y="0px"
	 viewBox="0 0 16 16" style="enable-background:new 0 0 16 16;" xml:space="preserve">
<style type="text/css">
	.st0{fill:#FFFFFF;}
	.st1{fill:#808080;}
	.st2{fill:#4D84BA;}
	.st3{fill:#FFFFFF;stroke:#808080;stroke-miterlimit:10;}
	.st4{fill:#525B67;}
	.st5{fill:none;stroke:#4D84BA;stroke-linecap:round;stroke-linejoin:round;stroke-miterlimit:10;}
	.st6{fill:#B1B1B1;}
	.st7{fill:#FED543;}
	.st8{fill:#EEC97F;}
	.st9{fill:#5DA58E;}
	.st10{fill:#DE673E;}
	.st11{fill:none;stroke:#4D84BA;stroke-miterlimit:10;}
	.st12{fill:none;stroke:#808080;stroke-miterlimit:10;}
	.st13{clip-path:url(#SVGID_2_);}
	.st14{opacity:0.2;fill:#4D84BA;}
	.st15{fill:#FFFFFF;stroke:#4D84BA;stroke-miterlimit:10;}
	.st16{clip-path:url(#SVGID_4_);}
	.st17{fill:#7E7E7E;}
	.st18{fill:none;stroke:#7E7E7E;stroke-miterlimit:10;}
</style>
<g>
	<g>
		<circle class="st0" cx="8" cy="8" r="7.5"/>
		<path class="st1" d="M8,1c3.9,0,7,3.1,7,7s-3.1,7-7,7s-7-3.1-7-7S4.1,1,8,1 M8,0C3.6,0,0,3.6,0,8s3.6,8,8,8s8-3.6,8-8S12.4,0,8,0
			L8,0z"/>
	</g>
	<g>
		<g>
			<path class="st2" d="M7.5,6.9c0.1-0.2,0-0.3-0.1-0.3c-0.4,0-1,1.1-1.2,1.1C6.1,7.6,6,7.5,6,7.5c0-0.2,0.5-0.7,0.7-0.9
				c0.5-0.5,1.1-0.8,1.8-0.8c0.5,0,1.1,0.3,0.6,1.5L8.3,9.6c-0.1,0.2-0.2,0.5-0.2,0.7c0,0.1,0,0.2,0.1,0.2c0.4,0,1-1,1.2-1
				c0.1,0,0.1,0.1,0.1,0.2c0,0.4-1.4,1.9-2.6,1.9c-0.4,0-0.7-0.2-0.7-0.7c0-0.6,0.4-1.6,0.5-1.8L7.5,6.9z M8.2,4.5c0-0.5,0.5-1,1-1
				c0.5,0,0.8,0.3,0.8,0.8c0,0.6-0.5,1-1,1C8.5,5.3,8.2,5,8.2,4.5L8.2,4.5z M8.2,4.5"/>
		</g>
	</g>
</g>
</svg>
