<svg id="图层_1" data-name="图层 1" xmlns="http://www.w3.org/2000/svg" viewBox="0 0 32 32"><title>画板 4</title><path d="M6,30.5A4.26,4.26,0,0,1,1.5,26V10.6A7.11,7.11,0,0,1,8.6,3.5h20A1.86,1.86,0,0,1,30.5,5.36V28.64a1.86,1.86,0,0,1-1.86,1.86Z" style="fill:#fff"/><path d="M28.64,4A1.36,1.36,0,0,1,30,5.36V28.64A1.36,1.36,0,0,1,28.64,30H6a3.79,3.79,0,0,1-4-4V10.6A6.61,6.61,0,0,1,8.6,4h20m0-1H8.6A7.6,7.6,0,0,0,1,10.6V26a4.77,4.77,0,0,0,5,5H28.64A2.36,2.36,0,0,0,31,28.64V5.36A2.36,2.36,0,0,0,28.64,3Z" style="fill:gray"/><path d="M26.59,25.31c-.09,0,0-.13-.13-.17v0l0,0s-.09,0-.15,0,0-.07,0-.12,0-.06-.07-.1l-.11-.11a1.1,1.1,0,0,0,.07-.3s0-.09-.05-.12a1.27,1.27,0,0,1,.17-.5.34.34,0,0,1,0-.21l.08,0s0-.1,0-.17.14-.08.17-.18a.22.22,0,0,0,.15-.08s.11,0,.16,0,.05.1.14.11a4.08,4.08,0,0,1,0,1.12c-.1.17,0,.4-.18.57a1,1,0,0,0,0,.3c0,.07,0,.12-.1.15s-.07,0-.12,0ZM20.35,28a.51.51,0,0,0-.15-.07l0,0s-.11,0-.16,0l0,0s0-.1,0-.15l0,0a1.47,1.47,0,0,1,0-.25s.09-.07.07-.14a3.28,3.28,0,0,1,.4-.3.51.51,0,0,0,.24-.07c.06,0,.06,0,.12.06h.08l0-.07,0,0-.16-.05s-.09-.07-.11-.12-.07-.14-.08-.25l0,0s0-.11,0-.17l0,0-.2,0s-.09,0-.11-.1a1,1,0,0,0-.28,0c-.09,0-.07.08-.15.11a1,1,0,0,1-.25,0,2.24,2.24,0,0,1-.28-.13.38.38,0,0,1-.2,0c-.05-.08-.14-.14-.22-.24s0-.07-.05-.13,0-.2,0-.32l0,0h-.16A2.43,2.43,0,0,1,18,25c0,.07-.12.1-.15.18s-.14.08-.18.17-.19,0-.28,0-.05.06-.13.07-.4,0-.61-.08a.19.19,0,0,0-.12,0l0,.08h-.2c-.05,0-.12,0-.17.06s.09.43,0,.61c-.07,0-.08.05-.16.07l-.12,0c-.07,0,0-.12-.14-.14a1.49,1.49,0,0,0-.07-.2l0,0c-.08,0-.05.09-.14.12a.34.34,0,0,1-.2,0l-.11-.11s0-.1-.07-.12a.12.12,0,0,1-.08-.1.21.21,0,0,0-.13,0l-.1-.08s-.06-.06-.07-.13,0-.15,0-.25,0-.1.06-.16-.09-.06-.15-.09-.09-.09-.13-.19,0-.16,0-.25l0-.09c-.12-.07-.3,0-.45,0l-.05,0a1.89,1.89,0,0,1,0-.54c0-.07.1-.06.13-.14v-.08c.06-.07.11-.19.23-.24a.63.63,0,0,1,.18-.17s0-.09,0-.17a.44.44,0,0,0,.09-.16.89.89,0,0,1,0-.25.61.61,0,0,0,0-.28l-.05-.07-.09,0q-.1-.22-.19-.45h-.12a1.29,1.29,0,0,0-.14.19c-.08.07-.22,0-.32,0a1.91,1.91,0,0,1-.37-.26h-.16l-.1.07c-.06,0-.08,0-.16.06h0l-.08,0a1.23,1.23,0,0,1-.2.13c-.07.1-.22.09-.35.14l0,0s-.06.06-.13.07H12s-.05.06-.13.07a1,1,0,0,1-.49,0l-.09-.1c0-.07,0-.12,0-.21a.82.82,0,0,0-.23-.19.31.31,0,0,0-.14-.14l0-.08-.08,0,0-.08a1.28,1.28,0,0,0-.29-.08l-.08-.08h-.24c-.06.06-.14.1-.18.17a.69.69,0,0,1-.07.2s-.07,0-.12.06a1,1,0,0,1-.16,0c-.1-.11,0-.32-.1-.44s-.12.07-.2.05-.07-.09-.13-.12h-.2l-.13-.07c-.12,0-.27-.1-.4-.13s-.07,0-.12-.07a.73.73,0,0,1-.28,0,.82.82,0,0,1-.08-.17,1.84,1.84,0,0,1-.2-.08.38.38,0,0,1-.07-.1.31.31,0,0,0,0-.12l-.19-.07,0-.08-.08,0s0-.14,0-.21l-.07-.07-.09-.06c-.05,0-.14,0-.2-.09A2.58,2.58,0,0,0,6.29,19H6.17c-.05,0-.08.11-.16.13s-.1,0-.15-.07a2.32,2.32,0,0,0-.23-.36c0-.05-.06-.15-.11-.21a2.49,2.49,0,0,1-.24-.29H5.19S5.13,18,5,18a7.05,7.05,0,0,1,0-.75s0-.12,0-.17a.71.71,0,0,1,.16-.1h0s.06.1.14.11l0-.06a3.86,3.86,0,0,0-.08-.61,1.59,1.59,0,0,0,.12-.22,1.35,1.35,0,0,1-.16-.67c0-.1-.11,0-.15-.09H5.07a1.48,1.48,0,0,1-.33-.34c-.07,0-.08-.06-.16-.08l0,0c-.07-.19,0-.42-.07-.63-.07,0-.08-.13-.15-.18A1.6,1.6,0,0,1,4.12,14a.37.37,0,0,1,0-.17.84.84,0,0,1,.23-.12l0,0v-.17a1.94,1.94,0,0,0,.09-.21s0-.11,0-.17,0-.1-.05-.12-.18,0-.28-.06,0-.08-.1-.11l0-.09,0-.08a.66.66,0,0,0,.13-.14.49.49,0,0,1,0-.34c.05,0,.07,0,.12-.07v0A.69.69,0,0,0,4.53,12a1.2,1.2,0,0,1,.33,0l.08,0a2.61,2.61,0,0,0,.32,0,.18.18,0,0,1,.14.11c.07,0,.12,0,.2,0s.11-.09.2-.12l0-.08s.07,0,.12-.06.2,0,.28-.07a1.71,1.71,0,0,1,.73,0,.81.81,0,0,1,.36-.09l.07,0a.72.72,0,0,0,.13-.42l.08-.07s0-.06.1-.1h0l0,0c0-.29,0-.61,0-.92.07,0,0-.09.06-.16s.07-.09.14-.1.44-.08.6.09h.32l0-.06a1.25,1.25,0,0,1,0-.29l.07-.06,0-.08a.27.27,0,0,1,.09-.1,1.67,1.67,0,0,1,.1-.21c.07,0,0-.1.09-.15s.08-.08.15-.1.17.1.31.13.08.09.16.11h0l.15,0a.53.53,0,0,0,.24-.06s0-.12.09-.15a.54.54,0,0,1,.05-.37s.11,0,.11-.08.11,0,.16,0A.25.25,0,0,0,11,8.41v0s0-.08.09-.12a1,1,0,0,1,.61-.06c.07.14,0,.35.05.52a.42.42,0,0,1,.14.14A.17.17,0,0,1,12,9a.56.56,0,0,0,.17.08s.07,0,.12,0,.07.11.15.12,0,.09.05.12a1.85,1.85,0,0,0,0,.37l0,0c.09.13,0,.31.1.46a.7.7,0,0,1-.16.35.94.94,0,0,0,0,.33.6.6,0,0,0,.33.1L13,11a1.14,1.14,0,0,1,.49.17h.09c.12,0,.19.15.32.2a1.07,1.07,0,0,0,0,.17c.08,0,.08.13.17.17h0s.09,0,.12.06,0,.19,0,.29l.08.11c0,.05.05.08,0,.16a.63.63,0,0,0,.08.11v.08s.05,0,.07.12.08.06.15.08.07.06.15.07a2.38,2.38,0,0,1,.57.09l.07.06c.32,0,.61.05.94.05.05,0,.07.07.15.08h.16l.17.12s0,.07,0,.12.2,0,.32.07.12.12.18.21.31,0,.49,0,.07.07.15.08a1.07,1.07,0,0,0,.39-.21.49.49,0,0,0,.13,0l.05-.07.2,0,.07-.07c.2-.07.42-.08.61-.13a1.66,1.66,0,0,0,.36,0,1.75,1.75,0,0,0,.52,0s.05-.08.08-.15a1.38,1.38,0,0,1,.2-.2h.12s0-.11.09-.17a.14.14,0,0,0,.09-.08v0l-.07-.07a1.52,1.52,0,0,1-.17-.29c0-.11,0-.21,0-.33s.09,0,.1-.09a.61.61,0,0,1,.16-.08c.24,0,.48.12.73,0,.06,0,.07,0,.12-.07l0,0,.08,0a1.79,1.79,0,0,0,.24-.24c.07,0,.13,0,.21-.06l.05-.06a.39.39,0,0,0,.2-.08c0-.1.07-.17.07-.29v0a.18.18,0,0,1,.11-.07H23c.11-.06.16-.18.28-.26h.2l.09-.07a3.81,3.81,0,0,1,.41,0l.05-.06c0-.06,0-.07-.07-.13s-.05-.05-.1-.09-.11-.09-.16-.16l-.08,0,0-.09a.21.21,0,0,0-.2,0l-.05.08c-.08,0-.11.07-.18.11s-.09,0-.15,0L23,9.81H22.8l-.11.08a.48.48,0,0,1-.2,0l-.08-.06,0,0s-.05-.05-.07-.12a2.91,2.91,0,0,1,.07-.46l0,0a2,2,0,0,1,.1-.34l0,0a1.13,1.13,0,0,1,.16-.34l0,0a4.29,4.29,0,0,1,.49,0s.09,0,.12-.06a2.85,2.85,0,0,1,.26-.28,1.35,1.35,0,0,0,.05-.33c.06-.09.09-.22.15-.34l0,0s0-.1,0-.16l.1-.1,0-.08c0-.08,0-.15,0-.25l0,0h-.2l-.09-.12V6.64s.07-.1.1-.15h.11s.07,0,.11-.07,0-.08.05-.12h.08l0,0,0,0a.68.68,0,0,1,.24,0c.07,0,.08-.07.16-.08s.09,0,.17-.06A.51.51,0,0,0,25,6c.08,0,.15,0,.25,0a.6.6,0,0,1,.26.13.16.16,0,0,0,.11-.07c.07,0,.12,0,.2,0s.12,0,.16.1,0,.1.07.12.09.14.2.21,0,.13.06.17l0,0s0,.13.08.17a.29.29,0,0,1,.14.19,1.21,1.21,0,0,0,.11.16s.07,0,.13,0,0,.1.07.12.05.21.08.33.06.05.07.1l.07.07a2.6,2.6,0,0,0,.57,0,1.69,1.69,0,0,1,.2.14.38.38,0,0,1,.2,0,.52.52,0,0,0,.18.17.14.14,0,0,0,.08.1.63.63,0,0,1,.07.15v.08h0c.05,0,.11.08.16.12a1.6,1.6,0,0,0,.4-.11c.07-.06.07-.14.16-.17s.07-.08.05-.16.12-.09.22-.11a1.61,1.61,0,0,1,.28-.25h.08l.07-.06h0l.08.07a.21.21,0,0,1,0,.13.27.27,0,0,0-.08.12.55.55,0,0,1,0,.21.36.36,0,0,1,0,.33l0,0A11.57,11.57,0,0,0,29.83,10a.65.65,0,0,1-.07.17s-.05,0-.08.11a.84.84,0,0,0-.49.06v.09c0,.05-.14.07-.18.15s0,.12,0,.17.14.18.14.33.07.35.12.55-.09.13-.16.2,0,.22-.07.34l0,0a.17.17,0,0,1-.12,0l0-.08a.25.25,0,0,0-.12,0,2.6,2.6,0,0,0-.17.3,2.5,2.5,0,0,0-.3.32c0,.06,0,.07.07.12s0,.09-.07.16l-.08.05a1.3,1.3,0,0,1-.57,0s-.09,0-.12.05a1.14,1.14,0,0,0-.09.17v0l-.07.07s-.05.06-.07.12v0c0,.09-.11.11-.13.21l0,.08c-.12.06-.08.14-.12.19a.37.37,0,0,0-.18.18v0a.79.79,0,0,1-.55.19.33.33,0,0,0-.16.11s0,.07,0,.13a.41.41,0,0,1-.1.12s0,.07,0,.13l-.08.08s0,.09-.05.12h0s0,.07-.08.11-.16.1-.28.1-.05-.07-.08-.15a.21.21,0,0,0,0-.13l.05-.05c.11-.19,0-.44.05-.66l.07,0s0-.12.09-.16a.62.62,0,0,0,0-.21c-.07,0-.09.05-.17.07l-.12,0c-.07.06-.08.13-.12.21s-.05.06-.09.12,0,.07,0,.12a3,3,0,0,1-.28.14,1.69,1.69,0,0,0-.22.33c0,.05,0,.05,0,.12a1.81,1.81,0,0,0-.17.16c-.05,0-.08,0-.16.05l-.13,0a.17.17,0,0,0-.12,0c-.07,0,0,.1,0,.17a.69.69,0,0,0,.13.2,2,2,0,0,0,.28,0,.47.47,0,0,1,.29.19V16l-.07,0,0,.08s.07,0,.12,0a.83.83,0,0,0,.23-.26H25a.66.66,0,0,1,.49-.25l.09.11a.54.54,0,0,1,.2.07l0,0c.06,0,.1.07.2.07s.07,0,.12,0,.07,0,.12.07l0,.09a1.31,1.31,0,0,1-.45.36v0s-.14,0-.2.06l0,0c0,.05,0,.15-.07.2l0,0a.91.91,0,0,0-.08.16.78.78,0,0,0-.3.32s-.1.06-.11.14-.05.07-.09.13.08.07.1.14.17,0,.24,0,.14,0,.18.11l.08,0s0,.14,0,.21l.09.11a2.87,2.87,0,0,1,.08.59v0c.06.07.16.07.23.18a1,1,0,0,1,.12.25l.08.08a.69.69,0,0,1,.09.25.56.56,0,0,0,.18.17l0,.1c0,.09-.15.13-.23.21s-.06.06-.12.07h-.12l0,.07,0,0c.08,0,.19,0,.28,0a.81.81,0,0,0,.26.22,2,2,0,0,1,.07.5l0,.12c-.07.1,0,.25,0,.38l0,0-.16.08c-.05.06-.07.15-.15.22a1.51,1.51,0,0,1-.15.38c0,.08-.06.11-.07.21s0,.08-.06.16a.38.38,0,0,1,0,.17s-.08,0-.11.06,0,.1-.05.11a1.11,1.11,0,0,0,0,.33,1.39,1.39,0,0,0-.11.25l0,0h0l0,0s0,.07,0,.13l-.07.06c-.07,0-.07.18-.13.24l-.07.06c-.07,0-.12,0-.2,0l-.06.07s0,.11,0,.16l-.07,0c-.09.06-.12.18-.23.26s-.07,0-.12,0l0,0c0,.06.07,0,.09.1l0,0h-.13c0,.09-.14.09-.19.17a.3.3,0,0,1-.17.24h0a.49.49,0,0,1-.42.14l-.11.09c-.08,0-.15,0-.24,0l0,0c-.11,0-.19.16-.32.19l0,0c-.05,0-.08.06-.16.07h0s0-.07,0-.12l-.07,0s0,.07-.05.11l-.07.05h-.12a.22.22,0,0,0-.16.1c0,.06,0,.06-.06.12s-.24,0-.36.07l0,.07a.23.23,0,0,1-.13,0c-.08,0-.12.1-.2.14a.7.7,0,0,0-.23,0l0,0s-.06.06-.12.07a.42.42,0,0,0-.12,0l0,.07,0,0a.7.7,0,0,1,.08.16c0,.07-.07.13-.07.21s-.1,0-.13.09v0c.16.07.31,0,.49.06l.05.07a.41.41,0,0,1,0,.17l-.09,0a1.62,1.62,0,0,0-.16.18c0,.1,0,.24,0,.33l-.09,0,0,.09a.51.51,0,0,1-.23.1c0,.05-.09,0-.12.08h-.28Zm0,0" style="fill:#4d84ba"/><path d="M8.5,25.17a10.9,10.9,0,0,0-3.44-1l-.48,0a6.23,6.23,0,0,0-3.08.91V5A3.32,3.32,0,0,1,5,1.5,3.32,3.32,0,0,1,8.5,5Z" style="fill:#fff"/><path d="M5,2A2.82,2.82,0,0,1,8,5V24.41a10.9,10.9,0,0,0-2.89-.75l-.53,0A6.31,6.31,0,0,0,2,24.23V5A2.85,2.85,0,0,1,5,2M7,20.77a1,1,0,1,0-1-1,1,1,0,0,0,1,1M5,1A3.82,3.82,0,0,0,1,5V26a6.2,6.2,0,0,1,3.58-1.36l.42,0A10.77,10.77,0,0,1,9,26V5A3.82,3.82,0,0,0,5,1ZM1,26H1Zm8,0H9Z" style="fill:gray"/><rect x="5.5" y="16.5" width="2.5" height="5.5" style="fill:#fff"/></svg>