<svg id="图层_1" data-name="图层 1" xmlns="http://www.w3.org/2000/svg" viewBox="0 0 32 32"><title>画板 14</title><path d="M16,30.5A14.5,14.5,0,1,1,30.5,16,14.52,14.52,0,0,1,16,30.5Z" style="fill:#fff"/><path d="M16,2A14,14,0,1,1,2,16,14,14,0,0,1,16,2m0-1A15,15,0,1,0,31,16,15,15,0,0,0,16,1Z" style="fill:gray"/><path d="M20.53,11.11A24.67,24.67,0,0,1,21,16h6a10.93,10.93,0,0,0-2.77-7.28A12,12,0,0,1,20.53,11.11Z" style="fill:#4d84ba"/><path d="M16.85,5c1.46.27,2.72,2.23,3.46,5.08A11,11,0,0,0,23.53,8,11,11,0,0,0,16.85,5Z" style="fill:#4d84ba"/><path d="M19.41,10.45C18.78,7.77,17.71,6,16.5,6s-2.35,1.89-3,4.71A11,11,0,0,0,16,11,11,11,0,0,0,19.41,10.45Z" style="fill:#4d84ba"/><path d="M16,12a12,12,0,0,1-2.66-.3A26.25,26.25,0,0,0,13,16h7a26,26,0,0,0-.39-4.56A12,12,0,0,1,16,12Z" style="fill:#4d84ba"/><path d="M16.35,5,16,5A11,11,0,0,0,8.47,8a11,11,0,0,0,4.15,2.46C13.38,7.3,14.76,5.14,16.35,5Z" style="fill:#4d84ba"/><path d="M7.77,8.72A11,11,0,0,0,5,16h7a24.92,24.92,0,0,1,.41-4.55A12,12,0,0,1,7.77,8.72Z" style="fill:#4d84ba"/><path d="M23.53,24a11,11,0,0,0-3.23-2.12c-.74,2.87-2,4.84-3.48,5.09A11,11,0,0,0,23.53,24Z" style="fill:#4d84ba"/><path d="M24.23,23.28A10.94,10.94,0,0,0,27,16.92H21a24.09,24.09,0,0,1-.46,4A12,12,0,0,1,24.23,23.28Z" style="fill:#4d84ba"/><path d="M16,21a11,11,0,0,0-2.47.29c.62,2.83,1.72,4.71,3,4.71s2.28-1.77,2.91-4.46A11,11,0,0,0,16,21Z" style="fill:#4d84ba"/><path d="M16,20a12,12,0,0,1,3.61.56A25.3,25.3,0,0,0,20,16.92H13a25.57,25.57,0,0,0,.33,3.39A12,12,0,0,1,16,20Z" style="fill:#4d84ba"/><path d="M16,27l.36,0c-1.6-.12-3-2.28-3.74-5.45A11,11,0,0,0,8.46,24,10.94,10.94,0,0,0,16,27Z" style="fill:#4d84ba"/><path d="M12.41,20.55A24.39,24.39,0,0,1,12,16.92H5a11,11,0,0,0,2.72,6.37A12,12,0,0,1,12.41,20.55Z" style="fill:#4d84ba"/></svg>