<svg id="图层_1" data-name="图层 1" xmlns="http://www.w3.org/2000/svg" viewBox="0 0 16 16"><title>画板 45</title><path d="M8,0a8,8,0,1,0,8,8A8,8,0,0,0,8,0Zm4.5,3A1.5,1.5,0,1,1,11,4.5,1.5,1.5,0,0,1,12.5,3Zm-4-2A1.5,1.5,0,1,1,7,2.5,1.5,1.5,0,0,1,8.5,1Zm-4,1A1.5,1.5,0,1,1,3,3.5,1.5,1.5,0,0,1,4.5,2ZM1,7.5A1.5,1.5,0,1,1,2.5,9,1.5,1.5,0,0,1,1,7.5ZM3.5,13A1.5,1.5,0,1,1,5,11.5,1.5,1.5,0,0,1,3.5,13ZM5,8a3,3,0,1,1,3,3A3,3,0,0,1,5,8Zm2.5,7A1.5,1.5,0,1,1,9,13.5,1.5,1.5,0,0,1,7.5,15Zm4-1A1.5,1.5,0,1,1,13,12.5,1.5,1.5,0,0,1,11.5,14Zm2-4A1.5,1.5,0,1,1,15,8.5,1.5,1.5,0,0,1,13.5,10Z" style="fill:#4d84ba"/></svg>