<?xml version="1.0" standalone="no"?><!DOCTYPE svg PUBLIC "-//W3C//DTD SVG 1.1//EN" "http://www.w3.org/Graphics/SVG/1.1/DTD/svg11.dtd"><svg t="1571301178033" class="icon" viewBox="0 0 1024 1024" version="1.1" xmlns="http://www.w3.org/2000/svg" p-id="12997" xmlns:xlink="http://www.w3.org/1999/xlink" width="200" height="200"><defs><style type="text/css"></style></defs><path d="M448 896A448 448 0 1 1 448 0a448 448 0 0 1 0 896zM199.04 199.04A350.912 350.912 0 0 0 96 448c0 94.592 37.504 183.36 103.04 248.96a32 32 0 0 0 45.312-45.312A286.976 286.976 0 0 1 160 448c0-77.44 30.72-149.952 84.352-203.648a32 32 0 1 0-45.248-45.248z m653.44 562.944l130.816 130.816a64 64 0 1 1-90.496 90.496l-130.816-130.816a515.072 515.072 0 0 0 90.496-90.496z" p-id="12998" fill="#1296db"></path></svg>