<svg id="图层_1" data-name="图层 1" xmlns="http://www.w3.org/2000/svg" xmlns:xlink="http://www.w3.org/1999/xlink" viewBox="0 0 32 32"><defs><clipPath id="clip-path"><rect x="4.5" y="8" width="23" height="16" style="fill:none"/></clipPath></defs><title>画板 5</title><rect x="1.5" y="1.5" width="29" height="29" rx="1.46" ry="1.46" style="fill:#fff"/><path d="M29,2a1,1,0,0,1,1,1V29a1,1,0,0,1-1,1H3a1,1,0,0,1-1-1V3A1,1,0,0,1,3,2H29m0-1H3A2,2,0,0,0,1,3V29a2,2,0,0,0,2,2H29a2,2,0,0,0,2-2V3a2,2,0,0,0-2-2Z" style="fill:gray"/><g style="clip-path:url(#clip-path)"><path d="M19.19,19.37c-1.33-.65-.82-.15-2.44-.81s-2-.88-2-.88V16.16a2.82,2.82,0,0,0,.8-1.89c.38.11.51-.44.53-.79s.22-1.39-.24-1.29a9.23,9.23,0,0,0,.14-1.67c-.12-1.18-.95-2.41-3-2.5a3.07,3.07,0,0,0-3.05,2.5A9.08,9.08,0,0,0,10,12.19c-.47-.1-.27,1-.24,1.29s.15.9.53.79a2.84,2.84,0,0,0,.8,1.89l0,1.52a18.88,18.88,0,0,1-2,.89c-1.63.66-1.12.14-2.44.78-2.1,1-2.1,3.84-2.1,3.84h0a.78.78,0,0,0,.79.77H20.5a.78.78,0,0,0,.79-.77h0s0-2.81-2.1-3.84Zm0,0" style="fill:#4d84ba"/></g><path d="M27.49,23.27s0-2.56-1.91-3.49c-1.21-.59-.74-.14-2.22-.74s-1.83-.8-1.83-.8V16.86a2.57,2.57,0,0,0,.73-1.72c.35.1.46-.4.48-.72s.21-1.26-.22-1.18a8.38,8.38,0,0,0,.12-1.52,2.56,2.56,0,0,0-2.77-2.27,2.79,2.79,0,0,0-2.78,2.27,8.32,8.32,0,0,0,.12,1.52c-.42-.09-.24.87-.22,1.18s.13.82.48.72a2.58,2.58,0,0,0,.73,1.72v1.38a4.33,4.33,0,0,1,1.59.52c2.38,1.16,2.38,4.35,2.38,4.35h0a.88.88,0,0,1-.7.85h5.33a.71.71,0,0,0,.72-.7h0Zm0,0" style="fill:#5da58e"/></svg>