<?xml version="1.0" standalone="no"?><!DOCTYPE svg PUBLIC "-//W3C//DTD SVG 1.1//EN" "http://www.w3.org/Graphics/SVG/1.1/DTD/svg11.dtd"><svg t="1557211045978" class="icon" style="" viewBox="0 0 1024 1024" version="1.1" xmlns="http://www.w3.org/2000/svg" p-id="2404" xmlns:xlink="http://www.w3.org/1999/xlink" width="64" height="64"><defs><style type="text/css"></style></defs><path d="M809.727869 483.83452c-10.266831-10.262738-22.505573-15.396665-36.718273-15.396665l-47.379077 0-95.551216 0L432.667164 468.437855 333.169055 468.437855l-47.378054 0c-14.2127 0-26.323529 5.133927-36.323277 15.396665-10.002818 10.267854-15.004739 22.506597-15.004739 36.719296l0 250.324232c0 13.157671 2.238994 25.532513 6.712889 37.111223 4.473895 11.582803 10.791787 21.717627 18.951631 30.402427 8.159844 8.686846 18.030655 15.663748 29.609365 20.925588 11.582803 5.265934 24.480554 7.896854 38.694277 7.896854l398.779356 0c14.2127 0 27.239388-2.63092 39.086204-7.896854 11.845793-5.26184 22.109554-12.501732 30.797423-21.714558 8.683776-9.211802 15.527648-20.006659 20.530592-32.377408 5.001921-12.369725 7.499811-25.663496 7.499811-39.877219L825.124534 520.553817C825.125557 506.341117 819.99163 494.102375 809.727869 483.83452zM548.213783 664.954601l0 95.197152c0 10.172687-8.246825 18.419512-18.419512 18.419512-10.172687 0-18.419512-8.246825-18.419512-18.419512L511.37476 664.954601c-22.033829-7.630794-37.862329-28.551266-37.862329-53.182246 0-31.083949 25.197892-56.281841 56.281841-56.281841 31.083949 0 56.281841 25.197892 56.281841 56.281841C586.076112 636.402311 570.247612 657.323806 548.213783 664.954601z" p-id="2405"></path><path d="M432.667164 327.087547c0-33.164331 8.683776-58.82885 26.059516-76.988442 17.371646-18.163685 40.269146-27.242458 68.699662-27.242458 31.585369 0 56.590879 9.079796 75.017554 27.242458 18.423605 18.159592 27.635407 43.824111 27.635407 76.988442l0 93.972255 95.551216 0L725.630519 304.977993c0-25.267477-5.39794-48.825009-16.187681-70.671573-10.794857-21.850657-25.272593-41.065278-43.432185-57.644885-18.163685-16.584724-38.95829-29.614481-62.382792-39.090297-23.425525-9.474792-47.774073-14.2127-73.04155-14.2127-28.430516 0-54.618968 4.737908-78.571497 14.2127-23.952528 9.475815-44.747133 22.505573-62.383816 39.090297-17.635659 16.579607-31.453363 35.795251-41.456181 57.644885-10.003841 21.846564-15.004739 45.403073-15.004739 70.671573L333.170079 421.059801l99.498108 0 0-93.972255L432.667164 327.087547z" p-id="2406"></path></svg>