<svg id="图层_1" data-name="图层 1" xmlns="http://www.w3.org/2000/svg" viewBox="0 0 32 32"><title>画板 18</title><path d="M5.92,28.5A4.42,4.42,0,0,1,1.5,24.08V9.95A6.46,6.46,0,0,1,7.95,3.5h17.9A1.66,1.66,0,0,1,27.5,5.16V26.84a1.66,1.66,0,0,1-1.66,1.66Z" style="fill:#fff"/><path d="M25.84,4A1.16,1.16,0,0,1,27,5.16V26.84A1.16,1.16,0,0,1,25.84,28H5.92A3.92,3.92,0,0,1,2,24.08V9.95A6,6,0,0,1,7.95,4h17.9m0-1H7.95A7,7,0,0,0,1,9.95V24.08A4.93,4.93,0,0,0,5.92,29H25.84A2.16,2.16,0,0,0,28,26.84V5.16A2.16,2.16,0,0,0,25.84,3Z" style="fill:gray"/><path d="M18.49,11.64a.68.68,0,0,1,1,0,.69.69,0,0,1,0,1l-1.93,1.95,4,4L26,14.1a.72.72,0,0,1,1,0,.68.68,0,0,1,0,1l-4.48,4.5,1.5,1.5a.74.74,0,0,1,0,1,.72.72,0,0,1-1,0l-2-2h0v0h0l0,0h0v0L16.56,15.6,8.48,23.67a.69.69,0,0,1-1,0,.68.68,0,0,1,0-1l8.05-8.07L12.24,11.3l-5.4,5.4a.7.7,0,1,1-1-1l5.4-5.4L7.83,6.89a.72.72,0,0,1,0-1,.68.68,0,0,1,1,0l3.89,3.88h0l0,0v0l3.81,3.81Zm0,0" style="fill:#b1b1b1"/><path d="M8,23.5a5.3,5.3,0,0,0-3.2-2H4.56A4.34,4.34,0,0,0,1.5,23.33V5.06A3.42,3.42,0,0,1,4.75,1.5,3.42,3.42,0,0,1,8,5.06Z" style="fill:#fff"/><path d="M4.75,2A2.92,2.92,0,0,1,7.5,5.06V22.29A4.92,4.92,0,0,0,4.85,21H4.56A4,4,0,0,0,2,22.1v-17A2.92,2.92,0,0,1,4.75,2m0-1A3.93,3.93,0,0,0,1,5.06V25c.11-.29,1.7-3,3.56-3h.19c2,.2,3.72,2.91,3.75,3V5.06A3.93,3.93,0,0,0,4.75,1ZM1,25s0,0,0,0H1v0Zm7.5,0h0Z" style="fill:gray"/></svg>