<?xml version="1.0" standalone="no"?><!DOCTYPE svg PUBLIC "-//W3C//DTD SVG 1.1//EN" "http://www.w3.org/Graphics/SVG/1.1/DTD/svg11.dtd"><svg t="1535546667580" class="icon" style="" viewBox="0 0 1024 1024" version="1.1" xmlns="http://www.w3.org/2000/svg" p-id="11020" xmlns:xlink="http://www.w3.org/1999/xlink" width="64" height="64"><defs><style type="text/css"></style></defs><path d="M939 895.7L686.3 643H928c17.7 0 32-14.3 32-32s-14.3-32-32-32H577v349c0 17.7 14.3 32 32 32s32-14.3 32-32V688.3L893.7 941c12.5 12.5 32.8 12.5 45.3 0s12.5-32.8 0-45.3zM383 96v243.7L129.3 86C116.8 73.5 96.5 73.5 84 86s-12.5 32.8 0 45.3L336.7 384H96c-17.7 0-32 14.3-32 32s14.3 32 32 32h351V96c0-17.7-14.3-32-32-32s-32 14.3-32 32zM938 89c-12.5-12.5-32.8-12.5-45.3 0L641 340.7V96c0-17.7-14.3-32-32-32s-32 14.3-32 32v352h351c17.7 0 32-14.3 32-32s-14.3-32-32-32H688.3L938 134.3c12.5-12.5 12.5-32.8 0-45.3zM64 611c0 17.7 14.3 32 32 32h242.7L83 898.7c-12.5 12.5-12.5 32.8 0 45.3s32.8 12.5 45.3 0L383 689.3V928c0 17.7 14.3 32 32 32s32-14.3 32-32V579H96c-17.7 0-32 14.3-32 32z" p-id="11021" fill="#1296db"></path></svg>