<svg id="图层_1" data-name="图层 1" xmlns="http://www.w3.org/2000/svg" viewBox="0 0 32 32"><title>画板 1</title><rect x="3.38" y="1.5" width="19.63" height="26.19" style="fill:#fff"/><path d="M22.5,2V27.19H3.88V2H22.5m1-1H2.88V28.19H23.5V1Z" style="fill:gray"/><path d="M24.44,1H1.94A1,1,0,0,0,1,2.05V8.38a1,1,0,0,0,.94,1.05h22.5a1,1,0,0,0,.94-1.05V2.05A1,1,0,0,0,24.44,1ZM6.63,6.63H3.81V3.81H6.63Zm3.75,0H7.56V3.81h2.81Zm3.75,0H11.31V3.81h2.81Z" style="fill:#4d84ba"/><path d="M24.44,10.38H1.94A1,1,0,0,0,1,11.43v6.33a1,1,0,0,0,.94,1.05h22.5a1,1,0,0,0,.94-1.05V11.43A1,1,0,0,0,24.44,10.38ZM6.63,16H3.81V13.19H6.63Zm3.75,0H7.56V13.19h2.81Zm3.75,0H11.31V13.19h2.81Z" style="fill:#4d84ba"/><path d="M24.44,19.75H1.94A1,1,0,0,0,1,20.8v6.33a1,1,0,0,0,.94,1.05h22.5a1,1,0,0,0,.94-1.05V20.8A1,1,0,0,0,24.44,19.75ZM6.63,25.38H3.81V22.56H6.63Zm3.75,0H7.56V22.56h2.81Zm3.75,0H11.31V22.56h2.81Z" style="fill:#4d84ba"/><path d="M18.56,30.5c-.06-.19,0-.19,0-.19H20V28.62a4.65,4.65,0,0,1,2.21-4l.71-.43-.71-.43a4.65,4.65,0,0,1-2.21-4v-2H18.6a.15.15,0,0,1-.1-.11.11.11,0,0,1,.1-.08H30.44s.06,0,.06.1a.14.14,0,0,1-.1.09H29v2a4.63,4.63,0,0,1-2.15,4l-.71.43.71.43a4.62,4.62,0,0,1,2.15,4v1.69H30.4c.08,0,.1,0,.1.11l-.06.08Z" style="fill:#fff"/><path d="M28.49,18v1.68a4.14,4.14,0,0,1-1.91,3.62l-1.42.86,1.42.86a4.12,4.12,0,0,1,1.91,3.6V30h-8V28.62a4.15,4.15,0,0,1,2-3.61l1.42-.86-1.42-.86a4.16,4.16,0,0,1-2-3.62V18h8m1.95-1H18.6a.6.6,0,0,0-.6.58.63.63,0,0,0,.59.61h.91v1.49A5.19,5.19,0,0,0,22,24.15a5.16,5.16,0,0,0-2.45,4.46v1.19H18.6a.59.59,0,0,0-.6.61.57.57,0,0,0,.56.58H30.43a.57.57,0,0,0,.56-.58.58.58,0,0,0-.6-.61h-.91V28.62a5.11,5.11,0,0,0-2.4-4.46,5.13,5.13,0,0,0,2.4-4.48V18.19h.91a.62.62,0,0,0,.6-.6.59.59,0,0,0-.56-.6Z" style="fill:#707070"/><path d="M28.25,18.13H20.62v1.5a3.84,3.84,0,0,0,2.77,3.93.56.56,0,0,1,.2.09h0a.59.59,0,0,1,.15.68v0h0l0,0h0l-.1.13,0,0h0l0,0h0a.56.56,0,0,1-.2.09,3.83,3.83,0,0,0-2.75,3.91v1.2h7.63v-1.2a3.83,3.83,0,0,0-2.78-3.92H25.4a.56.56,0,0,1-.19-.12h0a.57.57,0,0,1-.07-.11h0v0h0v0h0v0h0v0h0v0h0v0h0a.58.58,0,0,1,.43-.62,3.85,3.85,0,0,0,2.78-3.93v-1.5Zm-3,4.56a1.47,1.47,0,0,0-.81.54,1.48,1.48,0,0,0-.21-.22l0,0,0,0,0,0a1.48,1.48,0,0,0-.49-.23,2.73,2.73,0,0,1-1.9-1.87h5.43a2.74,2.74,0,0,1-1.91,1.87Zm-1.11,3.37.05,0h0l0,0h0l.07-.06,0,0,0,0,0-.05v0l.08.12,0,0h0a1.16,1.16,0,0,0,.41.27l0,0,.06,0a2.27,2.27,0,0,1,1.65,2.43v.26H22.15v-.26a2.28,2.28,0,0,1,1.62-2.42,1.13,1.13,0,0,0,.35-.15Zm0,0" style="fill:#fed543"/></svg>