<svg id="图层_1" data-name="图层 1" xmlns="http://www.w3.org/2000/svg" viewBox="0 0 32 32"><title>画板 62</title><path d="M14.36,17.5l-1-3H5.64l-1,3H.73L7.34.5h4.32l6.61,17Zm-8.09-6h6.47L9.43,3.3Z" style="fill:#fff"/><path d="M11.32,1l6.22,16H14.72l-.77-2.32L13.72,14H5.28l-.23.68L4.28,17H1.46L7.68,1h3.63M5.54,12h7.94l-.56-1.37L10.37,4.29,9.42,1.94,8.51,4.31,6.07,10.64,5.54,12M12,0H7L0,18H5l1-3h7l1,3h5L12,0ZM7,11,9.44,4.67,12,11Z" style="fill:gray"/><circle cx="23" cy="23" r="7" style="fill:#4d84ba"/><polygon points="27 22 24 22 24 19 22 19 22 22 19 22 19 24 22 24 22 27 24 27 24 24 27 24 27 22" style="fill:#fff"/></svg>