<svg id="图层_1" data-name="图层 1" xmlns="http://www.w3.org/2000/svg" viewBox="0 0 16 16"><title>画板 42</title><circle cx="7" cy="7" r="6.5" style="fill:#fff"/><path d="M7,1A6,6,0,1,1,1,7,6,6,0,0,1,7,1M7,0a7,7,0,1,0,7,7A7,7,0,0,0,7,0Z" style="fill:gray"/><polygon points="7 3 7 7 3 7 3 8 8 8 8 7 8 3 7 3" style="fill:#4d84ba"/><path d="M10.5,9a6.57,6.57,0,0,0-5.39,3.31L5,12.5l.11.19A6.58,6.58,0,0,0,10.5,16" style="fill:#fff"/><path d="M10.5,16a6.6,6.6,0,0,0,5.4-3.31l.1-.19-.1-.19A6.59,6.59,0,0,0,10.5,9" style="fill:#fff"/><path d="M10.5,9a6.57,6.57,0,0,0-5.39,3.31L5,12.5l.11.19A6.58,6.58,0,0,0,10.5,16" style="fill:gray"/><path d="M10.5,16a6.6,6.6,0,0,0,5.4-3.31l.1-.19-.1-.19A6.59,6.59,0,0,0,10.5,9" style="fill:gray"/><path d="M10.5,15.3a5.89,5.89,0,0,1-4.58-2.8A5.88,5.88,0,0,1,10.5,9.7a5.87,5.87,0,0,1,4.58,2.8,5.89,5.89,0,0,1-4.58,2.8Z" style="fill:#fff"/><path d="M12.4,11.39a.74.74,0,1,1-.74-.7l.15,0a2.36,2.36,0,0,0-1.31-.4,2.19,2.19,0,1,0,2.29,2.19,2.1,2.1,0,0,0-.42-1.25.71.71,0,0,1,0,.14Z" style="fill:#4d84ba"/></svg>