<svg id="图层_1" data-name="图层 1" xmlns="http://www.w3.org/2000/svg" viewBox="0 0 16 16"><title>画板 16</title><path d="M-211.07,10a.32.32,0,0,1-.23-.09l-2.15-2.15a.32.32,0,0,1,0-.45.32.32,0,0,1,.45,0l1.93,1.93,4-4a.32.32,0,0,1,.45,0,.32.32,0,0,1,0,.45l-4.21,4.21a.32.32,0,0,1-.23.09Zm289-36a.32.32,0,0,1-.23-.09l-2.15-2.15a.32.32,0,0,1,0-.45.32.32,0,0,1,.45,0l1.93,1.93,4-4a.32.32,0,0,1,.45,0,.32.32,0,0,1,0,.45l-4.21,4.21a.32.32,0,0,1-.23.09Zm-289,36" style="fill:#b1b1b1"/><rect x="4.5" y="4.5" width="11" height="11" style="fill:#fff"/><path d="M15,5V15H5V5H15m1-1H4V16H16V4Z" style="fill:gray"/><rect x="2.5" y="2.5" width="11" height="11" style="fill:#fff"/><path d="M13,3V13H3V3H13m1-1H2V14H14V2Z" style="fill:gray"/><rect width="12" height="12" style="fill:#4d84ba"/></svg>