<?xml version="1.0" standalone="no"?><!DOCTYPE svg PUBLIC "-//W3C//DTD SVG 1.1//EN" "http://www.w3.org/Graphics/SVG/1.1/DTD/svg11.dtd"><svg t="1536839722246" class="icon" style="" viewBox="0 0 1024 1024" version="1.1" xmlns="http://www.w3.org/2000/svg" p-id="7324" xmlns:xlink="http://www.w3.org/1999/xlink" width="64" height="64"><defs><style type="text/css"></style></defs><path d="M512 1024c-282.752 0-512-229.248-512-512s229.248-512 512-512 512 229.248 512 512S794.752 1024 512 1024zM512 128C299.968 128 128 299.968 128 512s171.968 384 384 384 384-171.968 384-384S724.032 128 512 128zM704 576 576 576l0 128c0 35.392-28.608 64-64 64-35.328 0-64-28.608-64-64L448 576 320 576C284.672 576 256 547.392 256 512c0-35.328 28.672-64 64-64l128 0L448 320c0-35.328 28.672-64 64-64 35.392 0 64 28.672 64 64l0 128 128 0c35.392 0 64 28.672 64 64C768 547.392 739.392 576 704 576z" p-id="7325" fill="#1296db"></path></svg>