<svg id="图层_1" data-name="图层 1" xmlns="http://www.w3.org/2000/svg" viewBox="0 0 32 32"><title>画板 11</title><path d="M22.16,20.32c-2.58,2.29-6.71,1.53-6.71-2.29,0-3.56,4.13-4.07,6.45-2.29,1.29,1,3.1.29,3.1-1.75V11c0-.94-1-1-1-1H16c-.77,0-2.1-1.37-1.06-1.88a3.64,3.64,0,0,0,1.81-3.3A3.94,3.94,0,0,0,12.87,1,3.77,3.77,0,0,0,9,4.81a3.83,3.83,0,0,0,2.06,3.3c.77.51.48,1.88-1.06,1.88H2a1,1,0,0,0-1,1v7.54c0,2.29,1.55,2.8,3.1,1.78,2.32-1.78,6.71-1.53,6.71,2.29s-4.39,4.83-7,2.29C2.29,23.37,1,24.53,1,26.31v3.75a.91.91,0,0,0,.92.94H24.08a.91.91,0,0,0,.92-.94V21.59c0-1.84-1.29-2.54-2.84-1.27Zm0,0" style="fill:#4d84ba"/><path d="M31,26.29a1,1,0,0,1,0,.4,1.43,1.43,0,0,1-.15.47,2.47,2.47,0,0,1-.24.44.86.86,0,0,1-.31.27A.75.75,0,0,1,30,28a.73.73,0,0,1-.27-.05,1.65,1.65,0,0,0-.34-.07,3.21,3.21,0,0,0-.42,0,1.87,1.87,0,0,0-.44.09.84.84,0,0,0-.36.24,1.4,1.4,0,0,0-.4.8,1.54,1.54,0,0,0,.13.85.57.57,0,0,1,0,.56,1.25,1.25,0,0,1-.27.24l-.4.22a2.49,2.49,0,0,1-.87.2.38.38,0,0,1-.24-.09.42.42,0,0,1-.15-.22h0a1.65,1.65,0,0,0-.53-.74,1.24,1.24,0,0,0-.85-.31,1.37,1.37,0,0,0-.85.31,1.87,1.87,0,0,0-.54.73.4.4,0,0,1-.22.24.6.6,0,0,1-.31.07,1.37,1.37,0,0,1-.44-.07c-.16-.05-.33-.11-.49-.18a2.46,2.46,0,0,1-.44-.24,1.06,1.06,0,0,1-.29-.27.36.36,0,0,1-.07-.24.88.88,0,0,1,.11-.36,1.37,1.37,0,0,0,.13-.73,1.25,1.25,0,0,0-.36-.76.84.84,0,0,0-.47-.27,2.73,2.73,0,0,0-.53-.05,2.32,2.32,0,0,0-.6.11.62.62,0,0,1-.4,0,.63.63,0,0,1-.29-.25,2.65,2.65,0,0,1-.24-.45,2.37,2.37,0,0,1-.16-.51,1.17,1.17,0,0,1,0-.42.45.45,0,0,1,.27-.38,1.92,1.92,0,0,0,.74-.54,1.29,1.29,0,0,0,.33-.85,1.22,1.22,0,0,0-.33-.85,2.07,2.07,0,0,0-.74-.53c-.09,0-.15-.09-.2-.2a.74.74,0,0,1-.09-.33,1.61,1.61,0,0,1,.05-.4,4.09,4.09,0,0,1,.15-.44,1.3,1.3,0,0,1,.22-.38.85.85,0,0,1,.25-.25.25.25,0,0,1,.22-.05l.24.05a1.76,1.76,0,0,0,.87.11,1.4,1.4,0,0,0,.8-.4.87.87,0,0,0,.24-.42,1.56,1.56,0,0,0,.09-.49,1.74,1.74,0,0,0,0-.44,2.52,2.52,0,0,0,0-.27c0-.05,0-.13-.05-.2a.36.36,0,0,1,0-.2.9.9,0,0,1,.31-.34,1.91,1.91,0,0,1,.47-.24,2.51,2.51,0,0,1,.49-.14A1.88,1.88,0,0,1,22.7,18a.34.34,0,0,1,.29.13.83.83,0,0,1,.15.24,1.6,1.6,0,0,0,.51.65,1.32,1.32,0,0,0,.82.29,1.46,1.46,0,0,0,.87-.27,1.39,1.39,0,0,0,.53-.69.91.91,0,0,1,.18-.24.38.38,0,0,1,.24-.13,1.76,1.76,0,0,1,.42.05,4.33,4.33,0,0,1,.45.15,2,2,0,0,1,.42.25,2.55,2.55,0,0,1,.31.33.28.28,0,0,1,0,.24.73.73,0,0,1-.05.18,1.37,1.37,0,0,0-.11.85,1.46,1.46,0,0,0,.4.78,1.22,1.22,0,0,0,.82.36,1.89,1.89,0,0,0,.91-.16.34.34,0,0,1,.27-.05.48.48,0,0,1,.27.13,1.54,1.54,0,0,1,.36.6,3.26,3.26,0,0,1,.22.8.46.46,0,0,1-.07.36.64.64,0,0,1-.22.18,1.65,1.65,0,0,0-.74.54,1.31,1.31,0,0,0-.31.87,1.46,1.46,0,0,0,.25.83,1.54,1.54,0,0,0,.67.51.63.63,0,0,1,.16.11,1,1,0,0,1,.24.38Zm-6.48.38a2,2,0,0,0,.84-.17,2.21,2.21,0,0,0,1.15-1.15,2.18,2.18,0,0,0,0-1.68,2.21,2.21,0,0,0-1.15-1.15,2.19,2.19,0,0,0-1.68,0,2.21,2.21,0,0,0-1.15,1.15,2.18,2.18,0,0,0,0,1.68,2.21,2.21,0,0,0,1.15,1.15,2,2,0,0,0,.84.17Zm0,.87" style="fill:#de673e"/><circle cx="24.5" cy="24.5" r="2.5" style="fill:#fff"/></svg>