<svg id="图层_1" data-name="图层 1" xmlns="http://www.w3.org/2000/svg" viewBox="0 0 32 32"><title>画板 3</title><path d="M6,30.5A4.26,4.26,0,0,1,1.5,26V10.6A7.11,7.11,0,0,1,8.6,3.5h20A1.86,1.86,0,0,1,30.5,5.36V28.64a1.86,1.86,0,0,1-1.86,1.86Z" style="fill:#fff"/><path d="M28.64,4A1.36,1.36,0,0,1,30,5.36V28.64A1.36,1.36,0,0,1,28.64,30H6a3.79,3.79,0,0,1-4-4V10.6A6.61,6.61,0,0,1,8.6,4h20m0-1H8.6A7.6,7.6,0,0,0,1,10.6V26a4.77,4.77,0,0,0,5,5H28.64A2.36,2.36,0,0,0,31,28.64V5.36A2.36,2.36,0,0,0,28.64,3Z" style="fill:gray"/><path d="M30,16.59l-6,6L3.71,2.29a1,1,0,0,0-1.4,0l0,0a1,1,0,0,0,0,1.4L7.75,9.18,2,14.93v2.83l7.17-7.17L28.09,29.51A2,2,0,0,0,29,30a1,1,0,0,0,1-1,2,2,0,0,0-.49-.91L25.42,24,30,19.41Z" style="fill:#5da58e"/><path d="M18.65,4H15.83l6.71,6.71a1,1,0,0,0,1.41-1.41Z" style="fill:#eec97f"/><path d="M30,4H28.59L3.41,29.17l0,0a4.16,4.16,0,0,0,.87.49A3.85,3.85,0,0,0,5.4,30l0,0h0l5-5,5,5h2.83l-6.41-6.41L30,5.41Z" style="fill:#4d84ba"/><path d="M8.5,25.17a10.9,10.9,0,0,0-3.44-1l-.48,0a6.23,6.23,0,0,0-3.08.91V5A3.32,3.32,0,0,1,5,1.5,3.32,3.32,0,0,1,8.5,5Z" style="fill:#fff"/><path d="M5,2A2.82,2.82,0,0,1,8,5V24.41a10.9,10.9,0,0,0-2.89-.75l-.53,0A6.31,6.31,0,0,0,2,24.23V5A2.85,2.85,0,0,1,5,2M7,20.77a1,1,0,1,0-1-1,1,1,0,0,0,1,1M5,1A3.82,3.82,0,0,0,1,5V26a6.2,6.2,0,0,1,3.58-1.36l.42,0A10.77,10.77,0,0,1,9,26V5A3.82,3.82,0,0,0,5,1ZM1,26H1Zm8,0H9Z" style="fill:gray"/><rect x="5.5" y="16.5" width="2.5" height="5.5" style="fill:#fff"/></svg>