<?xml version="1.0" standalone="no"?><!DOCTYPE svg PUBLIC "-//W3C//DTD SVG 1.1//EN" "http://www.w3.org/Graphics/SVG/1.1/DTD/svg11.dtd"><svg t="1523589347691" class="icon" style="" viewBox="0 0 1024 1024" version="1.1" xmlns="http://www.w3.org/2000/svg" p-id="15854" xmlns:xlink="http://www.w3.org/1999/xlink" width="128" height="128"><defs><style type="text/css"></style></defs><path d="M883.2 403.2l-147.2-44.8 57.6-224c0-6.4 0-19.2-6.4-25.6-6.4-6.4-12.8-12.8-19.2-12.8L627.2 57.6c-6.4 0-19.2 0-25.6 0C595.2 70.4 588.8 76.8 588.8 83.2L524.8 300.8 358.4 256c-6.4 0-19.2 0-25.6 0S320 275.2 320 281.6l-89.6 320C211.2 684.8 128 768 128 768c-6.4 6.4-12.8 19.2-6.4 32 0 12.8 12.8 19.2 25.6 25.6l524.8 140.8c0 0 6.4 0 6.4 0 6.4 0 19.2-6.4 25.6-12.8 6.4-6.4 83.2-89.6 115.2-179.2 32-83.2 89.6-326.4 89.6-332.8C908.8 422.4 896 409.6 883.2 403.2zM755.2 748.8c-25.6 57.6-70.4 115.2-89.6 147.2l-70.4-19.2c32-38.4 70.4-96 89.6-160 6.4-19.2-6.4-32-25.6-38.4-19.2-6.4-32 6.4-38.4 25.6-19.2 70.4-76.8 134.4-96 153.6l-57.6-12.8c32-38.4 70.4-96 83.2-153.6 6.4-19.2-6.4-32-25.6-38.4-19.2-6.4-32 6.4-38.4 25.6-19.2 64-70.4 128-89.6 153.6l-64-19.2c32-38.4 70.4-96 89.6-153.6 6.4-19.2-6.4-32-25.6-38.4C384 608 364.8 620.8 364.8 633.6c-19.2 64-70.4 128-96 153.6l-57.6-19.2c32-38.4 70.4-96 83.2-153.6l76.8-294.4 166.4 44.8c6.4 0 19.2 0 25.6 0C569.6 364.8 576 358.4 582.4 352L640 128l83.2 19.2-57.6 224c-6.4 19.2 6.4 32 19.2 38.4L832 454.4C819.2 524.8 780.8 691.2 755.2 748.8z" p-id="15855"></path><path d="M364.8 473.6C364.8 492.8 371.2 505.6 390.4 512l339.2 96c0 0 6.4 0 6.4 0 12.8 0 25.6-6.4 32-25.6 6.4-19.2-6.4-32-19.2-38.4L409.6 448C390.4 448 371.2 454.4 364.8 473.6z" p-id="15856"></path></svg>