<svg id="图层_1" data-name="图层 1" xmlns="http://www.w3.org/2000/svg" viewBox="0 0 32 32"><title>画板 7</title><rect x="1.5" y="1.5" width="29" height="29" style="fill:#fff"/><path d="M30,2V30H2V2H30m1-1H1V31H31V1Z" style="fill:gray"/><rect x="1" y="20" width="30" height="1" style="fill:#fff"/><polygon points="31 20 1 20 1 21 31 21 31 20 31 20" style="fill:gray"/><rect x="1" y="10" width="30" height="1" style="fill:#fff"/><polygon points="31 10 1 10 1 11 31 11 31 10 31 10" style="fill:gray"/><polygon points="11 1 10 1 10 30 11 30 11 1 11 1" style="fill:gray"/><polygon points="21 2 20 2 20 31 21 31 21 2 21 2" style="fill:gray"/><path d="M8.5,3h-5a.5.5,0,0,0-.5.5v5a.5.5,0,0,0,1,0V4H8.5a.5.5,0,0,0,0-1Z" style="fill:gray"/><path d="M17.5,3h-5a.5.5,0,0,0-.5.5v5a.5.5,0,0,0,1,0V4h4.5a.5.5,0,0,0,0-1Z" style="fill:gray"/><path d="M27.5,3h-5a.5.5,0,0,0-.5.5v5a.5.5,0,0,0,1,0V4h4.5a.5.5,0,0,0,0-1Z" style="fill:gray"/><path d="M8.5,12h-5a.5.5,0,0,0-.5.5v5a.5.5,0,0,0,1,0V13H8.5a.5.5,0,0,0,0-1Z" style="fill:gray"/><path d="M17.5,12h-5a.5.5,0,0,0-.5.5v5a.5.5,0,0,0,1,0V13h4.5a.5.5,0,0,0,0-1Z" style="fill:gray"/><path d="M27.5,12h-5a.5.5,0,0,0-.5.5v5a.5.5,0,0,0,1,0V13h4.5a.5.5,0,0,0,0-1Z" style="fill:gray"/><path d="M8.5,22h-5a.5.5,0,0,0-.5.5v5a.5.5,0,0,0,1,0V23H8.5a.5.5,0,0,0,0-1Z" style="fill:gray"/><path d="M17.5,22h-5a.5.5,0,0,0-.5.5v5a.5.5,0,0,0,1,0V23h4.5a.5.5,0,0,0,0-1Z" style="fill:gray"/><circle cx="24" cy="24" r="7" style="fill:#4d84ba"/><polygon points="24 28 29 24 24 20 24 23 19 23 19 25 24 25 24 28" style="fill:#fff"/></svg>