<?xml version="1.0" standalone="no"?><!DOCTYPE svg PUBLIC "-//W3C//DTD SVG 1.1//EN" "http://www.w3.org/Graphics/SVG/1.1/DTD/svg11.dtd"><svg class="icon" width="200px" height="200.00px" viewBox="0 0 1024 1024" version="1.1" xmlns="http://www.w3.org/2000/svg"><path d="M896.853333 362.666667c0-6.954667-3.328-13.184-8.490667-17.024l-98.645333-123.264C770.517333 190.506667 735.573333 170.666667 698.453333 170.666667L325.546667 170.666667C288.426667 170.666667 253.482667 190.506667 235.904 220.074667l-103.253333 129.28c-0.341333 0.426667-0.298667 0.981333-0.597333 1.408C130.474667 353.152 129.365333 355.754667 128.810667 358.656c-0.170667 0.896-0.469333 1.664-0.512 2.56C128.256 361.728 128 362.154667 128 362.666667l0 387.541333C128 808.021333 174.848 853.333333 234.666667 853.333333l554.666667 0c59.818667 0 106.666667-45.312 106.666667-103.125333L896 366.890667C896.298667 365.482667 896.853333 364.16 896.853333 362.666667zM698.453333 213.333333c22.229333 0 43.178667 11.861333 56.277333 33.365333L830.336 341.333333 554.666667 341.333333 554.666667 213.333333 698.453333 213.333333zM270.890667 244.394667C282.368 225.194667 303.317333 213.333333 325.546667 213.333333L469.333333 213.333333l0 128L193.621333 341.333333 270.890667 244.394667zM853.333333 750.208C853.333333 784.128 825.216 810.666667 789.333333 810.666667l-554.666667 0C198.784 810.666667 170.666667 784.128 170.666667 750.208L170.666667 384l682.666667 0L853.333333 750.208z" fill="#1296db" /></svg>