<?xml version="1.0" standalone="no"?><!DOCTYPE svg PUBLIC "-//W3C//DTD SVG 1.1//EN" "http://www.w3.org/Graphics/SVG/1.1/DTD/svg11.dtd"><svg t="1590117763096" class="icon" viewBox="0 0 1024 1024" version="1.1" xmlns="http://www.w3.org/2000/svg" p-id="2309" xmlns:xlink="http://www.w3.org/1999/xlink" width="64" height="64"><defs><style type="text/css"></style></defs><path d="M312.00000031 752h279.99999938v-120a79.99999969 79.99999969 0 0 1 80.00000062-79.99999969h120V272a79.99999969 79.99999969 0 0 1-80.00000062-79.99999969h-279.99999938v120a79.99999969 79.99999969 0 0 1-80.00000062 79.99999969H111.99999969a79.99999969 79.99999969 0 0 1-79.99999969-79.99999969V152a79.99999969 79.99999969 0 0 1 79.99999969-79.99999969h240a79.99999969 79.99999969 0 0 1 80.00000062 79.99999969h290.71999969A79.99999969 79.99999969 0 1 1 831.99999969 261.27999969V552.00000031h80.00000062a79.99999969 79.99999969 0 0 1 79.99999969 79.99999969v160.00000031a79.99999969 79.99999969 0 0 1-79.99999969 79.99999969h-240a79.99999969 79.99999969 0 0 1-80.00000062-79.99999969H301.28A79.99999969 79.99999969 0 1 1 192.00000031 682.71999969V471.99999969H132.00000031a19.99999969 19.99999969 0 1 1 0-39.99999938h199.99999969a19.99999969 19.99999969 0 1 1 0 39.99999938H231.99999969v200.00000062a79.99999969 79.99999969 0 0 1 80.00000062 79.99999969zM111.99999969 111.99999969a40.00000031 40.00000031 0 0 0-39.99999938 40.00000031v160.00000031a40.00000031 40.00000031 0 0 0 39.99999938 39.99999938h240a40.00000031 40.00000031 0 0 0 40.00000031-39.99999938V152a40.00000031 40.00000031 0 0 0-40.00000031-40.00000031H111.99999969z m560.00000062 480a40.00000031 40.00000031 0 0 0-40.00000031 40.00000031v160.00000031a40.00000031 40.00000031 0 0 0 40.00000031 39.99999938h240a40.00000031 40.00000031 0 0 0 39.99999938-39.99999938v-160.00000031a40.00000031 40.00000031 0 0 0-39.99999938-40.00000031h-240z m19.99999969 320.00000062h199.99999969a19.99999969 19.99999969 0 1 1 0 39.99999938h-199.99999969a19.99999969 19.99999969 0 1 1 0-39.99999938zM792.00000031 231.99999969a40.00000031 40.00000031 0 1 0 0-79.99999969 40.00000031 40.00000031 0 0 0 0 79.99999969zM231.99999969 792.00000031a40.00000031 40.00000031 0 1 0 0-80.00000062 40.00000031 40.00000031 0 0 0 0 80.00000062z" fill="#4d84ba" p-id="2310"></path></svg>