<?xml version="1.0" standalone="no"?><!DOCTYPE svg PUBLIC "-//W3C//DTD SVG 1.1//EN" "http://www.w3.org/Graphics/SVG/1.1/DTD/svg11.dtd"><svg t="1589447234539" class="icon" viewBox="0 0 1024 1024" version="1.1" xmlns="http://www.w3.org/2000/svg" p-id="3938" xmlns:xlink="http://www.w3.org/1999/xlink" width="64" height="64"><defs><style type="text/css"></style></defs><path d="M85.333333 280.576c32.938667 0 59.733333 26.794667 59.733334 59.733333s-26.794667 59.733333-59.733334 59.733334-59.733333-26.794667-59.733333-59.733334 26.794667-59.733333 59.733333-59.733333m0-25.6c-47.104 0-85.333333 38.229333-85.333333 85.333333s38.229333 85.333333 85.333333 85.333334 85.333333-38.229333 85.333334-85.333334-38.229333-85.333333-85.333334-85.333333z" fill="#4d84ba" p-id="3939"></path><path d="M85.333333 443.050667v397.824-397.824m25.6-25.6h-51.2v449.024h51.2V417.450667z" fill="#4d84ba" p-id="3940"></path><path d="M85.333333 878.933333c32.938667 0 59.733333 26.794667 59.733334 59.733334s-26.794667 59.733333-59.733334 59.733333-59.733333-26.794667-59.733333-59.733333 26.794667-59.733333 59.733333-59.733334m0-25.6c-47.104 0-85.333333 38.229333-85.333333 85.333334s38.229333 85.333333 85.333333 85.333333 85.333333-38.229333 85.333334-85.333333-38.229333-85.333333-85.333334-85.333334zM939.178667 280.576c32.938667 0 59.733333 26.794667 59.733333 59.733333s-26.794667 59.733333-59.733333 59.733334-59.733333-26.794667-59.733334-59.733334 26.794667-59.733333 59.733334-59.733333m0-25.6c-47.104 0-85.333333 38.229333-85.333334 85.333333s38.229333 85.333333 85.333334 85.333334 85.333333-38.229333 85.333333-85.333334-38.229333-85.333333-85.333333-85.333333z" fill="#4d84ba" p-id="3941"></path><path d="M939.178667 443.050667v397.824-397.824m25.6-25.6h-51.2v449.024h51.2V417.450667zM866.816 314.538667H157.696v51.2h709.12v-51.2zM866.816 913.408H157.696v51.2h709.12v-51.2z" fill="#4d84ba" p-id="3942"></path><path d="M939.178667 878.933333c32.938667 0 59.733333 26.794667 59.733333 59.733334s-26.794667 59.733333-59.733333 59.733333-59.733333-26.794667-59.733334-59.733333 26.794667-59.733333 59.733334-59.733334m0-25.6c-47.104 0-85.333333 38.229333-85.333334 85.333334s38.229333 85.333333 85.333334 85.333333 85.333333-38.229333 85.333333-85.333333-38.229333-85.333333-85.333333-85.333334z" fill="#4d84ba" p-id="3943"></path></svg>