<svg id="图层_1" data-name="图层 1" xmlns="http://www.w3.org/2000/svg" viewBox="0 0 16 16"><title>画板 6-V</title><path d="M1.52,8.76h0a2.41,2.41,0,0,0-.31.37,2.46,2.46,0,0,0-.2.37A3.26,3.26,0,0,0,.82,10q-.12.35-.24.77l-.23.81a5,5,0,0,0-.14.59c0,.25-.27.7-.19.8s.52-.11.78-.14l.58-.13.82-.24L3,12.16a6.3,6.3,0,0,0,.6-.25A1.8,1.8,0,0,0,4,11.68l.33-.28L1.61,8.66l-.1.1Zm0,0" style="fill:#4d84ba"/><path d="M13,1.92a1.53,1.53,0,0,0-.09-.31h0a3.28,3.28,0,0,0-.58-.84A2.69,2.69,0,0,0,11.62.2a2.18,2.18,0,0,0-.34-.13A1.59,1.59,0,0,0,10.86,0a1.33,1.33,0,0,0-.43.06A1.27,1.27,0,0,0,10,.29l-.4.36L9.2,1l2.73,2.74.22-.21.24-.23L12.69,3a1.16,1.16,0,0,0,.23-.37A1.07,1.07,0,0,0,13,2.28a1.8,1.8,0,0,0,0-.37Zm0,0" style="fill:#4d84ba"/><path d="M2.73,7.53l-.56.57,2.74,2.75.58-.59,1-1L7.7,8l3.52-3.54L8.49,1.73Zm0,0" style="fill:#4d84ba"/><rect y="14" width="16" height="1" rx="0.5" ry="0.5" style="fill:#fff"/><path d="M15.5,14H.5a.5.5,0,0,0,0,1h15a.5.5,0,0,0,0-1Z" style="fill:gray"/><rect x="4" y="12" width="12" height="1" rx="0.5" ry="0.5" style="fill:#fff"/><path d="M15.5,12H4.5a.5.5,0,0,0,0,1h11a.5.5,0,0,0,0-1Z" style="fill:gray"/><rect x="7" y="10" width="9" height="1" rx="0.5" ry="0.5" style="fill:#fff"/><path d="M15.5,10h-8a.5.5,0,0,0,0,1h8a.5.5,0,0,0,0-1Z" style="fill:gray"/></svg>