<?xml version="1.0" standalone="no"?><!DOCTYPE svg PUBLIC "-//W3C//DTD SVG 1.1//EN" "http://www.w3.org/Graphics/SVG/1.1/DTD/svg11.dtd"><svg t="1592372316871" class="icon" viewBox="0 0 1024 1024" version="1.1" xmlns="http://www.w3.org/2000/svg" p-id="3377" xmlns:xlink="http://www.w3.org/1999/xlink" width="200" height="200"><defs><style type="text/css"></style></defs><path d="M479.913199 0.102331c-265.002536 0-479.892745 214.82574-479.892745 479.891721 0 265.001513 214.890208 479.890698 479.892745 479.890698 265.001513 0 479.891721-214.889185 479.891721-479.890698C959.804921 214.928071 744.914712 0.102331 479.913199 0.102331zM479.913199 895.89946c-229.698472 0-415.906431-186.207959-415.906431-415.905408 0-229.699496 186.207959-415.907455 415.906431-415.907455 229.697449 0 415.905408 186.207959 415.905408 415.907455C895.818607 709.692524 709.610648 895.89946 479.913199 895.89946z" p-id="3378" fill="#1296db"></path><path d="M445.359219 254.358105 287.019981 666.639986l57.987692 0 45.240367-124.910894 172.397419 0 48.113811 124.910894 62.050218 0L504.093925 254.358105 445.359219 254.358105zM405.992629 497.365698l45.239344-120.973212c9.56075-26.057469 16.996093-52.238758 22.243607-78.733179 6.313799 22.369473 16.123212 50.865481 29.245068 85.481883l42.989093 114.224508L405.992629 497.365698z" p-id="3379" fill="#1296db"></path></svg>