<?xml version="1.0" standalone="no"?><!DOCTYPE svg PUBLIC "-//W3C//DTD SVG 1.1//EN" "http://www.w3.org/Graphics/SVG/1.1/DTD/svg11.dtd"><svg t="1523582659502" class="icon" style="" viewBox="0 0 1024 1024" version="1.1" xmlns="http://www.w3.org/2000/svg" p-id="12680" xmlns:xlink="http://www.w3.org/1999/xlink" width="128" height="128"><defs><style type="text/css"></style></defs><path d="M838.4 275.2c-57.6-57.6-115.2-121.6-179.2-179.2C640 70.4 620.8 64 588.8 64 473.6 64 352 64 236.8 64 179.2 64 160 83.2 160 140.8c0 121.6 0 249.6 0 371.2 0 121.6 0 249.6 0 371.2 0 51.2 19.2 76.8 70.4 76.8 185.6 0 371.2 0 556.8 0 57.6 0 76.8-19.2 76.8-76.8 0-179.2 0-358.4 0-537.6C864 313.6 857.6 294.4 838.4 275.2zM825.6 870.4c0 32-12.8 51.2-51.2 51.2-179.2 0-352 0-531.2 0-38.4 0-44.8-19.2-44.8-51.2 0-121.6 0-236.8 0-358.4 0-115.2 0-230.4 0-345.6 0-44.8 12.8-64 57.6-64 96 0 198.4 0 294.4 0 38.4 0 57.6 12.8 51.2 51.2 0 32 0 70.4 0 102.4 0 51.2 19.2 70.4 70.4 70.4 32 0 64 0 102.4 0 38.4 0 51.2 12.8 51.2 51.2C825.6 544 825.6 704 825.6 870.4z" p-id="12681" fill="#3f81c1"></path><path d="M691.2 428.8c-57.6 0-115.2 0-179.2 0-57.6 0-121.6 0-179.2 0-12.8 0-32 0-38.4 19.2 0 19.2 19.2 19.2 32 19.2 121.6 0 243.2 0 364.8 0 12.8 0 32 0 32-19.2C723.2 422.4 704 428.8 691.2 428.8z" p-id="12682" fill="#3f81c1"></path><path d="M691.2 563.2c-121.6 0-243.2 0-364.8 0-12.8 0-32 0-32 19.2 0 19.2 19.2 19.2 32 19.2 57.6 0 115.2 0 179.2 0 64 0 128 0 185.6 0 12.8 0 32 0 32-19.2C723.2 563.2 704 563.2 691.2 563.2z" p-id="12683" fill="#3f81c1"></path><path d="M691.2 697.6c-115.2 0-236.8 0-352 0-12.8 0-32 0-38.4 19.2 0 25.6 19.2 19.2 38.4 19.2 57.6 0 115.2 0 179.2 0 57.6 0 115.2 0 179.2 0 12.8 0 32 0 38.4-19.2C723.2 691.2 704 697.6 691.2 697.6z" p-id="12684" fill="#3f81c1"></path></svg>