<svg id="图层_1" data-name="图层 1" xmlns="http://www.w3.org/2000/svg" viewBox="0 0 32 32"><title>画板 51</title><rect x="4" y="2" width="2" height="27" style="fill:#7e7e7e"/><rect x="16.5" y="13.5" width="2" height="27" transform="translate(-9.5 44.5) rotate(-90)" style="fill:#7e7e7e"/><polygon points="10 21 8 21 8 22 10 22 10 24 11 24 11 22 11 21 10 21" style="fill:#7e7e7e"/><circle cx="5" cy="27" r="3.5" style="fill:#fff"/><path d="M5,24a3,3,0,1,1-3,3,3,3,0,0,1,3-3m0-1a4,4,0,1,0,4,4,4,4,0,0,0-4-4Z" style="fill:gray"/><path d="M27,8.16,23.82,5,25.41,3.4a1.35,1.35,0,0,1,1.91,0L28.6,4.67a1.34,1.34,0,0,1,0,1.91Zm-9.26,9.23-3.19-3.18,8.66-8.57L26.4,8.81ZM12,20l1.94-5.16L17.1,18Z" style="fill:gray"/></svg>