<svg id="图层_1" data-name="图层 1" xmlns="http://www.w3.org/2000/svg" viewBox="0 0 32 32"><title>画板 74</title><rect x="1.5" y="1.5" width="29" height="29" rx="1.57" ry="1.57" style="fill:#fff"/><path d="M28.93,2A1.07,1.07,0,0,1,30,3.07V28.93A1.07,1.07,0,0,1,28.93,30H3.07A1.07,1.07,0,0,1,2,28.93V3.07A1.07,1.07,0,0,1,3.07,2H28.93m0-1H3.07A2.08,2.08,0,0,0,1,3.07V28.93A2.08,2.08,0,0,0,3.07,31H28.93A2.08,2.08,0,0,0,31,28.93V3.07A2.08,2.08,0,0,0,28.93,1Z" style="fill:gray"/><rect x="7.5" y="1.5" width="17" height="9" rx="0.55" ry="0.55" style="fill:#fff"/><path d="M24,2a.05.05,0,0,1,0,0V10a.05.05,0,0,1,0,0H8a.05.05,0,0,1,0,0V2A.05.05,0,0,1,8,2H24m0-1H8A1.05,1.05,0,0,0,7,2V10a1.05,1.05,0,0,0,1,1H24a1.05,1.05,0,0,0,1-1V2a1.05,1.05,0,0,0-1-1Z" style="fill:gray"/><rect x="11.34" y="4" width="9.31" height="4" rx="1.02" ry="1.02" style="fill:#de673e"/><rect x="8" y="22" width="10" height="1" style="fill:#b1b1b1"/><rect x="8" y="16" width="16" height="1" style="fill:#b1b1b1"/><rect x="8" y="19" width="8" height="1" style="fill:#b1b1b1"/><rect x="8" y="25" width="13" height="1" style="fill:#b1b1b1"/></svg>