<?xml version="1.0" standalone="no"?><!DOCTYPE svg PUBLIC "-//W3C//DTD SVG 1.1//EN" "http://www.w3.org/Graphics/SVG/1.1/DTD/svg11.dtd"><svg t="1590646361873" class="icon" viewBox="0 0 1024 1024" version="1.1" xmlns="http://www.w3.org/2000/svg" p-id="16338" xmlns:xlink="http://www.w3.org/1999/xlink" width="200" height="200"><defs><style type="text/css"></style></defs><path d="M967.184516 136.092903c-15.194839-35.674839-38.978065-33.032258-69.367742-52.190968-28.407742-13.873548-56.815484-25.765161-56.815484-25.765161-7.267097-3.303226-15.194839-1.981935-21.80129 2.642581-5.945806 4.624516-9.249032 12.552258-7.927742 20.48v4.624516c-1.32129 11.230968-0.660645 18.498065-14.534193 20.48-124.861935 21.80129-167.803871 200.175484-171.107097 238.492903v3.963871c0 1.981935 3.303226 19.819355 22.461935 21.140645 33.032258-11.230968 20.48-17.837419 35.674839-31.710967 26.425806-40.96 82.580645-117.594839 141.378064-122.219355h1.981936c5.285161 0 9.249032 12.552258 9.249032 23.12258v1.321291c-0.660645 8.588387 4.624516 17.176774 12.552258 20.48 7.927742 3.963871 17.837419 1.981935 23.783226-4.624516 1.32129-5.285161 85.223226-74.652903 94.472258-117.594839v-2.642581z m-97.114839 62.761291c-7.267097-12.552258-19.819355-23.783226-42.941935-25.765162-1.981935 0-4.624516 0-6.606452 0.660645-48.227097 5.945806-86.544516 36.335484-116.273548 68.046452 23.783226-46.905806 58.136774-91.829677 97.775484-92.490323 29.068387-3.303226 43.602581-22.461935 49.548387-39.638709 8.588387 3.963871 18.498065 8.588387 28.407742 13.212903 13.873548 6.606452 27.747097 13.873548 36.996129 19.15871 0.660645 0.660645 1.981935 1.32129 2.642581 1.32129-11.230968 14.534194-32.371613 36.996129-49.548388 55.494194z" fill="#FE9B26" p-id="16339"></path><path d="M767.669677 725.388387H256.330323c-46.905806 0-85.223226 38.317419-85.223226 85.223226v71.349677c0 46.905806 38.317419 85.223226 85.223226 85.223226h512c46.905806 0 85.223226-38.317419 85.223225-85.223226v-71.349677c0-46.905806-38.317419-85.223226-85.883871-85.223226z m29.068388 156.572903c0 15.855484-12.552258 28.407742-28.407742 28.407742H256.330323c-15.855484 0-28.407742-12.552258-28.407742-28.407742v-71.349677c0-15.855484 12.552258-28.407742 28.407742-28.407742h512c15.855484 0 28.407742 12.552258 28.407742 28.407742v71.349677zM256.330323 313.145806h315.788387l-1.981936-30.389677c-0.660645-5.285161-0.660645-9.249032-0.660645-12.552258 0-68.707097 37.656774-128.165161 93.150968-160.536774l92.490322-52.851613H256.330323c-46.905806 0-85.223226 38.317419-85.223226 85.223226v85.223225c-0.660645 47.566452 37.656774 85.883871 85.223226 85.883871z m-29.068388-171.107096c0-15.855484 12.552258-28.407742 28.407742-28.407742h313.806452c-11.230968 13.212903-21.140645 27.086452-29.068387 42.941935H426.776774c-15.855484 0-28.407742 12.552258-28.407742 28.407742s12.552258 28.407742 28.407742 28.407742h92.490323c-3.303226 13.873548-5.285161 27.747097-6.606452 42.941936H256.330323c-15.855484 0-28.407742-12.552258-28.407742-28.407742v-85.883871zM815.236129 444.614194c-19.15871 6.606452-40.299355 10.570323-61.44 10.570322-54.833548 0-103.72129-23.783226-137.414194-61.44L607.793548 383.834839H256.330323c-46.905806 0-85.223226 38.317419-85.223226 85.223226v85.88387c0 46.905806 38.317419 85.223226 85.223226 85.223226h512c46.905806 0 85.223226-38.317419 85.223225-85.223226V430.740645l-38.317419 13.873549z m-47.566452 138.735483H256.330323c-15.855484 0-28.407742-12.552258-28.407742-28.407742V469.058065c0-15.855484 12.552258-28.407742 28.407742-28.407742h327.019354c43.602581 43.602581 104.381935 71.349677 171.107097 71.349677 14.534194 0 29.068387-1.32129 42.941936-3.963871v46.245161c-0.660645 15.855484-13.873548 29.068387-29.729033 29.068387z" fill="#118DDE" p-id="16340"></path><path d="M313.145806 213.388387c15.855484 0 28.407742-12.552258 28.407742-28.407742s-12.552258-28.407742-28.407742-28.407742-28.407742 12.552258-28.407741 28.407742 12.552258 28.407742 28.407741 28.407742zM313.145806 483.592258c-15.855484 0-28.407742 12.552258-28.407741 28.407742s12.552258 28.407742 28.407741 28.407742 28.407742-12.552258 28.407742-28.407742-13.212903-28.407742-28.407742-28.407742zM568.815484 483.592258H426.776774c-15.855484 0-28.407742 12.552258-28.407742 28.407742s12.552258 28.407742 28.407742 28.407742h142.03871c15.855484 0 28.407742-12.552258 28.407742-28.407742s-12.552258-28.407742-28.407742-28.407742zM696.980645 810.611613H426.776774c-15.855484 0-28.407742 12.552258-28.407742 28.407742s12.552258 28.407742 28.407742 28.407742h270.203871c15.855484 0 28.407742-12.552258 28.407742-28.407742s-12.552258-28.407742-28.407742-28.407742zM313.145806 810.611613c-15.855484 0-28.407742 12.552258-28.407741 28.407742s12.552258 28.407742 28.407741 28.407742 28.407742-12.552258 28.407742-28.407742-13.212903-28.407742-28.407742-28.407742z" fill="#118DDE" p-id="16341"></path></svg>