<?xml version="1.0" standalone="no"?><!DOCTYPE svg PUBLIC "-//W3C//DTD SVG 1.1//EN" "http://www.w3.org/Graphics/SVG/1.1/DTD/svg11.dtd"><svg t="1585723647089" class="icon" viewBox="0 0 1024 1024" version="1.1" xmlns="http://www.w3.org/2000/svg" p-id="1964" xmlns:xlink="http://www.w3.org/1999/xlink" width="200" height="200"><defs><style type="text/css"></style></defs><path d="M792 232v672H232V232h560m56-56H176v728c0 30.9 25.1 56 56 56h560c30.9 0 56-25.1 56-56V176z" p-id="1965"></path><path d="M932 176H92c-15.5 0-28 12.5-28 28s12.5 28 28 28h840c15.5 0 28-12.5 28-28s-12.5-28-28-28z" p-id="1966"></path><path d="M680 120v56H347.5v-56H680m0-56H347.5c-30.9 0-56 25.1-56 56v112H736V120c0-30.9-25.1-56-56-56zM372 344c-15.5 0-28 12.5-28 28v392c0 15.5 12.5 28 28 28s28-12.5 28-28V372c0-15.5-12.5-28-28-28zM512 344c-15.5 0-28 12.5-28 28v392c0 15.5 12.5 28 28 28s28-12.5 28-28V372c0-15.5-12.5-28-28-28zM652 344c-15.5 0-28 12.5-28 28v392c0 15.5 12.5 28 28 28s28-12.5 28-28V372c0-15.5-12.5-28-28-28z" p-id="1967"></path></svg>