<?xml version="1.0" standalone="no"?><!DOCTYPE svg PUBLIC "-//W3C//DTD SVG 1.1//EN" "http://www.w3.org/Graphics/SVG/1.1/DTD/svg11.dtd"><svg t="1545989828810" class="icon" style="" viewBox="0 0 1024 1024" version="1.1" xmlns="http://www.w3.org/2000/svg" p-id="3804" xmlns:xlink="http://www.w3.org/1999/xlink" width="64" height="64"><defs><style type="text/css"></style></defs><path d="M138.52 874.13c-40.3-14.22-67.37-51.84-67.37-93.63V189.22c0-54.86 45.59-99.48 101.63-99.48H630.5c43.62 0 82.33 27.26 96.33 67.84l-23.63 8.16c-10.53-30.5-39.74-51-72.7-51H172.78c-42.25 0-76.63 33.41-76.63 74.48V780.5c0 31.21 20.37 59.36 50.69 70.06z" fill="#3D9FF9" p-id="3805"></path><path d="M574.78 277.92H136.89a12.5 12.5 0 0 1 0-25h437.89a12.5 12.5 0 0 1 0 25zM422.41 711.66H136.89a12.5 12.5 0 0 1 0-25h285.52a12.5 12.5 0 0 1 0 25zM443.3 494.79H136.89a12.5 12.5 0 0 1 0-25H443.3a12.5 12.5 0 0 1 0 25z" fill="#3D9FF9" p-id="3806"></path><path d="M774 243.5v591.28c0 47.84-40.11 87-89.13 87H227.2c-39.16 0-72.63-25-84.52-59.42a90.17 90.17 0 0 0 30.1 5.14H630.5c49 0 89.13-39.14 89.13-87V189.22a84.35 84.35 0 0 0-4.63-27.56c34.35 12.11 59 44.34 59 81.84z" fill="#C5E3FF" p-id="3807"></path><path d="M684.92 934.26H227.2c-43.62 0-82.33-27.26-96.33-67.84l-8.46-24.5 24.44 8.64a77.61 77.61 0 0 0 25.93 4.44H630.5c42.25 0 76.63-33.41 76.63-74.48v-591.3a71.86 71.86 0 0 0-3.93-23.49l-8.45-24.48 24.42 8.62c40.3 14.22 67.37 51.84 67.37 93.63v591.28c0.01 54.86-45.54 99.48-101.62 99.48z m-518.74-54.49a77.31 77.31 0 0 0 61 29.49h457.74c42.25 0 76.63-33.41 76.63-74.48V243.5A74 74 0 0 0 732 184.86q0.1 2.17 0.1 4.35V780.5c0 54.85-45.59 99.48-101.63 99.48H172.78q-3.31 0.02-6.6-0.21z" fill="#3D9FF9" p-id="3808"></path><path d="M735.61 601.41L574.31 679l-20.86-177.77L731 178.31l20.45-37.19c13.31-24.2 42.21-34.08 64.24-22l102.11 56.17c22 12.11 29.16 41.82 15.85 66z" fill="#C5E3FF" p-id="3809"></path><path d="M563.93 697.87l-23.37-199.16 200-363.61a64.9 64.9 0 0 1 35.76-30.4c15.54-5.31 31.68-4.07 45.46 3.5l102.07 56.14c28.12 15.47 37.44 52.7 20.78 83l-200 363.61z m2.39-194.12l18.35 156.4 141.91-68.27 196.12-356.6c10-18.22 5.12-40.22-10.92-49L809.7 130.11c-7.53-4.14-16.52-4.77-25.32-1.76a40 40 0 0 0-21.94 18.8z" fill="#3D9FF9" p-id="3810"></path><path d="M913.2 278.49L731.03 178.31" fill="#C5E3FF" p-id="3811"></path><path d="M725.022 189.275l12.048-21.906 182.167 100.189-12.048 21.905z" fill="#3D9FF9" p-id="3812"></path></svg>