<svg id="图层_1" data-name="图层 1" xmlns="http://www.w3.org/2000/svg" viewBox="0 0 32 32"><title>画板 13</title><path d="M24,1H2A1,1,0,0,0,1,2V30a1,1,0,0,0,1,1H24a1,1,0,0,0,1-1V2A1,1,0,0,0,24,1ZM8,30H5V2H8Z" style="fill:#4d84ba"/><rect x="1.5" y="1.5" width="23" height="29" rx="0.5" ry="0.5" style="fill:#fff"/><path d="M24,2V30H2V2H24m0-1H2A1,1,0,0,0,1,2V30a1,1,0,0,0,1,1H24a1,1,0,0,0,1-1V2a1,1,0,0,0-1-1Z" style="fill:gray"/><polygon points="15 2 15 14 18 10 21 14 21 2 15 2" style="fill:#eec97f"/><circle cx="24" cy="24" r="7" style="fill:#4d84ba"/><rect x="2" y="2" width="5" height="28" style="fill:#eec97f"/><rect x="7" y="2" width="1" height="28" style="fill:#b1b1b1"/><path d="M25.12,25.33v.29H23.64v-.4a1.9,1.9,0,0,1,.92-1.74,1.9,1.9,0,0,0,.82-1.41q0-.94-.82-1t-1.08,1.45H22Q22.33,20,24.56,20T27,22a2.51,2.51,0,0,1-1.15,2.07A1.65,1.65,0,0,0,25.12,25.33Zm.1,2.57H23.61V26.2h1.61Z" style="fill:#fff"/></svg>