<?xml version="1.0" standalone="no"?><!DOCTYPE svg PUBLIC "-//W3C//DTD SVG 1.1//EN" "http://www.w3.org/Graphics/SVG/1.1/DTD/svg11.dtd"><svg t="1552271526947" class="icon" style="" viewBox="0 0 1024 1024" version="1.1" xmlns="http://www.w3.org/2000/svg" p-id="2851" xmlns:xlink="http://www.w3.org/1999/xlink" width="64" height="64"><defs><style type="text/css"></style></defs><path d="M810.666667 149.333333H213.333333c-23.466667 0-42.666667 19.2-42.666666 42.666667v128c0 23.466667 19.2 42.666667 42.666666 42.666667h597.333334c23.466667 0 42.666667-19.2 42.666666-42.666667V192c0-23.466667-19.2-42.666667-42.666666-42.666667zM810.666667 405.333333H213.333333c-23.466667 0-42.666667 19.2-42.666666 42.666667v128c0 23.466667 19.2 42.666667 42.666666 42.666667h597.333334c23.466667 0 42.666667-19.2 42.666666-42.666667v-128c0-23.466667-19.2-42.666667-42.666666-42.666667zM810.666667 661.333333H213.333333c-23.466667 0-42.666667 19.2-42.666666 42.666667v128c0 23.466667 19.2 42.666667 42.666666 42.666667h597.333334c23.466667 0 42.666667-19.2 42.666666-42.666667v-128c0-23.466667-19.2-42.666667-42.666666-42.666667z" fill="#1296db" p-id="2852"></path></svg>