<?xml version="1.0" standalone="no"?><!DOCTYPE svg PUBLIC "-//W3C//DTD SVG 1.1//EN" "http://www.w3.org/Graphics/SVG/1.1/DTD/svg11.dtd"><svg class="icon" width="200px" height="200.00px" viewBox="0 0 1024 1024" version="1.1" xmlns="http://www.w3.org/2000/svg"><path d="M534.254933 904.669867H86.1184a24.098133 24.098133 0 0 1-23.825067-23.825067v-215.517867h387.003734c17.066667 0 31.061333-13.994667 31.061333-31.061333 0-17.134933-13.994667-31.095467-31.061333-31.095467H62.293333v-239.377066h820.6336v232.106666c0 17.1008 13.994667 31.061333 31.061334 31.061334 17.1008 0 31.095467-13.960533 31.095466-31.061334V86.1184a85.777067 85.777067 0 0 0-86.016-86.016H86.1184C39.492267 0.136533 1.1264 38.5024 0.1024 85.640533v795.2384a85.777067 85.777067 0 0 0 86.016 86.016h448.136533c17.066667 0 31.061333-13.994667 31.061334-31.095466 0-17.1008-13.994667-31.061333-31.061334-31.061334zM86.1184 62.2592h772.949333c12.970667 0 23.8592 10.922667 23.8592 23.893333v215.483734H62.293333V86.6304c0.512-13.448533 10.888533-24.337067 23.825067-24.337067z"  /><path d="M190.7712 270.5408c50.244267 0 91.170133-40.925867 91.170133-91.136 0-50.2784-40.925867-91.204267-91.170133-91.204267a91.306667 91.306667 0 0 0-91.170133 91.170134c0 50.244267 40.925867 91.170133 91.170133 91.170133z m0-120.149333c16.042667 0 29.013333 12.936533 29.013333 29.013333 0 16.042667-12.970667 29.013333-29.013333 29.013333s-29.013333-12.970667-29.013333-29.013333c0-16.0768 12.970667-29.013333 29.013333-29.013333zM99.601067 486.058667c0 50.2784 40.925867 91.204267 91.170133 91.204266 50.244267 0 91.170133-40.96 91.170133-91.204266 0-50.244267-40.925867-91.136-91.170133-91.136a91.306667 91.306667 0 0 0-91.170133 91.136z m120.183466 0c0 16.042667-12.970667 29.013333-29.013333 29.013333s-29.013333-12.970667-29.013333-29.013333 12.970667-29.013333 29.013333-29.013334 29.013333 12.970667 29.013333 29.013334z m-120.183466 296.3456c0 50.244267 40.925867 91.170133 91.170133 91.170133 50.244267 0 91.170133-40.925867 91.170133-91.136 0-50.2784-40.925867-91.204267-91.170133-91.204267a91.306667 91.306667 0 0 0-91.170133 91.170134z m120.183466 0c0 16.042667-12.970667 29.013333-29.013333 29.013333s-29.013333-12.970667-29.013333-29.013333 12.970667-29.013333 29.013333-29.013334 29.013333 12.970667 29.013333 29.013334z m474.555734-242.449067c-105.1648 0-191.146667 86.016-191.146667 191.146667 0 105.198933 85.981867 191.1808 191.146667 191.1808 105.1648 0 191.146667-86.016 191.146666-191.146667 0-105.198933-85.981867-191.1808-191.146666-191.1808z m0 320.170667a129.365333 129.365333 0 0 1-129.024-129.024c0-70.9632 58.026667-128.989867 129.024-128.989867s129.024 58.026667 129.024 129.024c0 70.9632-58.026667 128.989867-129.024 128.989867z m308.224 108.270933l-117.589334-98.440533a31.744 31.744 0 0 0-44.032 3.618133 31.744 31.744 0 0 0 3.618134 44.032l117.623466 98.440533c5.700267 4.676267 12.970667 7.2704 19.694934 7.2704a31.232 31.232 0 0 0 23.825066-10.888533 31.1296 31.1296 0 0 0-3.106133-44.032z"  /></svg>