<svg id="图层_1" data-name="图层 1" xmlns="http://www.w3.org/2000/svg" viewBox="0 0 32 32"><title>画板 8</title><path d="M15.74,13.46Zm5.88,6.32h-.18a.12.12,0,0,0,.18,0ZM16,1A15,15,0,1,0,31,16,15,15,0,0,0,16,1Zm9.56,5.88a2.23,2.23,0,0,0-1.32.26c-.18.09-.26.26-.53.35s-.44,0-.61.09c-.7.26-.61,1.67-1.49,1.49-.44-.09-.7-.61-1-1s-.53-.53-.26-.88H20c.18-.35.61-.26.7-.44.18-.44-.53-.44-.79-.53.26-.26.35.09.61,0s-.09-.35-.26-.44-.88.26-.44-.18c-.61-.35-1.23-.79-1.84-1.14-.09.44.79.7,1.14.79-.09.18-.35.44-.53.35s-.09-.44-.44-.35c-.18.53.44.35.53.7s-.26.18-.35.18-.26-.26-.26-.09.35.18.44.35a2.15,2.15,0,0,1-1.05-.35,1.7,1.7,0,0,0-1.14-.26c.18-.09.35-.09.53-.18s.35-.35.35-.44c.09-.26,0-.26-.26-.44-.09-.09-.35-.44-.7-.44-1-.18-.35.88-1.05,1.05-.18,0-.53-.09-.61.09s-.09.35-.18.44-.44.18-.61.35a2.36,2.36,0,0,0-.7.61c-.44.79.88,1.05,1.4,1.23.26.09.88.26,1,.44s-.18.44.18.61a.31.31,0,0,0,.44-.09c.18-.18-.09-.18-.09-.44s.09-.26.26-.35c.35-.26.26-.35.18-.79-.09-.18-.35-.79-.09-1s.88.09,1.14.18.44.35.53.53a.75.75,0,0,0,.44.26c.26,0,.18-.26.26-.35.44-.26.53.09.7.44a2.11,2.11,0,0,0,.53.7c.09.09.7.44.61.7s-.61.35-.79.44c-.61.18-1.75-.35-1.84.61.26-.09.88-.61,1.05-.35.09.09-.09.26,0,.44.09.35.35.26.7.18H19.6c.35-.18.35-.18.53-.44.09-.09.18-.35.26-.44.26-.26.35-.09.53.09s.44.7.35.61a1.92,1.92,0,0,0-1.4.18,3.08,3.08,0,0,1-.7.44c-.09,0-.61.09-.53,0a5.38,5.38,0,0,0,.53-.35c-.35-.18-.61.18-.88.35s-.35.35-.53.61c-.09.09-.26.09-.35.26s-.09.26-.18.44-.26,0-.26.18.09.26,0,.44-.44.35-.61.53l.09-.09c-.18.18-.35.26-.44.44.09.26.26.88.18,1-.44.35-.7-.35-.88-.53-.44-.61-1.23-.18-1.84-.18a1.25,1.25,0,0,0-1,1.75.88.88,0,0,0,1,.44c.35-.09.44-.61.79-.61.61,0,0,.61,0,.88s.09.26.26.26.44-.09.53,0,.09.35.18.26c-.26.18-.18.7.09.88s.61,0,.88.09c.53.18.26,0,.79-.35.35-.18.35,0,.61,0s.26-.18.53-.18a2.93,2.93,0,0,0,.53.26h.26a2.89,2.89,0,0,1,1.14.61,2.57,2.57,0,0,0,.88.26c.26.09.7.44.7.79,0,.09-.26.35-.26.44s.53-.09.61-.09-.35.26-.35.18c0,.09.18.18.26.18.18-.53.44-.18.7-.09s.61.09.88.18a3.24,3.24,0,0,1,1,.44.81.81,0,0,1-.09.88c-.18.35-.53.44-.7.79s0,.61-.09.88c-.09.44-.18.26-.44.53s0,.18-.35.35-.61.09-.88.44v-.09a1.82,1.82,0,0,0-.18.53c-.09.26-.26.35-.44.53a10.05,10.05,0,0,1-.7.88c-.09-.09-.53.09-.53,0,0,.09,0,.09.09.18-.09.7-.44.79-1.14.79.09.35-.26.26-.44.44s-.09.44-.18.53-.35.44-.35.53.09.18.18.26A8.65,8.65,0,0,1,16.7,29c.09-.09.09-.26-.18-.26.09-.26.26-.35.35-.53v-.26c.09-.35.09-.18,0-.44-.18-.61.09-.79.26-1.4a14,14,0,0,0,.26-2,2,2,0,0,0,0-1.23c-.09-.35-.61-.61-.88-.79A4.72,4.72,0,0,1,15.74,21a3.81,3.81,0,0,1-.35-.61c-.18-.44,0-.18,0-.44a2.43,2.43,0,0,1,.09-.79,4.12,4.12,0,0,1,.53-.79.55.55,0,0,0-.26-.7c-.18-.09-.35.09-.44,0a1.11,1.11,0,0,1-.61-.35c-.26-.18-.35-.44-.61-.61s-.35-.09-.61-.09-.35-.35-.53-.44-.44.09-.7,0-.61-.35-.88-.44a1.34,1.34,0,0,1-1-1,3.89,3.89,0,0,0-.7-1c-.26-.35-.35-.61-.79-.79-.09,0,.09.35.09.44a7.59,7.59,0,0,1,.61.88c.26.44.18.44-.09.09a12.56,12.56,0,0,1-1-1.32c.18.18.18,0,0-.18s-.44-.26-.53-.44a2.59,2.59,0,0,1-.7-2.11c0-.26.09-.44.09-.7s-.18-.35-.35-.53a1.27,1.27,0,0,1-.18-.26,3.7,3.7,0,0,0-.44-.61c-.09-.09-.44-.35-.79-.61a13.55,13.55,0,0,1,5.35-4c0,.09.09.18.09.35a1.33,1.33,0,0,0,.7.35c0,.35-.53.44-.79.35s-.79-.18-1.05.18c.18.09.7.53.61.09h1.05c.18,0,.61.18.7.09s.09-.26.18-.35c-.09,0-.18-.09-.26,0,.26-.26.44-.09.79.09-.35.18-.09.7.18.26s-.09-.53-.35-.7c.35-.44.53-.44.88,0,.09-.26.26-.18.53-.18V4.07c-.09,0-.26-.09-.35-.09.26-.44.09-.53.44-.61s1.05,0,1.23-.26a12.4,12.4,0,0,0-1.75.35c-.26.09-.44.44-.7.26s.18-.61.35-.7h-.09a14.51,14.51,0,0,1,2.81-.26c.61,0,1.23.09,1.84.09-.18.09-.09.18-.18.26-.26.18-.79.35-1.14.53.44,0,1.49.44,1.67-.18a.79.79,0,0,1-.44-.09,2.75,2.75,0,0,1,.88-.44,13.59,13.59,0,0,1,6.75,3.95ZM28,12.14a.09.09,0,0,1,.09-.09c.09-.09,0-.18.09-.26s.18-.09.26-.18l.09-.09a7,7,0,0,1,.53,1.93l-.26.09a.46.46,0,0,1-.35-.18L28.11,13c-.09-.18,0-.26,0-.44s-.18-.35-.09-.44ZM28.19,19a5.7,5.7,0,0,1-.7-.79,1.82,1.82,0,0,1-.09-1c0-.26-.18-.7,0-1l.26-.26c.09-.18.09-.35.26-.53s.35-.26.53-.44a1,1,0,0,0,.26-.53,1.29,1.29,0,0,1,.44-.53,15.67,15.67,0,0,1,.18,2,14.62,14.62,0,0,1-.44,3.42,1.91,1.91,0,0,1-.7-.44Zm0,0" style="fill:#4d84ba"/></svg>