<svg id="图层_1" data-name="图层 1" xmlns="http://www.w3.org/2000/svg" viewBox="0 0 32 32"><title>画板 10</title><rect x="1" y="3" width="30" height="22" rx="1.05" ry="1.05" style="fill:#4d84ba"/><rect x="12" y="25" width="8" height="3" style="fill:#4d84ba"/><rect x="9" y="28" width="14" height="2" rx="1" ry="1" style="fill:#4d84ba"/><rect x="2" y="4" width="28" height="20" style="fill:#fff"/><circle cx="6" cy="11" r="1" style="fill:#eec97f"/><circle cx="6" cy="14" r="1" style="fill:#eec97f"/><rect x="4" y="17" width="11" height="5" rx="1.05" ry="1.05" style="fill:#eec97f"/><circle cx="22.5" cy="11.5" r="3.5" style="fill:#eec97f"/><rect x="17" y="17" width="11" height="1" rx="0.5" ry="0.5" style="fill:#eec97f"/><rect x="17" y="19" width="11" height="1" rx="0.5" ry="0.5" style="fill:#eec97f"/><rect x="17" y="21" width="11" height="1" rx="0.5" ry="0.5" style="fill:#eec97f"/><path d="M7.2,7.12a.42.42,0,0,0-.59,0L5.77,8l-.34-.34a.44.44,0,1,0-.62.62l.62.62A.44.44,0,0,0,5.74,9,.41.41,0,0,0,5.9,9,.43.43,0,0,0,6,8.87v0L7.2,7.71A.42.42,0,0,0,7.2,7.12Z" style="fill:#eec97f"/><rect x="8" y="8" width="7" height="1" rx="0.5" ry="0.5" style="fill:#eec97f"/><rect x="8" y="11" width="7" height="1" rx="0.5" ry="0.5" style="fill:#eec97f"/><rect x="8" y="14" width="7" height="1" rx="0.5" ry="0.5" style="fill:#eec97f"/></svg>