<svg id="图层_1" data-name="图层 1" xmlns="http://www.w3.org/2000/svg" viewBox="0 0 32 32"><title>画板 3</title><path d="M1,16.77a5.54,5.54,0,0,0,3.27,1,3.18,3.18,0,0,0,1.56-.3.9.9,0,0,0,.52-.78A1,1,0,0,0,6,15.91a8.31,8.31,0,0,0-2.2-1Q1,13.91,1,12a2.46,2.46,0,0,1,1.27-2.2A6.33,6.33,0,0,1,5.62,9a9.59,9.59,0,0,1,2.94.39v2a5.52,5.52,0,0,0-2.81-.7,3.28,3.28,0,0,0-1.5.29.88.88,0,0,0-.56.78,1,1,0,0,0,.39.72,7.61,7.61,0,0,0,1.9.89,6.37,6.37,0,0,1,2.45,1.37,2.44,2.44,0,0,1,.67,1.72,2.47,2.47,0,0,1-1.22,2.23,6.51,6.51,0,0,1-3.46.77A8.56,8.56,0,0,1,1,18.94Z" style="fill:#4d84ba"/><path d="M21.44,22.93a7.66,7.66,0,0,1-1.08.07,4.36,4.36,0,0,1-2.2-.6A12.8,12.8,0,0,1,15.47,20a5,5,0,0,1-3.7-1.59,5.35,5.35,0,0,1-1.39-3.76,5.58,5.58,0,0,1,1.53-4.09A5.48,5.48,0,0,1,16,9a5.16,5.16,0,0,1,3.83,1.49,5.33,5.33,0,0,1,1.48,3.93,5.89,5.89,0,0,1-.9,3.3,4.71,4.71,0,0,1-2.57,1.92,5.43,5.43,0,0,0,1.39,1.08,4.34,4.34,0,0,0,2.27.31C21.69,21,21.67,22.9,21.44,22.93Zm-8.56-8.41a3.87,3.87,0,0,0,.8,2.57,2.66,2.66,0,0,0,2.15,1A2.71,2.71,0,0,0,18,17.12a3.8,3.8,0,0,0,.8-2.56A4.09,4.09,0,0,0,18,11.91,2.59,2.59,0,0,0,15.9,11a2.72,2.72,0,0,0-2.2,1A3.88,3.88,0,0,0,12.88,14.52Z" style="fill:#4d84ba"/><path d="M31,19.5H23.5V9h1.88v8.75L31,17.67Z" style="fill:#4d84ba"/></svg>