<?xml version="1.0" standalone="no"?><!DOCTYPE svg PUBLIC "-//W3C//DTD SVG 1.1//EN" "http://www.w3.org/Graphics/SVG/1.1/DTD/svg11.dtd"><svg t="1574073191255" class="icon" viewBox="0 0 1024 1024" version="1.1" xmlns="http://www.w3.org/2000/svg" p-id="1923" xmlns:xlink="http://www.w3.org/1999/xlink" width="200" height="200"><defs><style type="text/css"></style></defs><path d="M742.561684 528.707368h-202.859789v213.315369h185.182316c4.850526-6.629053 10.886737-12.395789 17.677473-17.030737V528.761263z m71.841684 0v195.799579c7.114105 4.688842 13.365895 10.617263 18.432 17.51579h156.240843v75.075368h-153.6c-5.281684 8.461474-12.395789 15.629474-21.072843 20.911158V1024h-71.841684v-187.715368a71.410526 71.410526 0 0 1-19.186526-19.186527h-183.673263V1024H460.422737v-206.901895H262.736842c-4.742737 7.006316-10.778947 13.204211-17.677474 18.108632V1024H171.600842v-187.338105a71.356632 71.356632 0 0 1-19.833263-19.56379H0v-75.075368h153.276632c5.012211-6.844632 11.264-12.773053 18.32421-17.408V528.761263H0V457.027368h171.600842V265.108211a71.410526 71.410526 0 0 1-17.408-16.168422H0V177.583158h148.641684c5.551158-9.862737 13.473684-18.324211 22.959158-24.576V0h73.458526v154.462316c8.515368 6.090105 15.737263 14.012632 20.803369 23.174737h194.56V0h79.225263v177.637053h180.547368c5.389474-9.701053 13.204211-18.000842 22.366316-24.198737V0h71.841684v152.953263c9.485474 6.251789 17.515789 14.767158 23.066948 24.68379h156.887579v71.248842h-161.145263c-4.958316 7.006316-11.317895 12.934737-18.863158 17.515789V457.027368h180.008421v71.68h-180.008421z m-71.841684-71.68V264.677053a71.410526 71.410526 0 0 1-16.815158-15.791158h-186.044631V457.027368h202.859789z m-282.138947 284.995369V528.707368H245.059368v197.254737c6.197895 4.419368 11.695158 9.862737 16.168421 16.006737h199.194948zM245.059368 457.027368h215.363369V248.885895H260.311579c-4.311579 5.658947-9.539368 10.671158-15.306105 14.767158V457.027368z" fill="#8D979D" p-id="1924"></path></svg>