<?xml version="1.0" standalone="no"?><!DOCTYPE svg PUBLIC "-//W3C//DTD SVG 1.1//EN" "http://www.w3.org/Graphics/SVG/1.1/DTD/svg11.dtd"><svg t="1523601569482" class="icon" style="" viewBox="0 0 1093 1024" version="1.1" xmlns="http://www.w3.org/2000/svg" p-id="29766" xmlns:xlink="http://www.w3.org/1999/xlink" width="136.625" height="128"><defs><style type="text/css"></style></defs><path d="M172.872 363.733h740.079l-49.439 49.438V169.19l49.439 49.439H172.872l49.439-49.439v243.982l-49.439-49.438z m0 49.438V169.19h740.079v243.982H172.872zM894.774 517.507h24.72v-49.439H474.547v49.439h24.72zM894.774 625.371h24.72v-49.438H474.547v49.438h24.72zM894.774 733.236h24.72v-49.439H474.547v49.439h24.72zM894.774 841.1h24.72v-49.438H474.547v49.439h24.72zM172.872 802.9h246.693l-49.438 49.44V461.967l49.438 49.438H172.872l49.439-49.438v390.371l-49.439-49.438z m0 49.439V461.967h246.693v390.372H172.872z" p-id="29767" fill="#3f81c1"></path></svg>