<svg id="图层_1" data-name="图层 1" xmlns="http://www.w3.org/2000/svg" viewBox="0 0 32 32"><title>画板 35</title><rect x="15" y="1" width="2" height="4" rx="0.94" ry="0.94" style="fill:#525b67"/><rect x="15" y="23" width="2" height="8" rx="0.94" ry="0.94" style="fill:#525b67"/><rect x="27" y="15" width="4" height="2" rx="0.94" ry="0.94" style="fill:#525b67"/><rect x="1" y="15" width="4" height="2" rx="0.94" ry="0.94" style="fill:#525b67"/><path d="M16,27.5A11.5,11.5,0,1,1,27.5,16,11.51,11.51,0,0,1,16,27.5Z" style="fill:#fff"/><path d="M16,5A11,11,0,1,1,5,16,11,11,0,0,1,16,5m0-1A12,12,0,1,0,28,16,12,12,0,0,0,16,4Z" style="fill:gray"/><circle cx="16" cy="16" r="6" style="fill:#4d84ba"/></svg>