<?xml version="1.0" standalone="no"?><!DOCTYPE svg PUBLIC "-//W3C//DTD SVG 1.1//EN" "http://www.w3.org/Graphics/SVG/1.1/DTD/svg11.dtd"><svg t="1546941107461" class="icon" style="" viewBox="0 0 1024 1024" version="1.1" xmlns="http://www.w3.org/2000/svg" p-id="1975" xmlns:xlink="http://www.w3.org/1999/xlink" width="64" height="64"><defs><style type="text/css"></style></defs><path d="M846.181836 368.079607c-18.637785-44.065977-45.317164-83.638121-79.295823-117.616779-33.979682-33.979682-73.550802-60.659062-117.616779-79.296847-45.628426-19.299214-94.090966-29.08551-144.039164-29.08551-72.441935 0-142.602653 20.933335-202.897211 60.53722-6.434095 4.225575-8.223847 12.867167-3.998272 19.302286s12.869215 8.224871 19.301262 3.997248c55.736222-36.610044 120.6055-55.960452 187.593197-55.960452 188.668277 0 342.161998 153.492697 342.161998 342.161998S693.897323 854.281792 505.23007 854.281792c-188.669301 0-342.161998-153.493721-342.161998-342.163021 0-67.235478 19.48249-132.304414 56.342362-188.173741 4.239909-6.42488 2.467564-15.070568-3.958341-19.309453-6.426928-4.238885-15.070568-2.465516-19.309453 3.95834-39.87419 60.437903-60.95087 130.815685-60.950869 203.524854 0 49.948198 9.786296 98.409714 29.08551 144.040187 18.637785 44.064953 45.317164 83.637097 79.295823 117.615755 33.979682 33.979682 73.550802 60.659062 117.616779 79.296847 45.628426 19.300238 94.090966 29.084487 144.039163 29.084487s98.409714-9.785272 144.039164-29.084487c44.065977-18.637785 83.638121-45.318188 117.616779-79.296847s60.658038-73.550802 79.295823-117.615755c19.300238-45.62945 29.084487-94.090966 29.084486-144.040187s-9.784248-98.410738-29.083462-144.039164z" fill="#D24147" p-id="1976"></path><path d="M400.598205 625.121922c2.721487 2.720463 6.288704 4.081207 9.854896 4.081207s7.134433-1.360744 9.854897-4.081207l88.741164-88.741165 88.741165 88.741165c2.721487 2.720463 6.289728 4.081207 9.855921 4.081207s7.134433-1.360744 9.85592-4.081207c5.441951-5.442974 5.441951-14.268866 0-19.71184l-88.741165-88.741165 88.741165-88.741165c5.441951-5.442974 5.441951-14.267842 0-19.710816-5.442974-5.442974-14.268866-5.442974-19.711841 0l-88.741165 88.741165-88.741164-88.741165c-5.441951-5.442974-14.268866-5.442974-19.710817 0-5.442974 5.442974-5.442974 14.267842 0 19.710816l88.741165 88.741165-88.741165 88.741165c-5.441951 5.443998-5.441951 14.268866 0.001024 19.71184z" fill="#D24147" p-id="1977"></path></svg>