<?xml version="1.0" standalone="no"?><!DOCTYPE svg PUBLIC "-//W3C//DTD SVG 1.1//EN" "http://www.w3.org/Graphics/SVG/1.1/DTD/svg11.dtd"><svg t="1568889397099" class="icon" viewBox="0 0 1024 1024" version="1.1" xmlns="http://www.w3.org/2000/svg" p-id="2951" xmlns:xlink="http://www.w3.org/1999/xlink" width="32" height="32"><defs><style type="text/css"></style></defs><path d="M921.6 230.4H512L409.6 128H102.4C44.8 128 0 172.8 0 230.4v614.4c0 57.6 44.8 102.4 102.4 102.4h819.2c57.6 0 102.4-44.8 102.4-102.4v-512c0-57.6-44.8-102.4-102.4-102.4z m-51.2 409.6h-153.6v153.6H614.4V640H460.8V537.6h153.6V384h102.4v153.6h153.6V640z" fill="#4d84ba" p-id="2952"></path><path d="M921.6 230.4H512L409.6 128H102.4C44.8 128 0 172.8 0 230.4v614.4c0 57.6 44.8 102.4 102.4 102.4h819.2c57.6 0 102.4-44.8 102.4-102.4v-512c0-57.6-44.8-102.4-102.4-102.4z m-51.2 409.6h-153.6v153.6H614.4V640H460.8V537.6h153.6V384h102.4v153.6h153.6V640z" fill="#4d84ba" p-id="2953"></path></svg>