<?xml version="1.0" standalone="no"?><!DOCTYPE svg PUBLIC "-//W3C//DTD SVG 1.1//EN" "http://www.w3.org/Graphics/SVG/1.1/DTD/svg11.dtd"><svg t="1582256528036" class="icon" viewBox="0 0 1024 1024" version="1.1" xmlns="http://www.w3.org/2000/svg" p-id="3681" xmlns:xlink="http://www.w3.org/1999/xlink" width="200" height="200"><defs><style type="text/css"></style></defs><path d="M642.048 276.48a164.352 164.352 0 0 0-118.272 47.616A167.424 167.424 0 0 0 760.32 563.2a159.744 159.744 0 0 0 0-231.936 153.6 153.6 0 0 0-118.272-54.784z" fill="#27A3FF" p-id="3682"></path><path d="M921.6 0H102.4a102.4 102.4 0 0 0-102.4 102.4v819.2a102.4 102.4 0 0 0 102.4 102.4h819.2a102.4 102.4 0 0 0 102.4-102.4V102.4a102.4 102.4 0 0 0-102.4-102.4z m-128 593.408a213.504 213.504 0 0 1-153.6 61.952 208.384 208.384 0 0 1-134.144-46.08L419.84 697.856l-75.776 75.776a88.576 88.576 0 0 1-51.2 23.552 102.4 102.4 0 0 1-51.2-18.944l-68.096-66.048a23.552 23.552 0 0 1 0-33.28 22.528 22.528 0 0 1 33.28 0l66.048 61.44a25.088 25.088 0 0 0 18.944 9.216c4.608 0 14.336-4.608 18.944-4.608l60.928-61.952-51.2-51.2a23.04 23.04 0 0 1 32.768-32.768l51.2 51.2 70.656-72.704a214.016 214.016 0 0 1 318.464-286.72 211.456 211.456 0 0 1 0 302.592z" fill="#27A3FF" p-id="3683"></path></svg>