<svg id="图层_1" data-name="图层 1" xmlns="http://www.w3.org/2000/svg" viewBox="0 0 16 16"><title>画板 33</title><path d="M13,10V2c0-.92,0-2-2-2H2C0,0,0,1.08,0,2V12a2.19,2.19,0,0,0,2,2h9c.93,0,2-.12,2-1H1.5a.5.5,0,0,1,0-1H11C11.93,12,13,12,13,10Z" style="fill:#4d84ba"/><path d="M6.36,2H4V9H6.35A3.63,3.63,0,0,0,9,8a3.45,3.45,0,0,0,1-2.61Q10,2,6.36,2ZM8.89,6.4a2,2,0,0,1-.53,1A3,3,0,0,1,6.29,8H5V3H6.29a3,3,0,0,1,2.07.59A2.5,2.5,0,0,1,9,5.5,4.09,4.09,0,0,1,8.89,6.4Z" style="fill:#fff"/><circle cx="11.5" cy="11.5" r="4.5" style="fill:#de673e"/><polygon points="14.33 9.38 13.62 8.67 11.5 10.79 9.38 8.67 8.67 9.38 10.79 11.5 8.67 13.62 9.38 14.33 11.5 12.21 13.62 14.33 14.33 13.62 12.21 11.5 14.33 9.38" style="fill:#fff"/></svg>