<svg id="图层_1" data-name="图层 1" xmlns="http://www.w3.org/2000/svg" viewBox="0 0 32 32"><title>画板 11</title><polygon points="3.5 30.5 3.5 1.5 19.79 1.5 26.5 8.21 26.5 30.5 3.5 30.5" style="fill:#fff"/><path d="M19.59,2,26,8.41V30H4V2H19.59M20,1H3V31H27V8L20,1Z" style="fill:gray"/><polygon points="3.5 30.5 3.5 1.5 19.5 1.5 19.5 8.5 26.5 8.5 26.5 30.5 3.5 30.5" style="fill:#fff"/><path d="M19,2V9h7V30H4V2H19m1-1H3V31H27V8H20V1Z" style="fill:gray"/><rect x="6" y="11" width="18" height="1" style="fill:#b1b1b1"/><rect x="6" y="14" width="18" height="1" style="fill:#b1b1b1"/><rect x="6" y="17" width="18" height="1" style="fill:#b1b1b1"/><rect x="6" y="8" width="11" height="1" style="fill:#b1b1b1"/><polygon points="11 24.5 15.5 20 20 24.5 16.4 24.5 16.4 29 14.6 29 14.6 24.5 11 24.5" style="fill:#4d84ba"/></svg>