<svg id="图层_1" data-name="图层 1" xmlns="http://www.w3.org/2000/svg" viewBox="0 0 16 16"><title>画板 20</title><polygon points="3.71 13 13.21 3.5 11.79 3.5 2.29 13 3.71 13" style="fill:gray"/><circle cx="13.5" cy="2.5" r="2" style="fill:#fff"/><path d="M13.5,1A1.5,1.5,0,1,1,12,2.5,1.5,1.5,0,0,1,13.5,1m0-1A2.5,2.5,0,1,0,16,2.5,2.5,2.5,0,0,0,13.5,0Z" style="fill:#4d84ba"/><circle cx="2.5" cy="13.5" r="2" style="fill:#fff"/><path d="M2.5,12A1.5,1.5,0,1,1,1,13.5,1.5,1.5,0,0,1,2.5,12m0-1A2.5,2.5,0,1,0,5,13.5,2.5,2.5,0,0,0,2.5,11Z" style="fill:#4d84ba"/></svg>