<svg id="图层_1" data-name="图层 1" xmlns="http://www.w3.org/2000/svg" viewBox="0 0 16 16"><title>画板 44</title><polygon points="0.5 15.5 0.5 0.5 7.79 0.5 11.5 4.21 11.5 15.5 0.5 15.5" style="fill:#fff"/><path d="M7.59,1,11,4.41V15H1V1H7.59M8,0H0V16H12V4L8,0Z" style="fill:gray"/><polygon points="0.5 15.5 0.5 0.5 7.5 0.5 7.5 4.5 11.5 4.5 11.5 15.5 0.5 15.5" style="fill:#fff"/><path d="M7,1V5h4V15H1V1H7M8,0H0V16H12V4H8V0Z" style="fill:gray"/><path d="M16,12.74A.7.7,0,0,1,16,13a1,1,0,0,1-.1.33,1.71,1.71,0,0,1-.16.3.6.6,0,0,1-.21.19.52.52,0,0,1-.2.06.5.5,0,0,1-.19,0,1.14,1.14,0,0,0-.24-.05h-.29a1.29,1.29,0,0,0-.3.06A.58.58,0,0,0,14,14a1,1,0,0,0-.28.55,1.06,1.06,0,0,0,.09.59.39.39,0,0,1,0,.39.87.87,0,0,1-.19.16l-.28.15a1.73,1.73,0,0,1-.6.14.27.27,0,0,1-.16-.06.29.29,0,0,1-.1-.15h0a1.14,1.14,0,0,0-.36-.51.86.86,0,0,0-.59-.21,1,1,0,0,0-.59.21,1.29,1.29,0,0,0-.38.5.28.28,0,0,1-.15.16.41.41,0,0,1-.21.05,1,1,0,0,1-.3-.05l-.34-.13a1.7,1.7,0,0,1-.3-.16.73.73,0,0,1-.2-.19A.25.25,0,0,1,9,15.3.61.61,0,0,1,9.06,15a1,1,0,0,0,.09-.5A.86.86,0,0,0,8.9,14a.58.58,0,0,0-.33-.19,1.89,1.89,0,0,0-.36,0,1.61,1.61,0,0,0-.41.08.43.43,0,0,1-.28,0,.43.43,0,0,1-.2-.18,1.84,1.84,0,0,1-.16-.31A1.64,1.64,0,0,1,7,13a.81.81,0,0,1,0-.29.31.31,0,0,1,.19-.26,1.33,1.33,0,0,0,.52-.38.89.89,0,0,0,.23-.59.85.85,0,0,0-.23-.59,1.43,1.43,0,0,0-.52-.36c-.06,0-.1-.06-.14-.14A.51.51,0,0,1,7,10.16a1.12,1.12,0,0,1,0-.28,2.83,2.83,0,0,1,.1-.3.9.9,0,0,1,.15-.26.59.59,0,0,1,.18-.18.17.17,0,0,1,.15,0l.16,0a1.22,1.22,0,0,0,.6.08,1,1,0,0,0,.55-.28.6.6,0,0,0,.16-.29,1.08,1.08,0,0,0,.06-.34,1.2,1.2,0,0,0,0-.3,1.75,1.75,0,0,0,0-.19l0-.14a.25.25,0,0,1,0-.14.63.63,0,0,1,.21-.24,1.33,1.33,0,0,1,.33-.16,1.74,1.74,0,0,1,.34-.1l.26,0a.23.23,0,0,1,.2.09.57.57,0,0,1,.1.16,1.11,1.11,0,0,0,.35.45.91.91,0,0,0,.57.2,1,1,0,0,0,.6-.19,1,1,0,0,0,.36-.48.63.63,0,0,1,.13-.16A.27.27,0,0,1,12.73,7,1.22,1.22,0,0,1,13,7l.31.1a1.36,1.36,0,0,1,.29.18,1.76,1.76,0,0,1,.21.23.19.19,0,0,1,0,.16.51.51,0,0,1,0,.13,1,1,0,0,0-.08.59A1,1,0,0,0,14,9a.84.84,0,0,0,.57.25,1.31,1.31,0,0,0,.63-.11.24.24,0,0,1,.19,0,.33.33,0,0,1,.19.09,1.06,1.06,0,0,1,.25.41,2.26,2.26,0,0,1,.15.55.32.32,0,0,1-.05.25.45.45,0,0,1-.15.13,1.14,1.14,0,0,0-.52.38.91.91,0,0,0-.21.6,1,1,0,0,0,.18.58,1.07,1.07,0,0,0,.46.35l.11.08a.69.69,0,0,1,.16.26ZM11.5,13a1.41,1.41,0,0,0,.58-.12,1.53,1.53,0,0,0,.8-.8,1.51,1.51,0,0,0,0-1.16,1.53,1.53,0,0,0-.8-.8,1.51,1.51,0,0,0-1.16,0,1.53,1.53,0,0,0-.8.8,1.51,1.51,0,0,0,0,1.16,1.53,1.53,0,0,0,.8.8,1.41,1.41,0,0,0,.58.12Zm0,.6" style="fill:#4d84ba"/><circle cx="11.5" cy="11.5" r="1.5" style="fill:#fff"/></svg>