<svg id="图层_1" data-name="图层 1" xmlns="http://www.w3.org/2000/svg" viewBox="0 0 32 32"><title>画板 55</title><path d="M16,16l10,0V12c-3.68,0-6.88-1-7.29-2.87,0-.14,0-.28,0-.42V8.17c0-.36,0-.71,0-1,0-.5,0-1,.09-1.39A4.22,4.22,0,0,0,19,4.65h0v0C19,2.61,17.64,1,16,1s-3,1.61-3,3.59v0h0a4.23,4.23,0,0,0,.16,1.1c0,.42.07.88.09,1.39,0,.33,0,.68,0,1v.54c0,.14,0,.28,0,.42C12.88,11,9.68,12,6,12H6v4Zm0-14a1.2,1.2,0,0,1,1.25,1.15,1.26,1.26,0,0,1-2.51,0A1.2,1.2,0,0,1,16,1.94ZM7,15V13H25v2Zm-.23.05" style="fill:#4d84ba"/><path d="M26,31,25,17H7L6,31H9V27h1v4H20V29h1v2h2V28h1v3ZM16,1.94a1.2,1.2,0,0,1,1.25,1.15,1.26,1.26,0,0,1-2.51,0A1.2,1.2,0,0,1,16,1.94Z" style="fill:#4d84ba"/></svg>