<?xml version="1.0" encoding="iso-8859-1"?>
<!-- Generator: Adobe Illustrator 19.0.0, SVG Export Plug-In . SVG Version: 6.00 Build 0)  -->
<svg xmlns="http://www.w3.org/2000/svg" xmlns:xlink="http://www.w3.org/1999/xlink" version="1.1" id="Layer_1" x="0px" y="0px" viewBox="0 0 512 512" style="enable-background:new 0 0 512 512;" xml:space="preserve">
<g>
	<g>
		<path fill="#1296db" d="M413.78,425.024H15.673V86.977h44.93c4.329,0,7.837-3.509,7.837-7.837c0-4.329-3.508-7.837-7.837-7.837H13.061    C5.859,71.303,0,77.162,0,84.365v343.271c0,7.202,5.859,13.061,13.061,13.061H413.78c4.329,0.001,7.837-3.508,7.837-7.836    C421.616,428.532,418.109,425.024,413.78,425.024z"/>
	</g>
</g>
<g>
	<g>
		<path fill="#1296db" d="M498.939,71.303H92.996c-4.329,0-7.837,3.508-7.837,7.837c0,4.328,3.508,7.837,7.837,7.837h403.331v338.046h-53.29    c-4.329,0-7.837,3.508-7.837,7.837s3.508,7.837,7.837,7.837h55.902c7.202,0,13.061-5.859,13.061-13.061V84.365    C512,77.163,506.141,71.303,498.939,71.303z"/>
	</g>
</g>
<g>
	<g>
		<path fill="#1296db" d="M110.759,350.877h-7.714c-2.257-5.973-7.002-10.718-12.975-12.974v-7.715c0-4.329-3.508-7.837-7.837-7.837    c-4.329,0-7.837,3.508-7.837,7.837v7.714c-5.973,2.257-10.718,7.002-12.974,12.974h-7.714c-4.329,0-7.837,3.508-7.837,7.837    c0,4.329,3.508,7.837,7.837,7.837h7.714c2.257,5.973,7.002,10.718,12.974,12.974v7.714c0,4.328,3.509,7.837,7.837,7.837    c4.329,0,7.837-3.508,7.837-7.837v-7.714c5.973-2.257,10.718-7.002,12.975-12.974h7.714c4.329,0,7.837-3.508,7.837-7.837    C118.596,354.385,115.088,350.877,110.759,350.877z M82.233,365.303c-3.633,0-6.589-2.956-6.589-6.589    c0-3.633,2.957-6.589,6.589-6.589c3.633,0,6.589,2.956,6.589,6.589C88.823,362.347,85.867,365.303,82.233,365.303z"/>
	</g>
</g>
<g>
	<g>
		<path fill="#1296db" d="M419.004,272.196h-1.045c-4.329,0-7.837,3.508-7.837,7.837s3.508,7.837,7.837,7.837h1.045    c4.329,0,7.837-3.508,7.837-7.837S423.333,272.196,419.004,272.196z"/>
	</g>
</g>
<g>
	<g>
		<path fill="#1296db" d="M383.269,307.932c-1.452-1.463-3.479-2.299-5.538-2.299c-2.069,0-4.086,0.836-5.538,2.299    c-1.463,1.452-2.299,3.479-2.299,5.538c0,2.058,0.836,4.086,2.299,5.538c1.452,1.463,3.468,2.299,5.538,2.299    c2.068,0,4.086-0.836,5.538-2.299c1.463-1.452,2.299-3.479,2.299-5.538C385.567,311.411,384.731,309.384,383.269,307.932z"/>
	</g>
</g>
<g>
	<g>
		<path fill="#1296db" d="M149.734,144.928c-1.452-1.463-3.479-2.299-5.538-2.299c-2.069,0-4.086,0.836-5.538,2.299    c-1.463,1.452-2.299,3.468-2.299,5.538c0,2.069,0.836,4.086,2.299,5.538c1.452,1.463,3.469,2.299,5.538,2.299    s4.086-0.836,5.538-2.299c1.463-1.452,2.299-3.469,2.299-5.538C152.033,148.407,151.197,146.38,149.734,144.928z"/>
	</g>
</g>
<g>
	<g>
		<path fill="#1296db" d="M169.587,132.389c-1.452-1.463-3.48-2.299-5.538-2.299c-2.069,0-4.086,0.836-5.538,2.299    c-1.463,1.452-2.299,3.468-2.299,5.538c0,2.058,0.836,4.086,2.299,5.538c1.452,1.463,3.479,2.299,5.538,2.299    c2.058,0,4.086-0.836,5.538-2.299c1.463-1.452,2.299-3.479,2.299-5.538C171.886,135.869,171.05,133.842,169.587,132.389z"/>
	</g>
</g>
<g>
	<g>
		<path fill="#1296db" d="M314.828,342.414c-1.452-1.463-3.469-2.299-5.538-2.299s-4.086,0.836-5.538,2.299c-1.463,1.452-2.299,3.468-2.299,5.538    c0,2.058,0.836,4.086,2.299,5.538c1.452,1.463,3.468,2.299,5.538,2.299c2.068,0,4.086-0.836,5.538-2.299    c1.463-1.452,2.299-3.479,2.299-5.538C317.127,345.893,316.291,343.866,314.828,342.414z"/>
	</g>
</g>
<g>
	<g>
		<path fill="#1296db" d="M130.926,134.479c-1.452-1.463-3.479-2.299-5.538-2.299s-4.086,0.836-5.538,2.299c-1.463,1.452-2.299,3.479-2.299,5.538    c0,2.058,0.836,4.086,2.299,5.538c1.452,1.463,3.479,2.299,5.538,2.299c2.068,0,4.086-0.836,5.538-2.299    c1.463-1.452,2.299-3.469,2.299-5.538C133.224,137.948,132.389,135.931,130.926,134.479z"/>
	</g>
</g>
<g>
	<g>
		<path fill="#1296db" d="M407.824,298.528c-1.452-1.463-3.479-2.299-5.538-2.299c-2.069,0-4.086,0.836-5.538,2.299    c-1.463,1.452-2.299,3.468-2.299,5.538c0,2.058,0.836,4.086,2.299,5.538c1.452,1.463,3.479,2.299,5.538,2.299    s4.086-0.836,5.538-2.299c1.463-1.452,2.299-3.479,2.299-5.538S409.287,299.98,407.824,298.528z"/>
	</g>
</g>
<g>
	<g>
		<path fill="#1296db" d="M437.812,230.691c-4.329,0-7.837,3.508-7.837,7.837c0,6.277-3.507,11.869-9.154,14.595    c-3.898,1.882-5.532,6.566-3.65,10.465c1.351,2.799,4.149,4.431,7.063,4.431c1.142,0,2.303-0.251,3.401-0.782    c10.943-5.283,18.013-16.551,18.013-28.71C445.649,234.199,442.141,230.691,437.812,230.691z"/>
	</g>
</g>
<g>
	<g>
		<path fill="#1296db" d="M480.53,140.539c4.329,0,7.837-3.508,7.837-7.837v-26.734c0-6.05-4.921-10.971-10.971-10.971H34.605    c-6.05,0-10.971,4.922-10.971,10.971v300.063c0,6.05,4.921,10.971,10.971,10.971h79.288c4.329,0,7.837-3.508,7.837-7.837    s-3.508-7.837-7.837-7.837H39.307V110.671h134.625v41.75c-4.595,3.395-7.101,7.028-7.728,11.04    c-0.743,4.749,1.344,9.277,5.584,12.112c0.706,0.472,1.427,0.863,2.145,1.205v27.608c-1.573-0.953-2.785-1.848-3.882-2.659    c-2.303-1.704-4.913-3.635-8.609-3.635c-0.1,0-0.198,0.001-0.296,0.003c2.253-2.881,3.583-6.454,3.648-10.269    c0.125-7.374-4.481-13.6-12.023-16.249c-4.399-1.545-9.613-1.856-15.133-2.186c-9.001-0.538-18.309-1.094-23.14-6.632    c-9.452-10.839-19.032-16.336-28.471-16.336c-10.366,0-19.377,6.403-26.781,19.032c-8.39,14.313-10.829,22.814-8.423,29.342    c2.22,6.024,7.701,7.926,10.645,8.947c0.513,0.179,1.027,0.351,1.515,0.555c2.698,1.127,5.208,1.258,6.862,1.258    c0.827,0,1.665-0.041,2.511-0.085c0.589-0.031,1.186-0.066,1.788-0.066c1.41,0,2.626,0,4.996,4.417    c2.32,4.321,2.092,12,1.872,19.427c-0.32,10.806-0.65,21.982,6.497,29.151c1.238,1.242,1.883,3.369,2.834,6.732    c2.638,9.345,6.627,23.465,36.313,27.184c3.901,0.489,5.307,1.238,5.554,1.387c0.464,0.449,0.975,0.834,1.513,1.163    c-1.107,2.552-1.952,5.686-1.946,9.343c0.014,8.094,4.081,15.934,12.091,23.3c5.869,5.399,5.422,9.706,3.849,18.932    c-1.603,9.409-3.599,21.117,5.495,34.5c5.778,8.506,7.726,11.372,12.632,11.375c0.002,0,0.004,0,0.006,0    c3.281,0,6.926-2.044,8.081-6.58v15.59h-28.691c-4.329,0-7.837,3.508-7.837,7.837s3.508,7.837,7.837,7.837h332.154    c6.05,0,10.971-4.921,10.971-10.971V165.094c0-4.329-3.508-7.837-7.837-7.837c-4.329,0-7.837,3.508-7.837,7.837V401.33H338.068    V297.472c1.31,0.857,2.898,1.389,4.843,1.389c5.359,0,8.159-4.092,11.121-8.425c1.727-2.526,3.877-5.669,6.603-8.404    c1.097-1.1,1.834-1.666,2.263-1.948c1.388,0.903,3.986,3.523,6.125,5.68c2.226,2.244,4.749,4.789,7.85,7.601    c5.002,4.536,8.729,6.47,12.461,6.47c2.913,0,5.629-1.277,7.45-3.504c3.954-4.833,2.529-11.893,0.878-20.067    c-0.051-0.253-0.102-0.503-0.153-0.75c5.177-1.542,16.729-6.095,11.734-24.653c-0.228-0.847-0.395-1.559-0.518-2.155    c4.608-0.615,12.605-2.659,15.136-14.274c2.497-11.454-2.126-18.508-5.187-23.177c-2.681-4.093-2.897-4.814-2.109-7.016    c1.115-3.11,2.666-5.193,3.845-6.365c0.193,0.675,0.392,1.577,0.553,2.761c1.9,13.992,10.583,20.255,18.346,20.256h0.002    c4.45,0,8.629-2.054,11.465-5.636c3.794-4.794,4.867-11.744,3.02-19.571c-2.188-9.268-1.932-11.854-1.747-12.508    c0.402-0.406,1.712-1.244,2.682-1.866c0.649-0.416,1.339-0.858,2.065-1.343c4.114-2.752,5.137-6.077,5.272-8.381    c0.305-5.221-3.431-8.409-5.905-10.518c-0.793-0.677-2.061-1.759-2.526-2.413c0.032-0.083,0.077-0.189,0.143-0.319    c3.115-6.251,1.393-10.719,0.09-12.824c-1.709-2.763-5.4-6.054-13.269-6.054c-7.301,0-16.934,2.888-23.97,7.187    c-5.336,3.259-10.6,3.942-14.079,3.943c-3.985,0-7.763-0.897-10.36-2.462c-2.421-1.458-4.691-2.166-6.937-2.166    c-5.988,0-8.733,4.591-10.052,6.799c-1.251,2.092-1.547,2.589-3.6,2.858c-3.411,0.446-7.337,0.902-10.605,0.902    c-1.02,0-1.821-0.045-2.444-0.109c0.681-4.525-0.743-7.591-2.165-9.434c-1.606-2.081-4.709-4.563-10.376-4.563    c-3.348,0-6.563,0.879-7.946,1.312v-33.055h134.625v22.034C472.693,137.032,476.201,140.539,480.53,140.539z M193.576,171.11    c-1.994-4.3-5.758-6.066-8.842-7.115c3.376-2.096,10.073-5.277,23.129-9.02c1.974-0.566,3.753-0.853,5.287-0.853    c2.053,0,6.325,0,7.569,8.568c1.701,11.705-4.53,24.629-7.61,25.677c-13.221,0.059-19.131,10.565-22.339,16.525    c-1.645-4.925-0.957-13.536,2.097-20.692C193.672,182.321,196.118,176.592,193.576,171.11z M150.538,205.004    c-0.735,0.931-1.509,1.962-2.342,3.1C148.723,206.769,149.498,205.741,150.538,205.004z M134.552,255.195    c-3.175-1.348-6.083-2.006-8.85-2.006c-6.406,0-10.748,3.618-12.558,7.579c-1.309,2.018-3.485,5.875-2.002,10.539    c-3.549-2.765-4.546-6.293-5.715-10.429c-1.238-4.38-2.639-9.346-6.816-13.538c-2.381-2.39-2.132-10.837-1.932-17.623    c0.281-9.485,0.57-19.292-3.728-27.301c-4.64-8.651-10.617-12.68-18.806-12.68c-0.879,0-1.75,0.042-2.61,0.088    c-0.569,0.029-1.133,0.064-1.689,0.064c-0.631,0-0.832-0.057-0.815-0.045c-0.858-0.359-1.689-0.648-2.422-0.902    c-0.263-0.092-0.58-0.201-0.885-0.312c0.342-1.82,1.72-6.158,7.044-15.243c4.39-7.488,8.851-11.285,13.259-11.285    c4.578,0,10.494,3.894,16.659,10.964c9.149,10.49,23.524,11.348,34.019,11.975c4.394,0.262,8.544,0.51,10.872,1.328    c0.468,0.164,1.556,0.61,1.545,1.194c-0.008,0.455-0.358,1.237-1.293,1.53c-12.372,3.88-17.262,16.224-15.7,26.414    c1.25,8.154,6.533,13.633,13.146,13.632c0.002,0,0.004,0,0.005,0c3.247-0.001,8.096-1.372,12.77-7.896    c1.486-2.074,2.999-4.188,4.211-5.792c1.466,1.048,3.315,2.286,5.715,3.59c1.871,1.017,2.98,1.9,3.571,2.486    c-0.983,0.991-3.594,3.007-10.062,5.398c-12.286,4.542-18.608,14.965-23.223,22.575    C137.109,251.396,135.631,253.832,134.552,255.195z M162.138,361.285c-0.368-3.996,0.304-7.946,1.03-12.207    c1.648-9.671,3.699-21.706-8.689-33.102c-4.512-4.15-6.942-8.166-7.026-11.615c-0.075-3.068,1.738-5.188,2.094-5.572    c0.266-0.231,0.32-0.311,0.575-0.609c2.37-2.774,3.84-3.514,4.335-3.514c1.385,0,4.765,2.312,7.478,4.17    c3.334,2.283,7.486,5.124,12.56,7.424l0.991,0.449c6.065,2.74,13.61,6.15,14.31,9.784c0.273,1.415,0.198,7.032-12.204,19.929    C169.248,345.099,164.68,353.764,162.138,361.285z M189.605,401.33v-54.807c12.42-13.117,17.387-23.622,15.581-32.994    c-1.646-8.548-8.399-13.651-15.581-17.439v-22.326c0-4.329-3.508-7.837-7.837-7.837c-4.329,0-7.837,3.508-7.837,7.837v14.246    c-1.066-0.699-2.116-1.404-3.143-2.108c-5.191-3.554-10.095-6.91-16.332-6.91c-1.999,0-3.944,0.364-5.85,1.08    c-0.881-3.651-3.322-7.275-7.991-9.889c4.817-2.288,7.972-7.49,11.047-12.56c3.797-6.26,8.101-13.356,15.257-16.001    c1.573-0.582,4.175-1.546,7.013-2.973v3.766c0,4.329,3.508,7.837,7.837,7.837s7.837-3.508,7.837-7.837v-18.954    c0.561,0.087,1.125,0.133,1.691,0.133c0.001,0,0,0,0.001,0c7.216,0,10.609-6.313,13.086-10.923c3.421-6.369,5.27-8.63,8.834-8.63    c7.119,0,13.517-4.937,18.014-13.9c3.454-6.884,5.435-15.426,5.435-23.436c0-7.359-1.694-13.792-4.9-18.604    c-4.147-6.226-10.759-9.653-18.618-9.653c-2.996,0-6.228,0.491-9.606,1.459c-5.231,1.499-9.865,3.012-13.938,4.554v-33.792h132.79    v43.899c-5.772,7.253-8.525,16.759-6.517,25.629c0.112,0.496,0.065,0.713-0.246,1.101c-1.154,1.443-4.608,2.996-9.47,2.996    c-3.227,0-6.567-0.688-9.661-1.99c-4.596-1.935-9.42-2.915-14.335-2.915c-16.876,0-30.94,11.238-35.83,28.628    c-4.958,17.642-7.96,20.655-14.538,27.254c-3.825,3.839-5.011,9.091-3.095,13.707c0.109,0.264,0.228,0.523,0.355,0.777    c-6.785,5-11.197,13.056-11.197,22.127c0,15.132,12.281,27.443,27.375,27.443h8.235c0.334,6.079,2.993,11.317,7.731,14.912    c-1.56,4.14-4.019,11.528,1.977,22.142c5.313,9.41,11.666,14.181,18.884,14.181c6.211,0,11.944-3.711,16.142-10.452    c2.249-3.61,3.314-6.253,4.093-8.183c0.949-2.354,1.12-2.778,3.349-4.499c4.854-3.746,7.791-8.97,8.27-14.71    c0.502-5.986-1.746-12.012-6.329-16.965c-0.155-0.168-0.351-0.379-0.311-0.992c1.312-1.905,2.374-3.953,3.174-6.118    c0.392,0.068,0.785,0.124,1.177,0.168c0.962,0.108,1.904,0.161,2.8,0.161c3.261,0,5.861-0.715,7.965-1.777V401.33H189.605z     M342.424,158.792c0.05,3.406,1.315,5.883,2.57,7.511c4.074,5.281,11.085,5.892,16.005,5.892c4.167,0,8.727-0.523,12.64-1.034    c7.456-0.977,11.336-4.92,13.521-8.013c4.508,2.024,9.852,3.117,15.393,3.117c7.869-0.001,15.563-2.159,22.248-6.242    c3.826-2.337,9.221-4.193,13.484-4.731c-1.653,6.809,1.769,11.876,4.831,15.05c-7.641,6.02-8.419,12.66-4.574,28.947    c0.636,2.695,0.508,4.449,0.279,5.403c-0.754-0.831-1.852-2.677-2.326-6.163c-0.554-4.082-3.277-17.407-15.021-17.407    c-9.162,0-16.476,8.953-19.66,17.828c-3.517,9.807,0.857,16.482,3.753,20.9c2.542,3.88,4.076,6.221,2.981,11.248    c-0.251,1.151-0.526,1.667-0.635,1.839c-0.441,0.159-1.557,0.279-2.313,0.359c-2.862,0.304-7.652,0.814-10.719,5.286    c-3.274,4.776-2.227,10.948-0.771,16.356c0.791,2.94,0.75,4.406,0.677,4.961c-0.58,0.272-1.714,0.59-2.506,0.814    c-8.364,2.354-12.018,7.083-10.861,14.058c0.082,0.49,0.17,0.991,0.266,1.503c-0.529-0.53-1.039-1.044-1.535-1.543    c-5.826-5.876-10.428-10.518-17.256-10.518c-5.943,0-10.473,3.857-13.364,6.757c-1.624,1.629-3.052,3.296-4.312,4.899    c-1.999-4.921-5.404-9.772-11.854-12.722c-1.002-0.459-2.091-0.701-3.193-0.711c-0.022,0-0.119,0-0.142,0    c-8.212,0-11.688,5.927-13.357,8.775c-0.416,0.709-1.045,1.782-1.287,1.984c-0.002,0.001-0.255,0.106-0.957,0.106    c-0.318,0-0.675-0.022-1.063-0.066c-0.816-0.091-2.224-0.536-4.295-2.141c-2.456-1.902-5.801-2.173-8.532-0.695    c-2.73,1.48-4.33,4.43-4.078,7.525c0.027,0.33,0.057,0.66,0.057,0.997c0,1.125-0.157,2.256-0.467,3.358    c-0.014,0.049-0.026,0.098-0.039,0.147c-0.006,0.019-0.013,0.038-0.018,0.056c-0.448,1.489-1.17,2.865-2.146,4.093    c-0.629,0.79-1.099,1.694-1.385,2.662c-1.909,6.478-0.625,12.573,3.62,17.16c1.558,1.684,2.345,3.465,2.215,5.016    c-0.14,1.67-1.289,2.885-2.229,3.609c-5.196,4.01-6.722,7.107-8.309,11.044c-0.655,1.626-1.332,3.307-2.86,5.759    c-1.355,2.177-2.507,2.919-2.85,3.052c-0.608-0.188-2.633-1.613-5.224-6.204c-2.596-4.595-1.923-6.369-0.807-9.306    c1.161-3.06,4.247-11.189-5.088-17.435c-2.531-1.692-1.858-5.471-1.232-7.573c0.761-2.559,0.168-5.331-1.576-7.353    c-0.117-0.137-0.234-0.275-0.347-0.415c-1.487-1.857-3.738-2.938-6.117-2.938h-16.426c-6.452,0-11.702-5.28-11.702-11.77    s5.25-11.771,11.702-11.771h22.044c3.316,0,6.493,1.427,8.713,3.917c1.487,1.667,3.614,2.62,5.848,2.62h2.473    c1.265,0,2.531,0.202,3.762,0.602c3.07,0.994,6.435,0.008,8.479-2.486c2.046-2.495,2.353-5.988,0.774-8.803    c-1.718-3.062-2.727-5.286-2.734-5.301c-0.07-0.158-0.148-0.315-0.23-0.468c-0.711-1.335-4.422-8.176-7.68-11.694    c-0.766-0.829-1.597-1.822-2.476-2.875c-4.175-4.994-9.372-11.211-17.288-11.211c-4.91,0-8.789,2.487-11.619,5.251    c2.033-4.334,3.994-9.833,6.121-17.406c3.564-12.679,13.051-17.196,20.741-17.196c2.816,0,5.593,0.568,8.256,1.689    c5.002,2.104,10.445,3.216,15.739,3.216c9.153,0,17.27-3.323,21.716-8.888c3.284-4.112,4.45-9.206,3.286-14.345    C329.607,169.863,335.078,161.147,342.424,158.792z M263.543,244.442c1.702-2.672,2.889-3.767,3.45-4.185    c1.159,0.73,3.032,2.862,4.419,4.5c-1.359-0.208-2.74-0.316-4.13-0.316H263.543z"/>
	</g>
</g>
<g>
	<g>
		<path fill="#1296db" d="M449.48,333.567c-5.859-7.645-7.084-10.499-8.502-13.805c-0.915-2.133-1.953-4.551-3.982-8.012    c-2.112-3.602-5.684-5.669-9.801-5.669c-6.642,0-13.199,5.428-20.79,11.714c-3.984,3.299-10.005,8.284-12.558,8.894    c-8.232,1.966-13.256,9.497-12.218,18.314c0.985,8.38,7.675,16.864,18.549,16.864c0.794,0,1.606-0.048,2.415-0.143    c2.89-0.34,5.13-0.498,7.052-0.498c6.536,0,9.331,1.754,11.959,7.511c2.197,4.809,6.369,7.681,11.157,7.682h0.001    c7.763,0,14.161-7.364,17.563-14.257C455.492,351.687,455.176,340.997,449.48,333.567z M437.81,351.067    c-0.792,3.165-2.345,5.898-3.742,7.687c-5.251-8.985-13.103-13.201-24.423-13.201c-2.549,0-5.37,0.192-8.881,0.604    c-0.204,0.024-0.401,0.037-0.586,0.037c-0.461,0-1.686,0-2.516-1.542c-0.664-1.232-0.516-2.448-0.42-2.634    c0.001-0.001,0.068-0.041,0.245-0.083c6.1-1.458,12.324-6.611,18.913-12.066c2.495-2.066,6.206-5.139,8.851-6.879    c0.504,1.043,0.908,1.983,1.324,2.952c1.678,3.914,3.416,7.961,10.467,17.161C438.853,345.466,438.301,349.107,437.81,351.067z"/>
	</g>
</g>
<g>
</g>
<g>
</g>
<g>
</g>
<g>
</g>
<g>
</g>
<g>
</g>
<g>
</g>
<g>
</g>
<g>
</g>
<g>
</g>
<g>
</g>
<g>
</g>
<g>
</g>
<g>
</g>
<g>
</g>
</svg>
