<?xml version="1.0" standalone="no"?><!DOCTYPE svg PUBLIC "-//W3C//DTD SVG 1.1//EN" "http://www.w3.org/Graphics/SVG/1.1/DTD/svg11.dtd"><svg t="1545036480424" class="icon" style="" viewBox="0 0 1024 1024" version="1.1" xmlns="http://www.w3.org/2000/svg" p-id="2120" xmlns:xlink="http://www.w3.org/1999/xlink" width="64" height="64"><defs><style type="text/css"></style></defs><path d="M989.866667 392.533333c10.24 0 17.066667-6.826667 17.066666-17.066666s-6.826667-17.066667-17.066666-17.066667h-51.2v-238.933333H989.866667c10.24 0 17.066667-6.826667 17.066666-17.066667s-6.826667-17.066667-17.066666-17.066667h-51.2V34.133333c0-10.24-6.826667-17.066667-17.066667-17.066666s-17.066667 6.826667-17.066667 17.066666v51.2h-238.933333V34.133333c0-10.24-6.826667-17.066667-17.066667-17.066666s-17.066667 6.826667-17.066666 17.066666v51.2h-238.933334V34.133333c0-10.24-6.826667-17.066667-17.066666-17.066666s-17.066667 6.826667-17.066667 17.066666v51.2h-238.933333V34.133333c0-10.24-6.826667-17.066667-17.066667-17.066666s-17.066667 6.826667-17.066667 17.066666v51.2H34.133333c-10.24 0-17.066667 6.826667-17.066666 17.066667s6.826667 17.066667 17.066666 17.066667h51.2v238.933333H34.133333c-10.24 0-17.066667 6.826667-17.066666 17.066667s6.826667 17.066667 17.066666 17.066666h51.2v238.933334H34.133333c-10.24 0-17.066667 6.826667-17.066666 17.066666s6.826667 17.066667 17.066666 17.066667h51.2v238.933333H34.133333c-10.24 0-17.066667 6.826667-17.066666 17.066667s6.826667 17.066667 17.066666 17.066667h51.2V989.866667c0 10.24 6.826667 17.066667 17.066667 17.066666s17.066667-6.826667 17.066667-17.066666v-51.2h238.933333V989.866667c0 10.24 6.826667 17.066667 17.066667 17.066666s17.066667-6.826667 17.066666-17.066666v-51.2h238.933334V989.866667c0 10.24 6.826667 17.066667 17.066666 17.066666s17.066667-6.826667 17.066667-17.066666v-51.2h238.933333V989.866667c0 10.24 6.826667 17.066667 17.066667 17.066666s17.066667-6.826667 17.066667-17.066666v-51.2H989.866667c10.24 0 17.066667-6.826667 17.066666-17.066667s-6.826667-17.066667-17.066666-17.066667h-51.2v-238.933333H989.866667c10.24 0 17.066667-6.826667 17.066666-17.066667s-6.826667-17.066667-17.066666-17.066666h-51.2v-238.933334H989.866667z m-85.333334-273.066666v238.933333h-238.933333v-238.933333h238.933333z m-273.066666 0v238.933333h-238.933334v-238.933333h238.933334z m0 273.066666v238.933334h-238.933334v-238.933334h238.933334z m-512-273.066666h238.933333v238.933333h-238.933333v-238.933333z m0 273.066666h238.933333v238.933334h-238.933333v-238.933334z m0 512v-238.933333h238.933333v238.933333h-238.933333z m273.066666 0v-238.933333h238.933334v238.933333h-238.933334z m512 0h-238.933333v-238.933333h238.933333v238.933333z m0-273.066666h-238.933333v-238.933334h238.933333v238.933334z" fill="#1296db" p-id="2121"></path></svg>