<svg id="图层_1" data-name="图层 1" xmlns="http://www.w3.org/2000/svg" viewBox="0 0 16 16"><title>画板 27</title><polygon points="3.71 13 13.21 3.5 11.79 3.5 2.29 13 3.71 13" style="fill:gray"/><circle cx="13.5" cy="2.5" r="2" style="fill:#fff"/><path d="M13.5,1A1.5,1.5,0,1,1,12,2.5,1.5,1.5,0,0,1,13.5,1m0-1A2.5,2.5,0,1,0,16,2.5,2.5,2.5,0,0,0,13.5,0Z" style="fill:#4d84ba"/><circle cx="2.5" cy="13.5" r="2" style="fill:#fff"/><path d="M2.5,12A1.5,1.5,0,1,1,1,13.5,1.5,1.5,0,0,1,2.5,12m0-1A2.5,2.5,0,1,0,5,13.5,2.5,2.5,0,0,0,2.5,11Z" style="fill:#4d84ba"/><path d="M14.77,13a2.16,2.16,0,0,0-1.36-.14,2.15,2.15,0,0,1-.73-.67L10.17,8.12a.13.13,0,0,0-.23,0,1.73,1.73,0,0,0-.07,2.15c.76,1,1.81,2.2,1.92,2.38,0,0,1.39,2.89,2.41,3.31a1.56,1.56,0,0,0,1.7-.8A1.73,1.73,0,0,0,14.77,13ZM12,12.07a.23.23,0,1,1,.23-.23.23.23,0,0,1-.23.23Zm2.93,3.29c-.36.21-.93-.09-1.28-.67s-.35-1.23,0-1.45.93.09,1.28.67.35,1.23,0,1.45ZM14.43,10a1.92,1.92,0,0,0-.24-1.91.12.12,0,0,0-.22,0L12.12,11l.57.94A10.07,10.07,0,0,0,14.43,10Zm-3.85,2.94a2.16,2.16,0,0,0-1.35.14A1.73,1.73,0,0,0,8.1,15.18a1.56,1.56,0,0,0,1.7.8c.76-.31,1.69-2,2.12-2.88l-.61-.84a2.15,2.15,0,0,1-.72.65Zm-.25,1.82c-.35.59-.93.89-1.28.67S8.69,14.54,9,14s.93-.89,1.28-.67.36.86,0,1.45Zm0,0" style="fill:#de673e"/></svg>