<svg id="图层_1" data-name="图层 1" xmlns="http://www.w3.org/2000/svg" viewBox="0 0 16 16"><title>画板 26</title><rect x="0.5" y="0.5" width="13" height="12.96" rx="0.54" ry="0.54" style="fill:#fff"/><path d="M13,1a0,0,0,0,1,0,0V12.93a0,0,0,0,1,0,0H1a0,0,0,0,1,0,0V1A0,0,0,0,1,1,1H13m0-1H1A1,1,0,0,0,0,1V12.93a1,1,0,0,0,1,1H13a1,1,0,0,0,1-1V1a1,1,0,0,0-1-1Z" style="fill:gray"/><path d="M4,6a3.11,3.11,0,0,1-1.12-.14.48.48,0,0,1-.33-.47V5q0-.32-.55-.32v-.3q.55,0,.55-.33V3.62a.49.49,0,0,1,.33-.48A3,3,0,0,1,4,3v.31q-.57,0-.57.3V4q0,.4-.55.51h0q.55.1.55.51v.37a.25.25,0,0,0,.13.24A1,1,0,0,0,4,5.69Z" style="fill:#b1b1b1"/><path d="M10,5.69a1,1,0,0,0,.44-.07.25.25,0,0,0,.13-.24V5q0-.41.55-.51h0q-.55-.1-.55-.51V3.61q0-.3-.57-.3V3a3,3,0,0,1,1.12.15.49.49,0,0,1,.33.48V4q0,.33.55.33v.3q-.55,0-.55.32v.42a.48.48,0,0,1-.33.47A3.11,3.11,0,0,1,10,6Z" style="fill:#b1b1b1"/><rect x="4" y="4" width="2" height="1" rx="0.5" ry="0.5" style="fill:#b1b1b1"/><rect x="7" y="4" width="3" height="1" rx="0.5" ry="0.5" style="fill:#b1b1b1"/><path d="M4,11a3.11,3.11,0,0,1-1.12-.14.48.48,0,0,1-.33-.47V10q0-.32-.55-.32v-.3q.55,0,.55-.33V8.62a.49.49,0,0,1,.33-.48A3,3,0,0,1,4,8v.31q-.57,0-.57.3V9q0,.4-.55.51h0q.55.1.55.51v.37a.25.25,0,0,0,.13.24,1,1,0,0,0,.44.07Z" style="fill:#b1b1b1"/><path d="M10,10.69a1,1,0,0,0,.44-.07.25.25,0,0,0,.13-.24V10q0-.41.55-.51h0q-.55-.1-.55-.51V8.61q0-.3-.57-.3V8a3,3,0,0,1,1.12.15.49.49,0,0,1,.33.48V9q0,.33.55.33v.3q-.55,0-.55.32v.42a.48.48,0,0,1-.33.47A3.11,3.11,0,0,1,10,11Z" style="fill:#b1b1b1"/><rect x="4" y="9" width="6" height="1" rx="0.5" ry="0.5" style="fill:#b1b1b1"/><circle cx="11.5" cy="11.5" r="4.5" style="fill:#4d84ba"/><rect x="9" y="11" width="5" height="1" style="fill:#fff"/><rect x="9" y="11" width="5" height="1" transform="translate(0 23) rotate(-90)" style="fill:#fff"/></svg>