<?xml version="1.0" standalone="no"?><!DOCTYPE svg PUBLIC "-//W3C//DTD SVG 1.1//EN" "http://www.w3.org/Graphics/SVG/1.1/DTD/svg11.dtd"><svg t="1590646377546" class="icon" viewBox="0 0 1024 1024" version="1.1" xmlns="http://www.w3.org/2000/svg" p-id="16484" xmlns:xlink="http://www.w3.org/1999/xlink" width="200" height="200"><defs><style type="text/css"></style></defs><path d="M614.4 0h102.4v102.4h-102.4zM204.8 0h102.4v102.4H204.8zM409.6 0h102.4v102.4H409.6zM102.4 102.4V0H0v102.4h102.4z" fill="#0079F2" p-id="16485"></path><path d="M614.4 0h102.4v102.4h-102.4zM819.2 0h102.4v105.472h-102.4zM819.2 203.264h102.4v102.4h-102.4zM0 820.736h102.4v102.4H0zM204.8 820.736h102.4v102.4H204.8zM0 204.8h102.4v102.4H0zM0 409.6h102.4v102.4H0zM0 614.4h102.4v102.4H0z" fill="#0079F2" p-id="16486"></path><path d="M972.8 972.8h-409.6V460.8h204.8V409.6h-256v51.2H409.6v512h102.4v51.2h512v-358.4h-51.2zM460.8 921.6v-409.6h51.2v409.6z" fill="#FDB913" p-id="16487"></path><path d="M819.2 409.6v51.2h117.248l-165.888 165.888 36.352 36.352L972.8 497.152V614.4h51.2V409.6h-204.8z" fill="#FDB913" p-id="16488"></path></svg>