<svg id="图层_1" data-name="图层 1" xmlns="http://www.w3.org/2000/svg" viewBox="0 0 16 16"><title>画板 65</title><rect x="2" y="1.1" width="1" height="14.9" style="fill:#7e7e7e"/><rect x="8.3" y="-4.7" width="1" height="14.4" transform="translate(11.3 -6.3) rotate(90)" style="fill:#7e7e7e"/><polygon points="5.33 6 4 6 4 5.33 5.33 5.33 5.33 4 6 4 6 5.33 6 6 5.33 6" style="fill:#7e7e7e"/><ellipse cx="2.42" cy="2.5" rx="1.92" ry="2" style="fill:#fff"/><path d="M2.42,1A1.46,1.46,0,0,1,3.83,2.5,1.46,1.46,0,0,1,2.42,4,1.46,1.46,0,0,1,1,2.5,1.46,1.46,0,0,1,2.42,1m0-1A2.46,2.46,0,0,0,0,2.5,2.46,2.46,0,0,0,2.42,5,2.46,2.46,0,0,0,4.83,2.5,2.46,2.46,0,0,0,2.42,0Z" style="fill:gray"/><rect x="5" y="9" width="11" height="3" style="fill:#4d84ba"/><rect x="9" y="5" width="3" height="11" style="fill:#4d84ba"/></svg>