<svg height="512pt" viewBox="0 0 512 512" width="512pt" xmlns="http://www.w3.org/2000/svg"><path d="m437.019531 74.980469c-48.351562-48.351563-112.640625-74.980469-181.019531-74.980469-29.859375 0-59.015625 5.074219-86.800781 15.097656l-5.691407-9.800781c-1.789062-3.078125-5.082031-4.976563-8.644531-4.976563-.007812 0-.019531 0-.027343 0-3.570313.011719-6.867188 1.925782-8.644532 5.023438l-39.546875 68.925781c-1.777343 3.101563-1.765625 6.914063.027344 10 1.789063 3.082031 5.085937 4.976563 8.644531 4.976563h.027344l79.464844-.214844c3.574218-.011719 6.871094-1.925781 8.648437-5.023438 1.777344-3.097656 1.765625-6.910156-.027343-10l-3.417969-5.882812c18.105469-5.394531 36.890625-8.125 55.988281-8.125 108.074219 0 196 87.925781 196 196s-87.925781 196-196 196-196-87.925781-196-196c0-5.523438-4.476562-10-10-10h-40c-5.523438 0-10 4.476562-10 10 0 68.378906 26.628906 132.667969 74.980469 181.019531 48.351562 48.351563 112.640625 74.980469 181.019531 74.980469s132.667969-26.628906 181.019531-74.980469c48.351563-48.351562 74.980469-112.640625 74.980469-181.019531s-26.628906-132.667969-74.980469-181.019531zm-181.019531 417.019531c-126.777344 0-230.53125-100.492188-235.789062-226h20.015624c2.441407 53.941406 24.605469 104.304688 63.039063 142.734375 40.796875 40.796875 95.039063 63.265625 152.734375 63.265625s111.9375-22.46875 152.734375-63.265625 63.265625-95.039063 63.265625-152.734375-22.46875-111.9375-63.265625-152.734375-95.039063-63.265625-152.734375-63.265625c-25.488281 0-50.472656 4.414062-74.253906 13.121094-2.777344 1.015625-4.960938 3.210937-5.964844 5.992187-1.007812 2.78125-.730469 5.863281.757812 8.421875l.894532 1.542969-44.824219.121094 22.304687-38.878907 1.257813 2.160157c2.488281 4.289062 7.75 6.105469 12.351563 4.261719 27.824218-11.109376 57.253906-16.742188 87.476562-16.742188 130.132812 0 236 105.867188 236 236s-105.867188 236-236 236zm0 0" fill="#4D84BA"/><path d="m379.035156 132.964844c-3.898437-3.898438-10.195312-3.886719-14.101562.007812-3.910156 3.890625-3.90625 10.234375-.023438 14.148438.011719.011718.066406.066406.074219.074218 1.949219 1.945313 4.492187 2.917969 7.039063 2.917969 2.554687 0 5.109374-.976562 7.066406-2.925781 3.910156-3.890625 3.90625-10.234375.023437-14.152344-.011719-.007812-.066406-.0625-.078125-.070312zm0 0" fill="#4D84BA"/><path d="m344.554688 117.558594c2.6875-4.824219.957031-10.914063-3.867188-13.605469-32.402344-18.070313-70.609375-25.328125-107.585938-20.449219-38.199218 5.046875-72.828124 22.148438-100.136718 49.460938-32.867188 32.863281-50.964844 76.558594-50.964844 123.035156s18.097656 90.171875 50.964844 123.035156c32.863281 32.867188 76.558594 50.964844 123.035156 50.964844s90.171875-18.097656 123.035156-50.964844c56.542969-56.539062 67.367188-143.875 26.320313-212.378906-2.835938-4.738281-8.980469-6.273438-13.71875-3.4375-4.738281 2.839844-6.277344 8.980469-3.4375 13.71875 36.324219 60.621094 26.738281 137.914062-23.304688 187.957031-29.085937 29.085938-67.757812 45.105469-108.894531 45.105469s-79.808594-16.019531-108.894531-45.105469c-29.085938-29.085937-45.105469-67.757812-45.105469-108.894531s16.019531-79.808594 45.105469-108.894531c48.460937-48.460938 124.058593-59.019531 183.84375-25.683594 4.824219 2.6875 10.914062.957031 13.605469-3.863281zm0 0" fill="#4D84BA"/><path d="m266.128906 136.5v-7.5c0-5.523438-4.480468-10-10-10-5.523437 0-10 4.476562-10 10v7.5c0 5.523438 4.476563 10 10 10 5.519532 0 10-4.476562 10-10zm0 0" fill="#4D84BA"/><path d="m245.871094 375.5v7.5c0 5.523438 4.480468 10 10 10 5.523437 0 10-4.476562 10-10v-7.5c0-5.523438-4.476563-10-10-10-5.519532 0-10 4.476562-10 10zm0 0" fill="#4D84BA"/><path d="m365.5 256.128906c0 5.519532 4.476562 10 10 10h7.5c5.523438 0 10-4.480468 10-10 0-5.523437-4.476562-10-10-10h-7.5c-5.523438 0-10 4.476563-10 10zm0 0" fill="#4D84BA"/><path d="m129 245.871094c-5.523438 0-10 4.480468-10 10 0 5.523437 4.476562 10 10 10h7.5c5.523438 0 10-4.476563 10-10 0-5.519532-4.476562-10-10-10zm0 0" fill="#4D84BA"/><path d="m316 256c0-5.523438-4.476562-10-10-10h-45.859375l-74.972656-74.972656c-3.902344-3.90625-10.234375-3.90625-14.140625 0-3.90625 3.902344-3.90625 10.234375 0 14.140625l77.902344 77.902343c1.875 1.875 4.417968 2.929688 7.070312 2.929688h50c5.523438 0 10-4.476562 10-10zm0 0" fill="#4D84BA"/></svg>