<svg id="图层_1" data-name="图层 1" xmlns="http://www.w3.org/2000/svg" viewBox="0 0 16 16"><title>画板 38</title><rect x="0.5" y="0.5" width="13" height="13" rx="0.5" ry="0.5" style="fill:#fff"/><path d="M13,1V13H1V1H13m0-1H1A1,1,0,0,0,0,1V13a1,1,0,0,0,1,1H13a1,1,0,0,0,1-1V1a1,1,0,0,0-1-1Z" style="fill:gray"/><path d="M11.79,4.46,11,5.27,8.75,3l.81-.81a.6.6,0,0,1,.85-.07L11.88,3.6a.66.66,0,0,1-.09.86ZM4.59,7.15,8.37,3.4l2.24,2.23L5.28,11a.37.37,0,0,1-.19.11l0,0L2.27,12a.22.22,0,0,1-.21,0,.19.19,0,0,1,0-.22L2.9,9s0,0,0,0A.41.41,0,0,1,3,8.7l1-1m.53,3.06L3.22,9.42l-.37,1.17.58.59ZM8.3,4.28a.21.21,0,0,0-.28,0L3.83,8.45a.19.19,0,0,0,0,.29.21.21,0,0,0,.28,0L8.28,4.57a.2.2,0,0,0,0-.29Z" style="fill:#4d84ba"/><rect x="6" y="11" width="6" height="1" rx="0.5" ry="0.5" style="fill:#4d84ba"/><circle cx="11.5" cy="11.5" r="4.5" style="fill:#4d84ba"/><rect x="9" y="11" width="5" height="1" style="fill:#fff"/><rect x="9" y="11" width="5" height="1" transform="translate(0 23) rotate(-90)" style="fill:#fff"/></svg>