<?xml version="1.0" standalone="no"?><!DOCTYPE svg PUBLIC "-//W3C//DTD SVG 1.1//EN" "http://www.w3.org/Graphics/SVG/1.1/DTD/svg11.dtd"><svg t="1570522092742" class="icon" viewBox="0 0 1024 1024" version="1.1" xmlns="http://www.w3.org/2000/svg" p-id="1827" xmlns:xlink="http://www.w3.org/1999/xlink" width="200" height="200"><defs><style type="text/css"></style></defs><path d="M616.3 536.8l195.9 195.9c20.5 20.5 20.5 53.9 0 74.4-20.7 20.7-54.3 20.5-74.8-0.4L539.8 605c-13.8-16.9-37.1-21.4-57-12.6-18.7 8.3-38.9 13.9-60.1 16.3-81.3 9-156.5-37-199.2-106.9-29.6-48.4-32.4-93-24.9-133.9l101.8 101.7c18.5 18.5 48.5 18.5 67 0L463 374c18.5-18.5 18.5-48.5 0-67.1L360.1 204.2c12.9-2.6 26.2-4 39.9-4 102.6 0 187.8 75.9 202.5 174.5 2.4 16.2 16.4 28.1 32.8 28.1 20.4 0 36.4-18.1 33.4-38.3C649.1 233.7 536.3 133.3 400 133.3c-33 0-64.5 6.2-93.8 17-32.3 12-41.3 53.3-16.9 77.6L402 340.6l-68 68-113-113c-24-24-64.7-14.9-76.2 17l-0.4 1c-17.8 49.8-22.4 105.9-5.9 165C166.9 579.9 253.9 658 358 673.7c47.4 7.1 92.8 2 133.7-12.7l196 196c48.1 48.1 126 48.1 174.1 0 48.1-48.1 48.1-126 0-174.1L666 487.2c-13.5-13.5-35.4-13.7-49.2-0.5-14.1 13.7-14.4 36.2-0.5 50.1z" fill="#4D84BA" p-id="1828"></path></svg>