<?xml version="1.0" standalone="no"?><!DOCTYPE svg PUBLIC "-//W3C//DTD SVG 1.1//EN" "http://www.w3.org/Graphics/SVG/1.1/DTD/svg11.dtd"><svg t="1540811208232" class="icon" style="" viewBox="0 0 1024 1024" version="1.1" xmlns="http://www.w3.org/2000/svg" p-id="4940" xmlns:xlink="http://www.w3.org/1999/xlink" width="200" height="200"><defs><style type="text/css"></style></defs><path d="M931.3 454.9h-350v-10.7c0-13.4-10.9-24.3-24.3-24.3h-10.7V203.4H557c13.4 0 24.3-10.9 24.3-24.3V87.7c0-13.4-10.9-24.3-24.3-24.3h-91.5c-13.4 0-24.3 10.9-24.3 24.3v91.5c0 13.4 10.9 24.3 24.3 24.3h10.7v216.4h-10.7c-13.4 0-24.3 10.9-24.3 24.3v10.7h-350c-15.5 0-28 12.5-28 28v14c0 15.5 12.5 28 28 28h350v10.7c0 13.4 10.9 24.3 24.3 24.3h10.7v259.6h-10.7c-13.4 0-24.3 10.9-24.3 24.3v91.5c0 13.4 10.9 24.3 24.3 24.3H557c13.4 0 24.3-10.9 24.3-24.3v-91.5c0-13.4-10.9-24.3-24.3-24.3h-10.7V559.9H557c13.4 0 24.3-10.9 24.3-24.3v-10.7h350c15.5 0 28-12.5 28-28v-14c0-15.5-12.5-28-28-28z" p-id="4941" fill="#1296db"></path></svg>