<svg id="图层_1" data-name="图层 1" xmlns="http://www.w3.org/2000/svg" viewBox="0 0 16 16"><title>画板 57</title><path d="M11,5a.36.36,0,1,0-.36.36A.36.36,0,0,0,11,5Zm.48,0a.84.84,0,1,1-.84-.84.84.84,0,0,1,.84.84ZM8,0A7.9,7.9,0,0,0,3,1.8L1.24,0,0,6.22,6.21,5l-2-2A6.28,6.28,0,0,1,8,1.68a6.35,6.35,0,0,1,5.76,9l1.49.69a8.17,8.17,0,0,0,.42-1.14h0A8,8,0,0,0,8,0Zm3.6,13.21.93,1.35a8,8,0,0,0,1.57-1.44l-1.26-1.06a6.4,6.4,0,0,1-1.25,1.14ZM4.44,15.16a8,8,0,0,0,2,.7l.32-1.61a6.23,6.23,0,0,1-1.6-.55ZM1.76,9,.14,9.2a8,8,0,0,0,.27,1.18L2,9.9A6.31,6.31,0,0,1,1.76,9Zm-.46,3.37A8,8,0,0,0,2.68,14l1.1-1.22a6.35,6.35,0,0,1-1.09-1.3ZM10.12,14l.54,1.55A7.92,7.92,0,0,1,8.58,16l-.11-1.64A6.31,6.31,0,0,0,10.12,14Zm0,0" style="fill:#4d84ba"/><path d="M5,7.07a1.13,1.13,0,0,0-.29.8A1.05,1.05,0,0,0,5,8.66a1,1,0,0,0,.75.3,1,1,0,0,0,.76-.3,1.14,1.14,0,0,0,.28-.8,1.11,1.11,0,0,0-.29-.8,1,1,0,0,0-.74-.3A1,1,0,0,0,5,7.07m2.16-.28a3.1,3.1,0,0,1,.48,1.84,3.65,3.65,0,0,1-.51,2,1.63,1.63,0,0,1-1.4.78A1.49,1.49,0,0,1,4.07,10h.76a.86.86,0,0,0,.93.75,1,1,0,0,0,.85-.52A2.36,2.36,0,0,0,6.91,9s0-.06,0-.09h0a1.45,1.45,0,0,1-.54.5,1.61,1.61,0,0,1-.71.16A1.58,1.58,0,0,1,4.41,9.1,1.73,1.73,0,0,1,4,7.88a1.66,1.66,0,0,1,.51-1.26,1.74,1.74,0,0,1,1.27-.5,1.64,1.64,0,0,1,1.43.68" style="fill:#4d84ba"/><path d="M9.23,7.47A3.58,3.58,0,0,0,9,8.77a3.63,3.63,0,0,0,.19,1.31.91.91,0,0,0,1.78,0,3.8,3.8,0,0,0,.19-1.31A3.74,3.74,0,0,0,11,7.47a.91.91,0,0,0-1.78,0m2.28-.6A3.51,3.51,0,0,1,12,8.77a3.52,3.52,0,0,1-.45,1.9,1.66,1.66,0,0,1-2.79,0,3.51,3.51,0,0,1-.45-1.9,3.47,3.47,0,0,1,.45-1.9,1.57,1.57,0,0,1,1.4-.76,1.57,1.57,0,0,1,1.4.76" style="fill:#4d84ba"/></svg>