<svg id="图层_1" data-name="图层 1" xmlns="http://www.w3.org/2000/svg" viewBox="0 0 32 32"><title>画板 33</title><path d="M16,30.5A14.5,14.5,0,1,1,30.5,16,14.52,14.52,0,0,1,16,30.5Z" style="fill:#fff"/><path d="M16,2A14,14,0,1,1,2,16,14,14,0,0,1,16,2m0-1A15,15,0,1,0,31,16,15,15,0,0,0,16,1Z" style="fill:gray"/><path d="M15.1,13.91c.16-.41,0-.62-.23-.62-.84,0-1.93,2-2.33,2a.32.32,0,0,1-.29-.3c0-.41,1-1.37,1.29-1.67a5,5,0,0,1,3.4-1.54c1,0,2,.6,1.2,2.82l-1.63,4.47a4.39,4.39,0,0,0-.38,1.28.29.29,0,0,0,.27.32c.68,0,1.93-1.95,2.24-1.95a.33.33,0,0,1,.27.34c0,.66-2.65,3.5-4.94,3.5-.82,0-1.38-.39-1.38-1.26a11.72,11.72,0,0,1,.93-3.37Zm1.22-4.51a1.87,1.87,0,0,1,1.86-1.83,1.49,1.49,0,0,1,1.56,1.56A1.84,1.84,0,0,1,17.87,11a1.46,1.46,0,0,1-1.54-1.56Zm0,0" style="fill:#4d84ba"/></svg>