<?xml version="1.0" standalone="no"?><!DOCTYPE svg PUBLIC "-//W3C//DTD SVG 1.1//EN" "http://www.w3.org/Graphics/SVG/1.1/DTD/svg11.dtd"><svg t="1523599252039" class="icon" style="" viewBox="0 0 1024 1024" version="1.1" xmlns="http://www.w3.org/2000/svg" p-id="23416" xmlns:xlink="http://www.w3.org/1999/xlink" width="128" height="128"><defs><style type="text/css"></style></defs><path d="M711.37095 895.842322c0 4.264482-3.470971 7.735454-7.707808 7.735453H126.83789c-4.264482 0-7.735454-3.470971-7.735453-7.735453V128.775081c0-4.264482 3.470971-7.735454 7.735453-7.735453h576.824228c4.236837 0 7.707809 3.470971 7.707809 7.735453v125.216056h55.979906V128.775081c0-35.137697-28.563329-63.71536-63.687715-63.71536H126.83789c-35.123362 0-63.71536 28.577663-63.71536 63.71536v767.067241c0 35.137697 28.590974 63.71536 63.71536 63.71536h576.824228c35.124386 0 63.687715-28.577663 63.687715-63.71536V779.509495h-55.979906v116.332827z" fill="#3f81c1" p-id="23417"></path><path d="M956.417425 388.157998c-10.14056-74.088342-78.8576-128.263139-155.228182-117.890156-6.970611 0.956309-13.366823 4.510215-17.821748 9.963428L499.370375 626.016798a27.85992 27.85992 0 0 0-5.630346 11.343626l-43.706593 185.349864c-2.432752 10.305406 1.17542 21.102277 9.293807 27.893708a27.987905 27.987905 0 0 0 17.957925 6.519078c3.771994 0 7.571632-0.764842 11.152159-2.323196l175.564593-76.288671a28.037052 28.037052 0 0 0 11.097893-8.665142l275.824467-360.901147c4.509191-5.917033 6.477099-13.406754 5.493145-20.78692zM541.188923 680.08511c35.105956-2.642648 66.944694 22.702609 71.808149 58.163854 0.060409 0.439247 0.132081 0.875422 0.211945 1.307502l-95.853073 41.647559 23.832979-101.118915z m118.215752 18.095126c-15.971587-36.76977-49.022605-63.537204-87.991681-71.686307l175.824659-214.075992c38.949622-1.921833 73.99824 23.944582 83.526517 61.546771L659.404675 698.180236zM869.629833 423.108324c-18.010143-29.957861-46.902139-52.108596-80.530628-61.660422l29.966052-36.48513c37.256115-0.58771 69.920105 24.873246 79.677732 60.051898l-29.113156 38.093654z" fill="#3f81c1" p-id="23418"></path></svg>