<svg id="图层_1" data-name="图层 1" xmlns="http://www.w3.org/2000/svg" viewBox="0 0 16 16"><title>画板 6</title><path d="M15.85,6.73A9.61,9.61,0,0,0,8,2,9.58,9.58,0,0,0,.16,6.73L0,7l.16.27A9.59,9.59,0,0,0,8,12a9.62,9.62,0,0,0,7.85-4.73L16,7ZM8,10.89" style="fill:#fff"/><path d="M15.85,6.73A9.61,9.61,0,0,0,8,2,9.58,9.58,0,0,0,.16,6.73L0,7l.16.27A9.59,9.59,0,0,0,8,12a9.62,9.62,0,0,0,7.85-4.73L16,7ZM8,11A9.23,9.23,0,0,1,1,7,9.21,9.21,0,0,1,8,3a9.2,9.2,0,0,1,7,4,9.22,9.22,0,0,1-7,4Zm0-.11" style="fill:gray"/><path d="M10.49,5.48a1,1,0,1,1-1-1,1.41,1.41,0,0,1,.19,0,3.07,3.07,0,1,0,.73.74,1,1,0,0,1,0,.19Z" style="fill:#4d84ba"/><path d="M-175.07,46a.32.32,0,0,1-.23-.09l-2.15-2.15a.32.32,0,0,1,0-.45.32.32,0,0,1,.45,0l1.93,1.93,4-4a.32.32,0,0,1,.45,0,.32.32,0,0,1,0,.45l-4.21,4.21a.32.32,0,0,1-.23.09Zm289-36a.32.32,0,0,1-.23-.09l-2.15-2.15A.32.32,0,0,1,112,7.3l1.93,1.93,4-4a.32.32,0,0,1,.45.45l-4.21,4.21a.32.32,0,0,1-.23.09Zm-289,36" style="fill:#b1b1b1"/><polygon points="10 13 16 13 13 16 10 13" style="fill:gray"/></svg>