<svg id="图层_1" data-name="图层 1" xmlns="http://www.w3.org/2000/svg" viewBox="0 0 16 16"><title>画板 34</title><rect width="14" height="15" style="fill:#fff"/><path d="M14,0H13V1h0V2h1V0ZM12,0H11V1h1V0ZM10,0H9V1h1V0ZM8,0H7V1H8V0ZM6,0H5V1H6V0ZM4,0H3V1H4V0ZM2,0H0V1H2V0ZM1,2H0V3H1V2ZM1,4H0V5H1V4ZM1,6H0V7H1V6ZM1,8H0V9H1V8Zm0,2H0v1H1V10Zm0,2H0v1H1V12Zm0,2H0v1H1V14Zm1,0H1v1H2V14Zm2,0H3v1H4V14Zm2,0H5v1H6V14Zm2,0H7v1H8V14Zm2,0H9v1h1V14Zm2,0H11v1h1V14Zm2,0H13v1h1V14Zm0-1H13v1h1V13Zm0-2H13v1h1V11Zm0-2H13v1h1V9Zm0-2H13V8h1V7Zm0-2H13V6h1V5Zm0-2H13V4h1V3Z" style="fill:gray"/><path d="M10,4v7H4V4h6m0-1H4A1,1,0,0,0,3,4v7a1,1,0,0,0,1,1h6a1,1,0,0,0,1-1V4a1,1,0,0,0-1-1Z" style="fill:#b1b1b1"/><polygon points="11 7 3 7 3 8 11 8 11 7 11 7" style="fill:#b1b1b1"/><polygon points="9 5 5 5 5 6 9 6 9 5 9 5" style="fill:#b1b1b1"/><polygon points="9 9 5 9 5 10 9 10 9 9 9 9" style="fill:#b1b1b1"/><circle cx="11.5" cy="11.5" r="4.5" style="fill:#4d84ba"/><rect x="9" y="11" width="5" height="1" style="fill:#fff"/><rect x="9" y="11" width="5" height="1" transform="translate(0 23) rotate(-90)" style="fill:#fff"/></svg>