<svg id="图层_1" data-name="图层 1" xmlns="http://www.w3.org/2000/svg" viewBox="0 0 16 16"><title>画板 13-V</title><rect x="0.5" y="0.5" width="15" height="15" rx="0.5" ry="0.5" style="fill:#fff"/><path d="M15,1V15H1V1H15m0-1H1A1,1,0,0,0,0,1V15a1,1,0,0,0,1,1H15a1,1,0,0,0,1-1V1a1,1,0,0,0-1-1Z" style="fill:gray"/><circle cx="3.5" cy="3.5" r="1.5" style="fill:#4d84ba"/><circle cx="3.5" cy="7.5" r="1.5" style="fill:#4d84ba"/><circle cx="3.5" cy="11.5" r="1.5" style="fill:#4d84ba"/><rect x="6" y="3" width="8" height="1" rx="0.5" ry="0.5" style="fill:#b1b1b1"/><rect x="6" y="7" width="8" height="1" rx="0.5" ry="0.5" style="fill:#b1b1b1"/><rect x="6" y="11" width="8" height="1" rx="0.5" ry="0.5" style="fill:#b1b1b1"/></svg>