<?xml version="1.0" standalone="no"?><!DOCTYPE svg PUBLIC "-//W3C//DTD SVG 1.1//EN" "http://www.w3.org/Graphics/SVG/1.1/DTD/svg11.dtd"><svg t="1575872438077" class="icon" viewBox="0 0 1024 1024" version="1.1" xmlns="http://www.w3.org/2000/svg" p-id="2559" xmlns:xlink="http://www.w3.org/1999/xlink" width="200" height="200"><defs><style type="text/css"></style></defs><path d="M1001.951626 1001.951626H22.048374V22.048374h979.903252v979.903252" fill="#FFFFFF" p-id="2560"></path><path d="M1001.951626 1024H22.048374a22.048374 22.048374 0 0 1-22.048374-22.048374V22.048374a22.048374 22.048374 0 0 1 22.048374-22.048374h979.903252a22.048374 22.048374 0 0 1 22.048374 22.048374v979.903252a22.048374 22.048374 0 0 1-22.048374 22.048374zM44.096749 979.903251h935.806502V44.096749H44.096749z" fill="#888888" p-id="2561"></path><path d="M22.048374 22.048374h979.903252v256.643078H22.048374z" fill="#04BEBD" p-id="2562"></path><path d="M1001.951626 300.739826H22.048374a22.048374 22.048374 0 0 1-22.048374-22.048374V22.048374a22.048374 22.048374 0 0 1 22.048374-22.048374h979.903252a22.048374 22.048374 0 0 1 22.048374 22.048374v256.643078a22.048374 22.048374 0 0 1-22.048374 22.048374zM44.096749 256.643078h935.806502V44.096749H44.096749z" fill="#888888" p-id="2563"></path><path d="M901.190555 546.72619H119.722673a22.048374 22.048374 0 0 1 0-44.096749h781.467882a22.048374 22.048374 0 0 1 0 44.096749zM901.190555 784.334171H119.722673a22.048374 22.048374 0 1 1 0-44.096749h781.467882a22.048374 22.048374 0 0 1 0 44.096749z" fill="#CCCCCC" p-id="2564"></path><path d="M673.357353 932.352257a22.048374 22.048374 0 0 1-22.048374-22.048374v-540.185172a22.048374 22.048374 0 0 1 44.096748 0v540.185172a22.048374 22.048374 0 0 1-22.048374 22.048374zM347.555875 932.352257a22.048374 22.048374 0 0 1-22.048375-22.048374v-540.185172a22.048374 22.048374 0 0 1 44.096749 0v540.185172a22.048374 22.048374 0 0 1-22.048374 22.048374z" fill="#CCCCCC" p-id="2565"></path></svg>