<svg id="图层_1" data-name="图层 1" xmlns="http://www.w3.org/2000/svg" viewBox="0 0 16 16"><title>画板 40</title><polygon points="0.5 15.5 0.5 0.5 8.79 0.5 12.5 4.21 12.5 15.5 0.5 15.5" style="fill:#fff"/><path d="M8.59,1,12,4.41V15H1V1H8.59M9,0H0V16H13V4L9,0Z" style="fill:gray"/><rect x="2" y="3" width="5" height="2" style="fill:#de673e"/><polygon points="9 0 8 0 8 5 9 5 9 0 9 0" style="fill:gray"/><rect x="8" y="4" width="5" height="1" style="fill:#fff"/><polygon points="13 4 8 4 8 5 13 5 13 4 13 4" style="fill:gray"/><rect x="2" y="7" width="9" height="1" rx="0.5" ry="0.5" style="fill:#b1b1b1"/><rect x="2" y="10" width="6" height="1" rx="0.5" ry="0.5" style="fill:#b1b1b1"/><rect x="14.02" y="12.58" width="0.96" height="3.85" rx="0.48" ry="0.48" transform="translate(-6.01 14.5) rotate(-45)" style="fill:#4d84ba"/><circle cx="11.5" cy="11.5" r="3" style="fill:#fff"/><path d="M11.5,9A2.5,2.5,0,1,1,9,11.5,2.5,2.5,0,0,1,11.5,9m0-1A3.5,3.5,0,1,0,15,11.5,3.5,3.5,0,0,0,11.5,8Z" style="fill:#4d84ba"/><rect x="2" y="13" width="4" height="1" rx="0.5" ry="0.5" style="fill:#b1b1b1"/></svg>