<svg id="图层_1" data-name="图层 1" xmlns="http://www.w3.org/2000/svg" viewBox="0 0 16 16"><title>画板 14</title><path d="M-139.07,10a.32.32,0,0,1-.23-.09l-2.15-2.15a.32.32,0,0,1,0-.45.32.32,0,0,1,.45,0l1.93,1.93,4-4a.32.32,0,0,1,.45,0,.32.32,0,0,1,0,.45l-4.21,4.21a.32.32,0,0,1-.23.09Zm289-36a.32.32,0,0,1-.23-.09l-2.15-2.15a.32.32,0,0,1,0-.45.32.32,0,0,1,.45,0l1.93,1.93,4-4a.32.32,0,0,1,.45,0,.32.32,0,0,1,0,.45l-4.21,4.21a.32.32,0,0,1-.23.09Zm-289,36" style="fill:#b1b1b1"/><rect width="7" height="7" style="fill:#4d84ba"/><rect x="0.5" y="9.5" width="6" height="6" style="fill:#fff"/><path d="M6,10v5H1V10H6M7,9H0v7H7V9Z" style="fill:gray"/><polyline points="8 6 12 0 16 6 13 6 13 16 11 16 11 6 8 6" style="fill:gray"/></svg>