<svg id="图层_1" data-name="图层 1" xmlns="http://www.w3.org/2000/svg" viewBox="0 0 16 16"><title>画板 11</title><path d="M8,15.5c-3.83,0-6.5-1.32-6.5-2.5S4.17,10.5,8,10.5s6.5,1.32,6.5,2.5S11.83,15.5,8,15.5Z" style="fill:#fff"/><path d="M8,11c3.72,0,6,1.29,6,2s-2.28,2-6,2-6-1.29-6-2,2.28-2,6-2m0-1c-3.87,0-7,1.34-7,3s3.13,3,7,3,7-1.34,7-3-3.13-3-7-3Z" style="fill:#4d84ba"/><path d="M15,3c0-1-3.13-3-7-3S1,2,1,3v9.86l.08.14c.49,1.7,3.39,3,6.92,3s6.43-1.3,6.92-3l.08-.27V3Z" style="fill:#4d84ba"/><path d="M8,5.5C4.17,5.5,1.5,4.18,1.5,3S4.17.5,8,.5,14.5,1.82,14.5,3,11.83,5.5,8,5.5Z" style="fill:#fff"/><path d="M8,1c3.72,0,6,1.29,6,2S11.72,5,8,5,2,3.71,2,3,4.28,1,8,1M8,0C4.13,0,1,1.34,1,3S4.13,6,8,6s7-1.34,7-3S11.87,0,8,0Z" style="fill:#4d84ba"/><path d="M14,6c0,1.1-2.69,2-6,2S2,7.1,2,6V7.54A11,11,0,0,0,8,9a11,11,0,0,0,6-1.46Z" style="fill:#fff"/><path d="M14,10c0,1.1-2.69,2-6,2s-6-.9-6-2v1.54A11,11,0,0,0,8,13a11,11,0,0,0,6-1.46Z" style="fill:#fff"/></svg>