<svg id="图层_1" data-name="图层 1" xmlns="http://www.w3.org/2000/svg" viewBox="0 0 32 32"><title>画板 2</title><path d="M3.85,17.09A2.17,2.17,0,0,1,7,17L9.6,19.6a1.28,1.28,0,0,0,2,.12c.32-.37.19-1.52.1-2.24L10.36,6.79a1.75,1.75,0,1,1,3.47-.42l1.44,8.39c.08.21.24.24.25,0L16,3.81a1.75,1.75,0,0,1,3.49,0l0,11c0,.13.1.16.12,0l1.56-8.4a1.73,1.73,0,1,1,3.42.44l-1.38,10c0,.18.06.28.14.05l2.11-5.3a1.79,1.79,0,0,1,2.18-1.31,1.82,1.82,0,0,1,1.25,2.18L25.14,24.4l-.06.19v0h0a7.69,7.69,0,0,1-7.32,5.3,10.42,10.42,0,0,1-6.19-2.09h0c-1.87-1.12-7.85-7.55-7.85-7.55A2.22,2.22,0,0,1,3.85,17.09ZM3,17.16" style="fill:#fff;stroke:gray;stroke-miterlimit:10"/></svg>