<svg id="图层_1" data-name="图层 1" xmlns="http://www.w3.org/2000/svg" viewBox="0 0 32 32"><title>画板 9</title><rect x="1" y="1" width="30" height="30" style="fill:#fff"/><path d="M16,27A11,11,0,1,1,27,16,11,11,0,0,1,16,27ZM16,6A10,10,0,1,0,26,16,10,10,0,0,0,16,6Zm0,0" style="fill:gray"/><path d="M26.3,16.51H23.2a.51.51,0,1,1,0-1H26.3a.51.51,0,1,1,0,1Zm0,0" style="fill:gray"/><path d="M8.77,16.51H5.67a.51.51,0,1,1,0-1H8.77a.51.51,0,1,1,0,1Zm0,0" style="fill:gray"/><path d="M16,26.81a.52.52,0,0,1-.52-.51V23.23a.52.52,0,0,1,1,0V26.3a.52.52,0,0,1-.52.51Zm0,0" style="fill:gray"/><path d="M16,9.28a.52.52,0,0,1-.52-.51V5.7a.52.52,0,0,1,1,0V8.76a.52.52,0,0,1-.52.51Zm0,0" style="fill:gray"/><polygon points="30 1 22 1 22 2 30 2 30 10 31 10 31 2 31 1 30 1" style="fill:gray"/><polygon points="1 2 1 10 2 10 2 2 10 2 10 1 2 1 1 1 1 2" style="fill:gray"/><polygon points="1 30 1 22 2 22 2 30 10 30 10 31 2 31 1 31 1 30" style="fill:gray"/><polygon points="31 30 31 22 30 22 30 30 22 30 22 31 30 31 31 31 31 30" style="fill:gray"/><path d="M17,11v2H15V11Zm-2,3h2v7H15Z" style="fill:#4d84ba"/></svg>