<svg id="图层_1" data-name="图层 1" xmlns="http://www.w3.org/2000/svg" viewBox="0 0 32 32"><title>画板 37</title><path d="M5.92,28.5A4.42,4.42,0,0,1,1.5,24.08V9.95A6.46,6.46,0,0,1,7.95,3.5h17.9A1.66,1.66,0,0,1,27.5,5.16V26.84a1.66,1.66,0,0,1-1.66,1.66Z" style="fill:#fff"/><path d="M25.84,4A1.16,1.16,0,0,1,27,5.16V26.84A1.16,1.16,0,0,1,25.84,28H5.92A3.92,3.92,0,0,1,2,24.08V9.95A6,6,0,0,1,7.95,4h17.9m0-1H7.95A7,7,0,0,0,1,9.95V24.08A4.93,4.93,0,0,0,5.92,29H25.84A2.16,2.16,0,0,0,28,26.84V5.16A2.16,2.16,0,0,0,25.84,3Z" style="fill:gray"/><path d="M8.5,23.54A5.82,5.82,0,0,0,5,21.5H4.81a4.71,4.71,0,0,0-3.3,1.9V5.06A3.53,3.53,0,0,1,5,1.5,3.53,3.53,0,0,1,8.5,5.06Z" style="fill:#fff"/><path d="M5,2A3,3,0,0,1,8,5.06V22.37A5.41,5.41,0,0,0,5.09,21H4.81A4.39,4.39,0,0,0,2,22.19V5.06A3,3,0,0,1,5,2M5,1A4,4,0,0,0,1,5.06V25c.11-.29,1.82-3,3.8-3H5c2.14.2,4,2.91,4,3V5.06A4,4,0,0,0,5,1ZM1,25s0,0,0,0H1v0Zm8,0H9Z" style="fill:gray"/><polyline points="16 4 16 12 19 15 22 12.25 22 4 16 4" style="fill:#eec97f"/><path d="M29.24,24.74c0-.21.07-.42.07-.7a2.13,2.13,0,0,0-.07-.7l1.5-1.2a.33.33,0,0,0,.07-.42l-1.43-2.46a.41.41,0,0,0-.43-.07l-1.79.7a6.87,6.87,0,0,0-1.21-.7l-.29-1.83c.07-.21-.14-.35-.29-.35H22.53c-.14,0-.36.14-.36.28l-.29,1.9a5.41,5.41,0,0,0-1.21.7L19,19.18a.45.45,0,0,0-.5.14L17,21.78c-.07.07,0,.28.14.42l1.5,1.13c0,.21-.07.42-.07.7a2.15,2.15,0,0,0,.07.7l-1.5,1.2a.33.33,0,0,0-.07.42l1.43,2.46a.4.4,0,0,0,.43.07l1.79-.7a6.81,6.81,0,0,0,1.21.7l.29,1.83a.33.33,0,0,0,.36.28h2.86c.14,0,.36-.14.36-.28l.29-1.83a6.84,6.84,0,0,0,1.21-.7l1.79.7a.35.35,0,0,0,.43-.14L31,26.29c.07-.14.07-.35-.07-.42ZM24,26.5A2.46,2.46,0,1,1,26.45,24,2.51,2.51,0,0,1,24,26.5" style="fill:#4d84ba"/></svg>