<?xml version="1.0" standalone="no"?><!DOCTYPE svg PUBLIC "-//W3C//DTD SVG 1.1//EN" "http://www.w3.org/Graphics/SVG/1.1/DTD/svg11.dtd"><svg t="1571125262065" class="icon" viewBox="0 0 1024 1024" version="1.1" xmlns="http://www.w3.org/2000/svg" p-id="2833" xmlns:xlink="http://www.w3.org/1999/xlink" width="200" height="200"><defs><style type="text/css"></style></defs><path d="M512 184.6c-15 0-27.1 14.8-27.1 33V833c0 18.2 12.1 33 27.1 33 14.4 0 26.2-13.7 27.1-31V215.5c-0.9-17.2-12.7-30.9-27.1-30.9zM388 279.3l-180.9-70.9c-6.7-2.6-14.3-1.8-20.3 2.3-6 4-9.6 10.8-9.7 18v566.2c0 5.8 2.3 11.4 6.4 15.5 4.1 4.1 9.7 6.4 15.5 6.3 2.8 0 5.5-0.5 8.1-1.5l180.9-71c8.4-3.2 13.9-11.3 13.9-20.3V299.6c-0.1-9-5.6-17.1-13.9-20.3zM358 709l-137 53.7v-502l137 53.7V709zM837.2 210.6c-6-4-13.6-4.9-20.4-2.3l-180.8 71c-8.4 3.3-13.9 11.3-13.9 20.3v424.3c0 9 5.5 17.1 13.9 20.3l180.8 71c2.6 1 5.3 1.5 8.1 1.5 5.8 0.1 11.4-2.2 15.5-6.3s6.4-9.7 6.4-15.5V228.6c0-7.2-3.6-13.9-9.6-18z m-34.1 552.1L666 709V314.4l137-53.7v502z" fill="#515151" p-id="2834"></path></svg>