<svg id="图层_1" data-name="图层 1" xmlns="http://www.w3.org/2000/svg" viewBox="0 0 32 32"><title>画板 2</title><rect x="1.5" y="1.5" width="29" height="29" rx="1.5" ry="1.5" style="fill:#fff"/><path d="M29,2a1,1,0,0,1,1,1V29a1,1,0,0,1-1,1H3a1,1,0,0,1-1-1V3A1,1,0,0,1,3,2H29m0-1H3A2,2,0,0,0,1,3V29a2,2,0,0,0,2,2H29a2,2,0,0,0,2-2V3a2,2,0,0,0-2-2Z" style="fill:gray"/><path d="M27.31,20.48h0L23,18.74V19H21.05l5.82,2.32a.19.19,0,0,1,0,.35L16.08,26a.21.21,0,0,1-.16,0L5.12,21.68a.19.19,0,0,1,0-.35L10.95,19H9v-.26L4.69,20.48h0a1.09,1.09,0,0,0,0,2l10.87,4.4h0a1.13,1.13,0,0,0,.86,0h0l10.87-4.4a1.09,1.09,0,0,0,0-2Z" style="fill:#eec97f"/><path d="M27.31,15.48h0L23,13.74V14H21.05l5.82,2.32a.19.19,0,0,1,0,.35L16.08,21a.21.21,0,0,1-.16,0L5.12,16.68a.19.19,0,0,1,0-.35L10.95,14H9v-.26L4.69,15.48h0a1.09,1.09,0,0,0,0,2l10.87,4.4h0a1.13,1.13,0,0,0,.86,0h0l10.87-4.4a1.09,1.09,0,0,0,0-2Z" style="fill:#5da58e"/><path d="M27.31,10.48h0L16.44,6.09h0A1.15,1.15,0,0,0,16,6a1.16,1.16,0,0,0-.43.08h0L4.69,10.48h0a1.09,1.09,0,0,0,0,2l10.87,4.4h0a1.13,1.13,0,0,0,.86,0h0l10.87-4.4a1.09,1.09,0,0,0,0-2Z" style="fill:#4d84ba"/></svg>