<?xml version="1.0" standalone="no"?><!DOCTYPE svg PUBLIC "-//W3C//DTD SVG 1.1//EN" "http://www.w3.org/Graphics/SVG/1.1/DTD/svg11.dtd"><svg t="1545989915879" class="icon" style="" viewBox="0 0 1024 1024" version="1.1" xmlns="http://www.w3.org/2000/svg" p-id="6449" xmlns:xlink="http://www.w3.org/1999/xlink" width="64" height="64"><defs><style type="text/css"></style></defs><path d="M536.545997 67.185034c-6.281041-6.285134-14.956614-10.178806-24.54395-10.178806-9.589383 0-18.265979 3.897766-24.545997 10.182899-6.273878 6.243179-10.160387 14.922844-10.160387 24.521438s3.886509 18.278259 10.160387 24.563393a34.792341 34.792341 0 0 0 22.758284 10.104105h3.572355a34.761642 34.761642 0 0 0 22.759308-10.104105c6.273878-6.285134 10.160387-14.960707 10.160387-24.563393s-3.886509-18.278259-10.160387-24.521438v-0.004093z m-24.544974-48.738953c22.360219 0 42.604245 1.347692 57.260007 16.004477 14.648599 14.648599 23.71712 34.896718 23.717121 57.26103h92.544558V207.393053H338.477291V91.710565h92.545581c0-22.364312 9.067498-42.608338 23.727354-57.261031 14.644506-14.655762 34.888532-16.003454 57.250797-16.003453zM207.161786 126.378063h100.468002v46.268697h-100.468002c-8.465795 0-16.170252 3.475141-21.772842 9.063405-5.59645 5.629196-9.075685 13.303977-9.075685 21.788192V928.433625c0 16.886565 13.932286 30.848527 30.848527 30.848527h609.677451c16.907031 0 30.848527-13.960939 30.848527-30.848527V203.494264c0-8.442259-3.479234-16.150809-9.082847-21.785122-5.595427-5.591334-13.308071-9.060335-21.76568-9.060335l-100.468001-0.004093V126.378063h100.468001c21.230491 0 40.518751 8.676596 54.481737 22.635488 13.970148 13.955822 22.638558 33.239989 22.638558 54.485829V928.433625c0 42.412887-34.674661 77.121318-77.120295 77.121318l-609.677451-0.004094c-42.454843 0-77.121318-34.662382-77.121318-77.117224V203.494264c0-21.245841 8.669433-40.522844 22.632418-54.481737 13.970148-13.958892 33.257385-22.634465 54.4889-22.634464z" fill="#1296db" p-id="6450"></path><path d="M288.356877 797.324827h447.288292v30.848527H288.356877v-30.848527z m-0.008186-285.306408h70.591614l45.654714-113.519222c3.163033-7.908094 12.117968-11.722972 20.002527-8.55994a15.329096 15.329096 0 0 1 8.654083 8.78916h0.021489l68.569565 179.07311 61.529232-236.337211c2.131543-8.213039 10.52059-13.146388 18.737722-11.026102 4.805436 1.235128 8.481145 4.627381 10.2883 8.867954h0.01535l72.391606 168.856441h70.840276v30.848527h-80.969964v-0.036839c-5.987353 0-11.67283-3.509933-14.158436-9.369372l-58.70696-136.930376-62.051117 238.34391c-0.962929 5.088892-4.465699 9.561754-9.656921 11.530592-7.95005 3.04433-16.855866-0.962929-19.8828-8.907863L418.512979 446.355039l-34.48535 85.754934c-1.973954 6.247272-7.810881 10.763113-14.701811 10.763113l-80.977127-0.004093v-30.850574z m0.008186 204.333374h447.288292v30.844434H288.356877v-30.844434z" fill="#1296db" p-id="6451"></path></svg>