<?xml version="1.0" standalone="no"?><!DOCTYPE svg PUBLIC "-//W3C//DTD SVG 1.1//EN" "http://www.w3.org/Graphics/SVG/1.1/DTD/svg11.dtd"><svg t="1585723578078" class="icon" viewBox="0 0 1024 1024" version="1.1" xmlns="http://www.w3.org/2000/svg" p-id="1826" xmlns:xlink="http://www.w3.org/1999/xlink" width="200" height="200"><defs><style type="text/css"></style></defs><path d="M840.5 900.3h-657c-16.5 0-29.9 13.4-29.9 29.9s13.4 29.9 29.9 29.9h657.1c16.5 0 29.9-13.4 29.9-29.9-0.1-16.6-13.5-29.9-30-29.9zM631.5 123.7V541.8H763.1L512 769.9l-251.2-228h131.7V123.7h239m0-59.7h-239c-33 0-59.7 26.7-59.7 59.7v358.4H183.5c-26.6 0-39.9 32.2-21.1 51l328.5 298.2c5.8 5.8 13.5 8.7 21.1 8.7s15.3-2.9 21.1-8.7l328.5-298.2c18.8-18.8 5.5-51-21.1-51H691.2V123.7c0-33-26.7-59.7-59.7-59.7z" p-id="1827"></path></svg>