<svg id="图层_1" data-name="图层 1" xmlns="http://www.w3.org/2000/svg" viewBox="0 0 16 16"><title>画板 6</title><path d="M2,15.5a.5.5,0,0,1-.5-.5V1a.5.5,0,0,1,1,0V2.12l.65-.2A8.89,8.89,0,0,1,5.76,1.5a6.1,6.1,0,0,1,2.79.63,5.36,5.36,0,0,0,2.34.41,18.31,18.31,0,0,0,3.58-.41l0,7.73a8.28,8.28,0,0,1-3.07.64,4.83,4.83,0,0,1-2.51-.63,5.21,5.21,0,0,0-2.68-.62,12.38,12.38,0,0,0-3.38.54l-.35.11V15A.5.5,0,0,1,2,15.5Z" style="fill:#fff"/><path d="M5.76,2a5.61,5.61,0,0,1,2.56.58A5.74,5.74,0,0,0,10.89,3,18.33,18.33,0,0,0,14,2.73V9.52a7.9,7.9,0,0,1-2.57.48,4.34,4.34,0,0,1-2.26-.56,5.7,5.7,0,0,0-2.94-.69,12.89,12.89,0,0,0-3.53.56L2,9.52V2.8l1.3-.41A8.38,8.38,0,0,1,5.76,2M2,0A1,1,0,0,0,1,1V15a1,1,0,0,0,2,0V10.26a11.86,11.86,0,0,1,3.24-.52,4.78,4.78,0,0,1,2.43.55,5.36,5.36,0,0,0,2.77.7,8.86,8.86,0,0,0,3.27-.68.52.52,0,0,0,.3-.46V2.13a.51.51,0,0,0-.2-.39.53.53,0,0,0-.32-.1h-.12a17.7,17.7,0,0,1-3.47.4,5,5,0,0,1-2.12-.36,6.62,6.62,0,0,0-3-.68A9.39,9.39,0,0,0,3,1.44V1A1,1,0,0,0,2,0Z" style="fill:#4d84ba"/><rect x="1" width="2" height="16" rx="1" ry="1" style="fill:#4d84ba"/></svg>