<svg id="图层_1" data-name="图层 1" xmlns="http://www.w3.org/2000/svg" viewBox="0 0 16 16"><title>画板 26</title><rect x="4" y="13" width="11" height="1" rx="0.5" ry="0.5" style="fill:#4d84ba"/><rect x="4" y="9" width="11" height="1" rx="0.5" ry="0.5" style="fill:#4d84ba"/><circle cx="11.5" cy="11.5" r="4.5" style="fill:#4d84ba"/><polygon points="14 11 12 11 12 9 11 9 11 11 9 11 9 12 11 12 11 14 12 14 12 12 14 12 14 11" style="fill:#fff"/><circle cx="1.5" cy="1.5" r="1.5" style="fill:#4d84ba"/><circle cx="1.5" cy="5.5" r="1.5" style="fill:#4d84ba"/><circle cx="1.5" cy="9.5" r="1.5" style="fill:#4d84ba"/><circle cx="1.5" cy="13.5" r="1.5" style="fill:#4d84ba"/><rect x="4" y="1" width="12" height="1" rx="0.5" ry="0.5" style="fill:#4d84ba"/><rect x="4" y="5" width="12" height="1" rx="0.5" ry="0.5" style="fill:#4d84ba"/></svg>