<?xml version="1.0" standalone="no"?><!DOCTYPE svg PUBLIC "-//W3C//DTD SVG 1.1//EN" "http://www.w3.org/Graphics/SVG/1.1/DTD/svg11.dtd"><svg t="1568886863639" class="icon" viewBox="0 0 1024 1024" version="1.1" xmlns="http://www.w3.org/2000/svg" p-id="1493" xmlns:xlink="http://www.w3.org/1999/xlink" width="32" height="32"><defs><style type="text/css"></style></defs><path d="M456.032 428.076c247.27 0 419.731-62.662 419.731-139.924v-83.925c0-77.253-172.462-139.923-419.731-139.923-247.268 0-391.73 62.67-391.73 139.923v83.925c0.001 77.262 144.463 139.924 391.73 139.924zM405.239 762.847c-169.815-6.302-269-45.057-321.136-96.94-13.304 13.261-19.8 27.348-19.8 41.993v111.925c0 77.254 144.462 139.872 391.73 139.872 24.745 0 48.844-0.774 72.51-2.002-63.525-45.668-108.852-114.799-123.304-194.848zM400.136 706.637c0.297-73.97 26.625-141.805 70.385-194.724-5.312 0.026-10.43 0.087-15.898 0.087-200.462 0-313.492-41.166-370.521-97.942-13.304 13.287-19.8 27.366-19.8 41.993v111.932c0.001 71.178 122.975 129.895 335.834 138.654zM707.865 456.05c-139.081 0-251.833 112.743-251.833 251.849 0 139.071 112.752 251.797 251.833 251.797 139.08 0 251.83-112.725 251.83-251.797 0-139.106-112.75-251.848-251.83-251.848z m157.451 275.54H731.561l-0.014 133.743h-47.4V731.59H550.413v-47.406l133.734 0.004V550.43h47.435l-0.015 133.757 133.75 0.004v47.398z" p-id="1494" fill="#4d84ba"></path></svg>