<?xml version="1.0" standalone="no"?><!DOCTYPE svg PUBLIC "-//W3C//DTD SVG 1.1//EN" "http://www.w3.org/Graphics/SVG/1.1/DTD/svg11.dtd"><svg t="1574926430196" class="icon" viewBox="0 0 1024 1024" version="1.1" xmlns="http://www.w3.org/2000/svg" p-id="3013" xmlns:xlink="http://www.w3.org/1999/xlink" width="200" height="200"><defs><style type="text/css"></style></defs><path d="M192 256v29h9.9c-6.5-9.3-9.9-19-9.9-29z m384 128c-41.9 0-82.3-2.2-120-6.4L590.2 512 467.5 634.8c34.4 3.4 70.8 5.2 108.5 5.2 212.1 0 384-57.3 384-128V256c0 70.7-171.9 128-384 128z m-263.9-99h51.3l17.2 17.2c57.2 11.3 124 17.8 195.4 17.8 212.1 0 384-57.3 384-128S788.1 64 576 64s-384 57.3-384 128c0 36.6 46.2 69.7 120.1 93zM576 704c-59.1 0-115.2-4.5-165.2-12.4L363.4 739H192v93c0 70.7 171.9 128 384 128s384-57.3 384-128V576c0 70.7-171.9 128-384 128z" fill="#E6C27C" p-id="3014"></path><path d="M336.9 349H198.6l98.9 98.9H64v128.2h233.5L198.6 675h138.3l162.9-163z" fill="#497CAD" p-id="3015"></path></svg>