<?xml version="1.0" standalone="no"?><!DOCTYPE svg PUBLIC "-//W3C//DTD SVG 1.1//EN" "http://www.w3.org/Graphics/SVG/1.1/DTD/svg11.dtd"><svg t="1605357609437" class="icon" viewBox="0 0 1024 1024" version="1.1" xmlns="http://www.w3.org/2000/svg" p-id="4267" xmlns:xlink="http://www.w3.org/1999/xlink" width="200" height="200"><defs><style type="text/css"></style></defs><path d="M297.6 469.304889L74.481778 551.304533l172.544 122.057956 137.602844-136.256-87.035733-67.803022z" fill="#4DB6AC" p-id="4268"></path><path d="M682.936889 101.612089c-18.663822 2.537244-13.603556 1.440711-40.391111 22.884978-25.6128 20.504178-99.448889 142.72-138.914134 183.836444-35.111822 36.580978-49.009778 17.349689-85.4784 47.873422-36.522667 30.569244-92.832711 91.682133-92.832711 91.682134l90.990934 67.298133 144.256-198.371556c34.059378-46.836622 33.696711-53.000533 52.256711-102.145422 9.080889-24.044089 25.258667-42.523022 39.4752-65.149155 17.760711-28.265244 42.9312-49.571556 30.638933-47.900445z" fill="#00897B" p-id="4269"></path><path d="M680.120889 99.265422c-44.468622-0.267378-88.274489 195.2-164.352 345.159111-77.572267 152.917333-230.741333 251.477333-230.741333 251.477334 25.823289 11.723378 49.325511 6.983111 77.135644 33.272889 19.022222 22.9888 74.084978 136.497778 106.914133 207.815111 0 0 26.972444-14.644622 61.147023-39.387023 34.176-24.743822 75.554133-59.586844 104.368355-99.983644 38.235022-53.6064 68.120178-86.815289 93.444267-107.052089s46.085689-27.500089 66.075022-29.212444c71.448178-6.122667 177.180444 122.015289 177.180444 122.015289S749.895111 99.693511 680.106667 99.266844z" fill="#FFB74D" p-id="4270"></path></svg>