<svg id="图层_1" data-name="图层 1" xmlns="http://www.w3.org/2000/svg" viewBox="0 0 32 32"><title>画板 5 副本 3</title><path d="M2,30.5a.5.5,0,0,1-.5-.5V2A.5.5,0,0,1,2,1.5H12a.5.5,0,0,1,.5.5V19.5H30a.5.5,0,0,1,.5.5V30a.5.5,0,0,1-.5.5Z" style="fill:#fff"/><path d="M12,2V20H30V30H2V2H12m0-1H2A1,1,0,0,0,1,2V30a1,1,0,0,0,1,1H30a1,1,0,0,0,1-1V20a1,1,0,0,0-1-1H13V2a1,1,0,0,0-1-1Z" style="fill:gray"/><rect x="6" y="3" width="6" height="1" style="fill:#4d84ba"/><rect x="6" y="11" width="6" height="1" style="fill:#4d84ba"/><rect x="2" y="19" width="10" height="1" style="fill:#b1b1b1"/><rect x="9" y="5" width="3" height="1" style="fill:#4d84ba"/><rect x="9" y="7" width="3" height="1" style="fill:#4d84ba"/><rect x="9" y="9" width="3" height="1" style="fill:#4d84ba"/><rect x="9" y="13" width="3" height="1" style="fill:#4d84ba"/><rect x="9" y="15" width="3" height="1" style="fill:#4d84ba"/><rect x="9" y="17" width="3" height="1" style="fill:#4d84ba"/><rect x="11" y="20" width="1" height="10" style="fill:#b1b1b1"/><rect x="19" y="20" width="1" height="6" style="fill:#4d84ba"/><rect x="27" y="20" width="1" height="6" style="fill:#4d84ba"/><rect x="13" y="20" width="1" height="3" style="fill:#4d84ba"/><rect x="15" y="20" width="1" height="3" style="fill:#4d84ba"/><rect x="17" y="20" width="1" height="3" style="fill:#4d84ba"/><rect x="21" y="20" width="1" height="3" style="fill:#4d84ba"/><rect x="23" y="20" width="1" height="3" style="fill:#4d84ba"/><rect x="25" y="20" width="1" height="3" style="fill:#4d84ba"/></svg>