<?xml version="1.0" standalone="no"?><!DOCTYPE svg PUBLIC "-//W3C//DTD SVG 1.1//EN" "http://www.w3.org/Graphics/SVG/1.1/DTD/svg11.dtd"><svg t="1605447883656" class="icon" viewBox="0 0 1024 1024" version="1.1" xmlns="http://www.w3.org/2000/svg" p-id="11290" xmlns:xlink="http://www.w3.org/1999/xlink" width="200" height="200"><defs><style type="text/css"></style></defs><path d="M109.312 256v576h64V256h-64z m763.584 0v576h64V256h-64zM173.312 64h256a64 64 0 0 1 64 64v832a64 64 0 0 1-64 64h-256a64 64 0 0 1-64-64V128a64 64 0 0 1 64-64z m443.584 0h256a64 64 0 0 1 64 64v832a64 64 0 0 1-64 64h-256a64 64 0 0 1-64-64V128a64 64 0 0 1 64-64zM173.312 128v832h256V128h-256z m443.584 0v832h256V128h-256z" fill="#1296db" p-id="11291"></path><path d="M815.552 498.752h167.744a32 32 0 1 1 0 64h-172.288l64.64 64.64a32 32 0 0 1-45.248 45.248l-117.056-116.992a31.872 31.872 0 0 1 0-45.248l117.056-117.056a32 32 0 0 1 45.248 45.312l-60.16 60.096zM199.744 473.344H32a32 32 0 1 0 0 64h172.288l-64.64 64.64a32 32 0 1 0 45.248 45.312l117.056-116.992a31.872 31.872 0 0 0 0-45.312L184.896 368a32 32 0 1 0-45.248 45.248l60.16 60.16z" fill="#1296db" p-id="11292"></path></svg>