<?xml version="1.0" standalone="no"?><!DOCTYPE svg PUBLIC "-//W3C//DTD SVG 1.1//EN" "http://www.w3.org/Graphics/SVG/1.1/DTD/svg11.dtd"><svg t="1605447902310" class="icon" viewBox="0 0 1024 1024" version="1.1" xmlns="http://www.w3.org/2000/svg" p-id="11479" xmlns:xlink="http://www.w3.org/1999/xlink" width="200" height="200"><defs><style type="text/css"></style></defs><path d="M256 96v64h512v-64H256z m-123.072 0h758.144c38.08 0 68.928 28.672 68.928 64v256c0 35.328-30.848 64-68.928 64H132.928C94.848 480 64 451.328 64 416v-256c0-35.328 30.848-64 68.928-64zM128 160v256h768v-256H128z m128 704v64h512v-64H256z m-123.072-320h758.144c38.08 0 68.928 28.672 68.928 64v256c0 35.328-30.848 64-68.928 64H132.928c-38.08 0-68.928-28.672-68.928-64v-256c0-35.328 30.848-64 68.928-64zM128 608v256h768v-256H128z" fill="#1296db" p-id="11480"></path><path d="M498.752 231.744V64a32 32 0 1 1 64 0v172.288l64.64-64.64a32 32 0 1 1 45.248 45.248L555.648 333.952a31.872 31.872 0 0 1-45.248 0L393.344 216.896a32 32 0 1 1 45.312-45.248l60.096 60.16zM498.752 815.552v167.744a32 32 0 1 0 64 0v-172.288l64.64 64.64a32 32 0 0 0 45.248-45.248l-116.992-117.056a31.872 31.872 0 0 0-45.248 0l-117.056 117.056a32 32 0 0 0 45.312 45.248l60.096-60.16z" fill="#1296db" p-id="11481"></path></svg>