<?xml version="1.0" standalone="no"?><!DOCTYPE svg PUBLIC "-//W3C//DTD SVG 1.1//EN" "http://www.w3.org/Graphics/SVG/1.1/DTD/svg11.dtd"><svg t="1534229430229" class="icon" style="" viewBox="0 0 1024 1024" version="1.1" xmlns="http://www.w3.org/2000/svg" p-id="4203" xmlns:xlink="http://www.w3.org/1999/xlink" width="48" height="48"><defs><style type="text/css"></style></defs><path d="M875.792005 948.550611 148.205948 948.550611c-80.360236 0-145.516188-65.154929-145.516188-145.517211L2.68976 220.965577c0-80.360236 65.155952-145.516188 145.516188-145.516188l727.586057 0c80.361259 0 145.517211 65.155952 145.517211 145.516188l0 582.066799C1021.309216 883.395682 956.153264 948.550611 875.792005 948.550611zM875.792005 293.724695c0-40.181141-32.612769-72.759117-72.759117-72.759117L220.966089 220.965577c-40.145325 0-72.760141 32.577976-72.760141 72.759117l0 145.517211 727.586057 0L875.792005 293.724695zM875.792005 584.760141 148.205948 584.760141l0 145.517211c0 40.181141 32.613792 72.756047 72.760141 72.756047L803.032888 803.033399c40.145325 0 72.759117-32.574906 72.759117-72.756047L875.792005 584.760141zM693.897282 730.277352 330.102718 730.277352c-20.107967 0-36.379559-16.270569-36.379559-36.379559 0-20.072151 16.270569-36.379559 36.379559-36.379559L693.897282 657.518235c20.106943 0 36.377512 16.307408 36.377512 36.379559C730.274794 714.00576 714.004225 730.277352 693.897282 730.277352zM330.102718 293.724695 693.897282 293.724695c20.106943 0 36.377512 16.270569 36.377512 36.378535 0 20.10899-16.269545 36.378535-36.377512 36.378535L330.102718 366.481765c-20.107967 0-36.379559-16.269545-36.379559-36.378535C293.72316 309.996287 309.994752 293.724695 330.102718 293.724695z" p-id="4204" fill="#1296db"></path></svg>