<?xml version="1.0" standalone="no"?><!DOCTYPE svg PUBLIC "-//W3C//DTD SVG 1.1//EN" "http://www.w3.org/Graphics/SVG/1.1/DTD/svg11.dtd"><svg t="1574676245106" class="icon" viewBox="0 0 1024 1024" version="1.1" xmlns="http://www.w3.org/2000/svg" p-id="2745" xmlns:xlink="http://www.w3.org/1999/xlink" width="200" height="200"><defs><style type="text/css"></style></defs><path d="M846.7 305.9V194.6H772v111.3H660v74.8h112.8v112h74v-112h112v-74.8H846.7z m12-10.5M608.1 351.6c0-47.2-121.7-85.5-271.9-85.5S64.3 304.4 64.3 351.6v114c0 10 5.7 19.6 15.8 28.5-10.1 8.9-15.8 18.5-15.8 28.5v114c0 10 5.7 19.6 15.8 28.5-10 8.9-15.8 18.5-15.8 28.5v114c0 47.2 121.7 85.5 271.9 85.5s271.9-38.3 271.9-85.5v-114c0-10-5.8-19.6-15.8-28.5 10.1-8.9 15.8-18.5 15.8-28.5v-114c0-10-5.8-19.6-15.8-28.5 10.1-8.9 15.8-18.5 15.8-28.5v-114z m-271.9 399c-133.5 0-241.7-25.5-241.7-57 0-4.8 2.7-9.4 7.4-13.8 47.2 25.3 134.3 42.3 234.3 42.3 99.9 0 187.1-17 234.3-42.3 4.6 4.4 7.4 9 7.4 13.8 0 31.5-108.3 57-241.7 57m0-171c-133.5 0-241.7-25.5-241.7-57 0-4.8 2.7-9.4 7.4-13.8 47.2 25.3 134.3 42.3 234.3 42.3 99.9 0 187.1-17 234.3-42.3 4.6 4.4 7.4 9 7.4 13.8 0 31.5-108.3 57-241.7 57m0-171c-133.5 0-241.7-25.5-241.7-57s108.2-57 241.7-57 241.7 25.5 241.7 57-108.3 57-241.7 57" p-id="2746"></path></svg>