<?xml version="1.0" standalone="no"?><!DOCTYPE svg PUBLIC "-//W3C//DTD SVG 1.1//EN" "http://www.w3.org/Graphics/SVG/1.1/DTD/svg11.dtd"><svg t="1571300522474" class="icon" viewBox="0 0 1024 1024" version="1.1" xmlns="http://www.w3.org/2000/svg" p-id="8956" xmlns:xlink="http://www.w3.org/1999/xlink" width="200" height="200"><defs><style type="text/css"></style></defs><path d="M198.5 576c29.8 0 54.9-20.4 62-48h119V320c0-15.7 13-28.4 28.8-28 15.3 0.4 27.2 13.4 27.2 28.6V704c0 33.1 26.9 60 60 60s60-26.9 60-60V439.3c-0.3-6.8 2.3-13.4 7.2-18.5 5.4-5.6 13-8.9 20.8-8.9 15.4 0 28 12.6 28 28v88h151c7.1 27.6 32.2 48 62 48 35.3 0 64-28.7 64-64s-28.7-64-64-64c-29.8 0-54.9 20.4-62 48h-119v-56c0-33.1-26.9-60-60-60-16.5 0-32.5 6.8-43.9 18.7-10.9 11.4-16.6 26.1-16.1 41.6V704c0 15.4-12.6 28-28 28s-28-12.6-28-28V320c0-33.4-27.4-60.5-60.9-60-32.9 0.5-59.1 28-59.1 60.9v175h-87c-7.1-27.6-32.2-48-62-48-35.3 0-64 28.7-64 64 0 35.4 28.7 64.1 64 64.1z m626-96c17.6 0 32 14.4 32 32s-14.4 32-32 32-32-14.4-32-32 14.4-32 32-32z m-626 0c17.6 0 32 14.4 32 32s-14.4 32-32 32-32-14.4-32-32 14.4-32 32-32z" p-id="8957" fill="#1296db"></path><path d="M951.5 159h-879c-4.4 0-8 3.6-8 8v690c0 4.4 3.6 8 8 8h879c4.4 0 8-3.6 8-8V167c0-4.4-3.6-8-8-8z m-40 658h-799V207h799v610z" p-id="8958" fill="#1296db"></path></svg>