<svg id="图层_1" data-name="图层 1" xmlns="http://www.w3.org/2000/svg" viewBox="0 0 16 16"><title>画板 18</title><circle cx="8" cy="8" r="7.5" style="fill:#fff"/><path d="M8,1A7,7,0,1,1,1,8,7,7,0,0,1,8,1M8,0a8,8,0,1,0,8,8A8,8,0,0,0,8,0Z" style="fill:gray"/><path d="M8,15.5c-1.18,0-2.5-3.21-2.5-7.5S6.82.5,8,.5,10.5,3.71,10.5,8,9.18,15.5,8,15.5Z" style="fill:#fff"/><path d="M8,1c.58,0,2,2.45,2,7s-1.42,7-2,7S6,12.55,6,8,7.42,1,8,1M8,0C6.34,0,5,3.58,5,8s1.34,8,3,8,3-3.58,3-8S9.66,0,8,0Z" style="fill:gray"/><rect y="7.5" width="16" height="1" rx="0.5" ry="0.5" style="fill:#fff"/><path d="M15.5,7.5H.5a.5.5,0,0,0,0,1h15a.5.5,0,0,0,0-1Z" style="fill:gray"/></svg>