<?xml version="1.0" standalone="no"?><!DOCTYPE svg PUBLIC "-//W3C//DTD SVG 1.1//EN" "http://www.w3.org/Graphics/SVG/1.1/DTD/svg11.dtd"><svg t="1552961785664" class="icon" style="" viewBox="0 0 1024 1024" version="1.1" xmlns="http://www.w3.org/2000/svg" p-id="4522" xmlns:xlink="http://www.w3.org/1999/xlink" width="200" height="200"><defs><style type="text/css"></style></defs><path d="M943.1 769.4H80.9c-9.6 0-17.3-7.7-17.3-17.3V101.6c0-9.6 7.7-17.3 17.3-17.3h862.2c9.6 0 17.3 7.7 17.3 17.3v650.5c0 9.6-7.7 17.3-17.3 17.3zM98.2 734.8h827.6V118.9H98.2v615.9z" fill="#1296db" p-id="4523"></path><path d="M494.7 752.1h34.6v170.3h-34.6z" fill="#1296db" p-id="4524"></path><path d="M717.5 939.7h-411c-9.6 0-17.3-7.7-17.3-17.3 0-9.6 7.7-17.3 17.3-17.3h411.1c9.6 0 17.3 7.7 17.3 17.3-0.1 9.6-7.8 17.3-17.4 17.3zM344.7 460.2h34.4c3.6 18.2 11 35.2 21.2 50l-24.2 24.2c-10.2 10.2-10.2 26.2 0 36.4 4.6 5.2 11.2 7.6 18 7.6 6.8 0 13.4-2.6 18.4-7.6l24.4-24.4c15 10.2 32.2 17.2 50.8 20.6v34c0 14.4 11.2 25.6 25.6 25.6 14.4 0 25.6-11.2 25.6-25.6v-34.4c18.4-3.6 35.4-11 50.2-21.4l24 24c4.6 5.2 11.2 7.6 18 7.6 6.8 0 13.4-2.6 18.4-7.6 10.2-10.2 10.2-26.2 0-36.4l-24.4-24.2c10-15 17-32 20.4-50.4h34c14.4 0 25.6-11.2 25.6-25.6 0-14.4-11.2-25.6-25.6-25.6h-34.4c-3.6-18.4-11-35.4-21.4-50.2l24.6-24.6c10.2-10.2 10.2-26.2 0-36.4s-26.2-10.2-36.4 0l-24.8 24.8c-15.2-10.2-32.4-17.2-51-20.6v-34c0-14.4-11.2-25.6-25.6-25.6-14.4 0-25.6 11.2-25.6 25.6v34.4c-18.2 3.8-35.2 11.2-50 21.4l-23.8-24.2c-10.2-10.2-26.2-10.2-36.4-0.6-10.2 10.2-10.2 26.2-0.6 36.4l24.6 25c-10 15-17 32-20.2 50.2h-34c-14.4 0-25.6 11.2-25.6 25.6 0.1 14.8 11.5 26 25.8 26z m167.4-133.1c58.8 0 106.5 47.7 106.5 106.5s-47.7 106.6-106.5 106.6-106.5-47.7-106.5-106.6c-0.1-58.8 47.7-106.5 106.5-106.5z m0 22.1" fill="#1296db" p-id="4525"></path></svg>