<?xml version="1.0" standalone="no"?><!DOCTYPE svg PUBLIC "-//W3C//DTD SVG 1.1//EN" "http://www.w3.org/Graphics/SVG/1.1/DTD/svg11.dtd"><svg t="1590645991134" class="icon" viewBox="0 0 1024 1024" version="1.1" xmlns="http://www.w3.org/2000/svg" p-id="13644" xmlns:xlink="http://www.w3.org/1999/xlink" width="200" height="200"><defs><style type="text/css"></style></defs><path d="M860.6 261.2c10.8 0 20 9.2 20 20v500c0 10.8-9.2 20-20 20h-696c-10.8 0-20-9.2-20-20v-500c0-10.8 9.2-20 20-20h696m0-80h-696c-55 0-100 45-100 100v500c0 55 45 100 100 100h696c55 0 100-45 100-100v-500c0-55-45-100-100-100z" fill="#2C2C2C" p-id="13645"></path><path d="M424.1 319.2c-41.4 0-75 33.6-75 75s33.6 75 75 75 75-33.6 75-75-33.6-75-75-75z" fill="#2C2C2C" p-id="13646"></path><path d="M880.6 672.3V565.7l-111.3-98c-8.3-7.3-21.1-6.5-28.3 1.9L530.7 712.8c-7.6 8.8-21.1 9.3-29.3 1.1L389.5 602c-7.9-7.9-20.7-7.8-28.5 0.2l-193.2 199h111.5l82.5-85c7.8-8 20.6-8.1 28.5-0.2l60.6 60.6c6.6 6.6 7.7 16.9 2.9 24.6H560L748.7 583c7.3-8.4 20-9.3 28.3-1.9l103.1 90.8c0.2 0.1 0.4 0.2 0.5 0.4z" fill="#5ABE64" p-id="13647"></path></svg>