<?xml version="1.0" standalone="no"?><!DOCTYPE svg PUBLIC "-//W3C//DTD SVG 1.1//EN" "http://www.w3.org/Graphics/SVG/1.1/DTD/svg11.dtd"><svg t="1571294099181" class="icon" viewBox="0 0 1024 1024" version="1.1" xmlns="http://www.w3.org/2000/svg" p-id="6875" xmlns:xlink="http://www.w3.org/1999/xlink" width="200" height="200"><defs><style type="text/css"></style></defs><path d="M169.677868 459.791425L192.815759 497.316338l22.841251-46.869061 50.577057 2.224797 16.760139-61.256083h35.003477l51.615295 33.668598 42.271147-1.186559 49.242179-84.245655-2.373117-39.74971 150.396292-27.587485 214.322132 50.577056 2.373117 164.783314c-74.159907-37.673233-133.487833-36.931634-172.199305 20.468135-18.391657 63.92584-53.098494 110.794902-126.220162 116.727694-78.164542 13.942063-110.201622 53.840093-77.126304 131.114716l-66.150637 16.908459L163.151796 731.958285z" fill="#83C8EC" p-id="6876"></path><path d="M825.844728 795.290846a12.162225 12.162225 0 0 1-3.263036 0L605.144844 746.938586l-217.140209 44.495945a14.831981 14.831981 0 0 1-6.229432 0l-3.114716-1.483198L163.151796 746.048667a13.942063 13.942063 0 0 1-11.420626-13.793742V270.238702a14.831981 14.831981 0 0 1 16.908459-13.942062l218.771727 43.754345 211.800695-42.716107 1.631518-0.741599h9.344148l1.779838 0.889919 216.695249 47.75898a14.831981 14.831981 0 0 1 11.123986 13.942063v462.016222a14.831981 14.831981 0 0 1-13.942062 14.090383z m-14.831982-31.74044V507.253766l-2.373117-2.966396a93.293163 93.293163 0 0 0-44.495944-20.764774 94.628042 94.628042 0 0 0-70.303592 6.822711c-38.118192 24.02781-34.261877 63.184241-65.705678 115.541136C608.11124 637.775203 548.783314 634.660487 500.431054 647.71263a67.485516 67.485516 0 0 0-44.495944 28.180765c-6.229432 11.420626-8.602549 29.663963 1.631518 60.959444l3.707995 10.234067 124.736964-25.214368v-49.390499a14.831981 14.831981 0 1 1 28.329085 0v47.314021z m-437.840092-4.301275v-86.322132a14.831981 14.831981 0 1 1 28.329084 0v86.173812l31.295481-6.229432-2.669757-6.971031c-11.568946-35.151796-11.123986-62.590962 0-83.652376a94.628042 94.628042 0 0 1 61.849363-41.826188c23.434531-6.526072 51.911935-9.640788 72.23175-13.497103 23.582851-4.597914 34.706837-9.789108 38.414832-16.166859 22.247972-36.931634 26.252607-71.78679 47.165701-99.670916l11.123986-12.310544-8.30591-9.344149a88.991889 88.991889 0 0 0-29.663963-20.023175 14.831981 14.831981 0 1 1 10.679027-26.252607 123.550406 123.550406 0 0 1 50.280417 38.563152l4.449595-2.224797a128.444959 128.444959 0 0 1 80.982618-4.746234 160.1854 160.1854 0 0 1 37.969873 13.793742l3.114716 1.928158v-139.865585l-190.887601-42.419467v78.906141a14.831981 14.831981 0 1 1-28.329085 0v-79.202781L474.623407 311.471611v6.377752a276.023175 276.023175 0 0 1-19.429896 66.743916 117.765933 117.765933 0 0 1-41.232908 55.174971l-8.75087 3.559676v27.884125a14.831981 14.831981 0 1 1-28.329084 0v-27.587486h-2.818077A61.849363 61.849363 0 0 1 341.135574 420.486674c-8.30591-9.640788-12.607184-14.831981-26.252608-14.831981a44.495944 44.495944 0 0 0-16.611819 1.928158 14.831981 14.831981 0 0 0 0 2.966396v10.827346a55.471611 55.471611 0 0 1-8.899189 32.778679 22.247972 22.247972 0 0 1-13.348783 8.899189 66.298957 66.298957 0 0 1-26.252607-1.038239c-9.640788-1.631518-13.052144-1.928158-14.831982-2.076477h-0.889919l-3.707995 1.631518a24.17613 24.17613 0 0 0-9.047509 14.831981c-3.114716 10.085747-4.004635 23.137891-6.971031 29.663963a19.281576 19.281576 0 0 1-11.717265 11.272306 17.650058 17.650058 0 0 1-6.081113 0 20.319815 20.319815 0 0 1-11.272306-5.487833l-4.449594-5.339513v214.025492l24.472769 5.042874v-14.831981a268.903824 268.903824 0 0 1 3.559676-27.142527 14.831981 14.831981 0 0 1 27.884125 5.339514 241.019699 241.019699 0 0 0-4.004635 37.821553v4.004635z m315.327925-67.040556a12.755504 12.755504 0 0 1-8.899189-3.559676 13.942063 13.942063 0 0 1-1.334878-19.874855L697.103129 648.15759l-22.247973-15.87022a14.831981 14.831981 0 1 1 16.31518-23.137891l24.769409 17.501738 20.023175-22.692932A14.831981 14.831981 0 0 1 756.431054 622.943221l-18.095017 20.616455 22.247972 15.87022a14.831981 14.831981 0 0 1-8.602549 25.659328 13.645423 13.645423 0 0 1-7.71263-2.521437l-24.769409-17.650058-20.023175 22.841251a13.497103 13.497103 0 0 1-9.789108 4.746234z m-443.179606-44.495945a13.200463 13.200463 0 0 1-10.234067-3.114716 13.942063 13.942063 0 0 1-2.076477-19.874855 110.943221 110.943221 0 0 1 53.840092-34.113557 14.831981 14.831981 0 0 1 17.946698 8.899189 14.831981 14.831981 0 0 1-8.899189 17.946697 82.169177 82.169177 0 0 0-40.936269 25.214369 14.831981 14.831981 0 0 1-9.195828 5.784472z m99.522596-45.830822a14.831981 14.831981 0 0 1-3.707995-26.845887 150.692932 150.692932 0 0 0 45.682502-24.472769 14.831981 14.831981 0 0 1 17.650058 22.247972 183.174971 183.174971 0 0 1-53.840092 29.663963 14.831981 14.831981 0 0 1-5.339514 0.14832z m367.98146-12.903824a14.831981 14.831981 0 0 1-15.7219-11.568946 279.434531 279.434531 0 0 0-11.420626-52.505214 14.831981 14.831981 0 1 1 26.845886-9.047509 287.88876 287.88876 0 0 1 12.607185 58.141368 14.831981 14.831981 0 0 1-11.865586 15.7219zM435.318656 533.951333a14.831981 14.831981 0 0 1-10.530707-3.263036 14.831981 14.831981 0 0 1-1.928158-19.874856 330.308227 330.308227 0 0 1 40.936269-42.567786A14.831981 14.831981 0 1 1 482.336037 489.455388 314.882966 314.882966 0 0 0 444.959444 528.760139a14.831981 14.831981 0 0 1-9.640788 5.191194zM192.815759 473.733488l1.334878-5.339513a47.9073 47.9073 0 0 1 33.075319-35.300116h2.521437a51.466976 51.466976 0 0 1 12.755504 0c3.856315 0 8.00927 1.186559 11.717265 1.928157l10.085748 1.483198H266.975666l1.186559-2.373117c4.301275-11.272306-1.779838-22.692932 3.411356-36.634994a26.994206 26.994206 0 0 1 8.899188-12.162225 59.327926 59.327926 0 0 1 34.706837-8.00927 56.658169 56.658169 0 0 1 47.75898 24.917729 55.174971 55.174971 0 0 0 11.272306 10.827347l2.373117 0.889919V326.303592l-196.375434-38.711471v163.151796l3.856315 7.86095 4.894554 9.344148z m328.38007-12.458865a14.831981 14.831981 0 0 1-13.645423-7.71263 14.831981 14.831981 0 0 1 6.081112-19.133256 175.017381 175.017381 0 0 1 57.844728-19.133256 14.831981 14.831981 0 1 1 3.559675 28.032445 149.951333 149.951333 0 0 0-48.945539 16.463499 16.01854 16.01854 0 0 1-5.339513 1.483198z m-116.579375-50.132097l4.597914-4.746234a128.29664 128.29664 0 0 0 19.429896-33.075319 254.813441 254.813441 0 0 0 13.645423-40.936268l2.966396-14.831982-41.084588 8.750869z" fill="#333333" p-id="6877"></path></svg>