<?xml version="1.0" standalone="no"?><!DOCTYPE svg PUBLIC "-//W3C//DTD SVG 1.1//EN" "http://www.w3.org/Graphics/SVG/1.1/DTD/svg11.dtd"><svg t="1594288000965" class="icon" viewBox="0 0 1024 1024" version="1.1" xmlns="http://www.w3.org/2000/svg" p-id="5835" xmlns:xlink="http://www.w3.org/1999/xlink" width="200" height="200"><defs><style type="text/css"></style></defs><path d="M96 82c0-24.3 19.7-44 44-44h734c24.3 0 44 19.7 44 44v860c0 24.3-19.7 44-44 44H140c-24.3 0-44-19.7-44-44V82z m88 44v772h646V126H184z m146 222.5c-24.3 0-44-19.7-44-44s19.7-44 44-44h364c24.3 0 44 19.7 44 44s-19.7 44-44 44H330z m0 208c-24.3 0-44-19.7-44-44s19.7-44 44-44h364c24.3 0 44 19.7 44 44s-19.7 44-44 44H330z m0 199c-24.3 0-44-19.7-44-44s19.7-44 44-44h364c24.3 0 44 19.7 44 44s-19.7 44-44 44H330z" p-id="5836" fill="#1296db"></path></svg>