<?xml version="1.0" standalone="no"?><!DOCTYPE svg PUBLIC "-//W3C//DTD SVG 1.1//EN" "http://www.w3.org/Graphics/SVG/1.1/DTD/svg11.dtd"><svg t="1571301131254" class="icon" viewBox="0 0 1024 1024" version="1.1" xmlns="http://www.w3.org/2000/svg" p-id="12502" xmlns:xlink="http://www.w3.org/1999/xlink" width="200" height="200"><defs><style type="text/css"></style></defs><path d="M524.271711 2.39448C736.582283 3.79126 897.810612 208.519312 817.395988 403.370133c-62.655564 151.949719-165.01959 287.736697-253.116505 428.611945-24.742961 39.708462-65.050044 32.125942-87.897375-3.09287-82.310255-127.106987-180.38417-248.527084-236.454914-386.808312C137.862478 191.159331 308.269648 6.38528 524.271711 2.39448z m-15.963201 728.620352c9.478151 0.49885 18.956301 0.89793 28.434451 1.39678C600.196685 620.768976 667.840749 511.42105 725.507812 396.885083c43.499723-86.600365 19.754461-174.89682-49.984773-242.141804-68.841304-66.446824-175.69498-80.414625-259.900865-34.021572-75.725434 41.703862-151.849949 137.882148-119.125386 232.464113 47.290983 136.984218 137.782378 252.817195 211.811722 377.829012z" fill="#1296db" p-id="12503"></path><path d="M157.118089 928.858754h717.346342c-38.810532-57.367753-75.725434-104.159886-102.962646-156.040289-11.074471-21.051471-1.49655-52.778333-1.29701-79.716235 24.942501 8.979301 59.163613 10.475851 73.131414 28.234912 51.880403 65.149814 98.572766 134.789278 143.968119 204.728052 41.105242 63.054644 24.443651 96.677136-49.286383 96.976445-255.610755 1.39678-593.232454 1.29701-848.843209-0.49885-62.056944-0.29931-81.013245-35.717662-47.191213-88.994845 47.390753-74.827504 98.073916-147.659609 152.348799-217.598383 11.972401-15.364581 44.896503-14.566421 68.142914-21.151241 1.29701 24.842731 12.271711 54.973273 1.9954 73.630265-28.633992 52.279483-65.848204 99.770006-107.352527 160.430169z" fill="#1296db" p-id="12504"></path><path d="M523.972401 459.939727c-74.827504 0-135.687208-60.859704-135.687208-135.687208s60.859704-135.687208 135.687208-135.687208 135.687208 60.859704 135.687208 135.687208-60.859704 135.687208-135.687208 135.687208z m0-211.512413c-41.803632 0-75.825204 34.021572-75.825205 75.825205s34.021572 75.825204 75.825205 75.825204 75.825204-34.021572 75.825204-75.825204-34.021572-75.825204-75.825204-75.825205z" fill="#1296db" p-id="12505"></path></svg>