<?xml version="1.0" standalone="no"?><!DOCTYPE svg PUBLIC "-//W3C//DTD SVG 1.1//EN" "http://www.w3.org/Graphics/SVG/1.1/DTD/svg11.dtd"><svg t="1576824184484" class="icon" viewBox="0 0 1241 1024" version="1.1" xmlns="http://www.w3.org/2000/svg" p-id="3458" xmlns:xlink="http://www.w3.org/1999/xlink" width="242.3828125" height="200"><defs><style type="text/css"></style></defs><path d="M235.508354 1023.998696c-42.847562 0-77.707258-35.1127-77.707258-78.271952V78.271952C157.801096 35.1127 192.659488 0 235.508354 0h326.508725v0.851604h120.901722l265.53099 294.475102v650.401342c0 43.159252-34.859697 78.271952-77.709867 78.271952H235.508354z m40.77789-980.076522c-29.96395 0-74.56167 45.34108-74.56167 75.804517v784.541402c0 30.46474 44.59772 75.809733 74.56167 75.809733h553.678399c29.96395 0 74.56167-45.344992 74.56167-75.809733V300.609783H723.46977c-39.587209 0-52.294761-13.842156-52.294762-56.964892V43.922174H276.286244zM715.097183 203.328668c0 32.413128 15.422775 53.357637 39.291168 53.357636h130.179383L715.097183 70.989627V203.328668zM321.1474 813.981087V770.056305h463.954783v43.924782H321.1474z m0-140.011304v-43.923478h463.954783v43.923478H321.1474z m0-140.011304v-43.922174h207.268478v43.922174H321.1474z m0-140.007392v-43.923478h207.268478v43.923478H321.1474z" fill="" p-id="3459"></path></svg>