<?xml version="1.0" standalone="no"?><!DOCTYPE svg PUBLIC "-//W3C//DTD SVG 1.1//EN" "http://www.w3.org/Graphics/SVG/1.1/DTD/svg11.dtd"><svg t="1551788521027" class="icon" style="" viewBox="0 0 1228 1024" version="1.1" xmlns="http://www.w3.org/2000/svg" p-id="2533" xmlns:xlink="http://www.w3.org/1999/xlink" width="76.75" height="64"><defs><style type="text/css"></style></defs><path d="M819.934384 958.434263 407.177051 958.434263c-224.875313 0-407.177051-182.292687-407.177051-407.169293l0-11.152808c0-224.87402 182.301737-407.175758 407.177051-407.175758l412.757333 0c224.866263 0 407.168 182.301737 407.168 407.175758l0 11.152808C1227.102384 776.141576 1044.800646 958.434263 819.934384 958.434263L819.934384 958.434263zM1093.233778 540.112162c0-157.10901-127.350949-284.46901-284.45996-284.46901L418.328566 255.643152c-157.098667 0-284.45996 127.36-284.45996 284.46901l0 11.152808c0 157.09996 127.361293 284.461253 284.45996 284.461253l390.437495 0c157.107717 0 284.461253-127.361293 284.461253-284.461253l0-11.152808L1093.233778 540.112162 1093.233778 540.112162z" p-id="2534" fill="#117097"></path><path d="M548.388202 563.325414l60.537535 0-31.949576-52.132202-58.855434 94.171798-26.908444 0 71.46796-112.67103c3.366788-4.204606 8.411798-7.567515 14.295919-7.567515 5.046303 0 10.091313 3.362909 13.454222 7.567515l72.309657 112.67103-26.907152 0-12.611232-21.020444-62.222222 0L548.388202 563.325414 548.388202 563.325414 548.388202 563.325414zM826.701576 584.344566l0-97.536-22.705131 0 0 106.784323c0 3.362909 0.841697 5.888 3.364202 8.407919 1.682101 1.682101 5.04501 3.364202 8.407919 3.364202l103.421414 0 13.451636-21.020444L826.701576 584.344566 826.701576 584.344566 826.701576 584.344566zM450.013091 566.685737c21.862141 0 40.360081-17.654949 40.360081-40.358788 0-21.860848-18.497939-39.518384-40.360081-39.518384l-99.218101 0 0 118.556444 22.701253 0 0-97.536 74.833455 0c10.930424 0 19.338343 8.407919 19.338343 18.497939 0 10.931717-8.407919 19.339636-19.338343 19.339636L384.42796 545.666586l68.107636 59.698424 32.791273 0-45.405091-38.679273L450.013091 566.685737 450.013091 566.685737 450.013091 566.685737zM210.377697 605.36501c-32.791273 0-58.856727-26.909737-58.856727-59.698424 0-32.791273 26.066747-58.85802 58.856727-58.85802L279.325737 486.808566c32.791273 0 58.855434 26.066747 58.855434 58.85802 0 32.793859-26.064162 59.698424-58.855434 59.698424L210.377697 605.36501 210.377697 605.36501 210.377697 605.36501zM277.642343 584.344566c21.02303 0 38.679273-17.658828 38.679273-38.67798 0-21.021737-17.654949-37.837576-38.679273-37.837576L212.059798 507.82901c-21.021737 0-38.67798 16.817131-38.67798 37.837576 0 21.019152 17.657535 38.67798 38.67798 38.67798L277.642343 584.344566 277.642343 584.344566 277.642343 584.344566zM709.825939 605.36501c-32.78998 0-58.856727-26.909737-58.856727-59.698424 0-32.791273 26.066747-58.85802 58.856727-58.85802l81.561859 0-13.456808 21.020444-66.422949 0c-21.019152 0-38.67798 16.817131-38.67798 37.837576 0 21.019152 17.656242 38.67798 38.67798 38.67798l81.559273 0-12.611232 21.020444L709.825939 605.36501 709.825939 605.36501 709.825939 605.36501zM988.139313 584.344566c-17.657535 0-31.950869-11.772121-36.995879-27.747556l97.533414 0 13.451636-21.019152-110.985051 0c5.04501-15.976727 19.338343-27.748848 36.995879-27.748848l67.265939 0 13.452929-21.020444-82.40097 0c-31.950869 0-58.859313 26.064162-58.859313 58.85802s26.908444 59.698424 58.859313 59.698424l70.628848 0 13.451636-21.020444L988.139313 584.344566 988.139313 584.344566 988.139313 584.344566z" p-id="2535" fill="#117097"></path></svg>