<?xml version="1.0" standalone="no"?><!DOCTYPE svg PUBLIC "-//W3C//DTD SVG 1.1//EN" "http://www.w3.org/Graphics/SVG/1.1/DTD/svg11.dtd"><svg t="1526522812311" class="icon" style="" viewBox="0 0 1024 1024" version="1.1" xmlns="http://www.w3.org/2000/svg" p-id="2865" xmlns:xlink="http://www.w3.org/1999/xlink" width="128" height="128"><defs><style type="text/css"></style></defs><path d="M955.743 302.422c-1.171-1.945-20.599-35.858-59.63-70.659-38.779-34.627-98.886-70.74-178.087-70.74-79.202-0.023-138.718 36.227-176.72 71.003-11.759 10.741-21.662 21.396-29.771 31.052-8.389-9.718-18.641-20.472-30.793-31.314-38.778-34.627-98.884-70.74-178.085-70.74-79.2-0.023-138.732 36.227-176.721 71.003-38.259 34.945-56.867 68.952-58.014 70.972l-3.998 15.666v511.447l61.381 15.709c0.86-1.639 17.316-29.996 47.548-56.586 30.476-26.716 72.996-51.304 129.803-51.344 58.615 0 103.184 26.361 134.604 54.181 15.586 13.871 27.496 27.882 35.322 38.253 3.912 5.168 6.809 9.426 8.656 12.271 0.789 1.201 1.343 2.088 1.751 2.747 5.452 10.474 16.38 17.635 28.997 17.635 12.853 0 23.941-7.432 29.286-18.208 3.206-5.466 19.302-31.205 46.965-55.535 30.461-26.716 72.979-51.304 129.787-51.344 58.614 0 103.182 26.361 134.622 54.181 15.567 13.871 27.48 27.882 35.306 38.253 3.927 5.168 6.82 9.426 8.674 12.271 0.914 1.409 1.577 2.493 1.978 3.138 0.199 0.326 0.325 0.535 0.388 0.656l0.087-0.047 60.993-16.229v-511.447l-4.331-16.243zM479.297 741.977c-38.816-34.254-98.389-69.496-176.637-69.496h-0.093c-76.848 0-135.161 34.152-173.244 67.95v-412.586c6.648-10.183 21.401-30.592 43.533-50.061 30.476-26.739 72.996-51.322 129.803-51.346 58.615 0 103.184 26.345 134.604 54.184 15.586 13.849 27.496 27.882 35.322 38.247 2.755 3.639 4.972 6.796 6.711 9.35v413.761zM894.661 741.938c-38.816-34.24-98.411-69.458-176.634-69.458-76.922-0.023-135.218 34.171-173.325 67.999v-412.631c6.643-10.172 21.37-30.566 43.538-50.065 30.461-26.739 72.979-51.322 129.787-51.346 58.614 0 103.182 26.345 134.622 54.184 15.567 13.849 27.48 27.882 35.306 38.247 2.739 3.608 4.978 6.774 6.707 9.322v413.749zM168.464 359.203l26.838 35.205 3.497 4.918c1.666-1.112 37.024-26.093 108.42-26.136 38.135 0 66.45 7.16 84.997 14.013 9.274 3.426 16.086 6.802 20.381 9.159 2.162 1.199 3.681 2.137 4.58 2.7 0.424 0.263 0.701 0.456 0.84 0.547 0.010 0.016 0.021 0.019 0.034 0.028l0.050 0.040 8.055-11.442 21.36-29.378c-2.974-2.213-51.189-35.998-140.296-35.983-89.105-0.046-135.67 33.866-138.756 36.329zM198.805 508.108c1.653-1.11 37.020-26.089 108.412-26.132 38.134 0.019 66.46 7.171 85.003 14.025 9.262 3.412 16.074 6.797 20.377 9.165 2.167 1.179 3.691 2.114 4.574 2.674 0.443 0.285 0.728 0.483 0.855 0.574 0.041 0.027 0.064 0.043 0.070 0.043l7.889-11.195 21.526-29.621c-2.98-2.224-51.186-35.998-140.294-35.968-89.106-0.062-135.66 33.862-138.752 36.311l26.803 35.183 3.537 4.94zM168.461 576.769l26.825 35.231 3.514 4.9 0.155-0.098c3.032-2.052 38.396-25.982 108.267-26.024 38.135 0 66.45 7.151 84.993 14.018 9.266 3.426 16.076 6.78 20.388 9.159 2.154 1.181 3.682 2.12 4.569 2.68 0.426 0.275 0.706 0.471 0.844 0.559 0.010 0.012 0.021 0.015 0.034 0.019l0.050 0.047 8.137-11.55 21.277-29.269c-2.986-2.23-51.187-36.006-140.292-35.979-89.121-0.045-135.665 33.85-138.763 36.307zM836.237 399.677l8.335-11.822-8.504 11.698c0.098 0.073 0.156 0.111 0.168 0.124zM613.423 394.396l3.526 4.921 0.002 0.008c1.65-1.112 37.023-26.093 108.422-26.136 38.129 0 66.45 7.16 84.991 14.013 9.263 3.426 16.073 6.802 20.382 9.159 2.151 1.199 3.685 2.137 4.568 2.7 0.352 0.204 0.6 0.379 0.759 0.483l29.581-40.688c-2.974-2.213-51.175-35.998-140.28-35.983-89.121-0.047-135.673 33.865-138.774 36.328l26.823 35.194zM616.945 508.108c1.664-1.11 37.021-26.089 108.428-26.132 38.129 0.019 66.45 7.171 84.986 14.025 9.278 3.412 16.090 6.797 20.394 9.165 2.151 1.179 3.675 2.114 4.56 2.674 0.383 0.239 0.643 0.423 0.795 0.523 0.071 0.054 0.118 0.094 0.129 0.094l8.006-11.342 21.411-29.473c-2.967-2.224-51.175-35.998-140.28-35.968-89.121-0.062-135.675 33.862-138.767 36.311l26.819 35.203 3.52 4.92zM586.606 576.769l26.889 35.3 3.451 4.831c0.032-0.025 0.087-0.057 0.15-0.098 3.038-2.052 38.398-25.982 108.271-26.024 38.135 0 66.447 7.151 84.992 14.018 9.266 3.426 16.076 6.78 20.387 9.159 2.156 1.181 3.685 2.12 4.572 2.68 0.421 0.275 0.705 0.471 0.836 0.559 0.014 0.012 0.024 0.015 0.036 0.019l0.055 0.047 8.135-11.55 21.275-29.269c-2.969-2.23-51.183-36.006-140.288-35.979-89.123-0.045-135.665 33.85-138.763 36.307z" p-id="2866" fill="#1296db"></path></svg>