<?xml version="1.0" standalone="no"?><!DOCTYPE svg PUBLIC "-//W3C//DTD SVG 1.1//EN" "http://www.w3.org/Graphics/SVG/1.1/DTD/svg11.dtd"><svg t="1594288686264" class="icon" viewBox="0 0 1024 1024" version="1.1" xmlns="http://www.w3.org/2000/svg" p-id="12807" xmlns:xlink="http://www.w3.org/1999/xlink" width="200" height="200"><defs><style type="text/css"></style></defs><path d="M958.473611 844.240917c0 0 0-509.912455 0-560.039109 0-68.029396-61.916165-61.654198-61.916165-61.654198s-369.837186 0.436952-350.275665 0c-21.221324 0.436952-31.699979-11.090593-31.699979-11.090593s-14.758122-25.325805-41.218774-65.408709c-27.770484-42.004673-59.907415-35.106566-59.907415-35.106566L140.9021 110.941741c-75.53944 0-76.41232 72.65781-76.41232 72.65781s0 604.576465 0 656.886855c0 81.040734 61.217247 70.998007 61.217247 70.998007s730.330564 0 776.439718 0C967.643458 911.48339 958.473611 844.240917 958.473611 844.240917L958.473611 844.240917z" p-id="12808" fill="#1296db"></path></svg>