<?xml version="1.0" standalone="no"?><!DOCTYPE svg PUBLIC "-//W3C//DTD SVG 1.1//EN" "http://www.w3.org/Graphics/SVG/1.1/DTD/svg11.dtd"><svg t="1540957365459" class="icon" style="" viewBox="0 0 1024 1024" version="1.1" xmlns="http://www.w3.org/2000/svg" p-id="4352" xmlns:xlink="http://www.w3.org/1999/xlink" width="48" height="48"><defs><style type="text/css"></style></defs><path d="M 485.551 219.843 h -87.0048 v 363.217 h 87.0048 c 63.3867 0 109.806 -14.7957 138.99 -43.8411 c 28.5024 -29.7259 42.7552 -75.6053 42.7552 -137.769 c 0 -63.6565 -14.2528 -110.218 -42.7552 -138.585 c -29.1829 -28.9109 -75.6021 -43.0251 -138.99 -43.0251 v 0 Z" p-id="4353" fill="#1296db"></path><path d="M 796.65 31.172 h -569.123 c -63.6565 0 -115.642 51.9872 -115.642 115.642 v 735.399 c 0 63.6555 51.9861 115.642 115.642 115.642 h 569.123 c 45.4699 0 84.9675 -26.6037 103.836 -64.8811 h -665.222 c -23.7536 0 -43.2971 -19.4101 -43.2971 -43.296 v -54.7008 c 0 -23.7536 19.4101 -43.296 43.2971 -43.296 h 450.494 c 0.814933 0 1.76427 0 2.5824 0 h 67.3227 c 86.1877 0 156.635 -70.4448 156.635 -156.635 v -488.229 c 0 -63.6565 -52.1195 -115.646 -115.646 -115.646 v 0 Z M 688.742 585.91 c -42.7552 45.1989 -104.784 67.8677 -187.445 67.8677 h -186.09 v -504.651 h 186.089 c 82.6603 0 144.69 22.6667 187.445 67.8667 c 40.5845 42.3499 61.3525 103.836 61.3525 184.46 c 0 79.9467 -20.7659 141.429 -61.3504 184.459 v 0 Z" p-id="4354" fill="#1296db"></path></svg>