<?xml version="1.0" standalone="no"?><!DOCTYPE svg PUBLIC "-//W3C//DTD SVG 1.1//EN" "http://www.w3.org/Graphics/SVG/1.1/DTD/svg11.dtd"><svg t="1560998891536" class="icon" style="" viewBox="0 0 1024 1024" version="1.1" xmlns="http://www.w3.org/2000/svg" p-id="7396" xmlns:xlink="http://www.w3.org/1999/xlink" width="200" height="200"><defs><style type="text/css"></style></defs><path d="M456.899566 728.522382c-15.978926 15.977903-40.33873 18.47477-58.932204 7.492648-3.446495-2.039449-9.653871-9.990538-9.653871-9.990538L188.797435 526.509459c-18.938328-18.938328-18.938328-47.148833 0-66.084091 18.934235-18.938328 49.64263-16.442484 68.579935 2.495844l165.227112 165.225065 312.24449-312.24142c18.938328-18.938328 49.6457-21.435195 68.583005-2.495844 18.938328 18.940374 18.939351 47.149856 0 66.085114L456.909799 728.507032c0 0-0.005117 0.00921-0.010233 0.013303l0 0L456.899566 728.522382zM510.742868 64.090691c-246.752894 0-446.786743 200.032826-446.786743 446.786743 0 246.75187 200.033849 446.785719 446.786743 446.785719 246.752894 0 446.787766-200.034872 446.787766-446.785719C957.531658 264.125563 757.495762 64.090691 510.742868 64.090691L510.742868 64.090691 510.742868 64.090691 510.742868 64.090691z" p-id="7397" fill="#1296db"></path></svg>