<?xml version="1.0" standalone="no"?><!DOCTYPE svg PUBLIC "-//W3C//DTD SVG 1.1//EN" "http://www.w3.org/Graphics/SVG/1.1/DTD/svg11.dtd"><svg t="1525948034364" class="icon" style="" viewBox="0 0 1024 1024" version="1.1" xmlns="http://www.w3.org/2000/svg" p-id="1636" xmlns:xlink="http://www.w3.org/1999/xlink" width="200" height="200"><defs><style type="text/css"></style></defs><path d="M0 540.036414V944.551724l49.169655-19.667862 167.830069-167.830069zM264.827586 168.059586l-63.293793-63.293793L0 185.37931v80.013242l264.827586 264.827586z" fill="#D6C990" p-id="1637"></path><path d="M512 462.053517v-46.821517l-247.172414-247.172414v362.160552l89.494069 89.494069z" fill="#F7E6A1" p-id="1638"></path><path d="M512 777.392552v-40.695173l-20.338759 20.356414z" fill="#7383BF" p-id="1639"></path><path d="M672.73269 575.96469L512 736.697379v40.695173l117.018483 117.018482L759.172414 838.62069v-176.216276z" fill="#6472A0" p-id="1640"></path><path d="M759.172414 214.881103V79.448276L543.355586 171.943724l129.377104 129.377104zM535.410759 438.642759L512 415.232v46.821517z" fill="#D6C990" p-id="1641"></path><path d="M851.508966 122.544552L759.172414 79.448276v135.432827z" fill="#F7E6A1" p-id="1642"></path><path d="M1024 652.588138V224.697379L810.054621 438.642759zM759.172414 838.62069l264.827586 105.931034v-17.319724l-264.827586-264.827586z" fill="#7383BF" p-id="1643"></path><path d="M264.827586 709.225931V530.220138l-264.827586-264.827586v274.643862L216.999724 757.053793z" fill="#D1AF43" p-id="1644"></path><path d="M366.503724 882.193655L512 944.551724v-167.159172l-20.338759-20.338759zM264.827586 530.220138v179.005793l89.494069-89.511724z" fill="#EFCE4A" p-id="1645"></path><path d="M512 944.551724l117.018483-50.14069L512 777.392552zM264.827586 79.448276l-63.293793 25.317517L264.827586 168.059586z" fill="#D1AF43" p-id="1646"></path><path d="M512 185.37931l-247.172414-105.931034v88.61131l247.172414 247.172414z" fill="#EFCE4A" p-id="1647"></path><path d="M512 415.232l23.410759 23.410759 137.321931-137.321931-129.377104-129.377104L512 185.37931zM759.172414 662.404414v-172.879448l-86.439724 86.439724z" fill="#D1AF43" p-id="1648"></path><path d="M810.054621 438.642759L759.172414 489.524966v172.879448l264.827586 264.827586V652.588138z" fill="#EFCE4A" p-id="1649"></path><path d="M264.827586 804.864l-47.827862-47.810207-167.830069 167.830069L264.827586 838.62069z" fill="#D1AF43" p-id="1650"></path><path d="M264.827586 838.62069l59.056552 25.317517L264.827586 804.864zM354.321655 619.714207l137.339586 137.339586L512 736.697379V462.053517z" fill="#EFCE4A" p-id="1651"></path><path d="M759.172414 214.881103l-86.439724 86.439725L759.172414 387.760552zM512 462.053517v274.643862l160.73269-160.732689-137.321931-137.321931z" fill="#D1AF43" p-id="1652"></path><path d="M759.172414 387.760552l50.882207 50.882207L1024 224.697379V203.034483l-172.491034-80.489931-92.336552 92.336551z" fill="#EFCE4A" p-id="1653"></path><path d="M216.999724 757.053793L264.827586 804.864v-95.638069z" fill="#D1AF43" p-id="1654"></path><path d="M354.321655 619.714207L264.827586 709.225931v95.638069l59.056552 59.074207 42.619586 18.255448 125.157517-125.139862z" fill="#EFCE4A" p-id="1655"></path><path d="M672.73269 301.320828l-137.321931 137.321931 137.321931 137.321931L759.172414 489.524966v-101.764414z" fill="#D1AF43" p-id="1656"></path><path d="M759.172414 489.524966l50.882207-50.882207L759.172414 387.760552z" fill="#EFCE4A" p-id="1657"></path></svg>