<?xml version="1.0" standalone="no"?><!DOCTYPE svg PUBLIC "-//W3C//DTD SVG 1.1//EN" "http://www.w3.org/Graphics/SVG/1.1/DTD/svg11.dtd"><svg t="1594289317688" class="icon" viewBox="0 0 1024 1024" version="1.1" xmlns="http://www.w3.org/2000/svg" p-id="4504" xmlns:xlink="http://www.w3.org/1999/xlink" width="200" height="200"><defs><style type="text/css"></style></defs><path d="M645.12 0H194.56C112.64 0 51.2 66.56 51.2 143.36v737.28C51.2 957.44 112.64 1024 194.56 1024h634.88c76.8 0 143.36-66.56 143.36-143.36V332.8L645.12 0z m20.48 168.96L803.84 307.2H665.6V168.96z m204.8 711.68c0 20.48-15.36 40.96-40.96 40.96H194.56c-25.6 0-40.96-20.48-40.96-40.96V143.36c0-20.48 15.36-40.96 40.96-40.96H563.2v215.04c0 51.2 40.96 92.16 92.16 92.16H870.4v471.04z" p-id="4505" fill="#1296db"></path></svg>