<svg id="图层_1" data-name="图层 1" xmlns="http://www.w3.org/2000/svg" viewBox="0 0 16 16"><title>画板 17</title><circle cx="8" cy="8" r="7.5" style="fill:#fff"/><path d="M8,1A7,7,0,1,1,1,8,7,7,0,0,1,8,1M8,0a8,8,0,1,0,8,8A8,8,0,0,0,8,0Z" style="fill:#4d84ba"/><path d="M8.63,15.5a7.18,7.18,0,0,0,.31-2.79,21.21,21.21,0,0,0-1.14-2.33c-.4-.58.08-.88.94-1.77s1.49-.61,2.41.14,1.25.23,1.91.36.53,3.16.1,4.88A8.38,8.38,0,0,1,8.63,15.5ZM2.53,2.81l0,0Zm0,0A8.31,8.31,0,0,1,8.34.5a8.48,8.48,0,0,1,3.74.86C10.67,2,10.28,3.7,10,4.14s-.94.65-1.62.8S7.51,7.12,8,7.57q.51.46-.62.81A15.55,15.55,0,0,0,5.82,6.86,7.81,7.81,0,0,1,4.13,5.74c-.18-.32,0-1.4-.22-2q-.17-.45-1.41-.91Zm0,0" style="fill:#4d84ba"/></svg>