<?xml version="1.0" standalone="no"?><!DOCTYPE svg PUBLIC "-//W3C//DTD SVG 1.1//EN" "http://www.w3.org/Graphics/SVG/1.1/DTD/svg11.dtd"><svg t="1568088298532" class="icon" viewBox="0 0 1024 1024" version="1.1" xmlns="http://www.w3.org/2000/svg" p-id="6815" xmlns:xlink="http://www.w3.org/1999/xlink" width="200" height="200"><defs><style type="text/css"></style></defs><path d="M518.3 529.8L53 296.9 515.3 65.8l461.8 230.9-458.8 233.1zM209.4 297l308.7 154.5 303.5-154.2-306.3-153.2L209.4 297z" fill="#707070" p-id="6816"></path><path d="M518.3 746.7L53 513.8l153.9-76.9 80.8 37.8-78.3 39.1 308.7 154.5 303.5-154.2-77.2-38.6 75.9-40.3 156.8 78.4z" fill="#707070" p-id="6817"></path><path d="M518.3 958.6L53 725.7l153.9-76.9 80.8 37.9-78.3 39.1 308.7 154.4L821.6 726l-77.2-38.6 75.9-40.3 156.8 78.4z" fill="#707070" p-id="6818"></path></svg>