<?xml version="1.0" standalone="no"?><!DOCTYPE svg PUBLIC "-//W3C//DTD SVG 1.1//EN" "http://www.w3.org/Graphics/SVG/1.1/DTD/svg11.dtd"><svg t="1560998924384" class="icon" style="" viewBox="0 0 1024 1024" version="1.1" xmlns="http://www.w3.org/2000/svg" p-id="9813" xmlns:xlink="http://www.w3.org/1999/xlink" width="200" height="200"><defs><style type="text/css"></style></defs><path d="M73.096 942.074c2.07-0.12 4.03-0.43 5.83-0.89l3.02-0.75c0.67-0.15 1.32-0.33 1.96-0.55l277.537-79.199c4.22-1.61 7.34-4.189 9.499-6.33l2-1.05 0.78-1.58 560.884-560.273c2.329-2.34 3.869-4.83 4.989-6.96 27.859-31.57 43.189-71.609 43.189-112.918C982.784 76.975 905.815 0.006 811.217 0.006c-43.56 0-85.249 16.82-117.259 47.189l-8.9 8.5c-0.72 0.69-1.439 1.39-1.689 1.7L131.165 610.219l-1.86 1.979c-2.3 2.32-4.96 5.54-6.86 10.641L43.526 899.515c-0.23 0.65-0.39 1.28-0.47 1.79l-0.81 2.95c-0.52 2.05-1.02 4.601-1.02 7.31-0.06 3.07 0.47 5.78 0.99 7.82 0.07 0.62 0.21 1.5 0.55 2.49l0.86 2.01c1.13 2.52 2.59 4.63 4.07 6.64 0.69 0.98 1.4 1.92 2.51 3.04 0.84 0.811 1.74 1.47 3.16 2.5 1.46 1.09 3.38 2.43 6.06 3.641l1.26 0.85 1.64 0.32c0.66 0.18 1.24 0.27 1.68 0.319 2.34 0.601 4.42 0.82 6.51 0.88H0.006v81.919h1023.988v-81.919H73.096z m286.136-160.178l-37.95-77.599 461.425-461.435 58.069 58.039-481.544 480.995zM728.157 97.235c21.67-23.629 50.939-36.649 82.429-36.649 61.89 0 112.249 50.349 112.249 112.239 0 31.359-12.92 60.549-36.38 82.209l-3.699 3.53-157.818-157.829 3.219-3.5z m-45.639 45.419l58.029 58.049-461.424 461.435-77.589-37.97 480.984-481.514zM171.384 675.258l92.159 44.06c4.13 9.229 15.12 31.989 44.55 92.729l-104.929 29.93-61.729-61.729 29.949-104.99z m-48.669 170.618l14.81 14.819-20.72 5.91 5.91-20.729z" fill="#1296db" p-id="9814"></path></svg>