<?xml version="1.0" standalone="no"?><!DOCTYPE svg PUBLIC "-//W3C//DTD SVG 1.1//EN" "http://www.w3.org/Graphics/SVG/1.1/DTD/svg11.dtd"><svg t="1571301329823" class="icon" viewBox="0 0 1024 1024" version="1.1" xmlns="http://www.w3.org/2000/svg" p-id="15092" xmlns:xlink="http://www.w3.org/1999/xlink" width="200" height="200"><defs><style type="text/css"></style></defs><path d="M204.288 955.392H46.08c-14.336 0-25.6-11.264-25.6-25.6V56.32c0-14.336 11.264-25.6 25.6-25.6h734.72c14.336 0 25.6 11.264 25.6 25.6v408.576c0 14.336-11.264 25.6-25.6 25.6s-25.6-11.264-25.6-25.6V81.92H71.68v822.272h132.608c14.336 0 25.6 11.264 25.6 25.6s-11.264 25.6-25.6 25.6z" p-id="15093" fill="#1296db"></path><path d="M600.064 297.984H225.792c-14.336 0-25.6-11.264-25.6-25.6s11.264-25.6 25.6-25.6h374.272c14.336 0 25.6 11.264 25.6 25.6s-11.264 25.6-25.6 25.6zM600.064 496.64H225.792c-14.336 0-25.6-11.264-25.6-25.6s11.264-25.6 25.6-25.6h374.272c14.336 0 25.6 11.264 25.6 25.6s-11.264 25.6-25.6 25.6zM319.488 695.296H225.792c-14.336 0-25.6-11.264-25.6-25.6s11.264-25.6 25.6-25.6h93.696c14.336 0 25.6 11.264 25.6 25.6s-11.264 25.6-25.6 25.6zM569.344 956.416c-6.656 0-13.824-2.56-18.432-8.192L424.96 814.08c-9.728-10.24-9.216-26.624 1.024-36.352l134.144-126.976c10.24-9.728 26.624-9.216 36.352 1.024 9.728 10.24 9.216 26.624-1.024 36.352l-115.712 109.568 108.544 115.712c9.728 10.24 9.216 26.624-1.024 36.352-5.12 4.608-11.776 6.656-17.92 6.656zM864.256 956.416c-6.144 0-12.8-2.56-17.408-7.168-10.24-9.728-10.752-26.112-1.024-36.352l109.056-115.712-115.712-109.568c-10.24-9.728-10.752-26.112-1.024-36.352 9.728-10.24 26.112-10.752 36.352-1.024l134.144 126.976c10.24 9.728 10.752 26.112 1.024 36.352l-126.464 134.144c-5.12 6.144-12.288 8.704-18.944 8.704zM669.696 1007.616c-2.048 0-3.584 0-5.632-0.512-13.824-3.072-22.528-16.896-19.456-30.72l83.456-369.152c3.072-13.824 16.896-22.528 30.72-19.456 13.824 3.072 22.528 16.896 19.456 30.72l-83.456 369.152c-2.56 11.776-13.312 19.968-25.088 19.968z" p-id="15094" fill="#1296db"></path></svg>