<svg id="图层_1" data-name="图层 1" xmlns="http://www.w3.org/2000/svg" viewBox="0 0 16 16"><title>画板 16</title><rect x="0.5" y="0.5" width="14" height="14" style="fill:#fff"/><path d="M14,1V14H1V1H14m1-1H0V15H15V0Z" style="fill:gray"/><polygon points="7.5 0.5 7.5 7.5 14.5 7.5 7.5 7.5 7.5 14.5 7.5 0.5" style="fill:#fff"/><polygon points="8 0 7 0 7 7 0 7 0 8 7 8 7 15 8 15 8 8 15 8 15 7 8 7 8 0 8 0" style="fill:gray"/><rect x="9.25" y="2.25" width="1" height="1" style="fill:#fff"/><polygon points="11 2 10 2 9 2 9 3 9 4 10 4 10 3 11 3 11 2 11 2" style="fill:#4d84ba"/><polygon points="9 2 9 3 9 6 10 6 10 3 13 3 13 2 9 2" style="fill:#fed543"/><polygon points="2 2 2 3 2 6 3 6 3 3 6 3 6 2 2 2" style="fill:#de673e"/><polygon points="2 9 2 10 2 13 3 13 3 10 6 10 6 9 2 9" style="fill:#5da58e"/><rect x="8.75" y="8.75" width="3" height="3" style="fill:#fff"/><polygon points="13 9 9 9 9 10 9 13 10 13 10 10 13 10 13 9 13 9" style="fill:#4d84ba"/></svg>