<svg id="svg5692" xmlns="http://www.w3.org/2000/svg" xmlns:xlink="http://www.w3.org/1999/xlink" viewBox="0 0 14.96 16.01"><defs><linearGradient id="未命名的渐变" x1="5.53" y1="15.93" x2="10.53" y2="3.93" gradientTransform="matrix(1, 0, 0, -1, -1, 18)" gradientUnits="userSpaceOnUse"><stop offset="0" stop-color="#f1f1f1"/><stop offset="1" stop-color="#d6d6d6"/></linearGradient></defs><title>mIconTableMLayer</title><g id="layer4"><rect id="rect3921" x="0.5" y="0.5" width="13" height="15" rx="1" ry="1" style="stroke:#888a85;stroke-linecap:round;stroke-linejoin:round;fill:url(#未命名的渐变)"/><path id="path3931" d="M1.5,4.5h13" transform="translate(-1)" style="fill:#eeeeec;stroke:#888a85;stroke-linecap:round;stroke-linejoin:round"/><path id="path3933" d="M3.5,7.5h2" transform="translate(-1)" style="fill:#eeeeec;stroke:#888a85;stroke-linecap:round;stroke-linejoin:round"/><path id="path3935" d="M3.5,10.5h2" transform="translate(-1)" style="fill:#eeeeec;stroke:#888a85;stroke-linecap:round;stroke-linejoin:round"/><path id="path3937" d="M3.5,13.5h2" transform="translate(-1)" style="fill:#eeeeec;stroke:#888a85;stroke-linecap:round;stroke-linejoin:round"/><path id="path3939" d="M8.5,7.5h4" transform="translate(-1)" style="fill:#eeeeec;stroke:#888a85;stroke-linecap:round;stroke-linejoin:round"/><path id="path3941" d="M8.44,10.46l4.06,0" transform="translate(-1)" style="fill:#eeeeec;stroke:#888a85;stroke-linecap:round;stroke-linejoin:round"/><path id="path3943" d="M8.5,13.5h4" transform="translate(-1)" style="fill:#eeeeec;stroke:#888a85;stroke-linecap:round;stroke-linejoin:round"/><path id="path3945" d="M3.57,2.51H5.5" transform="translate(-1)" style="fill:#eeeeec;stroke:#888a85;stroke-linecap:round;stroke-linejoin:round"/><path id="path3947" d="M8.5,2.5h4" transform="translate(-1)" style="fill:#eeeeec;stroke:#888a85;stroke-linecap:round;stroke-linejoin:round"/></g><g style="isolation:isolate"><path d="M9.16,11.11h1.06l2.21,4.14,2.22-4.14h1.21v.11c-.78.07-.85.15-.82.93l.06,2.77c0,.8.06.91.85,1V16H13.89v-.11c.74-.05.76-.16.75-1l0-3.28h0l-2.27,4.27h-.08l-2.06-4h0L10,14c0,.37,0,.63,0,.84,0,.75.08,1,.86,1V16h-2v-.11c.52,0,.7-.17.76-.48A10.25,10.25,0,0,0,9.8,13.9l.12-1.43c0-.21,0-.38,0-.52,0-.55-.14-.66-.78-.73Z" transform="translate(-1)" style="fill:#1873bb;stroke:#000;stroke-miterlimit:10;stroke-width:0.029999999329447746px"/></g></svg>