<?xml version="1.0" standalone="no"?><!DOCTYPE svg PUBLIC "-//W3C//DTD SVG 1.1//EN" "http://www.w3.org/Graphics/SVG/1.1/DTD/svg11.dtd"><svg t="1567133394160" class="icon" viewBox="0 0 1024 1024" version="1.1" xmlns="http://www.w3.org/2000/svg" p-id="2888" xmlns:xlink="http://www.w3.org/1999/xlink" width="32" height="32"><defs><style type="text/css"></style></defs><path d="M125.339351 609.851051V102.047274l567.037416 0.243259 40.259413 40.137784v434.947618h-81.613493v81.613494H516.986816L379.666944 316.115453H239.67122l-114.331869 293.735598z m94.262977 102.412163h178.917211l-90.370828-243.259294-88.546383 243.259294z m-94.871125 259.314408h373.403017l-57.287564-148.874688H178.856396L124.731203 971.577622z m621.649127-394.201687h81.613493v81.613494h85.262383l0.12163-336.305975-166.997506-166.510987v421.203468z m166.875876 95.479273h-85.262383v81.613494h-81.613493v217.23055h166.875876V672.855208zM642.143723 971.577622h90.492457V754.468702h-81.613493v-81.613494H522.46015L642.143723 971.577622z m22.623114-312.588193h67.869343v-68.355862l-67.869343 0.486519v67.869343z m81.613493 0h67.869343V591.120086l-67.869343-0.486519v68.355862z m-81.613493 81.613493h67.869343v-67.869343h-67.869343v67.869343z m81.613493 0h67.869343v-67.869343h-67.869343v67.869343z" p-id="2889" fill="#4D84BA"></path></svg>