<?xml version="1.0" standalone="no"?><!DOCTYPE svg PUBLIC "-//W3C//DTD SVG 1.1//EN" "http://www.w3.org/Graphics/SVG/1.1/DTD/svg11.dtd"><svg t="1576230780766" class="icon" viewBox="0 0 1024 1024" version="1.1" xmlns="http://www.w3.org/2000/svg" p-id="30670" xmlns:xlink="http://www.w3.org/1999/xlink" width="32" height="32"><defs><style type="text/css"></style></defs><path d="M877.202286 0H146.724571A146.724571 146.724571 0 0 0 0 146.797714v730.477715C0 958.390857 65.682286 1024 146.724571 1024h730.477715A146.724571 146.724571 0 0 0 1024 877.275429V146.797714A146.797714 146.797714 0 0 0 877.202286 0z m66.048 164.717714h-0.146286c-55.149714 2.925714-92.452571 34.230857-111.689143 93.696l-281.892571 664.137143h-34.011429L199.68 244.955429c-22.674286-50.395429-58.148571-77.312-106.715429-80.237715v-26.697143h417.792v26.697143c-81.115429 0-116.516571 16.457143-106.934857 49.078857 0 20.845714 12.946286 53.467429 38.912 98.084572L603.062857 672.914286l160.109714-374.418286a59.977143 59.977143 0 0 1 5.12-17.92c12.726857-29.622857 19.309714-50.395429 19.309715-62.317714 3.145143-32.694857-32.402286-50.688-106.861715-53.540572v-26.697143h262.436572v26.697143h0.073143z" p-id="30671" fill="#4d84ba"></path></svg>