<?xml version="1.0" standalone="no"?><!DOCTYPE svg PUBLIC "-//W3C//DTD SVG 1.1//EN" "http://www.w3.org/Graphics/SVG/1.1/DTD/svg11.dtd"><svg t="1563953610746" class="icon" viewBox="0 0 1024 1024" version="1.1" xmlns="http://www.w3.org/2000/svg" p-id="3611" xmlns:xlink="http://www.w3.org/1999/xlink" width="64" height="64"><defs><style type="text/css"></style></defs><path d="M608 608m-384 0a384 384 0 1 0 768 0 384 384 0 1 0-768 0Z" fill="#CAE705" p-id="3612"></path><path d="M528 464h160a32 32 0 0 1 0 64h-192a32 32 0 0 1-32-32v-256a32 32 0 0 1 64 0v224z" fill="#2B82D8" p-id="3613"></path><path d="M512 928c229.76 0 416-186.24 416-416S741.76 96 512 96 96 282.24 96 512s186.24 416 416 416z m0 64C246.912 992 32 777.088 32 512S246.912 32 512 32s480 214.912 480 480-214.912 480-480 480z" fill="#2B82D8" p-id="3614"></path></svg>