<?xml version="1.0" standalone="no"?><!DOCTYPE svg PUBLIC "-//W3C//DTD SVG 1.1//EN" "http://www.w3.org/Graphics/SVG/1.1/DTD/svg11.dtd"><svg t="1555487823585" class="icon" style="" viewBox="0 0 1024 1024" version="1.1" xmlns="http://www.w3.org/2000/svg" p-id="2167" xmlns:xlink="http://www.w3.org/1999/xlink" width="64" height="64"><defs><style type="text/css"></style></defs><path d="M723.6 362.1c-8.6 0-17.2-0.9-25.9-2.7-67-14.4-109.7-80.5-95.4-147.3 6.9-32.4 26-60.1 53.9-78.2 27.8-18 61.1-24.1 93.4-17.2 32.4 6.9 60.2 26.1 78.2 53.9 18 27.8 24.1 61 17.1 93.4-12.4 58.2-64.1 98.1-121.3 98.1z m-0.1-164.7c-7.7 0-15.3 2.2-22 6.5-9.1 5.9-15.4 15-17.6 25.6-4.7 21.9 9.3 43.6 31.2 48.3 21.9 4.7 43.5-9.3 48.2-31.2 2.3-10.6 0.3-21.5-5.6-30.6-5.9-9.1-15-15.4-25.7-17.7-2.7-0.6-5.6-0.9-8.5-0.9z m80.6 57.9h0.4-0.4zM310.5 788.7c-17.3 0-34.8-1.8-52.1-5.5C194 769.4 138.8 731.4 103 676.1c-35.8-55.3-47.9-121.3-34.1-185.7C82.7 426 120.7 370.8 176 335c55.3-35.8 121.3-47.9 185.6-34.1C426 314.7 481.2 352.7 517 408c35.8 55.3 47.9 121.3 34.1 185.7-13.8 64.4-51.8 119.6-107.1 155.4-40.3 26.1-86.4 39.6-133.5 39.6z m-0.8-410c-31.1 0-61.6 9-88.4 26.3-36.6 23.7-61.8 60.2-70.9 102.8-9.1 42.7-1.1 86.3 22.6 122.9 23.7 36.6 60.2 61.8 102.9 70.9 42.7 9.1 86.3 1.1 122.9-22.6 36.6-23.7 61.8-60.2 70.9-102.8 9.1-42.6 1.1-86.3-22.6-122.9-23.7-36.6-60.2-61.8-102.9-70.9-11.5-2.4-23-3.7-34.5-3.7zM800.5 838.9c-11.2 0-22.5-1.2-33.8-3.6-41.7-8.9-77.4-33.5-100.6-69.4-23.2-35.8-31-78.5-22.1-120.2 18.5-86.1 103.4-141.1 189.6-122.7 86.1 18.4 141.1 103.5 122.7 189.5-8.9 41.7-33.6 77.4-69.4 100.6-26.1 17.1-56 25.8-86.4 25.8z m-0.3-256.8c-44.8 0-85.2 31.3-95 76.8-5.4 25.4-0.7 51.3 13.4 73.1 14.1 21.8 35.8 36.8 61.2 42.2 25.2 5.5 51.3 0.7 73.1-13.4 21.8-14.1 36.8-35.8 42.2-61.2 11.2-52.4-22.3-104.1-74.6-115.3-6.8-1.5-13.6-2.2-20.3-2.2z" fill="#009FE8" p-id="2168"></path><path d="M492.9 432c-13.6 0-26.8-6.6-34.9-18.8-12.7-19.2-7.4-45.1 11.9-57.8l74.2-48.9c19.3-12.7 45.2-7.3 57.8 11.9 12.7 19.2 7.4 45.1-11.9 57.8l-74.2 48.9c-7.1 4.7-15.1 6.9-22.9 6.9zM650.7 688.9c-3.7 0-7.4-0.5-11.1-1.5l-144.9-39.9c-22.2-6.1-35.2-29.1-29.1-51.3s29-35.4 51.3-29.1L661.7 607c22.2 6.1 35.2 29.1 29.1 51.3-5.1 18.5-21.9 30.6-40.1 30.6z" fill="#009FE8" p-id="2169"></path></svg>