<?xml version="1.0" standalone="no"?><!DOCTYPE svg PUBLIC "-//W3C//DTD SVG 1.1//EN" "http://www.w3.org/Graphics/SVG/1.1/DTD/svg11.dtd"><svg t="1587687755182" class="icon" viewBox="0 0 1024 1024" version="1.1" xmlns="http://www.w3.org/2000/svg" p-id="12940" width="128" height="128" xmlns:xlink="http://www.w3.org/1999/xlink"><defs><style type="text/css"></style></defs><path d="M753.3458 1006.920093l-13.505042 13.505043L225.854722 510.411171 739.840758 0l13.505042 13.505043-500.480993 496.906128z" fill="#4D84BA" p-id="12941"></path><path d="M766.850843 993.41505l-13.505043 13.505043-500.480993-496.508922 500.480993-496.906128 13.505043 13.505042L279.874893 510.411171z" fill="#4D84BA" p-id="12942"></path><path d="M779.958678 979.910008l-13.107835 13.505042L279.874893 510.411171 766.850843 27.010085l13.107835 13.505043L306.884978 510.411171z" fill="#4D84BA" p-id="12943"></path><path d="M793.463721 966.404965l-13.505043 13.505043L306.884978 510.411171 779.958678 40.515128l13.505043 13.505043L333.895063 510.411171z" fill="#4D84BA" p-id="12944"></path><path d="M806.968764 952.899922l-13.505043 13.505043L333.895063 510.411171 793.463721 54.020171l13.505043 13.505042L360.905149 510.411171z" fill="#4D84BA" p-id="12945"></path><path d="M820.473806 939.39488l-13.505042 13.505042L360.905149 510.411171 806.968764 67.525213l13.505042 13.505043L388.312441 510.411171z" fill="#4D84BA" p-id="12946"></path><path d="M833.978849 925.889837l-13.505043 13.505043-432.161365-428.983709L820.473806 81.030256l13.505043 13.505043L415.322526 510.411171z" fill="#4D84BA" p-id="12947"></path><path d="M847.086685 912.384794l-13.107836 13.505043L415.322526 510.411171 833.978849 94.535299l13.107836 13.902249L442.332612 510.411171z" fill="#4D84BA" p-id="12948"></path><path d="M860.591727 898.482545l-13.505042 13.902249L442.332612 510.411171 847.086685 108.437548l13.505042 13.505043-391.24903 388.46858z" fill="#4D84BA" p-id="12949"></path><path d="M874.09677 884.977502l-13.505043 13.505043-391.24903-388.071374 391.24903-388.46858 13.505043 13.505043-377.743988 374.963537z" fill="#4D84BA" p-id="12950"></path><path d="M887.601813 871.472459l-13.505043 13.505043-377.743988-374.566331 377.743988-374.963537 13.505043 13.505042-364.238945 361.458495z" fill="#4D84BA" p-id="12951"></path><path d="M914.214691 844.462374l-13.107836 13.505043-350.733902-347.556246 350.733902-347.953452 13.107836 13.505043-336.434445 334.448409z" fill="#4D84BA" p-id="12952"></path><path d="M901.106855 857.967417l-13.505042 13.505042-364.238945-361.061288 364.238945-361.458495 13.505042 13.505043-350.733902 347.953452z" fill="#4D84BA" p-id="12953"></path><path d="M233.401657 1.588829v1022.013964" fill="#4D84BA" p-id="12954"></path><path d="M109.473031 1.588829h19.065942v1022.411171H109.473031z" fill="#4D84BA" p-id="12955"></path><path d="M128.538973 1.588829h19.065943v1022.411171H128.538973z" fill="#4D84BA" p-id="12956"></path><path d="M147.604916 1.588829h19.065942v1022.411171H147.604916z" fill="#4D84BA" p-id="12957"></path><path d="M166.670858 1.588829h19.065943v1022.411171h-19.065943z" fill="#4D84BA" p-id="12958"></path><path d="M185.736801 1.588829H204.802744v1022.411171h-19.065943z" fill="#4D84BA" p-id="12959"></path><path d="M204.802744 1.588829h19.065942v1022.411171H204.802744z" fill="#4D84BA" p-id="12960"></path><path d="M223.868686 1.588829h19.065943v1022.411171h-19.065943z" fill="#4D84BA" p-id="12961"></path><path d="M242.934629 1.588829h19.065942v1022.411171h-19.065942z" fill="#4D84BA" p-id="12962"></path><path d="M262.000571 1.588829h19.065943v1022.411171h-19.065943z" fill="#4D84BA" p-id="12963"></path><path d="M281.066514 1.588829H300.132457v1022.411171h-19.065943z" fill="#4D84BA" p-id="12964"></path><path d="M300.132457 1.588829h19.065942v1022.411171H300.132457zM338.264342 1.588829h19.065942v1022.411171h-19.065942z" fill="#4D84BA" p-id="12965"></path><path d="M319.198399 1.588829h19.065943v1022.411171h-19.065943z" fill="#4D84BA" p-id="12966"></path></svg>