<?xml version="1.0" standalone="no"?><!DOCTYPE svg PUBLIC "-//W3C//DTD SVG 1.1//EN" "http://www.w3.org/Graphics/SVG/1.1/DTD/svg11.dtd"><svg t="1576484057128" class="icon" viewBox="0 0 1024 1024" version="1.1" xmlns="http://www.w3.org/2000/svg" p-id="1440" width="300" height="300" xmlns:xlink="http://www.w3.org/1999/xlink"><defs><style type="text/css"></style></defs><path d="M916.992 228.352c8.192 2.56 15.872-6.144 20.48-10.752 4.096-7.168 16.384-18.944 25.088-18.944 4.608 1.536 0 13.312 5.12 17.408 0.512 0.512 4.608 4.608 3.584 5.12-2.048 5.632-6.144 43.008-3.584 44.544-0.512 3.584 0 6.144-3.072 9.216-3.072 4.608-10.752 1.024-14.848 1.024-1.536 2.56-6.144 4.096-7.168 7.168-3.584 11.264 15.872 29.696 12.288 41.984 0 1.536-2.56 11.264-3.072 13.312-0.512 1.536-1.024 3.072-2.56 3.584 0 0.512-7.168-1.536-8.704-1.536-3.072-3.584-1.536-10.752-3.072-10.752-2.048 0.512-3.584 3.584-4.096 3.584-0.512 3.584-3.584 13.824-7.168 15.872-2.048 2.56-6.656 3.072-9.728 3.072-1.024 0.512-1.024 0.512-1.024 2.048 3.072 2.048 5.12 5.632 5.12 8.192 1.024 4.608-5.12 8.192-6.656 7.168-6.656 0-11.264-3.584-17.408-3.584-2.56 0.512-3.072 9.216-5.12 9.216-1.536 6.144-7.168 10.24-10.752 15.36v0.512c-4.096 1.536-7.168 5.12-10.24 7.68 0 3.072-2.56 7.168-3.072 11.264-10.24 8.704-23.552 4.096-31.232 21.504 0 3.584-5.12 11.264-5.12 11.264-4.096 0-8.192 0.512-12.288 0.512-0.512-3.584 2.56-10.24 7.168-10.24 0-2.048-7.68-11.264-4.096-11.264v-1.536c0-6.144 8.192-8.192 6.144-16.896-1.024-5.12-6.656-6.656-11.264-5.12l-32.256 39.424c-1.536 2.048-13.824 4.608-16.896 5.12-4.096 3.584-6.144 11.776-0.512 14.848 1.024 3.584 2.56 5.12 2.56 8.704 1.536 0.512 11.264-4.608 16.384-2.56 1.536 3.072 2.56 6.144 2.56 9.728 1.024 1.536 6.144 7.168 8.192 7.168 0.512 0 0 0 0 0 7.68 0 7.68-17.408 22.016-17.408 6.144-1.536 11.776 4.608 18.944 2.56 4.096-1.024 7.168 0 10.24 1.536 0 1.024 1.024 9.216-2.048 9.216-0.512 1.024-16.384 7.68-16.384 7.68 1.536 2.048-13.312 17.408-15.36 15.872-0.512 1.536-5.632 8.704-5.632 9.216-0.512 0.512-2.048 2.56-2.048 3.072-0.512 2.048-2.56 13.312-2.56 13.824 0.512 0.512 0 0.512 0.512 1.024l0.512 0.512c0 1.024 2.048 1.536 2.048 2.048 21.504 3.072 22.528 35.84 30.208 39.424 0 0.512 0 0.512 0.512 1.024 5.632 4.608 12.288 7.68 18.432 12.288v0.512c7.68 3.584-7.68 4.096-7.68 6.656 4.608 2.56 9.728 5.12 12.288 12.8 0 8.704-18.944 15.872-23.04 20.48v0.512c1.536 0.512 5.12 0.512 6.656 0.512 4.608-8.704 18.432-2.048 24.576 0.512v0.512c-1.024 4.608-9.728 7.168-9.728 10.752 1.536 0 6.144-5.12 7.68-2.56 0 1.536 1.536 5.632 0 7.168-2.048 2.56-4.096 0.512-6.144 2.048 0 10.24 11.776 24.064-5.12 24.064-5.12 8.704-6.144 9.728-6.656 21.504-4.608 3.072-3.584 10.24-7.68 13.312-2.048 0-6.144 0-6.656 1.024 0 2.56 4.608 4.608 6.656 5.12-0.512 4.096-6.656 2.56-5.12 8.192 0.512 5.12 1.536 7.68 0.512 12.288-9.216 0.512-2.56 8.704-9.728 12.288-2.048 6.144-11.776 6.144-12.288 8.192-2.048 2.048-11.776 20.992-15.36 20.992v0.512c-4.608 1.536-14.336 3.072-14.336 8.704-0.512 1.536 0.512 2.048 0.512 3.584-9.216 5.12-22.016 17.92-34.304 13.824-5.12-1.536-5.632 9.216-10.752 9.216-2.56 2.56-9.728-4.608-9.728-6.656-4.096-2.56-4.096 2.048-4.608 3.072-2.048 8.192-15.872 16.896-24.064 16.896-5.632 1.536-33.28 4.608-34.304 9.728 0 2.56-1.536 7.68-4.608 7.68-2.56 3.072-1.024 2.048 0 5.12 1.536 0 3.072 0 4.096 0.512 1.024 1.536 0.512 5.632 0.512 7.168-3.584 2.048-5.12 2.048-9.728 1.536-2.048-0.512-5.12-8.704-7.168-10.752-6.144-3.072 0-9.728 0.512-13.312h-1.024c-4.096 1.024-7.168 3.072-10.752 3.584-0.512 0-9.216-12.8-9.728-6.656 2.048 1.024 2.56 3.072 0 3.072 0 1.024-14.848-0.512-16.384-0.512-5.12 0-23.552-5.12-22.016-13.312-0.512-2.56 1.536-8.192 1.536-10.752l-1.536-1.536c-1.536 0-19.456-3.584-19.456-3.584-3.072-0.512-2.048-4.096-4.096-4.608-1.024-1.024-4.608 0-5.12 0.512-1.536 2.048-7.168 9.728-10.752 9.728-3.072 0-5.12 0-7.68 1.536 0 5.12-7.168 3.072-9.216 3.072-1.024-1.024-3.072-2.048-3.072-3.072-1.024 0-7.68 2.048-7.68 2.048-5.12 1.536-8.192-3.072-12.8-3.072-0.512 1.024-4.096 4.608-5.12 4.608-1.536 1.024-8.704-1.536-10.24-0.512-2.048 0.512-1.536 2.56-1.536 5.12 2.048 2.048 2.56 8.704 2.56 11.264 2.048 0 2.048 9.728 1.536 11.264-0.512 3.072-3.072 2.048-5.632 1.536-5.12-1.024-8.192-6.656-8.192-11.776 0-3.584-0.512-1.536-2.048-4.096-5.632 0-5.12 5.632-8.704 5.632-2.56 0-3.072-1.024-5.12-1.536-1.024-4.096-10.24-11.264-10.24-11.264-1.536-0.512-5.12 1.024-6.144 0-1.024-0.512-2.56-2.56-3.072-3.584-1.024-5.12 1.024-13.312-0.512-17.408-2.56-1.024-4.096-1.024-5.632-3.072-3.072-2.048-4.096-13.824-7.68-17.92-5.632-3.584-8.192 3.072-12.288 3.072-6.144-1.536-3.584-5.12-4.608-10.752-2.048-6.656 1.536-11.264 3.072-16.896h0.512c0-3.584 10.24-8.192 13.312-11.264 1.024 0 1.024-0.512 1.536-1.024 1.536-0.512 8.192-30.208 4.608-34.304 0-2.048-7.68-4.608-7.68-6.656-0.512-0.512-1.024-2.56-1.536-2.56 0-5.632-2.048-8.192-5.632-12.288-2.048-0.512-4.608-1.536-6.144 0.512-3.584 2.048 0 11.264-5.632 12.288-3.584 1.024-7.68-5.632-11.264-8.192-3.584 0-10.24-5.12-13.824-6.144-3.584 0.512-8.192 5.632-10.752 8.192-9.728 1.024-18.432 12.8-27.136 15.872-3.584 2.048-28.672 7.168-33.28 0-2.048-2.048 0.512-9.216 0.512-11.776-3.072-2.048-5.12-3.072-5.12-7.68-1.024-0.512-9.216-2.048-9.216-2.56-6.656-1.536-11.264-11.264-19.456-11.264 0 0-13.312 4.096-14.848 7.168 0 2.56 1.024 6.656-0.512 9.216-4.096 2.048-4.096 2.048-9.216 0.512-3.072-5.632 0-10.24 0-15.872-3.072-2.048-9.216-2.048-12.288-1.024-3.072 0.512-6.144 5.12-10.24 4.096-4.096-1.024-6.656-5.12-9.216-8.192-5.632-1.024-10.24-1.024-16.384-1.024-4.608-4.096-8.192-10.752-12.288-15.872-3.072-2.048-7.168 0-10.24-4.096-0.512-0.512-1.024-1.024-1.536-1.024-2.048-3.072-4.608-10.24-4.608-15.36-2.56-1.536-9.216 0-10.752-2.56-1.536 0-5.12-6.656-5.12-7.68-3.072-2.048-8.192-3.584-10.752-6.656h-0.512c0-2.56-8.192-11.776-8.192-11.776-8.192 1.536-17.92 5.632-24.064-2.56-2.048-2.048-2.56-6.656-2.56-10.24-8.192-6.656-11.264-14.848-22.528-14.848-2.56-0.512-1.536-1.024-3.072-2.048 0.512-4.096-0.512-6.144 2.56-8.704v-0.512c4.096-3.072 1.536-15.36 1.536-19.456 0-5.12-0.512-2.56 1.024-5.632 4.608 0 7.68 3.584 11.264 3.584 0.512-1.536 1.024-0.512 1.024-2.56 0-7.68-2.56-14.336-3.584-22.016-2.048-6.144 4.608-9.216 4.608-13.824-2.56-2.048-2.56-2.048-4.096-3.072-7.168-1.536-8.192-10.24-6.656-15.872 2.048-6.656-18.432-22.528-22.528-19.456-1.536 0-3.584-2.56-3.584-3.072 0-3.584 3.584-13.824 1.536-16.896-3.072-1.536-12.288-9.216-14.336-11.776l-0.512-0.512c-3.584-5.632 1.024-10.752 6.656-12.288 3.072-6.144 1.536-12.288 1.536-18.944 0-7.168-7.68-2.56-11.776-2.56-3.072-2.048-6.144-3.584-3.072-10.24 6.144-1.536 4.608-9.216 1.536-9.216-1.024-1.536 6.656-5.632 7.68-9.728 5.632 0 22.528-14.336 32.256-11.264 6.656 1.024 1.536 9.216 10.752 9.728 13.312-10.752 19.968-11.776 36.864-11.776 1.536-0.512 17.92-2.048 17.92-3.072 5.632-3.072 5.632-5.632 5.12-8.704 0.512-0.512 15.872-18.944 15.872-19.456 1.536-8.192 2.048-15.872 0.512-24.064 1.024-2.56 1.024-6.144-1.024-7.68-1.536-2.56-0.512-4.608 2.56-4.608 12.288-3.584 22.016 3.584 33.792 3.584v-0.512c3.072-3.584-3.584-13.824 8.192-19.968 1.536-2.56 7.68-13.824 8.192-15.36 1.536-2.048 4.096-1.536 6.144-1.024 0 5.12 25.088 9.216 26.112 9.216 3.584 0 4.608-1.024 5.632-4.608 0 0-0.512-12.288 0.512-13.824 2.048-8.192 14.336-7.68 20.992-9.728 3.584-3.072 2.048-9.216 9.728-9.216 3.584-1.024 9.216 1.024 9.216 5.632 0 2.56 1.536 5.632 1.536 7.168-1.024 3.072 13.824 14.848 16.384 14.336 2.048 0.512 8.704 4.608 9.216 6.144 0 4.608 0.512 13.824 4.096 15.872 1.024 6.144 6.144 15.36-1.024 20.48v0.512c-6.144 6.144-7.68 11.264-1.536 17.92 3.584 2.56 10.752 3.584 15.36 4.608 3.072 0 50.688 16.896 49.152 28.672 0 4.608 2.048 11.776 6.144 13.824v1.024s-0.512 8.192 1.024 8.192v0.512l1.536 1.024 0.512 0.512c5.12 0 11.264 2.56 17.408 2.56 4.608 1.536 13.824 5.12 17.92 5.12v0.512c11.264 0 22.528-0.512 33.792-0.512 11.776 1.536 17.92 13.312 26.112 14.336 4.096-4.608 12.288 1.536 13.824 4.096 8.192 0 10.24 4.608 15.36 8.192 1.024 1.536 2.048 1.536 4.096 1.536 2.56-7.168 51.2-17.92 51.2-25.088h0.512c7.68-2.048 18.432 4.608 27.648 2.56 1.536-4.096 10.24-12.288 13.312-15.36 3.584-3.584 18.944-14.336 16.896-16.384-1.536-5.12-10.24-28.16 3.584-28.16 0 0 17.408 10.752 17.408 6.656 4.608 0 14.336-11.776 15.36-15.872 5.632-1.024 15.872-1.536 18.432-6.656 3.584-3.072 7.168-12.8 8.192-12.8 2.56-3.072 7.168-4.096 10.752-5.12h0.512c1.536-2.048 8.704-7.68 10.752-7.68 0-1.024 18.944-1.536 22.016-2.048 0-2.56-0.512-5.12-0.512-7.168-2.56-7.68-11.776-12.288-19.456-16.384-3.072 0-4.608 3.584-8.704 3.584-2.048 2.048-2.048 4.096-4.096 6.656-4.608 0-12.8-4.096-15.872-3.072-4.608 0-8.192 3.584-14.848 3.584-1.024-2.048-2.56-3.072-2.56-5.632 2.56-3.072 7.168-6.656 5.632-10.752 0-9.216 2.56-15.36 4.608-25.088h0.512c1.024-1.024 2.048-2.56 3.584-3.072 9.728 0 19.456 1.024 26.624-6.656l1.536-1.536c0-5.12 3.584-12.8 3.584-18.944 0-7.68 9.216-20.992 9.216-20.992 2.56-5.632-4.096-11.264-8.704-13.312 0-0.512 0-2.048-0.512-2.048 1.024-5.632 1.536-6.144 5.12-9.216 4.096-1.024 8.192-2.56 12.288-3.584 2.56-5.12 16.896-9.216 22.528-9.216 4.096-1.024 8.192 3.072 12.288 3.072 7.168-0.512 11.264-1.024 17.408 1.536H815.616s22.016 22.528 22.016 27.136c0 0.512 0.512 1.024 0.512 1.024l1.024 1.024v0.512c3.072 3.072 6.656 6.656 9.728 9.216v0.512c0 5.12 2.56 8.192 6.656 10.752 0 0.512 0 0.512 0.512 1.024 0.512 1.536 1.536 8.192 3.584 8.192v0.512c4.096 0 12.288-1.024 15.872 0.512 0 2.048 8.704 0 10.752 1.024 0 0.512 3.584 1.536 4.096 2.56 0.512 4.096 8.192 6.144 12.8 7.168 2.048 3.072 8.704 16.384 13.824 16.384zM845.824 778.24c0.512-5.632 1.024-10.24 1.536-15.872 0-7.168 3.584-8.192 3.584-14.336 0-6.144 6.144-17.408 11.264-22.016 1.024-1.024 7.68-2.048 9.216-1.536 12.288 1.536 4.608 9.216 4.608 14.336 0 7.68 3.072 18.944 1.024 25.6 0 3.072-3.072 5.632-3.072 7.68-1.536 2.56-7.68 3.584-7.68 7.68-2.56 7.68 0.512 12.288-5.632 19.968 0-2.048-5.12-4.608-5.12-8.192-5.12-5.12-8.192-6.656-9.728-13.312z m-207.872 80.384c7.68-0.512 23.552-7.68 31.744-4.096 2.048 0.512 6.144 2.048 6.656 4.096 2.048 2.56-3.072 8.704-7.68 22.016h-0.512v0.512c-3.584 7.168-20.48 13.824-20.992 12.288h-1.024c-3.072 1.024-15.36-3.584-15.36-6.656h-0.512c-4.096-19.456 6.656-14.336 7.68-28.16z" fill="#1296db" p-id="1441" data-spm-anchor-id="a313x.7781069.0.i3" class=""></path></svg>