<svg id="图层_1" data-name="图层 1" xmlns="http://www.w3.org/2000/svg" viewBox="0 0 16 16"><title>画板 14</title><rect x="0.5" y="1.5" width="15" height="10" rx="0.46" ry="0.46" style="fill:#fff"/><path d="M15,2v9H1V2H15m0-1H1A1,1,0,0,0,0,2V11a1,1,0,0,0,1,1H15a1,1,0,0,0,1-1V2a1,1,0,0,0-1-1Z" style="fill:gray"/><rect x="2" y="14" width="12" height="1" rx="0.48" ry="0.48" style="fill:#fff"/><path d="M13.52,14h-11a.48.48,0,0,0-.48.48v0a.48.48,0,0,0,.48.48h11a.48.48,0,0,0,.48-.48v0a.48.48,0,0,0-.48-.48Z" style="fill:gray"/><rect x="6.5" y="11.5" width="3" height="3" rx="0.5" ry="0.5" style="fill:#fff"/><path d="M9,12v2H7V12H9m0-1H7a1,1,0,0,0-1,1v2a1,1,0,0,0,1,1H9a1,1,0,0,0,1-1V12a1,1,0,0,0-1-1Z" style="fill:gray"/><rect y="9" width="16" height="1" rx="0.5" ry="0.5" style="fill:#fff"/><path d="M15.5,9H.5a.5.5,0,0,0,0,1h15a.5.5,0,0,0,0-1Z" style="fill:gray"/><rect x="2" y="3" width="2" height="2" style="fill:#fed543"/><rect x="5" y="3" width="2" height="2" style="fill:#de673e"/><rect x="8" y="3" width="2" height="2" style="fill:#5da58e"/></svg>