<svg id="svg5692" xmlns="http://www.w3.org/2000/svg" viewBox="0 0 13.98 15"><title>mIconPointLayer</title><g id="layer4"><path id="path2929" d="M4.5,12.5a1,1,0,1,1-1-1A1,1,0,0,1,4.5,12.5Z" transform="translate(-2 -1)" style="fill:#eeeeec;stroke:#888a85;stroke-linecap:round;stroke-linejoin:round"/><path id="path2931" d="M6.5,5.5a1,1,0,1,1-1-1A1,1,0,0,1,6.5,5.5Z" transform="translate(-2 -1)" style="fill:#eeeeec;stroke:#888a85;stroke-linecap:round;stroke-linejoin:round"/><path id="path2933" d="M13.5,2.5a1,1,0,1,1-1-1A1,1,0,0,1,13.5,2.5Z" transform="translate(-2 -1)" style="fill:#eeeeec;stroke:#888a85;stroke-linecap:round;stroke-linejoin:round"/></g><g style="isolation:isolate"><path d="M9.19,11.11h1.06l2.21,4.14,2.22-4.14h1.21v.11c-.78.07-.85.15-.82.93l.06,2.77c0,.8.06.91.85,1V16H13.92v-.11c.74-.05.76-.16.75-1l0-3.28h0l-2.27,4.27h-.08l-2.06-4h0L10.08,14c0,.37,0,.63,0,.84,0,.75.08,1,.86,1V16h-2v-.11c.52,0,.7-.17.76-.48a10.25,10.25,0,0,0,.18-1.51L10,12.47c0-.21,0-.38,0-.52,0-.55-.14-.66-.78-.73Z" transform="translate(-2 -1)" style="fill:#1873bb;stroke:#000;stroke-miterlimit:10;stroke-width:0.009999999776482582px"/></g></svg>