<?xml version="1.0" standalone="no"?><!DOCTYPE svg PUBLIC "-//W3C//DTD SVG 1.1//EN" "http://www.w3.org/Graphics/SVG/1.1/DTD/svg11.dtd"><svg t="1536304632616" class="icon" style="" viewBox="0 0 1024 1024" version="1.1" xmlns="http://www.w3.org/2000/svg" p-id="2582" xmlns:xlink="http://www.w3.org/1999/xlink" width="48" height="48"><defs><style type="text/css"></style></defs><path d="M419.1 807.6c-94.2-32.2-162-121.7-162-227.1 0-132.2 107.6-239.4 239.4-239.9v7.7c-0.1 18.1 7.7 22.6 23.5 13.4 15.8-9.1 31.6-18.2 47.4-27.1 15.9-9 15.9-17.9 0-26.9s-31.7-18-47.4-27.1c-15.8-9.1-23.6-4.7-23.5 13.4v9.7h-4.9c-152.5 0-271.2 123.9-271.2 276.8 0 121.5 78.2 224.6 186.9 261.9 2 0.7 3.2 1.3 4.9 1.7 3.1 0.6 7.1 0 7.1 0 8.4-1.7 14.8-9.2 14.8-18.1-0.2-9.1-6.6-16.7-15-18.4z m74.4-478.8z" fill="#1296db" p-id="2583"></path><path d="M418.4 720.5h34.5c7.5 0 11.2-4 11.2-12.1V555.6c0-7.2 3.4-11.2 10.3-12.1 5-0.6 7.4-3.8 7.4-9.5v-9c0-5.7-2.5-8.9-7.4-9.5-6.9-0.7-10.3-4.3-10.3-10.8v-1.3c0-8.1 4.5-12.2 13.5-12.2h1.1c2.3 0 4.4-1 6.3-3s2.8-4.7 2.8-8.1v-5.9c0-3.4-0.9-6.1-2.8-8.1s-4-3-6.3-3H477c-7.7 0-12-3.6-12.8-10.8-0.7-6.1-4.1-9.2-10.1-9.2h-36.7c-6.1 0-9.5 3.1-10.1 9.2-0.8 7.2-5.6 10.8-14.4 10.8H368c-7.5 0-11.2 3.7-11.2 11.1v5.9c0 7.4 3.7 11.1 11.2 11.1h23.7c10.3 0 15.5 4.1 15.5 12.2 0 8-5.2 12.1-15.5 12.1h-19.5c-7.5 0-11.2 4-11.2 12.1v176.1c0 8 3.6 12.1 10.9 12.1h8.9c7.3 0 10.9-4 10.9-12.1v-152c0-5.4 2.6-8.1 7.8-8.1 5.2 0 7.8 2.7 7.8 8.1v156.7c-0.1 8.1 3.6 12.1 11.1 12.1zM568 684.9h17.6c7.3 0 10.8-3.3 10.4-9.8 0-0.5-0.1-1.2-0.2-2.1L588 571.7c-0.6-7.7-4.5-11.6-11.6-11.6H559c-7 0-10.4 3.3-10.4 10 0 0.3 0.1 0.9 0.2 1.7l7.8 101.4c0.5 7.8 4.3 11.7 11.4 11.7z" fill="#1296db" p-id="2584"></path><path d="M488.1 720.6h166.1c7.5 0 11.2-3.6 11.2-10.8v-7.9c0-4.3-1.8-6.7-5.4-7.1-5.1-0.5-7.6-3.1-7.6-7.6V685l11.2-113.1c0.1-0.7 0.2-1.5 0.2-2.4 0-6.3-3.4-9.5-10.1-9.5h-23.9c-7 0-10.8 3.9-11.6 11.6l-11.1 110.1c-0.4 4.9-1.8 8.2-4.1 10.2s-6.2 3-11.6 3H488.1c-7.4 0-11.1 3.6-11.1 10.8v4.3c0 7 3.7 10.6 11.1 10.6z" fill="#1296db" p-id="2585"></path><path d="M613.4 316.8c-2.4-1-3.2-1.3-4.9-1.7-4.1-0.6-7.1 0-7.1 0-8.4 1.7-14.8 9.2-14.8 18.1 0 8.9 5.3 15.2 14.8 18.3 94.2 32.2 162 121.7 162 227.1 0 132.5-107.2 239.9-239.4 239.9v-7.8c0.1-18.1-7.7-22.6-23.5-13.4-15.8 9.1-31.6 18.2-47.4 27.1-15.9 9-15.9 17.9 0 26.9s31.7 18 47.4 27.1c15.8 9.1 23.6 4.7 23.5-13.4v-9.6h1.5c151.8-0.8 274.6-124.4 274.6-276.8 0.1-121.5-78-224.6-186.7-261.8z" fill="#1296db" p-id="2586"></path><path d="M653.8 519.8H503c-7.5 0-11.2 3.6-11.2 10.8v4.3c0 7.2 3.7 10.8 11.2 10.8h150.9c7.4 0 11.1-3.6 11.1-10.8v-4.3c-0.1-7.2-3.8-10.8-11.2-10.8zM510.7 684.9h18.5c7 0 10.4-3.4 10.4-10.3V673L533 571.8c-0.5-7.8-4.3-11.7-11.4-11.7h-18.2c-7.1 0-10.6 3.4-10.6 10.3v1.6l6.5 101.2c0.5 7.8 4.3 11.7 11.4 11.7z m134.1-224.6c-1.8-3.9-3.7-6.6-5.7-7.9-1.9-1.4-4.7-2.1-8.4-2.1H520.5c-3.8 0-6.6 0.7-8.4 2.1-2 1.5-3.8 4.1-5.4 7.9l-15.5 37.9c-0.8 2.1-1.3 3.6-1.3 4.4 0 1.3 0.7 2.7 2.2 4.3 1.3 1.5 3.2 2.2 5.7 2.2h35.6c3.6 0 6.3-0.7 8.1-2.1 1.9-1.5 3.6-4.2 5.1-8.1L551 486c1.5-3.9 3.3-6.6 5.4-7.9 2.1-1.4 5.6-2.1 10.4-2.1H588c4.7 0 8.2 0.7 10.4 2.1 2.1 1.4 3.9 4 5.2 7.9l4.8 12.9c1.4 3.9 3 6.6 4.9 8.1 1.9 1.4 4.6 2.1 8.2 2.1H656c2.5 0 4.4-0.7 5.7-2.2 1.3-1.5 1.9-2.9 1.9-4.1 0-1-0.5-2.4-1.4-4.3l-17.4-38.2z" fill="#1296db" p-id="2587"></path><path d="M867.1 137.8H730.4v57.5c0 8.3-6.7 15-15 15H305.1c-8.3 0-15-6.7-15-15v-57.5H153.4c-8.3 0-15 6.7-15 15V945c0 8.3 6.7 15 15 15H867c8.3 0 15-6.7 15-15V152.8c0-8.3-6.7-15-14.9-15z m-34 484.2v275.4c0 7.2-5.8 13-12.8 13H198.9c-7.1 0-12.8-5.8-12.8-13v-697c0-7.2 5.8-13 12.8-13H232v50.8c0 7.2 5.8 13 12.8 13h525.6c7.1 0 12.8-5.8 12.8-13v-50.8h37.1c7.1 0 12.8 5.8 12.8 13V622z" fill="#1296db" p-id="2588"></path><path d="M340.7 182.6h339.2c8.3 0 15-6.7 15-15V79c0-8.3-6.7-15-15-15H340.7c-8.3 0-15 6.7-15 15v88.6c0 8.3 6.7 15 15 15z" fill="#1296db" p-id="2589"></path></svg>