<svg id="图层_1" data-name="图层 1" xmlns="http://www.w3.org/2000/svg" viewBox="0 0 16 16"><title>画板 15</title><path d="M3,15.5a.5.5,0,0,1-.5-.5V6.5h-2L8,.51l7.5,5.92L14,6.5h-.5V15a.5.5,0,0,1-.5.5Z" style="fill:#fff"/><path d="M8,1.13,14.15,6H13v9H3V6H1.85L8,1.13M8,0a.53.53,0,0,0-.33.11L.21,6A.54.54,0,0,0,.53,7H2v8a1,1,0,0,0,1,1H13a1,1,0,0,0,1-1V7h1.47a.54.54,0,0,0,.33-1L8.33.11A.53.53,0,0,0,8,0Z" style="fill:gray"/><path d="M6.53,11H6v.5a.5.5,0,0,1-1,0V11H4.47a.47.47,0,0,0-.47.47v2.06a.47.47,0,0,0,.47.47H6.53A.47.47,0,0,0,7,13.53V11.47A.47.47,0,0,0,6.53,11Z" style="fill:#5da58e"/><path d="M6.53,7H6v.5a.5.5,0,0,1-1,0V7H4.47A.47.47,0,0,0,4,7.47V9.53a.47.47,0,0,0,.47.47H6.53A.47.47,0,0,0,7,9.53V7.47A.47.47,0,0,0,6.53,7Z" style="fill:#fed543"/><path d="M11.53,11H11v.5a.5.5,0,0,1-1,0V11H9.47a.47.47,0,0,0-.47.47v2.06a.47.47,0,0,0,.47.47h2.06a.47.47,0,0,0,.47-.47V11.47A.47.47,0,0,0,11.53,11Z" style="fill:#de673e"/></svg>