<?xml version="1.0" standalone="no"?><!DOCTYPE svg PUBLIC "-//W3C//DTD SVG 1.1//EN" "http://www.w3.org/Graphics/SVG/1.1/DTD/svg11.dtd"><svg t="1574827491375" class="icon" viewBox="0 0 1024 1024" version="1.1" xmlns="http://www.w3.org/2000/svg" p-id="2451" xmlns:xlink="http://www.w3.org/1999/xlink" width="516" height="516"><defs><style type="text/css"></style></defs><path d="M976 672c-6.496 0-12.688 1.328-18.352 3.664v-0.016l-0.208 0.08-0.208 0.08L512 860.048 66.784 675.824a1.12 1.12 0 0 0-0.208-0.08l-0.208-0.08-0.016 0.016a48 48 0 0 0-36.704 88.656v0.016l463.584 191.824a1.12 1.12 0 0 0 0.208 0.08l0.208 0.08 0.016-0.016a47.6 47.6 0 0 0 36.688 0.016l0.016 0.016 0.208-0.08a1.12 1.12 0 0 1 0.208-0.08l463.568-191.824v-0.016A48 48 0 0 0 976 672zM29.664 348.336v0.016l463.584 191.824 0.208 0.08 0.208 0.08 0.016-0.016a47.456 47.456 0 0 0 36.672 0.016l0.016 0.016 0.208-0.08a1.12 1.12 0 0 1 0.208-0.08l463.568-191.824v-0.016A48.048 48.048 0 0 0 1024 304a48 48 0 0 0-29.648-44.336v-0.016L530.784 67.824a1.12 1.12 0 0 0-0.208-0.08l-0.208-0.08-0.016 0.016a47.744 47.744 0 0 0-36.688-0.016l-0.016-0.016-0.208 0.08a1.12 1.12 0 0 1-0.208 0.08L29.648 259.648v0.016A48 48 0 0 0 0 304a48 48 0 0 0 29.664 44.336zM976 464c-6.496 0-12.688 1.328-18.352 3.664v-0.016l-0.208 0.096a1.12 1.12 0 0 1-0.208 0.08L512 652.048 66.784 467.824a1.12 1.12 0 0 0-0.208-0.08l-0.208-0.096-0.016 0.016a48 48 0 0 0-36.704 88.672v0.016l463.584 191.824 0.208 0.08 0.208 0.08 0.016-0.016a47.6 47.6 0 0 0 36.688 0.016l0.016 0.016 0.208-0.08a1.12 1.12 0 0 1 0.208-0.08l463.568-191.824v-0.016A48 48 0 0 0 976 464z" fill="#1296DB" p-id="2452"></path></svg>