<?xml version="1.0" standalone="no"?><!DOCTYPE svg PUBLIC "-//W3C//DTD SVG 1.1//EN" "http://www.w3.org/Graphics/SVG/1.1/DTD/svg11.dtd"><svg t="1531461769843" class="icon" style="" viewBox="0 0 1024 1024" version="1.1" xmlns="http://www.w3.org/2000/svg" p-id="3468" xmlns:xlink="http://www.w3.org/1999/xlink" width="48" height="48"><defs><style type="text/css"></style></defs><path d="M56.888889 56.888889v910.222222h910.222222V56.888889H56.888889z m56.888889 227.555555h227.555555v170.666667H113.777778V284.444444z m512 170.666667H398.222222V284.444444h227.555556v170.666667z m0 56.888889v170.666667H398.222222V512h227.555556zM113.777778 512h227.555555v170.666667H113.777778V512z m0 398.222222v-170.666666h227.555555v170.666666H113.777778z m284.444444 0v-170.666666h227.555556v170.666666H398.222222z m512 0h-227.555555v-170.666666h227.555555v170.666666z m0-227.555555h-227.555555V512h227.555555v170.666667z m0-227.555556h-227.555555V284.444444h227.555555v170.666667zM113.777778 227.555556V113.777778h796.444444v113.777778H113.777778z" fill="#1296db" p-id="3469"></path></svg>