<?xml version="1.0" standalone="no"?><!DOCTYPE svg PUBLIC "-//W3C//DTD SVG 1.1//EN" "http://www.w3.org/Graphics/SVG/1.1/DTD/svg11.dtd"><svg t="1552961338612" class="icon" style="" viewBox="0 0 1024 1024" version="1.1" xmlns="http://www.w3.org/2000/svg" p-id="2419" xmlns:xlink="http://www.w3.org/1999/xlink" width="200" height="200"><defs><style type="text/css"></style></defs><path d="M821.248 712.704 219.136 712.704c-20.48 0-38.912-16.384-38.912-38.912l0-96.256c0-20.48 16.384-38.912 38.912-38.912l602.112 0c20.48 0 38.912 16.384 38.912 38.912l0 96.256C860.16 694.272 841.728 712.704 821.248 712.704zM577.536 595.968c-16.384 0-28.672 12.288-28.672 28.672 0 16.384 12.288 28.672 28.672 28.672 16.384 0 28.672-12.288 28.672-28.672C608.256 608.256 593.92 595.968 577.536 595.968zM675.84 595.968c-16.384 0-28.672 12.288-28.672 28.672 0 16.384 12.288 28.672 28.672 28.672 16.384 0 28.672-12.288 28.672-28.672C704.512 608.256 692.224 595.968 675.84 595.968zM800.768 595.968l-57.344 0 0 57.344 57.344 0L800.768 595.968zM821.248 479.232 219.136 479.232c-20.48 0-38.912-16.384-38.912-38.912l0-96.256c0-20.48 16.384-38.912 38.912-38.912l602.112 0c20.48 0 38.912 16.384 38.912 38.912l0 96.256C860.16 462.848 841.728 479.232 821.248 479.232zM577.536 362.496c-16.384 0-28.672 12.288-28.672 28.672 0 16.384 12.288 28.672 28.672 28.672 16.384 0 28.672-12.288 28.672-28.672C608.256 376.832 593.92 362.496 577.536 362.496zM675.84 362.496c-16.384 0-28.672 12.288-28.672 28.672 0 16.384 12.288 28.672 28.672 28.672 16.384 0 28.672-12.288 28.672-28.672C704.512 376.832 692.224 362.496 675.84 362.496zM800.768 362.496l-57.344 0 0 57.344 57.344 0L800.768 362.496zM821.248 245.76 219.136 245.76c-20.48 0-38.912-16.384-38.912-38.912L180.224 110.592c0-20.48 16.384-38.912 38.912-38.912l602.112 0c20.48 0 38.912 16.384 38.912 38.912l0 96.256C860.16 229.376 841.728 245.76 821.248 245.76zM577.536 131.072c-16.384 0-28.672 12.288-28.672 28.672s12.288 28.672 28.672 28.672c16.384 0 28.672-12.288 28.672-28.672S593.92 131.072 577.536 131.072zM675.84 131.072c-16.384 0-28.672 12.288-28.672 28.672s12.288 28.672 28.672 28.672c16.384 0 28.672-12.288 28.672-28.672S692.224 131.072 675.84 131.072zM800.768 131.072l-57.344 0 0 57.344 57.344 0L800.768 131.072zM208.896 847.872l229.376 0c-4.096 8.192-6.144 18.432-6.144 28.672s2.048 20.48 6.144 28.672L208.896 905.216c-16.384 0-28.672-12.288-28.672-28.672S192.512 847.872 208.896 847.872zM491.52 731.136l57.344 0 0 57.344L491.52 788.48 491.52 731.136zM520.192 808.96c36.864 0 67.584 30.72 67.584 67.584s-30.72 67.584-67.584 67.584-67.584-30.72-67.584-67.584S483.328 808.96 520.192 808.96zM600.064 847.872l229.376 0c16.384 0 28.672 12.288 28.672 28.672s-12.288 28.672-28.672 28.672L600.064 905.216c4.096-8.192 6.144-18.432 6.144-28.672S604.16 858.112 600.064 847.872z" p-id="2420" fill="#1296db"></path></svg>