<?xml version="1.0" standalone="no"?><!DOCTYPE svg PUBLIC "-//W3C//DTD SVG 1.1//EN" "http://www.w3.org/Graphics/SVG/1.1/DTD/svg11.dtd"><svg t="1589355576207" class="icon" viewBox="0 0 1024 1024" version="1.1" xmlns="http://www.w3.org/2000/svg" p-id="2562" xmlns:xlink="http://www.w3.org/1999/xlink" width="200" height="200"><defs><style type="text/css"></style></defs><path d="M 991.536 583.436 c 1.636 -36.864 -33.096 -50.256 -33.096 -50.256 l -191.908 -82.136 s 0.468 -142.704 0 -181.108 c -0.584 -38.64 -34.732 -52.032 -34.732 -52.032 s -151.796 -61.28 -196.936 -83.8 c -23.504 -11.732 -47.948 0 -47.948 0 S 344.128 198.112 299.924 216.248 c -40.348 16.476 -39.76 52.032 -39.76 52.032 v 181.7 s -125.836 55.116 -178.696 76.212 c -50.52 20.148 -49.116 62.464 -49.116 62.464 s 0.468 144.956 0 182.764 c -0.468 40.772 35.904 53.692 35.904 53.692 s 122.088 62.224 180.444 89.132 c 43.152 19.912 71.104 0.592 71.104 0.592 l 191.672 -95.532 s 151.56 72.3 187.228 95.056 c 41.4 26.316 69.468 4.504 69.468 4.504 s 168.868 -86.76 195.296 -98.968 c 28.184 -13.04 28.184 -45.276 28.184 -45.276 s -1.756 -154.32 -0.12 -191.18 Z M 286.708 655.5 l -175.416 -77.992 l 175.416 -77.988 l 178.692 77.16 l -178.692 78.82 Z m 196.82 115.68 l -168.752 85.456 v -152.544 l 168.752 -73.72 v 140.808 Z m 27.716 -419.224 L 321.44 269.816 l 189.8 -84.98 l 197.4 84.98 l -197.4 82.14 Z m 30.288 50.372 l 167.112 -73.72 v 124.092 l -167.112 75.384 v -125.756 Z m 199.388 253.172 l -174.6 -77.992 l 167.12 -77.988 l 181.96 77.988 l -174.48 77.992 Z m 192.728 120.776 l -165.48 80.48 v -152.664 l 165.48 -73.72 v 145.904 Z" fill="#1296db" p-id="2563"></path></svg>