<svg id="图层_1" data-name="图层 1" xmlns="http://www.w3.org/2000/svg" viewBox="0 0 16.05 16.05"><title>mIconAnnotationLayer</title><circle cx="8" cy="8" r="7.5" style="fill:#fff"/><path d="M8,1A7,7,0,1,1,1,8,7,7,0,0,1,8,1M8,0a8,8,0,1,0,8,8A8,8,0,0,0,8,0Z" style="fill:gray"/><path d="M7.43,4H8.57L12,12H10.67l-1-2.1H6.14L5.24,12H4ZM9.27,8.9,7.87,5.63,6.49,8.9Z" style="fill:#4d84ba"/><g style="isolation:isolate"><path d="M9.22,11.11h1.06l2.21,4.14,2.22-4.14h1.21v.11c-.78.07-.85.15-.82.93l.06,2.77c0,.8.06.91.85,1V16H14v-.11c.74-.05.76-.16.75-1l0-3.28h0l-2.27,4.27h-.08l-2.06-4h0L10.11,14c0,.37,0,.63,0,.84,0,.75.08,1,.86,1V16h-2v-.11c.52,0,.7-.17.76-.48a10.25,10.25,0,0,0,.18-1.51L10,12.47c0-.21,0-.38,0-.52,0-.55-.14-.66-.78-.73Z" style="fill:#1873bb;stroke:#000;stroke-miterlimit:10;stroke-width:0.10000000149011612px"/></g></svg>