<?xml version="1.0" standalone="no"?><!DOCTYPE svg PUBLIC "-//W3C//DTD SVG 1.1//EN" "http://www.w3.org/Graphics/SVG/1.1/DTD/svg11.dtd"><svg t="1534146972956" class="icon" style="" viewBox="0 0 1024 1024" version="1.1" xmlns="http://www.w3.org/2000/svg" p-id="14868" xmlns:xlink="http://www.w3.org/1999/xlink" width="48" height="48"><defs><style type="text/css"></style></defs><path d="M791.837406 780.020266l0 38.10383 76.207659 0L868.045065 94.14417 296.482505 94.14417l0 76.208683 38.10383 0 0-38.104853 495.354901 0 0 647.772266L791.837406 780.020266 791.837406 780.020266zM171.936931 216.458937l0 707.975417c0 4.419659 3.505847 8.002254 7.849782 8.002254l555.826158 0c4.381797 0 7.887644-3.543709 7.887644-8.002254L743.500515 216.458937c0-4.420683-3.505847-8.002254-7.849782-8.002254L179.785689 208.456682C175.441754 208.456682 171.936931 212.000392 171.936931 216.458937L171.936931 216.458937zM210.04076 246.560512l495.354901 0 0 647.772266-495.354901 0L210.04076 246.560512 210.04076 246.560512z" p-id="14869" fill="#1296db"></path><path d="M549.163411 438.009845c-20.154016-10.32516-41.221844-15.489786-63.207577-15.489786-33.477462 0-60.376089 14.575973-80.694857 43.720757-20.321838 29.147854-30.646997 68.953442-30.978549 119.41881l1.249457 0c18.319228-35.475979 47.549969-53.213969 87.690178-53.213969 33.477462 0 60.20929 10.910491 80.196507 32.727379 19.986193 21.820981 29.979802 50.802036 29.979802 86.941118 0 37.810141-11.533684 68.871577-34.601052 93.186356-23.070438 24.319895-52.508911 36.475749-88.316441 36.475749-39.309284 0-70.162989-15.364943-92.562139-46.093804-22.403243-30.728862-33.602306-74.324776-33.602306-130.786719 0-68.285223 14.696724-122.541941 44.095287-162.765037 29.394471-40.223097 68.078515-60.334133 116.045993-60.334133 27.481911 0 49.049113 3.747347 64.706721 11.242042L549.164435 438.009845zM377.279692 648.617517c0 25.482371 6.78452 47.304376 20.360723 65.455781 13.573133 18.155499 31.603789 27.231201 54.087872 27.231201 21.317515 0 38.637995-7.826246 51.965535-23.483854 13.323447-15.653515 19.986193-35.80753 19.986193-60.458977 0-26.64587-6.288217-47.382147-18.86158-62.207807-12.57848-14.821567-30.442336-22.23542-53.590546-22.23542-21.98471 0-39.808658 7.494695-53.463656 22.485107C384.107191 610.392938 377.279692 628.130927 377.279692 648.617517z" p-id="14870" fill="#1296db"></path></svg>