<?xml version="1.0" standalone="no"?><!DOCTYPE svg PUBLIC "-//W3C//DTD SVG 1.1//EN" "http://www.w3.org/Graphics/SVG/1.1/DTD/svg11.dtd"><svg t="1571300413232" class="icon" viewBox="0 0 1024 1024" version="1.1" xmlns="http://www.w3.org/2000/svg" p-id="7028" xmlns:xlink="http://www.w3.org/1999/xlink" width="200" height="200"><defs><style type="text/css"></style></defs><path d="M319.96511 344.574232H186.08032a6.978012 6.978012 0 0 1-6.978012-6.978012V164.867163a73.873887 73.873887 0 0 1 147.515173-6.00109c0 2.000363 0.27912 4.000727 0.279121 6.00109v172.729057a6.978012 6.978012 0 0 1-6.931492 6.978012z m-126.860258-13.956024h119.882246V164.867163v-4.652008a59.917863 59.917863 0 0 0-119.649646 4.652008zM494.880611 267.8161a6.978012 6.978012 0 0 1-6.373251-4.186807l-26.283846-59.592222a6.978012 6.978012 0 0 1 3.582047-9.304016 6.884972 6.884972 0 0 1 9.304016 3.535526l18.887152 42.844993 20.654916-63.825549a6.978012 6.978012 0 0 1 13.258222 4.326367l-26.237325 81.22406a6.978012 6.978012 0 0 1-6.280211 4.652008zM501.300382 296.51899A7.024532 7.024532 0 0 1 507.068872 288.424496a6.978012 6.978012 0 0 1 8.047973 5.675449A6.978012 6.978012 0 0 1 509.394876 302.38052h-1.209523a6.978012 6.978012 0 0 1-6.884971-5.86153z m-47.962203-4.140287a6.931492 6.931492 0 0 1-2.558604-9.536617 6.931492 6.931492 0 0 1 9.304016-2.558604 7.024532 7.024532 0 0 1 2.558604 9.304016 7.024532 7.024532 0 0 1-6.04761 3.489006 7.117572 7.117572 0 0 1-3.256406-0.697801zM548.936943 274.468472a6.931492 6.931492 0 0 1-0.837361-9.815737 6.931492 6.931492 0 0 1 9.815737-0.883882 6.978012 6.978012 0 0 1 0.883881 9.815737 6.838452 6.838452 0 0 1-5.349809 2.512085A7.024532 7.024532 0 0 1 548.936943 274.468472z m-132.117027-25.725604a6.978012 6.978012 0 0 1 4.140288-8.978376 7.024532 7.024532 0 0 1 8.978375 4.186807 6.978012 6.978012 0 0 1-4.186807 8.931856 7.071052 7.071052 0 0 1-2.372524 0.41868 6.931492 6.931492 0 0 1-6.698892-4.465927z m147.468654-28.56333v-0.32564a7.024532 7.024532 0 0 1 6.978012-7.024532 6.978012 6.978012 0 0 1 6.978012 6.978012 6.978012 6.978012 0 0 1-6.978012 6.978012 6.978012 6.978012 0 0 1-7.117572-6.512811z m-143.514447-19.305833a7.024532 7.024532 0 0 1-4.186807-8.978375 6.978012 6.978012 0 0 1 8.931855-4.233327 7.024532 7.024532 0 0 1 4.186808 8.931855 6.978012 6.978012 0 0 1-6.559332 4.652008 6.884972 6.884972 0 0 1-2.372524-0.372161z m126.999818-25.353443a7.024532 7.024532 0 0 1 0.837362-9.862257 6.978012 6.978012 0 0 1 9.815737 0.837361 7.024532 7.024532 0 0 1-0.837362 9.862257 7.024532 7.024532 0 0 1-4.652008 1.628203 7.024532 7.024532 0 0 1-5.163729-2.465564z m-97.226967-17.724151a6.931492 6.931492 0 0 1 2.512085-9.536616 6.931492 6.931492 0 0 1 9.304016 2.512084 7.024532 7.024532 0 0 1-2.512085 9.536617 6.931492 6.931492 0 0 1-3.535526 0.930401 6.884972 6.884972 0 0 1-5.76849-3.442486z m56.149737-5.86153a6.978012 6.978012 0 0 1-5.72197-8.047974 7.024532 7.024532 0 0 1 8.094494-5.675449 6.978012 6.978012 0 0 1 5.67545 8.047973 7.024532 7.024532 0 0 1-6.884972 5.81501 4.977649 4.977649 0 0 1-1.163002-0.13956zM505.95239 430.40378a26.376885 26.376885 0 1 1 26.330365-26.376886 26.376885 26.376885 0 0 1-26.330365 26.376886z m0-38.797747a12.420861 12.420861 0 1 0 12.374341 12.420861 12.467381 12.467381 0 0 0-12.374341-12.420861zM703.80229 435.520989a6.978012 6.978012 0 0 1-6.978012-6.978012V379.510812a6.978012 6.978012 0 0 1 13.956024 0v49.032165a6.978012 6.978012 0 0 1-6.978012 6.978012zM731.202617 435.520989a6.978012 6.978012 0 0 1-6.978012-6.978012V379.510812a6.978012 6.978012 0 1 1 13.956024 0v49.032165a6.978012 6.978012 0 0 1-6.978012 6.978012zM758.602944 435.520989a6.978012 6.978012 0 0 1-6.978012-6.978012V379.510812a6.978012 6.978012 0 1 1 13.956024 0v49.032165a6.978012 6.978012 0 0 1-6.978012 6.978012zM786.189351 435.520989a6.978012 6.978012 0 0 1-6.978012-6.978012V379.510812a6.978012 6.978012 0 0 1 13.956024 0v49.032165a6.978012 6.978012 0 0 1-6.978012 6.978012zM505.95239 574.476467a26.376885 26.376885 0 1 1 26.330365-26.376885 26.376885 26.376885 0 0 1-26.330365 26.376885z m0-38.751226a12.420861 12.420861 0 1 0 12.374341 12.374341 12.420861 12.420861 0 0 0-12.374341-12.374341zM703.80229 579.593676a6.978012 6.978012 0 0 1-6.978012-6.978012v-49.032164a6.978012 6.978012 0 1 1 13.956024 0v49.032164a6.978012 6.978012 0 0 1-6.978012 6.978012zM731.202617 579.593676a6.978012 6.978012 0 0 1-6.978012-6.978012v-49.032164a6.978012 6.978012 0 0 1 13.956024 0v49.032164a6.978012 6.978012 0 0 1-6.978012 6.978012zM758.602944 579.593676a6.978012 6.978012 0 0 1-6.978012-6.978012v-49.032164a6.978012 6.978012 0 0 1 13.956024 0v49.032164a6.978012 6.978012 0 0 1-6.978012 6.978012zM786.189351 579.593676a6.978012 6.978012 0 0 1-6.978012-6.978012v-49.032164a6.978012 6.978012 0 1 1 13.956024 0v49.032164a6.978012 6.978012 0 0 1-6.978012 6.978012zM505.95239 718.549155a26.376885 26.376885 0 1 1 26.330365-26.330365 26.376885 26.376885 0 0 1-26.330365 26.330365z m0-38.751227a12.420861 12.420861 0 1 0 12.374341 12.420862 12.467381 12.467381 0 0 0-12.374341-12.420862zM703.80229 723.712884a6.978012 6.978012 0 0 1-6.978012-6.978012v-49.032164a6.978012 6.978012 0 0 1 13.956024 0v49.032164a6.978012 6.978012 0 0 1-6.978012 6.978012zM731.202617 723.712884a6.978012 6.978012 0 0 1-6.978012-6.978012v-49.032164a6.978012 6.978012 0 0 1 13.956024 0v49.032164a6.978012 6.978012 0 0 1-6.978012 6.978012zM758.602944 723.712884a6.978012 6.978012 0 0 1-6.978012-6.978012v-49.032164a6.978012 6.978012 0 0 1 13.956024 0v49.032164a6.978012 6.978012 0 0 1-6.978012 6.978012zM786.189351 723.712884a6.978012 6.978012 0 0 1-6.978012-6.978012v-49.032164a6.978012 6.978012 0 0 1 13.956024 0v49.032164a6.978012 6.978012 0 0 1-6.978012 6.978012z" fill="#1296db" p-id="7029"></path><path d="M213.992368 344.574232a6.978012 6.978012 0 0 1-6.978012-6.978012v-22.515718a6.978012 6.978012 0 0 1 13.956024 0v22.515718a6.978012 6.978012 0 0 1-6.978012 6.978012zM241.067054 344.574232a6.978012 6.978012 0 0 1-6.978012-6.978012v-22.515718a6.978012 6.978012 0 0 1 13.956024 0v22.515718a6.978012 6.978012 0 0 1-6.978012 6.978012zM268.374341 344.574232a6.978012 6.978012 0 0 1-6.978012-6.978012v-22.515718a6.978012 6.978012 0 0 1 13.956024 0v22.515718a6.978012 6.978012 0 0 1-6.978012 6.978012zM295.681628 344.574232a6.978012 6.978012 0 0 1-6.978012-6.978012v-22.515718a6.978012 6.978012 0 0 1 13.956024 0v22.515718a6.978012 6.978012 0 0 1-6.978012 6.978012zM839.687443 324.384518H688.497183a6.978012 6.978012 0 0 1-6.978012-6.978012V165.937125a7.024532 7.024532 0 0 1 6.978012-6.978012h104.4841a6.978012 6.978012 0 0 1 6.978012 6.978012v40.007269h39.960749a6.978012 6.978012 0 0 1 6.978012 6.978012v104.4841a6.978012 6.978012 0 0 1-7.210613 6.978012z m-144.444848-13.956024H832.709431V219.900418h-39.960748a6.978012 6.978012 0 0 1-6.978012-6.978012v-40.007269h-90.528076z" fill="#1296db" p-id="7030"></path><path d="M839.687443 219.900418h-46.93876a6.978012 6.978012 0 0 1-6.978012-6.978012v-46.985281a6.978012 6.978012 0 0 1 11.90914-4.931128l46.985281 46.98528a6.978012 6.978012 0 0 1-4.977649 11.909141z m-39.960748-13.956024h23.26004l-23.26004-23.26004zM758.602944 207.898237a7.071052 7.071052 0 0 1-4.977649-2.046883 7.675813 7.675813 0 0 1-1.907323-3.582046 6.884972 6.884972 0 0 1 1.907323-6.280211 6.373251 6.373251 0 0 1 1.069962-0.883882l1.209522-0.651281a4.652008 4.652008 0 0 1 1.302562-0.37216 6.978012 6.978012 0 0 1 8.327095 6.838451 6.978012 6.978012 0 0 1 0 1.349083 6.00109 6.00109 0 0 1-0.372161 1.302562 10.001817 10.001817 0 0 1-0.651281 1.209522 6.373251 6.373251 0 0 1-0.883882 1.069962 6.931492 6.931492 0 0 1-5.024168 2.046883z" fill="#1296db" p-id="7031"></path><path d="M758.602944 207.898237h-1.349082a7.071052 7.071052 0 0 1-1.302563-0.41868 7.210612 7.210612 0 0 1-4.186807-5.070689 6.884972 6.884972 0 0 1 1.907323-6.280211 6.373251 6.373251 0 0 1 1.069962-0.883881l1.209522-0.651282a6.838452 6.838452 0 0 1 1.302563-0.37216 6.978012 6.978012 0 0 1 8.327094 6.838452 6.978012 6.978012 0 0 1 0 1.349082 6.00109 6.00109 0 0 1-0.372161 1.302562 10.001817 10.001817 0 0 1-0.651281 1.209522 6.373251 6.373251 0 0 1-0.883881 1.069962 6.978012 6.978012 0 0 1-5.070689 1.907323zM444.871525 752.694894H319.96511a6.978012 6.978012 0 0 1-6.978012-6.978012v-78.014174a6.978012 6.978012 0 0 1 6.978012-6.978012h79.084136v-132.628748H340.294385a6.978012 6.978012 0 0 1-6.978012-6.978012V462.223514h-13.351263a6.978012 6.978012 0 0 1-6.978012-6.978012V161.285117a7.024532 7.024532 0 0 1 0-1.302562A60.196983 60.196983 0 0 0 253.069235 104.9493a6.978012 6.978012 0 0 1 0-13.956024h301.264038a113.462475 113.462475 0 0 1 113.369435 113.369435V348.9006a6.978012 6.978012 0 0 1-6.978012 6.978012h-208.875159v96.389605H660.585135a6.978012 6.978012 0 0 1 6.978012 6.978012V493.112848a6.978012 6.978012 0 0 1-6.978012 6.978012H451.849537v96.296565H660.585135a6.978012 6.978012 0 0 1 6.978012 6.978012v33.587498a6.978012 6.978012 0 0 1-6.978012 6.978012H451.849537v101.785935a6.978012 6.978012 0 0 1-6.978012 6.978012z m-117.928403-13.956024h110.950391v-101.785935a6.978012 6.978012 0 0 1 6.978012-6.978012h208.875159v-19.631474h-208.875159a6.978012 6.978012 0 0 1-6.978012-6.978012V493.112848a6.978012 6.978012 0 0 1 6.978012-6.978012h208.875159v-19.677994h-208.875159a6.978012 6.978012 0 0 1-6.978012-6.978012V348.9006a6.978012 6.978012 0 0 1 6.978012-6.978012h208.875159V204.362711a99.552971 99.552971 0 0 0-99.413411-99.413411H296.053789a73.873887 73.873887 0 0 1 30.470652 52.521171 6.140651 6.140651 0 0 1 0.418681 2.232963v288.424496h13.351263a6.978012 6.978012 0 0 1 6.978012 6.978012v58.894421h58.894421a6.978012 6.978012 0 0 1 6.978012 6.978012v146.584772a6.978012 6.978012 0 0 1-6.978012 6.978012h-79.084136z" fill="#1296db" p-id="7032"></path><path d="M841.455206 466.224241H444.871525a6.978012 6.978012 0 0 1-6.978012-6.978012V348.9006a6.978012 6.978012 0 0 1 6.978012-6.978012h396.583681a6.978012 6.978012 0 0 1 6.978012 6.978012v110.345629a6.978012 6.978012 0 0 1-6.978012 6.978012z m-389.605669-13.956024h382.627657V355.785572H451.849537zM841.455206 610.343449H444.871525a6.978012 6.978012 0 0 1-6.978012-6.978012V493.112848a6.978012 6.978012 0 0 1 6.978012-6.978012h396.583681a6.978012 6.978012 0 0 1 6.978012 6.978012v110.252589a7.024532 7.024532 0 0 1-6.978012 6.978012z m-389.605669-13.956024h382.627657v-96.529166H451.849537zM841.455206 754.416137H444.871525a6.978012 6.978012 0 0 1-6.978012-6.978012v-110.48519a6.978012 6.978012 0 0 1 6.978012-6.978012h396.583681a7.024532 7.024532 0 0 1 6.978012 6.978012v110.48519a6.978012 6.978012 0 0 1-6.978012 6.978012z m-389.605669-13.956024h382.627657v-96.529166H451.849537zM406.166818 674.541159H193.709613a6.978012 6.978012 0 0 1-6.978012-6.978012V455.245502a6.978012 6.978012 0 0 1 6.978012-6.978012h146.584772a6.978012 6.978012 0 0 1 6.978012 6.978012v58.894422h58.894421a6.978012 6.978012 0 0 1 6.978012 6.978012v146.584772a6.978012 6.978012 0 0 1-6.978012 6.838451z m-205.479193-13.956024h198.501181v-132.489187H340.294385a6.978012 6.978012 0 0 1-6.978012-6.978012V462.223514H200.687625z" fill="#1296db" p-id="7033"></path><path d="M406.166818 528.095948H340.294385a6.978012 6.978012 0 0 1-6.978012-6.978012V455.245502a6.978012 6.978012 0 0 1 11.90914-4.931128L411.097947 516.372888a6.978012 6.978012 0 0 1-4.931129 11.90914z m-58.894421-13.956024h41.868072l-41.868072-41.868072zM292.332182 511.255679h-1.349082a6.09413 6.09413 0 0 1-1.302562-0.418681 5.86153 5.86153 0 0 1-1.209522-0.604761 9.815737 9.815737 0 0 1-1.069962-0.883882 6.04761 6.04761 0 0 1-0.837361-1.069961 4.372888 4.372888 0 0 1-0.651282-1.209522 6.09413 6.09413 0 0 1-0.41868-1.302563 6.652371 6.652371 0 0 1 0-1.349082 6.559331 6.559331 0 0 1 0.558241-2.698165 4.140287 4.140287 0 0 1 0.651281-1.163002 4.652008 4.652008 0 0 1 0.837361-1.069962 9.815737 9.815737 0 0 1 1.069962-0.883881l1.209522-0.651281 1.302562-0.372161a6.931492 6.931492 0 0 1 6.280211 1.907323 6.745412 6.745412 0 0 1 0.883882 1.069962 9.304016 9.304016 0 0 1 0.651281 1.163002c0 0.418681 0.27912 0.883882 0.37216 1.302563a7.117572 7.117572 0 0 1 0 1.395602 6.652371 6.652371 0 0 1 0 1.349082 10.653098 10.653098 0 0 1-0.37216 1.302563 10.001817 10.001817 0 0 1-0.651281 1.209522 9.815737 9.815737 0 0 1-0.883882 1.069961 6.978012 6.978012 0 0 1-5.070689 1.907324z" fill="#1296db" p-id="7034"></path><path d="M292.425223 511.255679a6.978012 6.978012 0 0 1-4.931129-2.046884 6.373251 6.373251 0 0 1-0.883881-1.069962 6.04761 6.04761 0 0 1-0.651282-1.209522 4.186807 4.186807 0 0 1-0.37216-1.302562 6.652371 6.652371 0 0 1 0-1.349082 6.326731 6.326731 0 0 1 0-1.349083 4.652008 4.652008 0 0 1 0.37216-1.349082 5.72197 5.72197 0 0 1 0.651282-1.163002 4.931128 4.931128 0 0 1 0.883881-1.069962 6.373251 6.373251 0 0 1 1.023442-0.883881l1.209522-0.651281 1.302562-0.372161a7.071052 7.071052 0 0 1 6.326731 1.907323 6.559331 6.559331 0 0 1 0.837362 1.069962 5.72197 5.72197 0 0 1 0.651281 1.163002 7.489733 7.489733 0 0 1 0.41868 1.349082 6.373251 6.373251 0 0 1 0 1.349083 6.605851 6.605851 0 0 1 0 1.349082 7.489733 7.489733 0 0 1-1.069961 2.512084 9.304016 9.304016 0 0 1-0.837362 1.069962 7.071052 7.071052 0 0 1-4.931128 2.046884zM231.204797 674.541159a6.978012 6.978012 0 0 1-6.978012-6.978012v-26.237325a6.978012 6.978012 0 0 1 13.956024 0v26.237325a6.978012 6.978012 0 0 1-6.978012 6.978012zM277.538797 674.541159a6.978012 6.978012 0 0 1-6.978012-6.978012v-26.237325a6.978012 6.978012 0 0 1 13.956024 0v26.237325a6.978012 6.978012 0 0 1-6.978012 6.978012zM323.872797 674.541159a6.978012 6.978012 0 0 1-6.978012-6.978012v-26.237325a6.978012 6.978012 0 0 1 13.956024 0v26.237325a6.978012 6.978012 0 0 1-6.978012 6.978012zM370.206796 674.541159a6.978012 6.978012 0 0 1-6.978012-6.978012v-26.237325a6.978012 6.978012 0 0 1 13.956024 0v26.237325a6.978012 6.978012 0 0 1-6.978012 6.978012zM95.831365 892.394694a50.241686 50.241686 0 0 1-2.326004 16.002907 29.26113 29.26113 0 0 1-6.838452 11.30438 28.191168 28.191168 0 0 1-11.071779 6.745411 48.194803 48.194803 0 0 1-15.584227 2.232964H45.077957a3.907687 3.907687 0 0 1-2.372524-0.837361 3.489006 3.489006 0 0 1-1.116482-2.977285v-62.895148a3.489006 3.489006 0 0 1 1.116482-2.977286 3.907687 3.907687 0 0 1 2.372524-0.837361h16.002908a44.007996 44.007996 0 0 1 15.444667 2.372524 28.330729 28.330729 0 0 1 10.606578 6.791932 29.07505 29.07505 0 0 1 6.512811 10.792658 43.868435 43.868435 0 0 1 2.186444 14.281665z m-9.862257 0.37216a38.844267 38.844267 0 0 0-1.395603-10.653098 23.26004 23.26004 0 0 0-4.652008-8.559695 20.701436 20.701436 0 0 0-7.629293-5.582409 30.191532 30.191532 0 0 0-11.95566-2.046884H51.172088v54.893695h9.304016a33.680538 33.680538 0 0 0 11.39742-1.674723 18.608032 18.608032 0 0 0 7.768853-5.163729 23.26004 23.26004 0 0 0 4.652008-8.745775 44.984917 44.984917 0 0 0 1.674723-12.467382zM161.471198 925.37743a6.512811 6.512811 0 0 1 0.4652 1.907324 1.116482 1.116482 0 0 1-0.41868 1.116482 2.465564 2.465564 0 0 1-1.442123 0.511721h-2.698165a22.329638 22.329638 0 0 1-2.698164 0 9.024896 9.024896 0 0 1-1.535163-0.232601 1.860803 1.860803 0 0 1-0.744321-0.558241 3.954207 3.954207 0 0 1-0.465201-0.790841l-6.04761-17.16591h-29.307651l-5.81501 16.933309a2.372524 2.372524 0 0 1-0.41868 0.837362 2.093404 2.093404 0 0 1-0.790842 0.604761 4.652008 4.652008 0 0 1-1.488642 0.372161h-2.465564a19.910594 19.910594 0 0 1-2.605125 0 2.419044 2.419044 0 0 1-1.395602-0.511721 1.209522 1.209522 0 0 1-0.372161-1.116482 5.72197 5.72197 0 0 1 0.465201-1.953844l23.6322-65.500272a2.046884 2.046884 0 0 1 0.604761-0.976922 2.000363 2.000363 0 0 1 1.023442-0.604761 11.39742 11.39742 0 0 1 1.721243-0.32564h5.58241a11.49046 11.49046 0 0 1 1.860803 0.32564 3.163365 3.163365 0 0 1 1.116482 0.604761 4.233327 4.233327 0 0 1 0.604761 1.023442z m-30.377613-57.870979L118.905324 902.489551h24.516083zM208.735599 862.156642v1.814283a3.395966 3.395966 0 0 1-0.372161 1.209522 1.488643 1.488643 0 0 1-0.604761 0.697801 1.442122 1.442122 0 0 1-0.790841 0.232601h-19.910594v61.173905a1.395602 1.395602 0 0 1-0.232601 0.744321 1.349082 1.349082 0 0 1-0.744321 0.511721 7.489733 7.489733 0 0 1-1.442123 0.32564 15.258586 15.258586 0 0 1-2.279484 0 15.025986 15.025986 0 0 1-2.232963 0 8.047974 8.047974 0 0 1-1.488643-0.32564 1.535163 1.535163 0 0 1-0.744321-0.511721 1.395602 1.395602 0 0 1-0.232601-0.744321v-61.173905h-19.817554a1.442122 1.442122 0 0 1-0.790841-0.232601 1.814283 1.814283 0 0 1-0.604761-0.697801 4.884608 4.884608 0 0 1-0.325641-1.209522 10.280938 10.280938 0 0 1 0-1.814283 11.071779 11.071779 0 0 1 0-1.814283 6.09413 6.09413 0 0 1 0.325641-1.256042 2.465564 2.465564 0 0 1 0.604761-0.744322 1.442122 1.442122 0 0 1 0.790841 0h49.032165a1.442122 1.442122 0 0 1 0.790841 0 1.953843 1.953843 0 0 1 0.604761 0.744322 4.000727 4.000727 0 0 1 0.372161 1.256042c0.04652 0.558241 0.09304 1.163002 0.09304 1.814283zM263.024532 925.37743a5.303289 5.303289 0 0 1 0.465201 1.907324 1.209522 1.209522 0 0 1-0.372161 1.116482 2.744685 2.744685 0 0 1-1.442122 0.511721h-2.698165a22.748319 22.748319 0 0 1-2.744685 0 7.675813 7.675813 0 0 1-1.488642-0.232601 1.721243 1.721243 0 0 1-0.790842-0.558241 3.954207 3.954207 0 0 1-0.4652-0.790841l-6.047611-17.16591h-29.30765l-5.76849 16.933309a3.582046 3.582046 0 0 1-0.465201 0.837362 1.814283 1.814283 0 0 1-0.790841 0.604761 4.652008 4.652008 0 0 1-1.442123 0.372161h-2.512084a19.119753 19.119753 0 0 1-2.558604 0 2.465564 2.465564 0 0 1-1.442123-0.511721 1.209522 1.209522 0 0 1-0.37216-1.116482 7.117572 7.117572 0 0 1 0.4652-1.953844l23.632201-65.500272a3.209886 3.209886 0 0 1 0.604761-0.976922 2.000363 2.000363 0 0 1 1.023442-0.604761 11.071779 11.071779 0 0 1 1.767763-0.32564h5.582409a11.76958 11.76958 0 0 1 1.814283 0.32564 2.791205 2.791205 0 0 1 1.116482 0.604761 3.116845 3.116845 0 0 1 0.604761 1.023442zM232.6004 867.506451L220.458659 902.489551h24.562602zM359.135017 892.580774a54.521534 54.521534 0 0 1-2.000363 15.444667 32.564056 32.564056 0 0 1-6.00109 11.67654 26.144285 26.144285 0 0 1-10.094858 7.443213 35.634381 35.634381 0 0 1-13.956024 2.558604 36.285662 36.285662 0 0 1-13.956024-2.372524 24.050881 24.050881 0 0 1-9.583136-6.884972 29.30765 29.30765 0 0 1-5.81501-11.211339 59.406142 59.406142 0 0 1-1.814283-15.444667 53.405052 53.405052 0 0 1 2.000363-15.165546 31.959295 31.959295 0 0 1 6.04761-11.5835 26.888606 26.888606 0 0 1 10.094858-7.350172 39.728148 39.728148 0 0 1 27.912048-0.232601 24.004361 24.004361 0 0 1 9.629656 6.838452 28.98201 28.98201 0 0 1 5.72197 11.118299 55.824096 55.824096 0 0 1 1.814283 15.165546z m-9.908777 0.651281a52.42813 52.42813 0 0 0-1.069962-11.118299 24.795203 24.795203 0 0 0-3.535526-8.931855 17.026349 17.026349 0 0 0-6.605851-5.95457 22.515719 22.515719 0 0 0-10.234418-2.093404 20.794476 20.794476 0 0 0-10.234417 2.279484 19.771034 19.771034 0 0 0-6.745412 6.09413 25.632564 25.632564 0 0 0-3.675086 8.931856 49.962566 49.962566 0 0 0-1.116482 10.699618 58.475741 58.475741 0 0 0 1.023442 11.44394 25.772124 25.772124 0 0 0 3.489006 9.024895 16.747229 16.747229 0 0 0 6.559331 5.90805 22.655279 22.655279 0 0 0 10.327458 2.093404 21.724877 21.724877 0 0 0 10.327457-2.279484 18.608032 18.608032 0 0 0 6.745412-6.187171 26.516446 26.516446 0 0 0 3.675086-9.024895 54.661094 54.661094 0 0 0 1.069962-10.932219zM421.006724 927.284754a1.907323 1.907323 0 0 1 0 0.744321 1.116482 1.116482 0 0 1-0.697802 0.558241 7.815373 7.815373 0 0 1-1.535162 0.325641h-4.931129a4.977649 4.977649 0 0 1-1.442122-0.372161 1.721243 1.721243 0 0 1-0.837362-0.651281 4.093767 4.093767 0 0 1-0.511721-1.116482l-6.512811-16.607669a49.729965 49.729965 0 0 0-2.372524-5.210249 15.584227 15.584227 0 0 0-2.930765-4.093767 11.72306 11.72306 0 0 0-3.954207-2.698164 14.979466 14.979466 0 0 0-5.535889-0.930402h-6.373251v30.051972a1.163002 1.163002 0 0 1-0.279121 0.744321 1.535163 1.535163 0 0 1-0.744321 0.511721 6.884972 6.884972 0 0 1-1.395602 0.32564 15.723787 15.723787 0 0 1-2.279484 0 15.258586 15.258586 0 0 1-2.279484 0 7.489733 7.489733 0 0 1-1.442123-0.32564 1.349082 1.349082 0 0 1-0.744321-0.511721 1.395602 1.395602 0 0 1 0-0.744321v-65.128112a3.489006 3.489006 0 0 1 1.116482-2.977285 3.907687 3.907687 0 0 1 2.372524-0.837362H397.328003l3.163365 0.279121a26.562966 26.562966 0 0 1 7.257133 2.232964 17.910231 17.910231 0 0 1 5.256769 3.861166 15.723787 15.723787 0 0 1 3.163365 5.39633 19.026713 19.026713 0 0 1 1.069962 6.652371 20.654916 20.654916 0 0 1-0.930401 6.373251 16.700709 16.700709 0 0 1-2.744685 4.977648 19.817554 19.817554 0 0 1-4.326368 3.721607 27.353807 27.353807 0 0 1-5.628929 2.651644 12.886062 12.886062 0 0 1 3.163365 1.953844 15.165546 15.165546 0 0 1 2.651645 2.791205 28.98201 28.98201 0 0 1 2.326004 3.768126c0.744321 1.395602 1.442122 3.023805 2.186443 4.652008l6.326731 15.537707c0.511721 1.302562 0.837361 2.232964 0.976922 2.744684a5.070689 5.070689 0 0 1-0.2326 1.349083z m-13.956024-49.590405a12.420861 12.420861 0 0 0-1.860804-6.978012 10.420498 10.420498 0 0 0-6.18717-4.140288 18.933673 18.933673 0 0 0-3.116846-0.51172 39.030347 39.030347 0 0 0-4.652008 0h-7.908413v23.77176h9.304016a19.910594 19.910594 0 0 0 6.373251-0.883881 12.793022 12.793022 0 0 0 4.652008-2.512084 9.304016 9.304016 0 0 0 2.651644-3.814647 13.025622 13.025622 0 0 0 0.604761-4.931128zM486.553516 867.739051v1.814284a5.86153 5.86153 0 0 1-0.32564 1.302562 1.395602 1.395602 0 0 1-1.256042 0.976921 5.256769 5.256769 0 0 1-2.186444-1.023441 32.564056 32.564056 0 0 0-4.093767-2.326004 39.914229 39.914229 0 0 0-6.140651-2.279484 30.331092 30.331092 0 0 0-8.466654-1.023442 24.330002 24.330002 0 0 0-10.467018 2.139924 22.376158 22.376158 0 0 0-7.861894 5.86153 26.795566 26.795566 0 0 0-4.931128 8.931855 36.611303 36.611303 0 0 0-1.721243 11.257859 35.308741 35.308741 0 0 0 1.907323 12.002181 24.934763 24.934763 0 0 0 5.210249 8.792295 21.445757 21.445757 0 0 0 7.908414 5.48937 28.749409 28.749409 0 0 0 16.747228 1.023441 23.26004 23.26004 0 0 0 6.233691-2.372524V897.837543H460.548792a1.442122 1.442122 0 0 1-1.349083-0.930401 6.605851 6.605851 0 0 1-0.465201-2.884245 9.862257 9.862257 0 0 1 0-1.767763 3.395966 3.395966 0 0 1 0.372161-1.209523 1.442122 1.442122 0 0 1 1.349082-0.930401h22.422679a3.721606 3.721606 0 0 1 1.209522 0 3.675086 3.675086 0 0 1 1.069962 0.651281 2.884245 2.884245 0 0 1 0.790841 1.209522 4.931128 4.931128 0 0 1 0.279121 1.721243v26.888606a5.67545 5.67545 0 0 1-0.511721 2.465564 4.140287 4.140287 0 0 1-2.093404 1.814284 30.098492 30.098492 0 0 1-4.047247 1.721243 45.264038 45.264038 0 0 1-5.210249 1.581682 45.868799 45.868799 0 0 1-10.792658 1.302563 39.914229 39.914229 0 0 1-14.607305-2.512085 30.051972 30.051972 0 0 1-10.885699-7.257132 32.052335 32.052335 0 0 1-6.791932-11.21134 43.728875 43.728875 0 0 1-2.326004-14.607305 42.798474 42.798474 0 0 1 2.558605-15.212066 33.029257 33.029257 0 0 1 7.117572-11.63002 32.238415 32.238415 0 0 1 11.071779-7.443213 38.332546 38.332546 0 0 1 14.328185-2.605124 39.588588 39.588588 0 0 1 7.582773 0.697801 46.938761 46.938761 0 0 1 6.28021 1.674723 22.655279 22.655279 0 0 1 4.652008 2.046884 14.560785 14.560785 0 0 1 2.605125 1.814283 4.093767 4.093767 0 0 1 0.976922 1.674723 9.536616 9.536616 0 0 1 0.41868 2.837724zM556.845357 925.37743a8.466655 8.466655 0 0 1 0.465201 1.907324 1.395602 1.395602 0 0 1-0.418681 1.116482 2.605124 2.605124 0 0 1-1.442122 0.511721h-2.698165a21.957478 21.957478 0 0 1-2.698165 0 7.675813 7.675813 0 0 1-1.535162-0.232601 1.395602 1.395602 0 0 1-0.744322-0.558241 2.558604 2.558604 0 0 1-0.4652-0.790841l-6.094131-17.16591H511.72088l-5.76849 16.933309a3.582046 3.582046 0 0 1-0.465201 0.837362 1.581683 1.581683 0 0 1-0.790842 0.604761 4.652008 4.652008 0 0 1-1.442122 0.372161h-2.512084a19.119753 19.119753 0 0 1-2.558605 0 2.465564 2.465564 0 0 1-1.442122-0.511721 1.349082 1.349082 0 0 1-0.372161-1.116482 9.304016 9.304016 0 0 1 0.465201-1.953844l23.678721-65.500272a2.465564 2.465564 0 0 1 0.558241-0.976922 2.000363 2.000363 0 0 1 1.023441-0.604761 12.188261 12.188261 0 0 1 1.767763-0.32564h5.58241a12.560422 12.560422 0 0 1 1.860803 0.32564 2.605124 2.605124 0 0 1 1.069962 0.604761 2.512084 2.512084 0 0 1 0.604761 1.023442z m-30.377612-57.870979l-12.234781 34.9831h24.562602zM621.926949 924.81919a4.652008 4.652008 0 0 1-0.372161 1.860803 3.302926 3.302926 0 0 1-0.976921 1.256042 3.535526 3.535526 0 0 1-1.302563 0.697801 5.53589 5.53589 0 0 1-1.488642 0h-3.070325a8.327094 8.327094 0 0 1-2.558605-0.32564 5.58241 5.58241 0 0 1-2.093403-1.069962 11.63002 11.63002 0 0 1-2.000364-2.186444 26.376885 26.376885 0 0 1-2.093403-3.489006l-21.492277-40.100309c-1.116482-2.093404-2.279484-4.233327-3.395966-6.512811s-2.232964-4.652008-3.209886-6.605852V927.052153a1.069962 1.069962 0 0 1 0 0.697802 1.209522 1.209522 0 0 1-0.744321 0.558241 7.489733 7.489733 0 0 1-1.442123 0.32564 18.608032 18.608032 0 0 1-4.652008 0 6.187171 6.187171 0 0 1-1.395602-0.32564 1.209522 1.209522 0 0 1-0.744321-0.558241 1.069962 1.069962 0 0 1 0-0.697802v-65.128112a3.628566 3.628566 0 0 1 1.209522-3.070325 4.233327 4.233327 0 0 1 2.698165-0.930401h4.652007a10.932219 10.932219 0 0 1 2.698165 0.27912 5.163729 5.163729 0 0 1 2.000364 0.883882 8.466655 8.466655 0 0 1 1.674722 1.721243 23.864801 23.864801 0 0 1 1.721243 2.837724l16.514629 30.935854c1.023442 1.907323 2.000363 3.768126 2.977285 5.535889l2.744685 5.349809c0.883882 1.721243 1.721243 3.442486 2.605124 5.117209s1.674723 3.395966 2.558605 5.117209v-8.978376-47.217881a1.395602 1.395602 0 0 1 0.2326-0.744321 2.326004 2.326004 0 0 1 0.790841-0.558241 5.117209 5.117209 0 0 1 1.442123-0.325641 15.537707 15.537707 0 0 1 2.326004 0 14.793385 14.793385 0 0 1 2.186443 0 5.117209 5.117209 0 0 1 1.442123 0.325641 2.558604 2.558604 0 0 1 0.744321 0.558241 1.395602 1.395602 0 0 1 0.232601 0.744321zM650.071597 927.284754a1.395602 1.395602 0 0 1-0.2326 0.744321 1.488643 1.488643 0 0 1-0.790841 0.511721 6.698892 6.698892 0 0 1-1.442123 0.32564 17.956751 17.956751 0 0 1-4.652008 0 7.257132 7.257132 0 0 1-1.488642-0.32564 1.349082 1.349082 0 0 1-0.744322-0.511721 1.395602 1.395602 0 0 1-0.2326-0.744321v-67.733237a1.302562 1.302562 0 0 1 0.2326-0.744321 1.535163 1.535163 0 0 1 0.837362-0.511721 8.373614 8.373614 0 0 1 1.442122-0.32564 14.793385 14.793385 0 0 1 2.186444 0 15.025986 15.025986 0 0 1 2.232964 0 6.698892 6.698892 0 0 1 1.442122 0.32564 1.256042 1.256042 0 0 1 0.790842 0.511721 1.302562 1.302562 0 0 1 0.2326 0.744321zM709.384699 924.772669a9.722697 9.722697 0 0 1 0 1.767763 4.140287 4.140287 0 0 1-0.32564 1.209523 1.814283 1.814283 0 0 1-0.604761 0.697801 1.256042 1.256042 0 0 1-0.837362 0h-41.868072a2.977285 2.977285 0 0 1-2.279484-0.883882 3.628566 3.628566 0 0 1-0.883881-2.744684v-2.046884a11.44394 11.44394 0 0 1 0-1.302562 4.652008 4.652008 0 0 1 0.37216-1.256042 11.39742 11.39742 0 0 1 0.744322-1.535163l1.209522-2.000363 32.564056-50.939488H665.237143a1.953843 1.953843 0 0 1-0.930401 0 1.488643 1.488643 0 0 1-0.604761-0.697801 3.395966 3.395966 0 0 1-0.372161-1.209522 9.304016 9.304016 0 0 1 0-1.721243 10.699618 10.699618 0 0 1 0-1.814283 4.000727 4.000727 0 0 1 0.372161-1.256043 1.395602 1.395602 0 0 1 1.535162-0.930401h39.262948a3.256406 3.256406 0 0 1 2.326004 0.837361 3.582046 3.582046 0 0 1 0.837361 2.605125v2.093403a8.001454 8.001454 0 0 1 0 1.581683 6.280211 6.280211 0 0 1-0.37216 1.395603 8.885335 8.885335 0 0 1-0.744322 1.488642 13.956024 13.956024 0 0 1-1.209522 1.907323l-32.564056 50.706887h34.47138a1.535163 1.535163 0 0 1 1.395602 0.930402 6.884972 6.884972 0 0 1 0.744321 3.116845zM773.303289 925.37743a6.512811 6.512811 0 0 1 0.465201 1.907324 1.256042 1.256042 0 0 1-0.418681 1.116482 2.465564 2.465564 0 0 1-1.442122 0.511721h-2.698165a22.329638 22.329638 0 0 1-2.698165 0 9.024896 9.024896 0 0 1-1.535162-0.232601 1.860803 1.860803 0 0 1-0.744321-0.558241 3.954207 3.954207 0 0 1-0.465201-0.790841l-6.047611-17.16591h-29.30765l-5.81501 16.933309a2.372524 2.372524 0 0 1-0.418681 0.837362 2.093404 2.093404 0 0 1-0.790841 0.604761 4.652008 4.652008 0 0 1-1.488643 0.372161h-2.465564a19.910594 19.910594 0 0 1-2.605124 0 2.419044 2.419044 0 0 1-1.395603-0.511721 1.209522 1.209522 0 0 1-0.37216-1.116482 5.72197 5.72197 0 0 1 0.4652-1.953844l23.632201-65.500272a2.465564 2.465564 0 0 1 0.558241-0.976922 2.419044 2.419044 0 0 1 1.069962-0.604761 11.39742 11.39742 0 0 1 1.721243-0.32564h5.582409a11.49046 11.49046 0 0 1 1.860804 0.32564 3.163365 3.163365 0 0 1 1.116481 0.604761 4.233327 4.233327 0 0 1 0.604761 1.023442z m-30.377612-57.870979l-12.188261 34.9831h24.516082zM820.56769 862.156642v1.814283a3.395966 3.395966 0 0 1-0.37216 1.209522 1.488643 1.488643 0 0 1-0.604761 0.697801 1.442122 1.442122 0 0 1-0.790842 0.232601h-19.817554v61.173905a1.395602 1.395602 0 0 1 0 0.744321 1.535163 1.535163 0 0 1-0.744321 0.511721 8.373614 8.373614 0 0 1-1.442123 0.32564 15.258586 15.258586 0 0 1-2.279483 0 15.025986 15.025986 0 0 1-2.232964 0 8.047974 8.047974 0 0 1-1.488643-0.32564 1.349082 1.349082 0 0 1-0.744321-0.511721 1.395602 1.395602 0 0 1 0-0.744321v-61.173905h-19.817554a1.442122 1.442122 0 0 1-0.790842-0.232601 1.488643 1.488643 0 0 1-0.604761-0.697801 4.884608 4.884608 0 0 1-0.32564-1.209522 10.280938 10.280938 0 0 1 0-1.814283 11.071779 11.071779 0 0 1 0-1.814283 6.09413 6.09413 0 0 1 0.32564-1.256042 1.953843 1.953843 0 0 1 0.604761-0.744322 1.442122 1.442122 0 0 1 0.790842 0H818.753407a1.442122 1.442122 0 0 1 0.790842 0 1.953843 1.953843 0 0 1 0.604761 0.744322 4.000727 4.000727 0 0 1 0.37216 1.256042c0 0.558241 0.04652 1.163002 0.04652 1.814283zM840.152644 927.284754a1.395602 1.395602 0 0 1 0 0.744321 1.349082 1.349082 0 0 1-0.744321 0.511721 7.489733 7.489733 0 0 1-1.442123 0.32564 15.258586 15.258586 0 0 1-2.279484 0 15.025986 15.025986 0 0 1-2.232964 0 8.047974 8.047974 0 0 1-1.488642-0.32564 1.535163 1.535163 0 0 1-0.744321-0.511721 1.395602 1.395602 0 0 1 0-0.744321v-67.733237a1.069962 1.069962 0 0 1 0.27912-0.744321 1.256042 1.256042 0 0 1 0.790841-0.511721 8.047974 8.047974 0 0 1 1.488643-0.32564 13.956024 13.956024 0 0 1 2.139924 0 15.258586 15.258586 0 0 1 2.279484 0 7.489733 7.489733 0 0 1 1.442122 0.32564 1.116482 1.116482 0 0 1 0.744321 0.511721 1.302562 1.302562 0 0 1 0 0.744321zM917.980738 892.580774a54.521534 54.521534 0 0 1-2.000364 15.444667 32.005815 32.005815 0 0 1-6.04761 11.67654 25.632564 25.632564 0 0 1-10.048337 7.443213 35.634381 35.634381 0 0 1-13.956024 2.558604 36.285662 36.285662 0 0 1-13.956024-2.372524 24.050881 24.050881 0 0 1-9.583137-6.884972 29.30765 29.30765 0 0 1-5.67545-11.211339 59.266582 59.266582 0 0 1-1.860803-15.444667 53.405052 53.405052 0 0 1 2.046884-15.165546 31.959295 31.959295 0 0 1 6.04761-11.5835 26.888606 26.888606 0 0 1 10.094858-7.350172 39.728148 39.728148 0 0 1 27.679447-0.232601 24.004361 24.004361 0 0 1 9.629657 6.838452 28.98201 28.98201 0 0 1 5.72197 11.118299 55.824096 55.824096 0 0 1 1.907323 15.165546z m-9.908777 0.651281a55.824096 55.824096 0 0 0-1.069962-11.118299 24.795203 24.795203 0 0 0-3.535526-8.931855 17.026349 17.026349 0 0 0-6.605852-5.95457 22.515719 22.515719 0 0 0-10.234417-2.093404 20.701436 20.701436 0 0 0-10.234418 2.279484 19.771034 19.771034 0 0 0-6.745411 6.09413 25.632564 25.632564 0 0 0-3.675087 8.931856 49.962566 49.962566 0 0 0-1.116482 10.699618 58.475741 58.475741 0 0 0 1.023442 11.44394 25.772124 25.772124 0 0 0 3.489006 9.024895 16.747229 16.747229 0 0 0 6.559331 5.90805 22.655279 22.655279 0 0 0 10.327458 2.093404 21.724877 21.724877 0 0 0 10.327458-2.279484 18.608032 18.608032 0 0 0 6.745412-6.187171 26.516446 26.516446 0 0 0 3.675086-9.024895 54.661094 54.661094 0 0 0 1.069962-10.932219zM986.225695 924.81919a3.814647 3.814647 0 0 1-0.372161 1.860803 3.675086 3.675086 0 0 1-0.930401 1.256042 3.721606 3.721606 0 0 1-1.349082 0.697801 5.210249 5.210249 0 0 1-1.442123 0h-3.116845a8.559695 8.559695 0 0 1-2.558605-0.32564 5.58241 5.58241 0 0 1-2.093403-1.069962 11.53698 11.53698 0 0 1-1.953844-2.186444 19.119753 19.119753 0 0 1-2.093403-3.489006l-21.538797-40.100309c-1.116482-2.093404-2.279484-4.233327-3.395966-6.512811s-2.232964-4.652008-3.209886-6.605852V927.052153a1.395602 1.395602 0 0 1 0 0.697802 1.442122 1.442122 0 0 1-0.790841 0.558241 7.489733 7.489733 0 0 1-1.442122 0.32564 18.608032 18.608032 0 0 1-4.652008 0 6.884972 6.884972 0 0 1-1.395603-0.32564 1.349082 1.349082 0 0 1-0.744321-0.558241 1.395602 1.395602 0 0 1 0-0.697802v-65.128112a3.535526 3.535526 0 0 1 1.256042-3.070325 4.140287 4.140287 0 0 1 2.698165-0.930401h4.652008a11.5835 11.5835 0 0 1 2.744684 0.27912 5.303289 5.303289 0 0 1 1.953844 0.883882 7.396693 7.396693 0 0 1 1.674723 1.721243 23.864801 23.864801 0 0 1 1.721243 2.837724l16.561148 30.935854 2.930765 5.535889 2.744685 5.349809c0.883882 1.721243 1.721243 3.442486 2.605124 5.117209l2.558605 5.117209v-55.963656a1.116482 1.116482 0 0 1 0.2326-0.744322 2.046884 2.046884 0 0 1 0.744321-0.558241 5.117209 5.117209 0 0 1 1.442123-0.32564 15.956387 15.956387 0 0 1 2.326004 0 14.793385 14.793385 0 0 1 2.186444 0 4.652008 4.652008 0 0 1 1.442122 0.32564 2.046884 2.046884 0 0 1 0.744321 0.558241 1.395602 1.395602 0 0 1 0 0.744322z" fill="#1296db" p-id="7035"></path></svg>