<?xml version="1.0" encoding="iso-8859-1"?>
<!-- Generator: Adobe Illustrator 16.0.0, SVG Export Plug-In . SVG Version: 6.00 Build 0)  -->
<!DOCTYPE svg PUBLIC "-//W3C//DTD SVG 1.1//EN" "http://www.w3.org/Graphics/SVG/1.1/DTD/svg11.dtd">
<svg version="1.1" id="Capa_1" xmlns="http://www.w3.org/2000/svg" xmlns:xlink="http://www.w3.org/1999/xlink" x="0px" y="0px"
	 width="93.562px" height="93.562px" viewBox="0 0 93.562 93.562" style="enable-background:new 0 0 93.562 93.562;"
	 xml:space="preserve">
<g>
	<g>
		<path d="M46.781,93.549c25.797,0,46.782-20.984,46.782-46.781S72.578,0.014,46.781,0.014C20.984,0.014,0,20.998,0,46.767
			C0,72.535,20.984,93.549,46.781,93.549z M46.781,7.934c19.884,0,36.303,15.017,38.558,34.268
			c-0.026,0.055,0.274,3.685,0.274,4.565c0,0.056,0,0.138,0,0.192c-6.242,2.941-21.065,8.938-38.833,8.938
			c-17.794,0-32.646-6.023-38.833-8.938c0-0.055,0-0.11,0-0.166c0-0.879,0.33-4.564,0.274-4.647
			C10.505,22.895,26.924,7.934,46.781,7.934z M46.781,59.143c17.188,0,31.463-5.253,38.668-8.471
			c-1.952,19.607-18.536,34.982-38.668,34.982c-20.132,0-36.716-15.375-38.668-34.982C15.263,53.863,29.564,59.143,46.781,59.143z"
			fill="#4D84BA"
			/>
		<path d="M74.42,39.918c1.98,0.632,3.96,1.348,5.887,2.09c0.191,0.083,0.385,0.11,0.604,0.11c0.66,0,1.266-0.385,1.513-1.018
			c0.33-0.825-0.082-1.788-0.907-2.118c-1.979-0.77-4.016-1.513-6.078-2.173c-0.853-0.275-1.76,0.193-2.035,1.045
			C73.1,38.737,73.568,39.644,74.42,39.918z" fill="#4D84BA"/>
		<path d="M49.916,35.492c2.035,0.083,4.126,0.248,6.216,0.467c0.056,0,0.11,0,0.192,0c0.824,0,1.513-0.605,1.623-1.43
			c0.109-0.88-0.551-1.705-1.432-1.788c-2.145-0.248-4.316-0.413-6.436-0.495c-0.907-0.055-1.648,0.66-1.678,1.568
			C48.348,34.694,49.036,35.436,49.916,35.492z" fill="#4D84BA"/>
		<path d="M62.32,36.867c2.035,0.385,4.07,0.825,6.104,1.32c0.138,0.027,0.274,0.055,0.412,0.055c0.715,0,1.375-0.495,1.567-1.237
			c0.221-0.88-0.303-1.76-1.184-1.98c-2.09-0.522-4.207-0.99-6.298-1.375c-0.88-0.165-1.731,0.413-1.897,1.292
			C60.834,35.849,61.439,36.701,62.32,36.867z" fill="#4D84BA"/>
		<path d="M37.32,35.958c0.055,0,0.11,0,0.192,0c2.062-0.248,4.153-0.413,6.188-0.495c0.907-0.027,1.595-0.77,1.567-1.677
			c-0.027-0.908-0.771-1.623-1.678-1.568c-2.117,0.083-4.29,0.248-6.436,0.495c-0.88,0.11-1.54,0.908-1.43,1.788
			C35.78,35.354,36.495,35.958,37.32,35.958z" fill="#4D84BA"/>
		<path d="M24.834,38.242c0.138,0,0.275-0.027,0.413-0.055c2.035-0.523,4.07-0.963,6.105-1.32c0.88-0.165,1.457-1.018,1.293-1.897
			c-0.165-0.88-0.99-1.485-1.898-1.293c-2.09,0.385-4.208,0.853-6.298,1.375c-0.88,0.22-1.402,1.101-1.183,1.98
			C23.431,37.746,24.091,38.242,24.834,38.242z" fill="#4D84BA"/>
		<path d="M12.76,42.119c0.192,0,0.413-0.027,0.605-0.11c1.925-0.77,3.905-1.458,5.885-2.09c0.854-0.275,1.32-1.183,1.046-2.035
			c-0.303-0.88-1.21-1.348-2.063-1.073c-2.062,0.66-4.098,1.403-6.077,2.173c-0.825,0.33-1.238,1.265-0.908,2.118
			C11.496,41.734,12.1,42.119,12.76,42.119z" fill="#4D84BA"/>
	</g>
</g>
<g>
</g>
<g>
</g>
<g>
</g>
<g>
</g>
<g>
</g>
<g>
</g>
<g>
</g>
<g>
</g>
<g>
</g>
<g>
</g>
<g>
</g>
<g>
</g>
<g>
</g>
<g>
</g>
<g>
</g>
</svg>
