<?xml version="1.0" standalone="no"?><!DOCTYPE svg PUBLIC "-//W3C//DTD SVG 1.1//EN" "http://www.w3.org/Graphics/SVG/1.1/DTD/svg11.dtd"><svg t="1572494252066" class="icon" viewBox="0 0 1091 1024" version="1.1" xmlns="http://www.w3.org/2000/svg" p-id="2453" xmlns:xlink="http://www.w3.org/1999/xlink" width="213.0859375" height="200"><defs><style type="text/css"></style></defs><path d="M519.459603 573.711258m-332.291391 0a332.291391 332.291391 0 1 0 664.582781 0 332.291391 332.291391 0 1 0-664.582781 0Z" fill="#E9EAEB" p-id="2454"></path><path d="M160.042384 295.671523h81.377484v515.390729h-81.377484z" fill="#FFFFFF" p-id="2455"></path><path d="M363.486093 863.957616v14.919205h569.642384v-556.07947h-14.919205L363.486093 863.957616z" fill="#A3D4FF" p-id="2456"></path><path d="M946.691391 892.439735h-596.768212v-33.907285l562.860927-549.298013h33.907285v583.205298z m-565.57351-27.125828h537.091391V339.072848L381.117881 865.313907z" fill="#2A5082" p-id="2457"></path><path d="M851.750993 838.188079h27.125828v40.688742h-27.125828zM783.936424 838.188079h27.125828v40.688742h-27.125828zM716.121854 838.188079h27.125828v40.688742h-27.125828zM648.307285 838.188079h27.125828v40.688742h-27.125828zM580.492715 838.188079h27.125828v40.688742h-27.125828zM512.678146 838.188079h27.125828v40.688742h-27.125828zM444.863576 838.188079h27.125828v40.688742h-27.125828z" fill="#2A5082" p-id="2458"></path><path d="M838.188079 526.24106h13.562914v257.695364h-257.695364v-13.562914z" fill="#E9EAEB" p-id="2459"></path><path d="M865.313907 797.499338h-284.821192v-32.550994l252.270199-252.270198h32.550993v284.821192z m-252.270198-27.125828h225.14437V545.229139L613.043709 770.37351z" fill="#2A5082" p-id="2460"></path><path d="M295.671523 119.353642h474.701987v569.642384h-474.701987z" fill="#FFFFFF" p-id="2461"></path><path d="M770.37351 702.55894h-474.701987c-8.137748 0-13.562914-5.425166-13.562914-13.562914v-569.642384c0-8.137748 5.425166-13.562914 13.562914-13.562914h474.701987c8.137748 0 13.562914 5.425166 13.562914 13.562914v569.642384c0 6.781457-6.781457 13.562914-13.562914 13.562914z m-461.139073-27.125827h447.576159v-542.516557h-447.576159v542.516557z" fill="#2A5082" p-id="2462"></path><path d="M349.923179 173.605298h366.198675v461.139073h-366.198675z" fill="#FFFFFF" p-id="2463"></path><path d="M729.684768 648.307285h-393.324503v-488.264901h393.324503v488.264901z m-366.198675-27.125828h339.072847v-434.013245h-339.072847v434.013245z" fill="#2A5082" p-id="2464"></path><path d="M349.923179 295.671523h366.198675v27.125828h-366.198675zM349.923179 404.174834h366.198675v27.125828h-366.198675zM349.923179 512.678146h244.13245v27.125828h-244.13245z" fill="#2A5082" p-id="2465"></path><path d="M458.42649 309.234437h27.125828v325.509934h-27.125828zM580.492715 309.234437h27.125828v325.509934h-27.125828z" fill="#2A5082" p-id="2466"></path><path d="M349.923179 173.605298h366.198675v135.629139h-366.198675z" fill="#A3D4FF" p-id="2467"></path><path d="M729.684768 322.797351h-393.324503v-162.754967h393.324503v162.754967z m-366.198675-27.125828h339.072847v-108.503311h-339.072847v108.503311zM227.856954 892.439735h-54.251656c-14.919205 0-27.125828-12.206623-27.125828-27.125828V278.039735l54.251656-108.503311 54.251655 108.503311v585.917881c0 16.275497-12.206623 28.482119-27.125827 28.482119z m-54.251656-607.618543v580.492715h54.251656V284.821192l-27.125828-54.251656-27.125828 54.251656z" fill="#2A5082" p-id="2468"></path><path d="M160.042384 282.108609h81.377484v27.125828h-81.377484zM160.042384 797.499338h81.377484v27.125828h-81.377484z" fill="#2A5082" p-id="2469"></path></svg>