<?xml version="1.0" standalone="no"?><!DOCTYPE svg PUBLIC "-//W3C//DTD SVG 1.1//EN" "http://www.w3.org/Graphics/SVG/1.1/DTD/svg11.dtd"><svg t="1562032110380" class="icon" viewBox="0 0 1024 1024" version="1.1" xmlns="http://www.w3.org/2000/svg" p-id="6467" xmlns:xlink="http://www.w3.org/1999/xlink" width="64" height="64"><defs><style type="text/css"></style></defs><path d="M219.428571 950.857143l585.142857 0 0 73.142857-585.142857 0 0-73.142857Z" p-id="6468" fill="#1296db"></path><path d="M901.2864 438.857143 694.857143 438.857143 694.857143 0 329.142857 0l0 438.857143L123.786971 438.857143c-15.036343 0-27.214629 12.178286-27.214629 27.214629 0 7.643429 3.143314 14.571886 8.213943 19.499886l-0.036571 0.036571 390.321371 390.321371c4.4288 4.2496 10.322286 6.928457 16.928914 6.928457 6.535314 0 12.4288-2.642286 16.8576-6.857143l393.642057-393.642057c3.536457-4.571429 5.999543-10.0352 5.999543-16.285257C928.501029 451.035429 916.322743 438.857143 901.2864 438.857143zM512 789.429029 234.570971 512 402.285714 512 402.285714 73.142857l219.428571 0 0 438.857143 167.714743 0L512 789.429029z" p-id="6469" fill="#1296db"></path></svg>