<?xml version="1.0" encoding="iso-8859-1"?>
<!-- Generator: Adobe Illustrator 18.1.1, SVG Export Plug-In . SVG Version: 6.00 Build 0)  -->
<svg version="1.1" id="Capa_1" xmlns="http://www.w3.org/2000/svg" xmlns:xlink="http://www.w3.org/1999/xlink" x="0px" y="0px"
	 viewBox="0 0 28.368 28.368" style="enable-background:new 0 0 28.368 28.368;" xml:space="preserve">
<g>
	<g>
		<path d="M20.748,11.321c-0.062-0.179-0.13-0.351-0.229-0.525l-0.147-0.257c0.333-0.47,0.523-0.98,0.523-1.508V6.022
			c0-0.405-0.114-0.819-0.34-1.23l-0.073-0.128c0.096-0.217,0.157-0.441,0.157-0.676c0-2.433-5.253-3.743-10.194-3.743
			c-4.94,0-10.194,1.311-10.194,3.744c0,0.237,0.063,0.458,0.157,0.676l-0.07,0.127C0.11,5.203,0,5.617,0,6.022V9.03
			c0,0.528,0.186,1.035,0.522,1.508l-0.15,0.257C0.124,11.22,0,11.655,0,12.083v3.009c0,0.513,0.175,1.011,0.493,1.472l-0.121,0.213
			C0.124,17.203,0,17.638,0,18.062v3.009c0,2.672,4.589,4.768,10.445,4.768c1.198,0,2.341-0.094,3.4-0.257
			c0.042-0.002,0.065-0.007,0.094-0.01c1.527,1.567,3.646,2.552,6,2.552c4.647,0,8.429-3.782,8.429-8.427
			C28.369,15.319,25.017,11.729,20.748,11.321z M10.445,1.364c5.623,0,9.076,1.527,9.076,2.625c0,1.097-3.454,2.625-9.076,2.625
			c-5.621,0-9.075-1.528-9.075-2.625C1.37,2.891,4.823,1.364,10.445,1.364z M1.119,6.528c1.675,1.421,5.56,2.156,9.326,2.156
			c3.765,0,7.652-0.735,9.329-2.156V9.03c0,1.726-3.831,3.647-9.329,3.647c-5.493,0-9.326-1.922-9.326-3.647
			C1.119,9.03,1.119,6.528,1.119,6.528z M1.119,12.262c1.715,1.57,5.244,2.574,9.326,2.574c0.971,0,1.891-0.077,2.78-0.185
			c-0.685,0.908-1.207,1.944-1.477,3.086c-0.077,0.312-0.135,0.63-0.173,0.952c-0.375,0.02-0.737,0.052-1.13,0.052
			c-5.493,0-9.326-1.924-9.326-3.647C1.119,15.093,1.119,12.262,1.119,12.262z M10.445,24.72c-5.493,0-9.326-1.922-9.326-3.65
			v-2.827c1.715,1.57,5.244,2.568,9.326,2.568c0.389,0,0.766-0.021,1.144-0.044c0.129,1.022,0.439,1.993,0.904,2.866
			c0.173,0.325,0.373,0.627,0.586,0.925C12.253,24.657,11.377,24.72,10.445,24.72z M19.94,26.449c-1.946,0-3.699-0.835-4.934-2.159
			c-0.275-0.295-0.528-0.619-0.75-0.961c-0.676-1.052-1.071-2.295-1.071-3.63c0-0.021,0.006-0.038,0.006-0.058
			c0.004-0.394,0.042-0.773,0.109-1.147c0.065-0.344,0.151-0.68,0.264-1.004c0.825-2.377,2.94-4.154,5.512-4.489
			c0.284-0.034,0.572-0.058,0.865-0.058c0.085,0,0.167,0.008,0.252,0.014c3.607,0.137,6.5,3.101,6.5,6.74
			C26.692,23.419,23.663,26.449,19.94,26.449z" fill="#4D84BA"/>
		<path d="M24.476,18.155h-2.991v-2.963c0-0.064-0.052-0.119-0.119-0.119h-2.705c-0.065,0-0.121,0.055-0.121,0.119v2.963h-3.027
			c-0.063,0-0.115,0.056-0.115,0.118v2.708c0,0.064,0.052,0.118,0.115,0.118h3.027v3.054c0,0.067,0.056,0.119,0.121,0.119h2.705
			c0.067,0,0.119-0.052,0.119-0.119v-3.054h2.991c0.065,0,0.119-0.054,0.119-0.118v-2.708
			C24.596,18.211,24.542,18.155,24.476,18.155z" fill="#4D84BA"/>
	</g>
</g>
<g>
</g>
<g>
</g>
<g>
</g>
<g>
</g>
<g>
</g>
<g>
</g>
<g>
</g>
<g>
</g>
<g>
</g>
<g>
</g>
<g>
</g>
<g>
</g>
<g>
</g>
<g>
</g>
<g>
</g>
</svg>
