<?xml version="1.0" standalone="no"?><!DOCTYPE svg PUBLIC "-//W3C//DTD SVG 1.1//EN" "http://www.w3.org/Graphics/SVG/1.1/DTD/svg11.dtd"><svg t="1605447768986" class="icon" viewBox="0 0 1024 1024" version="1.1" xmlns="http://www.w3.org/2000/svg" p-id="9659" xmlns:xlink="http://www.w3.org/1999/xlink" width="200" height="200"><defs><style type="text/css"></style></defs><path d="M787.5 107.8c0-4.1-1.1-8.2-2.9-12.2v-1.1h-0.6C760 43.6 599.6 4.3 404.9 4.3 193.6 4.3 22.2 50.6 22.2 107.8c0 0.3 0.2 0.6 0.2 0.9h-2.1v370H76V415c100.8 38.7 218.4 54.1 330.3 54.1 125.4 0 243.3-19.4 322.6-47.1v42.7h55.7V119.9c1.8-4 2.9-8 2.9-12.1zM404.9 60c160.2 0 268.1 26.8 311.3 47.7-43.2 21-151.1 47.7-311.3 47.7-160.2 0-268.1-26.8-311.3-47.7C136.8 86.8 244.7 60 404.9 60zM76.1 354.3V160.5c66.7 30.3 188.8 50.7 328.8 50.7 136.7 0 256.4-19.5 324.1-48.6v199.9c-122.6 49.4-434.5 85.9-652.9-8.2zM430.5 968.3c-227.4 0-351.3-52.2-354.5-74.7V712.1c60.2 22.7 149 38.5 249.7 43.6 7.2 0.4 14.4 0.7 21.7 0.9l1.9-55.7c-7-0.2-14-0.5-20.8-0.9-107.3-5.4-201.2-23.6-252.5-48.3V579H20.3v313.7H20c0 0.8 0.3 1.6 0.3 2.4v9.8h1.3C37.1 964.3 166.5 1024 430.5 1024c22.1 0 43.7-0.5 64.8-1.4l-2.5-55.7c-20.3 0.9-41.1 1.4-62.3 1.4z" p-id="9660" fill="#1296db"></path><path d="M870.7 535.6l111.6-44.3-16.5-41.4-480 190.7 1 2.6-3.6 1.4 147.8 372 372-147.8-132.3-333.2zM587.2 651.1l243.1-96.6L924 790.4 587.2 651.1z" p-id="9661" fill="#1296db"></path></svg>