<?xml version="1.0" standalone="no"?><!DOCTYPE svg PUBLIC "-//W3C//DTD SVG 1.1//EN" "http://www.w3.org/Graphics/SVG/1.1/DTD/svg11.dtd"><svg t="1605451606659" class="icon" viewBox="0 0 1024 1024" version="1.1" xmlns="http://www.w3.org/2000/svg" p-id="25305" xmlns:xlink="http://www.w3.org/1999/xlink" width="200" height="200"><defs><style type="text/css"></style></defs><path d="M638.976 943.104H168.448c-16.896 0-29.696-2.048-39.424-6.144l87.552-142.848-40.96-24.576L102.912 885.76V337.92c0-22.016 3.072-37.376 10.24-47.616 1.536-1.536 3.584-3.584 5.12-5.632l0.512-0.512c10.24-9.216 26.112-12.8 50.176-12.8h696.832c20.992 0 35.84 3.072 46.592 9.728 1.024 1.024 1.536 2.048 2.56 3.072 2.56 3.584 5.632 6.656 8.704 8.704 5.632 10.24 8.192 24.576 8.192 44.544v356.352l67.584 23.04V342.016c0-35.328-7.168-64-20.992-86.016-1.024-2.56-2.048-5.632-3.584-8.192l-23.552-43.52c-28.16-52.224-28.16-52.224-51.712-94.208l-27.136-49.664c-1.024-6.144-3.072-11.264-7.168-15.36-3.072-3.072-6.656-5.12-10.752-7.168-6.144-3.584-12.8-4.608-19.968-4.096-3.584 0-7.68-0.512-11.264-0.512H212.992c-3.584 0-8.192 0-12.8 0.512-13.824-2.048-27.136 4.096-34.816 17.92L135.168 107.52c-24.576 44.032-24.576 44.032-50.688 93.184l-26.112 48.128c-1.536 2.56-2.56 5.632-3.584 8.704-12.8 20.992-19.456 48.64-19.456 81.92v527.872c0 100.352 42.496 142.848 142.336 142.848H729.088l-23.04-67.072h-67.072zM579.072 95.744h231.424l6.144 12.288h-27.136v94.72h40.448V133.632c1.024 2.048 2.56 4.608 3.584 6.656l3.072 5.632c0 0.512 0.512 1.024 1.536 3.072 1.024 1.536 1.536 3.072 2.56 5.12 1.536 2.56 2.56 4.608 3.584 6.656 1.024 2.048 2.048 3.584 2.048 3.584l18.432 33.28c1.536 2.56 2.56 4.608 4.096 7.168-2.56 0-5.12-0.512-8.192-0.512-206.336-0.512-452.096-0.512-691.712 0h-6.144l22.016-39.936c0-0.512 1.024-1.536 2.56-4.608 1.024-2.048 2.048-4.096 3.584-6.656 1.024-1.536 1.536-3.072 2.56-4.096 1.024-2.048 1.536-3.072 2.048-3.584 1.024-2.048 2.048-4.096 3.072-5.632 0.512-0.512 1.024-1.536 1.024-2.048v65.024h40.448V108.032h-24.576c2.048-4.096 4.096-8.192 6.144-11.776h172.032c48.128-0.512 116.736-0.512 185.344-0.512z" p-id="25306" fill="#1296db"></path><path d="M790.016 273.92h40.448v128h-40.448zM199.68 273.92h40.448v415.232H199.68zM990.72 935.936l-118.784-118.272 123.392-75.776-375.808-129.024 128.512 375.808 75.264-123.392 118.272 118.272 4.608 4.096c13.824 9.216 31.744 7.68 43.52-4.096 14.336-12.8 14.336-34.304 1.024-47.616zM662.528 602.112l145.92-124.928V407.04l-204.8 175.104 25.088 8.192zM594.432 589.824l-42.496 36.352-100.864-100.352-227.84 203.776v70.656L450.56 596.992l100.864 99.84 54.272-46.08-11.264-31.744zM820.224 499.712h-19.968v149.504l19.968 6.656z" p-id="25307" fill="#1296db"></path><path d="M310.272 746.496h328.192l-7.168-19.968H310.272z" p-id="25308" fill="#1296db"></path></svg>