<?xml version="1.0" standalone="no"?><!DOCTYPE svg PUBLIC "-//W3C//DTD SVG 1.1//EN" "http://www.w3.org/Graphics/SVG/1.1/DTD/svg11.dtd"><svg t="1586431103347" class="icon" viewBox="0 0 1024 1024" version="1.1" xmlns="http://www.w3.org/2000/svg" p-id="4809" xmlns:xlink="http://www.w3.org/1999/xlink" width="200" height="200"><defs><style type="text/css"></style></defs><path d="M995.226 575.744l-434.432 187.75c-41.575 17.408-58.164 17.408-96.512 0L29.798 575.744C6.758 563.968 0.512 520.397 0.512 496.64c29.03 15.872 69.786 33.638 68.3 32.768l443.7 196.608 443.75-196.608c0.768-0.205 40.346-19.354 68.25-32.768 0 24.32-7.834 69.478-29.286 79.104z m0-196.66L560.794 566.836c-41.575 17.408-58.164 17.408-96.512 0L29.798 379.085c-34.099-17.408-33.075-72.243 0-92.723L464.282 65.843c38.4-18.432 62.361-19.456 96.512 0l434.432 220.519c33.075 17.408 32 78.336 0 92.672zM512.512 103.27l-443.7 229.428 443.7 179.763 443.75-179.712-443.75-229.479z m0 819.456l443.75-196.659c0.768-0.205 40.346-19.353 68.25-32.768 0 24.32-7.834 69.479-29.286 79.104L560.794 960.205c-41.575 17.408-58.164 17.408-96.512 0L29.798 772.403C6.758 760.627 0.512 717.107 0.512 693.3c29.03 15.872 69.786 33.639 68.3 32.768l443.7 196.66z" fill="#1296db" p-id="4810"></path></svg>