<?xml version="1.0" standalone="no"?><!DOCTYPE svg PUBLIC "-//W3C//DTD SVG 1.1//EN" "http://www.w3.org/Graphics/SVG/1.1/DTD/svg11.dtd"><svg t="1586431087732" class="icon" viewBox="0 0 1024 1024" version="1.1" xmlns="http://www.w3.org/2000/svg" p-id="4025" xmlns:xlink="http://www.w3.org/1999/xlink" width="200" height="200"><defs><style type="text/css"></style></defs><path d="M176 902.4a56.96 56.96 0 0 1-55.04-58.88V403.2a56.96 56.96 0 0 1 55.04-58.88H640a56.96 56.96 0 0 1 55.04 58.88v440.32a56.96 56.96 0 0 1-55.04 58.88z m0-518.4a19.2 19.2 0 0 0-18.56 19.84v448a17.92 17.92 0 0 0 17.28 13.44H640a19.2 19.2 0 0 0 18.56-19.84V403.2A19.2 19.2 0 0 0 640 384z m576 355.84V298.88a19.2 19.2 0 0 0-18.56-19.84H320a19.2 19.2 0 0 1 0-38.4h412.16a56.96 56.96 0 0 1 55.04 58.88v440.32a18.56 18.56 0 0 1-17.92 19.2 18.56 18.56 0 0 1-16-19.2z m99.2-103.68V195.84a19.2 19.2 0 0 0-19.2-19.84H419.2a19.2 19.2 0 0 1 0-38.4H832a56.96 56.96 0 0 1 55.04 58.88v440.32a18.56 18.56 0 0 1-17.92 19.2 17.92 17.92 0 0 1-17.92-19.84z" fill="#1296db" p-id="4026"></path><path d="M111.36 843.52V403.2a64 64 0 0 1 64-68.48H640a64 64 0 0 1 64 68.48v440.32a64 64 0 0 1-64 68.48H176a64 64 0 0 1-64.64-68.48z m64-488.96A47.36 47.36 0 0 0 128 403.2v440.32a47.36 47.36 0 0 0 45.44 48.64H640a47.36 47.36 0 0 0 45.44-48.64V403.2a47.36 47.36 0 0 0-45.44-48.64z m-23.04 505.6h-4.48V403.2a28.8 28.8 0 0 1 28.16-29.44H640a28.8 28.8 0 0 1 28.16 29.44v440.32a28.8 28.8 0 0 1-28.16 29.44H176a27.52 27.52 0 0 1-23.04-12.8z m23.04-466.56a9.6 9.6 0 0 0-8.96 10.24v443.52a8.96 8.96 0 0 0 8.32 6.4H640a9.6 9.6 0 0 0 8.96-10.24V403.2a9.6 9.6 0 0 0-8.96-9.6z m568.32 346.24V298.88a9.6 9.6 0 0 0-8.96-10.24H320a28.8 28.8 0 0 1 0-58.24h412.16a64 64 0 0 1 64 68.48v440.32a27.52 27.52 0 1 1-54.4 0zM320 250.88a8.96 8.96 0 0 0-8.32 8.96 8.96 8.96 0 0 0 8.32 9.6h412.8a28.8 28.8 0 0 1 28.16 29.44v440.32a8.96 8.96 0 0 0 8.32 10.24 8.96 8.96 0 0 0 8.32-8.96V300.16a47.36 47.36 0 0 0-45.44-48.64z m526.72 405.76a28.8 28.8 0 0 1-7.04-20.48V195.84A9.6 9.6 0 0 0 832 185.6H419.2a28.16 28.16 0 0 1-27.52-28.8 28.16 28.16 0 0 1 27.52-28.8H832a64 64 0 0 1 64 68.48V640a26.88 26.88 0 0 1-47.36 19.84z m-429.44-512a8.96 8.96 0 0 0-8.32 8.96 8.96 8.96 0 0 0 8.32 8.96H832a28.8 28.8 0 0 1 28.16 29.44v448a8.32 8.32 0 0 0 0 6.4 8.96 8.96 0 0 0 6.4 0 8.96 8.96 0 0 0 8.32-8.96V196.48a47.36 47.36 0 0 0-42.88-48.64z" fill="#1296db" p-id="4027"></path></svg>