<?xml version="1.0" standalone="no"?><!DOCTYPE svg PUBLIC "-//W3C//DTD SVG 1.1//EN" "http://www.w3.org/Graphics/SVG/1.1/DTD/svg11.dtd"><svg t="1574669194944" class="icon" viewBox="0 0 1024 1024" version="1.1" xmlns="http://www.w3.org/2000/svg" p-id="2391" xmlns:xlink="http://www.w3.org/1999/xlink" width="200" height="200"><defs><style type="text/css"></style></defs><path d="M532.4032 537.8624h255.9936a25.6 25.6 0 0 0 0-51.2H532.4032a25.6 25.6 0 0 0 0 51.2zM532.4032 422.6624h255.9936a25.6 25.6 0 0 0 0-51.2H532.4032a25.6 25.6 0 0 0 0 51.2zM532.4032 653.0624h255.9936a25.6 25.6 0 0 0 0-51.2H532.4032a25.6 25.6 0 0 0 0 51.2z" fill="#16ADA7" p-id="2392"></path><path d="M698.5984 0H263.3472c-42.4128 0-76.8 34.3872-76.8 76.8v294.4h51.2V102.4a51.2 51.2 0 0 1 51.2-51.2h409.6512v204.8h204.7488v665.6a51.2 51.2 0 0 1-51.2 51.2h-563.2a51.2 51.2 0 0 1-51.2-51.2v-172.5376h164.448c24.704 0 44.8-20.1024 44.8-44.8v-243.2c0-24.6976-20.096-44.8-44.8-44.8h-38.4v-19.2a25.6 25.6 0 0 0-25.6-25.6h-243.2a25.6 25.6 0 0 0-25.6 25.6v243.2a25.6 25.6 0 0 0 25.6 25.6h19.2v38.4c0 24.6976 20.096 44.8 44.8 44.8h27.552V947.2c0 42.4128 34.3872 76.8 76.8 76.8h614.4c42.4128 0 76.8-34.3872 76.8-76.8V256h0.0512l-256-256zM135.2128 462.2208c-9.9968-9.9968-12.0192-24.1792-4.5248-31.68 7.4944-7.4944 21.6832-5.4656 31.68 4.5248l49.7792 49.7856 49.7792-49.7856c9.9968-9.9968 24.1792-12.0192 31.68-4.5248 7.4944 7.5008 5.472 21.6896-4.5248 31.68L239.3024 512l49.7792 49.7792c9.9968 9.9968 12.0192 24.1792 4.5248 31.68-7.5008 7.4944-21.6832 5.4656-31.68-4.5248l-49.7792-49.7856-49.7792 49.7856c-9.9968 9.9968-24.1792 12.0192-31.68 4.5248-7.4944-7.5008-5.472-21.6896 4.5248-31.68L184.9984 512l-49.7856-49.7792z m17.3824 242.0416v-38.4h185.6a25.6 25.6 0 0 0 25.6-25.6v-185.6h38.4c3.5264 0 6.4 2.8736 6.4 6.4v243.2c0 3.5328-2.8736 6.4-6.4 6.4h-243.2c-3.5264 0-6.4-2.8672-6.4-6.4z" fill="#16ADA7" p-id="2393"></path></svg>