<svg id="图层_1" data-name="图层 1" xmlns="http://www.w3.org/2000/svg" viewBox="0 0 32 32"><title>画板 5</title><path d="M10,7.5A.5.5,0,0,1,9.5,7V4a.5.5,0,0,1,.5-.5h1.5V2a.5.5,0,0,1,.5-.5h7a.5.5,0,0,1,.5.5V3.5H21a.5.5,0,0,1,.5.5V7a.5.5,0,0,1-.5.5Z" style="fill:#fff"/><path d="M19,2V4h2V7H10V4h2V2h7m0-1H12a1,1,0,0,0-1,1V3H10A1,1,0,0,0,9,4V7a1,1,0,0,0,1,1H21a1,1,0,0,0,1-1V4a1,1,0,0,0-1-1H20V2a1,1,0,0,0-1-1Z" style="fill:gray"/><path d="M4,29.5a.5.5,0,0,1-.5-.5V6A.5.5,0,0,1,4,5.5H7.5V8A1.5,1.5,0,0,0,9,9.5H22A1.5,1.5,0,0,0,23.5,8V5.5H27a.5.5,0,0,1,.5.5V29a.5.5,0,0,1-.5.5Z" style="fill:#fff"/><path d="M27,6V29H4V6H7V8a2,2,0,0,0,2,2H22a2,2,0,0,0,2-2V6h3m0-1H23V8a1,1,0,0,1-1,1H9A1,1,0,0,1,8,8V5H4A1,1,0,0,0,3,6V29a1,1,0,0,0,1,1H27a1,1,0,0,0,1-1V6a1,1,0,0,0-1-1Z" style="fill:gray"/><rect x="11" y="14" width="14" height="1" rx="0.5" ry="0.5" style="fill:#b1b1b1"/><rect x="11" y="19" width="14" height="1" rx="0.5" ry="0.5" style="fill:#b1b1b1"/><rect x="11" y="24" width="14" height="1" rx="0.5" ry="0.5" style="fill:#b1b1b1"/><circle cx="24" cy="24" r="7" style="fill:#4d84ba"/><polyline points="22 20 22 28 27 24 22 20" style="fill:#fff"/><circle cx="8.5" cy="19.5" r="1.5" style="fill:#b1b1b1"/><circle cx="8.5" cy="24.5" r="1.5" style="fill:#b1b1b1"/><circle cx="15.5" cy="4.5" r="1.5" style="fill:#4d84ba"/><path d="M9.82,13.18a.62.62,0,0,0-.88,0L7.57,14.55l-.37-.37a.59.59,0,1,0-.83.83l.79.79,0,0a.61.61,0,0,0,.21.14.59.59,0,0,0,.23,0,.62.62,0,0,0,.44-.18l1.76-1.76A.62.62,0,0,0,9.82,13.18Z" style="fill:#b1b1b1"/></svg>