<svg id="图层_1" data-name="图层 1" xmlns="http://www.w3.org/2000/svg" viewBox="0 0 32 32"><title>画板 7</title><rect x="1.5" y="1.5" width="29" height="29" rx="1.5" ry="1.5" style="fill:#fff"/><path d="M29,2a1,1,0,0,1,1,1V29a1,1,0,0,1-1,1H3a1,1,0,0,1-1-1V3A1,1,0,0,1,3,2H29m0-1H3A2,2,0,0,0,1,3V29a2,2,0,0,0,2,2H29a2,2,0,0,0,2-2V3a2,2,0,0,0-2-2Z" style="fill:gray"/><rect x="7.5" y="1.5" width="17" height="12" rx="0.5" ry="0.5" style="fill:#fff"/><path d="M24,2V13H8V2H24m0-1H8A1,1,0,0,0,7,2V13a1,1,0,0,0,1,1H24a1,1,0,0,0,1-1V2a1,1,0,0,0-1-1Z" style="fill:gray"/><rect x="12" y="5" width="8" height="5" rx="1" ry="1" style="fill:#de673e"/></svg>