<?xml version="1.0" standalone="no"?><!DOCTYPE svg PUBLIC "-//W3C//DTD SVG 1.1//EN" "http://www.w3.org/Graphics/SVG/1.1/DTD/svg11.dtd"><svg t="1605363569609" class="icon" viewBox="0 0 1024 1024" version="1.1" xmlns="http://www.w3.org/2000/svg" p-id="15206" xmlns:xlink="http://www.w3.org/1999/xlink" width="200" height="200"><defs><style type="text/css"></style></defs><path d="M0 0h1024v1024H0V0z" fill="#FFFFFF" p-id="15207"></path><path d="M45.176783 681.131379h30.812011v-122.063376l48.119862 106.423624c5.450539 12.792297 13.275727 17.536284 28.442673 17.536284 15.172259 0 22.51933-4.743987 28.208927-17.536284l47.880803-106.423624v122.063376h31.05107v-122.063376c0-11.846687-4.743987-17.546909-14.699454-20.62811-23.46494-7.108012-39.110004-0.94561-46.218017 14.9332l-47.163626 105.244268-45.511466-105.244268c-6.874266-15.873498-22.758389-22.0359-46.457075-14.9332-9.716408 3.081201-14.460396 8.776111-14.460396 20.62811v122.063376h-0.005312z m240.110565-99.3103h31.051069v67.079873c-0.233746 3.787752 1.184669 12.324804 18.014402 12.553239 8.770798 0.239059 66.840814 0 67.313619 0v-80.111229h31.05107v109.743884c0 27.018946-33.420407 32.94229-49.065471 33.181348H285.993899v-20.617485h97.891884c19.910934-2.135591 17.541597-12.085746 17.541597-15.406006v-8.064247H335.771234c-30.578265-0.239059-50.25014-13.748532-50.483886-29.154537 0-1.418415 0.706551-68.737347 0-69.20484z m666.038805-77.747203c-18.954699-0.472805-33.659466 1.423727-45.98427 6.640519-3.548694 1.42904-9.243603 1.42904-9.711096 5.928656 1.896532 1.885908 2.124966 4.972421 3.787753 7.58613 2.842142 4.743987 7.825188 11.134823 12.324804 14.455083 4.983046 3.798377 9.960779 7.58613 15.166947 10.906389 9.243603 5.684285 19.671875 9.004545 28.67642 14.694142 5.216792 3.32026 10.428272 7.58613 15.645064 11.145448 2.603084 1.896532 4.26587 4.983046 7.58613 6.162403v-0.717176c-1.657474-2.124966-2.135591-5.206167-3.787753-7.58613-2.37465-2.364025-4.743987-4.504929-7.118637-6.868954-6.868953-9.243603-15.406006-17.30785-24.654921-23.937745-7.58613-5.216792-24.176804-12.324804-27.258005-21.095602l-0.467493-0.478118c5.206167-0.478117 11.373882-2.37465 16.351616-3.798377 8.064247-2.124966 15.406006-1.657474 23.698686-3.787752 3.798377-0.950922 7.58613-2.135591 11.384507-3.32026v-2.130279c-4.26587-4.26587-7.347071-9.955467-11.846687-13.982278-12.085746-10.428272-25.366785-20.622798-39.115317-29.154537-7.347071-4.738675-16.829733-7.825188-24.644296-11.846687-2.852767-1.423727-7.58613-2.135591-9.243603-4.504929-4.276495-5.21148-6.64052-12.085746-9.721721-18.25346-6.868953-13.036668-13.509473-27.491751-19.432817-41.240283-4.26587-9.243603-6.879578-18.487207-12.085745-27.018947-24.415863-40.294673-50.967316-64.710536-91.734795-88.64828-8.765486-4.977734-19.193758-7.113325-30.339206-9.716409-5.923344-0.239059-11.846687-0.711864-17.775343-0.950922-3.798377-1.657474-7.58613-6.162402-10.906389-8.297993-13.509473-8.53174-48.353608-27.018946-58.314387-2.608396-6.401461 15.406006 9.482662 30.572952 14.9332 38.39814 4.037436 5.450539 9.243603 11.612941 12.096371 17.775343 1.652161 4.026811 2.124966 8.297993 3.787752 12.563863 3.787752 10.428272 7.347071 22.041213 12.324805 31.762934 2.603084 4.977734 5.445226 10.194526 8.765486 14.699454 1.896532 2.608396 5.216792 3.793065 5.923343 8.058935-3.32026 4.743987-3.548694 11.851999-5.445226 17.780655-8.537052 26.7852-5.216792 59.966548 6.868953 79.638424 3.798377 5.923344 12.802922 18.960012 24.89398 13.982278 10.667331-4.26587 8.292681-17.775343 11.373882-29.627343 0.717176-2.842142 0.239059-4.738675 1.657474-6.635207v0.472805c3.32026 6.635207 6.64052 13.036668 9.721721 19.671875 7.347071 11.612941 20.149993 23.703999 30.817323 31.762934 5.684285 4.26587 10.189213 11.618253 17.297226 14.221337v-0.717176h-0.467493c-1.423727-2.124966-3.559319-3.075889-5.455851-4.738675-4.26587-4.26587-9.004545-9.482662-12.324804-14.221337-9.950155-13.270414-18.71564-27.969869-26.540829-43.136815-3.798377-7.347071-7.118637-15.406006-10.189213-22.753077-1.434352-2.847455-1.434352-7.113325-3.798377-8.531739-3.559319 5.21148-8.765486 9.721721-11.384507 16.117869-4.504929 10.189213-4.972421 22.753076-6.629895 35.789744-0.956235 0.239059-0.478117 0-0.956235 0.472805-7.575505-1.89122-10.189213-9.716408-13.031356-16.351615-7.108012-16.829733-8.297993-43.848679-2.135591-63.286808 1.657474-4.977734 8.776111-20.622798 5.933969-25.361473-1.434352-4.504929-6.162402-7.108012-8.776111-10.667331-3.081201-4.504929-6.390836-10.189213-8.526427-15.166947-5.684285-13.275727-8.526427-27.969869-14.694142-41.245595-2.852767-6.162402-7.825188-12.563863-11.857312-18.248148-4.504929-6.401461-9.472037-10.906389-13.031356-18.487207-1.184669-2.608396-2.842142-6.874266-0.94561-9.716408 0.467493-1.896532 1.423727-2.608396 3.309635-3.081201 3.081201-2.608396 11.857312 0.711864 14.938513 2.130279 8.765486 3.554006 16.112557 6.874266 23.459628 11.846687 3.32026 2.369337 6.879578 6.874266 11.145448 8.064247h4.983046c7.58613 1.657474 16.112557 0.472805 23.220569 2.603083 12.563863 4.032124 23.937745 9.955467 34.137583 16.356928 31.045757 19.671875 56.651601 47.641744 73.948827 81.062152 2.842142 5.450539 4.026811 10.428272 6.640519 16.117869 4.983046 11.618253 11.145448 23.46494 16.112557 34.844134 4.983046 11.140136 9.721721 22.51933 16.829733 31.762934 3.559319 4.977734 17.775343 7.580817 24.176804 10.189213 4.743987 2.130279 12.085746 4.032124 16.36224 6.635207 8.053622 4.977734 16.112557 10.667331 23.698687 16.117869 3.787752 2.83683 15.645064 8.760173 16.351615 13.498849z" fill="#00678C" p-id="15208"></path><path d="M709.558115 298.100894c-4.026811 0-6.868953 0.472805-9.711096 1.184669v0.472805h0.467493c1.896532 3.793065 5.216792 6.401461 7.586129 9.716408 1.896532 3.793065 3.559319 7.58613 5.455851 11.379195l0.467493-0.472805c3.32026-2.369337 4.983046-6.162402 4.983046-11.852-1.423727-1.657474-1.657474-3.32026-2.842143-4.977733-1.423727-2.369337-4.504929-3.554006-6.406773-5.450539z" fill="#00678C" p-id="15209"></path><path d="M456.421507 681.131379h89.121086c10.428272 0 20.389051-2.124966 28.442673-5.923344 13.509473-6.162402 19.910934-14.455083 19.910934-25.35616v-22.753077c0-8.765486-7.347071-17.068792-22.0359-22.753076-7.58613-2.842142-17.068792-4.504929-26.312395-4.504928h-37.447218c-12.563863 0-18.487207-3.798377-20.149993-12.085746-0.233746-0.94561-0.233746-1.896532-0.233746-2.842143v-13.98759c0-0.717176 0-1.657474 0.233746-2.603084 1.657474-6.401461 4.977734-8.064247 15.884123-9.243603h91.251364v-20.62811H508.329121c-12.563863 0-19.19907 0.717176-25.122414 2.613708-18.25346 5.684285-26.312395 14.694142-26.312395 30.56764v18.025027c0 13.976966 15.645064 25.834278 42.191205 28.67642 2.842142 0.239059 5.923344 0.239059 9.004545 0.239058h32.001992c1.184669 0 2.364025 0 3.309635 0.239059 9.721721 0.94561 13.987591 2.603084 16.829733 6.151777 1.896532 1.896532 2.37465 3.559319 2.37465 5.69491v18.014402c0 2.124966-1.423727 4.983046-4.26587 7.347071-2.852767 2.364025-7.357696 4.026811-13.281039 4.265869-1.184669 0-1.885908 0.239059-3.081201 0.239059H456.421507v20.606861z m330.405694-35.784433c0 21.095603 15.884123 32.94229 47.647057 35.31694 3.081201 0.239059 5.923344 0.467493 9.004544 0.467493h80.589346v-20.617486h-81.295897c-18.025026 0-24.89398-4.504929-24.89398-15.406005v-106.662683h-31.056382v106.901741h0.005312z m-173.264438 0.940298v-73.470709c0-18.726265 13.270414-30.110772 39.115317-33.659466 2.842142-0.239059 5.684285-0.478117 8.292681-0.478117h58.776567c3.081201 0 5.69491 0.239059 8.776111 0.478117 25.834278 3.548694 38.865633 14.933201 38.865633 33.659466v73.470709c0 15.166947-5.445226 23.231194-18.25346 28.687045l30.339206 27.486439h-35.784432l-24.654921-22.274959-24.89398 1.423727h-33.181349c-5.445226 0-11.612941-0.706551-18.014401-2.364025-19.66125-5.461163-29.382971-15.889435-29.382972-32.958227z m33.420407-1.646849c0 0.94561 0.478117 1.885908 0.717177 3.081201 1.657474 8.526427 9.711096 13.270414 22.0359 13.270415h27.975181l-25.595219-23.231194h35.784432l22.514018 20.389051c4.276495-2.37465 6.879578-5.69491 7.825188-9.960779 0.239059-0.94561 0.239059-2.124966 0.239059-3.081201v-70.400133c0-0.94561 0-1.885908-0.239059-2.842143-1.657474-8.053622-9.711096-12.553238-21.802154-12.553238h-46.701446c-13.748532 0-22.753076 5.923344-22.753077 15.395381v69.93264z m291.311628 36.730042h4.504928v-17.297225h5.923344v-3.559319h-16.590675v3.559319h6.162403v17.297225z m34.366017 0h4.26587v-20.856544h-6.390837l-5.216792 14.226649-5.684285-14.226649h-6.162402v20.856544h4.026811v-15.873498h0.239059l5.923344 15.873498h3.081201l5.923343-15.873498v15.873498h-0.005312z" fill="#CE8B2C" p-id="15210"></path></svg>