<svg id="图层_1" data-name="图层 1" xmlns="http://www.w3.org/2000/svg" viewBox="0 0 16 16"><title>画板 4</title><rect x="0.5" y="0.5" width="15" height="15" rx="0.64" ry="0.64" style="fill:#fff"/><path d="M14.86,1a.15.15,0,0,1,.14.14V14.86a.15.15,0,0,1-.14.14H1.14A.15.15,0,0,1,1,14.86V1.14A.15.15,0,0,1,1.14,1H14.86m0-1H1.14A1.15,1.15,0,0,0,0,1.14V14.86A1.15,1.15,0,0,0,1.14,16H14.86A1.15,1.15,0,0,0,16,14.86V1.14A1.15,1.15,0,0,0,14.86,0Z" style="fill:gray"/><rect x="3" y="10" width="1" height="3" rx="0.5" ry="0.5" style="fill:#4d84ba"/><rect x="6" y="8" width="1" height="5" rx="0.5" ry="0.5" style="fill:#4d84ba"/><rect x="9" y="9" width="1" height="4" rx="0.5" ry="0.5" style="fill:#4d84ba"/><rect x="12" y="7" width="1" height="6" rx="0.5" ry="0.5" style="fill:#4d84ba"/><path d="M12.5,3h-2a.5.5,0,0,0,0,1H12V5.5a.5.5,0,0,0,1,0v-2A.5.5,0,0,0,12.5,3Z" style="fill:#de673e"/><polyline points="12 4 9 7 7 5 3.5 8.5" style="fill:none;stroke:#de673e;stroke-miterlimit:10"/><path d="M3.5,8a.5.5,0,1,0,.5.5A.5.5,0,0,0,3.5,8Z" style="fill:#de673e"/></svg>