<?xml version="1.0" standalone="no"?><!DOCTYPE svg PUBLIC "-//W3C//DTD SVG 1.1//EN" "http://www.w3.org/Graphics/SVG/1.1/DTD/svg11.dtd"><svg t="1602424813741" class="icon" viewBox="0 0 1024 1024" version="1.1" xmlns="http://www.w3.org/2000/svg" p-id="3005" xmlns:xlink="http://www.w3.org/1999/xlink" width="200" height="200"><defs><style type="text/css"></style></defs><path d="M914.592 303.52l2.816-7.328-23.776-21.408-136.224-122.592-160-144-6.56 2.912A122.048 122.048 0 0 0 544 0H160a64 64 0 0 0-64 64v896a64 64 0 0 0 64 64h704a64 64 0 0 0 64-64V352a108.8 108.8 0 0 0-13.408-48.48zM608 103.84L812.64 288H608V103.84zM864 960H160V64h384v256l32 32h288z" p-id="3006" fill="#1296db"></path></svg>