<?xml version="1.0" standalone="no"?><!DOCTYPE svg PUBLIC "-//W3C//DTD SVG 1.1//EN" "http://www.w3.org/Graphics/SVG/1.1/DTD/svg11.dtd"><svg t="1605363282456" class="icon" viewBox="0 0 1024 1024" version="1.1" xmlns="http://www.w3.org/2000/svg" p-id="14233" xmlns:xlink="http://www.w3.org/1999/xlink" width="200" height="200"><defs><style type="text/css"></style></defs><path d="M656.451879 546.46303h-104.411798V442.091313c0-22.093576-17.956202-40.065293-40.03297-40.065293s-40.038141 17.971717-40.038141 40.065293v104.379475h-104.409212c-22.079354 0-40.038141 17.971717-40.038142 40.064 0 22.075475 17.960081 40.038141 40.038142 40.038141h104.409212v104.411798c0 22.075475 17.961374 40.039434 40.038141 40.039435s40.03297-17.96396 40.03297-40.039435v-104.411798h104.411798c22.075475 0 40.038141-17.962667 40.038141-40.038141-0.002586-22.093576-17.96396-40.071758-40.038141-40.071758z" p-id="14234" fill="#1296db"></path><path d="M933.358545 224.837818h-288.310303l-2.164363-5.99402c-40.184242-111.237172-121.338828-131.194828-166.275879-133.165253H90.504404c-38.193131 0-69.881535 29.507232-72.259232 67.220687v739.749495c2.375111 37.713455 34.064808 67.220687 72.259232 67.220687h842.84897c39.929535 0 72.414384-32.184889 72.414384-71.744646V296.614788c-0.020687-39.576566-32.500364-71.77697-72.409213-71.77697zM160.709172 159.582384h245.770343l0.283152 0.016808c74.312404 4.648081 117.09802 21.056646 134.640485 51.642182l7.802828 13.596444h-457.425455l2.150142-10.842505c0-32.894707-4.226586-54.412929 66.778505-54.412929z m770.455272 658.937535c0 37.191111-2.991838 67.448242-68.06109 67.448243H160.704c-63.219071 0-68.036525-30.257131-68.036525-67.448243V298.802424h770.424242c37.53503 0 68.072727 30.244202 68.072727 67.418505v452.29899z" p-id="14235" fill="#1296db"></path></svg>