<?xml version="1.0" standalone="no"?><!DOCTYPE svg PUBLIC "-//W3C//DTD SVG 1.1//EN" "http://www.w3.org/Graphics/SVG/1.1/DTD/svg11.dtd"><svg t="1534299591487" class="icon" style="" viewBox="0 0 1024 1024" version="1.1" xmlns="http://www.w3.org/2000/svg" p-id="2896" xmlns:xlink="http://www.w3.org/1999/xlink" width="64" height="64"><defs><style type="text/css"></style></defs><path d="M325.450697 862.306736" p-id="2897" fill="#f33a0c"></path><path d="M882.088359 862.306736" p-id="2898" fill="#f33a0c"></path><path d="M236.00336 877.09995" p-id="2899" fill="#f33a0c"></path><path d="M960.182765 877.09995" p-id="2900" fill="#f33a0c"></path><path d="M63.645221 788.684697" p-id="2901" fill="#f33a0c"></path><path d="M958.462624 788.684697" p-id="2902" fill="#f33a0c"></path><path d="M64.84932 858.69444" p-id="2903" fill="#f33a0c"></path><path d="M959.494709 858.69444" p-id="2904" fill="#f33a0c"></path><path d="M840.28893 627.335461l-296.036284 295.86427c-18.749538 18.749538-49.196036 18.749538-67.945574 0l-295.86427-296.036284c-26.662187-26.662187-4.472367-73.278011 30.446498-73.278011l146.728036 0L357.617336 133.48295c0-25.974131 20.985721-47.131866 47.131866-47.131866l211.233328 0c25.974131 0 47.131866 20.985721 47.131866 47.131866l0 420.5745L810.186461 554.05745C845.793381 554.05745 866.091047 601.36133 840.28893 627.335461z" p-id="2905" fill="#f33a0c"></path></svg>