<?xml version="1.0" standalone="no"?><!DOCTYPE svg PUBLIC "-//W3C//DTD SVG 1.1//EN" "http://www.w3.org/Graphics/SVG/1.1/DTD/svg11.dtd"><svg t="1605357573499" class="icon" viewBox="0 0 1024 1024" version="1.1" xmlns="http://www.w3.org/2000/svg" p-id="3443" xmlns:xlink="http://www.w3.org/1999/xlink" width="200" height="200"><defs><style type="text/css"></style></defs><path d="M449.536 246.048L300.96 170.464 137.888 252.48l152.608 77.216 159.04-83.648zM517.664 280.672l155.776 79.232-161.632 81.792-152.832-77.344 158.688-83.68zM725.696 171.616l160.032 80.864-143.104 72.416-156.128-79.328 139.2-73.952zM656.832 136.768L512.736 64 370.24 135.648l148.448 75.456 138.144-74.336zM544.192 761.888V960l174.528-87.744-0.192-198.208-174.336 87.84zM718.464 604.896l-0.192-196.128-174.08 87.2v196.192l174.272-87.264zM928 568.128v198.88l-148.864 74.848-0.096-197.952L928 568.128zM928 498.592v-194.88l-149.152 74.72 0.128 196.512L928 498.592z" fill="#4DABCF" p-id="3444"></path><path d="M482.56 496l-117.568-59.552v257.44S221.216 385.6 208 357.92a28.8 28.8 0 0 0-10.592-8.448C171.552 336 96 297.28 96 297.28V752l104.512 56.32v-237.696s142.24 275.424 143.68 278.4a128.832 128.832 0 0 0 30.976 42.24c20.32 13.536 107.424 66.336 107.424 66.336z" fill="#4D77CF" p-id="3445"></path></svg>