<?xml version="1.0" standalone="no"?><!DOCTYPE svg PUBLIC "-//W3C//DTD SVG 1.1//EN" "http://www.w3.org/Graphics/SVG/1.1/DTD/svg11.dtd"><svg t="1605363976634" class="icon" viewBox="0 0 1024 1024" version="1.1" xmlns="http://www.w3.org/2000/svg" p-id="18585" xmlns:xlink="http://www.w3.org/1999/xlink" width="200" height="200"><defs><style type="text/css"></style></defs><path d="M870.4 972.8H153.6c-56.32 0-102.4-46.08-102.4-102.4V153.6c0-56.32 46.08-102.4 102.4-102.4h716.8c56.32 0 102.4 46.08 102.4 102.4v716.8c0 56.32-46.08 102.4-102.4 102.4z" fill="#E8413E" p-id="18586"></path><path d="M331.776 513.536c0-46.08-37.888-83.456-84.992-83.456H178.688c-47.104 0-84.992 37.376-84.992 83.456s37.888 83.456 84.992 83.456h68.608c46.592-0.512 84.48-37.888 84.48-83.456z m-84.992 35.84H178.688c-20.48 0-36.864-15.872-36.864-35.84s16.384-35.84 36.864-35.84h68.608c20.48 0 36.864 15.872 36.864 35.84s-16.896 35.84-37.376 35.84zM251.904 396.288c18.432-43.52 51.712-61.952 111.616-61.952h289.792c59.904 0 93.696 18.432 112.128 61.952l1.536 3.072h56.32l-2.56-7.168c-26.624-67.584-89.088-107.52-167.424-107.52H363.52c-77.824 0-140.288 40.448-167.424 107.52l-2.56 7.68h56.832l1.536-3.584zM792.064 542.208V430.08H614.4c-47.104 0-84.992 37.376-84.992 83.456 0 46.08 37.888 83.456 84.992 83.456h80.384l41.472-40.448v40.448h138.24l56.32-54.784h-138.752z m-177.664 7.168c-20.48 0-36.864-15.872-36.864-35.84 0-19.968 16.384-35.84 36.864-35.84h80.896l40.448-39.424v111.104H614.4zM764.928 627.712c-18.432 43.52-51.712 61.952-112.128 61.952H363.52c-59.904 0-93.696-18.432-111.616-61.952l-1.536-3.072H193.536l2.56 7.168c26.624 67.584 89.088 107.52 167.424 107.52h289.28c78.336 0 140.8-40.448 167.424-107.52l2.56-7.168h-56.32l-1.536 3.072zM522.752 493.056c0-34.816-28.672-62.464-64-62.464H339.456v166.912h48.128v-68.608l64 67.072 1.536 1.536h66.048l-41.984-44.544c26.624-7.68 45.568-32.256 45.568-59.904z m-48.128 0c0 4.096-1.536 7.68-4.608 10.752s-6.656 4.608-11.264 4.608H387.584v-30.72h71.168c8.704 0 15.872 6.656 15.872 15.36z" fill="#FFFFFF" p-id="18587"></path></svg>