<?xml version="1.0" standalone="no"?><!DOCTYPE svg PUBLIC "-//W3C//DTD SVG 1.1//EN" "http://www.w3.org/Graphics/SVG/1.1/DTD/svg11.dtd"><svg t="1607268699521" class="icon" viewBox="0 0 1024 1024" version="1.1" xmlns="http://www.w3.org/2000/svg" p-id="3241" xmlns:xlink="http://www.w3.org/1999/xlink" width="200" height="200"><defs><style type="text/css"></style></defs><path d="M730.784 0c-41.984 0.32-82.4 6.592-120.608 17.984l3.072-0.768-2.688 0.864a451.264 451.264 0 0 0-72.544-7.04H537.6c-50.272-0.864-93.44 11.36-128.256 31.648C375.04 30.784 303.872 10.272 228.864 14.368c-52.224 2.848-109.216 18.72-151.456 63.328C35.296 122.272 13.024 191.264 17.728 285.152c1.28 25.888 8.672 68.128 20.896 122.848s29.44 118.752 50.912 177.152c21.472 58.464 44.96 110.944 81.696 146.592 18.336 17.888 43.616 32.896 73.376 31.648 20.896-0.864 39.808-10.016 56.096-23.552 7.936 10.464 16.416 15.008 24.16 19.232 9.728 5.344 19.2 8.96 29.024 11.36 17.632 4.384 47.776 10.272 83.104 4.256a157.312 157.312 0 0 0 37.344-11.52c0.48 14.08 1.024 27.872 1.568 41.824 1.76 44.192 2.848 85.024 16.128 120.832 2.144 5.856 7.968 35.968 31.008 62.56 23.04 26.624 68.192 43.232 119.584 32.224 36.256-7.776 82.4-21.76 113.024-65.376 30.304-43.104 43.936-104.928 46.624-205.184 0.672-5.408 1.504-10.016 2.336-14.336l7.2 0.64h0.864c38.688 1.76 80.672-3.744 115.744-20.064 31.072-14.368 54.56-28.928 71.68-54.752 4.256-6.4 8.96-14.112 10.24-27.424s-6.368-34.144-19.04-43.744c-25.376-19.296-41.344-11.936-58.464-8.416-15.232 3.52-32.864 5.76-50.944 6.208h-0.32c49.312-83.072 84.704-171.296 104.864-249.376 11.936-46.08 18.656-88.576 19.2-125.728s-2.464-70.048-24.736-98.528C911.296 25.6 813.472 1.024 737.792 0.192c-2.336-0.032-4.704-0.096-7.04-0.032z m-1.984 27.296c71.584-0.672 163.072 19.424 228.736 103.328 14.752 18.848 19.168 46.432 18.656 80.384-0.544 33.92-6.816 74.528-18.304 119.04-22.272 86.176-64.352 186.656-123.616 276.832 1.952 1.408 4.16 2.624 6.528 3.584l0.224 0.064c12.384 5.12 40.576 9.504 96.864-2.048 14.176-2.976 24.544-4.992 35.296 3.2 4.8 4.096 7.84 10.144 7.84 16.928l-0.032 1.28v-0.064a29.824 29.824 0 0 1-5.6 14.432l0.064-0.096c-10.88 16.352-32.352 31.84-59.872 44.576-24.352 11.36-59.296 17.28-90.272 17.632-15.52 0.16-29.856-1.024-42.016-4.832l-0.768-0.288c-4.704 45.216-15.488 134.528-22.528 175.264-5.632 32.864-15.488 58.976-34.304 78.496-18.784 19.552-45.344 31.328-81.12 39.008-44.288 9.504-76.576-0.736-97.408-18.272-20.768-17.504-30.304-40.704-36-54.912-3.936-9.824-5.984-22.528-7.936-39.52s-3.424-37.76-4.384-61.184a2116.128 2116.128 0 0 1-1.248-109.12v1.472a130.304 130.304 0 0 1-65.44 32.32l-0.768 0.128c-29.408 4.992-55.648 0.096-71.296-3.84a96.224 96.224 0 0 1-22.688-8.832l0.512 0.256c-7.264-3.872-14.176-8.288-18.784-16.928a23.776 23.776 0 0 1-2.4-16.416l-0.032 0.16a26.08 26.08 0 0 1 9.248-14.08l0.064-0.032c8.448-6.88 19.616-10.72 36.48-14.208 30.688-6.304 41.376-10.624 47.904-15.776 5.536-4.448 11.808-13.408 22.912-26.528l-0.128-1.632v-0.128a125.536 125.536 0 0 1-57.408-15.616l0.64 0.32c-6.4 6.752-39.072 41.312-78.944 89.248-16.768 20.064-35.296 31.584-54.816 32.384-19.552 0.864-37.216-8.992-52.224-23.552-29.984-29.152-53.92-79.264-74.784-135.936-20.832-56.672-37.76-119.776-49.792-173.536-12.064-53.76-19.2-97.12-20.224-118.016-4.48-88.832 16.288-148.704 51.936-186.464 35.68-37.76 84.576-52.064 132.224-54.784 85.536-4.896 166.784 24.928 183.2 31.328 31.648-21.504 72.448-34.912 123.392-34.048a317.952 317.952 0 0 1 73.92 9.76l-2.176-0.48 0.864-0.384c8.224-3.04 18.784-6.208 29.536-8.736l1.984-0.384a400.96 400.96 0 0 1 88.096-10.72h0.256z m6.464 28.608h-6.24a375.04 375.04 0 0 0-75.168 8.64l2.464-0.448c53.152 23.552 93.312 59.808 121.6 96a356.16 356.16 0 0 1 47.392 79.584l0.896 2.336c4.704 11.264 7.84 20.768 9.632 28.16 0.896 3.712 1.504 6.816 1.696 10.08a18.752 18.752 0 0 1-0.512 6.144c0 0.128-0.224 0.416-0.256 0.544 1.28 37.376-7.968 62.72-9.088 98.4-0.864 25.856 5.76 56.224 7.392 89.376 1.536 31.136-2.208 65.376-22.432 98.944 1.696 2.048 3.232 4.096 4.864 6.144 53.504-84.256 92.064-177.504 112.64-256.992 11.008-42.784 16.864-81.568 17.376-112.288 0.416-30.72-5.28-52.992-12.576-62.304-57.248-73.216-134.752-91.872-199.68-92.384z m-204.352 10.912c-50.432 0.128-86.624 15.36-114.048 38.176-28.288 23.584-47.264 55.904-59.744 88.96-14.816 39.264-19.872 77.216-21.888 103.008l0.544-0.352a220.832 220.832 0 0 1 56.672-22.016c21.408-4.896 44.512-6.432 65.408 1.664s38.176 27.168 44.448 56.096c30.048 138.976-9.344 190.624-23.84 229.632-4.608 11.232-9.44 25.632-13.44 40.352l-0.672 2.88c1.824-0.416 3.68-0.928 5.504-1.12 10.24-0.864 18.272 2.56 23.04 4.608 14.592 6.048 24.608 18.784 30.048 33.28 1.408 3.808 2.432 7.904 3.04 12.128a14.176 14.176 0 0 1 0.864 4.896v0.544-0.032a2389.76 2389.76 0 0 0 0.704 163.872l-0.128-4.416c0.992 22.944 2.432 43.168 4.256 59.136 1.824 15.904 4.448 28.032 6.112 32.128 5.472 13.664 13.44 31.52 27.872 43.68 14.432 12.128 35.104 20.224 72.928 12.128 32.768-7.04 52.992-16.8 66.528-30.848 13.472-14.048 21.536-33.568 26.72-63.488 7.712-44.8 23.264-174.72 25.12-199.168-0.864-18.432 1.888-32.608 7.776-43.392 6.048-11.104 15.456-17.888 23.552-21.536 4.064-1.824 7.84-3.072 10.976-3.968a249.28 249.28 0 0 0-10.752-14.336l0.384 0.48a188.896 188.896 0 0 1-27.936-45.664l-0.48-1.248c-4.352-8.928-8-15.68-11.872-22.304l0.896 1.664c-5.664-10.24-12.832-23.04-20.352-37.408-15.008-28.8-31.36-63.712-39.84-97.696-8.448-33.952-9.696-69.12 12-93.92 19.2-22.016 52.896-31.136 103.52-26.016-1.504-4.48-2.4-8.192-4.896-14.176a333.44 333.44 0 0 0-44.96-75.968l0.544 0.704c-42.88-54.816-112.288-109.184-219.552-110.944h-4.896z m-283.392 2.208c-5.408 0-10.848 0.16-16.224 0.48-43.104 2.464-83.84 14.976-112.992 45.856-29.184 30.88-48.384 81.536-44.192 165.376 0.8 15.872 7.712 60.32 19.584 113.152 11.808 52.832 28.576 114.976 48.736 169.888 20.192 54.912 44.64 102.688 67.84 125.312 11.68 11.296 21.856 15.872 31.072 15.488 9.248-0.416 20.384-5.76 34.016-22.112a1846.432 1846.432 0 0 1 78.08-88.288l-0.832 0.896a149.024 149.024 0 0 1-49.696-135.232l-0.096 0.832c4.384-31.52 4.992-61.024 4.48-84.32-0.512-22.688-2.144-37.792-2.144-47.232v-0.416-0.416 0.032-0.224l-0.032-0.256v-0.032-0.224c0-51.616 9.248-101.056 26.208-146.752l-0.96 2.912c11.936-31.744 29.728-64 56.416-90.112-26.208-8.608-72.704-21.76-123.04-24.224a314.016 314.016 0 0 0-16.192-0.416h-0.032zM776.48 294.4c-28.96 0.384-45.216 7.84-53.76 17.632-12.064 13.856-13.216 38.176-5.728 68.128 7.456 29.984 22.912 63.52 37.408 91.392 7.264 13.952 14.304 26.496 19.968 36.704 5.728 10.24 9.888 17.504 12.448 23.68 2.336 5.728 4.96 10.752 7.584 15.456 11.232-23.68 13.216-46.944 12.064-71.168-1.504-29.984-8.448-60.672-7.424-91.744 1.152-36.32 8.32-59.936 8.96-88.032a240.896 240.896 0 0 0-31.552-2.048z m-351.296 4.896a121.312 121.312 0 0 0-27.104 3.328l0.832-0.16a198.304 198.304 0 0 0-50.208 19.68l0.992-0.512c-5.664 3.072-10.56 6.304-15.104 9.888l0.224-0.16-0.928 0.864c0.256 6.24 1.504 21.344 2.016 43.552 0.512 24.32-0.096 55.328-4.768 88.928-10.208 72.96 42.752 133.376 104.96 133.472 3.616-14.976 9.6-30.176 15.584-46.176 17.312-46.688 51.424-80.736 22.688-213.6-4.704-21.76-13.984-30.56-26.784-35.488a61.76 61.76 0 0 0-20.96-3.584l-1.472 0.032h0.064z m337.792 8.704h2.144c2.816 0.096 5.408 0.384 7.68 0.928 2.304 0.512 4.256 1.28 5.888 2.336s2.816 2.688 3.2 4.64v0.032l-0.032 0.352v0.416a9.952 9.952 0 0 1-1.536 5.376l0.032-0.032a28.032 28.032 0 0 1-4.704 6.4 28.928 28.928 0 0 1-16.288 9.024l-0.16 0.032a25.184 25.184 0 0 1-17.568-4.448l0.064 0.064a26.528 26.528 0 0 1-5.504-4.992l-0.032-0.032a11.168 11.168 0 0 1-2.688-5.344v-0.064l-0.032-0.64c0-1.856 0.704-3.52 1.824-4.8a16.704 16.704 0 0 1 4.896-3.808l0.096-0.032a48 48 0 0 1 15.904-4.96c2.336-0.352 4.64-0.512 6.816-0.544z m-333.664 7.168c2.272 0 4.64 0.224 7.072 0.544 6.528 0.896 12.32 2.656 16.768 5.216a19.616 19.616 0 0 1 5.664 4.512l0.032 0.032a9.44 9.44 0 0 1 2.304 7.296v-0.032a13.024 13.024 0 0 1-3.2 6.592 27.104 27.104 0 0 1-6.016 5.472l-0.096 0.064a27.072 27.072 0 0 1-19.232 4.8h0.128a31.136 31.136 0 0 1-17.888-9.696l-0.032-0.032a30.208 30.208 0 0 1-4.96-6.848l-0.064-0.16a11.68 11.68 0 0 1-1.824-6.336l0.064-1.28v0.064c0.64-4.608 4.448-7.008 8.16-8.32a35.936 35.936 0 0 1 13.184-1.696h-0.096z m386.56 313.312l-0.128 0.032c-6.272 2.272-11.424 3.2-15.776 5.12a19.52 19.52 0 0 0-10.144 9.024l-0.064 0.096c-2.688 4.896-4.992 13.6-4.32 28.416a22.016 22.016 0 0 0 6.176 2.944l0.16 0.032c7.296 2.208 19.552 3.68 33.184 3.456 27.232-0.288 60.704-6.656 78.496-14.944 15.392-7.232 28.64-16 40.416-26.4l-0.192 0.16h-0.032c-59.424 12.288-93.024 8.992-113.632 0.512a56.672 56.672 0 0 1-14.272-8.608l0.096 0.064z m-342.656 4h-0.896c-2.272 0.224-5.536 0.992-11.904 8.032-14.848 16.64-20.064 27.104-32.288 36.864-12.256 9.728-28.16 14.944-59.936 21.472a82.304 82.304 0 0 0-19.68 6.144c1.248 1.024 1.12 1.28 2.976 2.272 4.64 2.56 10.624 4.832 15.456 6.048 13.664 3.424 36.096 7.392 59.52 3.424 23.424-4 47.776-15.232 68.576-44.384 3.584-5.024 3.968-12.448 1.024-20.448-2.976-7.968-9.504-14.848-14.112-16.768a27.904 27.904 0 0 0-8.576-2.56h-0.128z" fill="#336791" p-id="3242"></path></svg>