<?xml version="1.0" standalone="no"?><!DOCTYPE svg PUBLIC "-//W3C//DTD SVG 1.1//EN" "http://www.w3.org/Graphics/SVG/1.1/DTD/svg11.dtd"><svg t="1542792814600" class="icon" style="" viewBox="0 0 1024 1024" version="1.1" xmlns="http://www.w3.org/2000/svg" p-id="32265" xmlns:xlink="http://www.w3.org/1999/xlink" width="32" height="32"><defs><style type="text/css"></style></defs><path d="M584.059 345.626c-5.637 5.458-5.817 14.442-0.398 20.119l71.761 75.247a14.202 14.202 0 0 0 10.04 4.422c0.1 0.01 0.189 0.01 0.289 0.01a14.32 14.32 0 0 0 9.93-4.014c23.266-22.499 40.307-38.564 55.427-52.817 9.84-9.273 18.874-17.778 28.256-26.782 51.851 19.173 109.767 7.281 149.905-31.473 28.625-27.639 47.1-67.657 50.676-109.817a14.297 14.297 0 0 0-3.695-10.856l-15.547-16.952a14.288 14.288 0 0 0-10.109-4.621c-3.815 0-7.589 1.335-10.358 4.024l-68.653 66.611-62.807-19.342-15.189-66.263 68.882-66.99c5.528-5.388 5.787-14.193 0.568-19.89l-15.58-16.992c-2.819-3.068-6.962-4.572-11.006-4.621-41.025 1.394-81.053 18.117-109.817 45.885-41.264 39.849-55.805 99.738-38.306 154.895-9.213 8.834-18.595 17.689-28.774 27.31-15.795 14.92-33.504 31.652-55.495 52.907zM425.767 518.967c-5.498-5.657-14.511-5.777-20.149-0.309-107.556 103.99-205.431 198.609-220.002 212.672-21.025 20.298-50.984 41.303-72.856 56.642-13.515 9.482-23.276 16.324-28.067 20.945-13.456 13.008-19.332 38.027-20.378 42.907a14.26 14.26 0 0 0 3.446 12.629l70.346 76.691a14.267 14.267 0 0 0 10.518 4.631c0.657 0 1.315-0.05 1.972-0.139 16.733-2.341 38.425-6.822 46.811-14.92 3.028-2.928 6.783-8.396 15.746-21.573 14.85-21.862 39.72-58.454 62.647-80.585l222.204-214.834a14.245 14.245 0 0 0 4.352-10.049 14.261 14.261 0 0 0-4.044-10.179l-72.546-74.529z" fill="#1296db" p-id="32266"></path><path d="M942.812 814.365L825.655 669.46c-15.059-18.625-38.236-28.714-61.741-27.758-82.926-101.899-334.372-394.061-349.292-411.232-3.755-4.313-5.438-8.197-5.139-11.872 0.428-5.269 4.91-10.069 6.892-11.713 45.058-38.395 88.453-33.007 120.096-29.083 9.711 1.215 18.097 2.231 25.338 1.803a14.257 14.257 0 0 0 8.386-3.386l52-44.301a14.262 14.262 0 0 0 4.88-12.808 14.251 14.251 0 0 0-8.167-11.026c-196.109-90.455-287.361-12.549-290.947-9.372l-125.165 106.61a14.226 14.226 0 0 0-4.85 8.735c-1.125 7.38-6.095 24.91-14.352 31.941-6.006 5.109-12.729 4.88-22.29 3.974-7.53-0.707-16.105-1.544-23.186 4.761-0.1 0.08-0.189 0.169-0.279 0.259-0.219 0.159-0.418 0.319-0.608 0.478l-64.958 55.327c-9.502 8.097-10.836 22.579-2.998 32.29l94.589 116.988c3.904 4.821 9.442 7.789 15.597 8.356 6.285 0.558 12.161-1.325 16.892-5.348l64.958-55.327c1.813-1.544 2.948-3.127 3.705-4.253 6.583-8.506 6.872-18.804 7.141-28.764 0.359-13.047 0.667-24.312 12.49-34.381 17.3-14.731 40.048-7.619 47.449-4.681l336.752 396.202c-1.743 20.179 4.233 40.198 16.862 55.805L802.868 932.59c12.858 15.906 31.105 25.706 51.373 27.589 2.36 0.219 4.711 0.319 7.052 0.319 17.748 0 34.75-6.255 48.494-17.958l22.938-19.531c31.969-27.242 36.491-75.986 10.087-108.644z" fill="#1296db" p-id="32267"></path></svg>