<?xml version="1.0" standalone="no"?><!DOCTYPE svg PUBLIC "-//W3C//DTD SVG 1.1//EN" "http://www.w3.org/Graphics/SVG/1.1/DTD/svg11.dtd"><svg t="1605363426132" class="icon" viewBox="0 0 1024 1024" version="1.1" xmlns="http://www.w3.org/2000/svg" p-id="14395" xmlns:xlink="http://www.w3.org/1999/xlink" width="200" height="200"><defs><style type="text/css"></style></defs><path d="M442.88 134.656v57.344c0 74.24 60.416 135.168 135.168 135.168h342.016v534.016H104.448V134.656h338.432M474.112 51.2H73.216C44.544 51.2 20.992 74.752 20.992 103.424v788.48c0 28.672 23.04 51.712 51.712 51.712h878.08c28.672 0 51.712-23.04 51.712-51.712V295.424c0-28.672-23.04-51.712-51.712-51.712h-372.736c-28.672 0-51.712-23.04-51.712-51.712V103.424c-0.512-28.672-23.552-52.224-52.224-52.224z" fill="#1296db" p-id="14396"></path><path d="M86.528 239.616h449.024V322.56H86.528zM764.928 542.72H389.632c-17.92 0-32.256-18.432-32.256-41.472s14.336-41.472 32.256-41.472h375.296c17.92 0 32.256 18.432 32.256 41.472s-14.336 41.472-32.256 41.472zM764.928 739.328H389.632c-17.92 0-32.256-18.432-32.256-41.472s14.336-41.472 32.256-41.472h375.296c17.92 0 32.256 18.432 32.256 41.472 0 22.528-14.336 41.472-32.256 41.472z" fill="#1296db" p-id="14397"></path><path d="M250.368 500.736m-60.928 0a60.928 60.928 0 1 0 121.856 0 60.928 60.928 0 1 0-121.856 0Z" fill="#1296db" p-id="14398"></path><path d="M250.368 696.832m-60.928 0a60.928 60.928 0 1 0 121.856 0 60.928 60.928 0 1 0-121.856 0Z" fill="#1296db" p-id="14399"></path></svg>