<?xml version="1.0" standalone="no"?><!DOCTYPE svg PUBLIC "-//W3C//DTD SVG 1.1//EN" "http://www.w3.org/Graphics/SVG/1.1/DTD/svg11.dtd"><svg t="1607849126629" class="icon" viewBox="0 0 1161 1024" version="1.1" xmlns="http://www.w3.org/2000/svg" p-id="3173" xmlns:xlink="http://www.w3.org/1999/xlink" width="226.7578125" height="200"><defs><style type="text/css"></style></defs><path d="M334.212408 332.37627l164.59917 59.921654v193.447721l-164.59917-59.921654z" fill="#E9E9FF" p-id="3174"></path><path d="M167.19448 393.180683v193.447721l167.017928-60.804413V332.37627z" fill="#353564" p-id="3175"></path><path d="M167.19448 586.628404l164.581514 59.903999 167.017928-60.786758-164.581514-59.921654z" fill="#AFAFDE" p-id="3176"></path><path d="M167.19448 393.180683l164.581514 59.903999 167.017928-60.786758-164.581514-59.921654z" fill="#F7F7F4" p-id="3177"></path><path d="M331.775994 453.084682V646.532403l167.017928-60.786758V392.297924z" fill="#FFFFFF" p-id="3178"></path><path d="M167.19448 393.180683l164.581514 59.903999V646.532403L167.19448 586.628404z" fill="#EFEEEA" p-id="3179"></path><path d="M499.517784 197.137652l164.59917 59.903999v193.447721l-164.59917-59.903999z" fill="#E9E9FF" p-id="3180"></path><path d="M332.499856 257.924409v193.447721l167.017928-60.786757V197.137652z" fill="#353564" p-id="3181"></path><path d="M332.499856 451.37213l164.581515 59.903999 167.035583-60.786757-164.59917-59.903999z" fill="#AFAFDE" p-id="3182"></path><path d="M332.499856 257.924409l164.581515 59.903999 167.035583-60.786757-164.59917-59.903999z" fill="#F7F7F4" p-id="3183"></path><path d="M497.081371 317.828408V511.293784l167.035583-60.786757V257.041651z" fill="#FFFFFF" p-id="3184"></path><path d="M332.499856 257.924409l164.581515 59.903999V511.293784l-164.581515-59.903999z" fill="#EFEEEA" p-id="3185"></path><path d="M168.907032 587.864266l164.581514 59.903999v193.44772l-164.581514-59.903998z" fill="#E9E9FF" p-id="3186"></path><path d="M1.871448 648.651023v193.447721l167.017928-60.786757V587.864266z" fill="#353564" p-id="3187"></path><path d="M1.871448 842.098744L166.488273 902.002743l167.017928-60.786758-164.581514-59.903998z" fill="#AFAFDE" p-id="3188"></path><path d="M1.871448 648.651023l164.59917 59.903999 167.017928-60.786757-164.581514-59.903999z" fill="#F7F7F4" p-id="3189"></path><path d="M166.470618 708.555022V902.002743l167.017928-60.786758V647.768265z" fill="#FFFFFF" p-id="3190"></path><path d="M1.871448 648.651023l164.59917 59.903999V902.002743L1.871448 842.098744z" fill="#EFEEEA" p-id="3191"></path><path d="M334.212408 647.980127l164.59917 59.903999v193.447721l-164.59917-59.903999z" fill="#E9E9FF" p-id="3192"></path><path d="M167.19448 708.766884v193.447721l167.017928-60.786757V647.980127z" fill="#353564" p-id="3193"></path><path d="M167.19448 902.214605l164.581514 59.903999 167.017928-60.786757-164.581514-59.903999z" fill="#AFAFDE" p-id="3194"></path><path d="M167.19448 708.766884l164.581514 59.903999 167.017928-60.786757-164.581514-59.903999z" fill="#F7F7F4" p-id="3195"></path><path d="M331.775994 768.670883v193.447721l167.017928-60.786757V707.884126z" fill="#FFFFFF" p-id="3196"></path><path d="M167.19448 708.766884l164.581514 59.903999v193.447721L167.19448 902.214605z" fill="#EFEEEA" p-id="3197"></path><path d="M334.212408 452.607992l164.59917 59.903999v193.447721l-164.59917-59.903999z" fill="#E9E9FF" p-id="3198"></path><path d="M167.19448 513.412405v193.430066l167.017928-60.786758V452.607992z" fill="#353564" p-id="3199"></path><path d="M167.19448 706.842471l164.581514 59.921654 167.017928-60.804413-164.581514-59.903999z" fill="#AFAFDE" p-id="3200"></path><path d="M167.19448 513.412405l164.581514 59.903999 167.017928-60.804413-164.581514-59.903999z" fill="#F7F7F4" p-id="3201"></path><path d="M331.775994 573.316404V766.764125l167.017928-60.804413V512.529646z" fill="#FFFFFF" p-id="3202"></path><path d="M167.19448 513.412405l164.581514 59.903999V766.764125L167.19448 706.842471z" fill="#EFEEEA" p-id="3203"></path><path d="M995.451569 527.748405l164.59917 59.903999v193.44772l-164.59917-59.903999z" fill="#E9E9FF" p-id="3204"></path><path d="M828.433641 588.535162v193.447721l167.017928-60.786758V527.748405z" fill="#353564" p-id="3205"></path><path d="M828.433641 781.982883l164.581514 59.921654 167.017928-60.804413-164.581514-59.903999z" fill="#AFAFDE" p-id="3206"></path><path d="M828.433641 588.535162l164.581514 59.921654 167.017928-60.804412-164.581514-59.903999z" fill="#F7F7F4" p-id="3207"></path><path d="M993.015155 648.456816v193.447721l167.017928-60.804413V587.652404z" fill="#FFFFFF" p-id="3208"></path><path d="M828.433641 588.535162l164.581514 59.921654v193.447721l-164.581514-59.921654z" fill="#EFEEEA" p-id="3209"></path><path d="M830.090009 587.836218l164.586216 59.906023v193.446052l-164.586216-59.906023z" fill="#E9E9FF" p-id="3210"></path><path d="M663.064285 648.628289v193.446051l167.025724-60.79207v-193.434545z" fill="#353564" p-id="3211"></path><path d="M663.064285 842.07434l164.586216 59.906023 167.025724-60.79207-164.586216-59.906023z" fill="#AFAFDE" p-id="3212"></path><path d="M663.064285 648.628289l164.586216 59.906022 167.025724-60.79207-164.586216-59.906023z" fill="#F7F7F4" p-id="3213"></path><path d="M827.650501 708.534311v193.446052l167.025724-60.79207v-193.434545z" fill="#FFD242" p-id="3214"></path><path d="M663.064285 648.628289l164.586216 59.906022v193.446052l-164.586216-59.906023z" fill="#EFEEEA" p-id="3215"></path><path d="M932.564918 767.297889m-32.082862 11.677207a27.694394 39.551694 35.00061809 1 0 64.165723-23.354413 27.694394 39.551694 35.00061809 1 0-64.165723 23.354413Z" fill="#FFFFFF" p-id="3216"></path><path d="M664.840816 647.980127l164.581515 59.903999v193.447721l-164.581515-59.903999z" fill="#E9E9FF" p-id="3217"></path><path d="M497.805233 708.766884v193.447721l167.017928-60.786757V647.980127z" fill="#353564" p-id="3218"></path><path d="M497.805233 902.214605l164.599169 59.903999 167.017929-60.786757-164.581515-59.903999z" fill="#AFAFDE" p-id="3219"></path><path d="M497.805233 708.766884l164.599169 59.903999 167.017929-60.786757-164.581515-59.903999z" fill="#F7F7F4" p-id="3220"></path><path d="M662.404402 768.670883v193.447721l167.017929-60.786757V707.884126z" fill="#FFD242" p-id="3221"></path><path d="M497.805233 708.766884l164.599169 59.903999v193.447721l-164.599169-59.903999z" fill="#EFEEEA" p-id="3222"></path><path d="M499.517784 708.095988l164.59917 59.903999v193.447721l-164.59917-59.903999z" fill="#E9E9FF" p-id="3223"></path><path d="M332.499856 768.882745v193.447721l167.017928-60.786757V708.095988z" fill="#353564" p-id="3224"></path><path d="M332.499856 962.330466l164.581515 59.903999 167.017928-60.786757-164.581515-59.903999z" fill="#AFAFDE" p-id="3225"></path><path d="M332.499856 768.882745l164.581515 59.903999 167.017928-60.786757-164.581515-59.903999z" fill="#F7F7F4" p-id="3226"></path><path d="M497.081371 828.786744V1022.234465l167.017928-60.786757V767.999987z" fill="#FFFFFF" p-id="3227"></path><path d="M332.499856 768.882745l164.581515 59.903999V1022.234465l-164.581515-59.903999z" fill="#EFEEEA" p-id="3228"></path><path d="M995.451569 332.37627l164.59917 59.921654v193.447721l-164.59917-59.921654z" fill="#E9E9FF" p-id="3229"></path><path d="M828.433641 393.180683v193.447721l167.017928-60.804413V332.37627z" fill="#353564" p-id="3230"></path><path d="M828.433641 586.628404l164.581514 59.903999 167.017928-60.786758-164.581514-59.921654z" fill="#AFAFDE" p-id="3231"></path><path d="M828.433641 393.180683l164.581514 59.903999 167.017928-60.786758-164.581514-59.921654z" fill="#F7F7F4" p-id="3232"></path><path d="M993.015155 453.084682V646.532403l167.017928-60.786758V392.297924z" fill="#FFD242" p-id="3233"></path><path d="M828.433641 393.180683l164.581514 59.903999V646.532403l-164.581514-59.903999z" fill="#EFEEEA" p-id="3234"></path><path d="M995.451569 137.004136l164.59917 59.921654V390.355855l-164.59917-59.903999z" fill="#E9E9FF" p-id="3235"></path><path d="M828.433641 197.808548v193.447721l167.017928-60.786757V137.004136z" fill="#353564" p-id="3236"></path><path d="M828.433641 391.256269l164.581514 59.903999 167.017928-60.786757-164.581514-59.903999z" fill="#AFAFDE" p-id="3237"></path><path d="M828.433641 197.808548l164.581514 59.903999 167.017928-60.786757-164.581514-59.903999z" fill="#FFC91D" p-id="3238"></path><path d="M993.015155 257.712547v193.447721l167.017928-60.786757V196.92579z" fill="#FFD242" p-id="3239"></path><path d="M828.433641 197.808548l164.581514 59.903999v193.447721l-164.581514-59.903999z" fill="#EFEEEA" p-id="3240"></path><path d="M830.146193 392.492131l164.581514 59.903999v193.447721l-164.581514-59.903999z" fill="#E9E9FF" p-id="3241"></path><path d="M663.128264 453.296544v193.447721l167.017929-60.804413V392.492131z" fill="#353564" p-id="3242"></path><path d="M663.128264 646.744265l164.581515 59.903999 167.017928-60.804413-164.581514-59.903999z" fill="#AFAFDE" p-id="3243"></path><path d="M663.128264 453.296544l164.581515 59.903999 167.017928-60.804413-164.581514-59.903999z" fill="#F7F7F4" p-id="3244"></path><path d="M827.709779 513.200543v193.447721l167.017928-60.804413V452.39613z" fill="#FFD242" p-id="3245"></path><path d="M663.128264 453.296544l164.581515 59.903999v193.447721l-164.59917-59.903999z" fill="#EFEEEA" p-id="3246"></path><path d="M830.146193 197.137652l164.581514 59.903999v193.447721l-164.581514-59.903999z" fill="#E9E9FF" p-id="3247"></path><path d="M663.128264 257.924409v193.447721l167.017929-60.786757V197.137652z" fill="#353564" p-id="3248"></path><path d="M663.128264 451.37213l164.581515 59.903999 167.017928-60.786757-164.581514-59.903999z" fill="#AFAFDE" p-id="3249"></path><path d="M663.128264 257.924409l164.581515 59.903999 167.017928-60.786757-164.581514-59.903999z" fill="#F7F7F4" p-id="3250"></path><path d="M827.709779 317.828408V511.293784l167.017928-60.786757V257.041651z" fill="#3775A9" p-id="3251"></path><path d="M663.128264 257.924409l164.581515 59.903999V511.293784l-164.59917-59.903999z" fill="#EFEEEA" p-id="3252"></path><path d="M830.146193 1.765517l164.581514 59.903999V255.117237l-164.581514-59.903999z" fill="#E9E9FF" p-id="3253"></path><path d="M663.128264 62.552275V255.999996l167.017929-60.786758V1.765517z" fill="#353564" p-id="3254"></path><path d="M663.128264 255.999996l164.581515 59.903999 167.017928-60.786758-164.581514-59.903999z" fill="#AFAFDE" p-id="3255"></path><path d="M663.128264 62.552275l164.581515 59.903999 167.017928-60.786758L830.146193 1.765517z" fill="#2F6491" p-id="3256"></path><path d="M827.709779 122.456274v193.447721l167.017928-60.786758V61.669516z" fill="#3775A9" p-id="3257"></path><path d="M663.128264 62.552275l164.581515 59.903999v193.447721L663.110609 255.999996z" fill="#EFEEEA" p-id="3258"></path><path d="M664.840816 452.607992l164.581515 59.903999v193.447721l-164.581515-59.903999z" fill="#E9E9FF" p-id="3259"></path><path d="M497.805233 513.412405v193.430066l167.017928-60.786758V452.607992z" fill="#353564" p-id="3260"></path><path d="M497.805233 706.842471l164.599169 59.921654 167.017929-60.804413-164.581515-59.903999z" fill="#AFAFDE" p-id="3261"></path><path d="M497.805233 513.412405l164.599169 59.903999 167.017929-60.804413-164.581515-59.903999z" fill="#F7F7F4" p-id="3262"></path><path d="M662.404402 573.316404V766.764125l167.017929-60.804413V512.529646z" fill="#FFD242" p-id="3263"></path><path d="M497.805233 513.412405l164.599169 59.903999V766.764125l-164.599169-59.921654z" fill="#EFEEEA" p-id="3264"></path><path d="M664.840816 257.235858l164.581515 59.921654V510.587577l-164.581515-59.921654z" fill="#E9E9FF" p-id="3265"></path><path d="M497.805233 318.04027V511.470336l167.017928-60.804413V257.235858z" fill="#353564" p-id="3266"></path><path d="M497.805233 511.470336l164.599169 59.921654 167.017929-60.786757-164.581515-59.921655z" fill="#AFAFDE" p-id="3267"></path><path d="M497.805233 318.04027l164.599169 59.903999 167.017929-60.786757-164.581515-59.921654z" fill="#F7F7F4" p-id="3268"></path><path d="M662.404402 377.944269v193.447721l167.017929-60.786757V317.157512z" fill="#3775A9" p-id="3269"></path><path d="M497.805233 318.04027l164.599169 59.903999v193.447721l-164.599169-59.903999z" fill="#EFEEEA" p-id="3270"></path><path d="M499.517784 512.706198l164.59917 59.921654v193.447721l-164.59917-59.903999z" fill="#E9E9FF" p-id="3271"></path><path d="M332.499856 573.510611v193.447721l167.017928-60.786758V512.706198z" fill="#353564" p-id="3272"></path><path d="M332.499856 766.958332l164.581515 59.903999 167.017928-60.786758-164.581515-59.903999z" fill="#AFAFDE" p-id="3273"></path><path d="M332.499856 573.510611l164.581515 59.903999 167.017928-60.786758-164.581515-59.903999z" fill="#F7F7F4" p-id="3274"></path><path d="M497.081371 633.41461v193.447721l167.017928-60.786758V572.627852z" fill="#3775A9" p-id="3275"></path><path d="M332.499856 573.510611l164.581515 59.903999v193.447721l-164.581515-59.903999z" fill="#2F6491" p-id="3276"></path><path d="M499.517784 317.351719l164.59917 59.903999v193.44772l-164.59917-59.903999z" fill="#E9E9FF" p-id="3277"></path><path d="M332.499856 378.156131v193.447721l167.017928-60.804413V317.351719z" fill="#353564" p-id="3278"></path><path d="M332.499856 571.603852l164.581515 59.903999 167.017928-60.804413-164.581515-59.903999z" fill="#AFAFDE" p-id="3279"></path><path d="M332.499856 378.156131l164.581515 59.903999 167.017928-60.804412-164.581515-59.903999z" fill="#2F6491" p-id="3280"></path><path d="M497.081371 438.06013v193.447721l167.017928-60.804413V377.255718z" fill="#3775A9" p-id="3281"></path><path d="M332.499856 378.156131l164.581515 59.903999v193.447721l-164.581515-59.903999z" fill="#2F6491" p-id="3282"></path><path d="M664.778845 61.857658l164.597723 59.906022v193.446052l-164.597723-59.906023z" fill="#E9E9FF" p-id="3283"></path><path d="M497.753121 122.649728v193.446052l167.025724-60.792071v-193.446051z" fill="#353564" p-id="3284"></path><path d="M497.753121 316.09578l164.597723 59.906022 167.025724-60.79207-164.597723-59.906023z" fill="#AFAFDE" p-id="3285"></path><path d="M497.753121 122.649728l164.597723 59.906022 167.025724-60.79207-164.597723-59.906022z" fill="#2F6491" p-id="3286"></path><path d="M662.350844 182.55575v193.446052l167.025724-60.79207v-193.446052z" fill="#3775A9" p-id="3287"></path><path d="M497.753121 122.649728l164.597723 59.906022v193.446052l-164.597723-59.906022z" fill="#2F6491" p-id="3288"></path><path d="M724.940037 256.269142m-32.082862 11.677206a27.694394 39.551694 35.00061809 1 0 64.165723-23.354413 27.694394 39.551694 35.00061809 1 0-64.165723 23.354413Z" fill="#FFFFFF" p-id="3289"></path></svg>