<?xml version="1.0" standalone="no"?><!DOCTYPE svg PUBLIC "-//W3C//DTD SVG 1.1//EN" "http://www.w3.org/Graphics/SVG/1.1/DTD/svg11.dtd"><svg t="1607849114713" class="icon" viewBox="0 0 1024 1024" version="1.1" xmlns="http://www.w3.org/2000/svg" p-id="2558" xmlns:xlink="http://www.w3.org/1999/xlink" width="200" height="200"><defs><style type="text/css"></style></defs><path d="M1020.672 579.413333v166.912L876.8 798.72l-3.328 2.346667 2.218667 1.578666 147.2-53.589333 1.109333-1.536v-170.538667l-2.261333-1.536-1.066667 3.925334z m-12.842667-339.712l-129.706666 47.232v166.912l142.464-51.84V235.050667z m12.757334 334.464V407.210667l-142.336 51.84v166.954666z m-147.2 53.461334V460.8l-140.8 51.2v166.954667z m-146.602667 225.536v-166.912l-141.354667 51.456v166.912z m5.802667-168.064v165.034666l141.397333-51.456V633.6l-141.397333 51.456z m89.301333 80.298666c-15.658667 5.717333-28.288-3.157333-28.288-19.754666s12.629333-34.730667 28.288-40.405334c15.573333-5.674667 28.245333 3.2 28.245333 19.797334s-12.672 34.730667-28.245333 40.362666z m-257.621333-367.957333l15.573333-5.632-140.16-51.072-141.781333 51.626667 4.352 1.578666 135.850666 49.493334z m310.698666 57.557333V288.042667L732.586667 339.84v166.954667z m-147.157333 53.504V341.546667l-140.885333 51.285333v166.912z m-145.706667-114.005333l-142.336 51.84v166.954667l142.336-51.84z m-287.402666 167.210667l141.738666 51.584v-166.954667L294.698667 394.752z m146.474666-225.792l139.989334 50.901333V221.781333l-139.946667-50.901333z m433.792-220.074667L733.44 167.338667v166.954666l141.525333-51.498666zM723.2 166.528L585.557333 116.48l-139.477333 50.773333 137.6 50.090667z m-67.626667 29.994667l-69.290666 25.258666v165.034667l141.525333-51.498667V170.282667l-72.234667 26.24z m-16.682666 118.528c-15.658667 5.717333-28.245333-3.157333-28.245334-19.797334s12.586667-34.688 28.245334-40.362666c15.616-5.674667 28.288 3.157333 28.288 19.797333s-12.672 34.688-28.288 40.362667zM436.437333 785.493333v-166.997333l-141.738666-51.584V733.866667z m147.157334-52.394666v-166.954667l-143.829334 52.352v166.954667z m3.328-1.194667l140.8-51.2V513.706667l-140.8 51.2z m-3.328 173.354667l-143.829334 52.352v-166.912h-3.328v166.912l-141.738666-51.584v-166.954667l-2.261334-2.474667-1.066666-2.56-142.336-51.626666v-168.448l1.450666 0.554666 140.245334 51.029334 0.64-3.328-139.136-50.645334 139.093333-50.645333v-4.650667L165.376 410.453333l-13.098667-4.778666 139.093334-50.688v37.418666l3.370666-2.346666V288.810667l138.965334 50.56 2.474666-2.602667L302.250667 288l-4.352-1.578667 138.24-50.304v-3.541333L292.437333 284.885333v0.768l-1.066666 0.768v64.981334L146.773333 404.053333v0.853334l-1.066666 0.725333v170.965333l-144.64 52.608v0.810667L0 630.784v170.453333l1.066667 1.578667 145.066666 52.778667 0.341334-0.256 0.298666 0.426666 145.066667 52.821334 0.341333-0.256 0.256 0.426666 145.066667 52.778667 0.597333-0.384 0.512 0.426667 147.2-53.589334 1.109334-1.578666-3.328-1.152zM149.034667 408.021333l138.965333 50.56-138.965333 50.645334V407.978667zM145.066667 851.626667L3.328 800.085333v-166.954666l100.736 36.693333 40.96 14.890667v166.954666z m0.64-170.24l-131.413334-47.786667-7.765333-2.816 139.178667-50.645333v101.290666z m145.024 223.189333l-141.696-51.584V686.08l141.696 51.584v166.912zM1015.082667 231.850667l-136.96-49.92v99.754666z m-145.237334-119.082667l-138.24-50.346667-139.52 50.773334 138.538667 50.432z" p-id="2559" fill="#1296db"></path></svg>