<?xml version="1.0" standalone="no"?><!DOCTYPE svg PUBLIC "-//W3C//DTD SVG 1.1//EN" "http://www.w3.org/Graphics/SVG/1.1/DTD/svg11.dtd"><svg t="1605025331649" class="icon" viewBox="0 0 1024 1024" version="1.1" xmlns="http://www.w3.org/2000/svg" p-id="8349" xmlns:xlink="http://www.w3.org/1999/xlink" width="200" height="200"><defs><style type="text/css"></style></defs><path d="M325.294817 34.220313C371.953561 10.671542 425.340525 4.016455 476.899168 1.603072c37.590273-3.656641 75.180547 0 112.112625 2.998446 47.316939 6.070025 96.462199 16.966816 135.295731 45.927415 24.133833 18.795137 43.587165 46.585611 43.587165 78.032727-0.585063 80.44611 0 160.89222-0.585063 241.265198 0 35.103757-13.383307 70.719444-40.003657 94.341348-26.108419 22.378645-60.042051 33.275437-93.975683 35.103757H375.025139c-33.933632 0.585063-69.110522 10.238596-94.560746 34.372429-30.935186 29.033733-44.318493 72.620898-43.075235 114.306609 0 39.930524 0.585063 79.861048 0 119.718439-30.935186 0-61.870372 0.658195-92.732425 0-41.246915-1.755188-77.008867-27.790474-99.460646-61.065911-32.763507-50.754182-41.831977-111.893226-44.24536-171.130817 0-9.653533-3.071579-20.477192 1.82832-30.203857-3.656641-6.581954-1.243258-15.138495-1.243258-22.378646 3.071579-56.239144 13.895237-115.549867 49.730323-160.89222a145.534327 145.534327 0 0 1 121.839291-55.580949c114.599141 0.585063 229.198281 0 343.212359 0v-32.032178H267.081086c0-41.685712-0.585063-83.444556-0.585063-125.203401 2.998446-34.372429 30.276991-59.822653 58.798794-74.961148z m35.103757 51.412377c-30.862053 10.896791-36.932078 57.40927-9.653533 75.619344 26.108419 19.892129 68.525459 0 69.110522-32.690374 3.656641-30.203858-31.447116-55.580949-59.383856-42.92897z" fill="#3774A7" p-id="8350"></path><path d="M788.591279 256.397843h77.155133c37.736539-3.071579 75.399945 14.553433 100.338239 42.41704 38.906664 44.245361 50.461651 103.702349 57.774934 160.087759v101.215833c-6.655087 55.800347-20.69659 115.184203-61.431575 156.431118-27.351677 26.693482-65.673279 43.002103-103.921748 41.246915-116.719993-0.658195-233.513118 0-350.818174 0v32.105311h249.894872c0 40.588719 0 80.665509 0.585063 121.254228 1.243258 32.178444-22.524911 58.213731-48.633331 73.937289-49.218393 29.106865-108.236585 34.006765-163.525002 38.833531h-65.673279c-57.189871-4.826767-117.378188-10.969924-167.839839-41.831977-31.008319-18.210074-55.288418-50.900448-56.531676-87.320596 0.585063-80.592376-0.585063-161.257885 0.585063-241.923394 0.658195-33.348569 12.213182-67.282201 37.078343-90.319042 27.42481-25.450224 65.088216-37.005211 102.16656-38.760398h255.379834c35.250023 0 71.670171-11.554987 96.023403-37.005211 27.351677-27.278545 39.491727-66.112076 40.734984-104.287412 0.658195-41.246915 0-83.663955 0.658196-126.080994z m-152.043148 601.37124a46.658744 46.658744 0 0 0-26.766615 21.20852c-12.140049 22.451778-0.585063 53.972027 24.353231 61.28531 26.181552 10.969924 58.945059-12.140049 57.116739-40.58872 3.071579-27.351677-28.521803-50.973581-54.703355-41.90511z" fill="#FFD140" p-id="8351"></path></svg>