<?xml version="1.0" standalone="no"?><!DOCTYPE svg PUBLIC "-//W3C//DTD SVG 1.1//EN" "http://www.w3.org/Graphics/SVG/1.1/DTD/svg11.dtd"><svg t="1605451516855" class="icon" viewBox="0 0 1038 1024" version="1.1" xmlns="http://www.w3.org/2000/svg" p-id="25026" xmlns:xlink="http://www.w3.org/1999/xlink" width="202.734375" height="200"><defs><style type="text/css"></style></defs><path d="M1007.520175 0.000507h-976.082706A31.183941 31.183941 0 0 0 3.422628 45.255251l488.168116 961.758375a31.183941 31.183941 0 0 0 55.522627 0L1035.281488 45.255251A31.183941 31.183941 0 0 0 1007.520175 0.000507zM519.73235 915.743554L83.157176 59.959873h872.389764z" p-id="25027" fill="#1296db"></path><path d="M131.932304 224.104831m27.326547 10.522525l606.507389 233.545388q27.326547 10.522525 16.804022 37.849072l0 0q-10.522525 27.326547-37.849072 16.804022l-606.507389-233.545388q-27.326547-10.522525-16.804022-37.849072l0 0q10.522525-27.326547 37.849072-16.804022Z" p-id="25028" fill="#1296db"></path><path d="M300.85743 529.649045m27.326548 10.522525l318.928012 122.808342q27.326547 10.522525 16.804023 37.849071l0 0q-10.522525 27.326547-37.849072 16.804023l-318.928013-122.808342q-27.326547-10.522525-16.804022-37.849071l0 0q10.522525-27.326547 37.849072-16.804023Z" p-id="25029" fill="#1296db"></path></svg>