<?xml version="1.0" standalone="no"?><!DOCTYPE svg PUBLIC "-//W3C//DTD SVG 1.1//EN" "http://www.w3.org/Graphics/SVG/1.1/DTD/svg11.dtd"><svg t="1605452679508" class="icon" viewBox="0 0 1024 1024" version="1.1" xmlns="http://www.w3.org/2000/svg" p-id="31248" xmlns:xlink="http://www.w3.org/1999/xlink" width="200" height="200"><defs><style type="text/css"></style></defs><path d="M85.247483 895.112795c196.565429-26.346956 326.060854-109.534772 393.739078-250.088731 17.057788-35.387306 29.581577-74.175112 40.584817-122.335024 5.197511-22.669993 8.017437-36.907855 17.057787-84.127792 48.989302-258.990849 125.735523-359.485271 395.508443-394.513175a42.630646 42.630646 0 1 1 11.08618 84.570134c-226.727579 29.388052-279.94677 99.22269-322.909172 325.78439-9.178583 48.32579-12.081448 63.088932-17.638361 87.362413-12.357911 53.91035-26.761651 98.3933-46.888181 140.249848-58.554934 121.643866-155.731795 207.292206-289.457108 256.751497h713.994201a42.630646 42.630646 0 0 1 0 85.233645H85.247483A85.233645 85.233645 0 0 1 0.013838 938.766355V43.716317a42.630646 42.630646 0 1 1 85.233645 0v851.396478z m798.204932-398.079552a108.484211 108.484211 0 1 1 0-216.968423 108.484211 108.484211 0 0 1 0 216.968423zM426.237357 249.07328a123.993804 123.993804 0 1 1 0-247.959962 123.993804 123.993804 0 0 1 0 247.987609zM759.458611 838.050763a108.484211 108.484211 0 1 1 0-216.968423 108.484211 108.484211 0 0 1 0 216.968423zM255.74242 675.269153a123.993804 123.993804 0 1 1 0-247.987609 123.993804 123.993804 0 0 1 0 247.987609z" fill="#1296db" p-id="31249"></path></svg>