<?xml version="1.0" standalone="no"?><!DOCTYPE svg PUBLIC "-//W3C//DTD SVG 1.1//EN" "http://www.w3.org/Graphics/SVG/1.1/DTD/svg11.dtd"><svg t="1605447352452" class="icon" viewBox="0 0 1024 1024" version="1.1" xmlns="http://www.w3.org/2000/svg" p-id="3755" xmlns:xlink="http://www.w3.org/1999/xlink" width="200" height="200"><defs><style type="text/css"></style></defs><path d="M633.417143 83.382857c118.491429 11.849143 213.796571 83.382857 234.057143 205.385143h-68.534857l110.738285 164.864 110.738286-164.864H944.274286C924.013714 124.342857 798.939429 17.261714 641.170286 1.755429c-21.942857-1.755429-42.276571 17.261714-42.276572 41.106285 1.828571 20.260571 16.091429 38.765714 34.523429 40.521143zM461.970286 0H76.8C54.784 0 38.034286 18.432 38.034286 42.276571V409.6c0 23.844571 17.334857 42.276571 38.765714 42.276571h385.170286c22.016 0 38.765714-18.432 38.765714-42.276571V42.861714C500.662857 19.017143 483.913143 0 461.897143 0zM386.998857 935.277714c-132.754286-11.922286-234.057143-100.571429-238.738286-246.491428h73.142858L110.811429 523.922286 0 688.786286h73.216c2.925714 188.708571 135.753143 311.369143 306.029714 328.045714 22.016 1.828571 42.276571-17.261714 42.276572-41.033143a40.448 40.448 0 0 0-34.523429-40.521143z m558.445714-369.078857c20.187429 0 38.692571 19.017143 38.692572 42.276572v369.078857c0 23.844571-17.261714 42.276571-38.765714 42.276571H560.274286c-21.942857 0-38.692571-18.432-38.692572-42.276571V608.548571c0-23.844571 17.261714-42.276571 38.765715-42.276571h385.170285z m-57.197714 68.461714H616.813714c-15.506286 0-27.428571 13.092571-27.428571 29.769143v260.169143c0 16.676571 11.922286 29.769143 27.428571 29.769143h271.433143c15.506286 0 27.428571-13.165714 27.428572-29.769143V664.429714a28.306286 28.306286 0 0 0-27.428572-29.769143zM405.430857 67.291429c14.262857 0 27.355429 13.092571 27.355429 29.769142v260.169143c0 16.676571-11.849143 29.769143-27.355429 29.769143h-272.091428c-15.433143 0-27.355429-13.165714-27.355429-29.769143v-259.657143c0-16.603429 11.922286-29.696 27.355429-29.696 0-0.585143 272.091429-0.585143 272.091428-0.585142z" fill="#1296db" p-id="3756"></path></svg>