<?xml version="1.0" standalone="no"?><!DOCTYPE svg PUBLIC "-//W3C//DTD SVG 1.1//EN" "http://www.w3.org/Graphics/SVG/1.1/DTD/svg11.dtd"><svg t="1534229152781" class="icon" style="" viewBox="0 0 1024 1024" version="1.1" xmlns="http://www.w3.org/2000/svg" p-id="8079" xmlns:xlink="http://www.w3.org/1999/xlink" width="64" height="64"><defs><style type="text/css"></style></defs><path d="M800.5 512c0 159.3-129.1 288.5-288.5 288.5-99.6 0-187.4-50.4-239.2-127.2-31.1-46-49.3-101.5-49.3-161.3 0-159.3 129.1-288.5 288.5-288.5S800.5 352.7 800.5 512z" fill="#00F0D4" p-id="8080"></path><path d="M475.8 633.1c-6.2 0-12.5-1.9-17.8-5.8l-94.9-69.9c-13.3-9.8-16.2-28.6-6.4-41.9s28.6-16.2 41.9-6.4l73.9 54.4 151.1-155c11.6-11.9 30.6-12.1 42.4-0.5 11.9 11.6 12.1 30.6 0.5 42.4L497.3 624c-5.9 6-13.7 9.1-21.5 9.1z" fill="#FFFFFF" p-id="8081"></path></svg>