<?xml version="1.0" standalone="no"?><!DOCTYPE svg PUBLIC "-//W3C//DTD SVG 1.1//EN" "http://www.w3.org/Graphics/SVG/1.1/DTD/svg11.dtd"><svg t="1591253357372" class="icon" viewBox="0 0 1024 1024" version="1.1" xmlns="http://www.w3.org/2000/svg" p-id="2985" xmlns:xlink="http://www.w3.org/1999/xlink" width="200" height="200"><defs><style type="text/css"></style></defs><path d="M704 434.496l131.7952-131.7888a38.4 38.4 0 0 1 65.5488 27.1552v388.48a38.4 38.4 0 0 1-65.5488 27.1488L704 613.7024V729.6a38.4 38.4 0 0 1-38.4 38.4H166.4a38.4 38.4 0 0 1-38.4-38.4V345.6a38.4 38.4 0 0 1 38.4-38.4h499.2a38.4 38.4 0 0 1 38.4 38.4v88.896zM281.6 524.8c42.4128 0 76.8-34.3872 76.8-76.8s-34.3872-76.8-76.8-76.8-76.8 34.3872-76.8 76.8 34.3872 76.8 76.8 76.8z" fill="#1296db" p-id="2986"></path></svg>