<svg id="图层_1" data-name="图层 1" xmlns="http://www.w3.org/2000/svg" viewBox="0 0 32 32"><title>画板 5 副本 2</title><rect x="6" y="12" width="26" height="2" rx="1" ry="1" transform="translate(14.76 -9.63) rotate(45)" style="fill:#4d84ba"/><rect x="8" y="10" width="26" height="2" rx="1" ry="1" transform="translate(13.93 -11.63) rotate(45)" style="fill:#4d84ba"/><rect x="4" y="14" width="26" height="2" rx="1" ry="1" transform="translate(15.59 -7.63) rotate(45)" style="fill:#4d84ba"/><rect x="2" y="16" width="26" height="2" rx="1" ry="1" transform="translate(16.41 -5.63) rotate(45)" style="fill:#4d84ba"/><rect y="18" width="26" height="2" rx="1" ry="1" transform="translate(17.24 -3.63) rotate(45)" style="fill:#4d84ba"/><rect x="-2" y="20" width="26" height="2" rx="1" ry="1" transform="translate(18.07 -1.63) rotate(45)" style="fill:#4d84ba"/><rect x="13" y="12" width="12" height="2" transform="translate(14.76 -9.63) rotate(45)" style="fill:#5da58e"/><rect x="11" y="14" width="12" height="2" transform="translate(15.59 -7.63) rotate(45)" style="fill:#5da58e"/><rect x="9" y="16" width="12" height="2" transform="translate(16.41 -5.63) rotate(45)" style="fill:#5da58e"/><rect x="7" y="18" width="12" height="2" transform="translate(17.24 -3.63) rotate(45)" style="fill:#5da58e"/><rect x="5" y="20" width="12" height="2" transform="translate(18.07 -1.63) rotate(45)" style="fill:#5da58e"/><rect x="15" y="10" width="12" height="2" transform="translate(13.93 -11.63) rotate(45)" style="fill:#5da58e"/></svg>