<?xml version="1.0" standalone="no"?><!DOCTYPE svg PUBLIC "-//W3C//DTD SVG 1.1//EN" "http://www.w3.org/Graphics/SVG/1.1/DTD/svg11.dtd"><svg t="1605447789872" class="icon" viewBox="0 0 1024 1024" version="1.1" xmlns="http://www.w3.org/2000/svg" p-id="10494" xmlns:xlink="http://www.w3.org/1999/xlink" width="200" height="200"><defs><style type="text/css"></style></defs><path d="M932.66 498.483c-1.025-9.216-7.783-16.589-17-18.022h-0.409c-1.229-0.205-2.457-0.41-3.481-0.615l-50.176-7.782v-68.403c0-10.035-7.373-18.227-17.204-19.866l-58.777-9.011v-73.318c0-10.036-7.168-18.432-17.203-20.07l-71.066-10.855v-66.97c0-8.806-5.94-16.793-14.336-19.251v-0.205l-73.318-11.469v-70.041c0-0.615-0.205-1.024-0.41-1.434-0.41-3.072-1.638-5.734-3.277-8.192-2.662-3.686-6.349-6.553-10.854-7.782v-0.205l-192.103-30.31c-1.024-0.205-2.048-0.205-3.072-0.205-4.3 0-8.396 1.433-11.878 3.891L99.533 269.517a19.763 19.763 0 0 0-7.987 12.902c-0.615 3.072-0.41 6.144 0.614 9.421v546.202c0 9.625 6.963 18.022 16.384 19.865l188.62 37.069h0.206l377.856 74.138c1.228 0.204 2.457 0.41 3.481 0.41h0.41c1.433 0 2.867-0.206 4.3-0.41 0.205 0 0.615-0.205 0.82-0.205h0.41c0.819-0.205 1.843-0.615 2.867-1.024 0.41-0.205 0.614-0.41 1.024-0.615l0.41-0.204c0.818-0.41 1.433-0.82 2.252-1.434 0.41-0.205 0.82-0.614 1.229-1.024l0.205-0.205 1.843-1.843 0.41-0.41 233.267-280.37c2.867-3.482 4.71-7.988 4.71-12.698v-168.55l-0.205-2.049zM745.061 716.8v121.651l-45.67 54.887V768.41l45.67-51.61z m0-183.706V655.77l-45.67 51.404V580.198l45.67-47.104z m0-184.32v126.157l-45.67 47.104V392.192l45.67-43.418z m-86.016 428.647v147.251l-148.48-29.082V749.568l148.48 27.853z m0-188.416v147.251l-148.48-27.853V562.381l148.48 26.624z m0-188.416V547.84l-148.48-26.829V374.99l148.48 25.6zM470.016 741.99v145.613l-148.48-29.286V713.933l148.48 28.057z m0-186.982v145.613l-148.48-27.853V528.179l148.48 26.829z m0-186.982v145.817l-148.48-26.624V342.63l148.48 25.396z m-189.03 338.33v144.178l-148.48-29.286v-142.95l148.48 28.057z m0-185.345v144.18l-148.48-27.853v-142.95l148.48 26.623z m0-185.344v144.18l-148.48-26.83v-142.95l148.48 25.6z m-119.194-61.645l50.38-36.864 136.602 20.89-52.428 38.912-134.554-22.938z m383.386-111.41l23.961-17.818v21.504l-23.961-3.687z m-6.144-45.876l-49.972 37.069-134.348-20.89 50.38-36.864 133.94 20.685z m102.81 145.408l14.95-11.264v13.517l-14.95-2.253z m-198.247-74.547l-49.152 36.454-135.987-20.89 50.176-36.659 134.963 21.095z m-92.16 118.989l53.657-39.732 135.783 20.89-55.706 41.984-133.734-23.142z m99.328-73.728l48.947-36.455 134.349 20.89-47.923 36.25-135.373-20.685z m89.088 106.086l56.73-42.803 123.903 19.046-48.742 46.49-131.891-22.733z m281.19 292.25v116.121l-35.43 42.599v-118.58l35.43-40.14z m-35.43-198.247v-17.203l14.54 2.253-14.54 14.95z m35.43 21.504v115.507l-35.43 40.141V491.11l35.43-36.659z m40.55 69.837v-11.469l8.807 1.434-8.806 10.035z m30.72 26.214v111.002l-30.924 37.069v-113.05l30.925-35.02z" p-id="10495" fill="#1296db"></path></svg>