<?xml version="1.0" standalone="no"?><!DOCTYPE svg PUBLIC "-//W3C//DTD SVG 1.1//EN" "http://www.w3.org/Graphics/SVG/1.1/DTD/svg11.dtd"><svg t="1602600651593" class="icon" viewBox="0 0 1024 1024" version="1.1" xmlns="http://www.w3.org/2000/svg" p-id="2308" xmlns:xlink="http://www.w3.org/1999/xlink" width="200" height="200"><defs><style type="text/css"></style></defs><path d="M865 64H223c-87.7 0-159 71.3-159 159v642c0 87.7 71.3 159 159 159h642c87.7 0 159-71.3 159-159V223c0-87.7-71.3-159-159-159z m-642 64h642c52.4 0 95 42.6 95 95v94.9H128V223c0-52.4 42.6-95 95-95z m-95 737V381.8h256v578.1H223c-52.4 0.1-95-42.5-95-94.9z m737 95H448V381.8h512v483.1c0 52.5-42.6 95.1-95 95.1z" p-id="2309" fill="#1296db"></path></svg>