<?xml version="1.0" standalone="no"?><!DOCTYPE svg PUBLIC "-//W3C//DTD SVG 1.1//EN" "http://www.w3.org/Graphics/SVG/1.1/DTD/svg11.dtd"><svg t="1533555810746" class="icon" style="" viewBox="0 0 1024 1024" version="1.1" xmlns="http://www.w3.org/2000/svg" p-id="5550" xmlns:xlink="http://www.w3.org/1999/xlink" width="32" height="32"><defs><style type="text/css"></style></defs><path d="M154.29632 576.1024l0-12.0832 0-38.54336 50.95424 0 0-0.33792 38.53312 0 12.09344 0 38.87104 0 0 38.87104 0 12.0832 0 50.62656 63.03744 0L357.7856 576.1024l0-12.0832 0-38.87104 0-12.0832L357.7856 474.5216l0-12.42112 0-38.53312 0-12.09344 0-50.96448-50.95424 0 0-51.28192-50.96448 0 0-50.29888-62.72 0 0 50.96448-50.95424 0 0 50.95424L91.57632 360.84736l0 50.62656 0 12.09344 0 38.8608 0 12.09344 0 38.53312 0 12.42112 0 38.54336 0 12.0832 0 50.62656 62.72 0L154.29632 576.1024zM154.29632 423.56736l0-12.09344 0-38.54336 50.62656 0 0-50.96448 38.8608 0 0 50.29888 50.97472 0 0 39.20896 0 12.09344 0 38.53312-50.97472 0 0 0.32768-38.53312 0-12.09344 0-38.8608 0L154.29632 423.56736zM441.61024 626.72896l38.8608 0 12.09344 0 38.52288 0 12.10368 0 50.97472 0L594.16576 576.1024l50.944 0 0-50.96448 0-12.0832 0-50.96448-50.944 0 0-38.53312 50.944 0 0-50.6368 0-12.42112 0-50.61632-50.944 0 0-50.96448-50.97472 0-12.10368 0-38.52288 0-12.09344 0-38.8608 0-12.10368 0-50.61632 0 0 50.96448 0 12.41088 0 38.54336 0 12.0832 0 38.54336 0 12.42112 0 38.53312 0 12.09344 0 38.8608 0 12.09344 0 38.54336 0 12.0832 0 50.62656 50.61632 0L441.61024 626.71872zM441.61024 372.93056l0-12.0832 0-38.54336 0-0.33792 38.8608 0 12.09344 0 38.52288 0 12.10368 0 38.8608 0 0 38.54336 0 12.42112 0 38.54336-38.8608 0-12.10368 0-38.52288 0-12.09344 0-38.8608 0L441.61024 372.93056zM441.61024 525.47584l0-12.09344L441.61024 474.5216l38.8608 0 12.09344 0 38.52288 0 12.10368 0 38.8608 0 0 38.53312 0 12.0832 0 38.87104-38.8608 0-12.10368 0-38.52288 0-12.09344 0-38.8608 0L441.61024 525.47584zM716.83072 576.1024 666.2144 576.1024l0-50.96448 0-12.0832L666.2144 474.5216l0-12.09344 0-38.8608 0-12.09344 0-38.54336 0-12.0832 0-50.95424 50.62656 0 0-50.96448 50.95424 0 12.10368 0 38.52288 0 12.0832 0 50.97472 0 0 50.96448 50.95424 0 0 63.03744-63.04768 0 0-50.96448-38.88128 0-12.0832 0-38.52288 0-12.10368 0-38.87104 0 0 38.88128 0 12.0832 0 38.54336 0 12.09344 0 38.8608 0 12.09344 0 38.53312 0.33792 0 0 50.96448 38.53312 0 12.10368 0 38.52288 0 12.43136 0 38.53312 0 0-50.96448 63.04768 0 0 63.04768-50.95424 0 0 50.62656-50.62656 0-12.43136 0-38.52288 0-12.10368 0-50.95424 0L716.84096 576.1024zM143.90272 651.81696l0 56.6272L87.26528 708.44416l0-56.6272L143.90272 651.81696zM143.90272 708.44416l56.6272 0 0 56.63744-56.6272 0L143.90272 708.44416zM257.15712 651.81696l0 56.6272-56.6272 0 0-56.6272L257.15712 651.81696zM257.15712 708.44416l56.63744 0 0 56.63744-56.63744 0L257.15712 708.44416zM370.42176 651.81696l0 56.6272-56.63744 0 0-56.6272L370.42176 651.81696zM370.42176 708.44416l56.6272 0 0 56.63744-56.6272 0L370.42176 708.44416zM483.67616 651.81696l0 56.6272-56.6272 0 0-56.6272L483.67616 651.81696zM483.67616 708.44416l56.63744 0 0 56.63744-56.63744 0L483.67616 708.44416zM596.95104 651.81696l0 56.6272-56.63744 0 0-56.6272L596.95104 651.81696zM596.95104 708.44416l56.6272 0 0 56.63744-56.6272 0L596.95104 708.44416zM710.20544 651.81696l0 56.6272-56.6272 0 0-56.6272L710.20544 651.81696zM710.20544 708.44416l56.63744 0 0 56.63744-56.63744 0L710.20544 708.44416zM823.47008 651.81696l0 56.6272-56.6272 0 0-56.6272L823.47008 651.81696zM936.73472 651.81696l0 56.6272-56.6272 0 0-56.6272L936.73472 651.81696zM823.47008 708.44416l56.6272 0 0 56.63744-56.6272 0L823.47008 708.44416z" p-id="5551" fill="#515151"></path></svg>