<?xml version="1.0" standalone="no"?><!DOCTYPE svg PUBLIC "-//W3C//DTD SVG 1.1//EN" "http://www.w3.org/Graphics/SVG/1.1/DTD/svg11.dtd"><svg t="1528185752810" class="icon" style="" viewBox="0 0 1024 1024" version="1.1" xmlns="http://www.w3.org/2000/svg" p-id="691" xmlns:xlink="http://www.w3.org/1999/xlink" width="16" height="16"><defs><style type="text/css"></style></defs><path d="M413.554688 343.757824c-15.5392 0.128-28.1088 12.45696-28.24192 27.70944v391.038976c1.36704 14.37184 13.66016 25.35936 28.36992 25.35936 14.70464 0 26.99776-10.98752 28.35968-25.35936V371.468288c-0.13312-15.34976-12.84608-27.715584-28.48768-27.710464z m190.819328 0c-7.66464-0.19456-15.08864 2.62144-20.61824 7.82848-5.53472 5.20192-8.72448 12.35968-8.85248 19.88096v391.038976c0.128 7.52128 3.31776 14.67904 8.85248 19.88608 5.5296 5.20192 12.9536 8.01792 20.61824 7.82848 7.53152 0.06144 14.78144-2.82624 20.13184-8.03328 5.34528-5.20192 8.35584-12.288 8.35584-19.68128V371.468288c-0.13312-15.34976-12.84608-27.715584-28.48768-27.710464z m0 0" fill="#006569" p-id="692"></path><path d="M888.025088 213.40672H679.27552v-74.450944c0.0256-9.91744-3.94752-19.44064-11.05408-26.50624-7.10144-6.94784-16.72704-10.84928-26.76224-10.83904H375.732224c-10.0352-0.01024-19.6608 3.8912-26.76224 10.83904-7.168 7.04-11.22816 16.55808-11.29984 26.50624v74.450944H128.925696c-16 0-28.97408 12.73344-28.97408 28.43136s12.97408 28.43136 28.97408 28.43136h57.959424l36.83328 614.396928c0.61952 9.67168 5.02272 18.73408 12.28288 25.30304 6.85568 6.72256 16.09216 10.60352 25.78944 10.83904h493.369344c10.11712 0.06656 19.84-3.84512 26.98752-10.86464 7.15264-7.01952 11.14624-16.55808 11.07968-26.48064l36.8384-613.193728h57.959424c10.75712 0.98304 21.16096-4.096 26.8544-13.11232a27.476992 27.476992 0 0 0 0-29.43488c-5.69344-9.01632-16.09728-14.09536-26.8544-13.11232v-1.2032z m-493.37856-55.901184H622.30528v55.901184H394.646528v-55.901184z m343.817216 707.402752h-458.50624l-35.85024-594.638848h528.984064l-34.627584 594.638848z m0 0" fill="#006569" p-id="693"></path></svg>