<?xml version="1.0" standalone="no"?><!DOCTYPE svg PUBLIC "-//W3C//DTD SVG 1.1//EN" "http://www.w3.org/Graphics/SVG/1.1/DTD/svg11.dtd"><svg t="1605449341109" class="icon" viewBox="0 0 1024 1024" version="1.1" xmlns="http://www.w3.org/2000/svg" p-id="17054" xmlns:xlink="http://www.w3.org/1999/xlink" width="200" height="200"><defs><style type="text/css"></style></defs><path d="M554.666667 85.333333v42.666667h298.666666v85.333333h-298.666666v597.333334h170.666666v85.333333H298.666667v-85.333333h170.666666V213.333333H170.666667V128h298.666666V85.333333h85.333334zM213.333333 270.634667l120.661334 120.704A170.624 170.624 0 0 1 213.333333 682.666667a170.624 170.624 0 0 1-120.661333-291.328L213.333333 270.634667z m597.333334 0l120.661333 120.704A170.624 170.624 0 0 1 810.666667 682.666667a170.624 170.624 0 0 1-120.661334-291.328L810.666667 270.634667z m0 120.704l-60.330667 60.330666A84.736 84.736 0 0 0 725.333333 512l170.666667 0.042667c0-23.04-9.045333-44.416-25.002667-60.373334L810.666667 391.338667z m-597.333334 0l-60.330666 60.330666A84.736 84.736 0 0 0 128 512l170.666667 0.042667c0-23.04-9.045333-44.416-25.002667-60.373334L213.333333 391.338667z" p-id="17055" fill="#1296db"></path></svg>