<?xml version="1.0" standalone="no"?><!DOCTYPE svg PUBLIC "-//W3C//DTD SVG 1.1//EN" "http://www.w3.org/Graphics/SVG/1.1/DTD/svg11.dtd"><svg t="1605450597486" class="icon" viewBox="0 0 1024 1024" version="1.1" xmlns="http://www.w3.org/2000/svg" p-id="20125" xmlns:xlink="http://www.w3.org/1999/xlink" width="200" height="200"><defs><style type="text/css"></style></defs><path d="M851.163429 1024H172.860952C77.604571 1024 0 946.541714 0 851.163429V511.926857a30.841905 30.841905 0 0 1 61.68381 0v339.139048a111.250286 111.250286 0 0 0 111.152761 111.128381H851.139048a111.250286 111.250286 0 0 0 111.177142-111.152762V172.860952a111.250286 111.250286 0 0 0-111.177142-111.177142H172.860952a111.250286 111.250286 0 0 0-111.177142 111.177142v151.844572a30.841905 30.841905 0 0 1-61.659429 0V172.836571C0 77.604571 77.458286 0 172.836571 0H851.139048C946.395429 0 1024 77.458286 1024 172.836571V851.139048C1024 946.395429 946.395429 1024 851.163429 1024z m-426.910477-686.250667H209.310476a30.841905 30.841905 0 0 1 0-61.683809H424.228571a30.841905 30.841905 0 0 1 0 61.683809z m395.337143 0h-214.893714a30.841905 30.841905 0 0 1 0-61.683809h214.893714a30.841905 30.841905 0 0 1 0 61.683809z m0 319.390477h-214.893714a30.841905 30.841905 0 0 1 0-61.68381h214.893714a30.841905 30.841905 0 0 1 0 61.68381z m0 136.679619h-214.893714a30.841905 30.841905 0 0 1 0-61.68381h214.893714a30.841905 30.841905 0 0 1 0 61.68381zM316.781714 445.19619a30.841905 30.841905 0 0 1-30.841904-30.841904V199.460571a30.841905 30.841905 0 0 1 61.683809 0v214.893715c0 17.042286-13.824 30.841905-30.841905 30.841904zM392.777143 794.331429a30.72 30.72 0 0 1-21.845333-9.020953l-151.966477-151.966476a30.817524 30.817524 0 0 1 0-43.666286 30.817524 30.817524 0 0 1 43.666286 0l151.966476 151.990857a30.817524 30.817524 0 0 1-21.820952 52.662858z m-151.990857 0a30.817524 30.817524 0 0 1-21.845334-52.662858l151.990858-151.990857a30.817524 30.817524 0 0 1 43.666285 0 30.817524 30.817524 0 0 1 0 43.666286l-151.966476 151.990857a30.72 30.72 0 0 1-21.845333 8.996572z" p-id="20126" fill="#1296db"></path></svg>