<?xml version="1.0" standalone="no"?><!DOCTYPE svg PUBLIC "-//W3C//DTD SVG 1.1//EN" "http://www.w3.org/Graphics/SVG/1.1/DTD/svg11.dtd"><svg t="1588844671418" class="icon" viewBox="0 0 1024 1024" version="1.1" xmlns="http://www.w3.org/2000/svg" p-id="1411" xmlns:xlink="http://www.w3.org/1999/xlink" width="200" height="200"><defs><style type="text/css"></style></defs><path d="M512.7 222.1L511 111.4 70.7 551.8h161.9v363.4h170.1v-317h110z" fill="#1296db" p-id="1412"></path><path d="M777.6 930.7h-15.5c-8.5 0-15.5-6.9-15.5-15.5s6.9-15.5 15.5-15.5h15.5c8.5 0 15.5 6.9 15.5 15.5s-7 15.5-15.5 15.5z m-77.4 0h-15.5c-8.5 0-15.5-6.9-15.5-15.5s6.9-15.5 15.5-15.5h15.5c8.5 0 15.5 6.9 15.5 15.5s-6.9 15.5-15.5 15.5z m-77.3 0h-3.6c-8.5 0-15.5-6.9-15.5-15.5v-11.8c0-8.5 6.9-15.5 15.5-15.5s15.5 6.9 15.5 15.5v1.9c2.3 2.7 3.6 6.2 3.6 10 0 8.5-6.9 15.4-15.5 15.4z m166.5-50c-8.5 0-15.5-6.9-15.5-15.5v-15.5c0-8.5 6.9-15.5 15.5-15.5s15.5 6.9 15.5 15.5v15.5c0 8.5-7 15.5-15.5 15.5zM619.3 857c-8.5 0-15.5-6.9-15.5-15.5V826c0-8.5 6.9-15.5 15.5-15.5s15.5 6.9 15.5 15.5v15.5c-0.1 8.6-7 15.5-15.5 15.5z m170.1-53.7c-8.5 0-15.5-6.9-15.5-15.5v-15.5c0-8.5 6.9-15.5 15.5-15.5s15.5 6.9 15.5 15.5v15.5c0 8.6-7 15.5-15.5 15.5z m-170.1-23.6c-8.5 0-15.5-6.9-15.5-15.5v-15.5c0-8.5 6.9-15.5 15.5-15.5s15.5 6.9 15.5 15.5v15.5c-0.1 8.5-7 15.5-15.5 15.5zM789.4 726c-8.5 0-15.5-6.9-15.5-15.5V695c0-8.5 6.9-15.5 15.5-15.5s15.5 6.9 15.5 15.5v15.5c0 8.6-7 15.5-15.5 15.5z m-170.1-23.7c-8.5 0-15.5-6.9-15.5-15.5v-15.5c0-8.5 6.9-15.5 15.5-15.5s15.5 6.9 15.5 15.5v15.5c-0.1 8.6-7 15.5-15.5 15.5z m170.1-53.6c-8.5 0-15.5-6.9-15.5-15.5v-15.5c0-8.5 6.9-15.5 15.5-15.5s15.5 6.9 15.5 15.5v15.5c0 8.5-7 15.5-15.5 15.5zM619.3 625c-8.5 0-15.5-6.9-15.5-15.5v-0.9c-2.5-2.8-4.1-6.4-4.1-10.5 0-8.5 6.9-15.5 15.5-15.5h4.1c8.5 0 15.5 6.9 15.5 15.5v11.4c-0.1 8.6-7 15.5-15.5 15.5z m-66-11.4h-15.5c-8.5 0-15.5-6.9-15.5-15.5s6.9-15.5 15.5-15.5h15.5c8.5 0 15.5 6.9 15.5 15.5s-6.9 15.5-15.5 15.5z m236.1-42.3c-8.5 0-15.5-6.9-15.5-15.5v-4.1c0-8.5 6.9-15.5 15.5-15.5h11.4c8.5 0 15.5 6.9 15.5 15.5 0 8.5-6.9 15.5-15.5 15.5h-0.9c-2.8 2.6-6.5 4.1-10.5 4.1z m161.9-4.1H940c-8.5 0-15.5-6.9-15.5-15.5 0-8.4 6.6-15.2 14.9-15.5 6-4.4 14.5-3.8 20 1.6l2.9 2.9c4.4 4.4 5.8 11.1 3.4 16.9-2.5 5.9-8.1 9.6-14.4 9.6z m-73.2 0h-15.5c-8.5 0-15.5-6.9-15.5-15.5 0-8.5 6.9-15.5 15.5-15.5h15.5c8.5 0 15.5 6.9 15.5 15.5s-7 15.5-15.5 15.5z m26.6-46.6c-4 0-7.9-1.5-10.9-4.5l-10.9-10.9c-6-6-6-15.8 0-21.9s15.8-6 21.9 0l10.9 10.9c6 6 6 15.8 0 21.9-3.1 3-7 4.5-11 4.5zM850 465.9c-4 0-7.9-1.5-10.9-4.5l-11-10.9c-6-6-6-15.8 0-21.9 6-6 15.8-6 21.9 0l11 10.9c6 6 6 15.8 0 21.9-3.1 3-7 4.5-11 4.5z m-54.7-54.7c-4 0-7.9-1.5-10.9-4.5l-10.9-10.9c-6-6-6-15.8 0-21.9 6-6 15.8-6 21.9 0l10.9 10.9c6 6 6 15.8 0 21.9-3.1 3-7 4.5-11 4.5z m-54.6-54.6c-4 0-7.9-1.5-10.9-4.5l-10.9-10.9c-6-6-6-15.8 0-21.9 6-6 15.8-6 21.9 0l10.9 10.9c6 6 6 15.8 0 21.9-3.1 2.9-7.1 4.5-11 4.5zM686 301.9c-4 0-7.9-1.5-10.9-4.5l-10.9-10.9c-6-6-6-15.8 0-21.9 6-6 15.8-6 21.9 0l10.9 10.9c6 6 6 15.8 0 21.9-3.1 3-7.1 4.5-11 4.5z m-54.7-54.7c-4 0-7.9-1.5-11-4.5l-10.9-11c-6-6.1-6-15.8 0-21.9 6-6 15.8-6 21.9 0l10.9 11c6 6.1 6 15.8 0 21.9-3 3-7 4.5-10.9 4.5z m-54.7-54.7c-4 0-7.9-1.5-10.9-4.5l-11-11c-6-6-6-15.8 0-21.9 6-6 15.8-6 21.9 0l10.9 10.9c6 6 6 15.8 0 21.9-3 3.1-6.9 4.6-10.9 4.6z" fill="#1296db" p-id="1413"></path><path d="M402.7 930.7H232.6c-8.5 0-15.5-6.9-15.5-15.5v-348H70.7c-6.3 0-11.9-3.8-14.3-9.5-2.4-5.8-1.1-12.4 3.4-16.9l440.3-440.3c4.4-4.4 11-5.8 16.8-3.4 5.8 2.3 9.6 7.9 9.7 14.1l1.7 110.7v376.2c0 8.5-6.9 15.5-15.5 15.5h-94.5v301.6c-0.1 8.6-7 15.5-15.6 15.5z m-154.6-30.9h139.2V598.2c0-8.5 6.9-15.5 15.5-15.5h94.5V222.3l-1.1-74.1L108 536.3h124.6c8.5 0 15.5 6.9 15.5 15.5v348z" fill="#1296db" p-id="1414"></path></svg>