<?xml version="1.0" standalone="no"?><!DOCTYPE svg PUBLIC "-//W3C//DTD SVG 1.1//EN" "http://www.w3.org/Graphics/SVG/1.1/DTD/svg11.dtd"><svg t="1605452060789" class="icon" viewBox="0 0 1024 1024" version="1.1" xmlns="http://www.w3.org/2000/svg" p-id="27263" xmlns:xlink="http://www.w3.org/1999/xlink" width="200" height="200"><defs><style type="text/css"></style></defs><path d="M512 266.971h25.6c14.629 0 25.6-10.971 25.6-25.6-3.657-10.971-14.629-21.942-25.6-21.942v-47.543c0-14.629-10.971-25.6-25.6-25.6-14.629 0-25.6 10.971-25.6 25.6v73.143c0 10.971 10.971 21.942 25.6 21.942zM815.543 449.83c-14.629 14.628-14.629 36.571 0 51.2L826.514 512H731.43c-21.943 0-36.572 14.629-36.572 36.571s14.629 36.572 36.572 36.572h98.742l-14.628 14.628c-10.972 10.972-10.972 32.915 3.657 43.886 14.629 14.629 32.914 14.629 43.886 3.657l69.485-69.485c3.658 0 7.315-3.658 10.972-7.315 7.314-7.314 10.971-14.628 10.971-25.6v-10.971c-3.657-7.314-7.314-10.972-10.971-14.629L870.4 446.171c-18.286-10.971-40.229-10.971-54.857 3.658zM512 365.714c80.457 0 146.286-65.828 146.286-146.285S592.457 73.143 512 73.143 365.714 138.97 365.714 219.429 431.543 365.714 512 365.714z m0-245.028c54.857 0 98.743 43.885 98.743 98.743S566.857 318.17 512 318.17c-54.857 0-98.743-43.885-98.743-98.742s43.886-98.743 98.743-98.743z m-402.286 537.6H219.43c21.942 0 36.571-14.629 36.571-36.572s-14.629-36.571-36.571-36.571H109.714c-21.943 0-36.571 14.628-36.571 36.571s14.628 36.572 36.571 36.572z m841.143 142.628v-10.971c-3.657-7.314-7.314-10.972-10.971-14.629l-73.143-73.143c-14.629-14.628-36.572-14.628-51.2 0-14.629 14.629-14.629 36.572 0 51.2l10.971 10.972H731.43c-21.943 0-36.572 14.628-36.572 36.571s14.629 36.572 36.572 36.572h98.742l-14.628 14.628C804.57 863.086 804.57 885.03 819.2 896c14.629 14.629 32.914 14.629 43.886 3.657l69.485-69.486c3.658 0 7.315-3.657 10.972-7.314 3.657 0 7.314-7.314 7.314-21.943 0 3.657 0 3.657 0 0 0 3.657 0 3.657 0 0zM109.714 475.43H219.43c21.942 0 36.571-14.629 36.571-36.572s-14.629-36.571-36.571-36.571H109.714c-21.943 0-36.571 14.628-36.571 36.571s14.628 36.572 36.571 36.572zM870.4 106.057c-10.971-18.286-29.257-32.914-54.857-32.914H694.857c21.943 0 36.572 14.628 36.572 36.571 0 18.286-14.629 36.572-32.915 36.572h106.057L588.8 475.429c-7.314 10.971-3.657 21.942-3.657 36.571v365.714L438.857 768V512c0-14.629 7.314-25.6 0-36.571L219.43 146.286h109.714c-21.943 0-36.572-18.286-36.572-36.572 0-21.943 14.629-36.571 36.572-36.571H208.457c-25.6 0-43.886 14.628-54.857 32.914-10.971 21.943-7.314 47.543 7.314 65.829L365.714 512v256c0 21.943 18.286 62.171 36.572 73.143l146.285 102.4c10.972 3.657 18.286 7.314 29.258 7.314 10.971 0 21.942-3.657 32.914-7.314 18.286-10.972 47.543-43.886 47.543-65.829V512l204.8-340.114C877.714 153.6 881.37 128 870.4 106.057zM292.571 768H109.714c-21.943 0-36.571 14.629-36.571 36.571s14.628 36.572 36.571 36.572h182.857c21.943 0 36.572-14.629 36.572-36.572S314.514 768 292.57 768z" fill="#1296db" p-id="27264"></path></svg>