<?xml version="1.0" standalone="no"?><!DOCTYPE svg PUBLIC "-//W3C//DTD SVG 1.1//EN" "http://www.w3.org/Graphics/SVG/1.1/DTD/svg11.dtd"><svg t="1585037504869" class="icon" viewBox="0 0 1024 1024" version="1.1" xmlns="http://www.w3.org/2000/svg" p-id="9379" xmlns:xlink="http://www.w3.org/1999/xlink" width="200" height="200"><defs><style type="text/css"></style></defs><path d="M423.46496 432.01536 178.69824 243.84512c-2.44736-1.90464-3.90144-4.80256-3.90144-7.91552 0-3.10272 1.45408-6.02112 3.90144-7.90528L423.46496 39.8336c1.80224-1.3824 3.93216-2.05824 6.0928-2.05824 2.10944 0 4.21888 0.65536 6.01088 1.9968 3.584 2.70336 4.9152 7.46496 3.25632 11.66336l-49.21344 124.59008 63.34464 0.18432c0 0 6.07232 0.33792 14.4896 1.06496l-0.03072-1.06496c5.36576-0.12288 127.85664-1.45408 213.43232 82.49344 52.64384 51.63008 79.31904 121.97888 79.31904 209.08032l0 286.8736L640.6656 754.65728 640.6656 467.77344c0-54.56896-14.2336-95.04768-43.50976-123.77088-41.6768-40.88832-103.03488-47.23712-121.7024-48.16896l-85.85216 0 49.21344 124.60032c1.65888 4.16768 0.31744 8.93952-3.25632 11.64288C431.98464 434.78016 427.01824 434.75968 423.46496 432.01536zM828.7232 807.03488 225.11616 807.03488c-11.3152 0-20.48 9.17504-20.48 20.48l0 138.24c0 11.30496 9.1648 20.48 20.48 20.48L828.7232 986.23488c11.30496 0 20.48-9.17504 20.48-20.48l0-138.24C849.2032 816.19968 840.01792 807.03488 828.7232 807.03488z" p-id="9380" fill="#1296db"></path></svg>