<?xml version="1.0" standalone="no"?><!DOCTYPE svg PUBLIC "-//W3C//DTD SVG 1.1//EN" "http://www.w3.org/Graphics/SVG/1.1/DTD/svg11.dtd"><svg t="1585037480972" class="icon" viewBox="0 0 1024 1024" version="1.1" xmlns="http://www.w3.org/2000/svg" p-id="8599" xmlns:xlink="http://www.w3.org/1999/xlink" width="200" height="200"><defs><style type="text/css"></style></defs><path d="M798.869333 135.466667a21.290667 21.290667 0 0 0-22.336 2.005333c-84.949333 63.722667-195.84 33.856-303.082666 4.970667-94.954667-25.6-184.576-49.706667-250.624-5.653334a21.397333 21.397333 0 0 0-9.493334 17.749334v721.066666a25.6 25.6 0 1 0 51.157334 0V547.349333c50.218667-19.264 122.069333-0.128 197.845333 20.266667a754.624 754.624 0 0 0 190.869333 34.24 239.914667 239.914667 0 0 0 148.928-46.250667 21.333333 21.333333 0 0 0 8.533334-17.066666v-384a21.376 21.376 0 0 0-11.797334-19.072z" fill="#1296db" p-id="8600"></path></svg>