<?xml version="1.0" standalone="no"?><!DOCTYPE svg PUBLIC "-//W3C//DTD SVG 1.1//EN" "http://www.w3.org/Graphics/SVG/1.1/DTD/svg11.dtd"><svg t="1540887804135" class="icon" style="" viewBox="0 0 1024 1024" version="1.1" xmlns="http://www.w3.org/2000/svg" p-id="3068" xmlns:xlink="http://www.w3.org/1999/xlink" width="32" height="32"><defs><style type="text/css"></style></defs><path d="M512 426.45429624L683.09140753 255.3628887c24.44162965-24.44162965 61.10407412-24.44162965 85.54570377 0s24.44162965 61.10407412 0 85.54570377L597.54570376 512l171.09140754 171.09140753c24.44162965 24.44162965 24.44162965 61.10407412 0 85.54570377s-61.10407412 24.44162965-85.54570377 0L512 597.54570376 340.90859247 768.6371113c-24.44162965 24.44162965-61.10407412 24.44162965-85.54570377 0-24.44162965-24.44162965-24.44162965-61.10407412 0-85.54570377L426.45429624 512 255.3628887 340.90859247C230.92125905 316.46696281 230.92125905 279.80451835 255.3628887 255.3628887c24.44162965-24.44162965 61.10407412-24.44162965 85.54570377 0L512 426.45429624z" fill="#2c2c2c" p-id="3069"></path></svg>