<svg id="图层_1" data-name="图层 1" xmlns="http://www.w3.org/2000/svg" viewBox="0 0 16 16"><title>画板 29</title><rect y="15" width="16" height="1" style="fill:#4d84ba"/><path d="M3.64,15,15,3.4,11.67,0,0,11.91,3,15M11.67,1.06" style="fill:#fff"/><path d="M3.64,15,15,3.4,11.67,0,0,11.91,3,15M11.67,1.06,14,3.4,12.5,4.89,11.08,3.43l-.49.51L12,5.39,11.39,6l-.95-1-.49.51.95,1-.62.64L8.85,5.71l-.49.51L9.77,7.67l-.62.64-.95-1-.5.51.95,1L8,9.45,6.61,8l-.49.51L7.54,10l-.62.64L6,9.62l-.5.51.95,1-.62.64L4.38,10.28l-.49.51,1.42,1.45-.62.64-.95-1-.49.51.95,1-.86.88L1,11.92Zm0,0" style="fill:#4d84ba"/><circle cx="11.5" cy="11.5" r="4.5" style="fill:#4d84ba"/><polygon points="14 11 12 11 12 9 11 9 11 11 9 11 9 12 11 12 11 14 12 14 12 12 14 12 14 11" style="fill:#fff"/></svg>