<?xml version="1.0" standalone="no"?><!DOCTYPE svg PUBLIC "-//W3C//DTD SVG 1.1//EN" "http://www.w3.org/Graphics/SVG/1.1/DTD/svg11.dtd"><svg t="1609466282856" class="icon" viewBox="0 0 1027 1024" version="1.1" xmlns="http://www.w3.org/2000/svg" p-id="1807" xmlns:xlink="http://www.w3.org/1999/xlink" width="200.5859375" height="200"><defs><style type="text/css"></style></defs><path d="M1015.54176 548.74112a113.64352 113.64352 0 0 0-29.63456-35.84 154.7264 154.7264 0 0 0-39.7312-22.6304 673.01376 673.01376 0 0 0-41.41056-14.62272 1314.4064 1314.4064 0 0 1-31.6416-11.28448 102.68672 102.68672 0 0 1-24.10496-12.41088 52.5312 52.5312 0 0 1-15.2576-16.73216c-3.62496-6.32832-5.44768-14.52032-5.44768-24.35072 0-10.24 2.02752-19.02592 6.0416-26.13248 4.13696-7.3728 9.60512-13.59872 16.19968-18.5344a67.46112 67.46112 0 0 1 22.46656-10.93632c24.33024-6.656 48.35328-3.6864 67.29728 6.3488 12.36992 6.5536 22.26176 15.03232 29.40928 25.21088l5.28384 7.53664 51.01568-51.0976-4.7104-5.4272c-13.14816-15.19616-30.59712-27.42272-51.85536-36.352-36.12672-15.17568-78.78656-17.57184-119.66464-6.43072-17.2032 4.7104-32.8704 12.26752-46.53056 22.48704a118.4768 118.4768 0 0 0-22.20032 21.93408l-1.41312-1.61792c-13.14816-15.19616-30.59712-27.42272-51.85536-36.352-36.12672-15.17568-78.78656-17.57184-119.66464-6.43072-17.2032 4.7104-32.8704 12.26752-46.53056 22.48704a119.76704 119.76704 0 0 0-29.85984 32.8704 100.61824 100.61824 0 0 0-21.99552-22.99904c-13.14816-9.87136-29.24544-17.24416-47.80032-21.93408-18.20672-4.58752-38.56384-6.92224-60.47744-6.92224h-129.39264v29.4912a144.7936 144.7936 0 0 0-42.22976-26.58304c-36.12672-15.17568-78.78656-17.57184-119.66464-6.43072-17.2032 4.7104-32.8704 12.26752-46.53056 22.48704a120.77056 120.77056 0 0 0-33.6896 39.07584c-8.66304 15.79008-13.06624 34.816-13.06624 56.58624 0 20.0704 3.2768 37.19168 9.74848 50.93376a106.98752 106.98752 0 0 0 25.4976 34.73408 138.4448 138.4448 0 0 0 35.18464 22.77376c12.57472 5.71392 25.6 10.62912 38.48192 14.5408 12.71808 4.23936 24.7808 8.37632 36.18816 12.45184 10.752 3.80928 20.29568 8.4992 28.40576 13.9264 7.68 5.18144 13.824 11.53024 18.26816 18.8416 4.3008 7.0656 6.47168 16.15872 6.47168 27.07456 0 10.99776-2.12992 20.3776-6.32832 27.91424a62.2592 62.2592 0 0 1-16.7936 19.39456 70.92224 70.92224 0 0 1-23.10144 11.53024 94.5152 94.5152 0 0 1-73.50272-8.6016 99.98336 99.98336 0 0 1-35.06176-32.3584l-4.85376-7.41376L0 667.25888l4.48512 5.77536a153.33376 153.33376 0 0 0 61.35808 47.104 191.71328 191.71328 0 0 0 75.9808 15.72864c18.26816 0 36.37248-2.6624 53.78048-7.8848a137.33888 137.33888 0 0 0 46.83776-24.33024 119.97184 119.97184 0 0 0 29.67552-35.9424v57.69216h71.20896v-180.71552h55.37792a246.1696 246.1696 0 0 0 59.61728-6.90176c18.71872-4.66944 35.14368-12.02176 48.82432-21.85216a103.05536 103.05536 0 0 0 29.12256-32.39936c4.17792 5.61152 8.78592 10.77248 13.90592 15.31904a138.4448 138.4448 0 0 0 35.18464 22.77376c12.57472 5.71392 25.6 10.62912 38.48192 14.5408 12.71808 4.23936 24.7808 8.37632 36.18816 12.45184 10.752 3.80928 20.29568 8.4992 28.40576 13.9264 7.68 5.18144 13.824 11.53024 18.26816 18.8416 4.3008 7.0656 6.47168 16.15872 6.47168 27.07456 0 10.99776-2.12992 20.3776-6.32832 27.91424a62.2592 62.2592 0 0 1-16.7936 19.39456 70.92224 70.92224 0 0 1-23.10144 11.53024 94.5152 94.5152 0 0 1-73.50272-8.6016 99.98336 99.98336 0 0 1-35.06176-32.3584l-4.85376-7.41376-55.58272 48.37376 4.48512 5.77536a153.33376 153.33376 0 0 0 61.35808 47.104 191.71328 191.71328 0 0 0 75.9808 15.72864c18.26816 0 36.37248-2.6624 53.78048-7.8848a137.33888 137.33888 0 0 0 46.83776-24.33024 116.1216 116.1216 0 0 0 16.36352-16.30208 154.48064 154.48064 0 0 0 48.68096 32.78848 191.71328 191.71328 0 0 0 75.9808 15.72864c18.26816 0 36.37248-2.6624 53.78048-7.8848a137.33888 137.33888 0 0 0 46.83776-24.33024 121.40544 121.40544 0 0 0 32.78848-41.55392c8.17152-16.6912 12.32896-36.51584 12.32896-58.88 0-21.72928-3.91168-40.07936-11.61216-54.51776zM756.5312 413.20448c0 20.0704 3.2768 37.19168 9.74848 50.93376a106.98752 106.98752 0 0 0 25.4976 34.73408 138.4448 138.4448 0 0 0 35.18464 22.77376c12.57472 5.71392 25.6 10.62912 38.48192 14.5408 12.71808 4.23936 24.7808 8.37632 36.18816 12.45184 10.752 3.80928 20.29568 8.4992 28.40576 13.9264 7.68 5.18144 13.824 11.53024 18.26816 18.8416 4.3008 7.0656 6.47168 16.15872 6.47168 27.07456 0 10.99776-2.12992 20.3776-6.32832 27.91424a62.2592 62.2592 0 0 1-16.7936 19.39456 70.92224 70.92224 0 0 1-23.10144 11.53024 94.5152 94.5152 0 0 1-73.50272-8.6016 99.98336 99.98336 0 0 1-35.06176-32.3584l-4.85376-7.41376-11.91936 10.36288a157.696 157.696 0 0 0 2.2528-26.03008c0-21.7088-3.91168-40.0384-11.61216-54.4768a113.3568 113.3568 0 0 0-29.63456-35.84 154.37824 154.37824 0 0 0-39.7312-22.6304 673.01376 673.01376 0 0 0-41.41056-14.62272 1314.4064 1314.4064 0 0 1-31.6416-11.28448 102.68672 102.68672 0 0 1-24.10496-12.41088 52.5312 52.5312 0 0 1-15.2576-16.73216c-3.62496-6.32832-5.44768-14.52032-5.44768-24.35072 0-10.24 2.02752-19.02592 6.0416-26.13248 4.13696-7.3728 9.60512-13.59872 16.19968-18.5344a67.46112 67.46112 0 0 1 22.46656-10.93632c24.33024-6.656 48.37376-3.6864 67.29728 6.3488 12.36992 6.5536 22.26176 15.03232 29.40928 25.21088l5.28384 7.53664 34.95936-35.0208c-7.68 15.17568-11.75552 33.21856-11.75552 53.80096z m-413.20448-50.3808h52.55168c12.57472 0 24.41216 1.024 35.18464 3.05152 10.21952 1.92512 19.0464 5.26336 26.25536 9.9328 6.9632 4.52608 12.55424 10.46528 16.60928 17.65376 4.01408 7.14752 6.06208 16.32256 6.06208 27.29984 0 11.10016-1.96608 20.43904-5.85728 27.77088-3.91168 7.3728-9.27744 13.16864-16.46592 17.7152-7.45472 4.73088-16.5888 8.2944-27.11552 10.60864a167.17824 167.17824 0 0 1-35.79904 3.60448h-51.42528v-117.63712z m-71.20896 179.5072a112.55808 112.55808 0 0 0-25.78432-29.42976 154.37824 154.37824 0 0 0-39.7312-22.6304 673.01376 673.01376 0 0 0-41.41056-14.62272 1314.4064 1314.4064 0 0 1-31.6416-11.28448 102.68672 102.68672 0 0 1-24.10496-12.41088 52.5312 52.5312 0 0 1-15.2576-16.73216c-3.62496-6.32832-5.44768-14.52032-5.44768-24.35072 0-10.24 2.02752-19.02592 6.0416-26.13248 4.13696-7.3728 9.60512-13.59872 16.19968-18.5344a67.46112 67.46112 0 0 1 22.46656-10.93632c24.33024-6.656 48.35328-3.6864 67.29728 6.3488 12.36992 6.5536 22.26176 15.03232 29.40928 25.21088l5.28384 7.53664 36.67968-36.74112v184.70912z" fill="#1296db" p-id="1808"></path></svg>