<?xml version="1.0" standalone="no"?><!DOCTYPE svg PUBLIC "-//W3C//DTD SVG 1.1//EN" "http://www.w3.org/Graphics/SVG/1.1/DTD/svg11.dtd"><svg t="1588839573148" class="icon" viewBox="0 0 1024 1024" version="1.1" xmlns="http://www.w3.org/2000/svg" p-id="1174" xmlns:xlink="http://www.w3.org/1999/xlink" width="200" height="200"><defs><style type="text/css"></style></defs><path d="M512 192c176.64 0 320 143.36 320 320s-143.36 320-320 320S192 688.64 192 512 335.36 192 512 192z" fill="#1296db" p-id="1175"></path><path d="M866.752 365.248a32 32 0 0 0 41.856 17.28l59.2-24.64a32 32 0 0 0-24.576-59.136l-59.2 24.64a32 32 0 0 0-17.28 41.856zM943.232 725.248a31.904 31.904 0 0 0 41.824-17.28 32 32 0 0 0-17.248-41.824l-59.2-24.64a32 32 0 0 0-24.608 59.104l59.2 24.64zM512 864c194.08 0 352-157.92 352-352S706.08 160 512 160 160 317.92 160 512s157.92 352 352 352z m0-640c158.784 0 288 129.216 288 288s-129.216 288-288 288-288-129.216-288-288 129.216-288 288-288zM512 128a32 32 0 0 0 32-32V32a32 32 0 0 0-64 0v64a32 32 0 0 0 32 32zM480 928v64a32 32 0 0 0 64 0v-64a32 32 0 0 0-64 0zM992 480h-64a32 32 0 0 0 0 64h64a32 32 0 0 0 0-64zM32 544h64a32 32 0 0 0 0-64H32a32 32 0 0 0 0 64zM806.08 249.92a31.904 31.904 0 0 0 22.624-9.376l45.44-45.44a32 32 0 1 0-45.248-45.248l-45.44 45.44a32 32 0 0 0 22.624 54.624zM172.48 883.52a31.904 31.904 0 0 0 22.624-9.376l45.44-45.44a32 32 0 1 0-45.248-45.248l-45.44 45.44a32 32 0 0 0 22.624 54.624z" fill="#1296db" p-id="1176"></path><path d="M783.456 783.456a32 32 0 0 0 0 45.248l45.44 45.44a31.904 31.904 0 0 0 45.248 0 32 32 0 0 0 0-45.248l-45.44-45.44a32 32 0 0 0-45.248 0zM195.296 240.544a31.904 31.904 0 0 0 45.248 0 32 32 0 0 0 0-45.248l-45.44-45.44a32 32 0 1 0-45.248 45.248l45.44 45.44zM157.248 658.752a32.032 32.032 0 0 0-41.856-17.28l-59.2 24.64a32 32 0 0 0 24.576 59.136l59.2-24.64a32 32 0 0 0 17.28-41.856zM658.752 866.752a32 32 0 0 0-17.28 41.856l24.64 59.2a32 32 0 1 0 59.136-24.576l-24.64-59.2a32 32 0 0 0-41.856-17.28zM323.392 140a32 32 0 1 0 59.104-24.608l-24.64-59.2a32 32 0 0 0-59.104 24.608l24.64 59.2zM56.192 357.856l59.2 24.64a31.904 31.904 0 0 0 41.856-17.248 32 32 0 0 0-17.28-41.856l-59.2-24.64a32 32 0 0 0-24.576 59.104zM323.392 884l-24.64 59.2a32 32 0 0 0 59.104 24.64l24.64-59.2a32 32 0 0 0-59.104-24.64zM658.752 157.248a31.904 31.904 0 0 0 41.856-17.28l24.64-59.2a32 32 0 0 0-59.104-24.576l-24.64 59.2a32 32 0 0 0 17.248 41.856z" fill="#1296db" p-id="1177"></path></svg>