<svg id="图层_1" data-name="图层 1" xmlns="http://www.w3.org/2000/svg" viewBox="0 0 32 32"><title>画板 71</title><path d="M30.44,19.34a3.23,3.23,0,0,0-.38-.25A3.29,3.29,0,0,1,28.5,17.9,3.09,3.09,0,0,1,28,16a3.09,3.09,0,0,1,.61-2,3.86,3.86,0,0,1,1.7-1.24,1.33,1.33,0,0,0,.5-.4,1.09,1.09,0,0,0,.18-.86,7.54,7.54,0,0,0-.5-1.85,3.78,3.78,0,0,0-.86-1.37A1,1,0,0,0,29,8a1,1,0,0,0-.63.13,4.17,4.17,0,0,1-2.09.37,2.91,2.91,0,0,1-1.9-.86,3.23,3.23,0,0,1-.93-1.81,3.4,3.4,0,0,1,.26-2,2,2,0,0,0,.13-.43.74.74,0,0,0-.1-.56A3,3,0,0,0,23,2.06a4.27,4.27,0,0,0-1-.58,5.94,5.94,0,0,0-1-.35,4.39,4.39,0,0,0-1-.13.8.8,0,0,0-.56.28,1.85,1.85,0,0,0-.4.53,3.35,3.35,0,0,1-1.22,1.6A3,3,0,0,1,16,4a3.17,3.17,0,0,1-2-.62,3.91,3.91,0,0,1-1.16-1.53,1.72,1.72,0,0,0-.34-.56A.83.83,0,0,0,11.83,1a4.41,4.41,0,0,0-.87.12,7.24,7.24,0,0,0-1.13.34A5.23,5.23,0,0,0,8.75,2a1.84,1.84,0,0,0-.69.79.74.74,0,0,0,0,.45,2.93,2.93,0,0,0,.11.45c0,.21.06.43.09.64a5.66,5.66,0,0,1,0,1A5.14,5.14,0,0,1,8,6.46a2.33,2.33,0,0,1-.56,1,3.3,3.3,0,0,1-1.85.91,3.92,3.92,0,0,1-2-.24A3.52,3.52,0,0,0,3,8a.74.74,0,0,0-.5.13,2,2,0,0,0-.59.59,5.52,5.52,0,0,0-.48.88,5.48,5.48,0,0,0-.34,1A4,4,0,0,0,1,11.5a1.55,1.55,0,0,0,.21.76.88.88,0,0,0,.48.47A4.91,4.91,0,0,1,3.44,14,2.81,2.81,0,0,1,4,16a2.55,2.55,0,0,1-.56,1.9A4.51,4.51,0,0,1,1.7,19.18a1,1,0,0,0-.65.9,2.84,2.84,0,0,0,.07,1,6.45,6.45,0,0,0,.37,1.16,7.18,7.18,0,0,0,.55,1,1.4,1.4,0,0,0,.66.59,1.27,1.27,0,0,0,.9.07A5.47,5.47,0,0,1,5,23.65a4.52,4.52,0,0,1,1.22.11,2.11,2.11,0,0,1,1.09.63,3,3,0,0,1,.82,1.76,3.17,3.17,0,0,1-.27,1.69,2,2,0,0,0-.24.86,1,1,0,0,0,.18.53,2.87,2.87,0,0,0,.67.64,5.34,5.34,0,0,0,1,.56,8.59,8.59,0,0,0,1.13.4,3.8,3.8,0,0,0,1,.16,1.41,1.41,0,0,0,.7-.18,1.1,1.1,0,0,0,.48-.56A3.85,3.85,0,0,1,14,28.56,2.85,2.85,0,0,1,16,28a2.9,2.9,0,0,1,2,.56,4,4,0,0,1,1.21,1.72h0a1.24,1.24,0,0,0,.35.48.82.82,0,0,0,.55.23,4.54,4.54,0,0,0,1-.13,5.67,5.67,0,0,0,1-.35,6.75,6.75,0,0,0,.91-.5,2.19,2.19,0,0,0,.62-.53,1.22,1.22,0,0,0,.1-1.29,3.61,3.61,0,0,1-.29-2,3.16,3.16,0,0,1,.9-1.84,2,2,0,0,1,.86-.55,4.83,4.83,0,0,1,1-.21,3.45,3.45,0,0,1,1,0,6.86,6.86,0,0,1,.8.18,2,2,0,0,0,.65.13,1.61,1.61,0,0,0,.68-.2,2,2,0,0,0,.7-.64,4.83,4.83,0,0,0,.55-1A5.4,5.4,0,0,0,30.91,21a2.94,2.94,0,0,0,0-.93A1.31,1.31,0,0,0,30.44,19.34ZM16,23a7,7,0,1,1,7-7A7,7,0,0,1,16,23Z" style="fill:#4d84ba"/></svg>