<svg id="图层_1" data-name="图层 1" xmlns="http://www.w3.org/2000/svg" viewBox="0 0 16 16"><title>画板 27</title><circle cx="7" cy="7" r="6.5" style="fill:#fff"/><path d="M7,1A6,6,0,1,1,1,7,6,6,0,0,1,7,1M7,0a7,7,0,1,0,7,7A7,7,0,0,0,7,0Z" style="fill:gray"/><path d="M5,9,3.5,3.5,9,5l1.5,5.5ZM7,6A1,1,0,1,0,8,7,1,1,0,0,0,7,6Zm0,.34" style="fill:#4d84ba"/><circle cx="11.5" cy="11.5" r="4.5" style="fill:#4d84ba"/><polygon points="14 11 12 11 12 9 11 9 11 11 9 11 9 12 11 12 11 14 12 14 12 12 14 12 14 11" style="fill:#fff"/></svg>