<?xml version="1.0" standalone="no"?><!DOCTYPE svg PUBLIC "-//W3C//DTD SVG 1.1//EN" "http://www.w3.org/Graphics/SVG/1.1/DTD/svg11.dtd"><svg t="1605452019512" class="icon" viewBox="0 0 1033 1024" version="1.1" xmlns="http://www.w3.org/2000/svg" p-id="26447" xmlns:xlink="http://www.w3.org/1999/xlink" width="201.7578125" height="200"><defs><style type="text/css"></style></defs><path d="M247.268404 69.423729a34.711864 34.711864 0 0 1 0-69.423729h746.305085a34.711864 34.711864 0 1 1 0 69.423729z m407.864407 422.616949l156.20339 90.164068a34.711864 34.711864 0 0 1 12.322712 47.121356 33.930847 33.930847 0 0 1-47.208136 12.322712L604.974167 543.240678A34.711864 34.711864 0 0 1 585.709082 512.520678V390.508475a35.232542 35.232542 0 0 1 34.711864-34.711865 34.711864 34.711864 0 0 1 34.711865 34.711865z m-34.711865-335.229831a355.79661 355.79661 0 1 1-355.79661 355.796611 355.275932 355.275932 0 0 1 355.79661-355.796611z m202.977628 152.732204A290.625085 290.625085 0 0 0 620.420946 225.627119a286.980339 286.980339 0 0 0-286.372881 286.893559A286.980339 286.980339 0 0 0 620.420946 798.372881a286.372881 286.372881 0 0 0 286.980339-285.938983 290.451525 290.451525 0 0 0-84.002711-202.977627zM247.268404 785.182373a34.711864 34.711864 0 1 1 0-68.729492h20.56678a367.338305 367.338305 0 0 0 50.158644 68.729492z m726.779661-68.729492H993.573489a34.711864 34.711864 0 1 1 0 68.729492h-69.423729a416.542373 416.542373 0 0 0 50.245424-68.729492zM247.268404 1024a34.711864 34.711864 0 0 1-34.711864-34.711864 35.145763 35.145763 0 0 1 34.711864-34.711865h746.305085a35.232542 35.232542 0 0 1 34.711864 34.711865 34.711864 34.711864 0 0 1-34.711864 34.711864z m-208.271186 0a34.711864 34.711864 0 0 1-34.711865-34.711864 35.232542 35.232542 0 0 1 34.711865-34.711865h69.423728a35.92678 35.92678 0 0 1 34.711865 34.711865 35.232542 35.232542 0 0 1-34.711865 34.711864z m0-238.817627a34.711864 34.711864 0 1 1 0-68.729492h69.423728a34.711864 34.711864 0 1 1 0 68.729492z m0-237.776271a35.232542 35.232542 0 0 1-34.711865-34.711865 34.711864 34.711864 0 0 1 34.711865-34.711864h69.423728a35.232542 35.232542 0 0 1 34.711865 34.711864 35.92678 35.92678 0 0 1-34.711865 34.711865z m0-238.904407a34.711864 34.711864 0 1 1 0-69.423729h69.423728a34.711864 34.711864 0 0 1 0 69.423729zM38.997218 69.423729a34.711864 34.711864 0 1 1 0-69.423729h69.423728a34.711864 34.711864 0 0 1 0 69.423729z m208.271186 239.077966a34.711864 34.711864 0 0 1 0-69.423729h70.725424a377.057627 377.057627 0 0 0-50.158644 69.423729z m676.881356-69.423729h69.423729a34.711864 34.711864 0 1 1 0 69.423729h-19.438644a427.823729 427.823729 0 0 0-50.245424-69.423729z" p-id="26448" fill="#1296db"></path></svg>