<?xml version="1.0" standalone="no"?><!DOCTYPE svg PUBLIC "-//W3C//DTD SVG 1.1//EN" "http://www.w3.org/Graphics/SVG/1.1/DTD/svg11.dtd"><svg t="1605447822686" class="icon" viewBox="0 0 1024 1024" version="1.1" xmlns="http://www.w3.org/2000/svg" p-id="11090" xmlns:xlink="http://www.w3.org/1999/xlink" width="200" height="200"><defs><style type="text/css"></style></defs><path d="M849.792 380.8c-10.88-10.88-25.344-10.88-32.512 0l-54.272 65.152h-3.584v3.584l-28.928 36.224c-7.296 10.88-7.296 25.344-3.584 36.224h61.44c3.584 18.048 7.296 36.224 7.296 54.272 0 130.176-104.96 235.136-235.136 235.136h-18.048v-68.736c-14.464-3.584-32.512-3.584-43.392 3.584l-126.592 79.616c-14.464 10.88-14.464 25.344 0 32.512l126.592 83.2c10.88 7.296 28.928 7.296 43.392 3.584v-68.736h18.048c169.984 0 307.456-137.472 307.456-307.456 0-18.048-3.584-36.224-3.584-54.272h72.32c3.584-10.88 3.584-25.344-3.584-36.224l-83.328-97.664zM71.936 952.32h217.088V373.504H71.936V952.32z m0-651.136h217.088V84.096H71.936v217.088zM361.344 84.096v217.088h578.816V84.096H361.344z m0 0" p-id="11091" fill="#1296db"></path></svg>