<?xml version="1.0" standalone="no"?><!DOCTYPE svg PUBLIC "-//W3C//DTD SVG 1.1//EN" "http://www.w3.org/Graphics/SVG/1.1/DTD/svg11.dtd"><svg t="1605450566428" class="icon" viewBox="0 0 1024 1024" version="1.1" xmlns="http://www.w3.org/2000/svg" p-id="19325" xmlns:xlink="http://www.w3.org/1999/xlink" width="200" height="200"><defs><style type="text/css"></style></defs><path d="M727.6 236H338.7V36.7h388.9V236z m-337.5-51.4h286.1V88.1H390.1v96.5zM389 658.3H0V459h389v199.3zM51.4 606.9h286.1v-96.5H51.4v96.5zM1024 658.3H635.1V459H1024v199.3z m-337.5-51.4h286.1v-96.5H686.5v96.5zM1024 991H635.1V791.6H1024V991z m-337.5-51.4h286.1v-96.5H686.5v96.5z" p-id="19326" fill="#1296db"></path><path d="M826.7 632.6h51.4v168.8h-51.4zM878.2 464.1h-51.5V363.8H196.3v100.3h-51.4V312.4h733.3z" p-id="19327" fill="#1296db"></path><path d="M503.9 210.3h51.4v127.8h-51.4z" p-id="19328" fill="#1296db"></path></svg>