<?xml version="1.0" standalone="no"?><!DOCTYPE svg PUBLIC "-//W3C//DTD SVG 1.1//EN" "http://www.w3.org/Graphics/SVG/1.1/DTD/svg11.dtd"><svg class="icon" width="200px" height="199.80px" viewBox="0 0 1025 1024" version="1.1" xmlns="http://www.w3.org/2000/svg"><path d="M480.127738 387.162369c22.012299 0 41.897939-11.047578 61.120725-21.73611 47.228396-26.072284 54.795987-69.654979 62.115007-111.77387l1.463804-8.396159c4.778077-26.873233-13.505664-60.264538-30.601791-80.702557-11.876146-14.168519-30.518934-31.071313-52.061711-31.071313-3.093322 0-6.324738 0.386665-9.279965 1.104758-51.785522 12.428525-58.552163 59.68454-63.965476 97.660589l-0.303808 1.988564c-1.491423 10.274247-3.010465 20.907541-5.634265 31.375121-1.739994 7.125688-5.137124 14.886611-8.699968 23.089438-9.41806 21.542777-25.160859 57.557881 6.849498 84.182544C452.508793 382.384292 465.627792 387.162369 480.127738 387.162369zM473.25062 327.533067c1.380947-5.054267 4.474269-12.124717 6.959974-17.841838 4.44665-10.163772 9.031395-20.741828 11.765671-31.899881 3.093322-12.262812 4.97141-24.636099 6.904736-38.362714 4.943791-34.330348 8.36854-46.786493 18.808501-52.945517l4.19808-2.485705 3.866652 2.982846c11.765671 9.086633 29.331319 35.959866 29.469414 48.056964l-1.629518 9.915201c-7.042831 40.627468-11.931384 62.501672-37.865573 76.835905-15.549466 8.64473-27.259899 14.776136-35.490344 14.858992l-9.528536 0.082857L473.25062 327.533067zM512.027619 0c-282.320854 0-512.027619 229.706764-512.027619 512s229.706764 512 512.027619 512 512.027619-229.706764 512.027619-512S794.348473 0 512.027619 0zM874.2777 232.9658l4.253318-0.635236 2.568562 3.424749c33.225591 44.328407 57.86169 93.158701 73.273061 145.165174l1.436185 4.860934-8.423778 6.214263c-17.317078 12.456144-36.843672 26.458949-52.973136 51.481713-16.985651 26.928471-17.731363 57.972165-18.31136 82.884454-0.745712 34.910346-2.761894 44.383644-16.460891 49.493149-11.158054 4.170461-21.542777 6.2695-30.850361 6.2695-14.66566 0-27.23228-5.164743-37.340813-15.300895-5.164743-5.551408-3.452368-13.008523 2.319991-31.430359 6.048549-19.222786 14.334232-45.54364 2.319991-72.140684-13.174237-30.933218-39.52271-42.505556-60.678822-51.757903-20.631352-9.031395-29.358938-13.809472-32.811307-25.078002-12.456144-40.296041 13.09138-69.351171 71.339735-115.502427C806.390333 244.620995 834.727371 238.821016 874.2777 232.9658zM190.377387 840.693063l-2.540943-0.248571-1.795231-1.82285c-82.304456-82.138742-130.112849-191.785953-134.614737-308.696947l-0.331427-8.423778 8.36854 0.994282c28.419894 3.39713 69.62736 10.357104 83.2435 14.085662 2.043802 0.52476 4.004747 1.850469 7.705686 4.557126 6.435214 4.639983 15.273277 11.019959 29.414176 13.036142 2.789513 0.414284 6.159025 0.635236 10.025677 0.635236 25.989427 0 99.400583-12.124717 123.650016-35.683677 7.374258-7.098069 11.793289-16.101845 13.588521-27.536088l3.176179-20.4104 10.191391 17.979933c0.856187 1.463804 1.767612 3.369511 2.6238 4.999029 5.882835 11.793289 13.919948 27.895134 33.722732 35.821771 17.261841 6.932355 41.400798 0.193333 54.409321-6.048549 2.292372-1.104758 5.440932-2.6238 7.07045-3.507606l2.402848-3.038084 4.860934 1.712375c10.605675 3.728558 15.079944 9.390441 24.85705 21.818966l3.314273 4.170461c2.817132 3.507606 3.866652 9.16949 5.275218 18.090409 2.292372 14.555184 6.131406 38.776999 31.734168 50.846478 10.357104 4.860934 25.160859 5.744741 54.795987 2.430467l25.188478-2.844751 1.739994 0.745712c10.522818 4.529507 19.747546 14.91423 22.978962 25.851332 0.966663 3.203798 1.270471 6.131406 0.994282 8.920919l-0.52476 5.081886-4.97141 1.187615c-6.766641 1.601899-17.593268 2.734276-28.254181 3.728558-20.272306 1.905707-39.439853 3.700939-52.752185 12.704715-26.486568 17.897076-46.316971 33.280829-60.098824 67.970223-6.600928 16.681843-5.385694 30.850361-4.419031 42.229367 0.800949 9.16949 1.132377 14.113281-1.077139 19.443737-10.578056 25.464667-20.741828 36.015104-40.351278 41.842701-2.596181 0.745712-5.109505 1.104758-7.733305 1.104758-4.750459 0-9.473298-1.159996-15.43899-2.651419-8.810443-2.181897-18.753264-4.639983-30.546553-5.081886l-5.689503-0.276189c-18.559931-0.718093-29.497033-1.187615-47.946488 0.303808-9.500917 0.745712-16.626605 1.960945-23.918006 3.203798-4.943791 0.883806-9.998058 1.767612-16.433272 2.430467-11.351386 1.215234-22.205632 1.82285-33.170353 1.82285C225.398209 844.145431 209.40684 842.654008 190.377387 840.693063zM838.373072 838.345453c-87.16539 87.16539-203.054483 135.167116-326.345453 135.167116-84.01683 0-166.707951-23.282771-239.152444-67.334988l-18.532312-11.26853 21.598015-2.043802c2.071421-0.193333 3.783795-0.110476 5.882835-0.303808 7.484734-0.828568 13.505664-1.850469 19.416118-2.844751 6.54569-1.132377 12.069479-2.09904 19.416118-2.651419 15.71518-1.270471 25.602762-0.883806 39.605567-0.303808l8.064732 0.331427c7.015212 0.303808 13.533283 1.933326 19.802783 3.507606 19.913259 4.916172 36.484626 5.2476 50.404574 1.077139 43.610314-12.898047 61.700723-44.632215 72.554968-70.870213 7.015212-16.930413 5.772359-31.375121 4.778077-42.947459-0.800949-8.810443-1.159996-14.030424 0.994282-19.443737 7.705686-19.36088 17.151365-28.337037 39.909375-43.858884 5.910454-2.6238 16.350415-3.756177 29.469414-5.026648 28.337037-2.651419 56.370266-5.275218 69.682598-25.243716 11.296148-16.792318 14.168519-37.478908 8.064732-58.331212-7.457115-25.326572-27.204661-47.559823-51.619808-58.055022-9.887582-4.19808-23.973244-4.833315-52.310282-1.684756-8.948538 0.994282-16.378034 1.82285-22.730392 1.905707l-5.965692 0.082857-1.187615-5.827597c-0.469522-2.237135-0.883806-4.943791-1.215234-7.042831-1.82285-11.682814-4.336174-27.646564-15.742799-41.787464l-3.038084-3.839033c-12.069479-15.328514-23.365627-29.690366-48.001726-38.307477-14.472327-5.026648-33.197972-2.458086-52.890279 7.098069-2.817132 1.325709-5.938073 2.817132-8.147589 3.700939l-5.744741 2.292372-3.120941-5.302837c-1.021901-1.739994-2.264753-4.19808-3.203798-6.103787-5.358075-10.74377-13.229475-26.458949-32.037976-34.661776l-3.14856-1.436185c-8.285683-3.783795-18.559931-8.479016-30.988456-8.479016-6.573309 0-13.174237 1.325709-19.11231 3.811414-24.718956 9.887582-25.658 34.275111-26.044665 44.659834l-0.055238 6.739023-3.92189 2.016183c-16.847556 8.617111-62.280721 18.559931-85.259683 18.642788l-2.87237-0.607617c-1.988564-0.883806-3.479987-1.988564-4.667602-2.899989-6.407595-4.667602-13.892329-10.080915-24.995145-13.036142-15.659942-4.253318-62.170245-12.400906-96.445355-16.101845l-7.125688-0.77333 0.745712-7.125688c24.442766-235.644838 221.724889-413.345129 458.944007-413.345129 118.761463 0 231.750566 45.350307 318.115007 127.682382l9.611393 9.16949-12.898047 3.038084c-32.97702 7.816161-59.049304 20.465638-84.486352 41.014133-44.991261 35.683677-112.82339 89.457762-88.021577 169.88413 10.605675 34.385586 38.362714 46.59316 60.623584 56.370266 18.228504 7.954256 29.552271 13.450426 34.882727 25.851332 4.004747 8.782824 1.04952 19.719927-4.253318 36.677959-7.098069 22.564678-16.792318 53.470277 9.445679 81.641601 30.988456 31.181789 74.87496 39.080807 122.24145 21.321825 47.559823-17.703744 48.581724-62.695005 49.355054-95.561549 0.497141-21.763729 0.939044-42.063653 10.384723-56.950264 5.2476-8.175208 11.738052-15.383752 20.438019-22.758011l10.080915-8.534254 1.712375 13.09138c2.899989 22.398964 4.280936 41.317942 4.280936 59.546445C973.512569 635.29097 925.510843 751.180063 838.373072 838.345453z" fill="#4d84ba" /></svg>