<?xml version="1.0" standalone="no"?><!DOCTYPE svg PUBLIC "-//W3C//DTD SVG 1.1//EN" "http://www.w3.org/Graphics/SVG/1.1/DTD/svg11.dtd"><svg t="1602600689177" class="icon" viewBox="0 0 1024 1024" version="1.1" xmlns="http://www.w3.org/2000/svg" p-id="2642" xmlns:xlink="http://www.w3.org/1999/xlink" width="200" height="200"><defs><style type="text/css"></style></defs><path d="M536.05 411.97l-19.84-53.43c-1.94-5.23-9.35-5.21-11.26 0.04L485.5 412c-1.42 3.91 1.48 8.05 5.64 8.05h39.28c4.18 0 7.08-4.17 5.63-8.08z m0 0l-19.84-53.43c-1.94-5.23-9.35-5.21-11.26 0.04L485.5 412c-1.42 3.91 1.48 8.05 5.64 8.05h39.28c4.18 0 7.08-4.17 5.63-8.08zM866.71 223.5l0.29-28.89V107.5c0-23.74-19.25-43-43-43H202c-23.75 0-43 19.26-43 43v116h-23v371h23v322c0 23.75 19.25 43 43 43h439.31c1.63 0 3.23-0.09 4.8-0.27 1.14 0.09 2.28 0.15 3.42 0.15 9.96 0.01 19.97-3.42 28.1-10.43l104.36-89.99c17.98-15.51 19.99-42.67 4.48-60.65-15.51-17.98-42.66-19.99-60.64-4.48l-41.61 35.88-0.06-56.45 133.88 2.05c23.84 0.36 43.42-18.74 43.66-42.58l1.36-138.23H888v-371h-21.29zM245 150.5h536v43.47l-0.29 29.53H245v-73z m174.18 323.52l61.68-158.37a32.49 32.49 0 0 1 48.48-15.12c5.26 3.56 9.48 8.66 11.95 14.83l63.46 158.48c5.39 13.46-4.53 28.11-19.03 28.11h-1.1c-8.48 0-16.09-5.22-19.13-13.14l-11.55-30.03a5.99 5.99 0 0 0-5.6-3.85h-74.41c-2.53 0-4.78 1.58-5.64 3.95l-10.75 29.57a20.48 20.48 0 0 1-19.26 13.5c-11.76 0-20.52-9.64-20.52-20.48 0-2.45 0.45-4.97 1.42-7.45z m-56.43 6.93c-4.51 12.6-16.44 21-29.82 21-6.69 0-13.02-2.1-18.24-5.78a31.707 31.707 0 0 1-11.59-15.23l-56.59-158.33c-4.82-13.48 5.17-27.66 19.48-27.66h1.17c8.84 0 16.71 5.63 19.58 14l43.75 127.95c1.24 3.63 6.38 3.6 7.58-0.04l42.26-127.72a20.687 20.687 0 0 1 19.64-14.19c11.83 0 20.71 9.69 20.71 20.66 0 2.31-0.39 4.67-1.23 7.01l-56.7 158.33z m413.38 207.71l-134.36-2.05c-24.03-0.37-43.69 19.02-43.66 43.04l0.16 143.85H245v-279h532.05l-0.92 94.16z m-31.94-271.74c5.4 3.78 10.08 7.79 14.04 12.04 5.89 6.31 13.82 17.51 23.8 33.61l5.25 8.4c8.71 13.91-1.29 31.98-17.71 31.98h-1.11c-6.96 0-13.47-3.47-17.35-9.26l-24.01-35.78c-10.73-16.1-18.07-26.24-22.03-30.43-3.95-4.19-8.14-7.06-12.57-8.61-4.42-1.56-11.43-2.33-21.03-2.33-2.34 0-4.46 0.95-5.99 2.48a8.417 8.417 0 0 0-2.49 5.99v57.04c0 11.54-9.35 20.9-20.89 20.9-5.78 0-11-2.34-14.78-6.12a20.844 20.844 0 0 1-6.12-14.78v-162.1c0-13.25 10.74-24 24-24h63.97c22.12 0 38.19 1.86 48.22 5.58 10.02 3.72 18.05 10.33 24.07 19.84 6.02 9.5 9.04 20.38 9.04 32.61 0 15.54-4.57 28.36-13.7 38.48-7.43 8.24-17.87 14-31.3 17.28-3.35 0.82-4.14 5.19-1.31 7.18z m-2.34-77.13c-3.72-4.28-8.96-6.99-15.74-8.12-3.39-0.47-13.55-0.7-30.5-0.7h-32.62v52.52h30.93c20.05 0 32.57-0.84 37.56-2.54 4.98-1.69 8.89-4.61 11.72-8.75 2.82-4.14 4.23-9.32 4.23-15.53 0-6.97-1.86-12.59-5.58-16.88z m-250.71 80.26h39.28c4.18 0 7.08-4.17 5.63-8.08l-19.84-53.43c-1.94-5.23-9.35-5.21-11.26 0.04L485.5 412c-1.42 3.91 1.48 8.05 5.64 8.05z" fill="#1296db" p-id="2643"></path></svg>