<?xml version="1.0" standalone="no"?><!DOCTYPE svg PUBLIC "-//W3C//DTD SVG 1.1//EN" "http://www.w3.org/Graphics/SVG/1.1/DTD/svg11.dtd"><svg t="1594800504250" class="icon" viewBox="0 0 1024 1024" version="1.1" xmlns="http://www.w3.org/2000/svg" p-id="548" xmlns:xlink="http://www.w3.org/1999/xlink" width="200" height="200"><defs><style type="text/css"></style></defs><path d="M552.379327 530.146033l4.580552-40.379327 94.42984 66.594178L675.842819 521.478219 564.782052 443.256486 574.365976 348.333356l-112.047347-56.305553-101.406372 110.637946-3.664442 160.883078h47.63774l1.409401-138.050788 44.043768-38.547107-1.620811 155.738766 3.805382 3.593971-104.366114 273.423715 45.382699 8.033584 114.936619-232.128278 72.51366 90.272108 39.181336 140.587709h54.191453l-36.010185-171.383112zM551.886037 302.105017c29.245062 0 52.922992-23.67793 52.922992-52.852522 0-29.245062-23.67793-52.922992-52.922992-52.922993-29.245062 0-52.922992 23.67793-52.922992 52.922993 0 29.174592 23.67793 52.852522 52.922992 52.852522z" p-id="549" fill="#1296db"></path></svg>