<?xml version="1.0" standalone="no"?><!DOCTYPE svg PUBLIC "-//W3C//DTD SVG 1.1//EN" "http://www.w3.org/Graphics/SVG/1.1/DTD/svg11.dtd"><svg t="1607440884889" class="icon" viewBox="0 0 1024 1024" version="1.1" xmlns="http://www.w3.org/2000/svg" p-id="4833" xmlns:xlink="http://www.w3.org/1999/xlink" width="200" height="200"><defs><style type="text/css"></style></defs><path d="M512.251611 0a512 512 0 0 1 17.554286 1023.707429L512.251611 1024A512 512 0 0 1 494.697326 0.292571L512.251611 0zM264.66304 692.662857H114.573897a437.76 437.76 0 0 0 267.264 236.251429l18.870857 5.412571a578.706286 578.706286 0 0 1-136.045714-241.590857z m645.266286 0h-150.089143a578.706286 578.706286 0 0 1-135.972572 241.664 437.76 437.76 0 0 0 285.988572-241.590857z m-427.812572 0H327.492754c28.306286 90.697143 79.798857 169.691429 154.624 237.494857V692.662857z m214.893715 0H542.386469v237.494857c74.825143-67.803429 126.244571-146.724571 154.624-237.421714zM251.277897 391.606857H92.411611A436.955429 436.955429 0 0 0 75.588754 512c0 41.837714 5.851429 82.212571 16.822857 120.466286h158.866286A710.290286 710.290286 0 0 1 241.257326 512c0-41.691429 3.364571-81.92 10.020571-120.466286z m230.838857 0h-169.691428A637.805714 637.805714 0 0 0 301.453897 512c0 42.057143 3.657143 82.212571 10.971429 120.466286h169.691428V391.533714z m449.974857 0h-158.72c6.582857 38.546286 9.947429 78.701714 9.947429 120.466286 0 41.691429-3.364571 81.92-10.020571 120.466286h158.866285A436.662857 436.662857 0 0 0 948.914469 512c0-41.837714-5.851429-82.212571-16.896-120.466286z m-220.013714 0h-169.691428v240.932572h169.691428c7.314286-38.253714 10.971429-78.409143 10.971429-120.466286a632.685714 632.685714 0 0 0-10.971429-120.466286zM400.34304 89.819429a437.613714 437.613714 0 0 0-285.842286 241.444571h150.089143a578.706286 578.706286 0 0 1 118.930286-222.573714l16.822857-18.870857z m81.700571 4.169142c-74.825143 67.584-126.244571 146.505143-154.624 237.275429h154.624V93.988571z m141.750858-4.315428a579.803429 579.803429 0 0 1 135.972571 241.590857h150.162286a437.76 437.76 0 0 0-286.134857-241.590857z m-81.481143 4.169143V331.337143h154.624c-28.306286-90.697143-79.798857-169.691429-154.624-237.421714z" p-id="4834" fill="#e6e6e6"></path></svg>