<?xml version="1.0" standalone="no"?><!DOCTYPE svg PUBLIC "-//W3C//DTD SVG 1.1//EN" "http://www.w3.org/Graphics/SVG/1.1/DTD/svg11.dtd"><svg t="1602603146552" class="icon" viewBox="0 0 1024 1024" version="1.1" xmlns="http://www.w3.org/2000/svg" p-id="26418" xmlns:xlink="http://www.w3.org/1999/xlink" width="200" height="200"><defs><style type="text/css"></style></defs><path d="M506.90547 63.116503c-247.272733 0-447.725114 200.453405-447.725114 447.725114 0 247.269663 200.453405 447.724091 447.725114 447.724091 247.270686 0 447.724091-200.454428 447.724091-447.724091C954.630584 263.569908 754.176157 63.116503 506.90547 63.116503zM742.420415 796.183388c-9.072633 0-17.560958-2.506077-24.815175-6.858198l-16.565281-16.506952c-0.64673-1.069355-1.248434-2.169409-1.812275-3.290953l-51.717895-51.430346c-0.109494 0.349971-0.227174 0.697895-0.333598 1.048889L514.109546 586.55502c0.076748-0.051165 0.155543-0.102331 0.234337-0.153496l-37.418214-37.415145c-29.193903 17.440208-63.328327 27.473725-99.807147 27.473725-107.648742 0-194.926528-87.271646-194.926528-194.919365 0-17.132192 2.213411-33.745569 6.365988-49.573045l101.522208 102.153588c0.697895 0.697895 1.427512 1.342578 2.180666 1.943258 0.916882 1.358951 1.970888 2.651386 3.174296 3.852748 10.103102 10.103102 26.469861 10.103102 36.57194 0l103.07661-103.871719c10.105149-10.102079 10.105149-26.476001 0-36.579103-0.638543-0.639566-1.302669-1.237177-1.989307-1.795902-0.87288-1.258667-1.863441-2.462075-2.984984-3.584642l-100.902084-101.523231c15.328104-3.877307 31.377638-5.947456 47.911196-5.947456 107.647719 0 194.913225 87.271646 194.913225 194.925505 0 1.998517-0.039909 3.987824-0.102331 5.972015-0.36225 1.724271-0.554632 3.510964-0.554632 5.343705l0.195451 2.054799c-1.409093 20.741393-6.056949 40.59251-13.447267 59.049884l3.235694 2.225691c-1.431605 0.947582-2.791579 2.050706-4.052293 3.312442-10.104125 10.103102-10.104125 26.477025 0 36.579103l123.596969 123.155924 0.215918-0.233314 22.766516 23.13286 10.369162 10.331299c-0.052189 0.017396-0.101307 0.032746-0.152473 0.048095l52.996005 53.848419c1.254573 0.748037 2.476401 1.545192 3.653203 2.39863l10.685363 10.646478c5.834892 7.984858 9.286504 17.818831 9.286504 28.465309C790.725584 774.548648 769.091868 796.183388 742.420415 796.183388z" p-id="26419" fill="#1296db"></path></svg>